<?xml version="1.0" encoding="utf-8"?>
<!-- Generator: Adobe Illustrator 15.0.2, SVG Export Plug-In . SVG Version: 6.00 Build 0)  -->
<!DOCTYPE svg PUBLIC "-//W3C//DTD SVG 1.1//EN" "http://www.w3.org/Graphics/SVG/1.1/DTD/svg11.dtd">
<svg version="1.1" id="Layer_1" xmlns="http://www.w3.org/2000/svg" xmlns:xlink="http://www.w3.org/1999/xlink" x="0px" y="0px"
	 width="178.059px" height="81.705px" viewBox="0 0 178.059 81.705" enable-background="new 0 0 178.059 81.705"
	 xml:space="preserve">
<g>
	<g>
		<g>
			
				<path fill="none" stroke="#FFFFFF" stroke-width="0.539" stroke-linecap="round" stroke-linejoin="round" stroke-miterlimit="10" d="
				M2.924,67.143L3.1,67.335l0.214,0.117L3.53,67.55l0.252,0.021l0.236-0.021l0.234-0.098l0.192-0.117l0.176-0.192 M4.621,61.876
				L4.445,61.7l-0.192-0.116l-0.234-0.096l-0.236-0.021L3.53,61.488l-0.215,0.096L3.1,61.7l-0.176,0.176 M0.27,67.143h2.654
				 M2.924,61.876H0.27 M4.621,67.143h8.644 M20.134,67.143h2.104 M13.324,61.876H4.621 M2.924,14.487L3.1,14.683l0.214,0.116
				l0.215,0.097l0.252,0.02l0.236-0.02l0.234-0.097l0.192-0.116l0.176-0.196 M4.621,9.222L4.445,9.046L4.252,8.929L4.018,8.832
				L3.782,8.812L3.53,8.832L3.314,8.929L3.1,9.046L2.924,9.222 M0.27,14.487h2.654 M2.924,9.222H0.27 M4.621,14.487h17.618
				 M22.239,9.222H4.621 M0.27,67.143h2.654 M4.621,67.143h8.644 M20.134,67.143h2.104 M13.324,61.876H4.621 M2.924,61.876H0.27
				 M169.907,8.873h-0.155 M0.27,14.487h2.654 M4.621,14.487h17.618 M22.239,9.222H4.621 M2.924,9.222H0.27 M165.34,19.833h0.059
				l0.078,0.018l0.059,0.039l0.037,0.038l0.06,0.059l0.02,0.058l0.018,0.079l0.019,0.057 M169.907,14.214h-0.155 M165.69,20.181
				h4.216 M165.125,19.833h0.215 M165.69,24.747l-0.019,0.075l-0.018,0.06l-0.02,0.057L165.573,25l-0.037,0.038l-0.059,0.041
				l-0.078,0.02h-0.059 M165.34,30.361h0.059l0.078,0.019l0.059,0.041l0.037,0.039l0.06,0.06l0.02,0.057l0.018,0.079l0.019,0.06
				 M169.907,24.747h-4.216 M165.69,30.714h4.216 M165.34,25.097h-0.215 M165.125,30.361h0.215 M22.239,14.566h-1.501
				 M20.737,19.833h6.146 M26.883,25.097h-6.146 M20.737,30.361h6.146 M165.69,35.278l-0.019,0.076l-0.018,0.06l-0.02,0.057
				l-0.06,0.061l-0.037,0.038l-0.059,0.041l-0.078,0.02h-0.059 M165.34,40.892h0.059l0.078,0.019l0.059,0.041l0.037,0.038l0.06,0.06
				l0.02,0.057l0.018,0.079l0.019,0.057 M169.907,35.278h-4.216 M165.69,41.243h4.216 M165.34,35.628h-0.215 M165.125,40.892h0.215
				 M169.907,45.806h-4.216 M165.69,51.774h4.216 M165.69,45.806l-0.019,0.078l-0.018,0.06l-0.02,0.057l-0.06,0.06l-0.037,0.038
				l-0.059,0.039l-0.078,0.021h-0.059 M165.34,51.423h0.059l0.078,0.019l0.059,0.041l0.037,0.039l0.06,0.057l0.02,0.059l0.018,0.079
				l0.019,0.058 M165.34,46.159h-0.215 M165.125,51.423h0.215 M26.883,35.628h-6.146 M20.737,40.892h6.146 M26.883,46.159h-6.146
				 M20.737,51.423h6.146 M165.69,56.337l-0.019,0.078l-0.018,0.06l-0.02,0.058l-0.06,0.057l-0.037,0.041l-0.059,0.039l-0.078,0.018
				h-0.059 M165.34,61.954h0.059l0.078,0.019l0.059,0.038l0.037,0.041l0.06,0.058l0.02,0.059l0.018,0.079l0.019,0.057
				 M169.907,56.337h-4.216 M165.69,62.305h4.216 M165.34,56.688h-0.215 M165.125,61.954h0.215 M169.907,66.869h-0.155
				 M169.751,72.836h0.155 M26.883,56.688h-6.146 M20.737,61.954h6.146 M22.239,67.218h-1.501 M20.737,72.485h1.501 M169.887,72.485
				l0.625-0.021l1.15-0.096l1.112-0.215l1.093-0.311l1.016-0.448l0.934-0.588l0.704-0.602l0.526-0.664l0.41-0.703l0.233-0.762
				l0.098-0.858l-0.098-0.839l-0.233-0.758l-0.391-0.704l-0.505-0.644l-0.644-0.565l-0.801-0.526l-0.938-0.448l-1.032-0.35
				l-1.114-0.253l-1.151-0.139l-0.995-0.039 M172.714,66.556l0.02-0.019l-0.114,0.098l-0.256,0.135l-0.41,0.158l-0.526,0.135
				l-0.645,0.098l-0.701,0.057h-0.196 M169.887,19.833l0.625-0.023l1.15-0.097l1.112-0.212l1.093-0.316l1.016-0.448l0.934-0.583
				l0.704-0.602l0.526-0.666l0.41-0.701l0.233-0.761l0.098-0.858l-0.098-0.839l-0.233-0.762l-0.391-0.7l-0.505-0.644l-0.644-0.565
				l-0.801-0.528l-0.938-0.447l-1.032-0.354l-1.114-0.252l-1.151-0.137l-0.995-0.04 M172.714,13.903l0.02-0.019l-0.114,0.097
				l-0.256,0.137l-0.41,0.155l-0.526,0.135l-0.645,0.102l-0.701,0.057h-0.196 M169.887,30.361l0.625-0.019l1.15-0.098l1.112-0.215
				l1.093-0.313l1.016-0.448l0.934-0.583l0.704-0.604l0.526-0.664l0.41-0.701l0.233-0.76l0.098-0.858l-0.098-0.839l-0.233-0.762
				l-0.391-0.7l-0.505-0.644l-0.644-0.564l-0.801-0.527l-0.938-0.448l-1.032-0.354l-1.114-0.252l-1.151-0.137l-0.995-0.036
				 M172.714,24.434l0.02-0.021l-0.114,0.097l-0.256,0.14l-0.41,0.155l-0.526,0.135l-0.645,0.098l-0.701,0.06h-0.196
				 M169.887,40.892l0.625-0.018l1.15-0.098l1.112-0.215l1.093-0.313l1.016-0.447l0.934-0.584l0.704-0.604l0.526-0.664l0.41-0.703
				l0.233-0.759l0.098-0.858l-0.098-0.839l-0.233-0.76l-0.391-0.702l-0.505-0.643l-0.644-0.568l-0.801-0.524l-0.938-0.451
				l-1.032-0.351l-1.114-0.252l-1.151-0.137l-0.995-0.04 M172.714,34.965l0.02-0.019l-0.114,0.094l-0.256,0.137l-0.41,0.158
				l-0.526,0.134l-0.645,0.098l-0.701,0.06h-0.196 M169.887,51.423l0.625-0.019l1.15-0.098l1.112-0.215l1.093-0.311l1.016-0.449
				l0.934-0.585l0.704-0.604l0.526-0.663l0.41-0.7l0.233-0.762l0.098-0.858l-0.098-0.839l-0.233-0.761l-0.391-0.704l-0.505-0.644
				l-0.644-0.565l-0.801-0.526l-0.938-0.448l-1.032-0.35l-1.114-0.253l-1.151-0.138l-0.995-0.039 M172.714,45.494l0.02-0.019
				l-0.114,0.098l-0.256,0.138l-0.41,0.156l-0.526,0.135l-0.645,0.098l-0.701,0.06h-0.196 M169.887,61.954l0.625-0.018l1.15-0.098
				l1.112-0.215l1.093-0.311l1.016-0.448l0.934-0.588l0.704-0.602l0.526-0.664l0.41-0.703l0.233-0.762l0.098-0.858l-0.098-0.837
				l-0.233-0.76l-0.391-0.704l-0.505-0.643l-0.644-0.565l-0.801-0.526l-0.938-0.448l-1.032-0.35l-1.114-0.253l-1.151-0.139
				l-0.995-0.038 M172.714,56.024l0.02-0.019l-0.114,0.099l-0.256,0.135l-0.41,0.158l-0.526,0.136l-0.645,0.098l-0.701,0.057h-0.196
				 M4.621,67.143v-0.019v-0.196v-0.373v-0.526v-0.625v-0.7v-0.723v-0.682v-0.584v-0.448v-0.294v-0.097 M2.924,67.143v-0.019v-0.196
				v-0.373v-0.526v-0.625v-0.7v-0.723v-0.682v-0.584v-0.448v-0.294v-0.097 M0.27,67.143v-0.019v-0.196v-0.373v-0.526v-0.625v-0.7
				v-0.723v-0.682v-0.584v-0.448v-0.294v-0.097 M28.368,66.42v-0.391V65.99 M4.621,14.487v-0.019v-0.195v-0.37v-0.526v-0.625V12.05
				v-0.722v-0.683v-0.586V9.611V9.32V9.222 M2.924,14.487v-0.019v-0.195v-0.37v-0.526v-0.625V12.05v-0.722v-0.683v-0.586V9.611V9.32
				V9.222 M0.27,14.487v-0.019v-0.195v-0.37v-0.526v-0.625V12.05v-0.722v-0.683v-0.586V9.611V9.32V9.222 M28.368,13.337v-0.586
				V12.05v-0.722v-0.683v-0.117 M169.907,62.305v0.176v0.625v0.72v0.78v0.76v0.723v0.604v0.177 M165.69,61.525v0.02v0.117v0.312
				v0.508v0.625v0.72v0.78v0.76v0.723v0.332 M0.27,62.715v-0.448v-0.294v-0.097 M0.27,67.143v-0.019v-0.196v-0.373v-0.526v-0.644
				v-0.702v-0.722v-0.663v-0.584 M165.69,10.492v0.602v0.78v0.762v0.721v0.039 M169.907,10.373v0.721v0.78v0.762v0.721v0.625v0.233
				 M169.907,8.873L169.907,8.873v0.116V9.28V9.75v0.622 M0.27,14.487L0.27,14.487V14.37v-0.312v-0.487v-0.606v-0.681v-0.722V10.88
				v-0.625V9.75V9.396V9.242v-0.02 M165.69,19.48v0.097v0.313v0.467v0.625v0.7v0.78v0.783v0.72v0.606v0.485v0.293v0.099
				 M169.907,20.181v0.176v0.625v0.7v0.78v0.783v0.72v0.606v0.176 M165.69,30.011v0.097v0.313v0.467v0.625v0.7v0.783v0.78v0.721
				v0.606v0.485v0.293v0.098 M169.907,30.714v0.174v0.625v0.7v0.783v0.78v0.721v0.606v0.176 M13.286,25.097l-0.06,0.195
				l-0.292,1.209l-0.098,1.227l0.098,1.228l0.292,1.209l0.467,1.152l0.645,1.053l0.82,0.935l0.938,0.819l1.053,0.645l1.15,0.467
				l1.211,0.293l1.228,0.098 M165.69,40.542v0.098v0.312v0.467v0.625v0.702v0.779v0.78v0.723v0.606v0.485v0.294v0.097
				 M169.907,41.243v0.176v0.625v0.702v0.779v0.78v0.723v0.606v0.173 M165.69,51.073v0.098v0.312v0.467v0.625v0.701v0.779v0.78
				v0.723v0.606v0.485v0.295v0.097 M169.907,51.774v0.176v0.625v0.701v0.779v0.78v0.723v0.606v0.174 M13.286,46.159l-0.06,0.193
				l-0.292,1.209l-0.098,1.23l0.098,1.227l0.292,1.209l0.467,1.152l0.645,1.055l0.82,0.934l0.938,0.819l1.053,0.645l1.15,0.467
				l1.211,0.291l1.228,0.098 M165.69,15.308v0.407v0.703v0.78v0.78V18.7v0.605v0.486v0.293v0.096 M169.907,14.214v0.099v0.312v0.467
				v0.622v0.703v0.78v0.78V18.7v0.605v0.486v0.293v0.096 M165.69,24.747v0.094v0.313v0.47v0.625v0.701v0.779v0.78v0.723v0.603v0.489
				v0.293v0.098 M169.907,24.747v0.094v0.313v0.47v0.625v0.701v0.779v0.78v0.723v0.603v0.489v0.293v0.098 M20.737,14.566
				l-1.228,0.097l-1.211,0.295l-1.15,0.466l-1.053,0.644l-0.938,0.818l-0.82,0.937l-0.645,1.054l-0.467,1.149l-0.292,1.208
				l-0.098,1.228l0.098,1.231l0.292,1.208l0.467,1.152l0.645,1.051l0.82,0.938l0.938,0.819l1.053,0.642l1.15,0.47l1.211,0.291
				l1.228,0.098 M20.737,25.097L19.999,25l-0.685-0.312l-0.565-0.507l-0.411-0.623l-0.213-0.723v-0.741l0.213-0.72l0.411-0.625
				l0.565-0.489l0.685-0.309l0.738-0.116 M165.69,35.278v0.095v0.312v0.467v0.625v0.704v0.779v0.78v0.723v0.604v0.488v0.291v0.098
				 M169.907,35.278v0.095v0.312v0.467v0.625v0.704v0.779v0.78v0.723v0.604v0.488v0.291v0.098 M169.907,45.806v0.097v0.313v0.467
				v0.625v0.701v0.782v0.779v0.72v0.606v0.485v0.293v0.098 M165.69,45.806v0.097v0.313v0.467v0.625v0.701v0.782v0.779v0.72v0.606
				v0.485v0.293v0.098 M20.737,35.628l-1.228,0.098l-1.211,0.29l-1.15,0.47l-1.053,0.641l-0.938,0.821l-0.82,0.937l-0.645,1.054
				l-0.467,1.149l-0.292,1.209l-0.098,1.227l0.098,1.23l0.292,1.21l0.467,1.148l0.645,1.053l0.82,0.938l0.938,0.818l1.053,0.643
				l1.15,0.47l1.211,0.29l1.228,0.099 M20.737,46.159l-0.738-0.097l-0.685-0.312l-0.565-0.507l-0.411-0.625l-0.213-0.72v-0.741
				l0.213-0.723l0.411-0.622l0.565-0.488l0.685-0.313l0.738-0.117 M165.69,56.337v0.098v0.312v0.467v0.625v0.701v0.783v0.778v0.723
				v0.604v0.488v0.292v0.097 M169.907,56.337v0.098v0.312v0.467v0.625v0.701v0.783v0.778v0.723v0.604v0.488v0.292v0.097
				 M165.69,68.33v0.041v0.7v0.783v0.779v0.603 M169.907,66.869v0.098v0.312v0.467v0.625v0.7v0.783v0.779v0.719v0.606v0.487v0.293
				v0.097 M20.737,56.688l-1.228,0.098l-1.211,0.293l-1.15,0.466l-1.053,0.645l-0.938,0.82l-0.82,0.936l-0.645,1.053l-0.467,1.153
				l-0.292,1.208l-0.098,1.228l0.098,1.229l0.292,1.208l0.467,1.151l0.645,1.054l0.82,0.934l0.938,0.821l1.053,0.643l1.15,0.467
				l1.211,0.293l1.228,0.098 M20.737,67.218l-0.738-0.094l-0.685-0.313l-0.565-0.507l-0.411-0.625l-0.213-0.723v-0.739l0.213-0.723
				l0.411-0.625l0.565-0.485l0.685-0.313l0.738-0.117 M110.511,15.308V9.964 M110.511,15.308H81.499 M81.499,15.308V9.964
				 M81.499,9.964H44.7 M44.7,9.964v5.344 M44.7,15.308H22.239 M169.751,7.292v8.016 M169.751,15.308h-22.438 M147.313,9.964v5.344
				 M110.511,9.964h36.802 M156.483,11.933l0.117-0.546l0.273-0.469l0.448-0.332l0.528-0.135l0.545,0.041l0.49,0.252l0.37,0.41
				l0.195,0.505v0.546l-0.195,0.508l-0.37,0.41l-0.49,0.253l-0.545,0.037l-0.528-0.135l-0.448-0.332l-0.273-0.467L156.483,11.933z
				 M93.48,11.933l-0.12-0.546l-0.291-0.469l-0.43-0.332l-0.526-0.135l-0.546,0.041l-0.488,0.252l-0.37,0.41l-0.218,0.505v0.546
				l0.218,0.508l0.37,0.41l0.488,0.253l0.546,0.037l0.526-0.135l0.43-0.332l0.291-0.467L93.48,11.933z M35.527,11.933l-0.117-0.546
				l-0.293-0.469l-0.429-0.332l-0.524-0.135l-0.549,0.041l-0.485,0.252l-0.373,0.41l-0.214,0.505v0.546l0.214,0.508l0.373,0.41
				l0.485,0.253l0.549,0.037l0.524-0.135l0.429-0.332l0.293-0.467L35.527,11.933z M98.533,11.933l0.117-0.546l0.273-0.469
				l0.448-0.332l0.528-0.135l0.545,0.041l0.487,0.252l0.373,0.41l0.195,0.505v0.546l-0.195,0.508l-0.373,0.41l-0.487,0.253
				l-0.545,0.037l-0.528-0.135l-0.448-0.332l-0.273-0.467L98.533,11.933z M166.454,11.933l-0.098-0.605l-0.312-0.527l-0.471-0.389
				l-0.564-0.213h-0.603l-0.587,0.213l-0.467,0.389l-0.292,0.527l-0.117,0.605l0.117,0.604l0.292,0.526l0.467,0.392l0.587,0.215
				h0.603l0.564-0.215l0.471-0.392l0.312-0.526L166.454,11.933z M29.07,11.933l-0.116-0.605l-0.293-0.527l-0.466-0.389l-0.588-0.213
				h-0.604l-0.565,0.213l-0.468,0.389l-0.312,0.527l-0.099,0.605l0.099,0.604l0.312,0.526l0.468,0.392l0.565,0.215h0.604
				l0.588-0.215l0.466-0.392l0.293-0.526L29.07,11.933z M22.239,15.308V7.292 M169.751,6.042v0.021v0.08v0.117v0.155v0.176v0.233
				v0.234v0.233 M22.239,7.292V7.058V6.824V6.591V6.415V6.259V6.143v-0.08V6.042 M22.239,6.042h147.513 M169.751,6.042V6.023v-0.02
				V5.966v-0.06V5.849V5.77V5.692V5.614 M22.239,5.614v0.078V5.77v0.079v0.058v0.06v0.037v0.02v0.019 M157.808,3.235l0.116,0.527
				l0.313,0.467l0.451,0.293l0.526,0.117l0.546-0.117l0.447-0.293l0.313-0.467l0.098-0.527 M160.62,3.235V0.27 M160.62,0.27h9.132
				 M169.751,0.27v5.345 M31.372,0.27v2.966 M31.372,3.235l0.119,0.527L31.8,4.23l0.448,0.293l0.528,0.117l0.547-0.117l0.448-0.293
				l0.313-0.467l0.097-0.527 M34.183,3.235V0.27 M94.591,0.27v2.966 M94.591,3.235l0.117,0.527L95.02,4.23l0.448,0.293l0.528,0.117
				l0.544-0.117L96.99,4.23l0.312-0.467l0.099-0.527 M97.401,3.235V0.27 M97.401,0.27h60.407 M157.808,0.27v2.966 M22.239,0.27
				h9.133 M34.183,0.27h60.408 M22.239,5.614V0.27 M81.499,66.42v5.324 M81.499,66.42h29.012 M110.511,66.42v5.324 M110.511,71.744
				h36.802 M147.313,71.744V66.42 M147.313,66.42h22.438 M169.751,66.42v7.993 M22.239,66.42H44.7 M44.7,71.744V66.42
				 M81.499,71.744H44.7 M35.527,69.774l-0.117,0.546l-0.293,0.467l-0.429,0.332l-0.524,0.158l-0.549-0.06l-0.485-0.233
				l-0.373-0.411l-0.214-0.508v-0.563l0.214-0.506l0.373-0.41l0.485-0.233l0.549-0.059l0.524,0.155l0.429,0.332l0.293,0.469
				L35.527,69.774z M98.533,69.774l0.117,0.546l0.273,0.467l0.448,0.332l0.528,0.158l0.545-0.06l0.487-0.233l0.373-0.411
				l0.195-0.508v-0.563l-0.195-0.506l-0.373-0.41l-0.487-0.233l-0.545-0.059l-0.528,0.155l-0.448,0.332l-0.273,0.469L98.533,69.774z
				 M156.483,69.774l0.117,0.546l0.273,0.467l0.448,0.332l0.528,0.158l0.545-0.06l0.49-0.233l0.37-0.411l0.195-0.508v-0.563
				l-0.195-0.506l-0.37-0.41l-0.49-0.233l-0.545-0.059l-0.528,0.155l-0.448,0.332l-0.273,0.469L156.483,69.774z M93.48,69.774
				l-0.12,0.546l-0.291,0.467l-0.43,0.332l-0.526,0.158l-0.546-0.06l-0.488-0.233l-0.37-0.411l-0.218-0.508v-0.563l0.218-0.506
				l0.37-0.41l0.488-0.233l0.546-0.059l0.526,0.155l0.43,0.332l0.291,0.469L93.48,69.774z M25.558,69.774l0.099,0.604l0.312,0.526
				l0.468,0.392l0.565,0.215h0.604l0.588-0.215l0.466-0.392l0.293-0.526l0.116-0.604l-0.116-0.583l-0.293-0.526l-0.466-0.392
				l-0.588-0.215h-0.604l-0.565,0.215l-0.468,0.392l-0.312,0.526L25.558,69.774z M162.942,69.774l0.117,0.604l0.292,0.526
				l0.467,0.392l0.587,0.215h0.603l0.564-0.215l0.471-0.392l0.312-0.526l0.098-0.604l-0.098-0.583l-0.312-0.526l-0.471-0.392
				l-0.564-0.215h-0.603l-0.587,0.215l-0.467,0.392l-0.292,0.526L162.942,69.774z M22.239,74.414V66.42 M22.239,75.683v-0.02v-0.078
				v-0.116v-0.156v-0.195v-0.215V74.67v-0.256 M169.751,74.414v0.256v0.233v0.215v0.195v0.156v0.116v0.078v0.02 M169.751,75.683
				H22.239 M169.751,76.093v-0.08v-0.076v-0.078V75.8v-0.039V75.72v-0.037 M22.239,75.683L22.239,75.683v0.037v0.041V75.8v0.06
				v0.078v0.076v0.08 M34.183,78.491l-0.097-0.545l-0.313-0.448l-0.448-0.313l-0.547-0.097l-0.528,0.097L31.8,77.498l-0.309,0.448
				l-0.119,0.545 M31.372,78.491v2.944 M31.372,81.436h-9.133 M169.751,76.093v5.342 M169.751,81.436h-9.132 M160.62,81.436v-2.944
				 M160.62,78.491l-0.098-0.545l-0.313-0.448l-0.447-0.313l-0.546-0.097l-0.526,0.097l-0.451,0.313l-0.313,0.448l-0.116,0.545
				 M157.808,78.491v2.944 M157.808,81.436H97.401 M97.401,81.436v-2.944 M97.401,78.491l-0.099-0.545l-0.312-0.448l-0.449-0.313
				l-0.544-0.097l-0.528,0.097l-0.448,0.313l-0.312,0.448l-0.117,0.545 M94.591,78.491v2.944 M94.591,81.436H34.183 M34.183,81.436
				v-2.944 M22.239,81.436v-5.342 M165.125,65.99h-0.037h-0.098h-0.157h-0.195h-0.272h-0.274h-0.332h-0.332 M163.428,15.715h0.332
				h0.332h0.274h0.272h0.195h0.157h0.098h0.037 M165.125,15.715V65.99 M163.428,65.99h-2.654 M160.774,15.715h2.654 M160.774,15.715
				V65.99 M165.125,10.235v3.393 M164.286,10.235v3.393 M165.125,68.077v3.415 M164.286,68.077v3.415 M165.125,15.715v-0.407
				 M164.286,15.715v-0.407 M165.125,65.99v0.43 M164.286,65.99v0.43 M28.562,65.99h-0.312H27.92h-0.293h-0.253h-0.195h-0.156
				h-0.101h-0.039 M26.883,65.99V15.715 M26.883,15.715h0.039h0.101h0.156h0.195h0.253h0.293h0.331h0.312 M28.562,15.715h2.673
				 M31.235,65.99V15.715 M31.235,65.99h-2.673 M27.723,13.628v-3.393 M26.883,13.628v-3.393 M27.723,71.492v-3.415 M26.883,71.492
				v-3.415 M27.723,15.715v-0.407 M26.883,15.715v-0.407 M27.723,65.99v0.43 M26.883,65.99v0.43"/>
		</g>
	</g>
	<g>
		<g>
			
				<path fill="none" stroke="#245684" stroke-width="0.35" stroke-linecap="round" stroke-linejoin="round" stroke-miterlimit="10" d="
				M2.924,67.143L3.1,67.335l0.214,0.117L3.53,67.55l0.252,0.021l0.236-0.021l0.234-0.098l0.192-0.117l0.176-0.192 M4.621,61.876
				L4.445,61.7l-0.192-0.116l-0.234-0.096l-0.236-0.021L3.53,61.488l-0.215,0.096L3.1,61.7l-0.176,0.176 M0.27,67.143h2.654
				 M2.924,61.876H0.27 M4.621,67.143h8.644 M20.134,67.143h2.104 M13.324,61.876H4.621 M2.924,14.487L3.1,14.683l0.214,0.116
				l0.215,0.097l0.252,0.02l0.236-0.02l0.234-0.097l0.192-0.116l0.176-0.196 M4.621,9.222L4.445,9.046L4.252,8.929L4.018,8.832
				L3.782,8.812L3.53,8.832L3.314,8.929L3.1,9.046L2.924,9.222 M0.27,14.487h2.654 M2.924,9.222H0.27 M4.621,14.487h17.618
				 M22.239,9.222H4.621 M0.27,67.143h2.654 M4.621,67.143h8.644 M20.134,67.143h2.104 M13.324,61.876H4.621 M2.924,61.876H0.27
				 M169.907,8.873h-0.155 M0.27,14.487h2.654 M4.621,14.487h17.618 M22.239,9.222H4.621 M2.924,9.222H0.27 M165.34,19.833h0.059
				l0.078,0.018l0.059,0.039l0.037,0.038l0.06,0.059l0.02,0.058l0.018,0.079l0.019,0.057 M169.907,14.214h-0.155 M165.69,20.181
				h4.216 M165.125,19.833h0.215 M165.69,24.747l-0.019,0.075l-0.018,0.06l-0.02,0.057L165.573,25l-0.037,0.038l-0.059,0.041
				l-0.078,0.02h-0.059 M165.34,30.361h0.059l0.078,0.019l0.059,0.041l0.037,0.039l0.06,0.06l0.02,0.057l0.018,0.079l0.019,0.06
				 M169.907,24.747h-4.216 M165.69,30.714h4.216 M165.34,25.097h-0.215 M165.125,30.361h0.215 M22.239,14.566h-1.501
				 M20.737,19.833h6.146 M26.883,25.097h-6.146 M20.737,30.361h6.146 M165.69,35.278l-0.019,0.076l-0.018,0.06l-0.02,0.057
				l-0.06,0.061l-0.037,0.038l-0.059,0.041l-0.078,0.02h-0.059 M165.34,40.892h0.059l0.078,0.019l0.059,0.041l0.037,0.038l0.06,0.06
				l0.02,0.057l0.018,0.079l0.019,0.057 M169.907,35.278h-4.216 M165.69,41.243h4.216 M165.34,35.628h-0.215 M165.125,40.892h0.215
				 M169.907,45.806h-4.216 M165.69,51.774h4.216 M165.69,45.806l-0.019,0.078l-0.018,0.06l-0.02,0.057l-0.06,0.06l-0.037,0.038
				l-0.059,0.039l-0.078,0.021h-0.059 M165.34,51.423h0.059l0.078,0.019l0.059,0.041l0.037,0.039l0.06,0.057l0.02,0.059l0.018,0.079
				l0.019,0.058 M165.34,46.159h-0.215 M165.125,51.423h0.215 M26.883,35.628h-6.146 M20.737,40.892h6.146 M26.883,46.159h-6.146
				 M20.737,51.423h6.146 M165.69,56.337l-0.019,0.078l-0.018,0.06l-0.02,0.058l-0.06,0.057l-0.037,0.041l-0.059,0.039l-0.078,0.018
				h-0.059 M165.34,61.954h0.059l0.078,0.019l0.059,0.038l0.037,0.041l0.06,0.058l0.02,0.059l0.018,0.079l0.019,0.057
				 M169.907,56.337h-4.216 M165.69,62.305h4.216 M165.34,56.688h-0.215 M165.125,61.954h0.215 M169.907,66.869h-0.155
				 M169.751,72.836h0.155 M26.883,56.688h-6.146 M20.737,61.954h6.146 M22.239,67.218h-1.501 M20.737,72.485h1.501 M169.887,72.485
				l0.625-0.021l1.15-0.096l1.112-0.215l1.093-0.311l1.016-0.448l0.934-0.588l0.704-0.602l0.526-0.664l0.41-0.703l0.233-0.762
				l0.098-0.858l-0.098-0.839l-0.233-0.758l-0.391-0.704l-0.505-0.644l-0.644-0.565l-0.801-0.526l-0.938-0.448l-1.032-0.35
				l-1.114-0.253l-1.151-0.139l-0.995-0.039 M172.714,66.556l0.02-0.019l-0.114,0.098l-0.256,0.135l-0.41,0.158l-0.526,0.135
				l-0.645,0.098l-0.701,0.057h-0.196 M169.887,19.833l0.625-0.023l1.15-0.097l1.112-0.212l1.093-0.316l1.016-0.448l0.934-0.583
				l0.704-0.602l0.526-0.666l0.41-0.701l0.233-0.761l0.098-0.858l-0.098-0.839l-0.233-0.762l-0.391-0.7l-0.505-0.644l-0.644-0.565
				l-0.801-0.528l-0.938-0.447l-1.032-0.354l-1.114-0.252l-1.151-0.137l-0.995-0.04 M172.714,13.903l0.02-0.019l-0.114,0.097
				l-0.256,0.137l-0.41,0.155l-0.526,0.135l-0.645,0.102l-0.701,0.057h-0.196 M169.887,30.361l0.625-0.019l1.15-0.098l1.112-0.215
				l1.093-0.313l1.016-0.448l0.934-0.583l0.704-0.604l0.526-0.664l0.41-0.701l0.233-0.76l0.098-0.858l-0.098-0.839l-0.233-0.762
				l-0.391-0.7l-0.505-0.644l-0.644-0.564l-0.801-0.527l-0.938-0.448l-1.032-0.354l-1.114-0.252l-1.151-0.137l-0.995-0.036
				 M172.714,24.434l0.02-0.021l-0.114,0.097l-0.256,0.14l-0.41,0.155l-0.526,0.135l-0.645,0.098l-0.701,0.06h-0.196
				 M169.887,40.892l0.625-0.018l1.15-0.098l1.112-0.215l1.093-0.313l1.016-0.447l0.934-0.584l0.704-0.604l0.526-0.664l0.41-0.703
				l0.233-0.759l0.098-0.858l-0.098-0.839l-0.233-0.76l-0.391-0.702l-0.505-0.643l-0.644-0.568l-0.801-0.524l-0.938-0.451
				l-1.032-0.351l-1.114-0.252l-1.151-0.137l-0.995-0.04 M172.714,34.965l0.02-0.019l-0.114,0.094l-0.256,0.137l-0.41,0.158
				l-0.526,0.134l-0.645,0.098l-0.701,0.06h-0.196 M169.887,51.423l0.625-0.019l1.15-0.098l1.112-0.215l1.093-0.311l1.016-0.449
				l0.934-0.585l0.704-0.604l0.526-0.663l0.41-0.7l0.233-0.762l0.098-0.858l-0.098-0.839l-0.233-0.761l-0.391-0.704l-0.505-0.644
				l-0.644-0.565l-0.801-0.526l-0.938-0.448l-1.032-0.35l-1.114-0.253l-1.151-0.138l-0.995-0.039 M172.714,45.494l0.02-0.019
				l-0.114,0.098l-0.256,0.138l-0.41,0.156l-0.526,0.135l-0.645,0.098l-0.701,0.06h-0.196 M169.887,61.954l0.625-0.018l1.15-0.098
				l1.112-0.215l1.093-0.311l1.016-0.448l0.934-0.588l0.704-0.602l0.526-0.664l0.41-0.703l0.233-0.762l0.098-0.858l-0.098-0.837
				l-0.233-0.76l-0.391-0.704l-0.505-0.643l-0.644-0.565l-0.801-0.526l-0.938-0.448l-1.032-0.35l-1.114-0.253l-1.151-0.139
				l-0.995-0.038 M172.714,56.024l0.02-0.019l-0.114,0.099l-0.256,0.135l-0.41,0.158l-0.526,0.136l-0.645,0.098l-0.701,0.057h-0.196
				 M4.621,67.143v-0.019v-0.196v-0.373v-0.526v-0.625v-0.7v-0.723v-0.682v-0.584v-0.448v-0.294v-0.097 M2.924,67.143v-0.019v-0.196
				v-0.373v-0.526v-0.625v-0.7v-0.723v-0.682v-0.584v-0.448v-0.294v-0.097 M0.27,67.143v-0.019v-0.196v-0.373v-0.526v-0.625v-0.7
				v-0.723v-0.682v-0.584v-0.448v-0.294v-0.097 M28.368,66.42v-0.391V65.99 M4.621,14.487v-0.019v-0.195v-0.37v-0.526v-0.625V12.05
				v-0.722v-0.683v-0.586V9.611V9.32V9.222 M2.924,14.487v-0.019v-0.195v-0.37v-0.526v-0.625V12.05v-0.722v-0.683v-0.586V9.611V9.32
				V9.222 M0.27,14.487v-0.019v-0.195v-0.37v-0.526v-0.625V12.05v-0.722v-0.683v-0.586V9.611V9.32V9.222 M28.368,13.337v-0.586
				V12.05v-0.722v-0.683v-0.117 M169.907,62.305v0.176v0.625v0.72v0.78v0.76v0.723v0.604v0.177 M165.69,61.525v0.02v0.117v0.312
				v0.508v0.625v0.72v0.78v0.76v0.723v0.332 M0.27,62.715v-0.448v-0.294v-0.097 M0.27,67.143v-0.019v-0.196v-0.373v-0.526v-0.644
				v-0.702v-0.722v-0.663v-0.584 M165.69,10.492v0.602v0.78v0.762v0.721v0.039 M169.907,10.373v0.721v0.78v0.762v0.721v0.625v0.233
				 M169.907,8.873L169.907,8.873v0.116V9.28V9.75v0.622 M0.27,14.487L0.27,14.487V14.37v-0.312v-0.487v-0.606v-0.681v-0.722V10.88
				v-0.625V9.75V9.396V9.242v-0.02 M165.69,19.48v0.097v0.313v0.467v0.625v0.7v0.78v0.783v0.72v0.606v0.485v0.293v0.099
				 M169.907,20.181v0.176v0.625v0.7v0.78v0.783v0.72v0.606v0.176 M165.69,30.011v0.097v0.313v0.467v0.625v0.7v0.783v0.78v0.721
				v0.606v0.485v0.293v0.098 M169.907,30.714v0.174v0.625v0.7v0.783v0.78v0.721v0.606v0.176 M13.286,25.097l-0.06,0.195
				l-0.292,1.209l-0.098,1.227l0.098,1.228l0.292,1.209l0.467,1.152l0.645,1.053l0.82,0.935l0.938,0.819l1.053,0.645l1.15,0.467
				l1.211,0.293l1.228,0.098 M165.69,40.542v0.098v0.312v0.467v0.625v0.702v0.779v0.78v0.723v0.606v0.485v0.294v0.097
				 M169.907,41.243v0.176v0.625v0.702v0.779v0.78v0.723v0.606v0.173 M165.69,51.073v0.098v0.312v0.467v0.625v0.701v0.779v0.78
				v0.723v0.606v0.485v0.295v0.097 M169.907,51.774v0.176v0.625v0.701v0.779v0.78v0.723v0.606v0.174 M13.286,46.159l-0.06,0.193
				l-0.292,1.209l-0.098,1.23l0.098,1.227l0.292,1.209l0.467,1.152l0.645,1.055l0.82,0.934l0.938,0.819l1.053,0.645l1.15,0.467
				l1.211,0.291l1.228,0.098 M165.69,15.308v0.407v0.703v0.78v0.78V18.7v0.605v0.486v0.293v0.096 M169.907,14.214v0.099v0.312v0.467
				v0.622v0.703v0.78v0.78V18.7v0.605v0.486v0.293v0.096 M165.69,24.747v0.094v0.313v0.47v0.625v0.701v0.779v0.78v0.723v0.603v0.489
				v0.293v0.098 M169.907,24.747v0.094v0.313v0.47v0.625v0.701v0.779v0.78v0.723v0.603v0.489v0.293v0.098 M20.737,14.566
				l-1.228,0.097l-1.211,0.295l-1.15,0.466l-1.053,0.644l-0.938,0.818l-0.82,0.937l-0.645,1.054l-0.467,1.149l-0.292,1.208
				l-0.098,1.228l0.098,1.231l0.292,1.208l0.467,1.152l0.645,1.051l0.82,0.938l0.938,0.819l1.053,0.642l1.15,0.47l1.211,0.291
				l1.228,0.098 M20.737,25.097L19.999,25l-0.685-0.312l-0.565-0.507l-0.411-0.623l-0.213-0.723v-0.741l0.213-0.72l0.411-0.625
				l0.565-0.489l0.685-0.309l0.738-0.116 M165.69,35.278v0.095v0.312v0.467v0.625v0.704v0.779v0.78v0.723v0.604v0.488v0.291v0.098
				 M169.907,35.278v0.095v0.312v0.467v0.625v0.704v0.779v0.78v0.723v0.604v0.488v0.291v0.098 M169.907,45.806v0.097v0.313v0.467
				v0.625v0.701v0.782v0.779v0.72v0.606v0.485v0.293v0.098 M165.69,45.806v0.097v0.313v0.467v0.625v0.701v0.782v0.779v0.72v0.606
				v0.485v0.293v0.098 M20.737,35.628l-1.228,0.098l-1.211,0.29l-1.15,0.47l-1.053,0.641l-0.938,0.821l-0.82,0.937l-0.645,1.054
				l-0.467,1.149l-0.292,1.209l-0.098,1.227l0.098,1.23l0.292,1.21l0.467,1.148l0.645,1.053l0.82,0.938l0.938,0.818l1.053,0.643
				l1.15,0.47l1.211,0.29l1.228,0.099 M20.737,46.159l-0.738-0.097l-0.685-0.312l-0.565-0.507l-0.411-0.625l-0.213-0.72v-0.741
				l0.213-0.723l0.411-0.622l0.565-0.488l0.685-0.313l0.738-0.117 M165.69,56.337v0.098v0.312v0.467v0.625v0.701v0.783v0.778v0.723
				v0.604v0.488v0.292v0.097 M169.907,56.337v0.098v0.312v0.467v0.625v0.701v0.783v0.778v0.723v0.604v0.488v0.292v0.097
				 M165.69,68.33v0.041v0.7v0.783v0.779v0.603 M169.907,66.869v0.098v0.312v0.467v0.625v0.7v0.783v0.779v0.719v0.606v0.487v0.293
				v0.097 M20.737,56.688l-1.228,0.098l-1.211,0.293l-1.15,0.466l-1.053,0.645l-0.938,0.82l-0.82,0.936l-0.645,1.053l-0.467,1.153
				l-0.292,1.208l-0.098,1.228l0.098,1.229l0.292,1.208l0.467,1.151l0.645,1.054l0.82,0.934l0.938,0.821l1.053,0.643l1.15,0.467
				l1.211,0.293l1.228,0.098 M20.737,67.218l-0.738-0.094l-0.685-0.313l-0.565-0.507l-0.411-0.625l-0.213-0.723v-0.739l0.213-0.723
				l0.411-0.625l0.565-0.485l0.685-0.313l0.738-0.117 M110.511,15.308V9.964 M110.511,15.308H81.499 M81.499,15.308V9.964
				 M81.499,9.964H44.7 M44.7,9.964v5.344 M44.7,15.308H22.239 M169.751,7.292v8.016 M169.751,15.308h-22.438 M147.313,9.964v5.344
				 M110.511,9.964h36.802 M156.483,11.933l0.117-0.546l0.273-0.469l0.448-0.332l0.528-0.135l0.545,0.041l0.49,0.252l0.37,0.41
				l0.195,0.505v0.546l-0.195,0.508l-0.37,0.41l-0.49,0.253l-0.545,0.037l-0.528-0.135l-0.448-0.332l-0.273-0.467L156.483,11.933z
				 M93.48,11.933l-0.12-0.546l-0.291-0.469l-0.43-0.332l-0.526-0.135l-0.546,0.041l-0.488,0.252l-0.37,0.41l-0.218,0.505v0.546
				l0.218,0.508l0.37,0.41l0.488,0.253l0.546,0.037l0.526-0.135l0.43-0.332l0.291-0.467L93.48,11.933z M35.527,11.933l-0.117-0.546
				l-0.293-0.469l-0.429-0.332l-0.524-0.135l-0.549,0.041l-0.485,0.252l-0.373,0.41l-0.214,0.505v0.546l0.214,0.508l0.373,0.41
				l0.485,0.253l0.549,0.037l0.524-0.135l0.429-0.332l0.293-0.467L35.527,11.933z M98.533,11.933l0.117-0.546l0.273-0.469
				l0.448-0.332l0.528-0.135l0.545,0.041l0.487,0.252l0.373,0.41l0.195,0.505v0.546l-0.195,0.508l-0.373,0.41l-0.487,0.253
				l-0.545,0.037l-0.528-0.135l-0.448-0.332l-0.273-0.467L98.533,11.933z M166.454,11.933l-0.098-0.605l-0.312-0.527l-0.471-0.389
				l-0.564-0.213h-0.603l-0.587,0.213l-0.467,0.389l-0.292,0.527l-0.117,0.605l0.117,0.604l0.292,0.526l0.467,0.392l0.587,0.215
				h0.603l0.564-0.215l0.471-0.392l0.312-0.526L166.454,11.933z M29.07,11.933l-0.116-0.605l-0.293-0.527l-0.466-0.389l-0.588-0.213
				h-0.604l-0.565,0.213l-0.468,0.389l-0.312,0.527l-0.099,0.605l0.099,0.604l0.312,0.526l0.468,0.392l0.565,0.215h0.604
				l0.588-0.215l0.466-0.392l0.293-0.526L29.07,11.933z M22.239,15.308V7.292 M169.751,6.042v0.021v0.08v0.117v0.155v0.176v0.233
				v0.234v0.233 M22.239,7.292V7.058V6.824V6.591V6.415V6.259V6.143v-0.08V6.042 M22.239,6.042h147.513 M169.751,6.042V6.023v-0.02
				V5.966v-0.06V5.849V5.77V5.692V5.614 M22.239,5.614v0.078V5.77v0.079v0.058v0.06v0.037v0.02v0.019 M157.808,3.235l0.116,0.527
				l0.313,0.467l0.451,0.293l0.526,0.117l0.546-0.117l0.447-0.293l0.313-0.467l0.098-0.527 M160.62,3.235V0.27 M160.62,0.27h9.132
				 M169.751,0.27v5.345 M31.372,0.27v2.966 M31.372,3.235l0.119,0.527L31.8,4.23l0.448,0.293l0.528,0.117l0.547-0.117l0.448-0.293
				l0.313-0.467l0.097-0.527 M34.183,3.235V0.27 M94.591,0.27v2.966 M94.591,3.235l0.117,0.527L95.02,4.23l0.448,0.293l0.528,0.117
				l0.544-0.117L96.99,4.23l0.312-0.467l0.099-0.527 M97.401,3.235V0.27 M97.401,0.27h60.407 M157.808,0.27v2.966 M22.239,0.27
				h9.133 M34.183,0.27h60.408 M22.239,5.614V0.27 M81.499,66.42v5.324 M81.499,66.42h29.012 M110.511,66.42v5.324 M110.511,71.744
				h36.802 M147.313,71.744V66.42 M147.313,66.42h22.438 M169.751,66.42v7.993 M22.239,66.42H44.7 M44.7,71.744V66.42
				 M81.499,71.744H44.7 M35.527,69.774l-0.117,0.546l-0.293,0.467l-0.429,0.332l-0.524,0.158l-0.549-0.06l-0.485-0.233
				l-0.373-0.411l-0.214-0.508v-0.563l0.214-0.506l0.373-0.41l0.485-0.233l0.549-0.059l0.524,0.155l0.429,0.332l0.293,0.469
				L35.527,69.774z M98.533,69.774l0.117,0.546l0.273,0.467l0.448,0.332l0.528,0.158l0.545-0.06l0.487-0.233l0.373-0.411
				l0.195-0.508v-0.563l-0.195-0.506l-0.373-0.41l-0.487-0.233l-0.545-0.059l-0.528,0.155l-0.448,0.332l-0.273,0.469L98.533,69.774z
				 M156.483,69.774l0.117,0.546l0.273,0.467l0.448,0.332l0.528,0.158l0.545-0.06l0.49-0.233l0.37-0.411l0.195-0.508v-0.563
				l-0.195-0.506l-0.37-0.41l-0.49-0.233l-0.545-0.059l-0.528,0.155l-0.448,0.332l-0.273,0.469L156.483,69.774z M93.48,69.774
				l-0.12,0.546l-0.291,0.467l-0.43,0.332l-0.526,0.158l-0.546-0.06l-0.488-0.233l-0.37-0.411l-0.218-0.508v-0.563l0.218-0.506
				l0.37-0.41l0.488-0.233l0.546-0.059l0.526,0.155l0.43,0.332l0.291,0.469L93.48,69.774z M25.558,69.774l0.099,0.604l0.312,0.526
				l0.468,0.392l0.565,0.215h0.604l0.588-0.215l0.466-0.392l0.293-0.526l0.116-0.604l-0.116-0.583l-0.293-0.526l-0.466-0.392
				l-0.588-0.215h-0.604l-0.565,0.215l-0.468,0.392l-0.312,0.526L25.558,69.774z M162.942,69.774l0.117,0.604l0.292,0.526
				l0.467,0.392l0.587,0.215h0.603l0.564-0.215l0.471-0.392l0.312-0.526l0.098-0.604l-0.098-0.583l-0.312-0.526l-0.471-0.392
				l-0.564-0.215h-0.603l-0.587,0.215l-0.467,0.392l-0.292,0.526L162.942,69.774z M22.239,74.414V66.42 M22.239,75.683v-0.02v-0.078
				v-0.116v-0.156v-0.195v-0.215V74.67v-0.256 M169.751,74.414v0.256v0.233v0.215v0.195v0.156v0.116v0.078v0.02 M169.751,75.683
				H22.239 M169.751,76.093v-0.08v-0.076v-0.078V75.8v-0.039V75.72v-0.037 M22.239,75.683L22.239,75.683v0.037v0.041V75.8v0.06
				v0.078v0.076v0.08 M34.183,78.491l-0.097-0.545l-0.313-0.448l-0.448-0.313l-0.547-0.097l-0.528,0.097L31.8,77.498l-0.309,0.448
				l-0.119,0.545 M31.372,78.491v2.944 M31.372,81.436h-9.133 M169.751,76.093v5.342 M169.751,81.436h-9.132 M160.62,81.436v-2.944
				 M160.62,78.491l-0.098-0.545l-0.313-0.448l-0.447-0.313l-0.546-0.097l-0.526,0.097l-0.451,0.313l-0.313,0.448l-0.116,0.545
				 M157.808,78.491v2.944 M157.808,81.436H97.401 M97.401,81.436v-2.944 M97.401,78.491l-0.099-0.545l-0.312-0.448l-0.449-0.313
				l-0.544-0.097l-0.528,0.097l-0.448,0.313l-0.312,0.448l-0.117,0.545 M94.591,78.491v2.944 M94.591,81.436H34.183 M34.183,81.436
				v-2.944 M22.239,81.436v-5.342 M165.125,65.99h-0.037h-0.098h-0.157h-0.195h-0.272h-0.274h-0.332h-0.332 M163.428,15.715h0.332
				h0.332h0.274h0.272h0.195h0.157h0.098h0.037 M165.125,15.715V65.99 M163.428,65.99h-2.654 M160.774,15.715h2.654 M160.774,15.715
				V65.99 M165.125,10.235v3.393 M164.286,10.235v3.393 M165.125,68.077v3.415 M164.286,68.077v3.415 M165.125,15.715v-0.407
				 M164.286,15.715v-0.407 M165.125,65.99v0.43 M164.286,65.99v0.43 M28.562,65.99h-0.312H27.92h-0.293h-0.253h-0.195h-0.156
				h-0.101h-0.039 M26.883,65.99V15.715 M26.883,15.715h0.039h0.101h0.156h0.195h0.253h0.293h0.331h0.312 M28.562,15.715h2.673
				 M31.235,65.99V15.715 M31.235,65.99h-2.673 M27.723,13.628v-3.393 M26.883,13.628v-3.393 M27.723,71.492v-3.415 M26.883,71.492
				v-3.415 M27.723,15.715v-0.407 M26.883,15.715v-0.407 M27.723,65.99v0.43 M26.883,65.99v0.43"/>
		</g>
	</g>
</g>
</svg>
