<?xml version="1.0" encoding="utf-8"?>
<!-- Generator: Adobe Illustrator 15.0.2, SVG Export Plug-In . SVG Version: 6.00 Build 0)  -->
<!DOCTYPE svg PUBLIC "-//W3C//DTD SVG 1.1//EN" "http://www.w3.org/Graphics/SVG/1.1/DTD/svg11.dtd">
<svg version="1.1" id="Layer_1" xmlns="http://www.w3.org/2000/svg" xmlns:xlink="http://www.w3.org/1999/xlink" x="0px" y="0px"
	 width="288.351px" height="146.088px" viewBox="0 0 288.351 146.088" enable-background="new 0 0 288.351 146.088"
	 xml:space="preserve">
<g>
	<g>
		
			<path fill="none" stroke="#245684" stroke-width="0.35" stroke-linecap="round" stroke-linejoin="round" stroke-miterlimit="10" d="
			M285.596,116.986l0.573-0.525l0.693-0.807l0.572-0.91l0.405-0.998l0.253-1.044l0.084-1.064l-0.084-1.062l-0.253-1.048
			l-0.405-0.996l-0.572-0.909l-0.693-0.811l-0.573-0.522 M287.789,72.925l0.05-0.17l0.253-1.043l0.084-1.064l-0.084-1.062
			l-0.253-1.048l-0.405-0.996l-0.572-0.908l-0.693-0.809l-0.573-0.526 M285.596,62.333l0.573-0.523l0.693-0.81l0.572-0.91
			l0.405-0.995l0.253-1.045l0.084-1.064l-0.084-1.064l-0.253-1.044l-0.405-0.995l-0.572-0.913l-0.693-0.807l-0.573-0.522
			 M287.789,18.273l0.05-0.169l0.253-1.045l0.084-1.062l-0.084-1.062l-0.253-1.047l-0.405-0.994l-0.572-0.91l-0.693-0.812
			l-0.573-0.523 M285.596,135.204l0.573-0.525l0.693-0.81l0.572-0.91l0.405-0.993l0.253-1.048l0.084-1.062l-0.084-1.064
			l-0.253-1.045l-0.405-0.996l-0.572-0.91l-0.693-0.81l-0.573-0.522 M287.789,127.578l0.05-0.17l0.253-1.045l0.084-1.064
			l-0.084-1.06l-0.253-1.046l-0.405-0.997l-0.572-0.911l-0.693-0.809l-0.573-0.523 M287.789,91.143l0.05-0.167l0.253-1.048
			l0.084-1.062l-0.084-1.062l-0.253-1.046l-0.405-0.998l-0.572-0.908l-0.693-0.812l-0.573-0.522 M287.789,109.361l0.05-0.17
			l0.253-1.045l0.084-1.062l-0.084-1.064l-0.253-1.043l-0.405-0.996l-0.572-0.913l-0.693-0.81l-0.573-0.52 M287.789,54.707
			l0.05-0.169l0.253-1.043l0.084-1.062l-0.084-1.064l-0.253-1.046l-0.405-0.995l-0.572-0.911l-0.693-0.812l-0.573-0.521
			 M285.596,25.9l0.573-0.525l0.693-0.81l0.572-0.911l0.405-0.994l0.253-1.047l0.084-1.062l-0.084-1.064l-0.253-1.045l-0.405-0.997
			l-0.572-0.91l-0.693-0.811l-0.573-0.521 M285.596,80.55l0.573-0.522l0.693-0.812l0.572-0.911l0.405-0.993l0.253-1.048l0.084-1.062
			l-0.084-1.062l-0.253-1.046l-0.405-0.995l-0.572-0.913l-0.693-0.809l-0.573-0.521 M285.596,44.115l0.573-0.525l0.693-0.808
			l0.572-0.91l0.405-0.995l0.253-1.045l0.084-1.064l-0.084-1.062l-0.253-1.046l-0.405-0.996l-0.572-0.91l-0.693-0.81l-0.573-0.525
			 M285.596,98.768l0.573-0.523l0.693-0.81l0.572-0.913l0.405-0.995l0.253-1.043l0.084-1.064l-0.084-1.062l-0.253-1.048
			l-0.405-0.993l-0.572-0.91l-0.693-0.812l-0.573-0.523 M287.789,36.49l0.05-0.167l0.253-1.046l0.084-1.062l-0.084-1.064
			l-0.253-1.045l-0.405-0.995l-0.572-0.911l-0.693-0.812l-0.573-0.52 M277.699,73.381h0.625 M277.396,72.925h0.052l0.065,0.016
			l0.049,0.037l0.036,0.031l0.049,0.05l0.021,0.051l0.016,0.053l0.016,0.064 M277.21,72.925h0.186 M30.916,72.925h1.146
			 M23.692,91.867l-0.032,0.019l-0.912,0.557l-0.827,0.708l-0.69,0.808l-0.559,0.911l-0.404,0.997l-0.254,1.043l-0.085,1.064
			l0.085,1.062l0.254,1.048l0.052,0.17 M23.692,110.085l-0.032,0.016l-0.912,0.558l-0.827,0.708l-0.69,0.811l-0.559,0.913
			l-0.404,0.993l-0.254,1.048l-0.085,1.059l0.085,1.064l0.254,1.046l0.052,0.169 M23.692,78.205L23.66,78.22l-0.912,0.56
			l-0.827,0.706l-0.69,0.812l-0.559,0.911l-0.404,0.995l-0.254,1.046l-0.085,1.062l0.085,1.062l0.254,1.046l0.404,0.995l0.559,0.913
			l0.69,0.809l0.827,0.708L23.66,90.4l0.032,0.019 M23.692,96.422l-0.032,0.016l-0.912,0.558l-0.827,0.708l-0.69,0.809l-0.559,0.911
			l-0.404,0.995l-0.254,1.048l-0.085,1.062l0.085,1.064l0.254,1.043l0.404,0.995l0.559,0.913l0.69,0.81l0.827,0.706l0.912,0.557
			l0.032,0.016 M23.692,114.642l-0.032,0.016l-0.912,0.555l-0.827,0.711l-0.69,0.807l-0.559,0.911l-0.404,0.996l-0.254,1.045
			l-0.085,1.064l0.085,1.062l0.254,1.048l0.404,0.993l0.559,0.911l0.69,0.81l0.827,0.708l0.912,0.557l0.032,0.016 M23.692,128.032
			l-0.368,0.101l-0.878,0.387l-0.827,0.51l-0.592,0.522l-0.472,0.573l-0.338,0.606l-0.202,0.657l-0.085,0.742l0.069,0.727
			l0.218,0.656l0.338,0.61l0.439,0.555l0.557,0.507l0.673,0.438l0.811,0.388l0.657,0.22 M23.692,55.432l-0.032,0.019l-0.912,0.555
			l-0.827,0.711l-0.69,0.81l-0.559,0.911l-0.404,0.993l-0.254,1.048l-0.085,1.062v0.321 M23.692,37.217l-0.032,0.016l-0.912,0.558
			l-0.827,0.707l-0.69,0.812l-0.559,0.91l-0.404,0.995l-0.254,1.046l-0.085,1.064l0.085,1.062l0.254,1.045l0.052,0.17 M23.692,19
			l-0.032,0.016l-0.912,0.557l-0.827,0.709l-0.69,0.81l-0.559,0.909l-0.404,0.995l-0.254,1.048l-0.085,1.06l0.085,1.064l0.254,1.045
			l0.052,0.17 M23.692,41.771l-0.032,0.016l-0.912,0.558l-0.827,0.708l-0.69,0.81l-0.559,0.908l-0.404,0.998l-0.254,1.045
			l-0.085,1.062l0.085,1.064l0.254,1.046l0.404,0.996l0.559,0.911l0.69,0.809l0.827,0.708l0.912,0.555l0.032,0.019 M23.692,23.553
			l-0.032,0.019l-0.912,0.554l-0.827,0.709l-0.69,0.81l-0.559,0.91l-0.404,0.995l-0.254,1.045L19.93,29.66l0.085,1.062l0.254,1.046
			l0.404,0.995l0.559,0.91l0.69,0.81l0.827,0.708l0.912,0.555l0.032,0.018 M23.692,9.62l-0.368,0.101l-0.878,0.387l-0.827,0.508
			l-0.592,0.524l-0.472,0.572l-0.338,0.609l-0.202,0.654l-0.085,0.742l0.069,0.726l0.218,0.659l0.338,0.607l0.439,0.555l0.557,0.509
			l0.673,0.439l0.811,0.387l0.657,0.218 M4.307,76.721l-0.235-0.202l-0.253-0.134l-0.304-0.101l-0.304-0.02l-0.304,0.02
			l-0.286,0.101l-0.271,0.134l-0.218,0.202 M2.133,82.793l0.218,0.201l0.271,0.138l0.286,0.102l0.304,0.016l0.304-0.016l0.304-0.102
			l0.253-0.138l0.235-0.201 M0.175,82.793h1.958 M2.133,76.721H0.175 M4.307,82.793h6.496 M17.789,82.793h0.355 M18.144,76.721
			h-0.355 M10.803,76.721H4.307 M4.307,63.058l-0.235-0.202l-0.253-0.135L3.516,62.62l-0.304-0.017L2.907,62.62l-0.286,0.101
			l-0.271,0.135l-0.218,0.202 M2.133,69.13l0.218,0.202l0.271,0.138l0.286,0.101l0.304,0.016l0.304-0.016l0.304-0.101l0.253-0.138
			l0.235-0.202 M0.175,69.13h1.958 M2.133,63.058H0.175 M4.307,69.13h6.749 M18.04,69.13h0.355 M18.395,63.058H18.04 M11.056,63.058
			H4.307 M17.35,76.519l-0.101-0.084l-0.101-0.085l-0.102-0.065l-0.117-0.068l-0.119-0.053l-0.118-0.016l-0.137-0.032h-0.117
			 M16.438,83.401h0.117l0.137-0.035l0.118-0.031l0.119-0.037l0.117-0.064l0.102-0.069l0.101-0.085l0.101-0.085 M10.803,83.401
			h5.636 M16.438,76.116h-5.636 M18.127,82.81h0.202l0.419,0.119l0.407,0.287l0.251,0.321 M19.407,83.536l0.522,0.775
			 M22.816,72.859l-0.624,0.337l-0.827,0.539l-0.759,0.658l-0.641,0.76l-0.559,0.826 M19.407,75.978l-0.033,0.05l-0.287,0.337
			L18.7,76.604l-0.439,0.101h-0.133 M17.35,82.995l0.032-0.048l0.051-0.036l0.049-0.032l0.069-0.033l0.051-0.021l0.068-0.016
			l0.066-0.016h0.051 M17.789,76.721h-0.051l-0.066-0.016l-0.068-0.016l-0.051-0.019l-0.069-0.034l-0.049-0.032l-0.051-0.035
			l-0.032-0.05 M17.789,82.793h0.338 M18.127,76.721h-0.338 M11.056,69.738h5.618 M16.674,62.45h-5.618 M17.584,62.856l-0.082-0.085
			l-0.102-0.083l-0.12-0.068l-0.101-0.069l-0.117-0.048l-0.134-0.019L16.81,62.45h-0.136 M16.674,69.738h0.136l0.119-0.035
			l0.134-0.032l0.117-0.035l0.101-0.066l0.12-0.069l0.102-0.084l0.082-0.085 M19.645,69.873l0.556,0.826l0.657,0.759l0.743,0.658
			l0.828,0.539l0.896,0.456l0.368,0.134 M23.692,58.941l-0.368,0.138l-0.896,0.454l-0.828,0.539l-0.743,0.66l-0.657,0.756
			l-0.556,0.828 M19.645,62.316l-0.017,0.048l-0.303,0.339l-0.39,0.237l-0.42,0.101h-0.136 M18.379,69.148h0.185l0.423,0.117
			l0.42,0.287l0.237,0.321 M17.584,69.332l0.053-0.05l0.051-0.032l0.049-0.035l0.051-0.033l0.068-0.018l0.049-0.016l0.068-0.019
			h0.066 M18.04,63.058h-0.066l-0.068-0.016l-0.049-0.019l-0.068-0.016l-0.051-0.033l-0.049-0.034l-0.051-0.035l-0.053-0.05
			 M18.04,69.13h0.339 M18.379,63.058H18.04 M277.699,72.979v0.286v0.117 M277.699,71.781v0.217v0.539v0.441 M277.699,73.381v0.523
			v0.388 M277.699,128.622v0.573v0.661v0.658v0.606v0.018 M277.699,14.951v0.388v0.658v0.657v0.609v0.202 M4.307,76.721v0.051v0.22
			v0.388v0.522v0.624v0.69v0.743v0.708v0.675v0.575v0.438v0.306v0.133 M2.133,82.793L2.133,82.793V82.66v-0.306v-0.438v-0.575
			v-0.675v-0.708v-0.743v-0.69v-0.624v-0.522v-0.388v-0.22v-0.051 M0.175,82.793L0.175,82.793V82.66v-0.306v-0.438v-0.575v-0.675
			v-0.708v-0.743v-0.69v-0.624v-0.522v-0.388v-0.22v-0.051 M18.395,82.777V82.66v-0.306v-0.438v-0.575v-0.675v-0.708v-0.743v-0.69
			v-0.624v-0.522v-0.388v-0.22v-0.051 M4.307,63.058v0.052v0.218v0.388v0.522v0.626v0.69v0.741v0.711v0.674v0.571v0.44v0.303v0.135
			 M2.133,69.13L2.133,69.13v-0.135v-0.303v-0.44v-0.571v-0.674v-0.711v-0.741v-0.69v-0.626v-0.522v-0.388V63.11v-0.052
			 M0.175,69.13L0.175,69.13v-0.135v-0.303v-0.44v-0.571v-0.674v-0.711v-0.741v-0.69v-0.626v-0.522v-0.388V63.11v-0.052
			 M18.395,69.13L18.395,69.13v-0.135v-0.303v-0.44v-0.571v-0.674v-0.711v-0.741v-0.69v-0.626v-0.522v-0.388V63.11v-0.052
			 M10.803,79.757v-0.777V78.22v-0.674v-0.571v-0.44v-0.287v-0.132 M10.803,83.401L10.803,83.401v-0.135v-0.287v-0.44v-0.572v-0.674
			v-0.759v-0.777 M11.056,66.094v-0.775V64.56v-0.674v-0.573v-0.441v-0.284V62.45 M11.056,69.738L11.056,69.738v-0.136v-0.286
			v-0.438v-0.573v-0.677v-0.759v-0.775 M69.737,128.303l-0.271-0.387l-0.101-0.455l0.068-0.473l0.221-0.424l0.371-0.302l0.457-0.152
			l0.471,0.017l0.439,0.202l0.336,0.337l0.186,0.422l0.017,0.491l-0.151,0.438l-0.305,0.372l-0.404,0.233l-0.472,0.069l-0.472-0.117
			L69.737,128.303z M148.443,96.473l-0.387,0.271l-0.456,0.104l-0.472-0.069l-0.422-0.237l-0.303-0.355l-0.154-0.457l0.017-0.472
			l0.203-0.438l0.338-0.334l0.439-0.186l0.472-0.019l0.439,0.135l0.372,0.303l0.237,0.422l0.065,0.473l-0.117,0.456L148.443,96.473z
			 M116.605,17.769l0.271,0.404l0.104,0.456l-0.068,0.472l-0.218,0.42l-0.373,0.305l-0.457,0.15l-0.471-0.033l-0.439-0.185
			l-0.335-0.336l-0.186-0.439l-0.017-0.472l0.15-0.455l0.305-0.355l0.403-0.236l0.472-0.067l0.473,0.101L116.605,17.769z
			 M37.9,49.614l0.387-0.271l0.455-0.101l0.475,0.052l0.419,0.234l0.303,0.372l0.153,0.457l-0.033,0.47l-0.188,0.424l-0.336,0.334
			l-0.438,0.204l-0.472,0.016l-0.456-0.151l-0.354-0.302l-0.237-0.424l-0.066-0.454l0.118-0.473L37.9,49.614z M37.782,73.042
			l0.083-3.052l0.254-3.037l0.423-3.036l0.573-2.984l0.758-2.969l0.911-2.901l1.063-2.869l1.234-2.782l1.363-2.733l1.537-2.649
			l1.672-2.546l1.804-2.462l1.942-2.344l2.073-2.261l2.176-2.126l2.314-2.009l2.411-1.872l2.496-1.738l2.6-1.601l2.682-1.452
			l2.769-1.299l2.832-1.145l2.885-0.997l2.936-0.827l2.987-0.675l3.002-0.489l3.037-0.338l3.037-0.167h3.055l3.053,0.167
			l3.036,0.338l3.003,0.489l2.987,0.675l2.936,0.827l2.885,0.997l2.835,1.145l2.751,1.299l2.697,1.452l2.6,1.601l2.496,1.738
			l2.412,1.872l2.312,2.009l2.177,2.126l2.073,2.261l1.94,2.344l1.806,2.462l1.672,2.546l1.517,2.649l1.383,2.733l1.234,2.782
			l1.061,2.869l0.912,2.901l0.76,2.969l0.573,2.984l0.424,3.036l0.25,3.037l0.085,3.052l-0.085,3.055l-0.25,3.036l-0.424,3.018
			l-0.573,3.004l-0.76,2.952l-0.912,2.917l-1.061,2.851l-1.234,2.802l-1.383,2.715l-1.517,2.649l-1.672,2.563l-1.806,2.445
			l-1.94,2.362l-2.073,2.243l-2.177,2.126l-2.312,2.006l-2.412,1.872l-2.496,1.738l-2.6,1.603l-2.697,1.449l-2.751,1.3l-2.835,1.163
			l-2.885,0.982l-2.936,0.842l-2.987,0.658l-3.003,0.504l-3.036,0.337l-3.053,0.169h-3.055l-3.037-0.169l-3.037-0.337l-3.002-0.504
			l-2.987-0.658l-2.936-0.842l-2.885-0.982l-2.832-1.163l-2.769-1.3l-2.682-1.449l-2.6-1.603l-2.496-1.738l-2.411-1.872
			l-2.314-2.006l-2.176-2.126l-2.073-2.243l-1.942-2.362l-1.804-2.445l-1.672-2.563l-1.537-2.649l-1.363-2.715l-1.234-2.802
			l-1.063-2.851l-0.911-2.917l-0.758-2.952l-0.573-3.004l-0.423-3.018l-0.254-3.036L37.782,73.042z M30.916,129.872l0.083,0.525
			l0.271,0.452l0.404,0.339l0.489,0.186h0.54l0.489-0.186l0.407-0.339l0.27-0.452l0.084-0.525l-0.084-0.507l-0.27-0.457
			l-0.407-0.351l-0.489-0.169h-0.54l-0.489,0.169l-0.404,0.351l-0.271,0.457L30.916,129.872z M30.916,73.042l0.083-0.52l0.271-0.457
			l0.404-0.337l0.489-0.186h0.54l0.489,0.186l0.407,0.337l0.27,0.457l0.084,0.52l-0.084,0.525l-0.27,0.454l-0.407,0.34l-0.489,0.167
			h-0.54l-0.489-0.167l-0.404-0.34l-0.271-0.454L30.916,73.042z M23.692,138.373V7.697 M271.507,73.042l-0.085-3.052l-0.254-3.037
			l-0.42-3.036l-0.59-2.984l-0.744-2.969l-0.911-2.901l-1.078-2.869l-1.216-2.782l-1.383-2.733l-1.533-2.649l-1.671-2.546
			l-1.806-2.462l-1.94-2.344l-2.058-2.261l-2.195-2.126l-2.295-2.009l-2.411-1.872l-2.515-1.738l-2.599-1.601l-2.681-1.452
			l-2.769-1.299l-2.816-1.145l-2.902-0.997l-2.936-0.827l-2.971-0.675l-3.019-0.489l-3.037-0.338l-3.036-0.167h-3.057l-3.052,0.167
			l-3.038,0.338l-3.002,0.489l-2.987,0.675l-2.935,0.827l-2.887,0.997l-2.834,1.145l-2.75,1.299l-2.682,1.452l-2.6,1.601
			l-2.512,1.738l-2.415,1.872l-2.294,2.009l-2.193,2.126l-2.076,2.261l-1.939,2.344l-1.806,2.462l-1.669,2.546l-1.52,2.649
			l-1.384,2.733l-1.23,2.782l-1.063,2.869l-0.911,2.901l-0.742,2.969l-0.591,2.984l-0.422,3.036l-0.253,3.037l-0.084,3.052
			l0.084,3.055l0.253,3.036l0.422,3.018l0.591,3.004l0.742,2.952l0.911,2.917l1.063,2.851l1.23,2.802l1.384,2.715l1.52,2.649
			l1.669,2.563l1.806,2.445l1.939,2.362l2.076,2.243l2.193,2.126l2.294,2.006l2.415,1.872l2.512,1.738l2.6,1.603l2.682,1.449
			l2.75,1.3l2.834,1.163l2.887,0.982l2.935,0.842l2.987,0.658l3.002,0.504l3.038,0.337l3.052,0.169h3.057l3.036-0.169l3.037-0.337
			l3.019-0.504l2.971-0.658l2.936-0.842l2.902-0.982l2.816-1.163l2.769-1.3l2.681-1.449l2.599-1.603l2.515-1.738l2.411-1.872
			l2.295-2.006l2.195-2.126l2.058-2.243l1.94-2.362l1.806-2.445l1.671-2.563l1.533-2.649l1.383-2.715l1.216-2.802l1.078-2.851
			l0.911-2.917l0.744-2.952l0.59-3.004l0.42-3.018l0.254-3.036L271.507,73.042z M271.76,95.544l-0.085-0.454l-0.253-0.404
			l-0.369-0.287l-0.458-0.138l-0.47,0.053l-0.442,0.202l-0.319,0.354l-0.169,0.44v0.488l0.169,0.438l0.319,0.355l0.442,0.202
			l0.47,0.053l0.458-0.138l0.369-0.287l0.253-0.406L271.76,95.544z M271.389,49.614l-0.388-0.271l-0.474-0.101l-0.472,0.052
			l-0.404,0.234l-0.304,0.372l-0.151,0.457l0.017,0.47l0.186,0.424l0.337,0.334l0.44,0.204l0.472,0.016l0.455-0.151l0.372-0.302
			l0.218-0.424l0.068-0.454l-0.101-0.473L271.389,49.614z M238.623,17.397l-0.472,0.083l-0.404,0.253l-0.286,0.372l-0.12,0.473
			l0.035,0.471l0.219,0.423l0.354,0.319l0.439,0.17h0.472l0.438-0.17l0.356-0.319l0.217-0.423l0.034-0.471l-0.118-0.473
			l-0.287-0.372l-0.405-0.253L238.623,17.397z M192.665,17.769l-0.254,0.404l-0.117,0.456l0.067,0.472l0.235,0.42l0.354,0.305
			l0.455,0.15l0.475-0.033l0.437-0.185l0.338-0.336l0.186-0.439l0.032-0.472l-0.15-0.455l-0.305-0.355l-0.421-0.236l-0.471-0.067
			l-0.457,0.101L192.665,17.769z M160.438,50.525l0.101,0.472l0.237,0.406l0.387,0.287l0.457,0.117l0.472-0.034l0.423-0.218
			l0.32-0.355l0.187-0.438v-0.472l-0.187-0.438l-0.32-0.353l-0.423-0.223l-0.472-0.032l-0.457,0.117l-0.387,0.286l-0.237,0.406
			L160.438,50.525z M160.826,96.473l0.391,0.271l0.472,0.104l0.472-0.069l0.406-0.237l0.302-0.355l0.153-0.457l-0.019-0.472
			l-0.202-0.438l-0.336-0.334l-0.423-0.186l-0.471-0.019l-0.457,0.135l-0.371,0.303l-0.237,0.422l-0.049,0.473l0.101,0.456
			L160.826,96.473z M193.592,128.69l0.455-0.101l0.407-0.236l0.287-0.387l0.133-0.457l-0.049-0.473l-0.202-0.42l-0.354-0.321
			l-0.439-0.169h-0.472l-0.456,0.169l-0.354,0.321l-0.202,0.42l-0.051,0.473l0.135,0.457l0.287,0.387l0.403,0.236L193.592,128.69z
			 M239.534,128.303l0.271-0.387l0.119-0.455l-0.067-0.473l-0.237-0.424l-0.372-0.302l-0.439-0.152l-0.488,0.017l-0.422,0.202
			l-0.336,0.337l-0.202,0.422l-0.019,0.491l0.152,0.438l0.305,0.372l0.422,0.233l0.472,0.069l0.456-0.117L239.534,128.303z
			 M278.359,73.042l-0.087-0.52l-0.268-0.457l-0.406-0.337l-0.488-0.186h-0.524l-0.508,0.186l-0.403,0.337l-0.254,0.457l-0.101,0.52
			l0.101,0.525l0.254,0.454l0.403,0.34l0.508,0.167h0.524l0.488-0.167l0.406-0.34l0.268-0.454L278.359,73.042z M278.359,16.201
			l-0.087-0.524l-0.268-0.455l-0.406-0.339l-0.488-0.169h-0.524l-0.508,0.169l-0.403,0.339l-0.254,0.455l-0.101,0.524l0.101,0.521
			l0.254,0.456l0.403,0.338l0.508,0.185h0.524l0.488-0.185l0.406-0.338l0.268-0.456L278.359,16.201z M278.359,129.872l-0.087,0.525
			l-0.268,0.452l-0.406,0.339l-0.488,0.186h-0.524l-0.508-0.186l-0.403-0.339l-0.254-0.452l-0.101-0.525l0.101-0.507l0.254-0.457
			l0.403-0.351l0.508-0.169h0.524l0.488,0.169l0.406,0.351l0.268,0.457L278.359,129.872z M30.916,16.201l0.083-0.524l0.271-0.455
			l0.404-0.339l0.489-0.169h0.54l0.489,0.169l0.407,0.339l0.27,0.455l0.084,0.524l-0.084,0.521l-0.27,0.456l-0.407,0.338
			l-0.489,0.185h-0.54l-0.489-0.185l-0.404-0.338l-0.271-0.456L30.916,16.201z M37.512,95.544l0.085-0.454l0.251-0.404l0.39-0.287
			l0.456-0.138l0.472,0.053l0.419,0.202l0.322,0.354l0.169,0.44v0.488l-0.169,0.438l-0.322,0.355l-0.419,0.202l-0.472,0.053
			l-0.456-0.138l-0.39-0.287l-0.251-0.406L37.512,95.544z M70.649,17.397l0.472,0.083l0.404,0.253l0.287,0.372l0.136,0.473
			l-0.052,0.471l-0.219,0.423l-0.339,0.319l-0.455,0.17h-0.473l-0.439-0.17l-0.354-0.319l-0.202-0.423l-0.052-0.471l0.137-0.473
			l0.285-0.372l0.405-0.253L70.649,17.397z M148.831,50.525l-0.083,0.472l-0.254,0.406l-0.387,0.287l-0.456,0.117l-0.474-0.034
			l-0.42-0.218l-0.322-0.355l-0.169-0.438v-0.472l0.169-0.438l0.322-0.353l0.42-0.223l0.474-0.032l0.456,0.117l0.387,0.286
			l0.254,0.406L148.831,50.525z M115.697,128.69l-0.475-0.101l-0.404-0.236l-0.286-0.387l-0.137-0.457l0.052-0.473l0.202-0.42
			l0.355-0.321l0.455-0.169h0.472l0.439,0.169l0.354,0.321l0.202,0.42l0.052,0.473l-0.137,0.457l-0.286,0.387l-0.406,0.236
			L115.697,128.69z M285.596,138.373V7.697 M23.692,7.697V7.41v-0.27V6.888V6.668V6.483V6.35V6.265V6.249 M23.692,6.249h261.904
			 M285.596,6.249v0.017V6.35v0.133v0.186v0.219v0.253v0.27v0.287 M285.596,138.373v0.287v0.271v0.252v0.22v0.186v0.135v0.085v0.032
			 M285.596,139.84H23.692 M23.692,139.84v-0.032v-0.085v-0.135v-0.186v-0.22v-0.252v-0.271v-0.287 M23.692,5.523v0.133v0.136v0.135
			v0.101v0.101V6.18v0.049v0.02 M285.596,6.249v-0.02V6.18V6.128V6.027V5.927V5.792V5.656V5.523 M285.596,140.565v-0.135v-0.149
			v-0.122v-0.116v-0.085v-0.064v-0.037v-0.016 M23.692,139.84v0.016v0.037v0.064v0.085v0.116v0.122v0.149v0.135 M113.942,0.175v3.39
			 M113.942,3.565l0.099,0.471l0.253,0.39l0.408,0.271l0.454,0.085l0.472-0.085l0.387-0.271l0.271-0.39l0.085-0.471 M116.371,3.565
			v-3.39 M116.371,0.175h76.531 M192.902,0.175v3.39 M192.902,3.565l0.101,0.471l0.253,0.39l0.404,0.271l0.457,0.085l0.471-0.085
			l0.388-0.271l0.273-0.39l0.083-0.471 M195.33,3.565v-3.39 M285.596,0.175v5.348 M23.692,5.523V0.175 M23.692,0.175h11.289
			 M34.981,0.175v3.39 M34.981,3.565l0.101,0.471l0.253,0.39l0.405,0.271l0.456,0.085l0.471-0.085l0.39-0.271l0.271-0.39
			l0.085-0.471 M37.412,3.565v-3.39 M37.412,0.175h76.531 M274.292,3.565v-3.39 M271.861,0.175v3.39 M195.33,0.175h76.531
			 M274.292,0.175h11.304 M271.861,3.565l0.103,0.471l0.251,0.39l0.406,0.271l0.456,0.085l0.472-0.085l0.387-0.271l0.271-0.39
			l0.085-0.471 M23.692,145.913h11.289 M23.692,140.565v5.348 M285.596,145.913v-5.348 M274.292,145.913h11.304 M271.861,142.505
			l0.103-0.454l0.251-0.403l0.406-0.254l0.456-0.101l0.472,0.101l0.387,0.254l0.271,0.403l0.085,0.454 M271.861,145.913v-3.408
			 M195.33,145.913h76.531 M195.33,142.505v3.408 M192.902,142.505l0.101-0.454l0.253-0.403l0.404-0.254l0.457-0.101l0.471,0.101
			l0.388,0.254l0.273,0.403l0.083,0.454 M192.902,145.913v-3.408 M116.371,145.913h76.531 M116.371,142.505v3.408 M113.942,142.505
			l0.099-0.454l0.253-0.403l0.408-0.254l0.454-0.101l0.472,0.101l0.387,0.254l0.271,0.403l0.085,0.454 M113.942,145.913v-3.408
			 M37.412,145.913h76.531 M37.412,142.505v3.408 M34.981,142.505l0.101-0.454l0.253-0.403l0.405-0.254l0.456-0.101l0.471,0.101
			l0.39,0.254l0.271,0.403l0.085,0.454 M34.981,145.913v-3.408 M274.292,142.505v3.408 M276.484,14.73v2.954 M276.484,71.559v2.952
			 M276.484,128.404v2.952 M277.21,14.73v2.954 M277.21,71.559v2.952 M277.21,128.404v2.952 M32.805,14.73v2.954 M32.805,71.559
			v2.952 M32.805,128.404v2.952 M32.062,14.73v2.954 M32.062,71.559v2.952 M32.062,128.404v2.952"/>
	</g>
</g>
</svg>
