<?xml version="1.0" encoding="utf-8"?>
<!-- Generator: Adobe Illustrator 15.0.2, SVG Export Plug-In . SVG Version: 6.00 Build 0)  -->
<!DOCTYPE svg PUBLIC "-//W3C//DTD SVG 1.1//EN" "http://www.w3.org/Graphics/SVG/1.1/DTD/svg11.dtd">
<svg version="1.1" id="Isolation_Mode" xmlns="http://www.w3.org/2000/svg" xmlns:xlink="http://www.w3.org/1999/xlink" x="0px"
	 y="0px" width="295.244px" height="276.755px" viewBox="0 0 295.244 276.755" enable-background="new 0 0 295.244 276.755"
	 xml:space="preserve">
<g>
	<g>
		<g>
			
				<path fill="none" stroke="#245684" stroke-width="0.35" stroke-linecap="round" stroke-linejoin="round" stroke-miterlimit="10" d="
				M11.709,224.418v-14.794 M2.643,209.624v14.794 M11.661,241.893v-0.252 M2.594,241.641v0.252 M14.062,256.452l-0.959-0.958
				 M1.134,255.494l-0.959,0.958 M0.175,258.162l0.959,0.958 M13.103,259.12l0.959-0.958 M13.103,255.494v-4.952 M1.134,250.542
				v4.952 M13.103,250.542l-0.535-0.557 M1.688,249.984l-0.554,0.557 M1.688,242.247v7.738 M12.568,249.984v-7.738 M12.568,242.247
				l-0.373-0.354 M2.041,241.893l-0.353,0.354 M14.062,258.162v-1.709 M0.175,256.452v1.709 M0.244,240.685l0.958,0.957
				 M13.154,241.641l0.958-0.957 M14.112,238.974l-0.958-0.959 M1.202,238.015l-0.958,0.959 M13.154,238.015v-4.954 M1.202,233.061
				v4.954 M13.154,233.061l-0.538-0.535 M1.736,232.526l-0.535,0.535 M1.736,224.784v7.742 M12.617,232.526v-7.742 M12.617,224.784
				l-0.37-0.366 M2.108,224.418l-0.372,0.366 M0.244,238.974v1.71 M14.112,240.685v-1.71 M2.643,75.308v108.931 M11.709,184.239
				V75.308 M2.594,92.535v91.705 M12.315,47.809v-6.953 M2.041,40.856v6.953 M2.643,40.252l-0.116,0.016l-0.118,0.034l-0.1,0.051
				l-0.083,0.085l-0.084,0.084l-0.051,0.1l-0.033,0.117l-0.016,0.117 M12.315,40.856l-0.018-0.117l-0.034-0.117l-0.049-0.1
				l-0.084-0.084l-0.084-0.085l-0.101-0.051l-0.116-0.034l-0.12-0.016 M12.264,58.652v-0.369 M1.989,58.267v6.766 M11.709,49.922
				v-2.114 M2.643,47.809v2.114 M12.315,92.535v-8.345 M1.923,84.189v8.345 M1.923,67.149v8.346 M12.315,75.495v-0.187
				 M12.282,84.189h-0.051l-0.052-0.016l-0.033-0.016l-0.032-0.034l-0.035-0.035l-0.017-0.048l-0.017-0.037v-0.049 M2.208,83.955
				L2.19,84.004l-0.018,0.037l-0.015,0.048l-0.034,0.035l-0.034,0.034l-0.033,0.016l-0.049,0.016H1.956 M1.956,75.495h0.051
				l0.049,0.016l0.033,0.016l0.034,0.035l0.034,0.032l0.015,0.053l0.018,0.051l0.018,0.031 M12.046,75.728v-0.031l0.017-0.051
				l0.017-0.053l0.035-0.032l0.032-0.035l0.033-0.016l0.052-0.016h0.051 M12.046,75.88v-0.153 M12.046,83.955V83.77 M2.208,75.728
				v8.227 M12.015,83.804h1.275 M13.29,75.88h-1.244 M13.524,76.335h-0.049l-0.036-0.019L13.391,76.3l-0.033-0.034l-0.036-0.033
				l-0.016-0.052l-0.016-0.033v-0.052 M13.29,83.587v-0.035l0.016-0.053l0.016-0.048l0.036-0.034l0.033-0.035l0.048-0.015
				l0.036-0.016h0.049 M13.524,83.353h5.809 M19.333,76.335h-5.809 M12.382,209.624v-8.343 M1.972,201.281v8.343 M1.972,184.239
				v8.344 M12.382,192.583v-8.344 M2.023,192.583h0.033l0.052,0.016l0.049,0.019l0.033,0.031l0.035,0.035l0.016,0.05l0.016,0.032
				v0.052 M12.098,192.818v-0.052l0.017-0.032l0.017-0.05l0.033-0.035l0.031-0.031l0.052-0.019l0.051-0.016h0.033 M12.331,201.281
				h-0.033l-0.051-0.016l-0.052-0.017l-0.031-0.037l-0.033-0.031l-0.017-0.054l-0.017-0.03v-0.054 M2.257,201.043v0.054l-0.016,0.03
				l-0.016,0.054l-0.035,0.031l-0.033,0.037l-0.049,0.017l-0.052,0.016H2.023 M12.098,193.204v-0.386 M12.098,201.043v-0.368
				 M2.257,192.818v8.225 M12.098,200.895h1.057 M13.154,192.969h-1.057 M13.607,200.44h5.391 M18.998,193.421h-5.391
				 M12.382,75.308v-8.343 M1.972,66.965v8.343 M1.972,49.922v8.345 M12.382,58.267v-8.345 M12.331,66.965h-0.033l-0.051-0.019
				l-0.052-0.017l-0.031-0.031l-0.033-0.035l-0.017-0.05l-0.017-0.032v-0.052 M2.257,66.729v0.052l-0.016,0.032l-0.016,0.05
				L2.19,66.898l-0.033,0.031l-0.049,0.017l-0.052,0.019H2.023 M2.023,58.267h0.033l0.052,0.016l0.049,0.016l0.033,0.037
				l0.035,0.032l0.016,0.053l0.016,0.048v0.036 M12.098,58.504v-0.036l0.017-0.048l0.017-0.053l0.033-0.032l0.031-0.037l0.052-0.016
				l0.051-0.016h0.033 M12.098,58.888v-0.384 M12.098,66.729v-0.37 M2.257,58.504v8.225 M12.098,66.579h1.057 M13.154,58.652h-1.057
				 M13.607,66.127h5.391 M18.998,59.107h-5.391 M12.315,224.482v-5.977 M1.923,218.506v6.093 M1.923,201.465v8.344 M12.315,209.809
				v-0.185 M12.282,218.506h-0.051l-0.052-0.017l-0.033-0.018l-0.032-0.034l-0.035-0.032l-0.017-0.05l-0.017-0.035v-0.05
				 M2.208,218.271l-0.018,0.05l-0.018,0.035l-0.015,0.05l-0.034,0.032l-0.034,0.034l-0.033,0.018l-0.049,0.017H1.956
				 M1.956,209.809h0.051l0.049,0.018l0.033,0.017l0.034,0.033l0.034,0.034l0.015,0.048l0.018,0.033l0.018,0.052 M12.046,210.044
				v-0.052l0.017-0.033l0.017-0.048l0.035-0.034l0.032-0.033l0.033-0.017l0.052-0.018h0.051 M12.046,210.194v-0.15 M12.046,218.271
				v-0.185 M2.208,210.044v8.227 M12.015,218.121h1.275 M13.29,210.194h-1.244 M13.524,210.648h-0.049l-0.036-0.018l-0.048-0.016
				l-0.033-0.035l-0.036-0.034l-0.016-0.048l-0.016-0.034v-0.051 M13.29,217.901v-0.05l0.016-0.032l0.016-0.053l0.036-0.031
				l0.033-0.032l0.048-0.021l0.036-0.016h0.049 M13.524,217.666h5.809 M19.333,210.648h-5.809 M19.248,65.958l0.252,0.27
				l0.034,0.066 M19.552,58.938l-0.187,0.253l-0.149,0.1 M19.552,66.293l0.555,0.874l0.687,0.806l0.789,0.705l0.89,0.571
				l0.603,0.284 M23.076,55.7l-0.738,0.351l-0.855,0.605l-0.79,0.705l-0.67,0.806l-0.47,0.771 M23.076,73.16l-0.285,0.15
				l-0.822,0.555l-0.738,0.656l-0.656,0.74l-0.553,0.82 M20.022,83.603l0.553,0.823l0.656,0.756l0.738,0.652l0.822,0.539
				l0.285,0.166 M19.333,82.998l0.033,0.017l0.42,0.285l0.237,0.304 M20.022,76.081l-0.017,0.053l-0.303,0.333l-0.37,0.235
				 M21.835,217.919l0.555,0.822l0.654,0.755l0.033,0.035 M23.076,208.784l-0.033,0.051l-0.654,0.739l-0.555,0.825 M21.835,210.398
				l-0.018,0.049l-0.301,0.336l-0.386,0.235l-0.42,0.116l-0.134-0.016 M20.575,217.196h0.186l0.418,0.134l0.421,0.267l0.235,0.322
				 M19.333,217.18h1.242 M20.575,211.134h-1.242 M19.451,199.952h0.756 M20.207,193.91h-0.756 M21.298,193.252l-0.184,0.252
				l-0.337,0.253l-0.386,0.133h-0.184 M20.207,199.952h0.033l0.385,0.084l0.354,0.201l0.287,0.304l0.032,0.066 M21.298,200.608
				l0.554,0.874l0.687,0.805l0.537,0.471 M23.076,191.105l-0.619,0.57l-0.673,0.809l-0.468,0.769 M295.069,270.537v-0.015v-0.087
				v-0.101v-0.167v-0.188v-0.217v-0.235v-0.235 M23.076,270.537h271.993 M23.076,269.293v0.235v0.235v0.217v0.188v0.167v0.101v0.087
				v0.015 M279.289,145.557l-0.321,0.066l-0.284,0.186l-0.186,0.284l-0.049,0.318l0.049,0.338l0.186,0.269l0.284,0.183l0.321,0.067
				l0.333-0.067l0.27-0.183l0.185-0.269l0.067-0.338l-0.067-0.318l-0.185-0.284l-0.27-0.186L279.289,145.557z M279.289,220.991
				l-0.321,0.069l-0.284,0.182l-0.186,0.286l-0.049,0.32l0.049,0.317l0.186,0.287l0.284,0.185l0.321,0.066l0.333-0.066l0.27-0.185
				l0.185-0.287l0.067-0.317l-0.067-0.32l-0.185-0.286l-0.27-0.182L279.289,220.991z M275.257,225.996l-0.402-0.272l-0.454-0.098
				l-0.468,0.066l-0.421,0.219l-0.301,0.369l-0.151,0.453l0.031,0.47l0.188,0.438l0.334,0.332l0.437,0.185l0.473,0.017l0.451-0.148
				l0.353-0.304l0.233-0.404l0.068-0.47l-0.101-0.468L275.257,225.996z M198.747,259.505l0.269-0.386l0.101-0.453l-0.065-0.473
				l-0.236-0.418l-0.354-0.3l-0.453-0.153l-0.47,0.018l-0.437,0.2l-0.333,0.336l-0.185,0.419l-0.02,0.486l0.152,0.439l0.302,0.369
				l0.404,0.236l0.471,0.068l0.452-0.118L198.747,259.505z M165.236,182.997l0.386,0.27l0.454,0.117l0.471-0.069l0.418-0.233
				l0.303-0.37l0.152-0.435l-0.018-0.47l-0.202-0.439l-0.337-0.335l-0.418-0.201l-0.486-0.016l-0.437,0.148l-0.37,0.304
				l-0.236,0.422l-0.064,0.465l0.116,0.457L165.236,182.997z M241.747,149.485l-0.269,0.401l-0.116,0.456l0.064,0.471l0.237,0.418
				l0.368,0.303l0.436,0.15l0.472-0.034l0.435-0.185l0.336-0.336l0.184-0.438l0.033-0.468l-0.15-0.454l-0.301-0.354l-0.422-0.232
				l-0.468-0.069l-0.457,0.101L241.747,149.485z M220.24,149.384l-3.042,0.083l-3.022,0.252l-3.004,0.401l-2.988,0.591l-2.938,0.737
				l-2.905,0.906l-2.837,1.075l-2.789,1.226l-2.704,1.36l-2.635,1.529l-2.553,1.661l-2.435,1.796l-2.351,1.93l-2.232,2.05
				l-2.113,2.178l-1.999,2.303l-1.866,2.385l-1.729,2.501l-1.594,2.586l-1.444,2.668l-1.295,2.757l-1.156,2.819l-0.975,2.869
				l-0.839,2.921l-0.653,2.956l-0.505,3.005l-0.336,3.021l-0.167,3.021v3.039l0.167,3.041l0.336,3.021l0.505,2.987l0.653,2.974
				l0.839,2.922l0.975,2.87l1.156,2.821l1.295,2.739l1.444,2.667l1.594,2.604l1.729,2.484l1.866,2.401l1.999,2.279l2.113,2.186
				l2.232,2.063l2.351,1.933l2.435,1.794l2.553,1.664l2.635,1.51l2.704,1.379l2.789,1.225l2.837,1.054l2.905,0.908l2.938,0.756
				l2.988,0.571l3.004,0.422l3.022,0.251l3.042,0.084l3.037-0.084l3.022-0.251l3.023-0.422l2.972-0.571l2.954-0.756l2.887-0.908
				l2.855-1.054l2.771-1.225l2.72-1.379l2.617-1.51l2.555-1.664l2.451-1.794l2.332-1.933l2.25-2.063l2.116-2.186l1.999-2.279
				l1.865-2.401l1.729-2.484l1.592-2.604l1.445-2.667l1.292-2.739l1.143-2.821l0.991-2.87l0.823-2.922l0.655-2.974l0.503-2.987
				l0.334-3.021l0.168-3.041v-3.039l-0.168-3.021l-0.334-3.021l-0.503-3.005l-0.655-2.956l-0.823-2.921l-0.991-2.869l-1.143-2.819
				l-1.292-2.757l-1.445-2.668l-1.592-2.586l-1.729-2.501l-1.865-2.385l-1.999-2.303l-2.116-2.178l-2.25-2.05l-2.332-1.93
				l-2.451-1.796l-2.555-1.661l-2.617-1.529l-2.72-1.36l-2.771-1.226l-2.855-1.075l-2.887-0.906l-2.954-0.737l-2.972-0.591
				l-3.023-0.401l-3.022-0.252L220.24,149.384z M38.859,220.991l0.321,0.069l0.265,0.182l0.187,0.286l0.065,0.32l-0.065,0.317
				l-0.187,0.287l-0.265,0.185l-0.321,0.066l-0.336-0.066l-0.268-0.185l-0.185-0.287l-0.067-0.317l0.067-0.32l0.185-0.286
				l0.268-0.182L38.859,220.991z M42.888,225.996l0.404-0.272l0.453-0.098l0.47,0.066l0.421,0.219l0.301,0.369l0.152,0.453
				l-0.035,0.47l-0.185,0.438l-0.336,0.332l-0.434,0.185l-0.473,0.017l-0.451-0.148l-0.354-0.304l-0.235-0.404l-0.068-0.47
				l0.101-0.468L42.888,225.996z M74.202,258.601l0.1-0.471l0.237-0.402l0.386-0.285l0.453-0.121l0.469,0.034l0.42,0.22l0.318,0.354
				l0.168,0.436v0.47l-0.168,0.435l-0.318,0.354l-0.42,0.216l-0.469,0.035l-0.453-0.119l-0.386-0.282l-0.237-0.407L74.202,258.601z
				 M119.398,259.505l-0.268-0.386l-0.1-0.453l0.067-0.473l0.218-0.418l0.369-0.3l0.454-0.153l0.472,0.018l0.435,0.2l0.336,0.336
				l0.186,0.419l0.016,0.486l-0.15,0.439l-0.302,0.369l-0.402,0.236l-0.47,0.068l-0.473-0.118L119.398,259.505z M152.005,228.193
				l-0.47-0.083l-0.404-0.252l-0.285-0.369l-0.117-0.455l0.033-0.486l0.219-0.42l0.353-0.317l0.437-0.168h0.47l0.437,0.168
				l0.351,0.317l0.22,0.42l0.032,0.486l-0.117,0.455l-0.285,0.369l-0.403,0.252L152.005,228.193z M152.913,182.997l-0.386,0.27
				l-0.454,0.117l-0.47-0.069l-0.42-0.233l-0.302-0.37l-0.152-0.435l0.016-0.47l0.201-0.439l0.336-0.335l0.42-0.201l0.487-0.016
				l0.437,0.148l0.369,0.304l0.234,0.422l0.068,0.465l-0.117,0.457L152.913,182.997z M121.599,150.406l-0.083,0.454l-0.252,0.404
				l-0.37,0.286l-0.453,0.134l-0.488-0.05l-0.419-0.202l-0.319-0.353l-0.169-0.436v-0.486l0.169-0.437l0.319-0.352l0.419-0.201
				l0.488-0.053l0.453,0.137l0.37,0.284l0.252,0.404L121.599,150.406z M76.4,149.485l0.27,0.401l0.116,0.456l-0.064,0.471
				l-0.236,0.418l-0.371,0.303l-0.437,0.15l-0.469-0.034l-0.437-0.185l-0.334-0.336l-0.203-0.438l-0.017-0.468l0.153-0.454
				l0.301-0.354l0.42-0.232l0.47-0.069l0.454,0.101L76.4,149.485z M43.811,180.799l0.454,0.1l0.404,0.233l0.284,0.388l0.136,0.454
				l-0.051,0.468l-0.201,0.42l-0.353,0.319l-0.437,0.168h-0.487l-0.437-0.168l-0.353-0.319l-0.201-0.42l-0.051-0.468l0.137-0.454
				l0.285-0.388l0.401-0.233L43.811,180.799z M97.909,149.384l3.038,0.083l3.024,0.252l3.005,0.401l2.988,0.591l2.939,0.737
				l2.906,0.906l2.836,1.075l2.787,1.226l2.706,1.36l2.633,1.529l2.554,1.661l2.432,1.796l2.351,1.93l2.234,2.05l2.116,2.178
				l1.998,2.303l1.862,2.385l1.732,2.501l1.593,2.586l1.445,2.668l1.293,2.757l1.158,2.819l0.974,2.869l0.84,2.921l0.654,2.956
				l0.505,3.005l0.334,3.021l0.169,3.021v3.039l-0.169,3.041l-0.334,3.021l-0.505,2.987l-0.654,2.974l-0.84,2.922l-0.974,2.87
				l-1.158,2.821l-1.293,2.739l-1.445,2.667l-1.593,2.604l-1.732,2.484l-1.862,2.401l-1.998,2.279l-2.116,2.186l-2.234,2.063
				l-2.351,1.933l-2.432,1.794l-2.554,1.664l-2.633,1.51l-2.706,1.379l-2.787,1.225l-2.836,1.054l-2.906,0.908l-2.939,0.756
				l-2.988,0.571l-3.005,0.422l-3.024,0.251l-3.038,0.084l-3.04-0.084l-3.022-0.251l-3.021-0.422l-2.972-0.571L82.9,257.54
				l-2.89-0.908l-2.852-1.054l-2.772-1.225l-2.719-1.379l-2.637-1.51l-2.535-1.664l-2.451-1.794l-2.335-1.933l-2.249-2.063
				l-2.116-2.186l-1.999-2.279l-1.863-2.401l-1.728-2.484l-1.597-2.604l-1.444-2.667l-1.292-2.739l-1.141-2.821l-0.991-2.87
				l-0.822-2.922l-0.673-2.974l-0.487-2.987l-0.335-3.021l-0.169-3.041v-3.039l0.169-3.021l0.335-3.021l0.487-3.005l0.673-2.956
				l0.822-2.921l0.991-2.869l1.141-2.819l1.292-2.757l1.444-2.668l1.597-2.586l1.728-2.501l1.863-2.385l1.999-2.303l2.116-2.178
				l2.249-2.05l2.335-1.93l2.451-1.796l2.535-1.661l2.637-1.529l2.719-1.36l2.772-1.226l2.852-1.075l2.89-0.906l2.953-0.737
				l2.972-0.591l3.021-0.401l3.022-0.252L97.909,149.384z M38.859,258.718l0.321,0.048l0.265,0.184l0.187,0.286l0.065,0.32
				l-0.065,0.337l-0.187,0.267l-0.265,0.183l-0.321,0.069l-0.336-0.069l-0.268-0.183l-0.185-0.267l-0.067-0.337l0.067-0.32
				l0.185-0.286l0.268-0.184L38.859,258.718z M38.859,183.281l0.321,0.068l0.265,0.185l0.187,0.267l0.065,0.335l-0.065,0.32
				l-0.187,0.27l-0.265,0.185l-0.321,0.066l-0.336-0.066l-0.268-0.185l-0.185-0.27l-0.067-0.32l0.067-0.335l0.185-0.267l0.268-0.185
				L38.859,183.281z M38.859,145.557l0.321,0.066l0.265,0.186l0.187,0.284l0.065,0.318l-0.065,0.338l-0.187,0.269l-0.265,0.183
				l-0.321,0.067l-0.336-0.067l-0.268-0.183l-0.185-0.269l-0.067-0.338l0.067-0.318l0.185-0.284l0.268-0.186L38.859,145.557z
				 M274.335,180.799l-0.455,0.1l-0.401,0.233l-0.287,0.388l-0.132,0.454l0.049,0.468l0.203,0.42l0.353,0.319l0.438,0.168h0.47
				l0.454-0.168l0.352-0.319l0.2-0.42l0.05-0.468l-0.133-0.454l-0.288-0.388l-0.399-0.233L274.335,180.799z M196.548,150.406
				l0.084,0.454l0.252,0.404l0.37,0.286l0.453,0.134l0.47-0.05l0.437-0.202l0.318-0.353l0.167-0.436v-0.486l-0.167-0.437
				l-0.318-0.352l-0.437-0.201l-0.47-0.053l-0.453,0.137l-0.37,0.284l-0.252,0.404L196.548,150.406z M166.144,228.193l0.469-0.083
				l0.401-0.252l0.286-0.369l0.12-0.455l-0.036-0.486l-0.217-0.42l-0.353-0.317l-0.437-0.168h-0.469l-0.438,0.168l-0.354,0.317
				l-0.217,0.42l-0.033,0.486l0.118,0.455l0.285,0.369l0.403,0.252L166.144,228.193z M243.943,258.601l-0.097-0.471l-0.236-0.402
				l-0.386-0.285l-0.454-0.121l-0.469,0.034l-0.42,0.22l-0.319,0.354l-0.183,0.436v0.47l0.183,0.435l0.319,0.354l0.42,0.216
				l0.469,0.035l0.454-0.119l0.386-0.282l0.236-0.407L243.943,258.601z M279.289,258.718l-0.321,0.048l-0.284,0.184l-0.186,0.286
				l-0.049,0.32l0.049,0.337l0.186,0.267l0.284,0.183l0.321,0.069l0.333-0.069l0.27-0.183l0.185-0.267l0.067-0.337l-0.067-0.32
				l-0.185-0.286l-0.27-0.184L279.289,258.718z M279.289,183.281l-0.321,0.068l-0.284,0.185l-0.186,0.267l-0.049,0.335l0.049,0.32
				l0.186,0.27l0.284,0.185l0.321,0.066l0.333-0.066l0.27-0.185l0.185-0.27l0.067-0.32l-0.067-0.335l-0.185-0.267l-0.27-0.185
				L279.289,183.281z M279.289,131.184l-0.321-0.069l-0.284-0.184l-0.186-0.267l-0.049-0.319l0.049-0.336l0.186-0.27l0.284-0.184
				l0.321-0.066l0.333,0.066l0.27,0.184l0.185,0.27l0.067,0.336l-0.067,0.319l-0.185,0.267l-0.27,0.184L279.289,131.184z
				 M279.289,55.766l-0.321-0.065l-0.284-0.186l-0.186-0.285l-0.049-0.319l0.049-0.338l0.186-0.267l0.284-0.188l0.321-0.064
				l0.333,0.064l0.27,0.188l0.185,0.267l0.067,0.338l-0.067,0.319l-0.185,0.285l-0.27,0.186L279.289,55.766z M275.257,50.761
				l-0.402,0.253l-0.454,0.119l-0.468-0.068l-0.421-0.235l-0.301-0.354l-0.151-0.455l0.031-0.467l0.188-0.439l0.334-0.333
				l0.437-0.186l0.473-0.036l0.451,0.153l0.353,0.302l0.233,0.419l0.068,0.47l-0.101,0.455L275.257,50.761z M198.747,17.251
				l0.269,0.386l0.101,0.452l-0.065,0.47l-0.236,0.422l-0.354,0.301l-0.453,0.15l-0.47-0.032l-0.437-0.185l-0.333-0.335
				l-0.185-0.438l-0.02-0.47l0.152-0.452l0.302-0.354l0.404-0.235l0.471-0.065l0.452,0.116L198.747,17.251z M165.236,93.742
				l0.386-0.25l0.454-0.117l0.471,0.066l0.418,0.235l0.303,0.353l0.152,0.453l-0.018,0.473l-0.202,0.434l-0.337,0.338l-0.418,0.185
				l-0.486,0.032l-0.437-0.148l-0.37-0.306l-0.236-0.418l-0.064-0.47l0.116-0.452L165.236,93.742z M241.747,127.257l-0.269-0.388
				l-0.116-0.454l0.064-0.47l0.237-0.418l0.368-0.304l0.436-0.151l0.472,0.035l0.435,0.183l0.336,0.337l0.184,0.436l0.033,0.471
				l-0.15,0.438l-0.301,0.37l-0.422,0.233l-0.468,0.069l-0.457-0.118L241.747,127.257z M220.24,127.373l-3.042-0.084l-3.022-0.253
				l-3.004-0.417l-2.988-0.57l-2.938-0.758l-2.905-0.906l-2.837-1.057l-2.789-1.225l-2.704-1.376l-2.635-1.514l-2.553-1.661
				l-2.435-1.799l-2.351-1.927l-2.232-2.068l-2.113-2.167l-1.999-2.297l-1.866-2.401l-1.729-2.487l-1.594-2.583l-1.444-2.689
				l-1.295-2.736l-1.156-2.821l-0.975-2.868l-0.839-2.921l-0.653-2.974l-0.505-2.99l-0.336-3.021l-0.167-3.04v-3.022l0.167-3.038
				l0.336-3.023l0.505-2.987l0.653-2.972l0.839-2.92l0.975-2.873l1.156-2.821l1.295-2.736l1.444-2.684l1.594-2.588l1.729-2.483
				l1.866-2.403l1.999-2.3l2.113-2.165l2.232-2.064l2.351-1.933l2.435-1.793l2.553-1.667l2.635-1.524l2.704-1.36l2.789-1.228
				l2.837-1.059l2.905-0.904l2.938-0.757l2.988-0.57l3.004-0.421l3.022-0.25l3.042-0.083l3.037,0.083l3.022,0.25l3.023,0.421
				l2.972,0.57l2.954,0.757l2.887,0.904l2.855,1.059l2.771,1.228l2.72,1.36l2.617,1.524l2.555,1.667l2.451,1.793l2.332,1.933
				l2.25,2.064l2.116,2.165l1.999,2.3l1.865,2.403l1.729,2.483l1.592,2.588l1.445,2.684l1.292,2.736l1.143,2.821l0.991,2.873
				l0.823,2.92l0.655,2.972l0.503,2.987l0.334,3.023l0.168,3.038v3.022l-0.168,3.04l-0.334,3.021l-0.503,2.99l-0.655,2.974
				l-0.823,2.921l-0.991,2.868l-1.143,2.821l-1.292,2.736l-1.445,2.689l-1.592,2.583l-1.729,2.487l-1.865,2.401l-1.999,2.297
				l-2.116,2.167l-2.25,2.068l-2.332,1.927l-2.451,1.799l-2.555,1.661l-2.617,1.514l-2.72,1.376l-2.771,1.225l-2.855,1.057
				l-2.887,0.906l-2.954,0.758l-2.972,0.57l-3.023,0.417l-3.022,0.253L220.24,127.373z M38.859,55.766l0.321-0.065l0.265-0.186
				l0.187-0.285l0.065-0.319l-0.065-0.338l-0.187-0.267l-0.265-0.188l-0.321-0.064l-0.336,0.064l-0.268,0.188l-0.185,0.267
				l-0.067,0.338l0.067,0.319l0.185,0.285l0.268,0.186L38.859,55.766z M42.888,50.761l0.404,0.253l0.453,0.119l0.47-0.068
				l0.421-0.235l0.301-0.354l0.152-0.455l-0.035-0.467l-0.185-0.439l-0.336-0.333L44.1,48.598l-0.473-0.036l-0.451,0.153
				l-0.354,0.302l-0.235,0.419l-0.068,0.47l0.101,0.455L42.888,50.761z M74.202,18.157l0.1,0.455l0.237,0.401l0.386,0.288
				l0.453,0.132l0.469-0.032l0.42-0.218l0.318-0.353l0.168-0.435v-0.47l-0.168-0.458l-0.318-0.333l-0.42-0.222l-0.469-0.047
				l-0.453,0.132l-0.386,0.285l-0.237,0.404L74.202,18.157z M119.398,17.251l-0.268,0.386l-0.1,0.452l0.067,0.47l0.218,0.422
				l0.369,0.301l0.454,0.15l0.472-0.032l0.435-0.185l0.336-0.335l0.186-0.438l0.016-0.47l-0.15-0.452l-0.302-0.354l-0.402-0.235
				l-0.47-0.065l-0.473,0.116L119.398,17.251z M152.005,48.562l-0.47,0.084l-0.404,0.253l-0.285,0.37l-0.117,0.452l0.033,0.47
				l0.219,0.438l0.353,0.302l0.437,0.187h0.47l0.437-0.187l0.351-0.302l0.22-0.438l0.032-0.47l-0.117-0.452l-0.285-0.37
				l-0.403-0.253L152.005,48.562z M152.913,93.742l-0.386-0.25l-0.454-0.117l-0.47,0.066l-0.42,0.235l-0.302,0.353l-0.152,0.453
				l0.016,0.473l0.201,0.434l0.336,0.338l0.42,0.185l0.487,0.032l0.437-0.148l0.369-0.306l0.234-0.418l0.068-0.47l-0.117-0.452
				L152.913,93.742z M121.599,126.349l-0.083-0.468l-0.252-0.387l-0.37-0.286l-0.453-0.135l-0.488,0.035l-0.419,0.217l-0.319,0.352
				l-0.169,0.438v0.47l0.169,0.452l0.319,0.337l0.419,0.217l0.488,0.053l0.453-0.135l0.37-0.288l0.252-0.401L121.599,126.349z
				 M76.4,127.257l0.27-0.388l0.116-0.454l-0.064-0.47l-0.236-0.418l-0.371-0.304l-0.437-0.151l-0.469,0.035l-0.437,0.183
				l-0.334,0.337l-0.203,0.436l-0.017,0.471l0.153,0.438l0.301,0.37l0.42,0.233l0.47,0.069l0.454-0.118L76.4,127.257z
				 M43.811,95.942l0.454-0.083l0.404-0.251l0.284-0.369l0.136-0.455l-0.051-0.471l-0.201-0.436l-0.353-0.319l-0.437-0.169h-0.487
				l-0.437,0.169l-0.353,0.319l-0.201,0.436l-0.051,0.471l0.137,0.455l0.285,0.369l0.401,0.251L43.811,95.942z M97.909,127.373
				l3.038-0.084l3.024-0.253l3.005-0.417l2.988-0.57l2.939-0.758l2.906-0.906l2.836-1.057l2.787-1.225l2.706-1.376l2.633-1.514
				l2.554-1.661l2.432-1.799l2.351-1.927l2.234-2.068l2.116-2.167l1.998-2.297l1.862-2.401l1.732-2.487l1.593-2.583l1.445-2.689
				l1.293-2.736l1.158-2.821l0.974-2.868l0.84-2.921l0.654-2.974l0.505-2.99l0.334-3.021l0.169-3.04v-3.022l-0.169-3.038
				l-0.334-3.023l-0.505-2.987l-0.654-2.972l-0.84-2.92l-0.974-2.873l-1.158-2.821l-1.293-2.736l-1.445-2.684l-1.593-2.588
				l-1.732-2.483l-1.862-2.403l-1.998-2.3l-2.116-2.165l-2.234-2.064l-2.351-1.933l-2.432-1.793l-2.554-1.667l-2.633-1.524
				l-2.706-1.36l-2.787-1.228l-2.836-1.059l-2.906-0.904l-2.939-0.757l-2.988-0.57l-3.005-0.421l-3.024-0.25l-3.038-0.083
				l-3.04,0.083l-3.022,0.25l-3.021,0.421l-2.972,0.57L82.9,19.216l-2.89,0.904l-2.852,1.059l-2.772,1.228l-2.719,1.36l-2.637,1.524
				l-2.535,1.667l-2.451,1.793l-2.335,1.933l-2.249,2.064l-2.116,2.165l-1.999,2.3l-1.863,2.403l-1.728,2.483l-1.597,2.588
				l-1.444,2.684l-1.292,2.736l-1.141,2.821L45.29,55.8l-0.822,2.92l-0.673,2.972l-0.487,2.987l-0.335,3.023l-0.169,3.038v3.022
				l0.169,3.04l0.335,3.021l0.487,2.99l0.673,2.974l0.822,2.921l0.991,2.868l1.141,2.821l1.292,2.736l1.444,2.689l1.597,2.583
				l1.728,2.487l1.863,2.401l1.38,1.79l2.735,2.674l2.249,2.068l2.335,1.927l2.451,1.799l2.535,1.661l2.637,1.514l2.719,1.376
				l2.772,1.225l2.852,1.057l2.89,0.906l2.953,0.758l2.972,0.57l3.021,0.417l3.022,0.253L97.909,127.373z M38.859,18.041
				l0.321-0.067l0.265-0.186l0.187-0.266l0.065-0.338l-0.065-0.317l-0.187-0.286l-0.265-0.185l-0.321-0.05l-0.336,0.05l-0.268,0.185
				l-0.185,0.286l-0.067,0.317l0.067,0.338l0.185,0.266l0.268,0.186L38.859,18.041z M295.069,269.293V7.463 M38.859,93.475
				l0.321-0.066l0.265-0.187l0.187-0.267l0.065-0.335l-0.065-0.321l-0.187-0.284l-0.265-0.185l-0.321-0.065l-0.336,0.065
				l-0.268,0.185l-0.185,0.284l-0.067,0.321l0.067,0.335l0.185,0.267l0.268,0.187L38.859,93.475z M38.859,131.184l0.321-0.069
				l0.265-0.184l0.187-0.267l0.065-0.319l-0.065-0.336l-0.187-0.27l-0.265-0.184l-0.321-0.066l-0.336,0.066l-0.268,0.184
				l-0.185,0.27l-0.067,0.336l0.067,0.319l0.185,0.267l0.268,0.184L38.859,131.184z M274.335,95.942l-0.455-0.083l-0.401-0.251
				l-0.287-0.369l-0.132-0.455l0.049-0.471l0.203-0.436l0.353-0.319l0.438-0.169h0.47l0.454,0.169l0.352,0.319l0.2,0.436l0.05,0.471
				l-0.133,0.455l-0.288,0.369l-0.399,0.251L274.335,95.942z M196.548,126.349l0.084-0.468l0.252-0.387l0.37-0.286l0.453-0.135
				l0.47,0.035l0.437,0.217l0.318,0.352l0.167,0.438v0.47l-0.167,0.452l-0.318,0.337l-0.437,0.217l-0.47,0.053l-0.453-0.135
				l-0.37-0.288l-0.252-0.401L196.548,126.349z M166.144,48.562l0.469,0.084l0.401,0.253l0.286,0.37l0.12,0.452l-0.036,0.47
				l-0.217,0.438l-0.353,0.302l-0.437,0.187h-0.469l-0.438-0.187l-0.354-0.302l-0.217-0.438l-0.033-0.47l0.118-0.452l0.285-0.37
				l0.403-0.253L166.144,48.562z M243.943,18.157l-0.097,0.455l-0.236,0.401l-0.386,0.288l-0.454,0.132l-0.469-0.032l-0.42-0.218
				l-0.319-0.353l-0.183-0.435v-0.47l0.183-0.458l0.319-0.333l0.42-0.222l0.469-0.047l0.454,0.132l0.386,0.285l0.236,0.404
				L243.943,18.157z M279.289,18.041l-0.321-0.067l-0.284-0.186l-0.186-0.266l-0.049-0.338l0.049-0.317l0.186-0.286l0.284-0.185
				l0.321-0.05l0.333,0.05l0.27,0.185l0.185,0.286l0.067,0.317l-0.067,0.338l-0.185,0.266l-0.27,0.186L279.289,18.041z
				 M279.289,93.475l-0.321-0.066l-0.284-0.187l-0.186-0.267l-0.049-0.335l0.049-0.321l0.186-0.284l0.284-0.185l0.321-0.065
				l0.333,0.065l0.27,0.185l0.185,0.284l0.067,0.321l-0.067,0.335l-0.185,0.267l-0.27,0.187L279.289,93.475z M23.076,269.293V7.463
				 M23.076,7.463V7.21V6.975v-0.2V6.574v-0.15V6.302V6.238V6.223 M23.076,6.223h271.993 M295.069,6.223v0.016v0.064v0.122v0.15
				v0.201v0.2V7.21v0.253 M295.069,270.537L295.069,270.537v0.016v0.018v0.016v0.032v0.016v0.016 M23.076,270.651v-0.016v-0.016
				v-0.032v-0.016v-0.018v-0.016 M295.069,6.223V6.204V6.186V6.154V6.139V6.122V6.085 M23.076,6.085v0.037v0.017v0.015v0.032v0.018
				v0.019 M275.729,276.58v-3.626 M275.729,276.58h-76.16 M199.569,272.954v3.626 M197.152,272.954l0.084-0.455l0.27-0.403
				l0.386-0.249l0.468-0.101l0.471,0.101l0.388,0.249l0.25,0.403l0.1,0.455 M197.152,276.58v-3.626 M197.152,276.58h-76.158
				 M120.994,272.954v3.626 M118.576,272.954l0.084-0.455l0.269-0.403l0.386-0.249l0.469-0.101l0.473,0.101l0.386,0.249l0.252,0.403
				l0.1,0.455 M118.576,276.58v-3.626 M118.576,276.58H42.418 M42.418,272.954v3.626 M40,272.954l0.085-0.455l0.268-0.403
				l0.388-0.249l0.469-0.101l0.47,0.101l0.386,0.249l0.252,0.403l0.1,0.455 M40,276.58v-3.626 M40,276.58H23.076 M295.069,270.651
				v5.929 M295.069,276.58h-16.924 M278.145,272.954v3.626 M275.729,272.954l0.082-0.455l0.272-0.403l0.383-0.249l0.471-0.101
				l0.47,0.101l0.386,0.249l0.252,0.403l0.1,0.455 M23.076,276.58v-5.929 M278.145,3.803V0.175 M295.069,0.175h-16.924
				 M295.069,6.085V0.175 M23.076,0.175v5.911 M40,0.175H23.076 M40,0.175v3.628 M40,3.803l0.085,0.452l0.268,0.404l0.388,0.251
				l0.469,0.101l0.47-0.101l0.386-0.251l0.252-0.404l0.1-0.452 M42.418,3.803V0.175 M118.576,0.175H42.418 M118.576,0.175v3.628
				 M118.576,3.803l0.084,0.452l0.269,0.404l0.386,0.251l0.469,0.101l0.473-0.101l0.386-0.251l0.252-0.404l0.1-0.452 M120.994,3.803
				V0.175 M197.152,0.175h-76.158 M197.152,0.175v3.628 M197.152,3.803l0.084,0.452l0.27,0.404l0.386,0.251l0.468,0.101l0.471-0.101
				l0.388-0.251l0.25-0.404l0.1-0.452 M199.569,3.803V0.175 M275.729,0.175h-76.16 M275.729,0.175v3.628 M275.729,3.803l0.082,0.452
				l0.272,0.404l0.383,0.251l0.471,0.101l0.47-0.101l0.386-0.251l0.252-0.404l0.1-0.452 M14.028,256.416l0.033,0.016v0.021
				 M14.028,256.416l-0.707-0.554l-0.754-0.302l-0.571,0.035l-0.556,0.235l-0.756,0.586 M10.469,256.416l0.065,0.016l0.052,0.021
				l0.051-0.021l0.049-0.016 M10.469,256.416l-1.411-0.554L7.53,255.56l-1.125,0.035l-1.124,0.235l-1.513,0.586 M3.568,256.416
				l0.034,0.016l0.051,0.021l0.048-0.021l0.052-0.016h0.016 M3.568,256.416l-0.705-0.554l-0.774-0.302l-0.555,0.035l-0.569,0.235
				l-0.755,0.586 M0.175,256.452L0.175,256.452l0.017-0.021l0.019-0.016 M13.103,255.494h-0.033h-0.2H12.5h-0.522h-0.655h-0.79
				H9.663H8.705H7.713H6.69H5.7H4.728h-0.89H3.047H2.357H1.823H1.419H1.202H1.134 M1.94,259.12H2.51h0.722h0.823h0.907h0.974h1.006
				h1.024h0.992h0.939h0.857h0.739h0.638h0.47h0.336h0.152h0.013 M1.134,259.12L1.134,259.12h0.1h0.27H1.94 M0.175,258.162
				L0.175,258.162h0.017l0.019,0.016v0.016 M3.568,258.193l-0.705,0.557l-0.774,0.285l-0.555-0.016l-0.569-0.238l-0.755-0.588
				 M3.568,258.193l0.034-0.032h0.051h0.048l0.052,0.016l0.016,0.016 M10.469,258.193l-1.411,0.557l-1.528,0.285l-1.125-0.016
				l-1.124-0.238l-1.513-0.588 M10.469,258.193l0.065-0.032h0.052h0.051l0.049,0.032 M14.028,258.193l-0.707,0.557l-0.754,0.285
				l-0.571-0.016l-0.556-0.238l-0.756-0.588 M14.028,258.193l0.033-0.032 M1.134,250.542h0.068h0.217h0.404h0.534h0.689h0.791h0.89
				H5.7H6.69h1.023h0.992h0.958h0.872h0.79h0.655H12.5h0.369h0.2h0.033 M9.847,249.984h0.79h0.687h0.555h0.386H12.5h0.067
				 M1.688,249.984H1.72h0.203h0.37h0.519h0.672h0.771h0.874h0.94h0.974h0.975h0.939h0.89 M9.847,242.247h-0.89H8.018H7.043H6.07
				h-0.94H4.255H3.484H2.812H2.293h-0.37H1.72H1.688 M12.568,242.247H12.5h-0.236h-0.386h-0.555h-0.687h-0.79 M9.663,241.893h0.755
				h0.654h0.521h0.37h0.201h0.031 M2.041,241.893h0.016H2.19H2.51h0.47h0.604h0.74h0.823h0.891H6.96h0.938h0.907h0.857
				 M7.176,241.641h1.01h0.988h0.923h0.841h0.739h0.586h0.471h0.285h0.134 M1.202,241.641L1.202,241.641h0.133h0.285h0.47h0.589
				h0.738h0.839h0.923h0.991h1.007 M3.618,240.72l-0.703,0.57l-0.774,0.285l-0.554-0.036l-0.57-0.233L0.26,240.72 M3.618,240.72
				l0.035-0.02l0.048-0.016l0.067,0.016l0.052,0.02 M10.534,240.72l-1.41,0.57l-1.543,0.285l-1.107-0.036l-1.126-0.233l-1.527-0.585
				 M10.534,240.72l0.052-0.02l0.068-0.016l0.049,0.016l0.034,0.02 M14.095,240.72l-0.704,0.57l-0.774,0.285l-0.554-0.036
				l-0.57-0.233l-0.756-0.585 M14.095,240.72l0.017-0.02v-0.016 M0.244,240.685v0.016l0.016,0.02 M14.095,238.955l0.017,0.019
				 M14.095,238.955l-0.704-0.571l-0.774-0.285l-0.554,0.016l-0.57,0.238l-0.756,0.602 M10.534,238.955l0.052,0.019h0.068h0.049
				l0.034-0.019 M10.534,238.955l-1.41-0.571L7.581,238.1l-1.107,0.016l-1.126,0.238l-1.527,0.602 M3.618,238.955l0.035,0.019h0.048
				h0.067l0.052-0.019 M3.618,238.955l-0.703-0.571L2.141,238.1l-0.554,0.016l-0.57,0.238l-0.757,0.602 M0.244,238.974
				L0.244,238.974l0.016-0.019 M13.154,238.015h-0.016H12.97h-0.337h-0.501h-0.638h-0.756H9.863H8.924H7.933H6.926H5.919H4.944
				H4.038H3.231H2.527H1.956H1.535H1.283H1.202 M1.202,233.061h0.082h0.251h0.421h0.571h0.705h0.807h0.906h0.975h1.007h1.007h0.991
				h0.938h0.874h0.756h0.638h0.501h0.337h0.168h0.016 M1.736,232.526h0.019H1.94h0.336h0.502h0.638h0.771h0.857h0.923h0.958h0.972
				h0.958h0.906h0.808h0.702h0.573h0.419h0.268h0.084 M12.617,224.784h-0.084h-0.268h-0.419h-0.573H10.57H9.763H8.856H7.898H6.926
				H5.968H5.045H4.188H3.417H2.779H2.276H1.94H1.755H1.736 M2.108,224.418H2.19h0.251h0.421h0.569h0.69H4.91h0.875h0.922h0.94h0.925
				h0.872h0.79h0.689h0.57h0.419h0.252h0.083 M2.041,47.809h0.067h0.234h0.404H3.3h0.687h0.79h0.89h0.923h0.94h0.942h0.887h0.825
				h0.703h0.59h0.453h0.266h0.12 M2.643,40.252h0.019h0.184H3.2h0.486h0.637h0.739h0.822h0.874h0.889h0.874h0.823h0.738h0.622h0.488
				h0.335h0.168h0.016 M1.989,65.033h0.051h0.217 M12.315,84.189L12.315,84.189H12.18h-0.286h-0.185 M2.643,84.189H2.342H2.056
				H1.923 M12.315,92.535L12.315,92.535H12.18h-0.286h-0.185 M2.643,92.535H2.342H2.056H1.923 M1.923,67.149h0.049 M11.709,75.495
				h0.354h0.201h0.051 M1.923,75.495h0.049h0.201h0.371h0.1 M12.015,83.77l0.016,0.018l-0.201-0.25l-0.12-0.154 M11.709,76.3
				l0.069-0.087l0.236-0.302l0.032-0.031 M13.29,75.88v0.085v0.269v0.402v0.553v0.67v0.757v0.806v0.84v0.806v0.755v0.673v0.555
				v0.417v0.253v0.083 M19.333,76.335v0.1v0.251v0.419v0.553v0.673v0.739v0.771v0.791v0.737v0.655v0.554v0.42v0.27v0.085
				 M12.382,209.624h-0.067h-0.218h-0.388h-0.519h-0.657H9.763H8.924H8.018H7.095H6.169H5.281H4.44H3.701H3.064H2.561H2.208H2.023
				H1.972 M12.382,201.281h-0.067h-0.218h-0.388h-0.519h-0.657H9.763H8.924H8.018H7.095H6.169H5.281H4.44H3.701H3.064H2.561H2.208
				H2.023H1.972 M8.487,184.239h0.872h0.807h0.706h0.605h0.453h0.302h0.133h0.018 M1.972,184.239h0.018h0.1h0.268h0.437h0.57h0.69
				h0.79h0.871h0.907h0.942h0.923 M8.487,192.583h0.872h0.807h0.706h0.605h0.453h0.302h0.133h0.018 M1.972,192.583h0.018h0.1h0.268
				h0.437h0.57h0.69h0.79h0.871h0.907h0.942h0.923 M12.08,200.675l0.018-0.049l-0.135-0.505l-0.354-0.821l-0.233-0.607l-0.236-0.703
				l-0.136-0.839l0.051-0.855l0.253-0.976l0.486-1.175l0.184-0.47l0.101-0.37l-0.017-0.101 M13.154,192.969l0.204,0.083l0.2,0.269
				l0.167,0.404l0.152,0.555l0.135,0.671l0.083,0.755l0.033,0.806v0.839l-0.033,0.806l-0.083,0.758l-0.135,0.668l-0.152,0.555
				l-0.167,0.404l-0.2,0.269l-0.204,0.084 M18.998,193.421l0.202,0.084l0.184,0.27l0.168,0.42l0.133,0.555l0.1,0.654l0.069,0.753
				l0.016,0.774l-0.016,0.79l-0.069,0.739l-0.1,0.655l-0.133,0.553l-0.168,0.422l-0.184,0.266l-0.202,0.084 M12.382,75.308h-0.067
				h-0.218h-0.388h-0.519h-0.657H9.763H8.924H8.018H7.095H6.169H5.281H4.44H3.701H3.064H2.561H2.208H2.023H1.972 M12.382,66.965
				h-0.067h-0.218h-0.388h-0.519h-0.657H9.763H8.924H8.018H7.095H6.169H5.281H4.44H3.701H3.064H2.561H2.208H2.023H1.972
				 M8.487,49.922h0.872h0.807h0.706h0.605h0.453h0.302h0.133h0.018 M1.972,49.922h0.018h0.1h0.268h0.437h0.57h0.69h0.79h0.871
				h0.907h0.942h0.923 M8.487,58.267h0.872h0.807h0.706h0.605h0.453h0.302h0.133h0.018 M1.972,58.267h0.018h0.1h0.268h0.437h0.57
				h0.69h0.79h0.871h0.907h0.942h0.923 M12.08,66.359l0.018-0.048l-0.135-0.488l-0.354-0.84l-0.233-0.604l-0.236-0.703l-0.136-0.842
				l0.051-0.855l0.253-0.975l0.486-1.175l0.184-0.47l0.101-0.368l-0.017-0.102 M13.154,58.652l0.204,0.085l0.2,0.27l0.167,0.404
				l0.152,0.555l0.135,0.668l0.083,0.755l0.033,0.806v0.84l-0.033,0.805l-0.083,0.759l-0.135,0.67l-0.152,0.555l-0.167,0.42
				l-0.2,0.25l-0.204,0.084 M18.998,59.107l0.202,0.1l0.184,0.252l0.168,0.422l0.133,0.552l0.1,0.671l0.069,0.739l0.016,0.774
				l-0.016,0.789l-0.069,0.737l-0.1,0.655l-0.133,0.555l-0.168,0.421L19.2,66.04l-0.202,0.087 M12.315,218.506L12.315,218.506H12.18
				h-0.286h-0.185 M2.643,218.506H2.342H2.056H1.923 M1.923,201.465h0.049 M11.709,209.809h0.354h0.201h0.051 M1.923,209.809h0.049
				h0.201h0.371h0.1 M12.015,218.085h0.016l-0.201-0.235l-0.12-0.148 M11.709,210.615l0.069-0.084l0.236-0.301l0.032-0.035
				 M13.29,210.194v0.085v0.268v0.404v0.554v0.673v0.755v0.806v0.837v0.808v0.753v0.673v0.555v0.401v0.27v0.085 M19.333,210.648
				v0.085v0.269v0.418v0.557v0.652v0.755v0.771v0.79v0.739v0.655v0.552v0.422v0.267v0.084"/>
		</g>
	</g>
</g>
</svg>
