<?xml version="1.0" encoding="utf-8"?>
<!-- Generator: Adobe Illustrator 15.0.2, SVG Export Plug-In . SVG Version: 6.00 Build 0)  -->
<!DOCTYPE svg PUBLIC "-//W3C//DTD SVG 1.1//EN" "http://www.w3.org/Graphics/SVG/1.1/DTD/svg11.dtd">
<svg version="1.1" id="Layer_1" xmlns="http://www.w3.org/2000/svg" xmlns:xlink="http://www.w3.org/1999/xlink" x="0px" y="0px"
	 width="268.341px" height="121.138px" viewBox="0 0 268.341 121.138" enable-background="new 0 0 268.341 121.138"
	 xml:space="preserve">
<g>
	<g>
		
			<path fill="none" stroke="#245684" stroke-width="0.35" stroke-linecap="round" stroke-linejoin="round" stroke-miterlimit="10" d="
			M39.125,20.679h0.691 M39.816,20.679l0.02-0.094l0.037-0.094l0.057-0.093l0.055-0.076l0.092-0.072l0.076-0.039l0.111-0.037h0.094
			 M266.71,27.128L266.71,27.128l0.632-1.007l0.45-1.1l0.278-1.154l0.096-1.174l-0.096-1.176l-0.278-1.155l-0.45-1.101l-0.632-1.006
			 M258.132,20.174h1.269 M266.71,47.258L266.71,47.258l0.632-1.004l0.45-1.101l0.278-1.154l0.096-1.176l-0.096-1.176l-0.278-1.155
			l-0.45-1.097l-0.632-1.008 M39.125,60.941h0.691 M39.816,60.941l0.02-0.092l0.037-0.094l0.057-0.094l0.055-0.075l0.092-0.073
			l0.076-0.038l0.111-0.037h0.094 M266.71,67.392L266.71,67.392l0.632-1.007l0.45-1.1l0.278-1.156l0.096-1.173l-0.096-1.175
			l-0.278-1.155l-0.45-1.101l-0.632-1.008 M258.132,60.438h1.269 M266.71,87.521L266.71,87.521l0.632-1.007l0.45-1.098l0.278-1.154
			l0.096-1.176l-0.096-1.176l-0.278-1.155l-0.45-1.097l-0.632-1.008 M267.736,20.174l0.057-0.187l0.278-1.156l0.096-1.172
			l-0.096-1.176l-0.278-1.155l-0.45-1.101l-0.632-1.006 M267.736,40.308l0.057-0.188l0.278-1.157l0.096-1.173l-0.096-1.172
			l-0.278-1.159l-0.45-1.097l-0.632-1.007 M267.736,60.438l0.057-0.188l0.278-1.155l0.096-1.172l-0.096-1.176l-0.278-1.156
			l-0.45-1.1l-0.632-1.007 M267.736,80.57l0.057-0.186l0.278-1.157l0.096-1.173l-0.096-1.174l-0.278-1.157l-0.45-1.099l-0.632-1.006
			 M267.736,100.702l0.057-0.188l0.278-1.155l0.096-1.176l-0.096-1.174l-0.278-1.157l-0.45-1.098l-0.632-1.007 M39.125,101.205
			h0.691 M39.816,101.205l0.02-0.094l0.037-0.094l0.057-0.092l0.055-0.076l0.092-0.072l0.076-0.039l0.111-0.036h0.094
			 M266.71,107.654L266.71,107.654l0.632-1.006l0.45-1.102l0.278-1.154l0.096-1.176l-0.096-1.172l-0.278-1.156l-0.45-1.1
			l-0.632-1.008 M258.132,100.702h1.269 M31.763,81.726l-0.411,0.28l-0.896,0.781l-0.766,0.896l-0.632,1.006l-0.447,1.099
			l-0.28,1.157l-0.094,1.174l0.094,1.173l0.28,1.157l0.054,0.186 M31.763,61.592l-0.411,0.28l-0.896,0.782L29.69,63.55l-0.632,1.006
			l-0.447,1.1l-0.28,1.156l-0.094,1.176l0.094,1.173l0.28,1.155l0.054,0.187 M31.763,21.33l-0.411,0.28l-0.896,0.783l-0.766,0.896
			l-0.632,1.005l-0.447,1.1l-0.28,1.154l-0.094,1.176l0.094,1.174l0.28,1.157l0.054,0.185 M31.763,41.462l-0.411,0.28l-0.896,0.782
			l-0.766,0.895l-0.632,1.008l-0.447,1.098l-0.28,1.158l-0.094,1.172l0.094,1.176l0.28,1.155l0.054,0.188 M31.763,46.495
			l-0.411,0.28l-0.896,0.782l-0.766,0.895l-0.632,1.007l-0.447,1.1l-0.28,1.156l-0.094,1.172l0.094,1.176l0.28,1.156l0.447,1.1
			l0.632,1.006l0.766,0.894l0.896,0.785l0.411,0.28 M31.763,26.365l-0.411,0.277l-0.896,0.784l-0.766,0.895l-0.632,1.005l-0.447,1.1
			l-0.28,1.154l-0.094,1.176l0.094,1.173l0.28,1.157l0.447,1.099l0.632,1.006l0.766,0.896l0.896,0.783l0.411,0.277 M31.763,101.428
			l-0.745,0.317l-0.896,0.558l-0.654,0.579l-0.522,0.634l-0.373,0.671l-0.242,0.727l-0.094,0.821l0.094,0.801l0.223,0.728
			l0.374,0.669l0.482,0.616l0.636,0.56l0.746,0.486l0.895,0.428l0.076,0.037 M31.763,66.625l-0.411,0.281l-0.896,0.783l-0.766,0.894
			l-0.632,1.006l-0.447,1.101l-0.28,1.154l-0.094,1.176l0.094,1.172l0.28,1.156l0.447,1.1l0.632,1.007l0.766,0.895l0.896,0.784
			l0.411,0.277 M31.763,86.759l-0.411,0.277l-0.896,0.783l-0.766,0.896l-0.632,1.007l-0.447,1.101l-0.28,1.154l-0.094,1.173
			l0.094,1.176l0.28,1.154l0.447,1.1l0.632,1.007l0.766,0.894l0.896,0.783l0.411,0.278 M16.955,20.174l0.151,0.245l0.223,0.184
			l0.261,0.111l0.279,0.04l0.28-0.04l0.263-0.111l0.204-0.184l0.17-0.245 M18.785,15.142l-0.17-0.241l-0.204-0.188l-0.263-0.111
			l-0.28-0.038l-0.279,0.038l-0.261,0.111l-0.223,0.188l-0.151,0.241 M18.785,20.174h12.978 M31.763,15.142H18.785 M13.6,20.174
			h3.355 M16.955,15.142H13.6 M3.531,15.142l0.148,0.242l0.223,0.187l0.263,0.111l0.28,0.039l0.281-0.039l0.259-0.111l0.205-0.187
			l0.168-0.242 M5.358,10.109L5.189,9.866L4.984,9.681L4.726,9.569L4.444,9.53l-0.28,0.039L3.902,9.681L3.679,9.866l-0.148,0.243
			 M5.358,15.142H13.6 M31.763,10.109H5.358 M0.175,15.142h3.356 M3.531,10.109H0.175 M39.816,20.679V20.66v-0.187V20.1v-0.522
			v-0.632v-0.037 M39.816,60.941v-0.018v-0.186v-0.374v-0.522v-0.633v-0.036 M39.816,21.685V21.07v-0.392 M39.816,61.949v-0.616
			v-0.392 M39.816,102.211v-0.615v-0.392 M39.816,101.205v-0.018V101v-0.374v-0.521v-0.633v-0.04 M16.955,15.292v0.317v0.483v0.579
			v0.671v0.669v0.673v0.576v0.467v0.317v0.129 M16.955,15.142L16.955,15.142v0.151 M18.785,20.174V20.12v-0.226v-0.392v-0.52v-0.635
			v-0.67v-0.672v-0.634v-0.54v-0.392v-0.245v-0.055 M13.6,20.174V20.12v-0.226v-0.392v-0.52v-0.635v-0.67v-0.672v-0.634v-0.54
			v-0.392v-0.245v-0.055 M3.531,10.109L3.531,10.109v0.148v0.316v0.485v0.579v0.669v0.691v0.654v0.575v0.468v0.317v0.129
			 M5.358,11.34V10.8v-0.392v-0.242v-0.057 M5.358,15.142v-0.057v-0.223v-0.389v-0.524v-0.615v-0.688v-0.671V11.34 M0.175,11.34
			V10.8v-0.392v-0.242v-0.057 M0.175,15.142v-0.057v-0.223v-0.389v-0.524v-0.615v-0.688v-0.671V11.34 M266.71,113.058v0.226v0.225
			v0.204v0.188v0.148v0.111v0.075v0.018 M266.71,114.252H31.763 M31.763,114.252v-0.018v-0.075v-0.111v-0.148v-0.188v-0.204v-0.225
			v-0.226 M259.4,20.305l-0.114,0.578l-0.278,0.504l-0.448,0.371l-0.54,0.187h-0.597l-0.54-0.187l-0.446-0.371l-0.299-0.504
			l-0.094-0.578l0.094-0.577l0.299-0.503l0.446-0.374l0.54-0.205h0.597l0.54,0.205l0.448,0.374l0.278,0.503L259.4,20.305z
			 M259.4,100.831l-0.114,0.579l-0.278,0.503l-0.448,0.372l-0.54,0.186h-0.597l-0.54-0.186l-0.446-0.372l-0.299-0.503l-0.094-0.579
			l0.094-0.577l0.299-0.503l0.446-0.374l0.54-0.206h0.597l0.54,0.206l0.448,0.374l0.278,0.503L259.4,100.831z M39.089,60.567
			l0.094,0.579l0.298,0.503l0.45,0.371l0.54,0.188h0.578l0.559-0.188l0.449-0.371l0.277-0.503l0.114-0.579l-0.114-0.576
			l-0.277-0.504l-0.449-0.373l-0.559-0.205H40.47l-0.54,0.205l-0.45,0.373l-0.298,0.504L39.089,60.567z M39.089,100.831l0.094,0.579
			l0.298,0.503l0.45,0.372l0.54,0.186h0.578l0.559-0.186l0.449-0.372l0.277-0.503l0.114-0.579l-0.114-0.577l-0.277-0.503
			l-0.449-0.374l-0.559-0.206H40.47l-0.54,0.206l-0.45,0.374l-0.298,0.503L39.089,100.831z M237.9,35.293l0.449-0.186h0.5
			l0.45,0.166l0.355,0.355l0.185,0.446l0.018,0.486l-0.184,0.465l-0.336,0.356l-0.466,0.187h-0.486l-0.446-0.168l-0.356-0.354
			l-0.206-0.449v-0.483l0.188-0.466L237.9,35.293z M243.626,60.567l-0.094,2.741l-0.28,2.741l-0.468,2.702l-0.651,2.683
			l-0.837,2.612l-1.008,2.554l-1.176,2.497l-1.36,2.385l-1.492,2.295l-1.681,2.197l-1.791,2.068l-1.957,1.939l-2.071,1.81
			l-2.18,1.658l-2.31,1.511l-2.388,1.361l-2.5,1.175L216.83,98.5l-2.61,0.841l-2.684,0.651l-2.705,0.466l-2.74,0.278l-2.744,0.094
			l-2.741-0.094l-2.741-0.278l-2.722-0.466l-2.666-0.651l-2.61-0.841l-2.573-1.005l-2.481-1.175l-2.385-1.361l-2.315-1.511
			l-2.18-1.658l-2.068-1.81l-1.961-1.939l-1.808-2.068l-1.659-2.197l-1.511-2.295l-1.342-2.385l-1.175-2.497l-1.008-2.554
			l-0.837-2.612l-0.651-2.683l-0.468-2.702l-0.28-2.741l-0.094-2.741l0.094-2.759l0.28-2.719l0.468-2.723l0.651-2.666l0.837-2.626
			l1.008-2.554l1.175-2.479l1.342-2.387l1.511-2.311l1.659-2.184l1.808-2.086l1.961-1.939l2.068-1.809l2.18-1.659l2.315-1.508
			l2.385-1.345l2.481-1.172l2.573-1.007l2.61-0.839l2.666-0.654l2.722-0.464l2.741-0.28l2.741-0.094l2.744,0.094l2.74,0.28
			l2.705,0.464l2.684,0.654l2.61,0.839l2.554,1.007l2.5,1.172l2.388,1.345l2.31,1.508l2.18,1.659l2.071,1.809l1.957,1.939
			l1.791,2.086l1.681,2.184l1.492,2.311l1.36,2.387l1.176,2.479l1.008,2.554l0.837,2.626l0.651,2.666l0.468,2.723l0.28,2.719
			L243.626,60.567z M60.59,85.827l-0.467,0.204h-0.485l-0.446-0.187l-0.354-0.334l-0.204-0.45v-0.503l0.184-0.446l0.337-0.354
			l0.446-0.187l0.504-0.018l0.446,0.184l0.356,0.337l0.187,0.465l0.018,0.485l-0.186,0.446L60.59,85.827z M129.694,85.827
			l0.446,0.204h0.485l0.467-0.187l0.353-0.334l0.188-0.45v-0.503l-0.167-0.446l-0.355-0.354l-0.446-0.187l-0.485-0.018l-0.468,0.184
			l-0.352,0.337l-0.188,0.465v0.485l0.168,0.446L129.694,85.827z M93.874,103.349l0.094,0.484l0.277,0.408l0.413,0.262l0.483,0.094
			l0.485-0.094l0.392-0.262l0.28-0.408l0.094-0.484l-0.094-0.485l-0.28-0.411l-0.392-0.28l-0.485-0.094l-0.483,0.094l-0.413,0.28
			l-0.277,0.411L93.874,103.349z M54.864,60.567l0.094,2.741l0.28,2.741l0.466,2.702l0.651,2.683l0.821,2.612l1.025,2.554
			l1.174,2.497l1.342,2.385l1.511,2.295l1.662,2.197l1.806,2.068l1.939,1.939l2.09,1.81l2.182,1.658l2.292,1.511l2.407,1.361
			l2.481,1.175l2.553,1.005l2.63,0.841l2.665,0.651l2.722,0.466l2.724,0.278l2.759,0.094l2.743-0.094l2.741-0.278l2.702-0.466
			l2.668-0.651l2.629-0.841l2.554-1.005l2.481-1.175l2.404-1.361l2.294-1.511l2.201-1.658l2.068-1.81l1.939-1.939l1.809-2.068
			l1.662-2.197l1.51-2.295l1.36-2.385l1.176-2.497l1.006-2.554l0.839-2.612l0.651-2.683l0.468-2.702l0.28-2.741l0.094-2.741
			l-0.094-2.759l-0.28-2.719l-0.468-2.723l-0.651-2.666l-0.839-2.626l-1.006-2.554l-1.176-2.479l-1.36-2.387l-1.51-2.311
			l-1.662-2.184l-1.809-2.086l-1.939-1.939l-2.068-1.809l-2.201-1.659l-2.294-1.508l-2.404-1.345l-2.481-1.172l-2.554-1.007
			l-2.629-0.839l-2.668-0.654l-2.702-0.464l-2.741-0.28l-2.743-0.094l-2.759,0.094l-2.724,0.28l-2.722,0.464l-2.665,0.654
			l-2.63,0.839l-2.553,1.007l-2.481,1.172L74.2,26.16l-2.292,1.508l-2.182,1.659l-2.09,1.809l-1.939,1.939l-1.806,2.086
			l-1.662,2.184l-1.511,2.311l-1.342,2.387l-1.174,2.479l-1.025,2.554L56.356,49.7l-0.651,2.666l-0.466,2.723l-0.28,2.719
			L54.864,60.567z M266.71,8.078v104.98 M31.763,8.078v104.98 M96.392,17.789l-0.094-0.485l-0.28-0.409l-0.392-0.28l-0.485-0.094
			l-0.483,0.094l-0.413,0.28l-0.277,0.409l-0.094,0.485l0.094,0.485l0.277,0.411l0.413,0.26l0.483,0.093l0.485-0.093l0.392-0.26
			l0.28-0.411L96.392,17.789z M60.59,35.293l-0.467-0.186h-0.485l-0.446,0.166l-0.354,0.355l-0.204,0.446v0.486l0.184,0.465
			l0.337,0.356l0.446,0.187h0.504l0.446-0.168l0.356-0.354l0.187-0.449l0.018-0.483l-0.186-0.466L60.59,35.293z M129.694,35.293
			l0.446-0.186h0.485l0.467,0.166l0.353,0.355l0.188,0.446v0.486l-0.167,0.465l-0.355,0.356l-0.446,0.187h-0.485l-0.468-0.168
			l-0.352-0.354l-0.188-0.449v-0.483l0.168-0.466L129.694,35.293z M202.08,17.789l0.111-0.485l0.263-0.409l0.408-0.28l0.486-0.094
			l0.485,0.094l0.409,0.28l0.262,0.409l0.094,0.485l-0.094,0.485l-0.262,0.411l-0.409,0.26l-0.485,0.093l-0.486-0.093l-0.408-0.26
			l-0.263-0.411L202.08,17.789z M168.797,35.293l-0.449-0.186h-0.504l-0.446,0.166l-0.356,0.355l-0.184,0.446l-0.018,0.486
			l0.184,0.465l0.334,0.356l0.468,0.187h0.485l0.446-0.168l0.356-0.354l0.205-0.449v-0.483l-0.188-0.466L168.797,35.293z
			 M202.08,103.349l0.111,0.484l0.263,0.408l0.408,0.262l0.486,0.094l0.485-0.094l0.409-0.262l0.262-0.408l0.094-0.484l-0.094-0.485
			l-0.262-0.411l-0.409-0.28l-0.485-0.094l-0.486,0.094l-0.408,0.28l-0.263,0.411L202.08,103.349z M237.9,85.827l0.449,0.204h0.5
			l0.45-0.187l0.355-0.334l0.185-0.45l0.018-0.503l-0.184-0.446l-0.336-0.354l-0.466-0.187l-0.486-0.018l-0.446,0.184l-0.356,0.337
			l-0.206,0.465v0.485l0.188,0.446L237.9,85.827z M168.797,85.827l-0.449,0.204h-0.504l-0.446-0.187l-0.356-0.334l-0.184-0.45
			l-0.018-0.503l0.184-0.446l0.334-0.354l0.468-0.187l0.485-0.018l0.446,0.184l0.356,0.337l0.205,0.465v0.485l-0.188,0.446
			L168.797,85.827z M39.089,20.305l0.094,0.578l0.298,0.504l0.45,0.371l0.54,0.187h0.578l0.559-0.187l0.449-0.371l0.277-0.504
			l0.114-0.578l-0.114-0.577l-0.277-0.503l-0.449-0.374l-0.559-0.205H40.47l-0.54,0.205l-0.45,0.374l-0.298,0.503L39.089,20.305z
			 M259.4,60.567l-0.114,0.579l-0.278,0.503l-0.448,0.371l-0.54,0.188h-0.597l-0.54-0.188l-0.446-0.371l-0.299-0.503l-0.094-0.579
			l0.094-0.576l0.299-0.504l0.446-0.373l0.54-0.205h0.597l0.54,0.205l0.448,0.373l0.278,0.504L259.4,60.567z M31.763,8.078V7.836
			V7.613V7.407V7.239V7.091V6.977V6.904V6.884 M31.763,6.884H266.71 M266.71,6.884v0.021v0.072v0.114v0.148v0.168v0.206v0.223v0.242
			 M31.763,114.252L31.763,114.252v0.019v0.038v0.055v0.057v0.073v0.075v0.075 M266.71,114.644v-0.075v-0.075v-0.073v-0.057v-0.055
			v-0.038v-0.019 M31.763,6.494v0.074v0.074v0.075v0.056v0.038v0.037v0.018v0.019 M266.71,6.884V6.865V6.847V6.811V6.772V6.717
			V6.642V6.567V6.494 M251.942,120.963H150.579 M150.579,120.963v-3.356 M150.579,117.607l-0.094-0.521l-0.298-0.429l-0.431-0.299
			l-0.522-0.094l-0.503,0.094l-0.446,0.299l-0.281,0.429l-0.111,0.521 M147.893,117.607v3.356 M147.893,120.963H46.53
			 M46.53,120.963v-3.356 M46.53,117.607l-0.094-0.521l-0.299-0.429l-0.427-0.299l-0.524-0.094l-0.503,0.094l-0.447,0.299
			l-0.28,0.429l-0.111,0.521 M43.844,117.607v3.356 M43.844,120.963H31.763 M31.763,120.963v-6.32 M266.71,114.644v6.32
			 M266.71,120.963h-12.085 M254.625,120.963v-3.356 M254.625,117.607l-0.094-0.521l-0.298-0.429l-0.426-0.299l-0.525-0.094
			l-0.503,0.094l-0.446,0.299l-0.28,0.429l-0.111,0.521 M251.942,117.607v3.356 M266.71,6.494V0.175 M31.763,0.175v6.319
			 M43.844,0.175H31.763 M43.844,3.531V0.175 M46.53,3.531l-0.094,0.503L46.138,4.48L45.71,4.76l-0.524,0.112L44.683,4.76
			l-0.447-0.28l-0.28-0.446l-0.111-0.503 M46.53,0.175v3.356 M147.893,0.175H46.53 M147.893,3.531V0.175 M150.579,3.531
			l-0.094,0.503l-0.298,0.446l-0.431,0.28l-0.522,0.112l-0.503-0.112l-0.446-0.28l-0.281-0.446l-0.111-0.503 M150.579,0.175v3.356
			 M251.942,0.175H150.579 M251.942,3.531V0.175 M266.71,0.175h-12.085 M254.625,3.531l-0.094,0.503l-0.298,0.446l-0.426,0.28
			l-0.525,0.112L252.78,4.76l-0.446-0.28l-0.28-0.446l-0.111-0.503 M254.625,0.175v3.356 M41.16,18.665v3.262 M41.16,58.927v3.262
			 M41.16,99.191v3.262 M40.359,18.665v3.262 M40.359,58.927v3.262 M40.359,99.191v3.262 M258.132,18.665v3.262 M258.132,58.927
			v3.262 M258.132,99.191v3.262 M257.312,18.665v3.262 M257.312,58.927v3.262 M257.312,99.191v3.262"/>
	</g>
</g>
</svg>
