<?xml version="1.0" encoding="utf-8"?>
<!-- Generator: Adobe Illustrator 15.0.2, SVG Export Plug-In . SVG Version: 6.00 Build 0)  -->
<!DOCTYPE svg PUBLIC "-//W3C//DTD SVG 1.1//EN" "http://www.w3.org/Graphics/SVG/1.1/DTD/svg11.dtd">
<svg version="1.1" id="Layer_1" xmlns="http://www.w3.org/2000/svg" xmlns:xlink="http://www.w3.org/1999/xlink" x="0px" y="0px"
	 width="291.433px" height="160.373px" viewBox="0 0 291.433 160.373" enable-background="new 0 0 291.433 160.373"
	 xml:space="preserve">
<g>
	<g>
		
			<path fill="none" stroke="#245684" stroke-width="0.539" stroke-linecap="round" stroke-linejoin="round" stroke-miterlimit="10" d="
			M284.884,73.793h-3.314 M281.569,78.933h3.314 M281.569,73.793h-0.032l-0.015,0.02h-0.019l-0.015,0.015l-0.016,0.015l-0.016,0.033
			v0.015v0.018 M281.458,78.822v0.015v0.03l0.016,0.019l0.016,0.016l0.015,0.015l0.019,0.015h0.015h0.032 M281.458,74.113v0.016
			l-0.015,0.03l-0.019,0.016v0.018l-0.03,0.015l-0.017,0.017h-0.015h-0.033 M281.33,78.506h0.033l0.015,0.015h0.017l0.03,0.015
			v0.015l0.019,0.033l0.015,0.017v0.014 M280.887,78.506h0.443 M281.33,74.225h-0.443 M30.688,78.933h0.032h0.015l0.015-0.015
			l0.033-0.015v-0.016l0.015-0.019l0.017-0.03v-0.015 M30.814,73.908v-0.018l-0.017-0.015l-0.015-0.033v-0.015l-0.033-0.015h-0.015
			l-0.015-0.02h-0.032 M27.388,78.933h3.3 M30.688,73.793h-3.3 M30.814,78.615v-0.014v-0.017l0.015-0.033l0.015-0.015l0.019-0.015
			h0.015l0.016-0.015h0.03 M30.924,74.225h-0.03h-0.016l-0.015-0.017l-0.019-0.015l-0.015-0.018l-0.015-0.016v-0.03v-0.016
			 M30.924,78.506h0.462 M31.386,74.225h-0.462 M284.884,81.676h-3.314 M281.569,81.676h-0.032h-0.015l-0.019,0.016l-0.015,0.014
			l-0.016,0.018l-0.016,0.018v0.03v0.015 M281.458,81.994v0.018l-0.015,0.03l-0.019,0.016v0.015l-0.03,0.019h-0.017l-0.015,0.015
			h-0.033 M281.33,82.105h-0.443 M30.688,81.676h-3.3 M30.814,81.787v-0.015l-0.017-0.03l-0.015-0.018v-0.018l-0.033-0.014
			l-0.015-0.016H30.72h-0.032 M30.924,82.105h-0.03l-0.016-0.015h-0.015l-0.019-0.019l-0.015-0.015l-0.015-0.016v-0.03v-0.018
			 M31.386,82.105h-0.462 M281.569,85.958h-0.032h-0.015l-0.019,0.015l-0.015,0.018l-0.016,0.015l-0.016,0.015v0.035v0.015
			 M281.458,90.985V91v0.017l0.016,0.031l0.016,0.015l0.015,0.018h0.019l0.015,0.015h0.032 M284.884,85.958h-3.314 M281.569,91.095
			h3.314 M281.458,86.274v0.015l-0.015,0.014l-0.019,0.036v0.015l-0.03,0.015h-0.017l-0.015,0.015h-0.033 M281.33,90.669h0.033
			h0.015l0.017,0.015l0.03,0.016v0.014l0.019,0.017l0.015,0.033v0.016 M280.887,90.669h0.443 M281.33,86.385h-0.443 M27.388,91.095
			h3.3 M30.688,85.958h-3.3 M30.688,91.095h0.032l0.015-0.015h0.015l0.033-0.018v-0.015l0.015-0.031L30.814,91v-0.015 M30.814,86.07
			v-0.015l-0.017-0.035l-0.015-0.015v-0.015l-0.033-0.018l-0.015-0.015H30.72h-0.032 M30.814,90.778v-0.016V90.73l0.015-0.017
			l0.015-0.014l0.019-0.016l0.015-0.015h0.016h0.03 M30.924,86.385h-0.03l-0.016-0.015h-0.015l-0.019-0.015L30.83,86.34
			l-0.015-0.036V86.29v-0.015 M30.924,90.669h0.462 M31.386,86.385h-0.462 M281.569,9.575h-0.032l-0.015,0.018h-0.019l-0.015,0.015
			l-0.016,0.017l-0.016,0.031V9.67v0.018 M284.884,9.575h-3.314 M281.458,9.895v0.015l-0.015,0.033l-0.019,0.015v0.015l-0.03,0.017
			l-0.017,0.015h-0.015h-0.033 M281.33,10.004h-0.443 M31.386,10.004h-2.285 M284.884,13.859h-3.314 M281.569,18.996h3.314
			 M281.569,13.859h-0.032l-0.015,0.015h-0.019l-0.015,0.015l-0.016,0.018l-0.016,0.032v0.016v0.015 M281.458,18.884v0.015v0.034
			l0.016,0.015l0.016,0.016l0.015,0.015l0.019,0.017h0.015h0.032 M281.458,14.175v0.016l-0.015,0.031l-0.019,0.018v0.013
			l-0.03,0.017l-0.017,0.015h-0.015h-0.033 M281.33,18.567h0.033l0.015,0.017h0.017l0.03,0.016v0.015l0.019,0.032l0.015,0.017v0.016
			 M280.887,18.567h0.443 M281.33,14.285h-0.443 M29.102,18.567h2.285 M31.386,14.285h-2.285 M29.245,142.042h-0.144
			 M281.569,145.895h-0.032h-0.015l-0.019,0.015l-0.015,0.017l-0.016,0.017l-0.016,0.015v0.031v0.015 M281.458,150.922v0.016v0.014
			l0.016,0.036l0.016,0.015l0.015,0.015h0.019l0.015,0.017h0.032 M284.884,145.895h-3.314 M281.569,151.035h3.314 M281.458,146.214
			v0.015l-0.015,0.03l-0.019,0.018v0.016l-0.03,0.017h-0.017l-0.015,0.014h-0.033 M281.33,150.605h0.033h0.015l0.017,0.018
			l0.03,0.015v0.015l0.019,0.015l0.015,0.033v0.018 M280.887,150.605h0.443 M281.33,146.324h-0.443 M29.102,150.605h2.285
			 M31.386,146.324h-2.285 M281.458,94.52l-0.015,0.078l-0.034,0.08l-0.046,0.08l-0.048,0.066l-0.08,0.045l-0.063,0.049
			l-0.095,0.015l-0.078,0.015 M280.999,99.229h0.078l0.095,0.031l0.063,0.035l0.08,0.06l0.048,0.066l0.046,0.064l0.034,0.094
			l0.015,0.081 M284.884,94.52h-3.426 M281.458,99.659h3.426 M280.999,94.946h-0.111 M280.887,99.229h0.111 M31.386,94.946h-2.141
			 M29.245,99.229h2.141 M29.245,103.511l-0.603-0.097l-0.557-0.235l-0.459-0.414l-0.333-0.506l-0.174-0.589v-0.601l0.174-0.589
			l0.333-0.504l0.459-0.415l0.557-0.252l0.603-0.081 M29.245,94.946l-1.016,0.081l-0.967,0.239l-0.937,0.379l-0.855,0.526
			l-0.777,0.663l-0.651,0.762l-0.524,0.855l-0.396,0.938l-0.222,0.981l-0.08,1 M22.821,101.371l0.08,0.997l0.222,0.985l0.396,0.936
			l0.524,0.854l0.651,0.76l0.777,0.668l0.855,0.522l0.937,0.379l0.967,0.24l1.016,0.08 M31.386,103.511h-2.141 M29.245,107.793
			h2.141 M284.884,103.083h-3.426 M281.458,108.222h3.426 M281.458,103.083l-0.015,0.079l-0.034,0.078l-0.046,0.08l-0.048,0.064
			l-0.08,0.049l-0.063,0.046l-0.095,0.015l-0.078,0.017 M280.999,107.793h0.078l0.095,0.032l0.063,0.032l0.08,0.06l0.048,0.065
			l0.046,0.063l0.034,0.095l0.015,0.081 M280.999,103.511h-0.111 M280.887,107.793h0.111 M281.458,111.645l-0.015,0.082
			l-0.034,0.078l-0.046,0.079l-0.048,0.064l-0.08,0.05l-0.063,0.045l-0.095,0.015l-0.078,0.02 M280.999,116.354h0.078l0.095,0.033
			l0.063,0.033l0.08,0.062l0.048,0.062l0.046,0.065l0.034,0.094l0.015,0.081 M284.884,111.645h-3.426 M281.458,116.784h3.426
			 M280.999,112.076h-0.111 M280.887,116.354h0.111 M31.386,112.076h-2.141 M29.245,116.354h2.141 M29.245,120.638l-0.603-0.095
			l-0.557-0.239l-0.459-0.414l-0.333-0.506l-0.174-0.586v-0.601l0.174-0.587l0.333-0.509l0.459-0.411l0.557-0.255l0.603-0.08
			 M29.245,112.076l-1.016,0.078l-0.967,0.237l-0.937,0.381l-0.855,0.523l-0.777,0.664l-0.651,0.762l-0.524,0.857l-0.396,0.936
			l-0.222,0.981l-0.08,1 M22.821,118.495l0.08,0.998l0.222,0.984l0.396,0.937l0.524,0.855l0.651,0.761l0.777,0.667l0.855,0.523
			l0.937,0.38l0.967,0.237l1.016,0.079 M31.386,120.638h-2.141 M29.245,124.917h2.141 M281.458,120.206l-0.015,0.082l-0.034,0.079
			l-0.046,0.081l-0.048,0.061l-0.08,0.05l-0.063,0.045l-0.095,0.015l-0.078,0.021 M280.999,124.917h0.078l0.095,0.033l0.063,0.032
			l0.08,0.064l0.048,0.063l0.046,0.062l0.034,0.095l0.015,0.08 M284.884,120.206h-3.426 M281.458,125.346h3.426 M280.999,120.638
			h-0.111 M280.887,124.917h0.111 M27.388,90.937l-0.125,0.048l-0.937,0.379l-0.855,0.524l-0.777,0.667l-0.651,0.76l-0.524,0.856
			l-0.396,0.936L22.9,96.09l-0.08,1l0.08,0.999l0.222,0.983l0.063,0.159 M29.245,107.793l-1.016,0.079l-0.967,0.238l-0.937,0.381
			l-0.855,0.521l-0.777,0.667l-0.651,0.762l-0.524,0.855l-0.396,0.934l-0.222,0.986l-0.08,0.998l0.08,1.001l0.222,0.98l0.063,0.159
			 M281.458,22.42l-0.015,0.08l-0.034,0.095l-0.046,0.062l-0.048,0.062l-0.08,0.065l-0.063,0.031l-0.095,0.03h-0.078
			 M280.999,27.129l0.078,0.017l0.095,0.015l0.063,0.046l0.08,0.049l0.048,0.063l0.046,0.081l0.034,0.078l0.015,0.081
			 M284.884,22.42h-3.426 M281.458,27.56h3.426 M280.999,22.847h-0.111 M280.887,27.129h0.111 M31.386,22.847h-2.141 M29.245,27.129
			h2.141 M29.245,31.41l-0.603-0.078l-0.557-0.254l-0.459-0.397l-0.333-0.521l-0.174-0.589V28.97l0.174-0.587l0.333-0.509
			l0.459-0.396l0.557-0.252l0.603-0.097 M29.245,22.847l-1.016,0.081l-0.967,0.239l-0.937,0.379l-0.855,0.523l-0.777,0.666
			l-0.651,0.759l-0.524,0.855l-0.396,0.938L22.9,28.271l-0.08,0.999 M22.821,29.27l0.08,1.014l0.222,0.968l0.396,0.935l0.524,0.857
			l0.651,0.778l0.777,0.648l0.855,0.524l0.937,0.381l0.967,0.238l1.016,0.08 M31.386,31.41h-2.141 M29.245,35.694h2.141
			 M284.884,30.983h-3.426 M281.458,36.122h3.426 M281.458,30.983l-0.015,0.08l-0.034,0.095l-0.046,0.062l-0.048,0.065l-0.08,0.064
			l-0.063,0.03l-0.095,0.03h-0.078 M280.999,35.694l0.078,0.014l0.095,0.016l0.063,0.049l0.08,0.045l0.048,0.066l0.046,0.08
			l0.034,0.08l0.015,0.08 M280.999,31.41h-0.111 M280.887,35.694h0.111 M284.884,39.546h-3.426 M281.458,44.684h3.426
			 M281.458,39.546l-0.015,0.079l-0.034,0.095l-0.046,0.065l-0.048,0.062l-0.08,0.064l-0.063,0.03l-0.095,0.032h-0.078
			 M280.999,44.256l0.078,0.014l0.095,0.015l0.063,0.051l0.08,0.045l0.048,0.064l0.046,0.079l0.034,0.079l0.015,0.08
			 M280.999,39.974h-0.111 M280.887,44.256h0.111 M29.245,48.537l-0.603-0.078l-0.557-0.256l-0.459-0.395l-0.333-0.523l-0.174-0.587
			v-0.604l0.174-0.586l0.333-0.509l0.459-0.395l0.557-0.253l0.603-0.095 M29.245,39.974l-1.016,0.078l-0.967,0.24l-0.937,0.379
			l-0.855,0.524l-0.777,0.666l-0.651,0.761l-0.524,0.858l-0.396,0.933L22.9,45.397l-0.08,0.996 M22.821,46.394l0.08,1.015
			l0.222,0.968l0.396,0.935l0.524,0.855l0.651,0.78l0.777,0.648l0.855,0.526l0.937,0.38l0.967,0.236l1.016,0.08 M31.386,48.537
			h-2.141 M29.245,52.817h2.141 M31.386,39.974h-2.141 M29.245,44.256h2.141 M284.884,48.107h-3.426 M281.458,53.246h3.426
			 M281.458,48.107l-0.015,0.08l-0.034,0.095l-0.046,0.064l-0.048,0.063l-0.08,0.064l-0.063,0.03l-0.095,0.033h-0.078
			 M280.999,52.817l0.078,0.015l0.095,0.018l0.063,0.047l0.08,0.047l0.048,0.063l0.046,0.08l0.034,0.08l0.015,0.079 M280.999,48.537
			h-0.111 M280.887,52.817h0.111 M29.245,18.567h-0.144 M26.294,19.282l-0.823,0.506l-0.777,0.664l-0.651,0.764l-0.524,0.855
			l-0.396,0.937L22.9,23.99l-0.08,1l0.08,1.016l0.222,0.965l0.063,0.158 M29.245,35.694l-1.016,0.079l-0.967,0.236l-0.937,0.383
			l-0.855,0.521l-0.777,0.667l-0.651,0.76l-0.524,0.856l-0.396,0.936L22.9,41.114l-0.08,1.001l0.08,1.015l0.222,0.966l0.063,0.16
			 M29.245,52.817l-1.016,0.08l-0.967,0.237l-0.937,0.381l-0.855,0.522l-0.777,0.668l-0.651,0.761l-0.524,0.855l-0.396,0.936
			L22.9,58.24l-0.08,0.999l0.08,1.015l0.222,0.967l0.063,0.159 M284.884,56.67h-3.426 M281.458,61.808h3.426 M281.458,56.67
			l-0.015,0.096l-0.034,0.079l-0.046,0.065l-0.048,0.062l-0.08,0.064l-0.063,0.031l-0.095,0.032h-0.078 M280.999,61.38l0.078,0.017
			l0.095,0.015l0.063,0.048l0.08,0.047l0.048,0.062l0.046,0.081l0.034,0.079l0.015,0.08 M280.999,57.098h-0.111 M280.887,61.38
			h0.111 M31.386,57.098h-2.141 M29.245,61.38h2.141 M31.386,65.66h-2.141 M29.245,69.941h2.141 M29.245,65.66l-0.603-0.077
			l-0.557-0.255l-0.459-0.396l-0.333-0.524l-0.174-0.586v-0.604l0.174-0.583l0.333-0.511l0.459-0.395l0.557-0.254l0.603-0.095
			 M29.245,57.098l-1.016,0.081l-0.967,0.236l-0.937,0.38l-0.855,0.524l-0.777,0.666l-0.651,0.764l-0.524,0.856l-0.396,0.935
			L22.9,62.522l-0.08,1.001 M22.821,63.523l0.08,1.012l0.222,0.968l0.396,0.935l0.524,0.855l0.651,0.777l0.777,0.65l0.855,0.524
			l0.937,0.38l0.967,0.239l1.016,0.077 M284.884,65.232h-3.426 M281.458,70.37h3.426 M281.458,65.232l-0.015,0.082l-0.034,0.095
			l-0.046,0.062l-0.048,0.064l-0.08,0.063l-0.063,0.031l-0.095,0.03h-0.078 M280.999,69.941l0.078,0.018l0.095,0.015l0.063,0.047
			l0.08,0.049l0.048,0.06l0.046,0.081l0.034,0.08l0.015,0.079 M280.999,65.66h-0.111 M280.887,69.941h0.111 M29.245,124.917
			l-1.016,0.08l-0.967,0.24l-0.937,0.378l-0.855,0.521l-0.777,0.669l-0.651,0.761l-0.524,0.855l-0.396,0.935L22.9,130.34
			l-0.08,0.998l0.08,1l0.222,0.983l0.063,0.158 M284.884,128.771h-3.426 M281.458,133.908h3.426 M281.458,128.771l-0.015,0.08
			l-0.034,0.078l-0.046,0.082l-0.048,0.06l-0.08,0.049l-0.063,0.045l-0.095,0.019l-0.078,0.015 M280.999,133.479h0.078l0.095,0.034
			l0.063,0.03l0.08,0.065l0.048,0.062l0.046,0.063l0.034,0.093l0.015,0.081 M280.999,129.199h-0.111 M280.887,133.479h0.111
			 M31.386,129.199h-2.141 M29.245,133.479h2.141 M29.245,137.762l-0.603-0.095l-0.557-0.24l-0.459-0.411l-0.333-0.509l-0.174-0.583
			v-0.604l0.174-0.587l0.333-0.509l0.459-0.412l0.557-0.255l0.603-0.078 M29.245,129.199l-1.016,0.081l-0.967,0.234l-0.937,0.382
			l-0.855,0.524l-0.777,0.666l-0.651,0.76l-0.524,0.856l-0.396,0.936l-0.222,0.985l-0.08,0.999 M22.821,135.622l0.08,0.995
			l0.222,0.985l0.396,0.936l0.524,0.858l0.651,0.758l0.777,0.667l0.855,0.524l0.937,0.381l0.967,0.237l1.016,0.078 M31.386,137.762
			h-2.141 M29.245,142.042h2.141 M284.884,137.333h-3.426 M281.458,142.47h3.426 M281.458,137.333l-0.015,0.079l-0.034,0.08
			l-0.046,0.08l-0.048,0.06l-0.08,0.049l-0.063,0.046l-0.095,0.019l-0.078,0.016 M280.999,142.042h0.078l0.095,0.033l0.063,0.031
			l0.08,0.064l0.048,0.063l0.046,0.062l0.034,0.094l0.015,0.08 M280.999,137.762h-0.111 M280.887,142.042h0.111 M279.507,133.527
			h0.095 M4.153,11.432l-0.221-0.176l-0.254-0.141l-0.271-0.08l-0.285-0.031l-0.285,0.031l-0.269,0.08l-0.254,0.141l-0.223,0.176
			 M2.092,17.139l0.223,0.189l0.254,0.13l0.269,0.095l0.285,0.03l0.285-0.03l0.271-0.095l0.254-0.13l0.221-0.189 M0.27,17.139h1.823
			 M2.092,11.432H0.27 M4.153,17.139h7.818 M11.971,11.432H4.153 M4.153,143.47l-0.221-0.19l-0.254-0.129l-0.271-0.094l-0.285-0.015
			l-0.285,0.015l-0.269,0.094l-0.254,0.129l-0.223,0.19 M2.092,149.179l0.223,0.189l0.254,0.126l0.269,0.096l0.285,0.018
			l0.285-0.018l0.271-0.096l0.254-0.126l0.221-0.189 M0.27,149.179h1.823 M2.092,143.47H0.27 M4.153,149.179h7.818 M11.971,143.47
			H4.153 M20.377,149.258l0.413,0.397l0.652,0.458l0.776,0.415l0.872,0.329l0.952,0.24l0.967,0.16l0.935,0.062h0.302 M26.246,141.33
			l-0.556,0.015l-0.981,0.095l-0.968,0.174l-0.934,0.271L21.9,142.28l-0.762,0.444l-0.632,0.506l-0.143,0.16 M26.246,145.611h-0.271
			l-0.523-0.065l-0.459-0.077l-0.333-0.113l-0.19-0.077l-0.079-0.049 M26.246,151.319h2.855 M29.102,145.611h-2.855 M20.188,149.179
			L20.188,149.179l0.063,0.015l0.111,0.08 M11.971,149.75h5.71 M17.682,142.899h-5.71 M17.682,149.75h0.049l0.063-0.017l0.048-0.03
			l0.03-0.032l0.049-0.048l0.016-0.05l0.014-0.06l0.016-0.05 M17.967,143.186l-0.016-0.065l-0.014-0.047l-0.016-0.047l-0.049-0.048
			l-0.03-0.032l-0.048-0.03l-0.063-0.017h-0.049 M17.967,149.463V149.4l0.016-0.047l0.033-0.05l0.031-0.044l0.048-0.033l0.046-0.032
			l0.049-0.015h0.062 M18.252,143.47H18.19l-0.049-0.015l-0.046-0.035l-0.048-0.03l-0.031-0.047l-0.033-0.047l-0.016-0.065v-0.045
			 M18.252,149.179h1.951 M20.221,143.47h-1.968 M20.363,143.375l-0.031,0.03l-0.111,0.064h-0.033 M26.294,141.33h-0.048
			 M20.377,17.234l0.413,0.379l0.652,0.479l0.776,0.394l0.872,0.333l0.952,0.237l0.967,0.159l0.935,0.065h0.302 M26.246,9.291
			L25.69,9.307L24.708,9.4L23.74,9.575l-0.934,0.287l-0.906,0.38l-0.762,0.443l-0.632,0.509l-0.143,0.158 M26.246,13.575h-0.271
			l-0.523-0.05l-0.459-0.094l-0.333-0.11l-0.19-0.081l-0.079-0.049 M26.246,19.282h2.855 M29.102,13.575h-2.855 M20.188,17.139
			L20.188,17.139l0.063,0.032l0.111,0.063 M17.682,17.713h0.049l0.063-0.019l0.048-0.03l0.03-0.032l0.049-0.047l0.016-0.045
			l0.014-0.049l0.016-0.065 M17.967,11.147l-0.016-0.048l-0.014-0.064l-0.016-0.048l-0.049-0.047l-0.03-0.03l-0.048-0.019
			l-0.063-0.031h-0.049 M11.971,17.713h5.71 M17.682,10.86h-5.71 M17.967,17.424v-0.045l0.016-0.065l0.033-0.046l0.031-0.047
			l0.048-0.033l0.046-0.015l0.049-0.032h0.062 M18.252,11.432H18.19l-0.049-0.015l-0.046-0.033l-0.048-0.032l-0.031-0.048
			l-0.033-0.048l-0.016-0.046v-0.062 M18.252,17.139h1.951 M20.221,11.432h-1.968 M20.363,11.352l-0.031,0.017l-0.111,0.063h-0.033
			 M29.102,9.291h-2.855 M21.108,84.247l0.08,0.998l0.22,0.985l0.398,0.934l0.523,0.855l0.649,0.762l0.779,0.666l0.857,0.523
			l0.935,0.379l0.966,0.24l0.873,0.081 M27.388,86.385l-0.284-0.045l-0.397-0.11l-0.364-0.209l-0.333-0.27l-0.27-0.317l-0.19-0.364
			l-0.127-0.414l-0.032-0.41 M25.39,84.247v-3.6 M21.108,80.647v3.6 M27.388,74.225l-0.873,0.078l-0.966,0.237l-0.935,0.385
			l-0.857,0.521l-0.779,0.665l-0.649,0.763l-0.523,0.856l-0.398,0.935l-0.22,0.983l-0.08,1 M25.39,80.647l0.032-0.415l0.127-0.412
			l0.19-0.364l0.27-0.319l0.333-0.27l0.364-0.204l0.397-0.113l0.284-0.045 M21.108,79.963v0.349 M27.388,82.105l-0.284-0.049
			l-0.397-0.11l-0.364-0.204l-0.333-0.27l-0.27-0.319l-0.19-0.368l-0.127-0.408l-0.017-0.065 M21.108,76.364v3.6 M27.388,69.941
			l-0.873,0.08l-0.966,0.24l-0.935,0.377l-0.857,0.524l-0.779,0.667l-0.649,0.761l-0.523,0.858l-0.398,0.933l-0.22,0.983
			l-0.08,0.999 M284.884,18.567l0.459,0.096l0.556,0.252l0.458,0.397l0.319,0.506l0.171,0.588v0.602l-0.171,0.587l-0.319,0.521
			l-0.458,0.399l-0.556,0.255l-0.459,0.076 M284.884,27.129l0.854-0.078l0.985-0.239l0.936-0.379l0.856-0.524l0.761-0.649
			l0.651-0.777l0.539-0.856l0.379-0.936l0.237-0.968l0.081-1.016l-0.081-0.998l-0.237-0.983l-0.379-0.937l-0.539-0.857l-0.651-0.758
			l-0.761-0.667l-0.856-0.523l-0.936-0.38l-0.985-0.239l-0.854-0.08 M284.884,35.694l0.459,0.093l0.556,0.255l0.458,0.394
			l0.319,0.509l0.171,0.587v0.604l-0.171,0.586l-0.319,0.524l-0.458,0.395l-0.556,0.254l-0.459,0.079 M284.884,44.256l0.854-0.081
			l0.985-0.236l0.936-0.38l0.856-0.526l0.761-0.648l0.651-0.778l0.539-0.855l0.379-0.937l0.237-0.967l0.081-1.016l-0.081-0.998
			l-0.237-0.984l-0.379-0.933l-0.539-0.858l-0.651-0.76l-0.761-0.667l-0.856-0.524l-0.936-0.38l-0.985-0.239l-0.854-0.08
			 M284.884,52.817l0.459,0.095l0.556,0.255l0.458,0.394l0.319,0.509l0.171,0.586v0.604l-0.171,0.587l-0.319,0.523l-0.458,0.396
			l-0.556,0.255l-0.459,0.077 M284.884,61.38l0.854-0.081l0.985-0.237l0.936-0.379l0.856-0.524l0.761-0.651l0.651-0.775l0.539-0.856
			l0.379-0.937l0.237-0.966l0.081-1.018l-0.081-0.996l-0.237-0.985l-0.379-0.934l-0.539-0.856l-0.651-0.761l-0.761-0.667
			l-0.856-0.523l-0.936-0.379l-0.985-0.237l-0.854-0.08 M284.884,142.042l0.459,0.079l0.556,0.254l0.458,0.413l0.319,0.508
			l0.171,0.586v0.604l-0.171,0.585l-0.319,0.509l-0.458,0.411l-0.556,0.239l-0.459,0.095 M284.884,150.605l0.854-0.077l0.985-0.239
			l0.936-0.379l0.856-0.526l0.761-0.664l0.651-0.761l0.539-0.858l0.379-0.936l0.237-0.983l0.081-0.998l-0.081-0.998l-0.237-0.985
			l-0.379-0.936l-0.539-0.854l-0.651-0.763l-0.761-0.666l-0.856-0.524l-0.936-0.381l-0.985-0.235l-0.854-0.08 M290.798,18.567
			l0.047-0.158l0.237-0.966l0.081-1.015l-0.081-1l-0.237-0.982l-0.379-0.936l-0.539-0.855l-0.651-0.763l-0.761-0.666l-0.856-0.522
			l-0.936-0.382l-0.985-0.237l-0.854-0.08 M290.798,35.694l0.047-0.161l0.237-0.965l0.081-1.016l-0.081-1l-0.237-0.983l-0.379-0.936
			l-0.539-0.856l-0.651-0.763l-0.761-0.665l-0.856-0.521l-0.936-0.383l-0.985-0.238l-0.854-0.079 M290.798,52.817l0.047-0.16
			l0.237-0.965l0.081-1.017l-0.081-0.999l-0.237-0.982l-0.379-0.937l-0.539-0.856l-0.651-0.761l-0.761-0.666l-0.856-0.522
			l-0.936-0.381l-0.985-0.236l-0.854-0.08 M290.798,69.941l0.047-0.157l0.237-0.967l0.081-1.017l-0.081-0.997l-0.237-0.982
			l-0.379-0.936l-0.539-0.856l-0.651-0.76l-0.761-0.667l-0.856-0.525l-0.936-0.38l-0.985-0.237l-0.854-0.08 M284.884,69.941
			l0.459,0.095l0.556,0.255l0.458,0.398l0.319,0.506l0.171,0.584v0.604l-0.171,0.587l-0.319,0.523l-0.458,0.396l-0.556,0.254
			l-0.459,0.08 M284.884,78.506l0.854-0.08l0.985-0.237l0.936-0.382l0.856-0.523l0.761-0.65l0.651-0.776l0.539-0.855l0.379-0.935
			l0.237-0.969l0.081-1.013l-0.081-1.001l-0.237-0.982l-0.379-0.937l-0.539-0.855l-0.651-0.763l-0.761-0.664l-0.856-0.526
			l-0.936-0.379l-0.985-0.237l-0.854-0.08 M284.884,90.669l0.459,0.079L285.899,91l0.458,0.414l0.319,0.504l0.171,0.588v0.602
			l-0.171,0.588l-0.319,0.507l-0.458,0.414l-0.556,0.236l-0.459,0.093 M284.884,99.229l0.854-0.078l0.985-0.24l0.936-0.379
			l0.856-0.521l0.761-0.668l0.651-0.761l0.539-0.856l0.379-0.933l0.237-0.986l0.081-0.997l-0.081-1.002l-0.237-0.982l-0.379-0.936
			l-0.539-0.855l-0.651-0.761l-0.761-0.665l-0.856-0.525l-0.936-0.38l-0.985-0.239l-0.854-0.08 M284.884,107.793l0.459,0.079
			l0.556,0.254l0.458,0.413l0.319,0.508l0.171,0.584v0.601l-0.171,0.588l-0.319,0.508l-0.458,0.414l-0.556,0.235l-0.459,0.099
			 M284.884,116.354l0.854-0.08l0.985-0.236l0.936-0.382l0.856-0.521l0.761-0.667l0.651-0.76l0.539-0.856l0.379-0.936l0.237-0.985
			l0.081-0.998l-0.081-1l-0.237-0.98l-0.379-0.938l-0.539-0.856l-0.651-0.76l-0.761-0.665l-0.856-0.526l-0.936-0.379l-0.985-0.239
			l-0.854-0.078 M284.884,124.917l0.459,0.08l0.556,0.255l0.458,0.411l0.319,0.509l0.171,0.586v0.601l-0.171,0.587l-0.319,0.509
			l-0.458,0.411l-0.556,0.239l-0.459,0.094 M284.884,133.479l0.854-0.08l0.985-0.235l0.936-0.381l0.856-0.524l0.761-0.667
			l0.651-0.761l0.539-0.856l0.379-0.935l0.237-0.983l0.081-1.001l-0.081-0.996l-0.237-0.985l-0.379-0.936l-0.539-0.858l-0.651-0.758
			l-0.761-0.666l-0.856-0.524l-0.936-0.381l-0.985-0.237l-0.854-0.077 M290.798,90.669l0.047-0.16l0.237-0.983l0.081-1l-0.081-0.998
			l-0.237-0.983l-0.379-0.936l-0.539-0.858l-0.651-0.76l-0.761-0.665l-0.856-0.523l-0.936-0.379l-0.985-0.237l-0.854-0.08
			 M290.798,107.793l0.047-0.16l0.237-0.981l0.081-0.999l-0.081-0.998l-0.237-0.985l-0.379-0.934l-0.539-0.856l-0.651-0.763
			l-0.761-0.667l-0.856-0.524l-0.936-0.379l-0.985-0.237l-0.854-0.081 M290.798,142.042l0.047-0.156l0.237-0.984l0.081-0.999
			l-0.081-1l-0.237-0.98l-0.379-0.938l-0.539-0.855l-0.651-0.761l-0.761-0.666l-0.856-0.525l-0.936-0.379l-0.985-0.24l-0.854-0.078
			 M290.798,124.917l0.047-0.159l0.237-0.981l0.081-1l-0.081-0.997l-0.237-0.985l-0.379-0.933l-0.539-0.856l-0.651-0.761
			l-0.761-0.669l-0.856-0.521l-0.936-0.382l-0.985-0.237l-0.854-0.08 M284.884,70.37v0.285v0.572v0.634v0.651v0.604v0.554v0.125
			 M281.458,73.908v-0.032V73.37V72.78v-0.633v-0.636v-0.602V70.4v-0.03 M30.814,72.78v0.589v0.506v0.032 M30.814,69.941v0.048V70.4
			v0.509v0.602v0.636v0.633 M27.388,69.674v0.125v0.367v0.489v0.572v0.634v0.651v0.604v0.554v0.125 M284.884,73.793v0.065v0.223
			v0.365v0.493v0.568v0.636v0.649v0.602v0.553v0.462v0.319v0.175v0.03 M281.458,78.822v-0.064v-0.237v-0.364v-0.509v-0.587v-0.634
			v-0.634v-0.602v-0.509V74.27v-0.252v-0.109 M30.814,77.062v0.587v0.509v0.364v0.237v0.064 M30.814,73.908L30.814,73.908v0.109
			v0.252v0.414v0.509v0.602v0.634v0.634 M27.388,73.793v0.065v0.223v0.365v0.493v0.568v0.636v0.649v0.602v0.553v0.462v0.319v0.175
			v0.03 M284.884,81.676v0.066v0.219v0.365v0.491v0.574v0.632v0.633v0.618v0.557v0.127 M281.458,86.07v-0.05v-0.492v-0.584V84.31
			v-0.634v-0.604v-0.506V82.15v-0.252v-0.11 M27.388,81.676v0.066v0.219v0.365v0.491v0.574v0.632v0.633v0.618v0.557v0.127
			 M30.814,84.944v0.584v0.492v0.05 M30.814,81.787L30.814,81.787v0.11v0.252v0.416v0.506v0.604v0.634v0.635 M281.458,90.985v-0.063
			v-0.239v-0.38V89.81v-0.585v-0.635v-0.635v-0.6v-0.509v-0.411v-0.254v-0.11 M284.884,85.958v0.062v0.224v0.365v0.491v0.568v0.636
			v0.634v0.618v0.554v0.462v0.314v0.175v0.032 M27.388,85.958v0.062v0.224v0.365v0.491v0.568v0.636v0.634v0.618v0.554v0.462v0.314
			v0.175v0.032 M30.814,89.224v0.585v0.494v0.38v0.239v0.063 M30.814,86.07L30.814,86.07v0.11v0.254v0.411v0.509v0.6v0.635v0.635
			 M281.458,13.969v-0.063V13.4v-0.588v-0.636v-0.634v-0.602v-0.508v-0.394V9.783V9.688 M284.884,9.575v0.018V9.75v0.302v0.445
			v0.539v0.601v0.653v0.632v0.588v0.35 M284.884,18.663v0.252v0.08 M284.884,13.859v0.015v0.159v0.299v0.447v0.54v0.6v0.649v0.633
			v0.587v0.493v0.381 M281.458,18.567v-0.38v-0.509v-0.586v-0.634v-0.634v-0.603v-0.506v-0.397v-0.254v-0.094 M281.458,18.884
			v-0.081v-0.236 M284.884,142.47v0.065v0.538v0.602v0.651v0.634v0.586v0.349 M281.458,146.005v-0.061v-0.509v-0.586v-0.635v-0.634
			v-0.602v-0.509 M281.458,150.605v-0.381v-0.506v-0.588v-0.633v-0.633v-0.604v-0.506v-0.399V146.1v-0.095 M281.458,150.922v-0.08
			v-0.237 M284.884,150.7v0.251v0.083 M284.884,145.895v0.015v0.16v0.299v0.446v0.54v0.604v0.649v0.636v0.583v0.492v0.381
			 M281.458,94.52v0.078v0.239v0.379v0.493v0.586v0.634v0.636v0.616v0.539v0.445v0.319v0.158v0.017 M284.884,94.52v0.078v0.239
			v0.379v0.493v0.586v0.634v0.636v0.616v0.539v0.445v0.319v0.158v0.017 M32.701,97.786V98.2v0.238 M284.884,103.083v0.079v0.236
			v0.382v0.492v0.586v0.633v0.636v0.619v0.538v0.443v0.318v0.159v0.017 M281.458,103.083v0.079v0.236v0.382v0.492v0.586v0.633v0.636
			v0.619v0.538v0.443v0.318v0.159v0.017 M281.458,111.645v0.082v0.235v0.381v0.492v0.586v0.634v0.637v0.618v0.539v0.442v0.32v0.159
			v0.015 M284.884,111.645v0.082v0.235v0.381v0.492v0.586v0.634v0.637v0.618v0.539v0.442v0.32v0.159v0.015 M281.458,120.206v0.082
			v0.235v0.384v0.489v0.586v0.636v0.634v0.619v0.539v0.442v0.319v0.16v0.015 M284.884,120.206v0.082v0.235v0.384v0.489v0.586v0.636
			v0.634v0.619v0.539v0.442v0.319v0.16v0.015 M281.458,90.985v0.443v0.586v0.634v0.634v0.619v0.539v0.08 M284.884,91.095v0.333
			v0.586v0.634v0.634v0.619v0.539v0.08 M284.884,99.659v0.332v0.584v0.636v0.633v0.619v0.542v0.078 M281.458,99.659v0.332v0.584
			v0.636v0.633v0.619v0.542v0.078 M284.884,108.222v0.332v0.589v0.63v0.634v0.621v0.54v0.078 M281.458,108.222v0.332v0.589v0.63
			v0.634v0.621v0.54v0.078 M281.458,116.784v0.333v0.588v0.634v0.631v0.622v0.539v0.077 M284.884,116.784v0.333v0.588v0.634v0.631
			v0.622v0.539v0.077 M281.458,22.42v0.08v0.237v0.38v0.494v0.585v0.634v0.634v0.619v0.537v0.445v0.32v0.155v0.019 M284.884,22.42
			v0.08v0.237v0.38v0.494v0.585v0.634v0.634v0.619v0.537v0.445v0.32v0.155v0.019 M32.701,26.433v0.127v0.332v0.19 M284.884,30.983
			v0.08V31.3v0.379v0.493v0.587v0.633v0.649v0.604v0.541v0.442v0.318v0.16v0.015 M281.458,30.983v0.08V31.3v0.379v0.493v0.587v0.633
			v0.649v0.604v0.541v0.442v0.318v0.16v0.015 M284.884,39.546v0.079v0.237v0.38v0.494v0.585v0.634v0.649v0.605v0.54v0.442v0.32
			v0.159v0.014 M281.458,39.546v0.079v0.237v0.38v0.494v0.585v0.634v0.649v0.605v0.54v0.442v0.32v0.159v0.014 M284.884,48.107v0.08
			v0.237v0.381v0.491v0.586v0.633v0.651v0.604v0.539v0.443v0.317v0.159v0.016 M281.458,48.107v0.08v0.237v0.381v0.491v0.586v0.633
			v0.651v0.604v0.539v0.443v0.317v0.159v0.016 M284.884,18.996v0.332v0.586v0.634v0.636v0.618v0.539v0.08 M281.458,18.884v0.443
			v0.586v0.634v0.636v0.618v0.539v0.08 M281.458,27.56v0.331v0.588v0.631v0.654v0.601v0.539v0.08 M284.884,27.56v0.331v0.588v0.631
			v0.654v0.601v0.539v0.08 M284.884,36.122v0.33v0.588v0.634v0.651v0.602v0.538v0.081 M281.458,36.122v0.33v0.588v0.634v0.651v0.602
			v0.538v0.081 M281.458,44.684v0.33v0.589v0.632v0.651v0.602v0.539v0.08 M284.884,44.684v0.33v0.589v0.632v0.651v0.602v0.539v0.08
			 M281.458,53.246v0.331v0.588V54.8v0.649v0.601v0.542v0.078 M284.884,53.246v0.331v0.588V54.8v0.649v0.601v0.542v0.078
			 M32.701,62.712v-0.3v-0.349 M281.458,61.808v0.334v0.586v0.633v0.649v0.601v0.542v0.078 M284.884,61.808v0.334v0.586v0.633v0.649
			v0.601v0.542v0.078 M284.884,56.67v0.079v0.24v0.379v0.492v0.586v0.634v0.652v0.603v0.539v0.444v0.317v0.159v0.015 M281.458,56.67
			v0.079v0.24v0.379v0.492v0.586v0.634v0.652v0.603v0.539v0.444v0.317v0.159v0.015 M284.884,65.232v0.082v0.237v0.379v0.491v0.589
			v0.632v0.652v0.603v0.539v0.445v0.316v0.159v0.015 M281.458,65.232v0.082v0.237v0.379v0.491v0.589v0.632v0.652v0.603v0.539v0.445
			v0.316v0.159v0.015 M281.458,125.346v0.332v0.589v0.633v0.634v0.618v0.539v0.079 M284.884,125.346v0.332v0.589v0.633v0.634v0.618
			v0.539v0.079 M32.701,134.067v-0.017v-0.332v-0.191v-0.048 M281.458,133.908v0.335v0.586v0.633v0.634v0.619v0.539v0.08
			 M284.884,133.908v0.335v0.586v0.633v0.634v0.619v0.539v0.08 M281.458,128.771v0.08v0.235v0.384v0.491v0.584v0.636v0.634v0.618
			v0.539v0.444v0.317v0.159v0.015 M284.884,128.771v0.08v0.235v0.384v0.491v0.584v0.636v0.634v0.618v0.539v0.444v0.317v0.159v0.015
			 M284.884,137.333v0.079v0.238v0.381v0.491v0.587v0.634v0.633v0.619v0.539v0.447v0.315v0.159v0.015 M281.458,137.333v0.079v0.238
			v0.381v0.491v0.587v0.634v0.633v0.619v0.539v0.447v0.315v0.159v0.015 M279.507,26.336v0.035v0.408v0.272v0.125 M279.507,133.303
			v0.096v0.128 M279.507,133.527v0.03v0.27v0.335 M199.671,44.063l-0.383-0.062l-0.315-0.223l-0.223-0.316l-0.064-0.382l0.064-0.364
			l0.223-0.317l0.315-0.221l0.383-0.078l0.365,0.078l0.316,0.221l0.221,0.317l0.08,0.364l-0.08,0.382l-0.221,0.316l-0.316,0.223
			L199.671,44.063z M199.671,118.272l-0.383-0.062l-0.315-0.222l-0.223-0.319l-0.064-0.379l0.064-0.365l0.223-0.316l0.315-0.222
			l0.383-0.08l0.365,0.08l0.316,0.222l0.221,0.316l0.08,0.365l-0.08,0.379l-0.221,0.319l-0.316,0.222L199.671,118.272z
			 M278.824,25.956l0.3,0.065l0.27,0.174l0.176,0.254l0.061,0.314l-0.061,0.302l-0.176,0.27l-0.27,0.175l-0.3,0.064l-0.302-0.064
			l-0.269-0.175l-0.172-0.27l-0.064-0.302l0.064-0.314l0.172-0.254l0.269-0.174L278.824,25.956z M278.824,61.569l0.3,0.065
			l0.27,0.174l0.176,0.269l0.061,0.3l-0.061,0.319l-0.176,0.252l-0.27,0.175l-0.3,0.064l-0.302-0.064l-0.269-0.175l-0.172-0.252
			l-0.064-0.319l0.064-0.3l0.172-0.269l0.269-0.174L278.824,61.569z M278.824,97.311l0.3,0.062l0.27,0.178l0.176,0.249l0.061,0.32
			l-0.061,0.301l-0.176,0.269l-0.27,0.174l-0.3,0.063l-0.302-0.063l-0.269-0.174l-0.172-0.269l-0.064-0.301l0.064-0.32l0.172-0.249
			l0.269-0.178L278.824,97.311z M278.824,132.925l0.3,0.064l0.27,0.175l0.176,0.27l0.061,0.3l-0.061,0.317l-0.176,0.253l-0.27,0.174
			l-0.3,0.063l-0.302-0.063l-0.269-0.174l-0.172-0.253l-0.064-0.317l0.064-0.3l0.172-0.27l0.269-0.175L278.824,132.925z
			 M33.433,132.925l0.316,0.064l0.253,0.175l0.173,0.27l0.064,0.3l-0.064,0.317l-0.173,0.253l-0.253,0.174l-0.316,0.063
			l-0.304-0.063l-0.27-0.174l-0.174-0.253l-0.048-0.317l0.048-0.3l0.174-0.27l0.27-0.175L33.433,132.925z M33.433,97.311
			l0.316,0.062l0.253,0.178l0.173,0.249l0.064,0.32l-0.064,0.301l-0.173,0.269l-0.253,0.174l-0.316,0.063l-0.304-0.063l-0.27-0.174
			l-0.174-0.269l-0.048-0.301l0.048-0.32l0.174-0.249l0.27-0.178L33.433,97.311z M33.433,61.569l0.316,0.065l0.253,0.174
			l0.173,0.269l0.064,0.3l-0.064,0.319l-0.173,0.252l-0.253,0.175l-0.316,0.064l-0.304-0.064l-0.27-0.175l-0.174-0.252l-0.048-0.319
			l0.048-0.3l0.174-0.269l0.27-0.174L33.433,61.569z M33.433,25.956l0.316,0.065l0.253,0.174l0.173,0.254l0.064,0.314l-0.064,0.302
			l-0.173,0.27l-0.253,0.175l-0.316,0.064l-0.304-0.064l-0.27-0.175l-0.174-0.27l-0.048-0.302l0.048-0.314l0.174-0.254l0.27-0.174
			L33.433,25.956z M228.201,9.75h15.717 M228.201,76.428l-2.266-0.618l-2.221-0.776l-2.156-0.92l-2.11-1.078l-2.014-1.205
			l-1.92-1.349l-1.839-1.475l-1.728-1.584l-1.619-1.713l-1.49-1.822l-1.364-1.918l-1.222-2.014l-1.093-2.078l-0.936-2.158
			l-0.794-2.218l-0.634-2.251l-0.492-2.315l-0.316-2.331l-0.159-2.333v-2.363l0.159-2.347l0.316-2.328l0.492-2.301l0.634-2.269
			l0.794-2.203l0.936-2.156l1.093-2.094l1.222-1.999l1.364-1.918l1.49-1.823l1.619-1.712l1.728-1.604l1.839-1.475l1.92-1.33
			l2.014-1.221l2.11-1.063l2.156-0.918l2.221-0.778l2.266-0.619 M243.917,76.428h-15.717 M243.917,9.75l2.269,0.619l2.221,0.778
			l2.172,0.918l2.091,1.063l2.017,1.221l1.934,1.33l1.825,1.475l1.729,1.604l1.619,1.712l1.489,1.823l1.364,1.918l1.22,1.999
			l1.096,2.094l0.934,2.156l0.794,2.203l0.65,2.269l0.477,2.301l0.318,2.328l0.158,2.347v2.363l-0.158,2.333l-0.318,2.331
			l-0.477,2.315l-0.65,2.251l-0.794,2.218l-0.934,2.158l-1.096,2.078l-1.22,2.014l-1.364,1.918l-1.489,1.822l-1.619,1.713
			l-1.729,1.584l-1.825,1.475l-1.934,1.349l-2.017,1.205l-2.091,1.078l-2.172,0.92l-2.221,0.776l-2.269,0.618 M280.887,153.714
			V6.676 M31.386,6.676v147.038 M215.451,86.244l0.411,0.081l0.334,0.22l0.238,0.349l0.08,0.413l-0.08,0.414l-0.238,0.347
			l-0.334,0.222l-0.411,0.081l-0.413-0.081l-0.35-0.222l-0.222-0.347l-0.096-0.414l0.096-0.413l0.222-0.349l0.35-0.22
			L215.451,86.244z M215.451,146.214l0.411,0.096l0.334,0.22l0.238,0.349l0.08,0.412l-0.08,0.399l-0.238,0.349l-0.334,0.234
			l-0.411,0.081l-0.413-0.081l-0.35-0.234l-0.222-0.349l-0.096-0.399l0.096-0.412l0.222-0.349l0.35-0.22L215.451,146.214z
			 M256.684,146.214l0.397,0.096l0.35,0.22l0.239,0.349l0.079,0.412l-0.079,0.399l-0.239,0.349l-0.35,0.234l-0.397,0.081
			l-0.409-0.081l-0.351-0.234l-0.236-0.349l-0.082-0.399l0.082-0.412l0.236-0.349l0.351-0.22L256.684,146.214z M272.465,116.229
			l0.396,0.078l0.35,0.236l0.236,0.349l0.082,0.398l-0.082,0.414l-0.236,0.346l-0.35,0.237l-0.396,0.081l-0.413-0.081l-0.349-0.237
			l-0.237-0.346l-0.081-0.414l0.081-0.398l0.237-0.349l0.349-0.236L272.465,116.229z M256.684,86.244l0.397,0.081l0.35,0.22
			l0.239,0.349l0.079,0.413l-0.079,0.414l-0.239,0.347l-0.35,0.222l-0.397,0.081l-0.409-0.081l-0.351-0.222l-0.236-0.347
			l-0.082-0.414l0.082-0.413l0.236-0.349l0.351-0.22L256.684,86.244z M215.451,12.035l0.411,0.08l0.334,0.219l0.238,0.349
			l0.08,0.413l-0.08,0.413l-0.238,0.35l-0.334,0.222l-0.411,0.078l-0.413-0.078l-0.35-0.222l-0.222-0.35l-0.096-0.413l0.096-0.413
			l0.222-0.349l0.35-0.219L215.451,12.035z M215.451,72.004l0.411,0.096l0.334,0.221l0.238,0.347l0.08,0.414l-0.08,0.397
			l-0.238,0.349l-0.334,0.238l-0.411,0.079l-0.413-0.079l-0.35-0.238l-0.222-0.349l-0.096-0.397l0.096-0.414l0.222-0.347l0.35-0.221
			L215.451,72.004z M256.684,12.035l0.397,0.08l0.35,0.219l0.239,0.349l0.079,0.413l-0.079,0.413l-0.239,0.35l-0.35,0.222
			l-0.397,0.078l-0.409-0.078l-0.351-0.222l-0.236-0.35l-0.082-0.413l0.082-0.413l0.236-0.349l0.351-0.219L256.684,12.035z
			 M272.465,42.02l0.396,0.08l0.35,0.235l0.236,0.35l0.082,0.395l-0.082,0.414l-0.236,0.349l-0.35,0.238l-0.396,0.077l-0.413-0.077
			l-0.349-0.238l-0.237-0.349l-0.081-0.414l0.081-0.395l0.237-0.35l0.349-0.235L272.465,42.02z M256.684,72.004l0.397,0.096
			l0.35,0.221l0.239,0.347l0.079,0.414l-0.079,0.397l-0.239,0.349l-0.35,0.238l-0.397,0.079l-0.409-0.079l-0.351-0.238l-0.236-0.349
			l-0.082-0.397l0.082-0.414l0.236-0.347l0.351-0.221L256.684,72.004z M68.337,76.428L66.07,75.81l-2.22-0.776l-2.157-0.92
			l-2.109-1.078l-2.014-1.205l-1.919-1.349l-1.839-1.475l-1.729-1.584l-1.617-1.713l-1.49-1.822l-1.364-1.918l-1.223-2.014
			l-1.092-2.078l-0.937-2.158L43.563,53.5l-0.634-2.251l-0.491-2.315l-0.315-2.331l-0.16-2.333v-2.363l0.16-2.347l0.315-2.328
			l0.491-2.301l0.634-2.269l0.795-2.203l0.937-2.156l1.092-2.094l1.223-1.999l1.364-1.918l1.49-1.823l1.617-1.712l1.729-1.604
			l1.839-1.475l1.919-1.33l2.014-1.221l2.109-1.063l2.157-0.918l2.22-0.778l2.268-0.619 M84.053,76.428H68.337 M84.053,9.75
			l2.269,0.619l2.221,0.778l2.172,0.918l2.092,1.063l2.016,1.221l1.934,1.33l1.825,1.475l1.729,1.604l1.617,1.712l1.49,1.823
			l1.364,1.918l1.221,1.999l1.095,2.094l0.936,2.156l0.792,2.203l0.648,2.269l0.478,2.301l0.318,2.328l0.159,2.347v2.363
			l-0.159,2.333l-0.318,2.331l-0.478,2.315l-0.648,2.251l-0.792,2.218l-0.936,2.158l-1.095,2.078l-1.221,2.014l-1.364,1.918
			l-1.49,1.822l-1.617,1.713l-1.729,1.584l-1.825,1.475l-1.934,1.349l-2.016,1.205l-2.092,1.078l-2.172,0.92l-2.221,0.776
			l-2.269,0.618 M68.337,9.75h15.716 M96.82,72.004l0.397,0.096l0.349,0.221l0.239,0.347l0.077,0.414l-0.077,0.397l-0.239,0.349
			l-0.349,0.238l-0.397,0.079l-0.413-0.079l-0.348-0.238l-0.238-0.349l-0.077-0.397l0.077-0.414l0.238-0.347l0.348-0.221
			L96.82,72.004z M112.602,42.02l0.397,0.08l0.349,0.235l0.239,0.35l0.076,0.395l-0.076,0.414l-0.239,0.349l-0.349,0.238
			l-0.397,0.077l-0.414-0.077l-0.349-0.238l-0.235-0.349l-0.083-0.414l0.083-0.395l0.235-0.35l0.349-0.235L112.602,42.02z
			 M96.82,12.035l0.397,0.08l0.349,0.219l0.239,0.349l0.077,0.413l-0.077,0.413l-0.239,0.35l-0.349,0.222l-0.397,0.078l-0.413-0.078
			l-0.348-0.222l-0.238-0.35l-0.077-0.413l0.077-0.413l0.238-0.349l0.348-0.219L96.82,12.035z M55.584,72.004L56,72.1l0.333,0.221
			l0.236,0.347l0.081,0.414l-0.081,0.397l-0.236,0.349L56,74.066l-0.415,0.079l-0.41-0.079l-0.349-0.238l-0.222-0.349l-0.095-0.397
			l0.095-0.414l0.222-0.347l0.349-0.221L55.584,72.004z M55.584,12.035L56,12.115l0.333,0.219l0.236,0.349l0.081,0.413l-0.081,0.413
			l-0.236,0.35L56,14.081l-0.415,0.078l-0.41-0.078l-0.349-0.222l-0.222-0.35l-0.095-0.413l0.095-0.413l0.222-0.349l0.349-0.219
			L55.584,12.035z M96.82,86.244l0.397,0.081l0.349,0.22l0.239,0.349l0.077,0.413l-0.077,0.414l-0.239,0.347l-0.349,0.222
			l-0.397,0.081l-0.413-0.081l-0.348-0.222l-0.238-0.347l-0.077-0.414l0.077-0.413l0.238-0.349l0.348-0.22L96.82,86.244z
			 M112.602,116.229l0.397,0.078l0.349,0.236l0.239,0.349l0.076,0.398l-0.076,0.414l-0.239,0.346l-0.349,0.237l-0.397,0.081
			l-0.414-0.081l-0.349-0.237l-0.235-0.346l-0.083-0.414l0.083-0.398l0.235-0.349l0.349-0.236L112.602,116.229z M96.82,146.214
			l0.397,0.096l0.349,0.22l0.239,0.349l0.077,0.412l-0.077,0.399l-0.239,0.349l-0.349,0.234l-0.397,0.081l-0.413-0.081l-0.348-0.234
			l-0.238-0.349l-0.077-0.399l0.077-0.412l0.238-0.349l0.348-0.22L96.82,146.214z M55.584,146.214L56,146.31l0.333,0.22l0.236,0.349
			l0.081,0.412l-0.081,0.399l-0.236,0.349L56,148.272l-0.415,0.081l-0.41-0.081l-0.349-0.234l-0.222-0.349l-0.095-0.399l0.095-0.412
			l0.222-0.349l0.349-0.22L55.584,146.214z M55.584,86.244L56,86.325l0.333,0.22l0.236,0.349l0.081,0.413l-0.081,0.414l-0.236,0.347
			L56,88.288l-0.415,0.081l-0.41-0.081l-0.349-0.222l-0.222-0.347l-0.095-0.414l0.095-0.413l0.222-0.349l0.349-0.22L55.584,86.244z
			 M39.807,42.02l0.396,0.08l0.348,0.235l0.238,0.35l0.079,0.395l-0.079,0.414l-0.238,0.349l-0.348,0.238l-0.396,0.077l-0.413-0.077
			l-0.35-0.238l-0.236-0.349l-0.081-0.414l0.081-0.395l0.236-0.35l0.35-0.235L39.807,42.02z M39.807,116.229l0.396,0.078
			l0.348,0.236l0.238,0.349l0.079,0.398l-0.079,0.414l-0.238,0.346l-0.348,0.237l-0.396,0.081l-0.413-0.081l-0.35-0.237
			l-0.236-0.346l-0.081-0.414l0.081-0.398l0.236-0.349l0.35-0.236L39.807,116.229z M68.337,150.638l-2.268-0.62l-2.22-0.775
			l-2.157-0.92l-2.109-1.078l-2.014-1.205l-1.919-1.35l-1.839-1.475l-1.729-1.585l-1.617-1.713l-1.49-1.824l-1.364-1.917
			l-1.223-2.016l-1.092-2.078l-0.937-2.155l-0.795-2.221l-0.634-2.252l-0.491-2.312l-0.315-2.333l-0.16-2.33v-2.363l0.16-2.347
			l0.315-2.331l0.491-2.296l0.634-2.27l0.795-2.204l0.937-2.155l1.092-2.093l1.223-1.999l1.364-1.921l1.49-1.824l1.617-1.708
			l1.729-1.604l1.839-1.475l1.919-1.333l2.014-1.219l2.109-1.063l2.157-0.92l2.22-0.775l2.268-0.619 M84.053,150.638H68.337
			 M84.053,83.959l2.269,0.619l2.221,0.775l2.172,0.92l2.092,1.063l2.016,1.219l1.934,1.333l1.825,1.475l1.729,1.604l1.617,1.708
			l1.49,1.824l1.364,1.921l1.221,1.999l1.095,2.093l0.936,2.155l0.792,2.204l0.648,2.27l0.478,2.296l0.318,2.331l0.159,2.347v2.363
			l-0.159,2.33l-0.318,2.333l-0.478,2.312l-0.648,2.252l-0.792,2.221l-0.936,2.155l-1.095,2.078l-1.221,2.016l-1.364,1.917
			l-1.49,1.824l-1.617,1.713l-1.729,1.585l-1.825,1.475l-1.934,1.35l-2.016,1.205l-2.092,1.078l-2.172,0.92l-2.221,0.775
			l-2.269,0.62 M68.337,83.959h15.716 M228.201,83.959h15.717 M228.201,150.638l-2.266-0.62l-2.221-0.775l-2.156-0.92l-2.11-1.078
			l-2.014-1.205l-1.92-1.35l-1.839-1.475l-1.728-1.585l-1.619-1.713l-1.49-1.824l-1.364-1.917l-1.222-2.016l-1.093-2.078
			l-0.936-2.155l-0.794-2.221l-0.634-2.252l-0.492-2.312l-0.316-2.333l-0.159-2.33v-2.363l0.159-2.347l0.316-2.331l0.492-2.296
			l0.634-2.27l0.794-2.204l0.936-2.155l1.093-2.093l1.222-1.999l1.364-1.921l1.49-1.824l1.619-1.708l1.728-1.604l1.839-1.475
			l1.92-1.333l2.014-1.219l2.11-1.063l2.156-0.92l2.221-0.775l2.266-0.619 M243.917,150.638h-15.717 M243.917,83.959l2.269,0.619
			l2.221,0.775l2.172,0.92l2.091,1.063l2.017,1.219l1.934,1.333l1.825,1.475l1.729,1.604l1.619,1.708l1.489,1.824l1.364,1.921
			l1.22,1.999l1.096,2.093l0.934,2.155l0.794,2.204l0.65,2.27l0.477,2.296l0.318,2.331l0.158,2.347v2.363l-0.158,2.33l-0.318,2.333
			l-0.477,2.312l-0.65,2.252l-0.794,2.221l-0.934,2.155l-1.096,2.078l-1.22,2.016l-1.364,1.917l-1.489,1.824l-1.619,1.713
			l-1.729,1.585l-1.825,1.475l-1.934,1.35l-2.017,1.205l-2.091,1.078l-2.172,0.92l-2.221,0.775l-2.269,0.62 M148.271,76.428
			l-2.269-0.618l-2.22-0.776l-2.159-0.92l-2.106-1.078L137.5,71.83l-1.918-1.349l-1.841-1.475l-1.729-1.584l-1.618-1.713
			l-1.489-1.822l-1.364-1.918l-1.221-2.014l-1.095-2.078l-0.937-2.158l-0.793-2.218l-0.636-2.251l-0.489-2.315l-0.319-2.331
			l-0.159-2.333v-2.363l0.159-2.347l0.319-2.328l0.489-2.301l0.636-2.269l0.793-2.203l0.937-2.156l1.095-2.094l1.221-1.999
			l1.364-1.918l1.489-1.823l1.618-1.712l1.729-1.604l1.841-1.475l1.918-1.33l2.016-1.221l2.106-1.063l2.159-0.918l2.22-0.778
			l2.269-0.619 M163.987,76.428h-15.716 M163.987,9.75l2.266,0.619l2.221,0.778l2.175,0.918l2.091,1.063l2.014,1.221l1.937,1.33
			l1.823,1.475l1.728,1.604l1.618,1.712l1.49,1.823l1.363,1.918l1.222,1.999l1.096,2.094l0.934,2.156l0.795,2.203l0.649,2.269
			l0.478,2.301l0.318,2.328l0.156,2.347v2.363l-0.156,2.333l-0.318,2.331l-0.478,2.315l-0.649,2.251l-0.795,2.218l-0.934,2.158
			l-1.096,2.078l-1.222,2.014l-1.363,1.918l-1.49,1.822l-1.618,1.713l-1.728,1.584l-1.823,1.475l-1.937,1.349l-2.014,1.205
			l-2.091,1.078l-2.175,0.92l-2.221,0.776l-2.266,0.618 M148.271,9.75h15.716 M176.751,72.004l0.397,0.096l0.35,0.221l0.237,0.347
			l0.079,0.414l-0.079,0.397l-0.237,0.349l-0.35,0.238l-0.397,0.079l-0.41-0.079l-0.348-0.238l-0.239-0.349l-0.08-0.397l0.08-0.414
			l0.239-0.347l0.348-0.221L176.751,72.004z M192.534,42.02l0.396,0.08l0.35,0.235l0.237,0.35l0.08,0.395l-0.08,0.414l-0.237,0.349
			l-0.35,0.238l-0.396,0.077l-0.412-0.077l-0.348-0.238l-0.239-0.349l-0.08-0.414l0.08-0.395l0.239-0.35l0.348-0.235L192.534,42.02z
			 M176.751,12.035l0.397,0.08l0.35,0.219l0.237,0.349l0.079,0.413l-0.079,0.413l-0.237,0.35l-0.35,0.222l-0.397,0.078l-0.41-0.078
			l-0.348-0.222l-0.239-0.35l-0.08-0.413l0.08-0.413l0.239-0.349l0.348-0.219L176.751,12.035z M135.519,72.004l0.413,0.096
			l0.333,0.221l0.235,0.347l0.083,0.414l-0.083,0.397l-0.235,0.349l-0.333,0.238l-0.413,0.079l-0.413-0.079l-0.349-0.238
			l-0.222-0.349l-0.095-0.397l0.095-0.414l0.222-0.347l0.349-0.221L135.519,72.004z M135.519,12.035l0.413,0.08l0.333,0.219
			l0.235,0.349l0.083,0.413l-0.083,0.413l-0.235,0.35l-0.333,0.222l-0.413,0.078l-0.413-0.078l-0.349-0.222l-0.222-0.35
			l-0.095-0.413l0.095-0.413l0.222-0.349l0.349-0.219L135.519,12.035z M176.751,86.244l0.397,0.081l0.35,0.22l0.237,0.349
			l0.079,0.413l-0.079,0.414l-0.237,0.347l-0.35,0.222l-0.397,0.081l-0.41-0.081l-0.348-0.222l-0.239-0.347l-0.08-0.414l0.08-0.413
			l0.239-0.349l0.348-0.22L176.751,86.244z M192.534,116.229l0.396,0.078l0.35,0.236l0.237,0.349l0.08,0.398l-0.08,0.414
			l-0.237,0.346l-0.35,0.237l-0.396,0.081l-0.412-0.081l-0.348-0.237l-0.239-0.346l-0.08-0.414l0.08-0.398l0.239-0.349l0.348-0.236
			L192.534,116.229z M176.751,146.214l0.397,0.096l0.35,0.22l0.237,0.349l0.079,0.412l-0.079,0.399l-0.237,0.349l-0.35,0.234
			l-0.397,0.081l-0.41-0.081l-0.348-0.234l-0.239-0.349l-0.08-0.399l0.08-0.412l0.239-0.349l0.348-0.22L176.751,146.214z
			 M135.519,146.214l0.413,0.096l0.333,0.22l0.235,0.349l0.083,0.412l-0.083,0.399l-0.235,0.349l-0.333,0.234l-0.413,0.081
			l-0.413-0.081l-0.349-0.234l-0.222-0.349l-0.095-0.399l0.095-0.412l0.222-0.349l0.349-0.22L135.519,146.214z M135.519,86.244
			l0.413,0.081l0.333,0.22l0.235,0.349l0.083,0.413l-0.083,0.414l-0.235,0.347l-0.333,0.222l-0.413,0.081l-0.413-0.081l-0.349-0.222
			l-0.222-0.347l-0.095-0.414l0.095-0.413l0.222-0.349l0.349-0.22L135.519,86.244z M148.271,150.638l-2.269-0.62l-2.22-0.775
			l-2.159-0.92l-2.106-1.078l-2.016-1.205l-1.918-1.35l-1.841-1.475l-1.729-1.585l-1.618-1.713l-1.489-1.824l-1.364-1.917
			l-1.221-2.016l-1.095-2.078l-0.937-2.155l-0.793-2.221l-0.636-2.252l-0.489-2.312l-0.319-2.333l-0.159-2.33v-2.363l0.159-2.347
			l0.319-2.331l0.489-2.296l0.636-2.27l0.793-2.204l0.937-2.155l1.095-2.093l1.221-1.999l1.364-1.921l1.489-1.824l1.618-1.708
			l1.729-1.604l1.841-1.475l1.918-1.333l2.016-1.219l2.106-1.063l2.159-0.92l2.22-0.775l2.269-0.619 M163.987,150.638h-15.716
			 M163.987,83.959l2.266,0.619l2.221,0.775l2.175,0.92l2.091,1.063l2.014,1.219l1.937,1.333l1.823,1.475l1.728,1.604l1.618,1.708
			l1.49,1.824l1.363,1.921l1.222,1.999l1.096,2.093l0.934,2.155l0.795,2.204l0.649,2.27l0.478,2.296l0.318,2.331l0.156,2.347v2.363
			l-0.156,2.33l-0.318,2.333l-0.478,2.312l-0.649,2.252l-0.795,2.221l-0.934,2.155l-1.096,2.078l-1.222,2.016l-1.363,1.917
			l-1.49,1.824l-1.618,1.713l-1.728,1.585l-1.823,1.475l-1.937,1.35l-2.014,1.205l-2.091,1.078l-2.175,0.92l-2.221,0.775
			l-2.266,0.62 M148.271,83.959h15.716 M119.737,42.02l0.398,0.08l0.35,0.235l0.237,0.35l0.08,0.395l-0.08,0.414l-0.237,0.349
			l-0.35,0.238l-0.398,0.077l-0.413-0.077l-0.348-0.238l-0.236-0.349l-0.081-0.414l0.081-0.395l0.236-0.35l0.348-0.235
			L119.737,42.02z M119.737,116.229l0.398,0.078l0.35,0.236l0.237,0.349l0.08,0.398l-0.08,0.414l-0.237,0.346l-0.35,0.237
			l-0.398,0.081l-0.413-0.081l-0.348-0.237l-0.236-0.346l-0.081-0.414l0.081-0.398l0.236-0.349l0.348-0.236L119.737,116.229z
			 M31.386,5.978h249.501 M280.887,5.978v0.016v0.049v0.061v0.081v0.108v0.115v0.125v0.144 M31.386,6.676V6.532V6.406V6.292V6.183
			V6.103V6.042V5.993V5.978 M280.887,153.714v0.143v0.127v0.11v0.111v0.078v0.064v0.048 M280.887,154.395H31.386 M31.386,154.395
			L31.386,154.395v-0.048v-0.064v-0.078v-0.111v-0.11v-0.127v-0.143 M280.887,5.297v0.14v0.127v0.113v0.111v0.078v0.063v0.049
			 M31.386,5.978L31.386,5.978V5.929V5.865V5.788V5.676V5.563V5.437v-0.14 M280.887,154.395v0.018v0.045v0.064v0.08v0.11v0.11v0.13
			v0.14 M31.386,155.091v-0.14v-0.13v-0.11v-0.11v-0.08v-0.064v-0.045v-0.018 M52.225,0.27H31.386 M52.225,3.473V0.27 M54.508,3.473
			l-0.096,0.445l-0.237,0.364l-0.379,0.251l-0.429,0.094l-0.443-0.094l-0.366-0.251l-0.255-0.364l-0.078-0.445 M54.508,0.27v3.203
			 M120.737,0.27H54.508 M120.737,3.473V0.27 M123.02,3.473l-0.094,0.445l-0.235,0.364l-0.383,0.251l-0.428,0.094l-0.443-0.094
			l-0.364-0.251l-0.254-0.364l-0.08-0.445 M123.02,0.27v3.203 M189.25,0.27h-66.23 M189.25,3.473V0.27 M191.535,3.473l-0.095,0.445
			L191.2,4.282l-0.378,0.251l-0.431,0.094l-0.444-0.094l-0.364-0.251l-0.253-0.364l-0.08-0.445 M191.535,0.27v3.203 M257.764,0.27
			h-66.229 M257.764,3.473V0.27 M260.049,3.473l-0.098,0.445l-0.236,0.364l-0.381,0.251l-0.428,0.094l-0.445-0.094l-0.365-0.251
			l-0.253-0.364l-0.079-0.445 M260.049,0.27v3.203 M260.049,0.27h20.838 M280.887,5.297V0.27 M31.386,5.297V0.27 M260.049,160.103
			h20.838 M260.049,156.917v3.186 M257.764,156.917l0.079-0.447l0.253-0.378l0.365-0.24l0.445-0.094l0.428,0.094l0.381,0.24
			l0.236,0.378l0.098,0.447 M257.764,160.103v-3.186 M191.535,160.103h66.229 M191.535,156.917v3.186 M189.25,156.917l0.08-0.447
			l0.253-0.378l0.364-0.24l0.444-0.094l0.431,0.094l0.378,0.24l0.239,0.378l0.095,0.447 M189.25,160.103v-3.186 M123.02,160.103
			h66.23 M123.02,156.917v3.186 M120.737,156.917l0.08-0.447l0.254-0.378l0.364-0.24l0.443-0.094l0.428,0.094l0.383,0.24
			l0.235,0.378l0.094,0.447 M120.737,160.103v-3.186 M54.508,160.103h66.229 M54.508,156.917v3.186 M52.225,156.917l0.078-0.447
			l0.255-0.378l0.366-0.24l0.443-0.094l0.429,0.094l0.379,0.24l0.237,0.378l0.096,0.447 M52.225,160.103v-3.186 M31.386,160.103
			h20.838 M280.887,160.103v-5.012 M31.386,160.103v-5.012 M4.153,15.617v0.557v0.459v0.317v0.174v0.015 M4.153,11.432v0.015v0.174
			v0.319v0.459v0.556v0.649v0.681v0.684v0.648 M2.092,15.617v-0.648v-0.684v-0.681v-0.649v-0.556V11.94v-0.319v-0.174v-0.015
			 M2.092,17.139v-0.015v-0.174v-0.317v-0.459v-0.557 M0.27,15.617v-0.648v-0.684v-0.681v-0.649v-0.556V11.94v-0.319v-0.174v-0.015
			 M0.27,17.139v-0.015v-0.174v-0.317v-0.459v-0.557 M4.153,147.654v0.556v0.459v0.32v0.175v0.015 M4.153,143.47v0.015v0.175v0.316
			v0.46v0.556v0.649v0.682v0.682v0.648 M2.092,147.654v-0.648v-0.682v-0.682v-0.649v-0.556v-0.46v-0.316v-0.175v-0.015
			 M2.092,149.179v-0.015v-0.175v-0.32v-0.459v-0.556 M0.27,147.654v-0.648v-0.682v-0.682v-0.649v-0.556v-0.46v-0.316v-0.175v-0.015
			 M0.27,149.179v-0.015v-0.175v-0.32v-0.459v-0.556 M29.102,145.611v0.03v0.174v0.335v0.473v0.589v0.651v0.696v0.683v0.648v0.557
			v0.427v0.301v0.128v0.015 M11.971,149.75v-0.032v-0.174v-0.318v-0.46v-0.569v-0.666v-0.714v-0.746v-0.73v-0.679v-0.604v-0.491
			v-0.38v-0.225v-0.062 M17.967,143.186L17.967,143.186v0.141v0.27v0.428v0.524v0.634v0.668v0.711v0.684v0.649v0.571v0.459v0.319
			v0.189v0.03 M29.102,144.389v0.207v0.221v0.208v0.205v0.174v0.16v0.033 M29.102,142.042v0.381v0.604v0.664v0.699 M29.102,13.575
			v0.03v0.174v0.333v0.476v0.586v0.667v0.684v0.696v0.633v0.556v0.445v0.284v0.144 M17.967,11.147v0.015v0.126v0.285v0.411v0.542
			v0.617v0.683v0.696v0.699v0.633v0.573v0.46v0.314v0.192v0.031 M11.971,17.713v-0.035V17.52v-0.333v-0.458v-0.569V15.49v-0.71
			v-0.731V13.32v-0.684v-0.616v-0.495v-0.363v-0.238V10.86 M29.102,12.349v0.225v0.208V13v0.19v0.175v0.159v0.03 M29.102,9.291
			v0.046v0.208v0.35v0.491v0.601v0.667v0.695 M34.002,26.178l-0.27-0.142l-0.349-0.048l-0.348,0.096l-0.159,0.095 M34.002,61.808
			l-0.27-0.144l-0.349-0.062l-0.348,0.095l-0.159,0.111 M278.271,26.178l0.251-0.142l0.366-0.048l0.334,0.096l0.157,0.095
			 M278.271,61.808l0.251-0.144l0.366-0.062l0.334,0.095l0.157,0.111"/>
	</g>
</g>
</svg>
