<?xml version="1.0" encoding="utf-8"?>
<!-- Generator: Adobe Illustrator 15.0.2, SVG Export Plug-In . SVG Version: 6.00 Build 0)  -->
<!DOCTYPE svg PUBLIC "-//W3C//DTD SVG 1.1//EN" "http://www.w3.org/Graphics/SVG/1.1/DTD/svg11.dtd">
<svg version="1.1" id="Layer_1" xmlns="http://www.w3.org/2000/svg" xmlns:xlink="http://www.w3.org/1999/xlink" x="0px" y="0px"
	 width="176.41px" height="129.253px" viewBox="0 0 176.41 129.253" enable-background="new 0 0 176.41 129.253"
	 xml:space="preserve">
<g>
	<g>
		
			<path fill="none" stroke="#245684" stroke-width="0.35" stroke-linecap="round" stroke-linejoin="round" stroke-miterlimit="10" d="
			M42.084,22.076h0.739 M42.823,21.817l0.023-0.059v-0.062l0.039-0.04l0.021-0.039l0.059-0.038l0.042-0.024l0.058-0.019h0.063
			 M43.126,21.537h0.278 M161.844,21.537h1.382 M42.084,65.046h0.739 M42.823,64.785l0.023-0.061v-0.059l0.039-0.039l0.021-0.039
			l0.059-0.042l0.042-0.019l0.058-0.021h0.063 M43.126,64.506h0.278 M161.844,64.506h1.382 M42.084,108.012h0.739 M42.823,107.752
			l0.023-0.058v-0.058l0.039-0.043l0.021-0.039l0.059-0.04l0.042-0.019l0.058-0.019h0.063 M43.126,107.476h0.278 M161.844,107.476
			h1.382 M18.187,21.537l0.163,0.241l0.24,0.197l0.279,0.142l0.299,0.039l0.302-0.039l0.279-0.142l0.24-0.197l0.16-0.241
			 M20.148,16.167l-0.16-0.258l-0.24-0.2l-0.279-0.118l-0.302-0.062l-0.299,0.062l-0.279,0.118l-0.24,0.2l-0.163,0.258
			 M20.148,21.537H34.18 M34.18,16.167H20.148 M14.584,21.537h3.602 M18.187,16.167h-3.602 M3.778,16.167l0.159,0.24l0.24,0.198
			l0.282,0.139l0.298,0.04l0.299-0.04l0.282-0.139l0.24-0.198l0.159-0.24 M5.739,10.795L5.58,10.536l-0.24-0.199L5.058,10.22
			l-0.299-0.062L4.46,10.22l-0.282,0.117l-0.24,0.199l-0.159,0.259 M0.175,16.167h3.604 M3.778,10.795H0.175 M5.739,16.167h8.846
			 M34.18,10.795H5.739 M34.18,108.232l-0.801,0.357l-0.962,0.595l-0.7,0.617l-0.559,0.655l-0.402,0.738l-0.26,0.776l-0.1,0.874
			l0.1,0.834l0.241,0.796l0.402,0.715l0.519,0.638l0.682,0.598l0.799,0.536l0.959,0.459l0.082,0.019 M34.18,65.739l-0.441,0.302
			l-0.961,0.812l-0.821,0.977l-0.679,1.074l-0.48,1.153l-0.302,1.234l-0.1,1.274l0.1,1.25l0.302,1.236l0.059,0.197 M34.18,71.112
			l-0.441,0.299l-0.961,0.815l-0.821,0.973l-0.679,1.075l-0.48,1.153l-0.302,1.235l-0.1,1.273l0.1,1.255l0.302,1.231l0.48,1.154
			l0.679,1.095l0.821,0.955l0.961,0.815l0.441,0.299 M34.18,44.254l-0.441,0.299l-0.961,0.816l-0.821,0.974l-0.679,1.077
			l-0.48,1.153l-0.302,1.232l-0.1,1.274l0.1,1.253l0.302,1.234l0.059,0.2 M34.18,92.594l-0.441,0.299l-0.961,0.816l-0.821,0.975
			l-0.679,1.075l-0.48,1.153l-0.302,1.233l-0.1,1.273l0.1,1.254l0.302,1.232l0.48,1.156l0.679,1.092l0.821,0.955l0.961,0.815
			l0.441,0.298 M34.18,28.142l-0.441,0.3l-0.961,0.815l-0.821,0.974l-0.679,1.076l-0.48,1.151l-0.302,1.235l-0.1,1.273l0.1,1.253
			l0.302,1.231l0.48,1.157l0.679,1.092l0.821,0.956l0.961,0.816l0.441,0.298 M34.18,87.224l-0.441,0.298l-0.961,0.816l-0.821,0.975
			l-0.679,1.072l-0.48,1.157l-0.302,1.23l-0.1,1.274l0.1,1.255l0.302,1.234l0.059,0.195 M34.18,49.629l-0.441,0.296l-0.961,0.816
			l-0.821,0.975l-0.679,1.074l-0.48,1.154l-0.302,1.233l-0.1,1.271l0.1,1.253l0.302,1.236l0.48,1.153l0.679,1.094l0.821,0.956
			l0.961,0.813l0.441,0.298 M34.18,22.772l-0.441,0.298l-0.961,0.815l-0.821,0.976l-0.679,1.071l-0.48,1.157l-0.302,1.233
			l-0.1,1.272l0.1,1.255l0.302,1.231l0.059,0.199 M171.071,11.335l0.74,0.337l1.082,0.658l0.96,0.812l0.818,0.977l0.682,1.074
			l0.48,1.154l0.298,1.233l0.104,1.274l-0.104,1.251l-0.298,1.235l-0.081,0.197 M42.823,23.149v-0.296v-0.698v-0.079
			 M171.071,32.818l0.74,0.338l1.082,0.656l0.96,0.816l0.818,0.975l0.682,1.075l0.48,1.154l0.298,1.23l0.104,1.274l-0.104,1.255
			l-0.298,1.234l-0.081,0.198 M171.071,54.301l0.74,0.338l1.082,0.656l0.96,0.816l0.818,0.978l0.682,1.071l0.48,1.154l0.298,1.234
			l0.104,1.271l-0.104,1.255l-0.298,1.234l-0.081,0.198 M42.823,66.118v-0.299v-0.695v-0.078 M171.071,75.787l0.74,0.339
			l1.082,0.655l0.96,0.815l0.818,0.976l0.682,1.073l0.48,1.155l0.298,1.233l0.104,1.272l-0.104,1.255l-0.298,1.231l-0.081,0.199
			 M42.823,22.076v-0.12v-0.28v-0.478v-0.637v-0.376 M171.071,16.703l0.74,0.338l1.082,0.659l0.96,0.815l0.818,0.975l0.682,1.072
			l0.48,1.154l0.298,1.235l0.104,1.273l-0.104,1.254l-0.298,1.231l-0.48,1.153l-0.682,1.094l-0.818,0.956l-0.96,0.815l-1.082,0.656
			l-0.74,0.339 M171.071,38.188l0.74,0.338l1.082,0.656l0.96,0.815l0.818,0.976l0.682,1.074l0.48,1.154l0.298,1.232l0.104,1.274
			l-0.104,1.254l-0.298,1.231l-0.48,1.156l-0.682,1.093l-0.818,0.955l-0.96,0.815l-1.082,0.656l-0.74,0.338 M42.823,65.046v-0.12
			v-0.28v-0.478v-0.636v-0.378 M171.071,59.671l0.74,0.338l1.082,0.656l0.96,0.815l0.818,0.976l0.682,1.076l0.48,1.152l0.298,1.235
			l0.104,1.274l-0.104,1.25l-0.298,1.233l-0.48,1.154l-0.682,1.095l-0.818,0.954l-0.96,0.816l-1.082,0.657l-0.74,0.336
			 M171.071,81.159l0.74,0.336l1.082,0.658l0.96,0.815l0.818,0.974l0.682,1.076l0.48,1.151l0.298,1.234l0.104,1.273l-0.104,1.253
			l-0.298,1.232l-0.48,1.152l-0.682,1.095l-0.818,0.956l-0.96,0.815l-1.082,0.656l-0.74,0.339 M171.071,97.27l0.74,0.338
			l1.082,0.657l0.96,0.815l0.818,0.974l0.682,1.076l0.48,1.154l0.298,1.232l0.104,1.273l-0.104,1.253l-0.298,1.234l-0.081,0.199
			 M42.823,109.087v-0.3v-0.698v-0.078 M42.823,108.012v-0.118v-0.279v-0.477v-0.637v-0.376 M171.071,102.641l0.74,0.338
			l1.082,0.656l0.96,0.816l0.818,0.975l0.682,1.075l0.48,1.153l0.298,1.234l0.104,1.271l-0.104,1.255l-0.298,1.234l-0.48,1.154
			l-0.682,1.093l-0.818,0.956l-0.96,0.812l-1.082,0.657l-0.74,0.34 M18.187,16.167v0.1v0.276v0.458v0.598v0.695v0.738v0.715v0.637
			v0.536V21.3v0.198v0.039 M20.148,21.537V21.44v-0.3v-0.457v-0.598V19.39v-0.738v-0.715v-0.636v-0.537v-0.377v-0.201v-0.019
			 M14.584,21.537V21.44v-0.3v-0.457v-0.598V19.39v-0.738v-0.715v-0.636v-0.537v-0.377v-0.201v-0.019 M3.778,10.795v0.102v0.277
			v0.458v0.598v0.695v0.738v0.715v0.636v0.536v0.379v0.199v0.04 M5.739,16.167v-0.098v-0.298v-0.458v-0.597V14.02v-0.735v-0.717
			v-0.638v-0.535v-0.38v-0.198v-0.021 M0.175,16.167v-0.098v-0.298v-0.458v-0.597V14.02v-0.735v-0.717v-0.638v-0.535v-0.38v-0.198
			v-0.021 M65.541,91.6l-0.484,0.198l-0.518,0.021l-0.5-0.2l-0.38-0.357l-0.2-0.497v-0.517l0.181-0.477l0.38-0.381l0.48-0.218h0.52
			l0.499,0.2l0.383,0.356l0.197,0.48v0.536l-0.197,0.479L65.541,91.6z M139.709,91.6l0.5,0.198l0.519,0.021l0.48-0.2l0.381-0.357
			l0.221-0.497v-0.517l-0.202-0.477l-0.357-0.381l-0.48-0.218h-0.542l-0.48,0.2l-0.379,0.356l-0.202,0.48l-0.019,0.536l0.2,0.479
			L139.709,91.6z M163.226,21.657l-0.119,0.619l-0.303,0.535l-0.479,0.399l-0.601,0.217h-0.621l-0.581-0.217l-0.48-0.399
			l-0.319-0.535l-0.099-0.619l0.099-0.597l0.319-0.536l0.48-0.42l0.581-0.198h0.621l0.601,0.198l0.479,0.42l0.303,0.536
			L163.226,21.657z M163.226,107.593l-0.119,0.617l-0.303,0.54l-0.479,0.397l-0.601,0.217h-0.621l-0.581-0.217l-0.48-0.397
			l-0.319-0.54l-0.099-0.617l0.099-0.594l0.319-0.537l0.48-0.418l0.581-0.198h0.621l0.601,0.198l0.479,0.418l0.303,0.537
			L163.226,107.593z M42.044,64.627l0.101,0.614l0.318,0.539l0.48,0.396l0.581,0.221h0.621l0.6-0.221l0.481-0.396l0.301-0.539
			l0.121-0.614l-0.121-0.598l-0.301-0.536l-0.481-0.419l-0.6-0.198h-0.621l-0.581,0.198l-0.48,0.419l-0.318,0.536L42.044,64.627z
			 M42.044,107.593l0.101,0.617l0.318,0.54l0.48,0.397l0.581,0.217h0.621l0.6-0.217l0.481-0.397l0.301-0.54l0.121-0.617
			l-0.121-0.594l-0.301-0.537l-0.481-0.418l-0.6-0.198h-0.621l-0.581,0.198l-0.48,0.418l-0.318,0.537L42.044,107.593z
			 M101.285,110.28l0.102,0.517l0.298,0.438l0.419,0.3l0.522,0.096l0.519-0.096l0.44-0.3l0.3-0.438l0.1-0.517l-0.1-0.497l-0.3-0.439
			l-0.44-0.299l-0.519-0.098l-0.522,0.098l-0.419,0.299l-0.298,0.439L101.285,110.28z M59.396,64.627l0.098,2.944l0.301,2.923
			l0.5,2.885l0.701,2.844l0.898,2.804l1.082,2.726l1.261,2.647l1.462,2.566l1.618,2.449l1.783,2.345l1.941,2.209l2.081,2.066
			l2.223,1.93l2.361,1.772l2.463,1.611l2.581,1.432l2.661,1.274l2.742,1.073l2.803,0.877l2.881,0.694l2.902,0.497l2.941,0.299
			l2.943,0.098l2.96-0.098l2.921-0.299l2.925-0.497l2.86-0.694l2.823-0.877l2.74-1.073l2.662-1.274l2.583-1.432l2.462-1.611
			l2.343-1.772l2.239-1.93l2.082-2.066l1.944-2.209l1.779-2.345l1.62-2.449l1.444-2.566l1.259-2.647l1.101-2.726l0.884-2.804
			l0.698-2.844l0.501-2.885l0.298-2.923l0.101-2.944l-0.101-2.925l-0.298-2.923l-0.501-2.887l-0.698-2.846l-0.884-2.803
			l-1.101-2.727l-1.259-2.644l-1.444-2.566l-1.62-2.446l-1.779-2.347l-1.944-2.209l-2.082-2.069l-2.239-1.928l-2.343-1.771
			l-2.462-1.61l-2.583-1.433l-2.662-1.274l-2.74-1.074l-2.823-0.875l-2.86-0.695l-2.925-0.498l-2.921-0.317l-2.96-0.102
			l-2.943,0.102l-2.941,0.317l-2.902,0.498l-2.881,0.695l-2.803,0.875l-2.742,1.074l-2.661,1.274l-2.581,1.433l-2.463,1.61
			l-2.361,1.771l-2.223,1.928l-2.081,2.069l-1.941,2.209l-1.783,2.347l-1.618,2.446l-1.462,2.566l-1.261,2.644l-1.082,2.727
			l-0.898,2.803l-0.701,2.846l-0.5,2.887l-0.301,2.923L59.396,64.627z M34.18,8.628v112.015 M171.071,8.628v112.015 M42.044,21.657
			l0.101,0.619l0.318,0.535l0.48,0.399l0.581,0.217h0.621l0.6-0.217l0.481-0.399l0.301-0.535l0.121-0.619l-0.121-0.597l-0.301-0.536
			l-0.481-0.42l-0.6-0.198h-0.621l-0.581,0.198l-0.48,0.42l-0.318,0.536L42.044,21.657z M163.226,64.627l-0.119,0.614l-0.303,0.539
			l-0.479,0.396l-0.601,0.221h-0.621l-0.581-0.221l-0.48-0.396l-0.319-0.539l-0.099-0.614l0.099-0.598l0.319-0.536l0.48-0.419
			l0.581-0.198h0.621l0.601,0.198l0.479,0.419l0.303,0.536L163.226,64.627z M101.285,18.971l0.102-0.498l0.298-0.435l0.419-0.299
			l0.522-0.102l0.519,0.102l0.44,0.299l0.3,0.435l0.1,0.498l-0.1,0.519l-0.3,0.436l-0.44,0.299l-0.519,0.101l-0.522-0.101
			l-0.419-0.299l-0.298-0.436L101.285,18.971z M34.18,8.628v-0.24V8.131v-0.22V7.712V7.553V7.437V7.375V7.335 M171.071,7.335H34.18
			 M171.071,7.335v0.039v0.062v0.116v0.159v0.199v0.22v0.257v0.24 M34.18,121.918h136.891 M34.18,121.918v-0.02v-0.082v-0.121
			v-0.155v-0.181v-0.239v-0.24v-0.238 M171.071,120.644v0.238v0.24v0.239v0.181v0.155v0.121v0.082v0.02 M171.071,7.335
			L171.071,7.335V7.315V7.278V7.255v-0.04V7.176V7.134 M34.18,7.134v0.042v0.039v0.04v0.022v0.037v0.021 M34.18,121.918v0.019v0.021
			v0.038v0.021v0.041v0.04v0.04 M171.071,122.136v-0.04v-0.04v-0.041v-0.021v-0.038v-0.021v-0.019 M159.123,0.175v2.862
			 M162.284,3.037V0.175 M34.18,0.175h8.784 M159.123,3.037l0.12,0.619l0.338,0.496l0.521,0.357l0.601,0.121l0.601-0.121l0.52-0.357
			l0.34-0.496l0.12-0.619 M34.18,7.134V0.175 M104.206,3.037V0.175 M171.071,0.175v6.959 M104.206,0.175h54.917 M46.146,0.175
			h54.896 M162.284,0.175h8.787 M101.042,3.037l0.12,0.619l0.341,0.496l0.523,0.357l0.6,0.121l0.621-0.121l0.499-0.357l0.341-0.496
			l0.12-0.619 M101.042,0.175v2.862 M42.963,3.037l0.12,0.619l0.36,0.496l0.503,0.357l0.618,0.121l0.602-0.121l0.52-0.357
			l0.339-0.496l0.12-0.619 M46.146,3.037V0.175 M42.963,0.175v2.862 M34.18,122.136v6.942 M171.071,129.079v-6.942 M162.284,129.079
			h8.787 M162.284,126.213v2.865 M159.123,126.213l0.12-0.594l0.338-0.521l0.521-0.338l0.601-0.117l0.601,0.117l0.52,0.338
			l0.34,0.521l0.12,0.594 M159.123,129.079v-2.865 M104.206,129.079h54.917 M104.206,126.213v2.865 M101.042,126.213l0.12-0.594
			l0.341-0.521l0.523-0.338l0.6-0.117l0.621,0.117l0.499,0.338l0.341,0.521l0.12,0.594 M101.042,129.079v-2.865 M46.146,129.079
			h54.896 M46.146,126.213v2.865 M42.963,126.213l0.12-0.594l0.36-0.521l0.503-0.338l0.618-0.117l0.602,0.117l0.52,0.338
			l0.339,0.521l0.12,0.594 M42.963,129.079v-2.865 M34.18,129.079h8.784 M44.264,19.926v3.483 M44.264,62.896v3.483 M44.264,105.864
			v3.48 M43.404,19.926v3.483 M43.404,62.896v3.483 M43.404,105.864v3.48 M161.844,19.926v3.483 M161.844,62.896v3.483
			 M161.844,105.864v3.48 M160.983,19.926v3.483 M160.983,62.896v3.483 M160.983,105.864v3.48"/>
	</g>
</g>
</svg>
