<?xml version="1.0" encoding="utf-8"?>
<!-- Generator: Adobe Illustrator 15.0.2, SVG Export Plug-In . SVG Version: 6.00 Build 0)  -->
<!DOCTYPE svg PUBLIC "-//W3C//DTD SVG 1.1//EN" "http://www.w3.org/Graphics/SVG/1.1/DTD/svg11.dtd">
<svg version="1.1" id="Layer_1" xmlns="http://www.w3.org/2000/svg" xmlns:xlink="http://www.w3.org/1999/xlink" x="0px" y="0px"
	 width="111.635px" height="81.352px" viewBox="0 0 111.635 81.352" enable-background="new 0 0 111.635 81.352"
	 xml:space="preserve">
<path fill="none" stroke="#245684" stroke-width="0.35" stroke-linecap="round" stroke-linejoin="round" stroke-miterlimit="10" d="
	M27.538,15.592v-0.428 M26.778,15.592v-0.428 M27.538,65.758v0.409 M26.778,65.758v0.409"/>
<path fill="none" stroke="#245684" stroke-width="0.35" stroke-linecap="round" stroke-linejoin="round" stroke-miterlimit="10" d="
	M27.547,13.44v-3.354 M26.766,13.44v-3.354"/>
<path fill="none" stroke="#245684" stroke-width="0.35" stroke-miterlimit="10" d="M27.547,71.273v-3.39 M26.766,71.273v-3.39"/>
<path fill="none" stroke="#245684" stroke-width="0.35" stroke-linecap="round" stroke-linejoin="round" stroke-miterlimit="10" d="
	M98.829,65.758v0.409 M97.972,65.758v0.409 M98.829,15.592v-0.428 M97.972,15.592v-0.428 M26.778,65.758V15.592 M26.778,15.592
	h0.021h0.096h0.157h0.213h0.253h0.292h0.312h0.33 M28.453,65.758h-0.33h-0.312h-0.292h-0.253h-0.213h-0.157h-0.096h-0.021
	 M28.453,15.592h2.667 M31.12,65.758V15.592 M31.12,65.758h-2.667"/>
<path fill="none" stroke="#245684" stroke-width="0.35" stroke-linecap="round" stroke-linejoin="round" stroke-miterlimit="10" d="
	M98.842,67.859v3.386 M98.039,67.859v3.386 M98.842,10.086v3.406 M98.039,10.086v3.406"/>
<path fill="none" stroke="#245684" stroke-width="0.35" stroke-linecap="round" stroke-linejoin="round" stroke-miterlimit="10" d="
	M98.829,15.595v50.163 M97.164,15.595h0.324h0.307h0.288h0.246h0.212h0.155h0.094h0.039 M98.829,65.758H98.79h-0.094h-0.155h-0.212
	h-0.246h-0.288h-0.307h-0.324 M94.541,15.595v50.163 M94.541,15.595h2.624 M97.164,65.758h-2.624"/>
<path fill="none" stroke="#245684" stroke-width="0.35" stroke-miterlimit="10" d="M29.164,78.242l-0.078-0.46l-0.253-0.426
	l-0.371-0.309l-0.448-0.174h-0.486l-0.469,0.174l-0.37,0.309l-0.233,0.426l-0.098,0.46 M26.359,78.242v2.935 M26.359,81.177h-4.203
	 M22.156,81.177v-5.556 M103.431,75.621v5.556 M99.227,78.242l-0.078-0.46l-0.253-0.426l-0.368-0.309l-0.447-0.174h-0.489
	l-0.466,0.174l-0.369,0.309l-0.236,0.426l-0.094,0.46 M64.194,78.242l-0.076-0.46l-0.255-0.426l-0.368-0.309l-0.448-0.174h-0.486
	l-0.469,0.174l-0.37,0.309l-0.233,0.426l-0.098,0.46 M61.392,78.242v2.935 M61.392,81.177H29.164 M29.164,81.177v-2.935
	 M96.426,78.242v2.935 M103.431,81.177h-4.204 M96.426,81.177H64.194 M64.194,81.177v-2.935 M99.227,81.177v-2.935"/>
<path fill="none" stroke="#245684" stroke-width="0.35" stroke-linecap="round" stroke-linejoin="round" stroke-miterlimit="10" d="
	M103.447,74.529v0.179v0.166v0.163v0.143v0.108v0.093v0.036v0.019 M103.447,75.58v-0.036v-0.019v-0.018v-0.019v-0.019v-0.017v-0.019
	 M22.141,75.436v0.019v0.017v0.019v0.019v0.018v0.019v0.036"/>
<line fill="none" stroke="#245684" stroke-width="0.35" stroke-linecap="round" stroke-linejoin="round" stroke-miterlimit="10" x1="103.431" y1="75.415" x2="22.156" y2="75.415"/>
<path fill="none" stroke="#245684" stroke-width="0.35" stroke-linecap="round" stroke-linejoin="round" stroke-miterlimit="10" d="
	M103.447,66.247v8.212 M22.141,75.425v-0.02v-0.04V75.27v-0.116v-0.155v-0.173v-0.173v-0.192"/>
<path fill="none" stroke="#245684" stroke-width="0.35" stroke-linecap="round" stroke-linejoin="round" stroke-miterlimit="10" d="
	M22.156,66.263h22.157 M44.313,66.263V76.46 M44.313,76.46h36.705 M81.018,76.46V66.263"/>
<line fill="none" stroke="#245684" stroke-width="0.35" stroke-linecap="round" stroke-linejoin="round" stroke-miterlimit="10" x1="22.125" y1="74.45" x2="22.125" y2="66.247"/>
<line fill="none" stroke="#245684" stroke-width="0.35" stroke-linecap="round" stroke-linejoin="round" stroke-miterlimit="10" x1="81.131" y1="66.171" x2="103.431" y2="66.171"/>
<path fill="none" stroke="#245684" stroke-width="0.35" stroke-linecap="round" stroke-linejoin="round" stroke-miterlimit="10" d="
	M96.647,69.578l0.08,0.477l0.195,0.456l0.331,0.361l0.429,0.269l0.466,0.133h0.507l0.466-0.133l0.429-0.269l0.33-0.361l0.196-0.456
	l0.078-0.477l-0.078-0.477l-0.196-0.457l-0.33-0.362l-0.429-0.267l-0.466-0.132h-0.507l-0.466,0.132l-0.429,0.267l-0.331,0.362
	l-0.195,0.457L96.647,69.578z M25.433,69.578l0.078,0.477l0.214,0.456l0.311,0.361l0.429,0.269l0.489,0.133h0.484l0.489-0.133
	l0.407-0.269l0.331-0.361l0.214-0.456l0.06-0.477l-0.06-0.477l-0.214-0.457l-0.331-0.362l-0.407-0.267l-0.489-0.132h-0.484
	l-0.489,0.132l-0.429,0.267l-0.311,0.362l-0.214,0.457L25.433,69.578z M90.38,69.578l0.079,0.417l0.192,0.383l0.331,0.285
	l0.391,0.171l0.427,0.019l0.429-0.094l0.37-0.228l0.254-0.342l0.155-0.401v-0.418l-0.155-0.401L92.6,68.626l-0.37-0.228
	l-0.429-0.095l-0.427,0.017l-0.391,0.174l-0.331,0.284l-0.192,0.379L90.38,69.578z M32.559,69.578l0.078,0.417l0.196,0.383
	l0.331,0.285l0.387,0.171l0.429,0.019l0.429-0.094l0.371-0.228l0.253-0.342l0.154-0.401v-0.418l-0.154-0.401l-0.253-0.342
	l-0.371-0.228l-0.429-0.095l-0.429,0.017l-0.387,0.174l-0.331,0.284l-0.196,0.379L32.559,69.578z"/>
<path fill="none" stroke="#245684" stroke-width="0.35" stroke-linecap="round" stroke-linejoin="round" stroke-miterlimit="10" d="
	M96.425,3.058l0.097,0.477l0.233,0.401l0.37,0.326l0.469,0.152h0.486l0.447-0.152l0.371-0.326l0.253-0.401l0.075-0.477
	 M99.226,3.058V0.175 M99.226,0.175h4.207 M103.433,0.175v5.499 M22.155,5.674V0.175 M22.155,0.175h4.206 M26.361,0.175v2.883
	 M26.361,3.058l0.095,0.477l0.236,0.401l0.369,0.326l0.466,0.152h0.489l0.447-0.152l0.368-0.326l0.253-0.401l0.078-0.477
	 M29.163,3.058V0.175 M61.391,0.175v2.883 M61.391,3.058l0.098,0.477l0.233,0.401l0.372,0.326l0.466,0.152h0.486l0.45-0.152
	l0.368-0.326l0.252-0.401l0.078-0.477 M64.195,3.058V0.175 M64.195,0.175h32.23 M96.425,0.175v2.883 M29.163,0.175h32.229"/>
<path fill="none" stroke="#245684" stroke-width="0.35" stroke-linecap="round" stroke-linejoin="round" stroke-miterlimit="10" d="
	M0.176,9.229V9.096V9.075 M0.176,14.292v-0.075v-0.196v-0.327v-0.442v-0.523v-0.579v-0.621v-0.577V10.39V9.907V9.5V9.229
	 M28.92,11.762l-0.06-0.501l-0.214-0.445l-0.331-0.37l-0.409-0.269l-0.485-0.135h-0.489l-0.486,0.135l-0.428,0.269l-0.312,0.37
	l-0.214,0.445l-0.078,0.501l0.078,0.483l0.214,0.444l0.312,0.388l0.428,0.249l0.486,0.155h0.489l0.485-0.155l0.409-0.249
	l0.331-0.388l0.214-0.444L28.92,11.762z M100.155,11.762l-0.075-0.501l-0.196-0.445l-0.331-0.37l-0.428-0.269l-0.467-0.135H98.15
	l-0.466,0.135l-0.431,0.269l-0.331,0.37l-0.196,0.445l-0.076,0.501l0.076,0.483l0.196,0.444l0.331,0.388l0.431,0.249l0.466,0.155
	h0.507l0.467-0.155l0.428-0.249l0.331-0.388l0.196-0.444L100.155,11.762z M35.19,11.762l-0.06-0.425l-0.214-0.385l-0.309-0.29
	l-0.409-0.174l-0.429-0.041l-0.429,0.117l-0.352,0.233l-0.271,0.329l-0.135,0.404v0.445l0.135,0.406l0.271,0.328l0.352,0.253
	l0.429,0.094l0.429-0.037l0.409-0.173l0.309-0.292l0.214-0.366L35.19,11.762z M93.028,11.762l-0.06-0.425l-0.214-0.385l-0.31-0.29
	l-0.409-0.174l-0.427-0.041l-0.429,0.117l-0.35,0.233l-0.274,0.329l-0.135,0.404v0.445l0.135,0.406l0.274,0.328l0.35,0.253
	l0.429,0.094l0.427-0.037l0.409-0.173l0.31-0.292l0.214-0.366L93.028,11.762z M44.539,15.086H22.122 M103.447,6.891v8.195
	 M103.447,15.086h-22.18 M81.267,15.086V9.81 M81.267,9.81H44.539 M44.539,9.81v5.277 M22.122,15.086V6.891 M103.447,5.907v0.019
	v0.06v0.095v0.117v0.155v0.154v0.193v0.192 M22.122,6.891V6.699V6.506V6.352V6.197V6.081V5.985v-0.06V5.907 M22.122,5.907h81.325
	 M22.122,5.771v0.021v0.037v0.02v0.021v0.018v0.02 M103.447,5.907L103.447,5.907v-0.02V5.869V5.848v-0.02V5.791V5.771"/>
<polyline fill="none" stroke="#245684" stroke-width="0.35" stroke-linecap="round" stroke-linejoin="round" stroke-miterlimit="10" points="
	3.725,14.243 3.725,14.166 3.725,13.979 3.725,13.656 3.725,13.226 3.725,12.715 3.725,12.151 3.725,11.547 3.725,10.983 
	3.725,10.435 3.725,9.963 3.725,9.567 3.725,9.304 "/>
<polyline fill="none" stroke="#245684" stroke-width="0.35" stroke-linecap="round" stroke-linejoin="round" stroke-miterlimit="10" points="
	3.681,9.181 3.681,9.113 3.681,9.104 "/>
<polyline fill="none" stroke="#245684" stroke-width="0.35" stroke-linecap="round" stroke-linejoin="round" stroke-miterlimit="10" points="
	5.632,14.243 5.632,14.166 5.632,13.979 5.632,13.656 5.632,13.226 5.632,12.715 5.632,12.151 5.632,11.547 5.632,10.983 
	5.632,10.435 5.632,9.963 5.632,9.567 5.632,9.304 "/>
<path fill="none" stroke="#245684" stroke-width="0.35" stroke-linecap="round" stroke-linejoin="round" stroke-miterlimit="10" d="
	M0.175,61.81v-0.14v-0.019 M0.175,66.907v-0.078v-0.196v-0.331v-0.448v-0.523v-0.585v-0.621v-0.586v-0.564V62.49v-0.409V61.81
	 M5.514,9.26V9.124V9.103"/>
<polyline fill="none" stroke="#245684" stroke-width="0.35" stroke-linecap="round" stroke-linejoin="round" stroke-miterlimit="10" points="
	3.725,66.862 3.725,66.787 3.725,66.601 3.725,66.277 3.725,65.846 3.725,65.336 3.725,64.771 3.725,64.168 3.725,63.604 
	3.725,63.056 3.725,62.584 3.725,62.188 3.725,61.925 "/>
<polyline fill="none" stroke="#245684" stroke-width="0.35" stroke-linecap="round" stroke-linejoin="round" stroke-miterlimit="10" points="
	3.681,61.801 3.681,61.734 3.681,61.726 "/>
<polyline fill="none" stroke="#245684" stroke-width="0.35" stroke-linecap="round" stroke-linejoin="round" stroke-miterlimit="10" points="
	5.632,66.862 5.632,66.787 5.632,66.601 5.632,66.277 5.632,65.846 5.632,65.336 5.632,64.771 5.632,64.168 5.632,63.604 
	5.632,63.056 5.632,62.584 5.632,62.188 5.632,61.925 "/>
<path fill="none" stroke="#245684" stroke-width="0.35" stroke-linecap="round" stroke-linejoin="round" stroke-miterlimit="10" d="
	M103.583,62.009v0.409v0.564v0.621v0.665v0.659v0.643v0.566v0.427 M0.177,61.66L0.177,61.66v0.098v0.23v0.352v0.448v0.545v0.583
	v0.624v0.583v0.564v0.47v0.368v0.252v0.139 M103.583,8.753v0.078v0.214v0.35v0.466v0.566v0.621v0.662v0.662v0.643v0.564v0.428
	 M0.177,9.103L0.177,9.103V9.2v0.233v0.352v0.448v0.544v0.584v0.624v0.583v0.564v0.466v0.372v0.251v0.137 M103.583,14.007v0.08
	v0.214v0.35v0.485v0.566v0.623v0.661v0.662v0.624v0.563v0.489v0.35v0.214v0.076 M99.376,15.158v0.544v0.623v0.661v0.662v0.624v0.563
	v0.489v0.35v0.214v0.076 M99.376,24.52v0.078v0.214v0.35v0.485v0.564v0.625v0.661v0.662v0.624v0.564v0.489v0.35v0.211v0.078
	 M103.583,24.52v0.078v0.214v0.35v0.485v0.564v0.625v0.661v0.662v0.624v0.564v0.489v0.35v0.211v0.078 M103.583,35.031v0.078v0.215
	v0.35v0.486v0.564v0.624v0.661v0.662v0.624v0.564v0.486v0.35v0.217v0.075 M99.376,35.031v0.078v0.215v0.35v0.486v0.564v0.624v0.661
	v0.662v0.624v0.564v0.486v0.35v0.217v0.075 M103.583,45.543v0.075v0.215v0.352v0.486v0.564v0.624v0.661v0.662v0.621v0.567v0.486
	v0.35v0.215v0.078 M99.376,45.543v0.075v0.215v0.352v0.486v0.564v0.624v0.661v0.662v0.621v0.567v0.486v0.35v0.215v0.078
	 M99.376,56.052v0.078v0.215v0.349v0.489v0.564v0.621v0.665v0.661v0.621v0.564v0.489v0.35v0.214v0.078 M103.583,56.052v0.078v0.215
	v0.349v0.489v0.564v0.621v0.665v0.661v0.621v0.564v0.489v0.35v0.214v0.078 M103.583,66.563v0.078v0.214v0.35v0.489v0.563v0.621
	v0.665v0.661v0.621v0.564v0.489v0.35v0.214v0.078 M103.583,19.963v0.432v0.563v0.62v0.662v0.662v0.624v0.564v0.429 M99.376,19.265
	v0.078v0.214v0.35v0.489v0.563v0.62v0.662v0.662v0.624v0.564v0.489v0.35v0.214v0.078 M103.583,30.475v0.43v0.563v0.624v0.661v0.662
	v0.624v0.564v0.429 M99.376,29.776v0.078v0.214v0.35v0.486v0.563v0.624v0.661v0.662v0.624v0.564v0.486v0.352v0.215v0.075
	 M99.376,40.287v0.076v0.214v0.353v0.486v0.564v0.624v0.66v0.662v0.621v0.567V45.6v0.35v0.215v0.078 M103.583,40.986v0.429v0.564
	v0.624v0.66v0.662v0.621v0.567v0.429 M99.376,50.796v0.078v0.215v0.35v0.488v0.564v0.624v0.661v0.662v0.624v0.563v0.486v0.35v0.214
	v0.079 M103.583,51.498v0.429v0.564v0.624v0.661v0.662v0.624v0.563v0.427 M5.589,61.814v-0.136V61.66"/>
<polyline fill="none" stroke="#245684" stroke-width="0.35" stroke-linecap="round" stroke-linejoin="round" stroke-miterlimit="10" points="
	103.68,72.152 104.217,72.134 105.177,72.057 106.121,71.922 107.042,71.691 107.946,71.382 108.771,70.976 109.48,70.533 
	110.078,70.031 110.577,69.492 110.961,68.893 111.229,68.276 111.403,67.64 111.46,66.927 111.403,66.232 111.211,65.56 
	110.942,64.961 110.557,64.382 110.078,63.862 109.48,63.36 108.808,62.938 108.021,62.55 107.156,62.242 106.235,61.991 
	105.275,61.838 104.314,61.76 103.68,61.742 "/>
<polyline fill="none" stroke="#245684" stroke-width="0.35" stroke-linecap="round" stroke-linejoin="round" stroke-miterlimit="10" points="
	106.429,66.305 106.429,66.305 106.373,66.355 106.202,66.442 105.917,66.562 105.558,66.684 105.084,66.787 104.556,66.854 
	103.966,66.906 103.663,66.906 "/>
<polyline fill="none" stroke="#245684" stroke-width="0.35" stroke-linecap="round" stroke-linejoin="round" stroke-miterlimit="10" points="
	103.68,40.58 104.217,40.562 105.177,40.486 106.121,40.35 107.042,40.116 107.946,39.811 108.771,39.404 109.48,38.962 
	110.078,38.46 110.577,37.919 110.961,37.321 111.229,36.705 111.403,36.068 111.46,35.354 111.403,34.661 111.211,33.988 
	110.942,33.388 110.557,32.811 110.078,32.291 109.48,31.789 108.808,31.362 108.021,30.978 107.156,30.668 106.235,30.419 
	105.275,30.265 104.314,30.189 103.68,30.169 "/>
<polyline fill="none" stroke="#245684" stroke-width="0.35" stroke-linecap="round" stroke-linejoin="round" stroke-miterlimit="10" points="
	106.429,34.732 106.429,34.732 106.373,34.784 106.202,34.871 105.917,34.99 105.558,35.109 105.084,35.216 104.556,35.283 
	103.966,35.335 103.663,35.335 "/>
<polyline fill="none" stroke="#245684" stroke-width="0.35" stroke-linecap="round" stroke-linejoin="round" stroke-miterlimit="10" points="
	103.68,30.057 104.217,30.038 105.177,29.958 106.121,29.826 107.042,29.593 107.946,29.286 108.771,28.879 109.48,28.436 
	110.078,27.937 110.577,27.396 110.961,26.796 111.229,26.182 111.403,25.544 111.46,24.831 111.403,24.136 111.211,23.462 
	110.942,22.865 110.557,22.287 110.078,21.767 109.48,21.265 108.808,20.839 108.021,20.453 107.156,20.145 106.235,19.895 
	105.275,19.741 104.314,19.664 103.68,19.646 "/>
<polyline fill="none" stroke="#245684" stroke-width="0.35" stroke-linecap="round" stroke-linejoin="round" stroke-miterlimit="10" points="
	106.429,24.208 106.429,24.208 106.373,24.259 106.202,24.347 105.917,24.469 105.558,24.588 105.084,24.691 104.556,24.758 
	103.966,24.81 103.663,24.81 "/>
<polyline fill="none" stroke="#245684" stroke-width="0.35" stroke-linecap="round" stroke-linejoin="round" stroke-miterlimit="10" points="
	103.68,19.533 104.217,19.513 105.177,19.435 106.121,19.303 107.042,19.069 107.946,18.76 108.771,18.356 109.48,17.911 
	110.078,17.412 110.577,16.87 110.961,16.273 111.229,15.657 111.403,15.021 111.46,14.307 111.403,13.612 111.211,12.938 
	110.942,12.342 110.557,11.76 110.078,11.242 109.48,10.74 108.808,10.315 108.021,9.93 107.156,9.62 106.235,9.371 105.275,9.216 
	104.314,9.141 103.68,9.118 "/>
<polyline fill="none" stroke="#245684" stroke-width="0.35" stroke-linecap="round" stroke-linejoin="round" stroke-miterlimit="10" points="
	106.429,13.684 106.429,13.684 106.373,13.736 106.202,13.822 105.917,13.941 105.558,14.063 105.084,14.166 104.556,14.233 
	103.966,14.285 103.663,14.285 "/>
<polyline fill="none" stroke="#245684" stroke-width="0.35" stroke-linecap="round" stroke-linejoin="round" stroke-miterlimit="10" points="
	103.68,51.104 104.217,51.086 105.177,51.011 106.121,50.874 107.042,50.644 107.946,50.335 108.771,49.927 109.48,49.485 
	110.078,48.984 110.577,48.444 110.961,47.846 111.229,47.23 111.403,46.592 111.46,45.879 111.403,45.184 111.211,44.512 
	110.942,43.913 110.557,43.335 110.078,42.813 109.48,42.313 108.808,41.89 108.021,41.501 107.156,41.193 106.235,40.942 
	105.275,40.789 104.314,40.712 103.68,40.694 "/>
<polyline fill="none" stroke="#245684" stroke-width="0.35" stroke-linecap="round" stroke-linejoin="round" stroke-miterlimit="10" points="
	106.429,45.257 106.429,45.257 106.373,45.309 106.202,45.395 105.917,45.514 105.558,45.634 105.084,45.739 104.556,45.807 
	103.966,45.859 103.663,45.859 "/>
<polyline fill="none" stroke="#245684" stroke-width="0.35" stroke-linecap="round" stroke-linejoin="round" stroke-miterlimit="10" points="
	103.68,61.629 104.217,61.609 105.177,61.534 106.121,61.399 107.042,61.164 107.946,60.858 108.771,60.452 109.48,60.01 
	110.078,59.508 110.577,58.969 110.961,58.369 111.229,57.753 111.403,57.116 111.46,56.402 111.403,55.709 111.211,55.036 
	110.942,54.437 110.557,53.859 110.078,53.338 109.48,52.837 108.808,52.414 108.021,52.026 107.156,51.719 106.235,51.467 
	105.275,51.315 104.314,51.237 103.68,51.217 "/>
<path fill="none" stroke="#245684" stroke-width="0.35" stroke-linecap="round" stroke-linejoin="round" stroke-miterlimit="10" d="
	M0.175,14.358h3.506 M3.681,9.103H0.175 M5.591,14.358h15.032 M22.124,9.103H5.591 M106.429,55.702L106.429,55.702l-0.057,0.057
	l-0.176,0.099l-0.294,0.138l-0.368,0.136l-0.489,0.117l-0.544,0.075l-0.603,0.06h-0.312"/>
<path fill="none" stroke="#245684" stroke-width="0.35" stroke-linecap="round" stroke-linejoin="round" stroke-miterlimit="10" d="
	M3.729,14.258l0.16,0.247l0.195,0.189l0.248,0.114l0.268,0.038l0.266-0.038l0.25-0.114l0.213-0.189l0.142-0.247 M5.47,9.132
	L5.329,8.885L5.115,8.696l-0.25-0.114L4.599,8.544L4.332,8.582L4.084,8.696L3.889,8.885l-0.16,0.247"/>
<path fill="none" stroke="#245684" stroke-width="0.35" stroke-linecap="round" stroke-linejoin="round" stroke-miterlimit="10" d="
	M5.562,66.907h7.552 M13.113,61.725H5.562 M0.175,66.907h3.488 M3.663,61.725H0.175"/>
<path fill="none" stroke="#245684" stroke-width="0.35" stroke-linecap="round" stroke-linejoin="round" stroke-miterlimit="10" d="
	M3.729,66.878l0.16,0.248l0.195,0.189l0.248,0.114l0.268,0.039l0.266-0.039l0.25-0.114l0.213-0.189l0.142-0.248 M5.47,61.754
	l-0.142-0.248l-0.213-0.189l-0.25-0.113l-0.266-0.039l-0.268,0.039l-0.248,0.113l-0.195,0.189l-0.16,0.248"/>
<path fill="none" stroke="#245684" stroke-width="0.35" stroke-linecap="round" stroke-linejoin="round" stroke-miterlimit="10" d="
	M13.205,24.907l-0.288,1.028l-0.136,1.05v1.087l0.136,1.049l0.288,1.048l0.422,0.973l0.556,0.931l0.672,0.815l0.768,0.737
	l0.865,0.621l0.941,0.486l1.02,0.368l1.035,0.214l1.058,0.078 M13.205,45.881l-0.288,1.027l-0.136,1.05v1.087l0.136,1.05
	l0.288,1.046l0.422,0.974l0.556,0.931l0.672,0.815l0.768,0.738l0.865,0.621l0.941,0.486l1.02,0.368l1.035,0.215l1.058,0.079"/>
<path fill="none" stroke="#245684" stroke-width="0.35" stroke-linecap="round" stroke-linejoin="round" stroke-miterlimit="10" d="
	M103.583,66.635h-0.057 M103.527,72.521h0.057"/>
<path fill="none" stroke="#245684" stroke-width="0.35" stroke-linecap="round" stroke-linejoin="round" stroke-miterlimit="10" d="
	M20.593,66.929l-0.637-0.078l-0.581-0.212l-0.523-0.368l-0.404-0.463l-0.29-0.562l-0.155-0.619v-0.621l0.155-0.618l0.29-0.562
	l0.404-0.463l0.523-0.37l0.581-0.212l0.637-0.078 M20.593,56.479l-1.063,0.077l-1.043,0.214l-1.026,0.366l-0.945,0.486l-0.872,0.619
	l-0.772,0.735l-0.678,0.813l-0.559,0.928l-0.426,0.968l-0.29,1.044l-0.135,1.047v1.082l0.135,1.044l0.29,1.047l0.426,0.966
	l0.559,0.93l0.678,0.814l0.772,0.735l0.872,0.619l0.945,0.485l1.026,0.366l1.043,0.213l1.063,0.077 M26.684,56.479h-6.091
	 M20.593,61.703h6.091"/>
<line fill="none" stroke="#245684" stroke-width="0.35" stroke-linecap="round" stroke-linejoin="round" stroke-miterlimit="10" x1="20.639" y1="72.178" x2="22.06" y2="72.178"/>
<line fill="none" stroke="#245684" stroke-width="0.35" stroke-linecap="round" stroke-linejoin="round" stroke-miterlimit="10" x1="22.044" y1="66.911" x2="20.655" y2="66.911"/>
<path fill="none" stroke="#245684" stroke-width="0.35" stroke-linecap="round" stroke-linejoin="round" stroke-miterlimit="10" d="
	M99.024,56.462h-0.117 M98.908,61.645h0.117"/>
<path fill="none" stroke="#245684" stroke-width="0.35" stroke-linecap="round" stroke-linejoin="round" stroke-miterlimit="10" d="
	M103.568,56.127h-4.099 M99.469,61.98h4.099"/>
<path fill="none" stroke="#245684" stroke-width="0.35" stroke-linecap="round" stroke-linejoin="round" stroke-miterlimit="10" d="
	M99.373,45.589v0.076l-0.016,0.057l-0.033,0.06l-0.032,0.057l-0.052,0.041l-0.049,0.039l-0.049,0.019h-0.067 M99.075,51.173h0.067
	l0.049,0.021l0.049,0.036l0.052,0.04l0.032,0.058l0.033,0.06l0.016,0.057v0.078 M99.075,45.937h-0.166 M98.909,51.173h0.166
	 M99.373,56.06v0.08l-0.016,0.057l-0.033,0.06l-0.032,0.057l-0.052,0.04l-0.049,0.038l-0.049,0.02h-0.067 M99.075,61.646h0.067
	l0.049,0.019l0.049,0.041l0.052,0.038l0.032,0.057l0.033,0.06l0.016,0.057v0.078"/>
<path fill="none" stroke="#245684" stroke-width="0.35" stroke-linecap="round" stroke-linejoin="round" stroke-miterlimit="10" d="
	M26.778,45.883h-6.132 M20.646,51.106h6.132 M20.646,45.883l-0.642-0.08l-0.583-0.213l-0.527-0.367l-0.409-0.463l-0.29-0.561
	l-0.158-0.621v-0.619l0.158-0.619l0.29-0.562l0.409-0.466l0.527-0.367l0.583-0.213l0.642-0.077 M20.646,35.432l-1.071,0.075
	l-1.049,0.215l-1.034,0.368l-0.951,0.483l-0.876,0.619l-0.781,0.735l-0.681,0.813l-0.564,0.931l-0.428,0.966l-0.29,1.047
	l-0.139,1.044v1.084l0.139,1.045l0.29,1.046l0.428,0.965l0.564,0.931l0.681,0.813l0.781,0.734l0.876,0.619l0.951,0.486l1.034,0.366
	l1.049,0.214l1.071,0.076 M26.778,35.432h-6.132 M20.646,40.657h6.132 M103.566,45.534h-4.203 M99.363,51.456h4.203"/>
<path fill="none" stroke="#245684" stroke-width="0.35" stroke-linecap="round" stroke-linejoin="round" stroke-miterlimit="10" d="
	M99.374,35.063v0.077l-0.016,0.06l-0.033,0.057l-0.035,0.057l-0.049,0.037l-0.052,0.038l-0.049,0.021h-0.068 M99.073,40.601h0.068
	l0.049,0.02l0.052,0.037l0.049,0.038l0.035,0.06l0.033,0.057l0.016,0.057v0.076 M99.073,35.409h-0.166 M98.908,40.601h0.166"/>
<path fill="none" stroke="#245684" stroke-width="0.35" stroke-linecap="round" stroke-linejoin="round" stroke-miterlimit="10" d="
	M103.568,35.081h-4.099 M99.469,40.931h4.099"/>
<path fill="none" stroke="#245684" stroke-width="0.35" stroke-linecap="round" stroke-linejoin="round" stroke-miterlimit="10" d="
	M99.374,24.54v0.075l-0.016,0.06l-0.033,0.057l-0.035,0.057l-0.049,0.038l-0.052,0.039l-0.049,0.019h-0.068 M99.073,30.078h0.068
	l0.049,0.019l0.052,0.039l0.049,0.038l0.035,0.06l0.033,0.057l0.016,0.057v0.078 M99.073,24.884h-0.166 M98.908,30.078h0.166"/>
<path fill="none" stroke="#245684" stroke-width="0.35" stroke-linecap="round" stroke-linejoin="round" stroke-miterlimit="10" d="
	M20.655,19.646h6.131 M103.566,24.505h-4.203 M99.363,30.406h4.203"/>
<line fill="none" stroke="#245684" stroke-width="0.35" stroke-linecap="round" stroke-linejoin="round" stroke-miterlimit="10" x1="22.061" y1="14.352" x2="20.639" y2="14.352"/>
<path fill="none" stroke="#245684" stroke-width="0.35" stroke-linecap="round" stroke-linejoin="round" stroke-miterlimit="10" d="
	M26.684,24.831h-6.091 M20.593,30.058h6.091 M20.593,24.831l-0.637-0.078l-0.581-0.212l-0.523-0.368l-0.404-0.465l-0.29-0.56
	l-0.155-0.619v-0.619l0.155-0.621l0.29-0.562l0.404-0.463l0.523-0.367l0.581-0.214l0.637-0.076 M20.593,14.382l-1.063,0.08
	l-1.043,0.212l-1.026,0.366l-0.945,0.486l-0.872,0.619l-0.772,0.734l-0.678,0.813l-0.559,0.93l-0.426,0.966l-0.29,1.046
	l-0.135,1.043v1.086l0.135,1.044l0.29,1.044l0.426,0.968l0.559,0.93l0.678,0.812l0.772,0.735l0.872,0.619l0.945,0.484l1.026,0.369
	l1.043,0.212l1.063,0.078"/>
<path fill="none" stroke="#245684" stroke-width="0.35" stroke-linecap="round" stroke-linejoin="round" stroke-miterlimit="10" d="
	M99.073,19.628h0.068l0.049,0.015l0.052,0.032l0.049,0.03l0.035,0.042l0.033,0.046l0.016,0.046v0.06 M98.908,19.628h0.166"/>
<line fill="none" stroke="#245684" stroke-width="0.35" stroke-linecap="round" stroke-linejoin="round" stroke-miterlimit="10" x1="99.469" y1="19.968" x2="103.568" y2="19.968"/>
<path fill="none" stroke="#245684" stroke-width="0.35" stroke-linecap="round" stroke-linejoin="round" stroke-miterlimit="10" d="
	M0.175,66.907h3.506 M5.591,66.907h7.593 M13.184,61.651H5.591 M3.681,61.651H0.175 M103.583,8.754h-0.135 M0.175,14.357h3.506
	 M5.591,14.357h15.032 M22.122,9.105H5.591 M3.681,9.105H0.175 M103.583,14.007h-0.135"/>
</svg>
