<?xml version="1.0" encoding="utf-8"?>
<!-- Generator: Adobe Illustrator 15.0.2, SVG Export Plug-In . SVG Version: 6.00 Build 0)  -->
<!DOCTYPE svg PUBLIC "-//W3C//DTD SVG 1.1//EN" "http://www.w3.org/Graphics/SVG/1.1/DTD/svg11.dtd">
<svg version="1.1" id="Layer_1" xmlns="http://www.w3.org/2000/svg" xmlns:xlink="http://www.w3.org/1999/xlink" x="0px" y="0px"
	 width="160.25px" height="140.884px" viewBox="0 0 160.25 140.884" enable-background="new 0 0 160.25 140.884"
	 xml:space="preserve">
<g>
	<g>
		
			<path fill="none" stroke="#245684" stroke-width="0.35" stroke-linecap="round" stroke-linejoin="round" stroke-miterlimit="10" d="
			M149.681,123.141h0.047l0.067,0.017l0.049,0.032l0.047,0.032l0.034,0.05l0.016,0.047l0.016,0.05l0.017,0.064 M149.974,123.434
			h0.554 M149.503,123.141h0.178 M29.781,123.141h1.139 M149.974,18.034h0.554 M149.681,17.74h0.047l0.067,0.018l0.049,0.031
			l0.047,0.032l0.034,0.049l0.016,0.048l0.016,0.05l0.017,0.065 M149.503,17.74h0.178 M29.781,17.74h1.139 M22.836,11.981V12
			l-0.214,0.634l-0.082,0.715 M22.541,13.349L22.541,13.349l0.082,0.7l0.195,0.634l0.019,0.032 M22.836,126.167v0.015l-0.214,0.636
			l-0.082,0.716 M22.541,127.534L22.541,127.534l0.082,0.7l0.195,0.635l0.019,0.03 M4.161,60.926L3.932,60.73L3.671,60.6
			l-0.275-0.097l-0.293-0.017l-0.292,0.017L2.534,60.6L2.275,60.73l-0.229,0.196 M2.046,66.782l0.229,0.194l0.259,0.132l0.277,0.097
			l0.292,0.016l0.293-0.016l0.275-0.097l0.261-0.132l0.229-0.194 M4.161,66.782h6.848 M11.008,60.926H4.161 M0.175,66.782h1.871
			 M2.046,60.926H0.175 M4.161,74.102l-0.229-0.197l-0.261-0.129l-0.275-0.097l-0.293-0.016l-0.292,0.016l-0.277,0.097l-0.259,0.129
			l-0.229,0.197 M2.046,79.956l0.229,0.194l0.259,0.132l0.277,0.097l0.292,0.016l0.293-0.016l0.275-0.097l0.261-0.132l0.229-0.194
			 M0.175,79.956h1.871 M2.046,74.102H0.175 M4.161,79.956h6.848 M11.008,74.102H4.161 M17.303,60.73l-0.081-0.081l-0.097-0.082
			l-0.097-0.064l-0.114-0.064l-0.113-0.033l-0.116-0.032l-0.13-0.034h-0.114 M16.441,67.368h0.114l0.13-0.034l0.116-0.031
			l0.113-0.032l0.114-0.065l0.097-0.066l0.097-0.081l0.081-0.083 M11.008,67.368h5.433 M16.441,60.339h-5.433 M19.305,67.497
			l0.521,0.797l0.634,0.731l0.732,0.635l0.797,0.521l0.848,0.423 M22.836,57.087l-0.864,0.44l-0.796,0.536l-0.716,0.634
			l-0.634,0.715l-0.521,0.797 M19.287,60.209l-0.016,0.05l-0.276,0.324l-0.374,0.229l-0.423,0.114l-0.128-0.017 M18.069,66.797
			h0.178l0.423,0.131l0.391,0.26l0.244,0.309 M17.303,66.976l0.051-0.047l0.047-0.034l0.05-0.032l0.048-0.031l0.065-0.019
			l0.065-0.015l0.047-0.016h0.066 M17.743,60.926h-0.066l-0.047-0.017l-0.065-0.015l-0.065-0.016l-0.048-0.034l-0.05-0.032
			l-0.047-0.033l-0.051-0.049 M17.743,66.782h0.326 M18.069,60.926h-0.326 M11.008,80.542h5.433 M16.441,73.517h-5.433
			 M17.303,73.905l-0.081-0.082l-0.097-0.082l-0.097-0.063l-0.114-0.065l-0.113-0.032l-0.116-0.035l-0.13-0.031h-0.114
			 M16.441,80.542h0.114l0.13-0.031l0.116-0.034l0.113-0.032l0.114-0.065l0.097-0.065l0.097-0.082l0.081-0.082 M19.287,73.385
			l-0.016,0.049l-0.276,0.324l-0.374,0.228l-0.423,0.116l-0.128-0.017 M19.305,80.671l0.521,0.797l0.634,0.734l0.732,0.634
			l0.797,0.521l0.848,0.421 M22.46,70.44l-0.488,0.261l-0.796,0.536l-0.716,0.635l-0.634,0.715l-0.521,0.797 M18.069,79.974h0.178
			l0.423,0.129l0.391,0.261l0.244,0.307 M17.303,80.15l0.051-0.047l0.047-0.032l0.05-0.033l0.048-0.032l0.065-0.016l0.065-0.017
			l0.047-0.018h0.066 M17.743,74.102h-0.066l-0.047-0.017l-0.065-0.017l-0.065-0.016l-0.048-0.034l-0.05-0.032l-0.047-0.031
			l-0.051-0.05 M17.743,79.956h0.326 M18.069,74.102h-0.326 M157.521,130.541l0.618-0.551l0.668-0.779l0.553-0.879l0.389-0.959
			l0.245-1.007l0.082-1.026l-0.082-1.026l-0.245-1.007l-0.389-0.961l-0.553-0.878l-0.668-0.782l-0.618-0.551 M159.702,35.309
			l0.048-0.164l0.245-1.008l0.082-1.026l-0.082-1.024l-0.245-1.009l-0.389-0.958l-0.553-0.879l-0.668-0.781l-0.618-0.552
			 M159.702,52.875l0.048-0.164l0.245-1.008l0.082-1.026l-0.082-1.025l-0.245-1.008l-0.389-0.96l-0.553-0.879l-0.668-0.781
			l-0.618-0.552 M159.702,70.44l0.048-0.163l0.245-1.007l0.082-1.024l-0.082-1.026l-0.245-1.007l-0.389-0.961l-0.553-0.877
			l-0.668-0.782l-0.618-0.553 M159.702,88.009l0.048-0.164l0.245-1.007l0.082-1.026l-0.082-1.024l-0.245-1.01l-0.389-0.957
			l-0.553-0.879l-0.668-0.781l-0.618-0.553 M159.702,105.574l0.048-0.16l0.245-1.008l0.082-1.026l-0.082-1.025l-0.245-1.008
			l-0.389-0.96l-0.553-0.879l-0.668-0.781l-0.618-0.553 M159.702,123.141l0.048-0.163l0.245-1.007l0.082-1.024l-0.082-1.026
			l-0.245-1.008l-0.389-0.96l-0.553-0.878l-0.668-0.782l-0.618-0.553 M157.521,42.708l0.618-0.552l0.668-0.782l0.553-0.878
			l0.389-0.958l0.245-1.01l0.082-1.024l-0.082-1.026l-0.245-1.007l-0.389-0.96l-0.553-0.879l-0.668-0.78l-0.618-0.553
			 M157.521,60.276l0.618-0.553l0.668-0.781l0.553-0.879l0.389-0.96l0.245-1.008l0.082-1.026l-0.082-1.023l-0.245-1.011
			l-0.389-0.958l-0.553-0.879l-0.668-0.781l-0.618-0.553 M159.702,17.74l0.048-0.161l0.245-1.01l0.082-1.023l-0.082-1.027
			l-0.245-1.007l-0.389-0.96l-0.553-0.878l-0.668-0.781l-0.618-0.553 M157.521,25.143l0.618-0.555l0.668-0.78l0.553-0.879
			l0.389-0.958l0.245-1.011l0.082-1.023l-0.082-1.026l-0.245-1.007l-0.389-0.96l-0.553-0.878l-0.668-0.779l-0.618-0.553
			 M157.521,112.977l0.618-0.553l0.668-0.78l0.553-0.879l0.389-0.959l0.245-1.008l0.082-1.025l-0.082-1.024l-0.245-1.01
			l-0.389-0.958l-0.553-0.878l-0.668-0.782l-0.618-0.553 M157.521,95.409l0.618-0.553l0.668-0.781l0.553-0.878l0.389-0.958
			l0.245-1.009l0.082-1.023l-0.082-1.025l-0.245-1.008l-0.389-0.959l-0.553-0.879l-0.668-0.781l-0.618-0.553 M157.521,77.843
			l0.618-0.551l0.668-0.782l0.553-0.879l0.389-0.96l0.245-1.007l0.082-1.026l-0.082-1.026l-0.245-1.007l-0.389-0.96l-0.553-0.878
			l-0.668-0.78l-0.618-0.555 M22.836,92.659l-0.214,0.912l-0.082,1.025l0.082,1.026l0.214,0.91 M22.836,79.485l-0.214,0.91
			l-0.082,1.026l0.082,1.024l0.214,0.912 M149.974,92.693v0.145v0.506v0.601v0.65v0.439 M22.836,97.053l-0.214,0.911l-0.082,1.022
			l0.082,1.027l0.214,0.91 M149.974,45.849v0.439v0.65v0.584v0.521v0.148 M22.836,39.958l-0.214,0.914l-0.082,1.022l0.082,1.024
			l0.214,0.912 M22.836,44.352l-0.214,0.911l-0.082,1.025l0.082,1.024l0.214,0.91 M149.974,17.448v0.082v0.242v0.407v0.505v0.227
			 M22.836,22.394l-0.214,0.91l-0.082,1.024l0.082,1.027l0.214,0.909 M22.836,26.784l-0.214,0.91l-0.082,1.026l0.082,1.024
			l0.214,0.91 M22.836,110.228l-0.214,0.91l-0.082,1.026l0.082,1.022l0.214,0.914 M149.974,121.971v0.21v0.521v0.392v0.261v0.08
			 M22.836,114.618l-0.214,0.912l-0.082,1.024l0.082,1.027l0.214,0.91 M149.974,16.569v0.21v0.521v0.391v0.261v0.081
			 M149.974,122.849v0.082v0.244v0.406v0.504v0.227 M4.161,61.657v0.521v0.618v0.684v0.715v0.684v0.619v0.535v0.408v0.26v0.082
			 M4.161,60.926v0.081v0.245v0.405 M2.046,61.657v-0.405v-0.245v-0.081 M2.046,66.782L2.046,66.782V66.7v-0.26v-0.408v-0.535
			v-0.619v-0.684V63.48v-0.684v-0.618v-0.521 M17.743,61.657v-0.405v-0.245v-0.081 M17.743,66.782L17.743,66.782V66.7v-0.26v-0.408
			v-0.535v-0.619v-0.684V63.48v-0.684v-0.618v-0.521 M0.175,61.657v-0.405v-0.245v-0.081 M0.175,66.782L0.175,66.782V66.7v-0.26
			v-0.408v-0.535v-0.619v-0.684V63.48v-0.684v-0.618v-0.521 M4.161,74.833v0.518v0.622v0.681v0.716v0.684v0.618v0.536v0.406v0.26
			v0.082 M4.161,74.102v0.08v0.244v0.407 M2.046,74.833v-0.407v-0.244v-0.08 M2.046,79.956L2.046,79.956v-0.082v-0.26v-0.406v-0.536
			v-0.618V77.37v-0.716v-0.681v-0.622v-0.518 M0.175,74.833v-0.407v-0.244v-0.08 M0.175,79.956L0.175,79.956v-0.082v-0.26v-0.406
			v-0.536v-0.618V77.37v-0.716v-0.681v-0.622v-0.518 M17.743,74.833v-0.407v-0.244v-0.08 M17.743,79.956L17.743,79.956v-0.082v-0.26
			v-0.406v-0.536v-0.618V77.37v-0.716v-0.681v-0.622v-0.518 M11.008,67.368v-0.05v-0.195v-0.358v-0.489v-0.618v-0.683v-0.748V63.48
			v-0.747v-0.685V61.43v-0.489v-0.358v-0.194v-0.05 M11.008,80.542v-0.05v-0.194v-0.357V79.45v-0.616v-0.683v-0.747v-0.75v-0.748
			v-0.683v-0.618v-0.487v-0.36v-0.195v-0.046 M142.589,90.902l0.456,0.082l0.389,0.244l0.279,0.357l0.129,0.44l-0.05,0.456
			l-0.194,0.422l-0.343,0.311l-0.421,0.16h-0.473l-0.423-0.16l-0.34-0.311l-0.197-0.422l-0.047-0.456l0.129-0.44l0.279-0.357
			l0.389-0.244L142.589,90.902z M149.095,121.679l0.505,0.082l0.439,0.261l0.327,0.389l0.162,0.471v0.505l-0.162,0.486l-0.327,0.392
			l-0.439,0.244l-0.505,0.098l-0.503-0.098l-0.439-0.244l-0.326-0.392l-0.179-0.486v-0.505l0.179-0.471l0.326-0.389l0.439-0.261
			L149.095,121.679z M31.244,16.277l0.505,0.082l0.438,0.26l0.325,0.39l0.181,0.471v0.504l-0.181,0.49l-0.325,0.389l-0.438,0.245
			l-0.505,0.097l-0.503-0.097l-0.438-0.245l-0.326-0.389l-0.163-0.49V17.48l0.163-0.471l0.326-0.39l0.438-0.26L31.244,16.277z
			 M37.768,47.474l0.456,0.083l0.389,0.242l0.279,0.376l0.113,0.44l-0.033,0.455l-0.211,0.405l-0.342,0.31l-0.423,0.164h-0.456
			l-0.424-0.164l-0.339-0.31l-0.213-0.405l-0.032-0.455l0.113-0.44l0.276-0.376l0.393-0.242L37.768,47.474z M111.895,121.597
			l0.455,0.082l0.389,0.245l0.276,0.374l0.116,0.439l-0.034,0.454l-0.21,0.406l-0.343,0.311l-0.423,0.163h-0.454l-0.421-0.163
			l-0.345-0.311l-0.21-0.406l-0.032-0.454l0.114-0.439l0.276-0.374l0.392-0.245L111.895,121.597z M68.478,121.597l0.44,0.082
			l0.389,0.245l0.279,0.374l0.128,0.439l-0.047,0.454l-0.197,0.406l-0.339,0.311l-0.423,0.163h-0.474l-0.421-0.163l-0.341-0.311
			l-0.195-0.406l-0.049-0.454l0.13-0.439l0.276-0.374l0.391-0.245L68.478,121.597z M37.768,90.902l0.456,0.082l0.389,0.244
			l0.279,0.357l0.113,0.44l-0.033,0.456l-0.211,0.422l-0.342,0.311l-0.423,0.16h-0.456l-0.424-0.16l-0.339-0.311l-0.213-0.422
			l-0.032-0.456l0.113-0.44l0.276-0.357l0.393-0.244L37.768,90.902z M31.244,121.679l0.505,0.082l0.438,0.261l0.325,0.389
			l0.181,0.471v0.505l-0.181,0.486l-0.325,0.392l-0.438,0.244l-0.505,0.098l-0.503-0.098l-0.438-0.244l-0.326-0.392l-0.163-0.486
			v-0.505l0.163-0.471l0.326-0.389l0.438-0.261L31.244,121.679z M149.095,16.277l0.505,0.082l0.439,0.26l0.327,0.39l0.162,0.471
			v0.504l-0.162,0.49l-0.327,0.389l-0.439,0.245l-0.505,0.097l-0.503-0.097l-0.439-0.245l-0.326-0.389l-0.179-0.49V17.48
			l0.179-0.471l0.326-0.39l0.439-0.26L149.095,16.277z M142.589,47.474l0.456,0.083l0.389,0.242l0.279,0.376l0.129,0.44l-0.05,0.455
			l-0.194,0.405l-0.343,0.31l-0.421,0.164h-0.473l-0.423-0.164l-0.34-0.31l-0.197-0.405l-0.047-0.455l0.129-0.44l0.279-0.376
			l0.389-0.242L142.589,47.474z M111.895,16.78l0.455,0.082l0.389,0.245l0.276,0.357l0.116,0.44l-0.034,0.455l-0.21,0.423
			l-0.343,0.309l-0.423,0.162h-0.454l-0.421-0.162l-0.345-0.309l-0.21-0.423l-0.032-0.455l0.114-0.44l0.276-0.357l0.392-0.245
			L111.895,16.78z M68.478,16.78l0.44,0.082l0.389,0.245l0.279,0.357l0.128,0.44l-0.047,0.455l-0.197,0.423L69.13,19.09
			l-0.423,0.162h-0.474l-0.421-0.162l-0.341-0.309l-0.195-0.423l-0.049-0.455l0.13-0.44l0.276-0.357l0.391-0.245L68.478,16.78z
			 M22.836,6.729v127.409 M157.521,134.137V6.729 M149.095,95.328l0.505-0.098l0.439-0.244l0.327-0.39l0.162-0.487v-0.505
			l-0.162-0.471l-0.327-0.392l-0.439-0.259l-0.505-0.082l-0.503,0.082l-0.439,0.259l-0.326,0.392l-0.179,0.471v0.505l0.179,0.487
			l0.326,0.39l0.439,0.244L149.095,95.328z M149.095,48.482l0.505-0.098l0.439-0.244l0.327-0.39l0.162-0.486v-0.505l-0.162-0.471
			l-0.327-0.391l-0.439-0.261l-0.505-0.081l-0.503,0.081l-0.439,0.261l-0.326,0.391l-0.179,0.471v0.505l0.179,0.486l0.326,0.39
			l0.439,0.244L149.095,48.482z M31.244,95.328l0.505-0.098l0.438-0.244l0.325-0.39l0.181-0.487v-0.505l-0.181-0.471l-0.325-0.392
			l-0.438-0.259l-0.505-0.082l-0.503,0.082l-0.438,0.259l-0.326,0.392l-0.163,0.471v0.505l0.163,0.487l0.326,0.39l0.438,0.244
			L31.244,95.328z M31.244,48.482l0.505-0.098l0.438-0.244l0.325-0.39l0.181-0.486v-0.505l-0.181-0.471l-0.325-0.391l-0.438-0.261
			l-0.505-0.081l-0.503,0.081l-0.438,0.261l-0.326,0.391l-0.163,0.471v0.505l0.163,0.486l0.326,0.39l0.438,0.244L31.244,48.482z
			 M90.178,17.024l2.945,0.082l2.928,0.244l2.928,0.408l2.88,0.568l2.861,0.716l2.797,0.877l2.766,1.04l2.684,1.173l2.636,1.334
			l2.554,1.479l2.455,1.609l2.376,1.742l2.26,1.871l2.181,1.985l2.048,2.113l1.936,2.211l1.806,2.327l1.675,2.422l1.547,2.506
			l1.396,2.586l1.253,2.668l1.106,2.716l0.961,2.797l0.797,2.831l0.649,2.862l0.471,2.913l0.326,2.926l0.164,2.93v2.943
			l-0.164,2.944l-0.326,2.928l-0.471,2.894l-0.649,2.88l-0.797,2.831l-0.961,2.781l-1.106,2.716l-1.253,2.669l-1.396,2.586
			l-1.547,2.505l-1.675,2.424l-1.806,2.325l-1.936,2.212l-2.048,2.115l-2.181,2l-2.26,1.871l-2.376,1.74l-2.455,1.611l-2.554,1.465
			l-2.636,1.333l-2.684,1.187l-2.766,1.026l-2.797,0.876l-2.861,0.716l-2.88,0.57l-2.928,0.407l-2.928,0.242l-2.945,0.083
			l-2.943-0.083l-2.928-0.242l-2.912-0.407l-2.896-0.57l-2.847-0.716l-2.814-0.876l-2.75-1.026l-2.699-1.187l-2.619-1.333
			l-2.553-1.465l-2.472-1.611l-2.359-1.74l-2.278-1.871l-2.163-2l-2.05-2.115l-1.936-2.212l-1.804-2.325l-1.676-2.424l-1.547-2.505
			l-1.397-2.586l-1.254-2.669l-1.121-2.716l-0.944-2.781l-0.813-2.831l-0.634-2.88l-0.489-2.894l-0.324-2.928l-0.163-2.944v-2.943
			l0.163-2.93l0.324-2.926l0.489-2.913l0.634-2.862l0.813-2.831l0.944-2.797l1.121-2.716l1.254-2.668l1.397-2.586l1.547-2.506
			l1.676-2.422l1.804-2.327l1.936-2.211l2.05-2.113l2.163-1.985l2.278-1.871l2.359-1.742l2.472-1.609l2.553-1.479l2.619-1.334
			l2.699-1.173l2.75-1.04l2.814-0.877l2.847-0.716l2.896-0.568l2.912-0.408l2.928-0.244L90.178,17.024z M22.836,6.03h134.685
			 M157.521,6.03L157.521,6.03v0.048v0.065v0.083v0.114v0.113v0.131v0.145 M22.836,6.729V6.583V6.452V6.339V6.226V6.143V6.078V6.03
			 M157.521,134.854H22.836 M157.521,134.137v0.148v0.128v0.114v0.115v0.08v0.065v0.049v0.017 M22.836,134.854v-0.017v-0.049v-0.065
			v-0.08v-0.115v-0.114v-0.128v-0.148 M157.521,5.67v0.066v0.065v0.066v0.046v0.051v0.031v0.016V6.03 M22.836,6.03V6.013V5.997
			V5.965V5.914V5.868V5.801V5.736V5.67 M157.521,134.854L157.521,134.854v0.016v0.035v0.047V135v0.065v0.064v0.065 M22.836,135.196
			v-0.065v-0.064V135v-0.049v-0.047v-0.035v-0.016 M30.072,0.175h-7.236 M30.072,3.442V0.175 M32.415,3.442l-0.08,0.456l-0.26,0.376
			l-0.375,0.26l-0.456,0.082l-0.439-0.082l-0.39-0.26L30.17,3.897l-0.098-0.456 M32.415,0.175v3.267 M89.007,3.442V0.175
			 M91.349,3.442l-0.097,0.456l-0.261,0.376l-0.374,0.26l-0.439,0.082l-0.454-0.082l-0.376-0.26l-0.259-0.376l-0.082-0.456
			 M91.349,0.175v3.267 M147.924,0.175H91.349 M147.924,3.442V0.175 M150.266,3.442l-0.098,0.456l-0.242,0.376l-0.392,0.26
			l-0.439,0.082l-0.456-0.082l-0.374-0.26l-0.26-0.376l-0.082-0.456 M150.266,0.175v3.267 M157.521,0.175h-7.255 M89.007,0.175
			H32.415 M157.521,5.67V0.175 M22.836,5.67V0.175 M150.266,140.709h7.255 M150.266,137.423v3.286 M147.924,137.423l0.082-0.456
			l0.26-0.373l0.374-0.245l0.456-0.097l0.439,0.097l0.392,0.245l0.242,0.373l0.098,0.456 M147.924,140.709v-3.286 M91.349,140.709
			h56.575 M91.349,137.423v3.286 M89.007,137.423l0.082-0.456l0.259-0.373l0.376-0.245l0.454-0.097l0.439,0.097l0.374,0.245
			l0.261,0.373l0.097,0.456 M89.007,140.709v-3.286 M32.415,140.709h56.593 M32.415,137.423v3.286 M30.072,137.423l0.098-0.456
			l0.245-0.373l0.39-0.245l0.439-0.097l0.456,0.097l0.375,0.245l0.26,0.373l0.08,0.456 M30.072,140.709v-3.286 M22.836,140.709
			h7.236 M157.521,140.709v-5.514 M22.836,140.709v-5.514 M30.92,16.309v2.846 M30.92,45.589v2.846 M30.92,92.433v2.847
			 M30.92,121.71v2.846 M31.619,16.324v2.831 M31.619,45.604v2.831 M31.619,92.449v2.831 M31.619,121.726v2.83 M149.503,16.324
			v2.815 M149.503,45.604v2.815 M149.503,92.449v2.814 M149.503,121.726v2.815 M148.803,16.292v2.882 M148.803,45.573v2.877
			 M148.803,92.417v2.878 M148.803,121.695v2.878"/>
	</g>
</g>
</svg>
