<?xml version="1.0" encoding="utf-8"?>
<!-- Generator: Adobe Illustrator 18.1.1, SVG Export Plug-In . SVG Version: 6.00 Build 0)  -->
<svg version="1.1" xmlns="http://www.w3.org/2000/svg" xmlns:xlink="http://www.w3.org/1999/xlink" x="0px" y="0px"
	 viewBox="-544.7 421.1 737 245.4" enable-background="new -544.7 421.1 737 245.4" xml:space="preserve">
<g id="Layer_2" display="none">
	<rect x="-652" y="298" display="inline" stroke="#FFFFFF" stroke-miterlimit="10" width="903" height="474"/>
</g>
<g id="Lines_1" display="none">
	<line display="inline" fill="none" stroke="#FFFFFF" stroke-miterlimit="10" x1="-115.1" y1="624.7" x2="-70.4" y2="507"/>
	<line display="inline" fill="none" stroke="#FFFFFF" stroke-miterlimit="10" x1="-373.6" y1="467.8" x2="-345.6" y2="394"/>
	<path display="inline" fill="none" stroke="#FFFFFF" stroke-miterlimit="10" d="M-345.6,394h502.2H-345.6z"/>
	<polyline display="inline" fill="none" stroke="#FFFFFF" stroke-miterlimit="10" points="46.9,507 -21.8,688 -26.1,688 -564.4,688 
		-573.6,688 -490.1,467.8 	"/>
	<line display="inline" fill="none" stroke="#FFFFFF" stroke-miterlimit="10" x1="-70.4" y1="507" x2="45.9" y2="507"/>
	<line display="inline" fill="none" stroke="#FFFFFF" stroke-miterlimit="10" x1="-115.1" y1="624.7" x2="-168.7" y2="624.7"/>
	<path display="inline" fill="none" stroke="#FFFFFF" stroke-miterlimit="10" d="M-490.1,467.8h116.6H-490.1z"/>
	<path display="inline" fill="none" stroke="#FFFFFF" stroke-miterlimit="10" d="M156.6,394h37.2H156.6z"/>
</g>
<g id="Lines_2" display="none">
	<path display="inline" fill="none" stroke="#FFFFFF" stroke-miterlimit="10" d="M86.6,475.5"/>
	<path display="inline" fill="none" stroke="#FFFFFF" stroke-miterlimit="10" d="M18.9,644.7"/>
	<path display="inline" fill="none" stroke="#FFFFFF" stroke-miterlimit="10" d="M104.7,489"/>
	<line display="inline" fill="none" stroke="#FFFFFF" stroke-miterlimit="10" x1="85.7" y1="476.3" x2="107.1" y2="476.3"/>
	<line display="inline" fill="none" stroke="#FFFFFF" stroke-miterlimit="10" x1="107.1" y1="476.3" x2="37" y2="666"/>
	<polyline display="inline" fill="none" stroke="#FFFFFF" stroke-miterlimit="10" points="37,666 -478.8,666 -482.1,666 
		-410.2,478.7 -51.5,478.7 -30.8,422.5 -369,422.5 	"/>
	<line display="inline" fill="none" stroke="#FFFFFF" stroke-miterlimit="10" x1="85.7" y1="476.3" x2="48.2" y2="577.7"/>
</g>
<g id="Lines_3" display="none">
	<polyline display="inline" fill="none" stroke="#FFFFFF" stroke-miterlimit="10" points="85.1,510.9 201.9,510.9 134,691 
		-418.4,691 -334.7,470.4 -218.6,470.4 -191.1,396.9 -486,396.9 	"/>
	<line display="inline" fill="none" stroke="#FFFFFF" stroke-miterlimit="10" x1="85.1" y1="510.9" x2="104.2" y2="460.9"/>
</g>
<g id="Lines_4">
	<path fill="none" stroke="#FFFFFF" stroke-miterlimit="10" d="M192.3,421.6"/>
	<path fill="none" stroke="#FFFFFF" stroke-miterlimit="10" d="M-1.5,421.6"/>
	<polyline fill="none" stroke="#FFFFFF" stroke-miterlimit="10" points="192.3,421.6 -1.5,421.6 -10.3,439.1 92.9,439.1 8.7,666 
		-544,666 -459.9,445.4 -367.8,445.4 -379.4,477 -233.6,477 	"/>
</g>
<g id="Lines_5" display="none">
	<g display="inline">
		<defs>
			<rect id="SVGID_1_" x="-539" y="396.9" width="727.7" height="294.1"/>
		</defs>
		<clipPath id="SVGID_2_">
			<use xlink:href="#SVGID_1_"  overflow="visible"/>
		</clipPath>
		<g clip-path="url(#SVGID_2_)">
			<defs>
				<rect id="SVGID_3_" x="-539" y="396.9" width="727.7" height="294.1"/>
			</defs>
			<clipPath id="SVGID_4_">
				<use xlink:href="#SVGID_3_"  overflow="visible"/>
			</clipPath>
			<g opacity="0.5" clip-path="url(#SVGID_4_)">
				<g>
					<defs>
						<rect id="SVGID_5_" x="-548.4" y="389.9" width="748.7" height="302.1"/>
					</defs>
					<clipPath id="SVGID_6_">
						<use xlink:href="#SVGID_5_"  overflow="visible"/>
					</clipPath>
					<polyline clip-path="url(#SVGID_6_)" fill="none" stroke="#FFFFFF" points="188.5,397.4 -52.3,397.4 -86.2,494.9 -461.8,494.9 
						-538.3,690.5 -20.7,690.5 1.9,631.5 -73.7,631.5 -54.5,581.5 					"/>
				</g>
			</g>
		</g>
	</g>
	<polyline display="inline" fill="none" stroke="#FFFFFF" stroke-miterlimit="10" points="-73.7,631.5 1.9,631.5 -20.7,691 
		-539,691 -461.8,494.9 -86.2,494.9 -52.3,397.4 188.7,397.4 	"/>
	<path display="inline" fill="none" stroke="#FFFFFF" stroke-miterlimit="10" d="M-73.7,581.5"/>
	<polyline display="inline" fill="none" stroke="#FFFFFF" stroke-miterlimit="10" points="-54.5,581.5 -73.3,630.5 -73.7,631.5 	"/>
</g>
</svg>
