<?xml version="1.0" encoding="utf-8"?>
<!-- Generator: Adobe Illustrator 15.0.2, SVG Export Plug-In . SVG Version: 6.00 Build 0)  -->
<!DOCTYPE svg PUBLIC "-//W3C//DTD SVG 1.1//EN" "http://www.w3.org/Graphics/SVG/1.1/DTD/svg11.dtd">
<svg version="1.1" id="Layer_1" xmlns="http://www.w3.org/2000/svg" xmlns:xlink="http://www.w3.org/1999/xlink" x="0px" y="0px"
	 width="335.559px" height="32.561px" viewBox="0 0 335.559 32.561" enable-background="new 0 0 335.559 32.561"
	 xml:space="preserve">
<g>
	<g>
		<path fill="#FFFFFF" d="M5.043,14.561H2.101L4.597,2.637H0.402L0.9,0.244H12.18l-0.498,2.393H7.531L5.043,14.561z"/>
		<path fill="#FFFFFF" d="M20.902,8.164h-5.533l-1.339,6.396h-2.943l2.998-14.316h2.943L15.87,5.771h5.533l1.158-5.527h2.943
			l-2.998,14.316h-2.943L20.902,8.164z"/>
		<path fill="#FFFFFF" d="M25.48,14.561l2.998-14.316h10.615l-0.498,2.393h-7.658l-0.715,3.252h7.436L37.16,8.281h-7.464
			l-0.854,3.887h8.338l-0.508,2.393H25.48z"/>
		<path fill="#FFFFFF" d="M41.822,14.561h-2.943l2.998-14.316h6.352c1.093,0,1.943,0.112,2.551,0.337
			c0.608,0.225,1.1,0.637,1.474,1.235s0.561,1.325,0.561,2.178c0,1.218-0.365,2.222-1.094,3.013s-1.833,1.281-3.311,1.47
			c0.377,0.339,0.732,0.784,1.064,1.338c0.658,1.12,1.39,2.702,2.197,4.746h-3.164c-0.254-0.808-0.751-2.067-1.493-3.779
			c-0.403-0.925-0.833-1.546-1.288-1.865c-0.28-0.188-0.768-0.283-1.464-0.283h-1.2L41.822,14.561z M43.513,6.484h1.561
			c1.581,0,2.629-0.095,3.147-0.283c0.517-0.188,0.922-0.485,1.215-0.889c0.292-0.403,0.439-0.827,0.439-1.27
			c0-0.521-0.211-0.911-0.634-1.172c-0.26-0.156-0.822-0.234-1.686-0.234h-3.236L43.513,6.484z"/>
		<path fill="#FFFFFF" d="M61.496,14.561h-2.793L58.181,2.598L55.91,14.561h-2.656l2.991-14.316h4.197l0.439,9.839l4.503-9.839
			h4.213l-2.599,14.316h-2.669l2.485-11.875L61.496,14.561z"/>
		<path fill="#FFFFFF" d="M79.318,11.396h-5.676l-1.736,3.164h-3.028L76.98,0.244h3.273l2.327,14.316h-2.793L79.318,11.396z
			 M78.944,9.004l-0.832-5.752l-3.157,5.752H78.944z"/>
		<path fill="#FFFFFF" d="M90.59,14.561h-2.943l2.497-11.924h-4.195l0.498-2.393h11.279l-0.498,2.393h-4.151L90.59,14.561z"/>
		<path fill="#FFFFFF" d="M99.586,14.561h-2.943l2.998-14.316h6.352c1.093,0,1.943,0.112,2.551,0.337
			c0.608,0.225,1.1,0.637,1.474,1.235s0.561,1.325,0.561,2.178c0,1.218-0.365,2.222-1.094,3.013s-1.833,1.281-3.311,1.47
			c0.377,0.339,0.732,0.784,1.064,1.338c0.658,1.12,1.39,2.702,2.197,4.746h-3.164c-0.254-0.808-0.751-2.067-1.493-3.779
			c-0.403-0.925-0.833-1.546-1.288-1.865c-0.28-0.188-0.768-0.283-1.464-0.283h-1.2L99.586,14.561z M101.277,6.484h1.561
			c1.581,0,2.629-0.095,3.147-0.283c0.517-0.188,0.922-0.485,1.215-0.889c0.292-0.403,0.439-0.827,0.439-1.27
			c0-0.521-0.211-0.911-0.634-1.172c-0.26-0.156-0.822-0.234-1.686-0.234h-3.236L101.277,6.484z"/>
		<path fill="#FFFFFF" d="M111.955,8.951c0-0.847,0.127-1.739,0.381-2.678c0.332-1.257,0.838-2.349,1.519-3.273
			s1.538-1.656,2.573-2.193C117.463,0.269,118.641,0,119.963,0c1.771,0,3.202,0.551,4.292,1.651c1.09,1.102,1.636,2.561,1.636,4.378
			c0,1.512-0.355,2.975-1.064,4.388c-0.709,1.414-1.673,2.502-2.891,3.264c-1.217,0.763-2.594,1.144-4.131,1.144
			c-1.334,0-2.455-0.303-3.359-0.909c-0.905-0.605-1.546-1.356-1.924-2.252S111.955,9.863,111.955,8.951z M114.865,8.894
			c0,0.983,0.299,1.808,0.898,2.473s1.387,0.997,2.363,0.997c0.794,0,1.558-0.263,2.29-0.787s1.338-1.319,1.816-2.385
			s0.718-2.104,0.718-3.113c0-1.128-0.303-2.013-0.908-2.654s-1.377-0.963-2.314-0.963c-1.439,0-2.609,0.671-3.511,2.014
			S114.865,7.29,114.865,8.894z"/>
		<path fill="#FFFFFF" d="M138.019,14.561h-2.733l-3.874-9.619l-2.016,9.619h-2.733l2.998-14.316h2.744l3.877,9.58l2.002-9.58h2.733
			L138.019,14.561z"/>
		<path fill="#FFFFFF" d="M146.584,14.561l2.998-14.316h10.615l-0.498,2.393h-7.658l-0.715,3.252h7.436l-0.498,2.393H150.8
			l-0.854,3.887h8.338l-0.508,2.393H146.584z"/>
		<path fill="#FFFFFF" d="M171.358,14.561h-2.733l-3.874-9.619l-2.016,9.619h-2.733L163,0.244h2.744l3.877,9.58l2.002-9.58h2.733
			L171.358,14.561z"/>
		<path fill="#FFFFFF" d="M182.336,6.914h6.406l-1.286,6.143c-0.755,0.488-1.682,0.901-2.779,1.24s-2.216,0.508-3.355,0.508
			c-1.771,0-3.129-0.4-4.073-1.201c-1.29-1.094-1.934-2.679-1.934-4.756c0-1.394,0.277-2.728,0.83-4.004
			c0.664-1.536,1.608-2.728,2.832-3.574S181.639,0,183.293,0s2.98,0.384,3.979,1.152s1.662,1.888,1.987,3.359l-2.744,0.312
			c-0.241-0.808-0.63-1.416-1.167-1.826s-1.212-0.615-2.026-0.615c-0.951,0-1.823,0.247-2.617,0.742s-1.416,1.26-1.865,2.295
			s-0.674,2.165-0.674,3.389c0,1.204,0.274,2.095,0.821,2.671c0.548,0.576,1.35,0.864,2.406,0.864c0.632,0,1.281-0.089,1.946-0.268
			s1.239-0.392,1.721-0.639l0.436-2.131h-3.659L182.336,6.914z"/>
		<path fill="#FFFFFF" d="M189.797,14.561l2.998-14.316h2.943l-2.998,14.316H189.797z"/>
		<path fill="#FFFFFF" d="M206.915,14.561h-2.733l-3.874-9.619l-2.016,9.619h-2.733l2.998-14.316h2.744l3.877,9.58l2.002-9.58h2.733
			L206.915,14.561z"/>
		<path fill="#FFFFFF" d="M209.924,14.561l2.998-14.316h10.615l-0.498,2.393h-7.658l-0.715,3.252h7.436l-0.498,2.393h-7.464
			l-0.854,3.887h8.338l-0.508,2.393H209.924z"/>
		<path fill="#FFFFFF" d="M223.264,14.561l2.998-14.316h10.615l-0.498,2.393h-7.658l-0.715,3.252h7.436l-0.498,2.393h-7.464
			l-0.854,3.887h8.338l-0.508,2.393H223.264z"/>
		<path fill="#FFFFFF" d="M239.605,14.561h-2.943l2.998-14.316h6.352c1.093,0,1.943,0.112,2.552,0.337s1.099,0.637,1.473,1.235
			s0.562,1.325,0.562,2.178c0,1.218-0.364,2.222-1.094,3.013s-1.833,1.281-3.311,1.47c0.378,0.339,0.732,0.784,1.064,1.338
			c0.657,1.12,1.39,2.702,2.197,4.746h-3.164c-0.254-0.808-0.751-2.067-1.493-3.779c-0.403-0.925-0.832-1.546-1.288-1.865
			c-0.279-0.188-0.768-0.283-1.463-0.283h-1.2L239.605,14.561z M241.296,6.484h1.562c1.581,0,2.63-0.095,3.146-0.283
			c0.518-0.188,0.923-0.485,1.215-0.889c0.293-0.403,0.439-0.827,0.439-1.27c0-0.521-0.211-0.911-0.634-1.172
			c-0.26-0.156-0.822-0.234-1.687-0.234h-3.235L241.296,6.484z"/>
		<path fill="#FFFFFF" d="M250.92,14.561l2.998-14.316h2.942l-2.997,14.316H250.92z"/>
		<path fill="#FFFFFF" d="M268.038,14.561h-2.733l-3.874-9.619l-2.016,9.619h-2.733l2.998-14.316h2.743l3.878,9.58l2.002-9.58h2.733
			L268.038,14.561z"/>
		<path fill="#FFFFFF" d="M279.016,6.914h6.406l-1.287,6.143c-0.755,0.488-1.682,0.901-2.778,1.24
			c-1.098,0.339-2.216,0.508-3.355,0.508c-1.771,0-3.129-0.4-4.073-1.201c-1.289-1.094-1.934-2.679-1.934-4.756
			c0-1.394,0.276-2.728,0.83-4.004c0.664-1.536,1.608-2.728,2.832-3.574S278.319,0,279.973,0s2.98,0.384,3.979,1.152
			s1.662,1.888,1.987,3.359l-2.744,0.312c-0.241-0.808-0.63-1.416-1.167-1.826s-1.213-0.615-2.026-0.615
			c-0.95,0-1.823,0.247-2.617,0.742s-1.416,1.26-1.865,2.295s-0.674,2.165-0.674,3.389c0,1.204,0.273,2.095,0.821,2.671
			s1.35,0.864,2.406,0.864c0.632,0,1.281-0.089,1.946-0.268s1.238-0.392,1.721-0.639l0.437-2.131h-3.659L279.016,6.914z"/>
		<path fill="#FFFFFF" d="M287.209,11.855h2.822l-0.469,2.236c-0.267,1.289-0.695,2.202-1.284,2.739s-1.353,0.815-2.29,0.835
			l0.273-1.299c0.469-0.104,0.832-0.291,1.089-0.562s0.447-0.686,0.571-1.245h-1.289L287.209,11.855z"/>
		<path fill="#FFFFFF" d="M297.59,14.561l2.998-14.316h2.942l-2.997,14.316H297.59z"/>
		<path fill="#FFFFFF" d="M314.708,14.561h-2.733l-3.874-9.619l-2.016,9.619h-2.733l2.998-14.316h2.743l3.878,9.58l2.002-9.58h2.733
			L314.708,14.561z"/>
		<path fill="#FFFFFF" d="M328.088,9.424l2.969,0.449c-0.579,1.604-1.448,2.831-2.607,3.68c-1.159,0.848-2.517,1.271-4.072,1.271
			c-1.751,0-3.12-0.527-4.106-1.583s-1.479-2.587-1.479-4.593c0-1.629,0.33-3.119,0.991-4.471s1.577-2.386,2.749-3.103
			S324.979,0,326.359,0c1.55,0,2.803,0.415,3.76,1.245s1.521,1.961,1.689,3.394l-2.822,0.273c-0.156-0.833-0.457-1.438-0.902-1.812
			s-1.038-0.562-1.779-0.562c-0.813,0-1.572,0.248-2.277,0.744c-0.706,0.495-1.27,1.27-1.692,2.323s-0.634,2.105-0.634,3.156
			c0,1.147,0.274,2.035,0.824,2.661c0.549,0.626,1.233,0.939,2.052,0.939c0.761,0,1.458-0.247,2.092-0.742
			S327.775,10.394,328.088,9.424z"/>
		<path fill="#FFFFFF" d="M332.785,11.855h2.773l-0.566,2.705h-2.773L332.785,11.855z"/>
	</g>
</g>
<g>
	<polygon fill-rule="evenodd" clip-rule="evenodd" fill="#FFFFFF" points="85.5,23.061 82.5,32.061 84.5,32.061 87.5,23.061 	"/>
</g>
<g>
	<path fill="#FFFFFF" d="M84.5,32.561h-2c-0.161,0-0.312-0.077-0.406-0.208c-0.094-0.13-0.12-0.298-0.068-0.45l3-9
		c0.068-0.204,0.259-0.342,0.474-0.342h2c0.161,0,0.312,0.077,0.406,0.208c0.094,0.13,0.12,0.298,0.068,0.451l-3,9
		C84.906,32.423,84.715,32.561,84.5,32.561z M83.194,31.561h0.946l2.667-8H85.86L83.194,31.561z"/>
</g>
<g>
	<polygon fill-rule="evenodd" clip-rule="evenodd" fill="#FFFFFF" points="34.5,23.061 31.5,32.061 34.5,32.061 37.5,23.061 	"/>
</g>
<g>
	<path fill="#FFFFFF" d="M34.5,32.561h-3c-0.161,0-0.312-0.077-0.406-0.208c-0.094-0.13-0.12-0.298-0.068-0.45l3-9
		c0.068-0.204,0.259-0.342,0.474-0.342h3c0.161,0,0.312,0.077,0.406,0.208c0.094,0.13,0.12,0.298,0.068,0.451l-3,9
		C34.906,32.423,34.715,32.561,34.5,32.561z M32.194,31.561h1.946l2.667-8H34.86L32.194,31.561z"/>
</g>
<g>
	<polygon fill-rule="evenodd" clip-rule="evenodd" fill="#FFFFFF" points="75.5,23.061 72.5,32.061 74.5,32.061 77.5,23.061 	"/>
</g>
<g>
	<path fill="#FFFFFF" d="M74.5,32.561h-2c-0.161,0-0.312-0.077-0.406-0.208c-0.094-0.13-0.12-0.298-0.068-0.45l3-9
		c0.068-0.204,0.259-0.342,0.474-0.342h2c0.161,0,0.312,0.077,0.406,0.208c0.094,0.13,0.12,0.298,0.068,0.451l-3,9
		C74.906,32.423,74.715,32.561,74.5,32.561z M73.194,31.561h0.946l2.667-8H75.86L73.194,31.561z"/>
</g>
<g>
	<polygon fill-rule="evenodd" clip-rule="evenodd" fill="#FFFFFF" points="65.5,23.061 62.5,32.061 64.5,32.061 67.5,23.061 	"/>
</g>
<g>
	<path fill="#FFFFFF" d="M64.5,32.561h-2c-0.161,0-0.312-0.077-0.406-0.208c-0.094-0.13-0.12-0.298-0.068-0.45l3-9
		c0.068-0.204,0.259-0.342,0.474-0.342h2c0.161,0,0.312,0.077,0.406,0.208c0.094,0.13,0.12,0.298,0.068,0.451l-3,9
		C64.906,32.423,64.715,32.561,64.5,32.561z M63.194,31.561h0.946l2.667-8H65.86L63.194,31.561z"/>
</g>
<g>
	<polygon fill-rule="evenodd" clip-rule="evenodd" fill="#FFFFFF" points="55.5,23.061 51.5,32.061 54.5,32.061 57.5,23.061 	"/>
</g>
<g>
	<path fill="#FFFFFF" d="M54.5,32.561h-3c-0.169,0-0.327-0.086-0.419-0.228c-0.092-0.142-0.106-0.321-0.038-0.476l4-9
		c0.081-0.181,0.259-0.297,0.457-0.297h2c0.161,0,0.312,0.077,0.406,0.208c0.094,0.13,0.12,0.298,0.068,0.451l-3,9
		C54.906,32.423,54.715,32.561,54.5,32.561z M52.27,31.561h1.87l2.667-8h-0.981L52.27,31.561z"/>
</g>
<g>
	<polygon fill-rule="evenodd" clip-rule="evenodd" fill="#FFFFFF" points="44.5,23.061 41.5,32.061 44.5,32.061 47.5,23.061 	"/>
</g>
<g>
	<path fill="#FFFFFF" d="M44.5,32.561h-3c-0.161,0-0.312-0.077-0.406-0.208c-0.094-0.13-0.12-0.298-0.068-0.45l3-9
		c0.068-0.204,0.259-0.342,0.474-0.342h3c0.161,0,0.312,0.077,0.406,0.208c0.094,0.13,0.12,0.298,0.068,0.451l-3,9
		C44.906,32.423,44.715,32.561,44.5,32.561z M42.194,31.561h1.946l2.667-8H44.86L42.194,31.561z"/>
</g>
<g>
	<polygon fill-rule="evenodd" clip-rule="evenodd" fill="#FFFFFF" points="4.5,23.061 0.5,32.061 4.5,32.061 7.5,23.061 	"/>
</g>
<g>
	<path fill="#FFFFFF" d="M4.5,32.561h-4c-0.169,0-0.327-0.086-0.419-0.228c-0.092-0.142-0.106-0.321-0.038-0.476l4-9
		c0.081-0.181,0.259-0.297,0.457-0.297h3c0.161,0,0.312,0.077,0.406,0.208c0.094,0.13,0.12,0.298,0.068,0.451l-3,9
		C4.906,32.423,4.715,32.561,4.5,32.561z M1.27,31.561h2.87l2.667-8H4.825L1.27,31.561z"/>
</g>
<g>
	<polygon fill-rule="evenodd" clip-rule="evenodd" fill="#FFFFFF" points="13.5,23.061 18.5,23.061 15.5,32.061 10.5,32.061 	"/>
</g>
<g>
	<path fill="#FFFFFF" d="M15.5,32.561h-5c-0.161,0-0.312-0.077-0.406-0.208c-0.094-0.13-0.12-0.298-0.068-0.45l3-9
		c0.068-0.204,0.259-0.342,0.474-0.342h5c0.161,0,0.312,0.077,0.406,0.208c0.094,0.13,0.12,0.298,0.068,0.451l-3,9
		C15.906,32.423,15.715,32.561,15.5,32.561z M11.194,31.561h3.946l2.667-8H13.86L11.194,31.561z"/>
</g>
<g>
	<polygon fill-rule="evenodd" clip-rule="evenodd" fill="#FFFFFF" points="24.5,23.061 21.5,32.061 24.5,32.061 27.5,23.061 	"/>
</g>
<g>
	<path fill="#FFFFFF" d="M24.5,32.561h-3c-0.161,0-0.312-0.077-0.406-0.208c-0.094-0.13-0.12-0.298-0.068-0.45l3-9
		c0.068-0.204,0.259-0.342,0.474-0.342h3c0.161,0,0.312,0.077,0.406,0.208c0.094,0.13,0.12,0.298,0.068,0.451l-3,9
		C24.906,32.423,24.715,32.561,24.5,32.561z M22.194,31.561h1.946l2.667-8H24.86L22.194,31.561z"/>
</g>
<g>
	<polygon fill-rule="evenodd" clip-rule="evenodd" fill="#FFFFFF" points="116.5,23.061 114.5,32.061 115.5,32.061 118.5,23.061 	
		"/>
</g>
<g>
	<path fill="#FFFFFF" d="M115.5,32.561h-1c-0.152,0-0.295-0.068-0.39-0.188c-0.095-0.118-0.131-0.272-0.098-0.421l2-9
		c0.051-0.229,0.254-0.392,0.488-0.392h2c0.161,0,0.312,0.077,0.406,0.208c0.094,0.13,0.12,0.298,0.068,0.451l-3,9
		C115.906,32.423,115.715,32.561,115.5,32.561z M115.124,31.561h0.016l2.667-8h-0.905L115.124,31.561z"/>
</g>
<g>
	<path fill-rule="evenodd" clip-rule="evenodd" fill="#FFFFFF" d="M155.5,23.061l-2,9L155.5,23.061z"/>
</g>
<g>
	<path fill="#FFFFFF" d="M153.5,32.561c-0.036,0-0.072-0.004-0.109-0.012C153.158,32.497,153,32.29,153,32.061
		c0-0.036,0.004-0.072,0.012-0.108l2-9c0.06-0.27,0.331-0.435,0.597-0.38c0.233,0.052,0.392,0.259,0.392,0.488
		c0,0.036-0.004,0.072-0.012,0.108l-2,9C153.937,32.402,153.729,32.561,153.5,32.561z"/>
</g>
<g>
	<polygon fill-rule="evenodd" clip-rule="evenodd" fill="#FFFFFF" points="145.5,23.061 144.5,32.061 146.5,23.061 	"/>
</g>
<g>
	<path fill="#FFFFFF" d="M144.5,32.561c-0.027,0-0.055-0.002-0.083-0.007c-0.262-0.044-0.444-0.284-0.415-0.549l1-9
		c0.028-0.253,0.242-0.445,0.497-0.445h1c0.152,0,0.295,0.069,0.39,0.187c0.095,0.119,0.131,0.273,0.098,0.421l-2,9
		C144.937,32.401,144.731,32.561,144.5,32.561z"/>
</g>
<g>
	<polygon fill-rule="evenodd" clip-rule="evenodd" fill="#FFFFFF" points="136.5,23.061 134.5,32.061 135.5,32.061 137.5,23.061 	
		"/>
</g>
<g>
	<path fill="#FFFFFF" d="M135.5,32.561h-1c-0.152,0-0.295-0.068-0.39-0.188c-0.095-0.118-0.131-0.272-0.098-0.421l2-9
		c0.051-0.229,0.254-0.392,0.488-0.392h1c0.152,0,0.295,0.069,0.39,0.187c0.095,0.119,0.131,0.273,0.098,0.421l-2,9
		C135.938,32.397,135.734,32.561,135.5,32.561z"/>
</g>
<g>
	<polygon fill-rule="evenodd" clip-rule="evenodd" fill="#FFFFFF" points="126.5,23.061 124.5,32.061 125.5,32.061 127.5,23.061 	
		"/>
</g>
<g>
	<path fill="#FFFFFF" d="M125.5,32.561h-1c-0.152,0-0.295-0.068-0.39-0.188c-0.095-0.118-0.131-0.272-0.098-0.421l2-9
		c0.051-0.229,0.254-0.392,0.488-0.392h1c0.152,0,0.295,0.069,0.39,0.187c0.095,0.119,0.131,0.273,0.098,0.421l-2,9
		C125.938,32.397,125.734,32.561,125.5,32.561z"/>
</g>
<g>
	<polygon fill-rule="evenodd" clip-rule="evenodd" fill="#FFFFFF" points="105.5,23.061 103.5,32.061 104.5,32.061 107.5,23.061 	
		"/>
</g>
<g>
	<path fill="#FFFFFF" d="M104.5,32.561h-1c-0.152,0-0.295-0.068-0.39-0.188c-0.095-0.118-0.131-0.272-0.098-0.421l2-9
		c0.051-0.229,0.254-0.392,0.488-0.392h2c0.161,0,0.312,0.077,0.406,0.208c0.094,0.13,0.12,0.298,0.068,0.451l-3,9
		C104.906,32.423,104.715,32.561,104.5,32.561z M104.124,31.561h0.016l2.667-8h-0.905L104.124,31.561z"/>
</g>
<g>
	<polygon fill-rule="evenodd" clip-rule="evenodd" fill="#FFFFFF" points="95.5,23.061 93.5,32.061 95.5,32.061 97.5,23.061 	"/>
</g>
<g>
	<path fill="#FFFFFF" d="M95.5,32.561h-2c-0.152,0-0.295-0.068-0.39-0.188c-0.095-0.118-0.131-0.272-0.098-0.421l2-9
		c0.051-0.229,0.254-0.392,0.488-0.392h2c0.152,0,0.295,0.069,0.39,0.187c0.095,0.119,0.131,0.273,0.098,0.421l-2,9
		C95.938,32.397,95.734,32.561,95.5,32.561z M94.124,31.561h0.976l1.777-8h-0.976L94.124,31.561z"/>
</g>
</svg>
