<?xml version="1.0" encoding="utf-8"?>
<!-- Generator: Adobe Illustrator 18.1.1, SVG Export Plug-In . SVG Version: 6.00 Build 0)  -->
<svg version="1.1" id="Layer_1" xmlns="http://www.w3.org/2000/svg" xmlns:xlink="http://www.w3.org/1999/xlink" x="0px" y="0px"
	 viewBox="3132 208.4 789.9 663.2" enable-background="new 3132 208.4 789.9 663.2" xml:space="preserve">
<rect x="3185.3" y="264.7" fill="#F2F2F2" width="665.2" height="466.2"/>
<path fill="#1C5C85" d="M3184.6,730.5c4.4-0.5,8.9-0.4,13.3-1.5c4.4-1,8.9-2.9,13.3-4.7c4.4-1.8,8.9-3.7,13.3-6
	c4.4-2.3,8.9-4.9,13.3-7.7c4.4-2.8,8.9-5.9,13.3-9.3c4.4-3.3,8.9-6.9,13.3-10.8c4.4-3.8,8.9-7.9,13.3-12.2
	c4.4-4.3,8.9-8.8,13.3-13.6c4.4-4.8,8.9-9.8,13.3-15c4.4-5.2,8.9-10.7,13.3-16.3c4.4-5.7,8.9-11.5,13.3-17.6
	c4.4-6.1,8.9-12.4,13.3-18.9c4.4-6.5,8.9-13.2,13.3-20.2c4.4-6.9,8.9-14.1,13.3-21.5c4.4-7.4,8.9-14.9,13.3-22.7
	c4.4-7.8,8.9-15.8,13.3-23.9c4.4-8.2,8.9-16.6,13.3-25.2c4.4-8.6,8.9-17.4,13.3-26.4c4.4-9,8.9-18.2,13.3-27.6
	c4.4-9.4,8.9-19.2,13.3-28.7V731h-266.2"/>
<path fill="#EA9E24" d="M3184.6,730.5c4.4-0.3,8.9-0.3,13.3-0.9c4.4-0.6,8.9-1.8,13.3-3c4.4-1.1,8.9-2.4,13.3-3.8
	c4.4-1.4,8.9-3.1,13.3-4.9c4.4-1.8,8.9-3.8,13.3-5.9c4.4-2.1,8.9-4.4,13.3-6.8c4.4-2.4,8.9-5,13.3-7.7c4.4-2.7,8.9-5.6,13.3-8.6
	c4.4-3,8.9-6.2,13.3-9.5c4.4-3.3,8.9-6.7,13.3-10.3c4.4-3.6,8.9-7.3,13.3-11.2c4.4-3.9,8.9-7.9,13.3-12c4.4-4.1,8.9-8.4,13.3-12.8
	c4.4-4.4,8.9-8.9,13.3-13.6c4.4-4.7,8.9-9.5,13.3-14.4c4.4-4.9,8.9-10,13.3-15.2c4.4-5.2,8.9-10.5,13.3-15.9
	c4.4-5.4,8.9-11,13.3-16.7c4.4-5.7,8.9-11.5,13.3-17.5c4.4-5.9,8.9-12.1,13.3-18.2V731h-266.2"/>
<path fill="#543D78" d="M3184.6,730.5c4.4-0.2,8.9-0.5,13.3-0.7c4.4-0.2,8.9-0.2,13.3-0.7c4.4-0.5,8.9-1.6,13.3-2.4
	c4.4-0.8,8.9-1.5,13.3-2.4c4.4-0.9,8.9-1.8,13.3-2.8c4.4-1,8.9-2.1,13.3-3.3c4.4-1.2,8.9-2.4,13.3-3.7c4.4-1.3,8.9-2.7,13.3-4.1
	c4.4-1.4,8.9-2.9,13.3-4.5c4.4-1.6,8.9-3.2,13.3-4.9c4.4-1.7,8.9-3.4,13.3-5.2c4.4-1.8,8.9-3.7,13.3-5.6c4.4-1.9,8.9-3.9,13.3-6
	c4.4-2.1,8.9-4.2,13.3-6.3c4.4-2.2,8.9-4.4,13.3-6.7c4.4-2.3,8.9-4.6,13.3-7.1c4.4-2.4,8.9-4.9,13.3-7.4c4.4-2.5,8.9-5.1,13.3-7.7
	c4.4-2.6,8.9-5.3,13.3-8.1c4.3-2.7,6.8-4.1,13.3-8.4c6.7-4.4,17.7-11.7,26.6-17.8c8.9-6.2,17.7-12.5,26.6-19.1
	c8.9-6.6,17.7-13.4,26.6-20.4c8.9-7,17.7-14.2,26.6-21.7c8.9-7.4,17.8-15.1,26.6-22.9c8.9-7.9,17.7-15.9,26.6-24.2
	c8.9-8.3,17.7-16.7,26.6-25.4c8.9-8.7,17.7-17.6,26.6-26.6c8.9-9.1,17.7-18.4,26.6-27.8c8.9-9.5,17.7-19.4,26.6-29V731h-532.3"/>
<path fill="#CD1D23" d="M3184.6,730.5c4.4-0.2,8.9-0.2,13.3-0.6c4.4-0.4,8.9-1.2,13.3-2c4.4-0.7,8.9-1.6,13.3-2.5
	c4.4-1,8.9-2,13.3-3.2c4.4-1.2,8.9-2.5,13.3-3.9c4.4-1.4,8.9-2.9,13.3-4.5c4.4-1.6,8.9-3.3,13.3-5.1c4.4-1.8,8.9-3.7,13.3-5.7
	c4.4-2,8.9-4.1,13.3-6.3c4.4-2.2,8.9-4.5,13.3-6.8c4.4-2.4,8.9-4.8,13.3-7.4c4.4-2.6,8.9-5.2,13.3-7.9c4.4-2.7,8.9-5.6,13.3-8.5
	c4.4-2.9,8.9-5.9,13.3-9c4.4-3.1,8.9-6.3,13.3-9.5c4.4-3.3,8.9-6.6,13.3-10c4.4-3.4,8.9-6.9,13.3-10.5c4.4-3.6,8.9-7.3,13.3-11
	c4.4-3.8,8.9-7.6,13.3-11.6c4.4-3.9,8.9-8,13.3-12V731h-266.2"/>
<path fill="#D6BC3E" d="M3184.6,730.4c4.4-0.2,8.9-0.2,13.3-0.6c4.4-0.4,8.9-1.1,13.3-1.8c4.4-0.7,8.9-1.5,13.3-2.3
	c4.4-0.9,8.9-1.9,13.3-3c4.4-1.1,8.9-2.3,13.3-3.6c4.4-1.3,8.9-2.7,13.3-4.2c4.4-1.5,8.9-3.1,13.3-4.7c4.4-1.7,8.9-3.4,13.3-5.3
	c4.4-1.8,8.9-3.8,13.3-5.8c4.4-2,8.9-4.1,13.3-6.3c4.4-2.2,8.9-4.5,13.3-6.8c4.4-2.4,8.9-4.8,13.3-7.3c4.4-2.5,8.9-5.1,13.3-7.8
	c4.4-2.7,8.9-5.5,13.3-8.3c4.4-2.9,8.9-5.8,13.3-8.8c4.4-3,8.9-6.1,13.3-9.3c4.4-3.2,8.9-6.4,13.3-9.7c4.4-3.3,8.9-6.7,13.3-10.2
	c4.4-3.5,8.9-7,13.3-10.7c4.4-3.6,8.9-7.4,13.3-11.1V731L3184.6,730.4"/>
<path fill="#4F9B1E" d="M3184.6,730.5c4.4-0.2,8.9-0.4,13.3-0.6c4.4-0.2,8.9-0.2,13.3-0.6c4.4-0.4,8.9-1.3,13.3-1.9
	c4.4-0.6,8.9-1.2,13.3-1.9c4.4-0.7,8.9-1.5,13.3-2.3c4.4-0.8,8.9-1.7,13.3-2.7c4.4-1,8.9-2,13.3-3c4.4-1.1,8.9-2.2,13.3-3.4
	c4.4-1.2,8.9-2.4,13.3-3.7c4.4-1.3,8.9-2.6,13.3-4c4.4-1.4,8.9-2.8,13.3-4.3c4.4-1.5,8.9-3,13.3-4.6c4.4-1.6,8.9-3.2,13.3-4.9
	c4.4-1.7,8.9-3.4,13.3-5.2c4.4-1.8,8.9-3.6,13.3-5.5c4.4-1.9,8.9-3.8,13.3-5.8c4.4-2,8.9-4,13.3-6.1c4.4-2.1,8.9-4.2,13.3-6.4
	c4.4-2.2,8.9-4.4,13.3-6.6c4.3-2.2,6.8-3.4,13.3-6.9c6.7-3.6,17.7-9.6,26.6-14.6c8.9-5.1,17.7-10.3,26.6-15.7
	c8.9-5.4,17.7-11,26.6-16.8c8.9-5.8,17.7-11.7,26.6-17.8c8.9-6.1,17.8-12.4,26.6-18.8c8.9-6.4,17.7-13.1,26.6-19.9
	c8.9-6.8,17.7-13.8,26.6-20.9c8.9-7.1,17.7-14.4,26.6-21.9c8.9-7.5,17.7-15.1,26.6-22.9c8.9-7.8,17.7-15.9,26.6-23.8v274h-532.3"/>
<path fill="#8DC63F" d="M3184.6,730.5c4.4-0.1,8.9-0.2,13.3-0.4c4.4-0.1,8.9-0.1,13.3-0.4c4.4-0.3,8.9-0.8,13.3-1.2
	c4.4-0.4,8.9-0.8,13.3-1.2c4.4-0.4,8.9-0.9,13.3-1.4c4.4-0.5,8.9-1.1,13.3-1.6c4.4-0.6,8.9-1.2,13.3-1.9c4.4-0.6,8.9-1.3,13.3-2.1
	c4.4-0.7,8.9-1.5,13.3-2.2c4.4-0.8,8.9-1.6,13.3-2.4c4.4-0.8,8.9-1.7,13.3-2.6c4.4-0.9,8.9-1.9,13.3-2.8c4.4-1,8.9-2,13.3-3
	c4.4-1,8.9-2.1,13.3-3.2c4.4-1.1,8.9-2.2,13.3-3.4c4.4-1.1,8.9-2.3,13.3-3.5c4.4-1.2,8.9-2.4,13.3-3.7c4.4-1.3,8.9-2.6,13.3-3.9
	c4.4-1.3,8.9-2.7,13.3-4.1c4.4-1.4,6.7-2.1,13.3-4.2c6.7-2.2,17.7-5.9,26.6-8.9c8.9-3.1,17.7-6.3,26.6-9.6
	c8.9-3.3,17.7-6.7,26.6-10.2c8.9-3.5,17.7-7.2,26.6-10.9c8.9-3.7,17.8-7.6,26.6-11.5c8.9-3.9,17.7-8,26.6-12.1
	c8.9-4.2,17.7-8.4,26.6-12.8c8.9-4.4,17.7-8.8,26.6-13.4c8.9-4.6,17.7-9.2,26.6-14c8.9-4.8,17.7-9.7,26.6-14.6V731L3184.6,730.5z"/>
<path fill="#86B8E0" d="M3850.3,731l-665.7-0.5c4.4-0.1,8.9-0.2,13.3-0.3c4.4-0.1,8.9-0.2,13.3-0.3c4.4-0.1,8.9-0.2,13.3-0.3
	c4.4-0.1,8.9-0.2,13.3-0.3c4.4-0.1,8.9,0,13.3-0.3c4.4-0.3,8.9-1.2,13.3-1.7c4.4-0.4,8.9-0.6,13.3-0.9c4.4-0.3,8.9-0.7,13.3-1
	c4.4-0.4,8.9-0.7,13.3-1.1c4.4-0.4,8.9-0.8,13.3-1.2c4.4-0.4,8.9-0.9,13.3-1.3c4.4-0.5,8.9-0.9,13.3-1.4c4.4-0.5,8.9-1,13.3-1.5
	c4.4-0.5,8.9-1,13.3-1.6c4.4-0.5,8.9-1.1,13.3-1.6c4.4-0.6,8.9-1.1,13.3-1.7c4.4-0.6,8.9-1.2,13.3-1.8c4.4-0.6,8.9-1.3,13.3-1.9
	c4.4-0.6,8.9-1.3,13.3-2c4.4-0.7,6.7-1,13.3-2.1c6.7-1.1,17.7-2.8,26.6-4.3c8.9-1.5,17.7-3,26.6-4.6c8.9-1.6,17.7-3.2,26.6-5
	c8.9-1.7,17.7-3.4,26.6-5.2c8.9-1.8,17.8-3.7,26.6-5.5c8.9-1.9,17.7-3.8,26.6-5.8c8.9-2,17.7-4,26.6-6.1c8.9-2.1,17.7-4.2,26.6-6.4
	c8.9-2.2,17.7-4.4,26.6-6.7c7.5-1.9,13.4-3.3,26.6-7c15.5-4.3,44.4-12.1,66.6-18.6c22.2-6.5,44.4-13.2,66.5-20.3"/>
<g>
	<path fill="#1C5C85" d="M3440.1,774.9c-1.2,0-2.2,0.4-2.8,1.3s-1,2-1,3.5c0,1.6,0.3,2.8,1,3.6c0.7,0.8,1.6,1.2,2.9,1.2
		c0.5,0,1.1-0.1,1.6-0.2s1-0.2,1.6-0.4v1.8c-1,0.4-2.2,0.6-3.4,0.6c-1.9,0-3.3-0.6-4.3-1.7s-1.5-2.8-1.5-4.9c0-1.3,0.2-2.5,0.7-3.5
		c0.5-1,1.2-1.8,2.1-2.3s2-0.8,3.3-0.8c1.3,0,2.5,0.3,3.6,0.8l-0.8,1.7c-0.4-0.2-0.9-0.4-1.4-0.5
		C3441.2,774.9,3440.7,774.9,3440.1,774.9z"/>
	<path fill="#1C5C85" d="M3454.5,781.2c0,1.6-0.4,2.8-1.2,3.7s-1.9,1.3-3.4,1.3c-0.9,0-1.7-0.2-2.4-0.6s-1.2-1-1.6-1.8
		s-0.6-1.7-0.6-2.7c0-1.6,0.4-2.8,1.2-3.7s1.9-1.3,3.4-1.3c1.4,0,2.5,0.5,3.3,1.4C3454.1,778.5,3454.5,779.7,3454.5,781.2z
		 M3447.4,781.2c0,2.2,0.8,3.4,2.5,3.4c1.6,0,2.5-1.1,2.5-3.4c0-2.2-0.8-3.3-2.5-3.3c-0.9,0-1.5,0.3-1.9,0.9
		C3447.6,779.3,3447.4,780.1,3447.4,781.2z"/>
	<path fill="#1C5C85" d="M3465.5,781.2c0,1.6-0.4,2.8-1.2,3.7s-1.9,1.3-3.4,1.3c-0.9,0-1.7-0.2-2.4-0.6s-1.2-1-1.6-1.8
		s-0.6-1.7-0.6-2.7c0-1.6,0.4-2.8,1.2-3.7s1.9-1.3,3.4-1.3c1.4,0,2.5,0.5,3.3,1.4C3465.1,778.5,3465.5,779.7,3465.5,781.2z
		 M3458.4,781.2c0,2.2,0.8,3.4,2.5,3.4c1.6,0,2.5-1.1,2.5-3.4c0-2.2-0.8-3.3-2.5-3.3c-0.9,0-1.5,0.3-1.9,0.9
		C3458.6,779.3,3458.4,780.1,3458.4,781.2z"/>
	<path fill="#1C5C85" d="M3469.9,786.1h-2.1v-13.7h2.1V786.1z"/>
	<path fill="#1C5C85" d="M3478.9,786.1l-0.4-1.4h-0.1c-0.5,0.6-0.9,1-1.4,1.2c-0.5,0.2-1.1,0.3-1.8,0.3c-1,0-1.7-0.3-2.2-0.8
		c-0.5-0.5-0.8-1.2-0.8-2.2c0-1,0.4-1.8,1.1-2.3s1.9-0.8,3.4-0.8l1.7-0.1v-0.5c0-0.6-0.1-1.1-0.4-1.4c-0.3-0.3-0.7-0.5-1.3-0.5
		c-0.5,0-1,0.1-1.4,0.2s-0.9,0.3-1.3,0.5l-0.7-1.5c0.5-0.3,1.1-0.5,1.7-0.6c0.6-0.1,1.2-0.2,1.8-0.2c1.2,0,2.2,0.3,2.8,0.8
		c0.6,0.5,0.9,1.4,0.9,2.5v6.5H3478.9z M3475.9,784.7c0.8,0,1.4-0.2,1.8-0.6c0.5-0.4,0.7-1,0.7-1.8v-0.8l-1.2,0.1
		c-1,0-1.7,0.2-2.1,0.5c-0.4,0.3-0.7,0.7-0.7,1.3c0,0.4,0.1,0.8,0.4,1C3475,784.6,3475.3,784.7,3475.9,784.7z"/>
	<path fill="#1C5C85" d="M3491.9,786.1h-2.1v-6c0-0.8-0.2-1.3-0.5-1.7c-0.3-0.4-0.8-0.6-1.4-0.6c-0.9,0-1.5,0.3-1.9,0.8
		s-0.6,1.4-0.6,2.6v4.8h-2.1v-9.7h1.6l0.3,1.3h0.1c0.3-0.5,0.7-0.8,1.2-1.1s1.1-0.4,1.8-0.4c2.3,0,3.5,1.2,3.5,3.6V786.1z"/>
	<path fill="#1C5C85" d="M3498.3,784.6c0.5,0,1-0.1,1.5-0.2v1.6c-0.2,0.1-0.5,0.2-0.9,0.2c-0.4,0.1-0.7,0.1-1.1,0.1
		c-2,0-2.9-1-2.9-3.1v-5.2h-1.3V777l1.4-0.8l0.7-2.1h1.3v2.2h2.8v1.6h-2.8v5.2c0,0.5,0.1,0.9,0.4,1.1
		C3497.6,784.5,3497.9,784.6,3498.3,784.6z"/>
	<path fill="#1C5C85" d="M3508.8,786.1h-2.1v-12.8h7.3v1.8h-5.2v4h4.8v1.8h-4.8V786.1z"/>
	<path fill="#1C5C85" d="M3518.1,786.1h-2.1v-13.7h2.1V786.1z"/>
	<path fill="#1C5C85" d="M3529.7,781.2c0,1.6-0.4,2.8-1.2,3.7s-1.9,1.3-3.4,1.3c-0.9,0-1.7-0.2-2.4-0.6s-1.2-1-1.6-1.8
		s-0.6-1.7-0.6-2.7c0-1.6,0.4-2.8,1.2-3.7s1.9-1.3,3.4-1.3c1.4,0,2.5,0.5,3.3,1.4C3529.3,778.5,3529.7,779.7,3529.7,781.2z
		 M3522.6,781.2c0,2.2,0.8,3.4,2.5,3.4c1.6,0,2.5-1.1,2.5-3.4c0-2.2-0.8-3.3-2.5-3.3c-0.9,0-1.5,0.3-1.9,0.9
		C3522.8,779.3,3522.6,780.1,3522.6,781.2z"/>
	<path fill="#1C5C85" d="M3540,786.1l-1.3-4.5c-0.2-0.5-0.4-1.6-0.8-3.3h-0.1c-0.3,1.6-0.6,2.7-0.8,3.4l-1.3,4.5h-2.3l-2.7-9.7h2.1
		l1.2,4.8c0.3,1.2,0.5,2.2,0.6,3h0.1c0.1-0.4,0.1-0.9,0.3-1.5c0.1-0.6,0.2-1,0.3-1.2l1.5-5.1h2.3l1.4,5.1c0.1,0.3,0.2,0.7,0.3,1.3
		c0.1,0.6,0.2,1.1,0.2,1.4h0.1c0.1-0.7,0.3-1.7,0.6-3l1.3-4.8h2.1l-2.7,9.7H3540z"/>
	<path fill="#1C5C85" d="M3550.7,781.2c0-1.6,0.2-3,0.7-4.4c0.5-1.4,1.1-2.5,2-3.6h1.8c-0.8,1.1-1.4,2.3-1.9,3.7s-0.7,2.8-0.7,4.2
		s0.2,2.8,0.7,4.2s1.1,2.6,1.9,3.6h-1.8c-0.9-1-1.5-2.2-2-3.5S3550.7,782.7,3550.7,781.2z"/>
	<path fill="#1C5C85" d="M3562.6,779.1h4.7v6.5c-0.8,0.3-1.5,0.4-2.2,0.5c-0.7,0.1-1.5,0.2-2.3,0.2c-1.9,0-3.4-0.6-4.5-1.7
		c-1.1-1.2-1.6-2.8-1.6-4.9c0-2.1,0.6-3.7,1.8-4.9c1.2-1.2,2.8-1.8,4.9-1.8c1.3,0,2.6,0.3,3.8,0.8l-0.7,1.7c-1-0.5-2.1-0.7-3.1-0.7
		c-1.4,0-2.5,0.4-3.3,1.3s-1.2,2-1.2,3.5c0,1.6,0.4,2.8,1.1,3.6c0.7,0.8,1.8,1.2,3.1,1.2c0.7,0,1.4-0.1,2.2-0.3v-3.3h-2.7V779.1z"/>
	<path fill="#1C5C85" d="M3579,777.1c0,1.3-0.4,2.4-1.3,3.1s-2.1,1.1-3.8,1.1h-1.3v4.8h-2.1v-12.8h3.7c1.6,0,2.8,0.3,3.6,1
		C3578.6,774.9,3579,775.8,3579,777.1z M3572.5,779.5h1.1c1.1,0,1.9-0.2,2.4-0.6s0.8-1,0.8-1.8c0-0.7-0.2-1.3-0.7-1.7
		s-1.2-0.5-2.1-0.5h-1.5V779.5z"/>
	<path fill="#1C5C85" d="M3587.1,786.1l-3.7-10.7h-0.1c0.1,1.6,0.1,3.1,0.1,4.5v6.2h-1.9v-12.8h3l3.6,10.2h0.1l3.7-10.2h3v12.8h-2
		v-6.4c0-0.6,0-1.5,0-2.5c0-1,0.1-1.6,0.1-1.9h-0.1l-3.9,10.7H3587.1z"/>
	<path fill="#1C5C85" d="M3601.4,781.2c0,1.5-0.2,3-0.7,4.3c-0.5,1.3-1.1,2.5-2,3.5h-1.8c0.8-1.1,1.4-2.3,1.9-3.6
		c0.4-1.3,0.6-2.7,0.6-4.1c0-1.4-0.2-2.8-0.7-4.2c-0.4-1.4-1.1-2.6-1.9-3.7h1.8c0.9,1,1.5,2.2,2,3.6
		C3601.2,778.2,3601.4,779.6,3601.4,781.2z"/>
</g>
<g>
	<path fill="#1C5C85" d="M3138.5,570.9c1.3,0,2.4,0.4,3.1,1.3s1.1,2.1,1.1,3.8v1.3h4.8v2.1h-12.8v-3.7c0-1.6,0.3-2.8,1-3.6
		C3136.3,571.3,3137.2,570.9,3138.5,570.9z M3140.9,577.3v-1.1c0-1.1-0.2-1.9-0.6-2.4s-1-0.8-1.8-0.8c-0.7,0-1.3,0.2-1.7,0.7
		s-0.5,1.2-0.5,2.1v1.5H3140.9z"/>
	<path fill="#1C5C85" d="M3137.6,563.7c0-0.4,0-0.8,0.1-1l1.9,0.2c-0.1,0.3-0.1,0.6-0.1,0.9c0,0.8,0.3,1.5,0.8,2
		c0.5,0.5,1.2,0.8,2.1,0.8h5.1v2.1h-9.7V567l1.7-0.3v-0.1c-0.6-0.3-1-0.7-1.4-1.3C3137.7,564.8,3137.6,564.3,3137.6,563.7z"/>
	<path fill="#1C5C85" d="M3147.6,556.6c0,1.5-0.4,2.7-1.3,3.5c-0.9,0.9-2.1,1.3-3.6,1.3c-1.6,0-2.8-0.4-3.7-1.2s-1.4-1.9-1.4-3.3
		c0-1.3,0.4-2.3,1.2-3s1.9-1.1,3.2-1.1h1.1v6.5c0.9,0,1.7-0.3,2.2-0.8c0.5-0.5,0.8-1.2,0.8-2c0-0.6-0.1-1.1-0.2-1.6
		c-0.1-0.5-0.3-1-0.5-1.6h1.7c0.2,0.5,0.4,1,0.5,1.5S3147.6,555.9,3147.6,556.6z M3139.1,557c0,0.7,0.2,1.2,0.6,1.6
		c0.4,0.4,1,0.6,1.8,0.7v-4.4c-0.8,0-1.4,0.2-1.8,0.6C3139.3,555.8,3139.1,556.3,3139.1,557z"/>
	<path fill="#1C5C85" d="M3144.7,543.9c0.9,0,1.7,0.3,2.2,1c0.5,0.7,0.8,1.7,0.8,3c0,1.3-0.2,2.3-0.6,3.1h-1.8
		c0.5-1.1,0.8-2.2,0.8-3.2c0-1.3-0.4-1.9-1.2-1.9c-0.2,0-0.5,0.1-0.6,0.2s-0.3,0.4-0.5,0.7s-0.4,0.8-0.6,1.3
		c-0.4,1.1-0.9,1.9-1.3,2.3c-0.4,0.4-1,0.6-1.7,0.6c-0.8,0-1.5-0.3-1.9-1c-0.5-0.7-0.7-1.6-0.7-2.7c0-1.1,0.2-2.2,0.7-3.2l1.6,0.7
		c-0.4,1-0.7,1.9-0.7,2.6c0,1.1,0.3,1.6,0.9,1.6c0.3,0,0.6-0.1,0.8-0.4c0.2-0.3,0.5-0.9,0.9-1.9c0.3-0.8,0.6-1.4,0.9-1.8
		s0.6-0.6,0.9-0.8C3143.8,544,3144.2,543.9,3144.7,543.9z"/>
	<path fill="#1C5C85" d="M3144.7,535.2c0.9,0,1.7,0.3,2.2,1c0.5,0.7,0.8,1.7,0.8,3c0,1.3-0.2,2.3-0.6,3.1h-1.8
		c0.5-1.1,0.8-2.2,0.8-3.2c0-1.3-0.4-1.9-1.2-1.9c-0.2,0-0.5,0.1-0.6,0.2s-0.3,0.4-0.5,0.7s-0.4,0.8-0.6,1.3
		c-0.4,1.1-0.9,1.9-1.3,2.3c-0.4,0.4-1,0.6-1.7,0.6c-0.8,0-1.5-0.3-1.9-1c-0.5-0.7-0.7-1.6-0.7-2.7c0-1.1,0.2-2.2,0.7-3.2l1.6,0.7
		c-0.4,1-0.7,1.9-0.7,2.6c0,1.1,0.3,1.6,0.9,1.6c0.3,0,0.6-0.1,0.8-0.4s0.5-0.9,0.9-1.9c0.3-0.8,0.6-1.4,0.9-1.7s0.6-0.6,0.9-0.8
		C3143.8,535.2,3144.2,535.2,3144.7,535.2z"/>
	<path fill="#1C5C85" d="M3147.5,526.1l-1.3,0.3v0.1c0.5,0.3,0.8,0.7,1.1,1.2c0.3,0.5,0.4,1.1,0.4,1.8c0,1.2-0.3,2.1-0.9,2.6
		s-1.5,0.9-2.7,0.9h-6.4v-2.1h6c0.7,0,1.3-0.2,1.7-0.5c0.4-0.3,0.6-0.8,0.6-1.4c0-0.9-0.3-1.5-0.8-1.9c-0.5-0.4-1.4-0.6-2.6-0.6
		h-4.8v-2.1h9.7V526.1z"/>
	<path fill="#1C5C85" d="M3137.6,516.6c0-0.4,0-0.8,0.1-1l1.9,0.2c-0.1,0.3-0.1,0.6-0.1,0.9c0,0.8,0.3,1.5,0.8,2s1.2,0.8,2.1,0.8
		h5.1v2.1h-9.7v-1.6l1.7-0.3v-0.1c-0.6-0.3-1-0.7-1.4-1.3C3137.7,517.7,3137.6,517.2,3137.6,516.6z"/>
	<path fill="#1C5C85" d="M3147.6,509.5c0,1.5-0.4,2.7-1.3,3.5c-0.9,0.9-2.1,1.3-3.6,1.3c-1.6,0-2.8-0.4-3.7-1.2s-1.4-1.9-1.4-3.3
		c0-1.3,0.4-2.3,1.2-3s1.9-1.1,3.2-1.1h1.1v6.5c0.9,0,1.7-0.3,2.2-0.8c0.5-0.5,0.8-1.2,0.8-2c0-0.6-0.1-1.1-0.2-1.6
		c-0.1-0.5-0.3-1-0.5-1.6h1.7c0.2,0.5,0.4,1,0.5,1.5S3147.6,508.8,3147.6,509.5z M3139.1,509.9c0,0.7,0.2,1.2,0.6,1.6
		c0.4,0.4,1,0.6,1.8,0.7v-4.4c-0.8,0-1.4,0.2-1.8,0.6C3139.3,508.7,3139.1,509.2,3139.1,509.9z"/>
	<path fill="#1C5C85" d="M3140.9,488c2.1,0,3.7,0.6,4.9,1.8c1.1,1.2,1.7,2.9,1.7,5.1v3.6h-12.8v-4c0-2,0.6-3.6,1.7-4.8
		S3138.9,488,3140.9,488z M3141,490.2c-3.1,0-4.6,1.4-4.6,4.3v1.8h9.3v-1.5C3145.7,491.8,3144.1,490.2,3141,490.2z"/>
	<path fill="#1C5C85" d="M3137.6,480.6c0-0.4,0-0.8,0.1-1l1.9,0.2c-0.1,0.3-0.1,0.6-0.1,0.9c0,0.8,0.3,1.5,0.8,2s1.2,0.8,2.1,0.8
		h5.1v2.1h-9.7v-1.6l1.7-0.3v-0.1c-0.6-0.3-1-0.7-1.4-1.3C3137.7,481.7,3137.6,481.2,3137.6,480.6z"/>
	<path fill="#1C5C85" d="M3142.6,469.1c1.6,0,2.8,0.4,3.7,1.2s1.3,1.9,1.3,3.4c0,0.9-0.2,1.7-0.6,2.4s-1,1.2-1.8,1.6
		s-1.7,0.6-2.7,0.6c-1.6,0-2.8-0.4-3.7-1.2s-1.3-1.9-1.3-3.4c0-1.4,0.5-2.5,1.4-3.3C3139.8,469.5,3141,469.1,3142.6,469.1z
		 M3142.6,476.2c2.2,0,3.4-0.8,3.4-2.5c0-1.6-1.1-2.5-3.4-2.5c-2.2,0-3.3,0.8-3.3,2.5c0,0.9,0.3,1.5,0.9,1.9
		S3141.5,476.2,3142.6,476.2z"/>
	<path fill="#1C5C85" d="M3147.6,461.8c0,1.2-0.4,2.2-1.3,2.9v0.1c0.8-0.1,1.3-0.1,1.5-0.1h4v2.1h-14v-1.7c0.2,0,0.6-0.1,1.3-0.3
		v-0.1c-1-0.6-1.5-1.6-1.5-2.9c0-1.2,0.4-2.2,1.3-2.8c0.9-0.7,2.1-1,3.7-1s2.8,0.3,3.7,1C3147.2,459.6,3147.6,460.6,3147.6,461.8z
		 M3139.3,462.3c0,0.8,0.2,1.4,0.7,1.8c0.5,0.4,1.2,0.6,2.3,0.6h0.3c1.2,0,2-0.2,2.6-0.6c0.5-0.4,0.8-1,0.8-1.8
		c0-0.7-0.3-1.3-0.9-1.7s-1.4-0.6-2.5-0.6c-1.1,0-1.9,0.2-2.5,0.6C3139.5,461,3139.3,461.6,3139.3,462.3z"/>
	<path fill="#1C5C85" d="M3142.5,451.6c-1.6,0-3-0.2-4.4-0.7c-1.4-0.5-2.5-1.1-3.6-2v-1.8c1.1,0.8,2.3,1.4,3.7,1.9
		c1.4,0.4,2.8,0.7,4.2,0.7s2.8-0.2,4.2-0.7s2.6-1.1,3.6-1.9v1.8c-1,0.9-2.2,1.5-3.5,2S3144.1,451.6,3142.5,451.6z"/>
	<path fill="#1C5C85" d="M3138.5,436.4c1.3,0,2.4,0.4,3.1,1.3s1.1,2.1,1.1,3.8v1.3h4.8v2.1h-12.8v-3.7c0-1.6,0.3-2.8,1-3.6
		C3136.3,436.8,3137.2,436.4,3138.5,436.4z M3140.9,442.8v-1.1c0-1.1-0.2-1.9-0.6-2.4s-1-0.8-1.8-0.8c-0.7,0-1.3,0.2-1.7,0.7
		s-0.5,1.2-0.5,2.1v1.5H3140.9z"/>
	<path fill="#1C5C85" d="M3144,426.4c1.1,0,2,0.4,2.7,1.2s1,2,1,3.4s-0.2,2.6-0.7,3.6h-2c0.3-0.6,0.5-1.2,0.7-1.9
		c0.2-0.7,0.2-1.3,0.2-1.8c0-0.8-0.2-1.4-0.5-1.8c-0.3-0.4-0.7-0.6-1.3-0.6c-0.5,0-0.9,0.2-1.2,0.5s-0.7,1.1-1.2,2.2
		c-0.5,1.2-1,2-1.6,2.5s-1.3,0.7-2.2,0.7c-1.1,0-1.9-0.4-2.5-1.1s-0.9-1.8-0.9-3.1c0-1.2,0.3-2.5,0.8-3.7l1.7,0.7
		c-0.5,1.1-0.7,2.2-0.7,3.1c0,0.7,0.1,1.2,0.4,1.5c0.3,0.4,0.7,0.5,1.2,0.5c0.3,0,0.6-0.1,0.9-0.2c0.2-0.1,0.5-0.4,0.7-0.7
		s0.5-0.9,0.8-1.7c0.4-0.9,0.8-1.6,1.1-2.1s0.7-0.8,1.2-1S3143.4,426.4,3144,426.4z"/>
	<path fill="#1C5C85" d="M3147.5,423.9h-12.8v-2.1h12.8V423.9z"/>
	<path fill="#1C5C85" d="M3142.5,415.2c1.5,0,3,0.2,4.3,0.7c1.3,0.5,2.5,1.1,3.5,2v1.8c-1.1-0.8-2.3-1.4-3.6-1.9
		c-1.3-0.4-2.7-0.6-4.1-0.6c-1.4,0-2.8,0.2-4.2,0.7c-1.4,0.4-2.6,1.1-3.7,1.9v-1.8c1-0.9,2.2-1.5,3.6-2
		C3139.5,415.4,3141,415.2,3142.5,415.2z"/>
</g>
<g>
	<path fill="#1C5C85" d="M3907.9,572.4c1.3,0,2.4,0.4,3.1,1.3s1.1,2.1,1.1,3.8v1.3h4.8v2.1H3904v-3.7c0-1.6,0.3-2.8,1-3.6
		C3905.6,572.8,3906.6,572.4,3907.9,572.4z M3910.3,578.8v-1.1c0-1.1-0.2-1.9-0.6-2.4s-1-0.8-1.8-0.8c-0.7,0-1.3,0.2-1.7,0.7
		s-0.5,1.2-0.5,2.1v1.5H3910.3z"/>
	<path fill="#1C5C85" d="M3906.9,565.1c0-0.4,0-0.8,0.1-1l1.9,0.2c-0.1,0.3-0.1,0.6-0.1,0.9c0,0.8,0.3,1.5,0.8,2
		c0.5,0.5,1.2,0.8,2.1,0.8h5.1v2.1h-9.7v-1.6l1.7-0.3v-0.1c-0.6-0.3-1-0.7-1.4-1.3C3907.1,566.3,3906.9,565.7,3906.9,565.1z"/>
	<path fill="#1C5C85" d="M3917,558.1c0,1.5-0.4,2.7-1.3,3.5c-0.9,0.9-2.1,1.3-3.6,1.3c-1.6,0-2.8-0.4-3.7-1.2s-1.4-1.9-1.4-3.3
		c0-1.3,0.4-2.3,1.2-3s1.9-1.1,3.2-1.1h1.1v6.5c0.9,0,1.7-0.3,2.2-0.8s0.8-1.2,0.8-2c0-0.6-0.1-1.1-0.2-1.6c-0.1-0.5-0.3-1-0.5-1.6
		h1.7c0.2,0.5,0.4,1,0.5,1.5S3917,557.4,3917,558.1z M3908.5,558.4c0,0.7,0.2,1.2,0.6,1.6c0.4,0.4,1,0.6,1.8,0.7v-4.4
		c-0.8,0-1.4,0.2-1.8,0.6S3908.5,557.8,3908.5,558.4z"/>
	<path fill="#1C5C85" d="M3914.1,545.4c0.9,0,1.7,0.3,2.2,1s0.8,1.7,0.8,3c0,1.3-0.2,2.3-0.6,3.1h-1.8c0.5-1.1,0.8-2.2,0.8-3.2
		c0-1.3-0.4-1.9-1.2-1.9c-0.2,0-0.5,0.1-0.6,0.2s-0.3,0.4-0.5,0.7s-0.4,0.8-0.6,1.3c-0.4,1.1-0.9,1.9-1.3,2.3
		c-0.4,0.4-1,0.6-1.7,0.6c-0.8,0-1.5-0.3-1.9-1c-0.5-0.7-0.7-1.6-0.7-2.7c0-1.1,0.2-2.2,0.7-3.2l1.6,0.7c-0.4,1-0.7,1.9-0.7,2.6
		c0,1.1,0.3,1.6,0.9,1.6c0.3,0,0.6-0.1,0.8-0.4c0.2-0.3,0.5-0.9,0.9-1.9c0.3-0.8,0.6-1.4,0.9-1.8s0.6-0.6,0.9-0.8
		S3913.6,545.4,3914.1,545.4z"/>
	<path fill="#1C5C85" d="M3914.1,536.6c0.9,0,1.7,0.3,2.2,1s0.8,1.7,0.8,3c0,1.3-0.2,2.3-0.6,3.1h-1.8c0.5-1.1,0.8-2.2,0.8-3.2
		c0-1.3-0.4-1.9-1.2-1.9c-0.2,0-0.5,0.1-0.6,0.2s-0.3,0.4-0.5,0.7s-0.4,0.8-0.6,1.3c-0.4,1.1-0.9,1.9-1.3,2.3
		c-0.4,0.4-1,0.6-1.7,0.6c-0.8,0-1.5-0.3-1.9-1c-0.5-0.7-0.7-1.6-0.7-2.7c0-1.1,0.2-2.2,0.7-3.2l1.6,0.7c-0.4,1-0.7,1.9-0.7,2.6
		c0,1.1,0.3,1.6,0.9,1.6c0.3,0,0.6-0.1,0.8-0.4c0.2-0.3,0.5-0.9,0.9-1.9c0.3-0.8,0.6-1.4,0.9-1.7s0.6-0.6,0.9-0.8
		S3913.6,536.6,3914.1,536.6z"/>
	<path fill="#1C5C85" d="M3916.8,527.6l-1.3,0.3v0.1c0.5,0.3,0.8,0.7,1.1,1.2c0.3,0.5,0.4,1.1,0.4,1.8c0,1.2-0.3,2.1-0.9,2.6
		s-1.5,0.9-2.7,0.9h-6.4v-2.1h6c0.7,0,1.3-0.2,1.7-0.5s0.6-0.8,0.6-1.4c0-0.9-0.3-1.5-0.8-1.9c-0.5-0.4-1.4-0.6-2.6-0.6h-4.8v-2.1
		h9.7V527.6z"/>
	<path fill="#1C5C85" d="M3906.9,518c0-0.4,0-0.8,0.1-1l1.9,0.2c-0.1,0.3-0.1,0.6-0.1,0.9c0,0.8,0.3,1.5,0.8,2s1.2,0.8,2.1,0.8h5.1
		v2.1h-9.7v-1.6l1.7-0.3V521c-0.6-0.3-1-0.7-1.4-1.3C3907.1,519.2,3906.9,518.6,3906.9,518z"/>
	<path fill="#1C5C85" d="M3917,511c0,1.5-0.4,2.7-1.3,3.5c-0.9,0.9-2.1,1.3-3.6,1.3c-1.6,0-2.8-0.4-3.7-1.2s-1.4-1.9-1.4-3.3
		c0-1.3,0.4-2.3,1.2-3s1.9-1.1,3.2-1.1h1.1v6.5c0.9,0,1.7-0.3,2.2-0.8s0.8-1.2,0.8-2c0-0.6-0.1-1.1-0.2-1.6s-0.3-1-0.5-1.6h1.7
		c0.2,0.5,0.4,1,0.5,1.5S3917,510.3,3917,511z M3908.5,511.4c0,0.7,0.2,1.2,0.6,1.6c0.4,0.4,1,0.6,1.8,0.7v-4.4
		c-0.8,0-1.4,0.2-1.8,0.6S3908.5,510.7,3908.5,511.4z"/>
	<path fill="#1C5C85" d="M3910.3,489.5c2.1,0,3.7,0.6,4.9,1.8s1.7,2.9,1.7,5.1v3.6H3904v-4c0-2,0.6-3.6,1.7-4.8
		S3908.3,489.5,3910.3,489.5z M3910.4,491.7c-3.1,0-4.6,1.4-4.6,4.3v1.8h9.3v-1.5C3915.1,493.3,3913.5,491.7,3910.4,491.7z"/>
	<path fill="#1C5C85" d="M3906.9,482c0-0.4,0-0.8,0.1-1l1.9,0.2c-0.1,0.3-0.1,0.6-0.1,0.9c0,0.8,0.3,1.5,0.8,2s1.2,0.8,2.1,0.8h5.1
		v2.1h-9.7v-1.6l1.7-0.3V485c-0.6-0.3-1-0.7-1.4-1.3C3907.1,483.2,3906.9,482.6,3906.9,482z"/>
	<path fill="#1C5C85" d="M3912,470.6c1.6,0,2.8,0.4,3.7,1.2s1.3,1.9,1.3,3.4c0,0.9-0.2,1.7-0.6,2.4s-1,1.2-1.8,1.6s-1.7,0.6-2.7,0.6
		c-1.6,0-2.8-0.4-3.7-1.2s-1.3-1.9-1.3-3.4c0-1.4,0.5-2.5,1.4-3.3S3910.4,470.6,3912,470.6z M3912,477.7c2.2,0,3.4-0.8,3.4-2.5
		c0-1.6-1.1-2.5-3.4-2.5c-2.2,0-3.3,0.8-3.3,2.5c0,0.9,0.3,1.5,0.9,1.9S3910.9,477.7,3912,477.7z"/>
	<path fill="#1C5C85" d="M3917,463.3c0,1.2-0.4,2.2-1.3,2.9v0.1c0.8-0.1,1.3-0.1,1.5-0.1h4v2.1h-14v-1.7c0.2,0,0.6-0.1,1.3-0.3v-0.1
		c-1-0.6-1.5-1.6-1.5-2.9c0-1.2,0.4-2.2,1.3-2.8c0.9-0.7,2.1-1,3.7-1s2.8,0.3,3.7,1C3916.6,461.1,3917,462.1,3917,463.3z
		 M3908.6,463.8c0,0.8,0.2,1.4,0.7,1.8c0.5,0.4,1.2,0.6,2.3,0.6h0.3c1.2,0,2-0.2,2.6-0.6s0.8-1,0.8-1.8c0-0.7-0.3-1.3-0.9-1.7
		s-1.4-0.6-2.5-0.6c-1.1,0-1.9,0.2-2.5,0.6S3908.6,463,3908.6,463.8z"/>
	<path fill="#1C5C85" d="M3911.9,453.1c-1.6,0-3-0.2-4.4-0.7c-1.4-0.5-2.5-1.1-3.6-2v-1.8c1.1,0.8,2.3,1.4,3.7,1.9s2.8,0.7,4.2,0.7
		s2.8-0.2,4.2-0.7s2.6-1.1,3.6-1.9v1.8c-1,0.9-2.2,1.5-3.5,2S3913.4,453.1,3911.9,453.1z"/>
	<path fill="#1C5C85" d="M3906.9,441.6c0-1.2,0.4-2.2,1.3-2.8c0.9-0.7,2.1-1,3.7-1c1.6,0,2.8,0.3,3.7,1s1.3,1.6,1.3,2.9
		c0,1.2-0.4,2.2-1.3,2.9v0.1l1.2,0.4v1.5h-13.7v-2.1h3.3c0.2,0,0.6,0,1.1,0s0.8,0,0.9,0.1v-0.1
		C3907.4,443.9,3906.9,442.9,3906.9,441.6z M3908.6,442.2c0,0.8,0.2,1.4,0.7,1.8c0.5,0.4,1.3,0.6,2.5,0.6h0.1c1.2,0,2-0.2,2.6-0.6
		s0.8-1,0.8-1.8c0-0.7-0.3-1.3-0.9-1.7c-0.6-0.4-1.4-0.6-2.5-0.6C3909.7,439.9,3908.6,440.7,3908.6,442.2z"/>
	<path fill="#1C5C85" d="M3916.8,429.3l-1.4,0.4v0.1c0.6,0.5,1,0.9,1.2,1.4s0.3,1.1,0.3,1.8c0,1-0.3,1.7-0.8,2.2
		c-0.5,0.5-1.2,0.8-2.2,0.8c-1,0-1.8-0.4-2.3-1.1s-0.8-1.9-0.8-3.4l-0.1-1.7h-0.5c-0.6,0-1.1,0.1-1.4,0.4c-0.3,0.3-0.5,0.7-0.5,1.3
		c0,0.5,0.1,1,0.2,1.4s0.3,0.9,0.5,1.3l-1.5,0.7c-0.3-0.5-0.5-1.1-0.6-1.7s-0.2-1.2-0.2-1.8c0-1.2,0.3-2.2,0.8-2.8s1.4-0.9,2.5-0.9
		h6.5V429.3z M3915.4,432.4c0-0.8-0.2-1.4-0.6-1.8c-0.4-0.5-1-0.7-1.8-0.7h-0.8l0.1,1.2c0,1,0.2,1.7,0.5,2.1
		c0.3,0.4,0.7,0.7,1.3,0.7c0.4,0,0.8-0.1,1-0.4S3915.4,432.9,3915.4,432.4z"/>
	<path fill="#1C5C85" d="M3906.9,420c0-0.4,0-0.8,0.1-1l1.9,0.2c-0.1,0.3-0.1,0.6-0.1,0.9c0,0.8,0.3,1.5,0.8,2s1.2,0.8,2.1,0.8h5.1
		v2.1h-9.7v-1.6l1.7-0.3V423c-0.6-0.3-1-0.7-1.4-1.3C3907.1,421.2,3906.9,420.6,3906.9,420z"/>
	<path fill="#1C5C85" d="M3911.9,413.7c1.5,0,3,0.2,4.3,0.7c1.3,0.5,2.5,1.1,3.5,2v1.8c-1.1-0.8-2.3-1.4-3.6-1.9
		c-1.3-0.4-2.7-0.6-4.1-0.6c-1.4,0-2.8,0.2-4.2,0.7s-2.6,1.1-3.7,1.9v-1.8c1-0.9,2.2-1.5,3.6-2S3910.4,413.7,3911.9,413.7z"/>
</g>
<g>
	<path fill="#595959" d="M3190.1,747.2c0,2.2-0.3,3.9-1.1,5c-0.7,1.1-1.8,1.6-3.2,1.6c-1.4,0-2.4-0.6-3.2-1.7
		c-0.7-1.1-1.1-2.8-1.1-4.9c0-2.2,0.3-3.9,1-5s1.8-1.6,3.2-1.6c1.4,0,2.5,0.6,3.2,1.7C3189.8,743.5,3190.1,745.1,3190.1,747.2z
		 M3183.1,747.2c0,1.9,0.2,3.2,0.7,4.1c0.4,0.9,1.1,1.3,2.1,1.3c1,0,1.7-0.4,2.1-1.3c0.4-0.9,0.7-2.2,0.7-4.1s-0.2-3.2-0.7-4.1
		c-0.4-0.9-1.1-1.3-2.1-1.3c-1,0-1.7,0.4-2.1,1.3S3183.1,745.4,3183.1,747.2z"/>
</g>
<g>
	<path fill="#595959" d="M3320.1,753.7h-1.4v-9.2c0-0.8,0-1.5,0.1-2.2c-0.1,0.1-0.3,0.3-0.4,0.4s-0.8,0.7-2.1,1.7l-0.8-1l3.4-2.6
		h1.2V753.7z"/>
</g>
<g>
	<path fill="#595959" d="M3456.2,753.7h-8.4v-1.3l3.4-3.4c1-1,1.7-1.8,2-2.2s0.6-0.9,0.7-1.3s0.2-0.9,0.2-1.4c0-0.7-0.2-1.2-0.6-1.6
		s-1-0.6-1.7-0.6c-0.5,0-1,0.1-1.5,0.3s-1,0.5-1.6,1l-0.8-1c1.2-1,2.5-1.5,3.9-1.5c1.2,0,2.2,0.3,2.8,0.9c0.7,0.6,1,1.4,1,2.5
		c0,0.8-0.2,1.6-0.7,2.4s-1.3,1.8-2.6,3l-2.8,2.8v0.1h6.6V753.7z"/>
</g>
<g>
	<path fill="#595959" d="M3588.8,743.9c0,0.8-0.2,1.5-0.7,2c-0.5,0.5-1.1,0.9-2,1v0.1c1,0.1,1.8,0.5,2.3,1s0.7,1.2,0.7,2.1
		c0,1.2-0.4,2.2-1.3,2.8c-0.8,0.7-2.1,1-3.6,1c-0.7,0-1.3-0.1-1.9-0.2c-0.6-0.1-1.1-0.3-1.6-0.5v-1.4c0.6,0.3,1.2,0.5,1.8,0.6
		c0.6,0.1,1.2,0.2,1.8,0.2c2.2,0,3.3-0.9,3.3-2.6c0-1.6-1.2-2.3-3.7-2.3h-1.3v-1.3h1.3c1,0,1.8-0.2,2.4-0.7s0.9-1.1,0.9-1.8
		c0-0.6-0.2-1.1-0.6-1.5c-0.4-0.4-1-0.5-1.8-0.5c-0.6,0-1.1,0.1-1.6,0.2s-1.1,0.4-1.7,0.8l-0.7-1c0.5-0.4,1.1-0.7,1.8-1
		c0.7-0.2,1.4-0.4,2.2-0.4c1.2,0,2.2,0.3,2.9,0.9C3588.4,742.1,3588.8,742.9,3588.8,743.9z"/>
</g>
<g>
	<path fill="#595959" d="M3722.9,750.7h-1.9v3h-1.4v-3h-6.2v-1.3l6.1-8.7h1.5v8.6h1.9V750.7z M3719.6,749.4v-4.3
		c0-0.8,0-1.8,0.1-2.8h-0.1c-0.3,0.6-0.5,1-0.8,1.4l-4,5.7H3719.6z"/>
</g>
<g>
	<path fill="#595959" d="M3851,745.8c1.4,0,2.4,0.3,3.2,1c0.8,0.7,1.2,1.6,1.2,2.8c0,1.3-0.4,2.4-1.3,3.1c-0.8,0.8-2,1.1-3.5,1.1
		c-1.4,0-2.6-0.2-3.3-0.7v-1.4c0.4,0.3,0.9,0.5,1.5,0.6c0.6,0.1,1.2,0.2,1.8,0.2c1,0,1.8-0.2,2.4-0.7c0.6-0.5,0.9-1.2,0.9-2.1
		c0-1.8-1.1-2.7-3.3-2.7c-0.6,0-1.3,0.1-2.2,0.3l-0.8-0.5l0.5-6h6.4v1.3h-5.1l-0.3,3.9C3849.6,745.9,3850.3,745.8,3851,745.8z"/>
</g>
<rect x="3185.3" y="264.7" fill="none" stroke="#8C9293" stroke-miterlimit="10" width="665.2" height="466.2"/>
<line fill="none" stroke="#8C9293" stroke-miterlimit="10" x1="3318.1" y1="264.7" x2="3318.1" y2="731.5"/>
<line fill="none" stroke="#8C9293" stroke-miterlimit="10" x1="3451.2" y1="264.7" x2="3451.2" y2="731.5"/>
<line fill="none" stroke="#8C9293" stroke-miterlimit="10" x1="3584.2" y1="264.7" x2="3584.2" y2="731.5"/>
<line fill="none" stroke="#8C9293" stroke-miterlimit="10" x1="3717.3" y1="264.7" x2="3717.3" y2="731.5"/>
<line fill="none" stroke="#8C9293" stroke-miterlimit="10" x1="3360.4" y1="254.7" x2="3360.4" y2="264.5"/>
<line fill="none" stroke="#8C9293" stroke-miterlimit="10" x1="3537.5" y1="254.7" x2="3537.5" y2="264.5"/>
<line fill="none" stroke="#8C9293" stroke-miterlimit="10" x1="3185.5" y1="254.7" x2="3185.5" y2="264.5"/>
<line fill="none" stroke="#8C9293" stroke-miterlimit="10" x1="3712.6" y1="254.7" x2="3712.6" y2="264.5"/>
<g>
	<g>
		<path fill="#1C5C85" d="M3221.8,836.8l-1.5-11.7h-0.1c0,0.4-0.1,1-0.3,1.8c-0.1,0.8-0.2,1.4-0.3,1.8l-1.7,8.1h-1.5l2.8-13.1h2.2
			l1.3,10.8h0.1l5.9-10.8h2.4l-2.7,13.1h-1.6c0.8-3.5,1.3-6.3,1.7-8.1c0.4-1.9,0.7-3.1,0.8-3.5h-0.1l-6.4,11.7H3221.8z"/>
		<path fill="#1C5C85" d="M3236.9,826.8c1.1,0,2,0.3,2.7,1c0.7,0.7,1,1.6,1,2.8c0,1.1-0.2,2.2-0.6,3.2c-0.4,1-1,1.8-1.8,2.3
			c-0.7,0.5-1.6,0.8-2.5,0.8c-1.2,0-2.1-0.3-2.7-1s-1-1.6-1-2.8c0-1.1,0.2-2.2,0.7-3.2c0.4-1,1-1.8,1.8-2.3S3236,826.8,3236.9,826.8
			z M3239,830.4c0-0.7-0.2-1.2-0.6-1.7c-0.4-0.4-0.9-0.6-1.5-0.6c-0.7,0-1.2,0.2-1.8,0.7c-0.5,0.4-0.9,1.1-1.2,1.8
			c-0.3,0.8-0.4,1.7-0.4,2.6c0,0.8,0.2,1.4,0.6,1.8s0.9,0.6,1.6,0.6c0.6,0,1.2-0.2,1.7-0.7s0.9-1.1,1.2-1.9
			C3238.9,832.4,3239,831.4,3239,830.4z"/>
		<path fill="#1C5C85" d="M3247.2,826.8c1.2,0,2,0.6,2.5,1.7h0.1c0.1-0.9,0.2-1.8,0.4-2.5l0.7-3.2h1.5l-3,14h-1.2l0.2-1.9h-0.1
			c-0.6,0.8-1.2,1.3-1.7,1.6c-0.5,0.3-1.1,0.5-1.6,0.5c-0.8,0-1.5-0.3-2-0.9c-0.5-0.6-0.7-1.4-0.7-2.4c0-1.3,0.2-2.5,0.6-3.5
			s1-1.9,1.7-2.5C3245.4,827.1,3246.3,826.8,3247.2,826.8z M3245.5,835.7c0.6,0,1.1-0.3,1.7-0.8c0.6-0.6,1.1-1.3,1.4-2.1
			s0.5-1.8,0.5-2.7c0-0.7-0.2-1.2-0.5-1.5c-0.3-0.3-0.8-0.5-1.4-0.5c-0.6,0-1.2,0.2-1.7,0.7c-0.5,0.5-0.9,1.2-1.2,2.1
			c-0.3,0.9-0.5,1.8-0.5,2.8C3243.9,835.1,3244.4,835.7,3245.5,835.7z"/>
		<path fill="#1C5C85" d="M3256.5,837c-1.1,0-2-0.3-2.6-1c-0.6-0.7-0.9-1.6-0.9-2.7c0-1.1,0.2-2.2,0.7-3.2c0.4-1,1-1.8,1.8-2.4
			c0.7-0.6,1.5-0.9,2.4-0.9c0.9,0,1.6,0.2,2.1,0.6s0.7,1,0.7,1.7c0,1.1-0.5,1.9-1.5,2.5c-1,0.6-2.4,0.9-4.3,0.9h-0.3l0,0.7
			c0,0.8,0.2,1.4,0.6,1.8c0.4,0.4,0.9,0.7,1.7,0.7c0.4,0,0.8-0.1,1.2-0.2c0.4-0.1,0.9-0.3,1.5-0.6v1.3c-0.6,0.3-1.1,0.4-1.5,0.6
			S3257,837,3256.5,837z M3257.7,828.1c-0.6,0-1.2,0.3-1.7,0.8s-1,1.3-1.2,2.3h0.1c1.4,0,2.4-0.2,3.1-0.5s1.1-0.9,1.1-1.6
			c0-0.3-0.1-0.6-0.3-0.8C3258.5,828.2,3258.2,828.1,3257.7,828.1z"/>
		<path fill="#1C5C85" d="M3263.2,836.8h-1.5l3-14h1.5L3263.2,836.8z"/>
		<path fill="#1C5C85" d="M3272.6,836.8l4.9-10.8h-6.5v-2.3h9.4v1.7l-5,11.4H3272.6z"/>
		<path fill="#1C5C85" d="M3291,836.8h-9.2v-1.9l3.3-3.3c1-1,1.6-1.7,1.9-2.1c0.3-0.4,0.5-0.7,0.6-1.1c0.1-0.3,0.2-0.7,0.2-1
			c0-0.5-0.1-0.9-0.4-1.2c-0.3-0.3-0.7-0.4-1.2-0.4c-0.5,0-1,0.1-1.5,0.4c-0.5,0.2-1,0.6-1.5,1l-1.5-1.8c0.6-0.6,1.2-0.9,1.6-1.2
			c0.4-0.2,0.9-0.4,1.4-0.5c0.5-0.1,1.1-0.2,1.7-0.2c0.8,0,1.5,0.1,2.2,0.4c0.6,0.3,1.1,0.7,1.5,1.3c0.3,0.5,0.5,1.2,0.5,1.9
			c0,0.6-0.1,1.2-0.3,1.7c-0.2,0.5-0.5,1.1-1,1.6c-0.4,0.6-1.2,1.4-2.4,2.4l-1.7,1.6v0.1h5.7V836.8z"/>
		<path fill="#1C5C85" d="M3301.5,830.2c0,2.3-0.4,4-1.1,5.1c-0.8,1.1-1.9,1.7-3.5,1.7c-1.5,0-2.7-0.6-3.4-1.7
			c-0.8-1.1-1.2-2.8-1.2-5c0-2.3,0.4-4,1.1-5.1c0.7-1.1,1.9-1.7,3.5-1.7c1.5,0,2.7,0.6,3.4,1.7
			C3301.1,826.3,3301.5,828,3301.5,830.2z M3295.1,830.2c0,1.6,0.1,2.8,0.4,3.5c0.3,0.7,0.7,1,1.4,1c0.6,0,1.1-0.4,1.4-1.1
			c0.3-0.7,0.4-1.9,0.4-3.5c0-1.6-0.1-2.8-0.4-3.5c-0.3-0.7-0.8-1.1-1.4-1.1c-0.7,0-1.1,0.4-1.4,1.1
			C3295.2,827.5,3295.1,828.6,3295.1,830.2z"/>
	</g>
	<path fill="#D6BC3E" d="M3198.4,824.9h13.5l-4.3,12.1h-13.5L3198.4,824.9z"/>
</g>
<g>
	<g>
		<path fill="#1C5C85" d="M3220.6,866.2l-1.5-11.7h-0.1c0,0.4-0.1,1-0.3,1.8c-0.1,0.8-0.2,1.4-0.3,1.8l-1.7,8.1h-1.5l2.8-13.1h2.2
			l1.3,10.8h0.1l5.9-10.8h2.4l-2.7,13.1h-1.6c0.8-3.5,1.3-6.3,1.7-8.1c0.4-1.9,0.7-3.1,0.8-3.5h-0.1l-6.4,11.7H3220.6z"/>
		<path fill="#1C5C85" d="M3235.7,856.2c1.1,0,2,0.3,2.7,1c0.7,0.7,1,1.6,1,2.8c0,1.1-0.2,2.2-0.6,3.2c-0.4,1-1,1.8-1.8,2.3
			c-0.7,0.5-1.6,0.8-2.5,0.8c-1.2,0-2.1-0.3-2.7-1s-1-1.6-1-2.8c0-1.1,0.2-2.2,0.7-3.2c0.4-1,1-1.8,1.8-2.3
			S3234.8,856.2,3235.7,856.2z M3237.9,859.8c0-0.7-0.2-1.2-0.6-1.7c-0.4-0.4-0.9-0.6-1.5-0.6c-0.7,0-1.2,0.2-1.8,0.7
			c-0.5,0.4-0.9,1.1-1.2,1.8c-0.3,0.8-0.4,1.7-0.4,2.6c0,0.8,0.2,1.4,0.6,1.8s0.9,0.6,1.6,0.6c0.6,0,1.2-0.2,1.7-0.7
			s0.9-1.1,1.2-1.9C3237.7,861.8,3237.9,860.9,3237.9,859.8z"/>
		<path fill="#1C5C85" d="M3246,856.2c1.2,0,2,0.6,2.5,1.7h0.1c0.1-0.9,0.2-1.8,0.4-2.5l0.7-3.2h1.5l-3,14h-1.2l0.2-1.9h-0.1
			c-0.6,0.8-1.2,1.3-1.7,1.6c-0.5,0.3-1.1,0.5-1.6,0.5c-0.8,0-1.5-0.3-2-0.9c-0.5-0.6-0.7-1.4-0.7-2.4c0-1.3,0.2-2.5,0.6-3.5
			s1-1.9,1.7-2.5C3244.3,856.5,3245.1,856.2,3246,856.2z M3244.3,865.1c0.6,0,1.1-0.3,1.7-0.8c0.6-0.6,1.1-1.3,1.4-2.1
			s0.5-1.8,0.5-2.7c0-0.7-0.2-1.2-0.5-1.5c-0.3-0.3-0.8-0.5-1.4-0.5c-0.6,0-1.2,0.2-1.7,0.7c-0.5,0.5-0.9,1.2-1.2,2.1
			c-0.3,0.9-0.5,1.8-0.5,2.8C3242.7,864.5,3243.2,865.1,3244.3,865.1z"/>
		<path fill="#1C5C85" d="M3255.3,866.4c-1.1,0-2-0.3-2.6-1c-0.6-0.7-0.9-1.6-0.9-2.7c0-1.1,0.2-2.2,0.7-3.2c0.4-1,1-1.8,1.8-2.4
			c0.7-0.6,1.5-0.9,2.4-0.9c0.9,0,1.6,0.2,2.1,0.6s0.7,1,0.7,1.7c0,1.1-0.5,1.9-1.5,2.5c-1,0.6-2.4,0.9-4.3,0.9h-0.3l0,0.7
			c0,0.8,0.2,1.4,0.6,1.8c0.4,0.4,0.9,0.7,1.7,0.7c0.4,0,0.8-0.1,1.2-0.2c0.4-0.1,0.9-0.3,1.5-0.6v1.3c-0.6,0.3-1.1,0.4-1.5,0.6
			S3255.9,866.4,3255.3,866.4z M3256.6,857.5c-0.6,0-1.2,0.3-1.7,0.8s-1,1.3-1.2,2.3h0.1c1.4,0,2.4-0.2,3.1-0.5s1.1-0.9,1.1-1.6
			c0-0.3-0.1-0.6-0.3-0.8C3257.4,857.6,3257.1,857.5,3256.6,857.5z"/>
		<path fill="#1C5C85" d="M3262,866.2h-1.5l3-14h1.5L3262,866.2z"/>
		<path fill="#1C5C85" d="M3271.5,866.2l4.9-10.8h-6.5v-2.3h9.4v1.7l-5,11.4H3271.5z"/>
		<path fill="#1C5C85" d="M3289.9,866.2h-9.2v-1.9l3.3-3.3c1-1,1.6-1.7,1.9-2.1c0.3-0.4,0.5-0.7,0.6-1.1c0.1-0.3,0.2-0.7,0.2-1
			c0-0.5-0.1-0.9-0.4-1.2c-0.3-0.3-0.7-0.4-1.2-0.4c-0.5,0-1,0.1-1.5,0.4c-0.5,0.2-1,0.6-1.5,1l-1.5-1.8c0.6-0.6,1.2-0.9,1.6-1.2
			c0.4-0.2,0.9-0.4,1.4-0.5c0.5-0.1,1.1-0.2,1.7-0.2c0.8,0,1.5,0.1,2.2,0.4c0.6,0.3,1.1,0.7,1.5,1.3c0.3,0.5,0.5,1.2,0.5,1.9
			c0,0.6-0.1,1.2-0.3,1.7c-0.2,0.5-0.5,1.1-1,1.6c-0.4,0.6-1.2,1.4-2.4,2.4l-1.7,1.6v0.1h5.7V866.2z"/>
		<path fill="#1C5C85" d="M3298.1,866.2h-2.8v-7.6l0-1.2l0-1.4c-0.5,0.5-0.8,0.8-1,0.9l-1.5,1.2l-1.3-1.7l4.2-3.4h2.3V866.2z"/>
	</g>
	<path fill="#CD1D23" d="M3198.4,854.3h13.5l-4.3,12.1h-13.5L3198.4,854.3z"/>
</g>
<g>
	<g>
		<path fill="#1C5C85" d="M3400.8,836.8l-1.5-11.7h-0.1c0,0.4-0.1,1-0.3,1.8c-0.1,0.8-0.2,1.4-0.3,1.8l-1.7,8.1h-1.5l2.8-13.1h2.2
			l1.3,10.8h0.1l5.9-10.8h2.4l-2.7,13.1h-1.6c0.8-3.5,1.3-6.3,1.7-8.1c0.4-1.9,0.7-3.1,0.8-3.5h-0.1l-6.4,11.7H3400.8z"/>
		<path fill="#1C5C85" d="M3415.9,826.8c1.1,0,2,0.3,2.7,1c0.7,0.7,1,1.6,1,2.8c0,1.1-0.2,2.2-0.6,3.2c-0.4,1-1,1.8-1.8,2.3
			c-0.7,0.5-1.6,0.8-2.5,0.8c-1.2,0-2.1-0.3-2.7-1s-1-1.6-1-2.8c0-1.1,0.2-2.2,0.7-3.2c0.4-1,1-1.8,1.8-2.3S3415,826.8,3415.9,826.8
			z M3418,830.4c0-0.7-0.2-1.2-0.6-1.7c-0.4-0.4-0.9-0.6-1.5-0.6c-0.7,0-1.2,0.2-1.8,0.7c-0.5,0.4-0.9,1.1-1.2,1.8
			c-0.3,0.8-0.4,1.7-0.4,2.6c0,0.8,0.2,1.4,0.6,1.8s0.9,0.6,1.6,0.6c0.6,0,1.2-0.2,1.7-0.7s0.9-1.1,1.2-1.9
			C3417.9,832.4,3418,831.4,3418,830.4z"/>
		<path fill="#1C5C85" d="M3426.2,826.8c1.2,0,2,0.6,2.5,1.7h0.1c0.1-0.9,0.2-1.8,0.4-2.5l0.7-3.2h1.5l-3,14h-1.2l0.2-1.9h-0.1
			c-0.6,0.8-1.2,1.3-1.7,1.6c-0.5,0.3-1.1,0.5-1.6,0.5c-0.8,0-1.5-0.3-2-0.9c-0.5-0.6-0.7-1.4-0.7-2.4c0-1.3,0.2-2.5,0.6-3.5
			s1-1.9,1.7-2.5C3424.5,827.1,3425.3,826.8,3426.2,826.8z M3424.5,835.7c0.6,0,1.1-0.3,1.7-0.8c0.6-0.6,1.1-1.3,1.4-2.1
			s0.5-1.8,0.5-2.7c0-0.7-0.2-1.2-0.5-1.5c-0.3-0.3-0.8-0.5-1.4-0.5c-0.6,0-1.2,0.2-1.7,0.7c-0.5,0.5-0.9,1.2-1.2,2.1
			c-0.3,0.9-0.5,1.8-0.5,2.8C3422.9,835.1,3423.4,835.7,3424.5,835.7z"/>
		<path fill="#1C5C85" d="M3435.5,837c-1.1,0-2-0.3-2.6-1c-0.6-0.7-0.9-1.6-0.9-2.7c0-1.1,0.2-2.2,0.7-3.2c0.4-1,1-1.8,1.8-2.4
			c0.7-0.6,1.5-0.9,2.4-0.9c0.9,0,1.6,0.2,2.1,0.6s0.7,1,0.7,1.7c0,1.1-0.5,1.9-1.5,2.5c-1,0.6-2.4,0.9-4.3,0.9h-0.3l0,0.7
			c0,0.8,0.2,1.4,0.6,1.8c0.4,0.4,0.9,0.7,1.7,0.7c0.4,0,0.8-0.1,1.2-0.2c0.4-0.1,0.9-0.3,1.5-0.6v1.3c-0.6,0.3-1.1,0.4-1.5,0.6
			S3436,837,3435.5,837z M3436.8,828.1c-0.6,0-1.2,0.3-1.7,0.8s-1,1.3-1.2,2.3h0.1c1.4,0,2.4-0.2,3.1-0.5s1.1-0.9,1.1-1.6
			c0-0.3-0.1-0.6-0.3-0.8C3437.6,828.2,3437.2,828.1,3436.8,828.1z"/>
		<path fill="#1C5C85" d="M3442.2,836.8h-1.5l3-14h1.5L3442.2,836.8z"/>
		<path fill="#1C5C85" d="M3451.7,836.8l4.9-10.8h-6.5v-2.3h9.4v1.7l-5,11.4H3451.7z"/>
		<path fill="#1C5C85" d="M3470.1,836.8h-9.2v-1.9l3.3-3.3c1-1,1.6-1.7,1.9-2.1c0.3-0.4,0.5-0.7,0.6-1.1c0.1-0.3,0.2-0.7,0.2-1
			c0-0.5-0.1-0.9-0.4-1.2c-0.3-0.3-0.7-0.4-1.2-0.4c-0.5,0-1,0.1-1.5,0.4c-0.5,0.2-1,0.6-1.5,1l-1.5-1.8c0.6-0.6,1.2-0.9,1.6-1.2
			c0.4-0.2,0.9-0.4,1.4-0.5c0.5-0.1,1.1-0.2,1.7-0.2c0.8,0,1.5,0.1,2.2,0.4c0.6,0.3,1.1,0.7,1.5,1.3c0.3,0.5,0.5,1.2,0.5,1.9
			c0,0.6-0.1,1.2-0.3,1.7c-0.2,0.5-0.5,1.1-1,1.6c-0.4,0.6-1.2,1.4-2.4,2.4l-1.7,1.6v0.1h5.7V836.8z"/>
		<path fill="#1C5C85" d="M3480.6,836.8h-9.2v-1.9l3.3-3.3c1-1,1.6-1.7,1.9-2.1c0.3-0.4,0.5-0.7,0.6-1.1c0.1-0.3,0.2-0.7,0.2-1
			c0-0.5-0.1-0.9-0.4-1.2c-0.3-0.3-0.7-0.4-1.2-0.4c-0.5,0-1,0.1-1.5,0.4c-0.5,0.2-1,0.6-1.5,1l-1.5-1.8c0.6-0.6,1.2-0.9,1.6-1.2
			c0.4-0.2,0.9-0.4,1.4-0.5c0.5-0.1,1.1-0.2,1.7-0.2c0.8,0,1.5,0.1,2.2,0.4c0.6,0.3,1.1,0.7,1.5,1.3c0.3,0.5,0.5,1.2,0.5,1.9
			c0,0.6-0.1,1.2-0.3,1.7c-0.2,0.5-0.5,1.1-1,1.6c-0.4,0.6-1.2,1.4-2.4,2.4l-1.7,1.6v0.1h5.7V836.8z"/>
	</g>
	<path fill="#EA9E24" d="M3379.3,824.9h13.5l-4.3,12.1H3375L3379.3,824.9z"/>
</g>
<g>
	<g>
		<path fill="#1C5C85" d="M3400.3,866.2l-1.5-11.7h-0.1c0,0.4-0.1,1-0.3,1.8c-0.1,0.8-0.2,1.4-0.3,1.8l-1.7,8.1h-1.5l2.8-13.1h2.2
			l1.3,10.8h0.1l5.9-10.8h2.4l-2.7,13.1h-1.6c0.8-3.5,1.3-6.3,1.7-8.1c0.4-1.9,0.7-3.1,0.8-3.5h-0.1l-6.4,11.7H3400.3z"/>
		<path fill="#1C5C85" d="M3415.4,856.2c1.1,0,2,0.3,2.7,1c0.7,0.7,1,1.6,1,2.8c0,1.1-0.2,2.2-0.6,3.2c-0.4,1-1,1.8-1.8,2.3
			c-0.7,0.5-1.6,0.8-2.5,0.8c-1.2,0-2.1-0.3-2.7-1s-1-1.6-1-2.8c0-1.1,0.2-2.2,0.7-3.2c0.4-1,1-1.8,1.8-2.3
			S3414.5,856.2,3415.4,856.2z M3417.5,859.8c0-0.7-0.2-1.2-0.6-1.7c-0.4-0.4-0.9-0.6-1.5-0.6c-0.7,0-1.2,0.2-1.8,0.7
			c-0.5,0.4-0.9,1.1-1.2,1.8c-0.3,0.8-0.4,1.7-0.4,2.6c0,0.8,0.2,1.4,0.6,1.8s0.9,0.6,1.6,0.6c0.6,0,1.2-0.2,1.7-0.7
			s0.9-1.1,1.2-1.9C3417.4,861.8,3417.5,860.9,3417.5,859.8z"/>
		<path fill="#1C5C85" d="M3425.7,856.2c1.2,0,2,0.6,2.5,1.7h0.1c0.1-0.9,0.2-1.8,0.4-2.5l0.7-3.2h1.5l-3,14h-1.2l0.2-1.9h-0.1
			c-0.6,0.8-1.2,1.3-1.7,1.6c-0.5,0.3-1.1,0.5-1.6,0.5c-0.8,0-1.5-0.3-2-0.9c-0.5-0.6-0.7-1.4-0.7-2.4c0-1.3,0.2-2.5,0.6-3.5
			s1-1.9,1.7-2.5C3423.9,856.5,3424.8,856.2,3425.7,856.2z M3424,865.1c0.6,0,1.1-0.3,1.7-0.8c0.6-0.6,1.1-1.3,1.4-2.1
			s0.5-1.8,0.5-2.7c0-0.7-0.2-1.2-0.5-1.5c-0.3-0.3-0.8-0.5-1.4-0.5c-0.6,0-1.2,0.2-1.7,0.7c-0.5,0.5-0.9,1.2-1.2,2.1
			c-0.3,0.9-0.5,1.8-0.5,2.8C3422.4,864.5,3422.9,865.1,3424,865.1z"/>
		<path fill="#1C5C85" d="M3435,866.4c-1.1,0-2-0.3-2.6-1c-0.6-0.7-0.9-1.6-0.9-2.7c0-1.1,0.2-2.2,0.7-3.2c0.4-1,1-1.8,1.8-2.4
			c0.7-0.6,1.5-0.9,2.4-0.9c0.9,0,1.6,0.2,2.1,0.6s0.7,1,0.7,1.7c0,1.1-0.5,1.9-1.5,2.5c-1,0.6-2.4,0.9-4.3,0.9h-0.3l0,0.7
			c0,0.8,0.2,1.4,0.6,1.8c0.4,0.4,0.9,0.7,1.7,0.7c0.4,0,0.8-0.1,1.2-0.2c0.4-0.1,0.9-0.3,1.5-0.6v1.3c-0.6,0.3-1.1,0.4-1.5,0.6
			S3435.5,866.4,3435,866.4z M3436.2,857.5c-0.6,0-1.2,0.3-1.7,0.8s-1,1.3-1.2,2.3h0.1c1.4,0,2.4-0.2,3.1-0.5s1.1-0.9,1.1-1.6
			c0-0.3-0.1-0.6-0.3-0.8C3437,857.6,3436.7,857.5,3436.2,857.5z"/>
		<path fill="#1C5C85" d="M3441.7,866.2h-1.5l3-14h1.5L3441.7,866.2z"/>
		<path fill="#1C5C85" d="M3451.1,866.2l4.9-10.8h-6.5v-2.3h9.4v1.7l-5,11.4H3451.1z"/>
		<path fill="#1C5C85" d="M3469.5,866.2h-9.2v-1.9l3.3-3.3c1-1,1.6-1.7,1.9-2.1c0.3-0.4,0.5-0.7,0.6-1.1c0.1-0.3,0.2-0.7,0.2-1
			c0-0.5-0.1-0.9-0.4-1.2c-0.3-0.3-0.7-0.4-1.2-0.4c-0.5,0-1,0.1-1.5,0.4c-0.5,0.2-1,0.6-1.5,1l-1.5-1.8c0.6-0.6,1.2-0.9,1.6-1.2
			c0.4-0.2,0.9-0.4,1.4-0.5c0.5-0.1,1.1-0.2,1.7-0.2c0.8,0,1.5,0.1,2.2,0.4c0.6,0.3,1.1,0.7,1.5,1.3c0.3,0.5,0.5,1.2,0.5,1.9
			c0,0.6-0.1,1.2-0.3,1.7c-0.2,0.5-0.5,1.1-1,1.6c-0.4,0.6-1.2,1.4-2.4,2.4l-1.7,1.6v0.1h5.7V866.2z"/>
		<path fill="#1C5C85" d="M3479.5,856c0,0.8-0.2,1.5-0.7,2.1c-0.5,0.6-1.2,1-2.1,1.2v0.1c1.1,0.1,1.9,0.5,2.4,1s0.8,1.2,0.8,2.1
			c0,1.3-0.5,2.2-1.4,3c-0.9,0.7-2.2,1.1-3.9,1.1c-1.4,0-2.7-0.2-3.8-0.7v-2.4c0.5,0.3,1.1,0.5,1.7,0.6c0.6,0.2,1.2,0.2,1.8,0.2
			c0.9,0,1.6-0.2,2-0.5s0.7-0.8,0.7-1.5c0-0.6-0.3-1.1-0.8-1.3c-0.5-0.3-1.3-0.4-2.4-0.4h-1v-2.1h1c1,0,1.8-0.1,2.2-0.4
			c0.5-0.3,0.7-0.7,0.7-1.4c0-1-0.6-1.5-1.9-1.5c-0.4,0-0.9,0.1-1.3,0.2c-0.4,0.1-0.9,0.4-1.5,0.7l-1.3-1.9c1.2-0.9,2.6-1.3,4.3-1.3
			c1.4,0,2.4,0.3,3.2,0.8S3479.5,855,3479.5,856z"/>
	</g>
	<path fill="#1C5C85" d="M3379.5,854.3h13.5l-4.3,12.1h-13.5L3379.5,854.3z"/>
</g>
<g>
	<g>
		<path fill="#1C5C85" d="M3581,836.8l-1.5-11.7h-0.1c0,0.4-0.1,1-0.3,1.8c-0.1,0.8-0.2,1.4-0.3,1.8l-1.7,8.1h-1.5l2.8-13.1h2.2
			l1.3,10.8h0.1l5.9-10.8h2.4l-2.7,13.1h-1.6c0.8-3.5,1.3-6.3,1.7-8.1s0.7-3.1,0.8-3.5h-0.1l-6.4,11.7H3581z"/>
		<path fill="#1C5C85" d="M3596.1,826.8c1.1,0,2,0.3,2.7,1c0.7,0.7,1,1.6,1,2.8c0,1.1-0.2,2.2-0.6,3.2c-0.4,1-1,1.8-1.8,2.3
			c-0.7,0.5-1.6,0.8-2.5,0.8c-1.2,0-2.1-0.3-2.7-1c-0.7-0.7-1-1.6-1-2.8c0-1.1,0.2-2.2,0.7-3.2c0.4-1,1-1.8,1.8-2.3
			C3594.4,827.1,3595.2,826.8,3596.1,826.8z M3598.2,830.4c0-0.7-0.2-1.2-0.6-1.7s-0.9-0.6-1.5-0.6c-0.7,0-1.2,0.2-1.8,0.7
			c-0.5,0.4-0.9,1.1-1.2,1.8c-0.3,0.8-0.4,1.7-0.4,2.6c0,0.8,0.2,1.4,0.6,1.8s0.9,0.6,1.6,0.6c0.6,0,1.2-0.2,1.7-0.7
			s0.9-1.1,1.2-1.9C3598.1,832.4,3598.2,831.4,3598.2,830.4z"/>
		<path fill="#1C5C85" d="M3606.4,826.8c1.2,0,2,0.6,2.5,1.7h0.1c0.1-0.9,0.2-1.8,0.4-2.5l0.7-3.2h1.5l-3,14h-1.2l0.2-1.9h-0.1
			c-0.6,0.8-1.2,1.3-1.7,1.6c-0.5,0.3-1.1,0.5-1.6,0.5c-0.8,0-1.5-0.3-2-0.9c-0.5-0.6-0.7-1.4-0.7-2.4c0-1.3,0.2-2.5,0.6-3.5
			s1-1.9,1.7-2.5C3604.7,827.1,3605.5,826.8,3606.4,826.8z M3604.7,835.7c0.6,0,1.1-0.3,1.7-0.8c0.6-0.6,1.1-1.3,1.4-2.1
			c0.4-0.9,0.5-1.8,0.5-2.7c0-0.7-0.2-1.2-0.5-1.5s-0.8-0.5-1.4-0.5c-0.6,0-1.2,0.2-1.7,0.7c-0.5,0.5-0.9,1.2-1.2,2.1
			c-0.3,0.9-0.5,1.8-0.5,2.8C3603.1,835.1,3603.6,835.7,3604.7,835.7z"/>
		<path fill="#1C5C85" d="M3615.7,837c-1.1,0-2-0.3-2.6-1c-0.6-0.7-0.9-1.6-0.9-2.7c0-1.1,0.2-2.2,0.7-3.2s1-1.8,1.8-2.4
			c0.7-0.6,1.6-0.9,2.4-0.9c0.9,0,1.6,0.2,2.1,0.6c0.5,0.4,0.7,1,0.7,1.7c0,1.1-0.5,1.9-1.5,2.5c-1,0.6-2.4,0.9-4.3,0.9h-0.3l0,0.7
			c0,0.8,0.2,1.4,0.6,1.8s0.9,0.7,1.7,0.7c0.4,0,0.8-0.1,1.2-0.2c0.4-0.1,0.9-0.3,1.5-0.6v1.3c-0.6,0.3-1.1,0.4-1.5,0.6
			S3616.3,837,3615.7,837z M3617,828.1c-0.6,0-1.2,0.3-1.7,0.8s-1,1.3-1.2,2.3h0.1c1.4,0,2.4-0.2,3.1-0.5s1.1-0.9,1.1-1.6
			c0-0.3-0.1-0.6-0.3-0.8C3617.8,828.2,3617.4,828.1,3617,828.1z"/>
		<path fill="#1C5C85" d="M3622.4,836.8h-1.5l3-14h1.5L3622.4,836.8z"/>
		<path fill="#1C5C85" d="M3631.9,836.8l4.9-10.8h-6.5v-2.3h9.4v1.7l-5,11.4H3631.9z"/>
		<path fill="#1C5C85" d="M3650.3,836.8h-9.2v-1.9l3.3-3.3c1-1,1.6-1.7,1.9-2.1c0.3-0.4,0.5-0.7,0.6-1.1s0.2-0.7,0.2-1
			c0-0.5-0.1-0.9-0.4-1.2s-0.7-0.4-1.2-0.4c-0.5,0-1,0.1-1.5,0.4c-0.5,0.2-1,0.6-1.5,1l-1.5-1.8c0.6-0.6,1.2-0.9,1.6-1.2
			c0.4-0.2,0.9-0.4,1.4-0.5c0.5-0.1,1.1-0.2,1.7-0.2c0.8,0,1.5,0.1,2.2,0.4c0.6,0.3,1.1,0.7,1.5,1.3c0.3,0.5,0.5,1.2,0.5,1.9
			c0,0.6-0.1,1.2-0.3,1.7c-0.2,0.5-0.5,1.1-1,1.6s-1.2,1.4-2.4,2.4l-1.7,1.6v0.1h5.7V836.8z"/>
		<path fill="#1C5C85" d="M3661.1,834.1h-1.6v2.7h-2.7v-2.7h-5.6v-1.9l5.8-8.5h2.6v8.3h1.6V834.1z M3656.8,831.9v-2.2
			c0-0.4,0-0.9,0-1.6c0-0.7,0.1-1.1,0.1-1.2h-0.1c-0.2,0.5-0.5,1-0.8,1.4l-2.4,3.6H3656.8z"/>
	</g>
	<path fill="#8DC63F" d="M3559.1,824.9h13.5l-4.3,12.1h-13.5L3559.1,824.9z"/>
</g>
<g>
	<g>
		<path fill="#1C5C85" d="M3580.8,866.2l-1.5-11.7h-0.1c0,0.4-0.1,1-0.3,1.8c-0.1,0.8-0.2,1.4-0.3,1.8l-1.7,8.1h-1.5l2.8-13.1h2.2
			l1.3,10.8h0.1l5.9-10.8h2.4l-2.7,13.1h-1.6c0.8-3.5,1.3-6.3,1.7-8.1c0.4-1.9,0.7-3.1,0.8-3.5h-0.1l-6.4,11.7H3580.8z"/>
		<path fill="#1C5C85" d="M3596,856.2c1.1,0,2,0.3,2.7,1c0.7,0.7,1,1.6,1,2.8c0,1.1-0.2,2.2-0.6,3.2c-0.4,1-1,1.8-1.8,2.3
			c-0.7,0.5-1.6,0.8-2.5,0.8c-1.2,0-2.1-0.3-2.7-1s-1-1.6-1-2.8c0-1.1,0.2-2.2,0.7-3.2c0.4-1,1-1.8,1.8-2.3S3595,856.2,3596,856.2z
			 M3598.1,859.8c0-0.7-0.2-1.2-0.6-1.7c-0.4-0.4-0.9-0.6-1.5-0.6c-0.7,0-1.2,0.2-1.8,0.7c-0.5,0.4-0.9,1.1-1.2,1.8
			c-0.3,0.8-0.4,1.7-0.4,2.6c0,0.8,0.2,1.4,0.6,1.8s0.9,0.6,1.6,0.6c0.6,0,1.2-0.2,1.7-0.7s0.9-1.1,1.2-1.9
			C3597.9,861.8,3598.1,860.9,3598.1,859.8z"/>
		<path fill="#1C5C85" d="M3606.2,856.2c1.2,0,2,0.6,2.5,1.7h0.1c0.1-0.9,0.2-1.8,0.4-2.5l0.7-3.2h1.5l-3,14h-1.2l0.2-1.9h-0.1
			c-0.6,0.8-1.2,1.3-1.7,1.6c-0.5,0.3-1.1,0.5-1.6,0.5c-0.8,0-1.5-0.3-2-0.9c-0.5-0.6-0.7-1.4-0.7-2.4c0-1.3,0.2-2.5,0.6-3.5
			s1-1.9,1.7-2.5C3604.5,856.5,3605.3,856.2,3606.2,856.2z M3604.5,865.1c0.6,0,1.1-0.3,1.7-0.8c0.6-0.6,1.1-1.3,1.4-2.1
			s0.5-1.8,0.5-2.7c0-0.7-0.2-1.2-0.5-1.5c-0.3-0.3-0.8-0.5-1.4-0.5c-0.6,0-1.2,0.2-1.7,0.7c-0.5,0.5-0.9,1.2-1.2,2.1
			c-0.3,0.9-0.5,1.8-0.5,2.8C3602.9,864.5,3603.5,865.1,3604.5,865.1z"/>
		<path fill="#1C5C85" d="M3615.6,866.4c-1.1,0-2-0.3-2.6-1c-0.6-0.7-0.9-1.6-0.9-2.7c0-1.1,0.2-2.2,0.7-3.2c0.4-1,1-1.8,1.8-2.4
			c0.7-0.6,1.5-0.9,2.4-0.9c0.9,0,1.6,0.2,2.1,0.6s0.7,1,0.7,1.7c0,1.1-0.5,1.9-1.5,2.5c-1,0.6-2.4,0.9-4.3,0.9h-0.3l0,0.7
			c0,0.8,0.2,1.4,0.6,1.8c0.4,0.4,0.9,0.7,1.7,0.7c0.4,0,0.8-0.1,1.2-0.2c0.4-0.1,0.9-0.3,1.5-0.6v1.3c-0.6,0.3-1.1,0.4-1.5,0.6
			S3616.1,866.4,3615.6,866.4z M3616.8,857.5c-0.6,0-1.2,0.3-1.7,0.8s-1,1.3-1.2,2.3h0.1c1.4,0,2.4-0.2,3.1-0.5s1.1-0.9,1.1-1.6
			c0-0.3-0.1-0.6-0.3-0.8C3617.6,857.6,3617.3,857.5,3616.8,857.5z"/>
		<path fill="#1C5C85" d="M3622.2,866.2h-1.5l3-14h1.5L3622.2,866.2z"/>
		<path fill="#1C5C85" d="M3631.7,866.2l4.9-10.8h-6.5v-2.3h9.4v1.7l-5,11.4H3631.7z"/>
		<path fill="#1C5C85" d="M3650.1,866.2h-9.2v-1.9l3.3-3.3c1-1,1.6-1.7,1.9-2.1c0.3-0.4,0.5-0.7,0.6-1.1c0.1-0.3,0.2-0.7,0.2-1
			c0-0.5-0.1-0.9-0.4-1.2c-0.3-0.3-0.7-0.4-1.2-0.4c-0.5,0-1,0.1-1.5,0.4c-0.5,0.2-1,0.6-1.5,1l-1.5-1.8c0.6-0.6,1.2-0.9,1.6-1.2
			c0.4-0.2,0.9-0.4,1.4-0.5c0.5-0.1,1.1-0.2,1.7-0.2c0.8,0,1.5,0.1,2.2,0.4c0.6,0.3,1.1,0.7,1.5,1.3c0.3,0.5,0.5,1.2,0.5,1.9
			c0,0.6-0.1,1.2-0.3,1.7c-0.2,0.5-0.5,1.1-1,1.6c-0.4,0.6-1.2,1.4-2.4,2.4l-1.7,1.6v0.1h5.7V866.2z"/>
		<path fill="#1C5C85" d="M3656.2,857.8c1.3,0,2.3,0.4,3,1.1c0.8,0.7,1.1,1.7,1.1,2.9c0,1.5-0.5,2.6-1.4,3.4
			c-0.9,0.8-2.2,1.2-3.9,1.2c-1.5,0-2.6-0.2-3.5-0.7v-2.4c0.5,0.3,1,0.5,1.7,0.6c0.6,0.2,1.2,0.2,1.8,0.2c1.7,0,2.5-0.7,2.5-2.1
			c0-1.3-0.9-2-2.6-2c-0.3,0-0.7,0-1.1,0.1c-0.4,0.1-0.7,0.1-0.9,0.2l-1.1-0.6l0.5-6.7h7.1v2.4h-4.7l-0.2,2.6l0.3-0.1
			C3655.2,857.9,3655.7,857.8,3656.2,857.8z"/>
	</g>
	<path fill="#4F9B1E" d="M3559.6,854.3h13.5l-4.4,12.1h-13.5L3559.6,854.3z"/>
</g>
<g>
	<g>
		<path fill="#1C5C85" d="M3760.5,836.8l-1.5-11.7h-0.1c0,0.4-0.1,1-0.3,1.8c-0.1,0.8-0.2,1.4-0.3,1.8l-1.7,8.1h-1.5l2.8-13.1h2.2
			l1.3,10.8h0.1l5.9-10.8h2.4l-2.7,13.1h-1.6c0.8-3.5,1.3-6.3,1.7-8.1c0.4-1.9,0.7-3.1,0.8-3.5h-0.1l-6.4,11.7H3760.5z"/>
		<path fill="#1C5C85" d="M3775.6,826.8c1.1,0,2,0.3,2.7,1c0.7,0.7,1,1.6,1,2.8c0,1.1-0.2,2.2-0.6,3.2c-0.4,1-1,1.8-1.8,2.3
			c-0.7,0.5-1.6,0.8-2.5,0.8c-1.2,0-2.1-0.3-2.7-1s-1-1.6-1-2.8c0-1.1,0.2-2.2,0.7-3.2c0.4-1,1-1.8,1.8-2.3
			S3774.7,826.8,3775.6,826.8z M3777.7,830.4c0-0.7-0.2-1.2-0.6-1.7c-0.4-0.4-0.9-0.6-1.5-0.6c-0.7,0-1.2,0.2-1.8,0.7
			c-0.5,0.4-0.9,1.1-1.2,1.8c-0.3,0.8-0.4,1.7-0.4,2.6c0,0.8,0.2,1.4,0.6,1.8s0.9,0.6,1.6,0.6c0.6,0,1.2-0.2,1.7-0.7
			s0.9-1.1,1.2-1.9C3777.6,832.4,3777.7,831.4,3777.7,830.4z"/>
		<path fill="#1C5C85" d="M3785.9,826.8c1.2,0,2,0.6,2.5,1.7h0.1c0.1-0.9,0.2-1.8,0.4-2.5l0.7-3.2h1.5l-3,14h-1.2l0.2-1.9h-0.1
			c-0.6,0.8-1.2,1.3-1.7,1.6c-0.5,0.3-1.1,0.5-1.6,0.5c-0.8,0-1.5-0.3-2-0.9c-0.5-0.6-0.7-1.4-0.7-2.4c0-1.3,0.2-2.5,0.6-3.5
			s1-1.9,1.7-2.5C3784.2,827.1,3785,826.8,3785.9,826.8z M3784.2,835.7c0.6,0,1.1-0.3,1.7-0.8c0.6-0.6,1.1-1.3,1.4-2.1
			s0.5-1.8,0.5-2.7c0-0.7-0.2-1.2-0.5-1.5c-0.3-0.3-0.8-0.5-1.4-0.5c-0.6,0-1.2,0.2-1.7,0.7c-0.5,0.5-0.9,1.2-1.2,2.1
			c-0.3,0.9-0.5,1.8-0.5,2.8C3782.6,835.1,3783.1,835.7,3784.2,835.7z"/>
		<path fill="#1C5C85" d="M3795.2,837c-1.1,0-2-0.3-2.6-1c-0.6-0.7-0.9-1.6-0.9-2.7c0-1.1,0.2-2.2,0.7-3.2c0.4-1,1-1.8,1.8-2.4
			c0.7-0.6,1.5-0.9,2.4-0.9c0.9,0,1.6,0.2,2.1,0.6s0.7,1,0.7,1.7c0,1.1-0.5,1.9-1.5,2.5c-1,0.6-2.4,0.9-4.3,0.9h-0.3l0,0.7
			c0,0.8,0.2,1.4,0.6,1.8c0.4,0.4,0.9,0.7,1.7,0.7c0.4,0,0.8-0.1,1.2-0.2c0.4-0.1,0.9-0.3,1.5-0.6v1.3c-0.6,0.3-1.1,0.4-1.5,0.6
			S3795.7,837,3795.2,837z M3796.5,828.1c-0.6,0-1.2,0.3-1.7,0.8s-1,1.3-1.2,2.3h0.1c1.4,0,2.4-0.2,3.1-0.5s1.1-0.9,1.1-1.6
			c0-0.3-0.1-0.6-0.3-0.8C3797.3,828.2,3796.9,828.1,3796.5,828.1z"/>
		<path fill="#1C5C85" d="M3801.9,836.8h-1.5l3-14h1.5L3801.9,836.8z"/>
		<path fill="#1C5C85" d="M3811.4,836.8l4.9-10.8h-6.5v-2.3h9.4v1.7l-5,11.4H3811.4z"/>
		<path fill="#1C5C85" d="M3829.8,836.8h-9.2v-1.9l3.3-3.3c1-1,1.6-1.7,1.9-2.1c0.3-0.4,0.5-0.7,0.6-1.1c0.1-0.3,0.2-0.7,0.2-1
			c0-0.5-0.1-0.9-0.4-1.2c-0.3-0.3-0.7-0.4-1.2-0.4c-0.5,0-1,0.1-1.5,0.4c-0.5,0.2-1,0.6-1.5,1l-1.5-1.8c0.6-0.6,1.2-0.9,1.6-1.2
			c0.4-0.2,0.9-0.4,1.4-0.5c0.5-0.1,1.1-0.2,1.7-0.2c0.8,0,1.5,0.1,2.2,0.4c0.6,0.3,1.1,0.7,1.5,1.3c0.3,0.5,0.5,1.2,0.5,1.9
			c0,0.6-0.1,1.2-0.3,1.7c-0.2,0.5-0.5,1.1-1,1.6c-0.4,0.6-1.2,1.4-2.4,2.4l-1.7,1.6v0.1h5.7V836.8z"/>
		<path fill="#1C5C85" d="M3831,831.2c0-2.6,0.5-4.5,1.7-5.8s2.7-1.9,4.9-1.9c0.8,0,1.3,0,1.8,0.1v2.2c-0.5-0.1-1.1-0.2-1.6-0.2
			c-1,0-1.7,0.1-2.3,0.4s-1.1,0.7-1.4,1.3s-0.5,1.4-0.5,2.4h0.1c0.6-1,1.5-1.5,2.9-1.5c1.2,0,2.1,0.4,2.8,1.1c0.7,0.7,1,1.8,1,3.1
			c0,1.4-0.4,2.5-1.2,3.3c-0.8,0.8-1.9,1.2-3.3,1.2c-1,0-1.8-0.2-2.5-0.7c-0.7-0.4-1.3-1.1-1.7-2S3831,832.4,3831,831.2z
			 M3835.8,834.8c0.6,0,1-0.2,1.4-0.6c0.3-0.4,0.5-1,0.5-1.7c0-0.6-0.1-1.1-0.4-1.5c-0.3-0.4-0.7-0.6-1.3-0.6c-0.6,0-1,0.2-1.4,0.5
			c-0.4,0.4-0.6,0.8-0.6,1.3c0,0.7,0.2,1.3,0.6,1.8C3834.7,834.5,3835.2,834.8,3835.8,834.8z"/>
	</g>
	<path fill="#543D78" d="M3739.5,824.9h13.5l-4.3,12.1h-13.5L3739.5,824.9z"/>
</g>
<g>
	<g>
		<path fill="#1C5C85" d="M3761.6,866.2l-1.5-11.7h-0.1c0,0.4-0.1,1-0.3,1.8c-0.1,0.8-0.2,1.4-0.3,1.8l-1.7,8.1h-1.5l2.8-13.1h2.2
			l1.3,10.8h0.1l5.9-10.8h2.4l-2.7,13.1h-1.6c0.8-3.5,1.3-6.3,1.7-8.1c0.4-1.9,0.7-3.1,0.8-3.5h-0.1l-6.4,11.7H3761.6z"/>
		<path fill="#1C5C85" d="M3776.7,856.2c1.1,0,2,0.3,2.7,1c0.7,0.7,1,1.6,1,2.8c0,1.1-0.2,2.2-0.6,3.2c-0.4,1-1,1.8-1.8,2.3
			c-0.7,0.5-1.6,0.8-2.5,0.8c-1.2,0-2.1-0.3-2.7-1s-1-1.6-1-2.8c0-1.1,0.2-2.2,0.7-3.2c0.4-1,1-1.8,1.8-2.3
			S3775.8,856.2,3776.7,856.2z M3778.8,859.8c0-0.7-0.2-1.2-0.6-1.7c-0.4-0.4-0.9-0.6-1.5-0.6c-0.7,0-1.2,0.2-1.8,0.7
			c-0.5,0.4-0.9,1.1-1.2,1.8c-0.3,0.8-0.4,1.7-0.4,2.6c0,0.8,0.2,1.4,0.6,1.8s0.9,0.6,1.6,0.6c0.6,0,1.2-0.2,1.7-0.7
			s0.9-1.1,1.2-1.9C3778.7,861.8,3778.8,860.9,3778.8,859.8z"/>
		<path fill="#1C5C85" d="M3787,856.2c1.2,0,2,0.6,2.5,1.7h0.1c0.1-0.9,0.2-1.8,0.4-2.5l0.7-3.2h1.5l-3,14h-1.2l0.2-1.9h-0.1
			c-0.6,0.8-1.2,1.3-1.7,1.6c-0.5,0.3-1.1,0.5-1.6,0.5c-0.8,0-1.5-0.3-2-0.9c-0.5-0.6-0.7-1.4-0.7-2.4c0-1.3,0.2-2.5,0.6-3.5
			s1-1.9,1.7-2.5C3785.3,856.5,3786.1,856.2,3787,856.2z M3785.3,865.1c0.6,0,1.1-0.3,1.7-0.8c0.6-0.6,1.1-1.3,1.4-2.1
			s0.5-1.8,0.5-2.7c0-0.7-0.2-1.2-0.5-1.5c-0.3-0.3-0.8-0.5-1.4-0.5c-0.6,0-1.2,0.2-1.7,0.7c-0.5,0.5-0.9,1.2-1.2,2.1
			c-0.3,0.9-0.5,1.8-0.5,2.8C3783.7,864.5,3784.2,865.1,3785.3,865.1z"/>
		<path fill="#1C5C85" d="M3796.3,866.4c-1.1,0-2-0.3-2.6-1c-0.6-0.7-0.9-1.6-0.9-2.7c0-1.1,0.2-2.2,0.7-3.2c0.4-1,1-1.8,1.8-2.4
			c0.7-0.6,1.5-0.9,2.4-0.9c0.9,0,1.6,0.2,2.1,0.6s0.7,1,0.7,1.7c0,1.1-0.5,1.9-1.5,2.5c-1,0.6-2.4,0.9-4.3,0.9h-0.3l0,0.7
			c0,0.8,0.2,1.4,0.6,1.8c0.4,0.4,0.9,0.7,1.7,0.7c0.4,0,0.8-0.1,1.2-0.2c0.4-0.1,0.9-0.3,1.5-0.6v1.3c-0.6,0.3-1.1,0.4-1.5,0.6
			S3796.8,866.4,3796.3,866.4z M3797.6,857.5c-0.6,0-1.2,0.3-1.7,0.8s-1,1.3-1.2,2.3h0.1c1.4,0,2.4-0.2,3.1-0.5s1.1-0.9,1.1-1.6
			c0-0.3-0.1-0.6-0.3-0.8C3798.4,857.6,3798,857.5,3797.6,857.5z"/>
		<path fill="#1C5C85" d="M3803,866.2h-1.5l3-14h1.5L3803,866.2z"/>
		<path fill="#1C5C85" d="M3812.5,866.2l4.9-10.8h-6.5v-2.3h9.4v1.7l-5,11.4H3812.5z"/>
		<path fill="#1C5C85" d="M3830.9,866.2h-9.2v-1.9l3.3-3.3c1-1,1.6-1.7,1.9-2.1c0.3-0.4,0.5-0.7,0.6-1.1c0.1-0.3,0.2-0.7,0.2-1
			c0-0.5-0.1-0.9-0.4-1.2c-0.3-0.3-0.7-0.4-1.2-0.4c-0.5,0-1,0.1-1.5,0.4c-0.5,0.2-1,0.6-1.5,1l-1.5-1.8c0.6-0.6,1.2-0.9,1.6-1.2
			c0.4-0.2,0.9-0.4,1.4-0.5c0.5-0.1,1.1-0.2,1.7-0.2c0.8,0,1.5,0.1,2.2,0.4c0.6,0.3,1.1,0.7,1.5,1.3c0.3,0.5,0.5,1.2,0.5,1.9
			c0,0.6-0.1,1.2-0.3,1.7c-0.2,0.5-0.5,1.1-1,1.6c-0.4,0.6-1.2,1.4-2.4,2.4l-1.7,1.6v0.1h5.7V866.2z"/>
		<path fill="#1C5C85" d="M3833.5,866.2l4.9-10.8h-6.5v-2.3h9.4v1.7l-5,11.4H3833.5z"/>
	</g>
	<path fill="#86B8E0" d="M3739.5,854.3h13.5l-4.3,12.1h-13.5L3739.5,854.3z"/>
</g>
<rect x="3194" y="270.7" fill="#F2F2F2" width="119.5" height="38.2"/>
<g>
	<path fill="#194880" d="M3220,302.7h-4.5l-0.7-14.8l-0.1-3.3l0.1-1.9h-0.1c-0.6,1.7-1.2,3.4-2.1,5.1l-6.8,14.8h-4.5l-0.9-25.7h4
		l0.3,14.9c0,1.6-0.1,3.6-0.2,6.1h0.1c1-2.6,1.8-4.7,2.5-6.2l6.8-14.8h4l0.5,14.7l0.1,3l-0.1,3.3h0.1c0.3-1,0.7-2.2,1.2-3.5
		s0.8-2.2,1.1-2.7l6.3-14.9h4.3L3220,302.7z"/>
	<path fill="#194880" d="M3242.8,295.6h-8.5l-3.7,7.1h-4.5l13.8-25.7h4.8l2.9,25.7h-4.1L3242.8,295.6z M3242.5,291.9
		c-0.5-4.9-0.7-7.8-0.8-8.9s-0.1-1.8-0.1-2.5c-0.6,1.6-1.5,3.4-2.5,5.4l-3,5.9H3242.5z"/>
	<path fill="#194880" d="M3258.8,302.7h-4.2l4.6-22.1h-6.7l0.8-3.6h17.5l-0.8,3.6h-6.7L3258.8,302.7z"/>
	<path fill="#194880" d="M3282.9,302.7h-13.6l5.4-25.7h13.6l-0.8,3.6h-9.5l-1.5,6.9h8.8l-0.7,3.6h-8.9l-1.7,8h9.5L3282.9,302.7z"/>
	<path fill="#194880" d="M3294.5,292.5l-2.2,10.3h-4.2l5.4-25.7h5.9c2.6,0,4.6,0.6,6,1.7s2.1,2.8,2.1,5.1c0,1.9-0.5,3.6-1.5,4.9
		s-2.5,2.3-4.5,2.9l4.4,11.1h-4.6l-3.6-10.3H3294.5z M3295.3,289h2.2c2,0,3.5-0.4,4.5-1.3s1.5-2.1,1.5-3.6c0-1.2-0.3-2.1-1-2.7
		s-1.8-0.8-3.2-0.8h-2.1L3295.3,289z"/>
</g>
<g>
	<path fill="#595959" d="M3175,727.5c0,2.2-0.4,3.9-1.1,5s-1.8,1.6-3.2,1.6c-1.4,0-2.4-0.6-3.2-1.7c-0.7-1.1-1.1-2.8-1.1-4.9
		c0-2.2,0.3-3.9,1-5s1.8-1.6,3.2-1.6c1.4,0,2.5,0.6,3.2,1.7S3175,725.4,3175,727.5z M3168,727.5c0,1.9,0.2,3.2,0.7,4.1
		c0.4,0.9,1.1,1.3,2.1,1.3c1,0,1.7-0.4,2.1-1.3c0.4-0.9,0.7-2.2,0.7-4.1s-0.2-3.2-0.7-4.1c-0.4-0.9-1.1-1.3-2.1-1.3
		c-1,0-1.7,0.4-2.1,1.3C3168.2,724.3,3168,725.6,3168,727.5z"/>
</g>
<g>
	<path fill="#595959" d="M3175,682.5h-8.4v-1.3l3.4-3.4c1-1,1.7-1.8,2-2.2s0.6-0.9,0.7-1.3s0.2-0.9,0.2-1.4c0-0.7-0.2-1.2-0.6-1.6
		c-0.4-0.4-1-0.6-1.7-0.6c-0.5,0-1,0.1-1.5,0.3s-1,0.5-1.6,1l-0.8-1c1.2-1,2.5-1.5,3.9-1.5c1.2,0,2.2,0.3,2.8,0.9
		c0.7,0.6,1,1.4,1,2.5c0,0.8-0.2,1.6-0.7,2.4s-1.3,1.8-2.6,3l-2.8,2.8v0.1h6.6V682.5z"/>
</g>
<g>
	<path fill="#595959" d="M3175.6,628h-1.9v3h-1.4v-3h-6.2v-1.3l6.1-8.7h1.5v8.6h1.9V628z M3172.3,626.7v-4.3c0-0.8,0-1.8,0.1-2.8
		h-0.1c-0.3,0.6-0.5,1-0.8,1.4l-4,5.7H3172.3z"/>
</g>
<g>
	<path fill="#595959" d="M3166.7,574c0-2.5,0.5-4.4,1.5-5.7c1-1.2,2.4-1.9,4.4-1.9c0.7,0,1.2,0.1,1.6,0.2v1.3
		c-0.5-0.1-1-0.2-1.5-0.2c-1.4,0-2.4,0.4-3.2,1.3c-0.7,0.9-1.1,2.2-1.2,4h0.1c0.6-1,1.7-1.5,3.1-1.5c1.2,0,2.1,0.3,2.7,1
		s1,1.6,1,2.8c0,1.3-0.4,2.4-1.1,3.2c-0.7,0.8-1.7,1.1-3,1.1c-1.3,0-2.4-0.5-3.2-1.5C3167.1,577.2,3166.7,575.8,3166.7,574z
		 M3171,578.4c0.8,0,1.5-0.3,1.9-0.8c0.5-0.5,0.7-1.3,0.7-2.3c0-0.8-0.2-1.5-0.6-2s-1.1-0.7-1.9-0.7c-0.5,0-1,0.1-1.4,0.3
		s-0.8,0.5-1.1,0.9s-0.4,0.8-0.4,1.2c0,0.6,0.1,1.2,0.4,1.7s0.6,0.9,1,1.2S3170.4,578.4,3171,578.4z"/>
</g>
<g>
	<path fill="#595959" d="M3170.8,515c1.2,0,2.1,0.3,2.8,0.8s1,1.3,1,2.3c0,0.6-0.2,1.2-0.6,1.7s-1,1-1.9,1.4c1,0.5,1.8,1,2.2,1.6
		c0.4,0.5,0.7,1.2,0.7,1.9c0,1.1-0.4,1.9-1.1,2.6s-1.8,1-3.1,1c-1.4,0-2.4-0.3-3.2-0.9s-1.1-1.5-1.1-2.6c0-1.5,0.9-2.6,2.7-3.4
		c-0.8-0.5-1.4-1-1.7-1.5s-0.5-1.1-0.5-1.8c0-0.9,0.3-1.7,1-2.2C3168.7,515.3,3169.6,515,3170.8,515z M3168,524.8
		c0,0.7,0.2,1.3,0.7,1.6s1.2,0.6,2.1,0.6c0.9,0,1.6-0.2,2-0.6s0.7-1,0.7-1.7c0-0.6-0.2-1.1-0.7-1.5c-0.5-0.4-1.3-0.9-2.4-1.3
		c-0.9,0.4-1.5,0.8-1.9,1.2S3168,524.1,3168,524.8z M3170.8,516.2c-0.7,0-1.3,0.2-1.7,0.5s-0.6,0.8-0.6,1.4c0,0.5,0.2,1,0.5,1.4
		s1,0.8,1.9,1.2c0.8-0.4,1.4-0.7,1.8-1.1s0.5-0.9,0.5-1.4c0-0.6-0.2-1.1-0.6-1.4S3171.5,516.2,3170.8,516.2z"/>
</g>
<g>
	<path fill="#595959" d="M3161.6,476.5h-1.4v-9.2c0-0.8,0-1.5,0.1-2.2c-0.1,0.1-0.3,0.3-0.4,0.4s-0.8,0.7-2.1,1.7l-0.8-1l3.4-2.6
		h1.2V476.5z"/>
	<path fill="#595959" d="M3175,470.1c0,2.2-0.4,3.9-1.1,5s-1.8,1.6-3.2,1.6c-1.4,0-2.4-0.6-3.2-1.7c-0.7-1.1-1.1-2.8-1.1-4.9
		c0-2.2,0.3-3.9,1-5s1.8-1.6,3.2-1.6c1.4,0,2.5,0.6,3.2,1.7S3175,467.9,3175,470.1z M3168,470.1c0,1.9,0.2,3.2,0.7,4.1
		c0.4,0.9,1.1,1.3,2.1,1.3c1,0,1.7-0.4,2.1-1.3s0.7-2.2,0.7-4.1s-0.2-3.2-0.7-4.1s-1.1-1.3-2.1-1.3c-1,0-1.7,0.4-2.1,1.3
		S3168,468.2,3168,470.1z"/>
</g>
<g>
	<path fill="#595959" d="M3161.6,425h-1.4v-9.2c0-0.8,0-1.5,0.1-2.2c-0.1,0.1-0.3,0.3-0.4,0.4s-0.8,0.7-2.1,1.7l-0.8-1l3.4-2.6h1.2
		V425z"/>
	<path fill="#595959" d="M3175,425h-8.4v-1.3l3.4-3.4c1-1,1.7-1.8,2-2.2s0.6-0.9,0.7-1.3s0.2-0.9,0.2-1.4c0-0.7-0.2-1.2-0.6-1.6
		s-1-0.6-1.7-0.6c-0.5,0-1,0.1-1.5,0.3s-1,0.5-1.6,1l-0.8-1c1.2-1,2.5-1.5,3.9-1.5c1.2,0,2.2,0.3,2.8,0.9c0.7,0.6,1,1.4,1,2.5
		c0,0.8-0.2,1.6-0.7,2.4s-1.3,1.8-2.6,3l-2.8,2.8v0.1h6.6V425z"/>
</g>
<g>
	<path fill="#595959" d="M3161.6,373.6h-1.4v-9.2c0-0.8,0-1.5,0.1-2.2c-0.1,0.1-0.3,0.3-0.4,0.4s-0.8,0.7-2.1,1.7l-0.8-1l3.4-2.6
		h1.2V373.6z"/>
	<path fill="#595959" d="M3175.6,370.6h-1.9v3h-1.4v-3h-6.2v-1.3l6.1-8.7h1.5v8.6h1.9V370.6z M3172.3,369.3V365c0-0.8,0-1.8,0.1-2.8
		h-0.1c-0.3,0.6-0.5,1-0.8,1.4l-4,5.7H3172.3z"/>
</g>
<g>
	<path fill="#595959" d="M3161.6,322.1h-1.4v-9.2c0-0.8,0-1.5,0.1-2.2c-0.1,0.1-0.3,0.3-0.4,0.4s-0.8,0.7-2.1,1.7l-0.8-1l3.4-2.6
		h1.2V322.1z"/>
	<path fill="#595959" d="M3166.7,316.6c0-2.5,0.5-4.4,1.5-5.7c1-1.2,2.4-1.9,4.4-1.9c0.7,0,1.2,0.1,1.6,0.2v1.3
		c-0.5-0.1-1-0.2-1.5-0.2c-1.4,0-2.4,0.4-3.2,1.3c-0.7,0.9-1.1,2.2-1.2,4h0.1c0.6-1,1.7-1.5,3.1-1.5c1.2,0,2.1,0.3,2.7,1
		s1,1.6,1,2.8c0,1.3-0.4,2.4-1.1,3.2c-0.7,0.8-1.7,1.1-3,1.1c-1.3,0-2.4-0.5-3.2-1.5S3166.7,318.4,3166.7,316.6z M3171,321
		c0.8,0,1.5-0.3,1.9-0.8s0.7-1.3,0.7-2.3c0-0.8-0.2-1.5-0.6-2s-1.1-0.7-1.9-0.7c-0.5,0-1,0.1-1.4,0.3s-0.8,0.5-1.1,0.9
		s-0.4,0.8-0.4,1.2c0,0.6,0.1,1.2,0.4,1.7s0.6,0.9,1,1.2S3170.4,321,3171,321z"/>
</g>
<g>
	<path fill="#595959" d="M3161.6,270.6h-1.4v-9.2c0-0.8,0-1.5,0.1-2.2c-0.1,0.1-0.3,0.3-0.4,0.4s-0.8,0.7-2.1,1.7l-0.8-1l3.4-2.6
		h1.2V270.6z"/>
	<path fill="#595959" d="M3170.8,257.5c1.2,0,2.1,0.3,2.8,0.8s1,1.3,1,2.3c0,0.6-0.2,1.2-0.6,1.7s-1,1-1.9,1.4c1,0.5,1.8,1,2.2,1.6
		s0.7,1.2,0.7,1.9c0,1.1-0.4,1.9-1.1,2.6s-1.8,1-3.1,1c-1.4,0-2.4-0.3-3.2-0.9s-1.1-1.5-1.1-2.6c0-1.5,0.9-2.6,2.7-3.4
		c-0.8-0.5-1.4-1-1.7-1.5s-0.5-1.1-0.5-1.8c0-0.9,0.3-1.7,1-2.2S3169.6,257.5,3170.8,257.5z M3168,267.3c0,0.7,0.2,1.3,0.7,1.6
		s1.2,0.6,2.1,0.6c0.9,0,1.6-0.2,2-0.6s0.7-1,0.7-1.7c0-0.6-0.2-1.1-0.7-1.5s-1.3-0.9-2.4-1.3c-0.9,0.4-1.5,0.8-1.9,1.2
		S3168,266.7,3168,267.3z M3170.8,258.7c-0.7,0-1.3,0.2-1.7,0.5s-0.6,0.8-0.6,1.4c0,0.5,0.2,1,0.5,1.4s1,0.8,1.9,1.2
		c0.8-0.4,1.4-0.7,1.8-1.1s0.5-0.9,0.5-1.4c0-0.6-0.2-1.1-0.6-1.4S3171.5,258.7,3170.8,258.7z"/>
</g>
<g>
	<path fill="#595959" d="M3873.8,648.9c0,2.2-0.4,3.9-1.1,5s-1.8,1.6-3.2,1.6c-1.4,0-2.4-0.6-3.2-1.7c-0.7-1.1-1.1-2.8-1.1-4.9
		c0-2.2,0.3-3.9,1-5s1.8-1.6,3.2-1.6c1.4,0,2.5,0.6,3.2,1.7S3873.8,646.7,3873.8,648.9z M3866.7,648.9c0,1.9,0.2,3.2,0.7,4.1
		c0.4,0.9,1.1,1.3,2.1,1.3c1,0,1.7-0.4,2.1-1.3c0.4-0.9,0.7-2.2,0.7-4.1s-0.2-3.2-0.7-4.1c-0.4-0.9-1.1-1.3-2.1-1.3
		c-1,0-1.7,0.4-2.1,1.3C3867,645.6,3866.7,647,3866.7,648.9z"/>
	<path fill="#595959" d="M3876,654.4c0-0.4,0.1-0.7,0.3-0.9c0.2-0.2,0.4-0.3,0.8-0.3c0.3,0,0.6,0.1,0.8,0.3c0.2,0.2,0.3,0.5,0.3,0.9
		c0,0.4-0.1,0.7-0.3,0.9s-0.5,0.3-0.8,0.3c-0.3,0-0.5-0.1-0.7-0.3C3876.1,655.1,3876,654.8,3876,654.4z"/>
	<path fill="#595959" d="M3888.8,655.3h-8.4V654l3.4-3.4c1-1,1.7-1.8,2-2.2s0.6-0.9,0.7-1.3s0.2-0.9,0.2-1.4c0-0.7-0.2-1.2-0.6-1.6
		c-0.4-0.4-1-0.6-1.7-0.6c-0.5,0-1,0.1-1.5,0.3s-1,0.5-1.6,1l-0.8-1c1.2-1,2.5-1.5,3.9-1.5c1.2,0,2.2,0.3,2.8,0.9
		c0.7,0.6,1,1.4,1,2.5c0,0.8-0.2,1.6-0.7,2.4s-1.3,1.8-2.6,3l-2.8,2.8v0.1h6.6V655.3z"/>
</g>
<g>
	<path fill="#595959" d="M3873.8,724.6c0,2.2-0.4,3.9-1.1,5s-1.8,1.6-3.2,1.6c-1.4,0-2.4-0.6-3.2-1.7c-0.7-1.1-1.1-2.8-1.1-4.9
		c0-2.2,0.3-3.9,1-5s1.8-1.6,3.2-1.6c1.4,0,2.5,0.6,3.2,1.7S3873.8,722.4,3873.8,724.6z M3866.7,724.6c0,1.9,0.2,3.2,0.7,4.1
		c0.4,0.9,1.1,1.3,2.1,1.3c1,0,1.7-0.4,2.1-1.3c0.4-0.9,0.7-2.2,0.7-4.1s-0.2-3.2-0.7-4.1c-0.4-0.9-1.1-1.3-2.1-1.3
		c-1,0-1.7,0.4-2.1,1.3C3867,721.4,3866.7,722.7,3866.7,724.6z"/>
	<path fill="#595959" d="M3876,730.1c0-0.4,0.1-0.7,0.3-0.9c0.2-0.2,0.4-0.3,0.8-0.3c0.3,0,0.6,0.1,0.8,0.3c0.2,0.2,0.3,0.5,0.3,0.9
		c0,0.4-0.1,0.7-0.3,0.9s-0.5,0.3-0.8,0.3c-0.3,0-0.5-0.1-0.7-0.3C3876.1,730.8,3876,730.5,3876,730.1z"/>
	<path fill="#595959" d="M3888.8,724.6c0,2.2-0.4,3.9-1.1,5s-1.8,1.6-3.2,1.6c-1.4,0-2.4-0.6-3.2-1.7c-0.7-1.1-1.1-2.8-1.1-4.9
		c0-2.2,0.3-3.9,1-5s1.8-1.6,3.2-1.6c1.4,0,2.5,0.6,3.2,1.7S3888.8,722.4,3888.8,724.6z M3881.8,724.6c0,1.9,0.2,3.2,0.7,4.1
		c0.4,0.9,1.1,1.3,2.1,1.3c1,0,1.7-0.4,2.1-1.3c0.4-0.9,0.7-2.2,0.7-4.1s-0.2-3.2-0.7-4.1c-0.4-0.9-1.1-1.3-2.1-1.3
		c-1,0-1.7,0.4-2.1,1.3C3882,721.4,3881.8,722.7,3881.8,724.6z"/>
</g>
<g>
	<path fill="#595959" d="M3873.8,499.6c0,2.2-0.4,3.9-1.1,5s-1.8,1.6-3.2,1.6c-1.4,0-2.4-0.6-3.2-1.7c-0.7-1.1-1.1-2.8-1.1-4.9
		c0-2.2,0.3-3.9,1-5s1.8-1.6,3.2-1.6c1.4,0,2.5,0.6,3.2,1.7S3873.8,497.5,3873.8,499.6z M3866.7,499.6c0,1.9,0.2,3.2,0.7,4.1
		c0.4,0.9,1.1,1.3,2.1,1.3c1,0,1.7-0.4,2.1-1.3s0.7-2.2,0.7-4.1s-0.2-3.2-0.7-4.1s-1.1-1.3-2.1-1.3c-1,0-1.7,0.4-2.1,1.3
		S3866.7,497.8,3866.7,499.6z"/>
	<path fill="#595959" d="M3876,505.2c0-0.4,0.1-0.7,0.3-0.9c0.2-0.2,0.4-0.3,0.8-0.3c0.3,0,0.6,0.1,0.8,0.3c0.2,0.2,0.3,0.5,0.3,0.9
		c0,0.4-0.1,0.7-0.3,0.9s-0.5,0.3-0.8,0.3c-0.3,0-0.5-0.1-0.7-0.3C3876.1,505.9,3876,505.6,3876,505.2z"/>
	<path fill="#595959" d="M3880.5,500.6c0-2.5,0.5-4.4,1.5-5.7c1-1.2,2.4-1.9,4.4-1.9c0.7,0,1.2,0.1,1.6,0.2v1.3
		c-0.5-0.1-1-0.2-1.5-0.2c-1.4,0-2.4,0.4-3.2,1.3c-0.7,0.9-1.1,2.2-1.2,4h0.1c0.6-1,1.7-1.5,3.1-1.5c1.2,0,2.1,0.3,2.7,1
		s1,1.6,1,2.8c0,1.3-0.4,2.4-1.1,3.2c-0.7,0.8-1.7,1.1-3,1.1c-1.3,0-2.4-0.5-3.2-1.5S3880.5,502.4,3880.5,500.6z M3884.8,505
		c0.8,0,1.5-0.3,1.9-0.8s0.7-1.3,0.7-2.3c0-0.8-0.2-1.5-0.6-2s-1.1-0.7-1.9-0.7c-0.5,0-1,0.1-1.4,0.3s-0.8,0.5-1.1,0.9
		s-0.4,0.8-0.4,1.2c0,0.6,0.1,1.2,0.4,1.7s0.6,0.9,1,1.2S3884.2,505,3884.8,505z"/>
</g>
<g>
	<path fill="#595959" d="M3873.8,573.6c0,2.2-0.4,3.9-1.1,5s-1.8,1.6-3.2,1.6c-1.4,0-2.4-0.6-3.2-1.7c-0.7-1.1-1.1-2.8-1.1-4.9
		c0-2.2,0.3-3.9,1-5s1.8-1.6,3.2-1.6c1.4,0,2.5,0.6,3.2,1.7S3873.8,571.5,3873.8,573.6z M3866.7,573.6c0,1.9,0.2,3.2,0.7,4.1
		c0.4,0.9,1.1,1.3,2.1,1.3c1,0,1.7-0.4,2.1-1.3c0.4-0.9,0.7-2.2,0.7-4.1s-0.2-3.2-0.7-4.1c-0.4-0.9-1.1-1.3-2.1-1.3
		c-1,0-1.7,0.4-2.1,1.3C3867,570.4,3866.7,571.8,3866.7,573.6z"/>
	<path fill="#595959" d="M3876,579.1c0-0.4,0.1-0.7,0.3-0.9c0.2-0.2,0.4-0.3,0.8-0.3c0.3,0,0.6,0.1,0.8,0.3c0.2,0.2,0.3,0.5,0.3,0.9
		c0,0.4-0.1,0.7-0.3,0.9s-0.5,0.3-0.8,0.3c-0.3,0-0.5-0.1-0.7-0.3C3876.1,579.9,3876,579.6,3876,579.1z"/>
	<path fill="#595959" d="M3889.4,577.1h-1.9v3h-1.4v-3h-6.2v-1.3l6.1-8.7h1.5v8.6h1.9V577.1z M3886.1,575.8v-4.3
		c0-0.8,0-1.8,0.1-2.8h-0.1c-0.3,0.6-0.5,1-0.8,1.4l-4,5.7H3886.1z"/>
</g>
<g>
	<path fill="#595959" d="M3873.8,424.4c0,2.2-0.4,3.9-1.1,5s-1.8,1.6-3.2,1.6c-1.4,0-2.4-0.6-3.2-1.7c-0.7-1.1-1.1-2.8-1.1-4.9
		c0-2.2,0.3-3.9,1-5s1.8-1.6,3.2-1.6c1.4,0,2.5,0.6,3.2,1.7S3873.8,422.3,3873.8,424.4z M3866.7,424.4c0,1.9,0.2,3.2,0.7,4.1
		c0.4,0.9,1.1,1.3,2.1,1.3c1,0,1.7-0.4,2.1-1.3s0.7-2.2,0.7-4.1s-0.2-3.2-0.7-4.1s-1.1-1.3-2.1-1.3c-1,0-1.7,0.4-2.1,1.3
		S3866.7,422.5,3866.7,424.4z"/>
	<path fill="#595959" d="M3876,429.9c0-0.4,0.1-0.7,0.3-0.9c0.2-0.2,0.4-0.3,0.8-0.3c0.3,0,0.6,0.1,0.8,0.3c0.2,0.2,0.3,0.5,0.3,0.9
		c0,0.4-0.1,0.7-0.3,0.9s-0.5,0.3-0.8,0.3c-0.3,0-0.5-0.1-0.7-0.3C3876.1,430.7,3876,430.4,3876,429.9z"/>
	<path fill="#595959" d="M3884.6,417.8c1.2,0,2.1,0.3,2.8,0.8s1,1.3,1,2.3c0,0.6-0.2,1.2-0.6,1.7s-1,1-1.9,1.4c1,0.5,1.8,1,2.2,1.6
		c0.4,0.5,0.7,1.2,0.7,1.9c0,1.1-0.4,1.9-1.1,2.6s-1.8,1-3.1,1c-1.4,0-2.4-0.3-3.2-0.9s-1.1-1.5-1.1-2.6c0-1.5,0.9-2.6,2.7-3.4
		c-0.8-0.5-1.4-1-1.7-1.5s-0.5-1.1-0.5-1.8c0-0.9,0.3-1.7,1-2.2C3882.5,418.1,3883.4,417.8,3884.6,417.8z M3881.8,427.6
		c0,0.7,0.2,1.3,0.7,1.6s1.2,0.6,2.1,0.6c0.9,0,1.6-0.2,2-0.6s0.7-1,0.7-1.7c0-0.6-0.2-1.1-0.7-1.5c-0.5-0.4-1.3-0.9-2.4-1.3
		c-0.9,0.4-1.5,0.8-1.9,1.2S3881.8,427,3881.8,427.6z M3884.6,419c-0.7,0-1.3,0.2-1.7,0.5s-0.6,0.8-0.6,1.4c0,0.5,0.2,1,0.5,1.4
		s1,0.8,1.9,1.2c0.8-0.4,1.4-0.7,1.8-1.1s0.5-0.9,0.5-1.4c0-0.6-0.2-1.1-0.6-1.4S3885.3,419,3884.6,419z"/>
</g>
<g>
	<path fill="#595959" d="M3870.6,355.1h-1.4v-9.2c0-0.8,0-1.5,0.1-2.2c-0.1,0.1-0.3,0.3-0.4,0.4s-0.8,0.7-2.1,1.7l-0.8-1l3.4-2.6
		h1.2V355.1z"/>
	<path fill="#595959" d="M3876,354.1c0-0.4,0.1-0.7,0.3-0.9c0.2-0.2,0.4-0.3,0.8-0.3c0.3,0,0.6,0.1,0.8,0.3c0.2,0.2,0.3,0.5,0.3,0.9
		c0,0.4-0.1,0.7-0.3,0.9s-0.5,0.3-0.8,0.3c-0.3,0-0.5-0.1-0.7-0.3C3876.1,354.9,3876,354.5,3876,354.1z"/>
	<path fill="#595959" d="M3888.8,348.6c0,2.2-0.4,3.9-1.1,5s-1.8,1.6-3.2,1.6c-1.4,0-2.4-0.6-3.2-1.7c-0.7-1.1-1.1-2.8-1.1-4.9
		c0-2.2,0.3-3.9,1-5s1.8-1.6,3.2-1.6c1.4,0,2.5,0.6,3.2,1.7S3888.8,346.5,3888.8,348.6z M3881.8,348.6c0,1.9,0.2,3.2,0.7,4.1
		c0.4,0.9,1.1,1.3,2.1,1.3c1,0,1.7-0.4,2.1-1.3s0.7-2.2,0.7-4.1s-0.2-3.2-0.7-4.1s-1.1-1.3-2.1-1.3c-1,0-1.7,0.4-2.1,1.3
		S3881.8,346.7,3881.8,348.6z"/>
</g>
<g>
	<path fill="#595959" d="M3870.6,278.7h-1.4v-9.2c0-0.8,0-1.5,0.1-2.2c-0.1,0.1-0.3,0.3-0.4,0.4s-0.8,0.7-2.1,1.7l-0.8-1l3.4-2.6
		h1.2V278.7z"/>
	<path fill="#595959" d="M3876,277.7c0-0.4,0.1-0.7,0.3-0.9s0.4-0.3,0.8-0.3c0.3,0,0.6,0.1,0.8,0.3s0.3,0.5,0.3,0.9
		c0,0.4-0.1,0.7-0.3,0.9s-0.5,0.3-0.8,0.3c-0.3,0-0.5-0.1-0.7-0.3S3876,278.2,3876,277.7z"/>
	<path fill="#595959" d="M3888.8,278.7h-8.4v-1.3l3.4-3.4c1-1,1.7-1.8,2-2.2s0.6-0.9,0.7-1.3s0.2-0.9,0.2-1.4c0-0.7-0.2-1.2-0.6-1.6
		s-1-0.6-1.7-0.6c-0.5,0-1,0.1-1.5,0.3s-1,0.5-1.6,1l-0.8-1c1.2-1,2.5-1.5,3.9-1.5c1.2,0,2.2,0.3,2.8,0.9s1,1.4,1,2.5
		c0,0.8-0.2,1.6-0.7,2.4s-1.3,1.8-2.6,3l-2.8,2.8v0.1h6.6V278.7z"/>
</g>
<line fill="none" stroke="#8C9293" stroke-miterlimit="10" x1="3185.3" y1="525.9" x2="3850.1" y2="525.9"/>
<line fill="none" stroke="#8C9293" stroke-miterlimit="10" x1="3185.3" y1="474.1" x2="3850.1" y2="474.1"/>
<line fill="none" stroke="#8C9293" stroke-miterlimit="10" x1="3185.3" y1="318.7" x2="3850.1" y2="318.7"/>
<line fill="none" stroke="#8C9293" stroke-miterlimit="10" x1="3185.3" y1="577.6" x2="3850.1" y2="577.6"/>
<line fill="none" stroke="#8C9293" stroke-miterlimit="10" x1="3185.3" y1="681.2" x2="3850.1" y2="681.2"/>
<line fill="none" stroke="#8C9293" stroke-miterlimit="10" x1="3186.5" y1="629.4" x2="3851.2" y2="629.4"/>
<line fill="none" stroke="#8C9293" stroke-miterlimit="10" x1="3185.3" y1="370.5" x2="3850.1" y2="370.5"/>
<line fill="none" stroke="#8C9293" stroke-miterlimit="10" x1="3185.3" y1="422.3" x2="3850.1" y2="422.3"/>
<line fill="none" stroke="#8C9293" stroke-miterlimit="10" x1="3851.3" y1="579.8" x2="3862.5" y2="579.8"/>
<line fill="none" stroke="#8C9293" stroke-miterlimit="10" x1="3851.3" y1="504.4" x2="3862.5" y2="504.4"/>
<line fill="none" stroke="#8C9293" stroke-miterlimit="10" x1="3851.3" y1="278.3" x2="3862.5" y2="278.3"/>
<line fill="none" stroke="#8C9293" stroke-miterlimit="10" x1="3851.3" y1="730.5" x2="3862.5" y2="730.5"/>
<line fill="none" stroke="#8C9293" stroke-miterlimit="10" x1="3851.4" y1="655.1" x2="3862.5" y2="655.1"/>
<line fill="none" stroke="#8C9293" stroke-miterlimit="10" x1="3851.3" y1="353.7" x2="3862.5" y2="353.7"/>
<line fill="none" stroke="#8C9293" stroke-miterlimit="10" x1="3851.3" y1="429" x2="3862.5" y2="429"/>
<g>
	<path fill="#595959" d="M3189.8,243c0,2.2-0.4,3.9-1.1,5s-1.8,1.6-3.2,1.6c-1.4,0-2.4-0.6-3.2-1.7c-0.7-1.1-1.1-2.8-1.1-4.9
		c0-2.2,0.3-3.9,1-5s1.8-1.6,3.2-1.6c1.4,0,2.5,0.6,3.2,1.7S3189.8,240.9,3189.8,243z M3182.7,243c0,1.9,0.2,3.2,0.7,4.1
		c0.4,0.9,1.1,1.3,2.1,1.3c1,0,1.7-0.4,2.1-1.3s0.7-2.2,0.7-4.1s-0.2-3.2-0.7-4.1s-1.1-1.3-2.1-1.3c-1,0-1.7,0.4-2.1,1.3
		S3182.7,241.1,3182.7,243z"/>
</g>
<g>
	<path fill="#595959" d="M3360.6,241.6c1.4,0,2.4,0.3,3.2,1c0.8,0.7,1.2,1.6,1.2,2.8c0,1.3-0.4,2.4-1.3,3.1c-0.8,0.8-2,1.1-3.5,1.1
		c-1.4,0-2.6-0.2-3.3-0.7v-1.4c0.4,0.3,0.9,0.5,1.5,0.6c0.6,0.1,1.2,0.2,1.8,0.2c1,0,1.8-0.2,2.4-0.7c0.6-0.5,0.9-1.2,0.9-2.1
		c0-1.8-1.1-2.7-3.3-2.7c-0.6,0-1.3,0.1-2.2,0.3l-0.8-0.5l0.5-6h6.4v1.3h-5.1l-0.3,3.9C3359.2,241.7,3359.9,241.6,3360.6,241.6z"/>
</g>
<g>
	<path fill="#595959" d="M3532.1,249.4h-1.4v-9.2c0-0.8,0-1.5,0.1-2.2c-0.1,0.1-0.3,0.3-0.4,0.4s-0.8,0.7-2.1,1.7l-0.8-1l3.4-2.6
		h1.2V249.4z"/>
	<path fill="#595959" d="M3545.5,243c0,2.2-0.4,3.9-1.1,5s-1.8,1.6-3.2,1.6c-1.4,0-2.4-0.6-3.2-1.7c-0.7-1.1-1.1-2.8-1.1-4.9
		c0-2.2,0.3-3.9,1-5s1.8-1.6,3.2-1.6c1.4,0,2.5,0.6,3.2,1.7S3545.5,240.9,3545.5,243z M3538.5,243c0,1.9,0.2,3.2,0.7,4.1
		c0.4,0.9,1.1,1.3,2.1,1.3c1,0,1.7-0.4,2.1-1.3s0.7-2.2,0.7-4.1s-0.2-3.2-0.7-4.1s-1.1-1.3-2.1-1.3c-1,0-1.7,0.4-2.1,1.3
		S3538.5,241.1,3538.5,243z"/>
</g>
<g>
	<path fill="#595959" d="M3707.4,249.4h-1.4v-9.2c0-0.8,0-1.5,0.1-2.2c-0.1,0.1-0.3,0.3-0.4,0.4s-0.8,0.7-2.1,1.7l-0.8-1l3.4-2.6
		h1.2V249.4z"/>
	<path fill="#595959" d="M3716.3,241.6c1.4,0,2.4,0.3,3.2,1c0.8,0.7,1.2,1.6,1.2,2.8c0,1.3-0.4,2.4-1.3,3.1c-0.8,0.8-2,1.1-3.5,1.1
		c-1.4,0-2.6-0.2-3.3-0.7v-1.4c0.4,0.3,0.9,0.5,1.5,0.6c0.6,0.1,1.2,0.2,1.8,0.2c1,0,1.8-0.2,2.4-0.7c0.6-0.5,0.9-1.2,0.9-2.1
		c0-1.8-1.1-2.7-3.3-2.7c-0.6,0-1.3,0.1-2.2,0.3l-0.8-0.5l0.5-6h6.4v1.3h-5.1l-0.3,3.9C3715,241.7,3715.6,241.6,3716.3,241.6z"/>
</g>
<g>
	<path fill="#1C5C85" d="M3440.8,212.6c-1.2,0-2.2,0.4-2.8,1.3s-1,2-1,3.5c0,1.6,0.3,2.8,1,3.6s1.6,1.2,2.9,1.2
		c0.5,0,1.1-0.1,1.6-0.2s1-0.2,1.6-0.4v1.8c-1,0.4-2.2,0.6-3.4,0.6c-1.9,0-3.3-0.6-4.3-1.7s-1.5-2.8-1.5-4.9c0-1.3,0.2-2.5,0.7-3.5
		s1.2-1.8,2.1-2.3s2-0.8,3.3-0.8c1.3,0,2.5,0.3,3.6,0.8l-0.8,1.7c-0.4-0.2-0.9-0.4-1.4-0.5C3441.8,212.7,3441.3,212.6,3440.8,212.6z
		"/>
	<path fill="#1C5C85" d="M3455.1,219c0,1.6-0.4,2.8-1.2,3.7s-1.9,1.3-3.4,1.3c-0.9,0-1.7-0.2-2.4-0.6s-1.2-1-1.6-1.8
		s-0.6-1.7-0.6-2.7c0-1.6,0.4-2.8,1.2-3.7s1.9-1.3,3.4-1.3c1.4,0,2.5,0.5,3.3,1.4C3454.7,216.2,3455.1,217.4,3455.1,219z
		 M3448.1,219c0,2.2,0.8,3.4,2.5,3.4c1.6,0,2.5-1.1,2.5-3.4c0-2.2-0.8-3.3-2.5-3.3c-0.9,0-1.5,0.3-1.9,0.9S3448.1,217.9,3448.1,219z
		"/>
	<path fill="#1C5C85" d="M3466.1,219c0,1.6-0.4,2.8-1.2,3.7s-1.9,1.3-3.4,1.3c-0.9,0-1.7-0.2-2.4-0.6s-1.2-1-1.6-1.8
		s-0.6-1.7-0.6-2.7c0-1.6,0.4-2.8,1.2-3.7s1.9-1.3,3.4-1.3c1.4,0,2.5,0.5,3.3,1.4C3465.7,216.2,3466.1,217.4,3466.1,219z M3459,219
		c0,2.2,0.8,3.4,2.5,3.4c1.6,0,2.5-1.1,2.5-3.4c0-2.2-0.8-3.3-2.5-3.3c-0.9,0-1.5,0.3-1.9,0.9S3459,217.9,3459,219z"/>
	<path fill="#1C5C85" d="M3470.6,223.8h-2.1v-13.7h2.1V223.8z"/>
	<path fill="#1C5C85" d="M3479.6,223.8l-0.4-1.4h-0.1c-0.5,0.6-0.9,1-1.4,1.2c-0.5,0.2-1.1,0.3-1.8,0.3c-1,0-1.7-0.3-2.2-0.8
		s-0.8-1.2-0.8-2.2c0-1,0.4-1.8,1.1-2.3s1.9-0.8,3.4-0.8l1.7-0.1v-0.5c0-0.6-0.1-1.1-0.4-1.4c-0.3-0.3-0.7-0.5-1.3-0.5
		c-0.5,0-1,0.1-1.4,0.2s-0.9,0.3-1.3,0.5l-0.7-1.5c0.5-0.3,1.1-0.5,1.7-0.6c0.6-0.1,1.2-0.2,1.8-0.2c1.2,0,2.2,0.3,2.8,0.8
		s0.9,1.4,0.9,2.5v6.5H3479.6z M3476.5,222.4c0.8,0,1.4-0.2,1.8-0.6c0.5-0.4,0.7-1,0.7-1.8v-0.8l-1.2,0.1c-1,0-1.7,0.2-2.1,0.5
		c-0.4,0.3-0.7,0.7-0.7,1.3c0,0.4,0.1,0.8,0.4,1C3475.6,222.3,3476,222.4,3476.5,222.4z"/>
	<path fill="#1C5C85" d="M3492.5,223.8h-2.1v-6c0-0.8-0.2-1.3-0.5-1.7s-0.8-0.6-1.4-0.6c-0.9,0-1.5,0.3-1.9,0.8s-0.6,1.4-0.6,2.6
		v4.8h-2.1v-9.7h1.6l0.3,1.3h0.1c0.3-0.5,0.7-0.8,1.2-1.1s1.1-0.4,1.8-0.4c2.3,0,3.5,1.2,3.5,3.6V223.8z"/>
	<path fill="#1C5C85" d="M3499,222.3c0.5,0,1-0.1,1.5-0.2v1.6c-0.2,0.1-0.5,0.2-0.9,0.2s-0.7,0.1-1.1,0.1c-2,0-2.9-1-2.9-3.1v-5.2
		h-1.3v-0.9l1.4-0.8l0.7-2.1h1.3v2.2h2.8v1.6h-2.8v5.2c0,0.5,0.1,0.9,0.4,1.1C3498.3,222.2,3498.6,222.3,3499,222.3z"/>
	<path fill="#1C5C85" d="M3509.4,223.8h-2.1V211h7.2v1.8h-5.2v4h4.8v1.8h-4.8V223.8z"/>
	<path fill="#1C5C85" d="M3518.8,223.8h-2.1v-13.7h2.1V223.8z"/>
	<path fill="#1C5C85" d="M3530.4,219c0,1.6-0.4,2.8-1.2,3.7s-1.9,1.3-3.4,1.3c-0.9,0-1.7-0.2-2.4-0.6s-1.2-1-1.6-1.8
		s-0.6-1.7-0.6-2.7c0-1.6,0.4-2.8,1.2-3.7s1.9-1.3,3.4-1.3c1.4,0,2.5,0.5,3.3,1.4C3529.9,216.2,3530.4,217.4,3530.4,219z
		 M3523.3,219c0,2.2,0.8,3.4,2.5,3.4c1.6,0,2.5-1.1,2.5-3.4c0-2.2-0.8-3.3-2.5-3.3c-0.9,0-1.5,0.3-1.9,0.9
		C3523.5,217.1,3523.3,217.9,3523.3,219z"/>
	<path fill="#1C5C85" d="M3540.7,223.8l-1.3-4.5c-0.2-0.5-0.4-1.6-0.8-3.3h-0.1c-0.3,1.6-0.6,2.7-0.8,3.4l-1.3,4.5h-2.3l-2.7-9.7
		h2.1l1.2,4.8c0.3,1.2,0.5,2.2,0.6,3h0.1c0.1-0.4,0.1-0.9,0.3-1.5c0.1-0.6,0.2-1,0.3-1.2l1.5-5.1h2.3l1.4,5.1
		c0.1,0.3,0.2,0.7,0.3,1.3c0.1,0.6,0.2,1.1,0.2,1.4h0.1c0.1-0.7,0.3-1.7,0.6-3l1.3-4.8h2.1l-2.7,9.7H3540.7z"/>
	<path fill="#1C5C85" d="M3551.4,218.9c0-1.6,0.2-3,0.7-4.4c0.5-1.4,1.1-2.5,2-3.6h1.8c-0.8,1.1-1.4,2.3-1.9,3.7s-0.7,2.8-0.7,4.2
		s0.2,2.8,0.7,4.2s1.1,2.6,1.9,3.6h-1.8c-0.9-1-1.5-2.2-2-3.5S3551.4,220.4,3551.4,218.9z"/>
	<path fill="#1C5C85" d="M3558,223.8V211h2.1v11h5.4v1.8H3558z"/>
	<path fill="#1C5C85" d="M3576.3,214.9c0,1.3-0.4,2.4-1.3,3.1s-2.1,1.1-3.8,1.1h-1.3v4.8h-2.1V211h3.7c1.6,0,2.8,0.3,3.6,1
		C3575.9,212.6,3576.3,213.6,3576.3,214.9z M3569.9,217.3h1.1c1.1,0,1.9-0.2,2.4-0.6s0.8-1,0.8-1.8c0-0.7-0.2-1.3-0.7-1.7
		s-1.2-0.5-2.1-0.5h-1.5V217.3z"/>
	<path fill="#1C5C85" d="M3584.4,223.8l-3.7-10.7h-0.1c0.1,1.6,0.1,3.1,0.1,4.5v6.2h-1.9V211h3l3.6,10.2h0.1l3.7-10.2h3v12.8h-2
		v-6.4c0-0.6,0-1.5,0-2.5c0-1,0.1-1.6,0.1-1.9h-0.1l-3.9,10.7H3584.4z"/>
	<path fill="#1C5C85" d="M3598.8,218.9c0,1.5-0.2,3-0.7,4.3c-0.5,1.3-1.1,2.5-2,3.5h-1.8c0.8-1.1,1.4-2.3,1.9-3.6
		c0.4-1.3,0.6-2.7,0.6-4.1c0-1.4-0.2-2.8-0.7-4.2c-0.4-1.4-1.1-2.6-1.9-3.7h1.8c0.9,1,1.5,2.2,2,3.6
		C3598.5,215.9,3598.8,217.4,3598.8,218.9z"/>
</g>
</svg>
