<?xml version="1.0" encoding="utf-8"?>
<!-- Generator: Adobe Illustrator 18.1.1, SVG Export Plug-In . SVG Version: 6.00 Build 0)  -->
<svg version="1.1" id="Layer_1" xmlns="http://www.w3.org/2000/svg" xmlns:xlink="http://www.w3.org/1999/xlink" x="0px" y="0px"
	 viewBox="-630.4 212 791.8 659.9" enable-background="new -630.4 212 791.8 659.9" xml:space="preserve">
<g id="Layer_1_1_">
</g>
<rect x="-574.7" y="268" fill="#F2F2F2" width="665.2" height="466.2"/>
<path fill="#1C5C85" d="M-574.8,733.4c4.4-1.4,8.9-2.8,13.3-4.2c4.4-1.4,8.9-2.8,13.3-4.2c4.4-1.4,8.9-2.8,13.3-4.2
	c4.3-1.4,9-0.4,13.3-4.2c4.4-4,8.9-14.2,13.3-19.7c4.4-5.4,8.9-8.4,13.3-13c4.4-4.6,8.9-9.5,13.3-14.6c4.4-5.1,8.9-10.5,13.3-16.1
	c4.4-5.6,8.9-11.5,13.3-17.7c4.4-6.1,8.9-12.5,13.3-19.1c4.4-6.6,8.9-13.5,13.3-20.6c4.4-7.1,8.9-14.4,13.3-22
	c4.4-7.6,8.9-15.4,13.3-23.4c4.4-8,8.9-16.3,13.3-24.7c4.4-8.5,8.9-17.2,13.3-26.1c4.4-8.9,8.9-18,13.3-27.4
	c4.4-9.3,8.9-18.9,13.3-28.7c4.4-9.8,8.9-19.8,13.3-30c4.4-10.2,8.9-20.6,13.3-31.3c4.4-10.6,8.9-21.7,13.3-32.5v384.5h-265.9"/>
<path fill="#EA9E24" d="M-574.8,733.4c4.4-0.9,8.9-1.8,13.3-2.7c4.4-0.9,8.9-1.8,13.3-2.7c4.4-0.9,8.9-1.8,13.3-2.7
	c4.4-0.9,8.9-0.2,13.3-2.7c4.4-2.5,8.9-9,13.3-12.5c4.4-3.4,8.9-5.3,13.3-8.2c4.4-2.9,8.9-6,13.3-9.2c4.4-3.2,8.9-6.7,13.3-10.2
	c4.4-3.6,8.9-7.3,13.3-11.2c4.4-3.9,8.9-7.9,13.3-12.1c4.4-4.2,8.9-8.5,13.3-13c4.4-4.5,8.9-9.1,13.3-13.9
	c4.4-4.8,8.9-9.7,13.3-14.8c4.4-5.1,8.9-10.3,13.3-15.7c4.4-5.4,8.9-10.9,13.3-16.5c4.4-5.6,8.9-11.4,13.3-17.4
	c4.4-5.9,8.9-12,13.3-18.2c4.4-6.2,8.9-12.5,13.3-19c4.4-6.5,8.9-13.1,13.3-19.8c4.4-6.7,8.9-13.7,13.3-20.6v243.8h-265.9"/>
<path fill="#CD1D23" d="M-574.8,733.4c4.4-0.6,8.9-1.2,13.3-1.8c4.4-0.6,8.9-1.2,13.3-1.8c4.4-0.6,8.9-1.2,13.3-1.8
	c4.4-0.6,8.9-0.1,13.3-1.8c4.4-1.7,8.9-6,13.3-8.2c4.4-2.3,8.9-3.5,13.3-5.4c4.4-1.9,8.9-4,13.3-6.1c4.4-2.1,8.9-4.4,13.3-6.8
	c4.4-2.4,8.9-4.8,13.3-7.4c4.4-2.6,8.9-5.2,13.3-8c4.4-2.8,8.9-5.6,13.3-8.6c4.4-3,8.9-6.1,13.3-9.2c4.4-3.2,8.9-6.4,13.3-9.8
	c4.4-3.4,8.9-6.8,13.3-10.4c4.4-3.5,8.9-7.2,13.3-10.9c4.4-3.7,8.9-7.6,13.3-11.5c4.4-3.9,8.9-7.9,13.3-12
	c4.4-4.1,8.9-8.3,13.3-12.6c4.4-4.3,8.9-8.7,13.3-13.1c4.4-4.5,8.9-9.1,13.3-13.6v161.6h-265.9"/>
<path fill="#543D78" d="M-574.8,733.4c4.4-0.7,8.9-1.4,13.3-2.1c4.4-0.7,8.9-1.4,13.3-2.1c4.4-0.7,8.9-1.4,13.3-2.1
	c4.4-0.7,8.9-1.4,13.3-2.1c4.4-0.7,8.9-1.4,13.3-2.1c4.4-0.7,8.9-1.4,13.3-2.1c4.4-0.7,8.9-1.4,13.3-2.1c4.4-0.7,8.9,0.5,13.3-2.2
	c4.4-2.7,8.9-10.6,13.3-14c4.4-3.3,8.9-3.9,13.3-5.9c4.4-2,8.9-4.2,13.3-6.3c4.4-2.2,8.9-4.4,13.3-6.8c4.4-2.3,8.9-4.7,13.3-7.2
	c4.4-2.5,8.9-5,13.3-7.6c4.4-2.6,8.9-5.2,13.3-8c4.4-2.7,8.9-5.5,13.3-8.4c4.4-2.8,8.9-5.8,13.3-8.7c4.4-3,8.9-6,13.3-9.1
	c4.4-3.1,8.9-6.3,13.3-9.5c4.3-3.2,6.8-4.9,13.3-9.8c6.6-5.1,17.7-13.6,26.6-20.8c8.9-7.2,17.7-14.6,26.6-22.2
	c8.9-7.6,17.7-15.5,26.6-23.6c8.9-8.1,17.7-16.4,26.6-25c8.9-8.6,17.7-17.3,26.6-26.3c8.9-9,17.7-18.2,26.6-27.7
	c8.9-9.4,17.7-19.1,26.6-29c8.9-9.9,17.7-20,26.6-30.3c8.9-10.3,17.7-20.9,26.6-31.6c8.9-10.7,17.7-21.9,26.6-32.9v388.5h-531.7"/>
<g>
	<path fill="#1C5C85" d="M147.3,576.1c1.3,0,2.4,0.4,3.1,1.3s1.1,2.1,1.1,3.8v1.3h4.8v2.1h-12.8v-3.7c0-1.6,0.3-2.8,1-3.6
		C145.1,576.5,146,576.1,147.3,576.1z M149.7,582.5v-1.1c0-1.1-0.2-1.9-0.6-2.4s-1-0.8-1.8-0.8c-0.7,0-1.3,0.2-1.7,0.7
		s-0.5,1.2-0.5,2.1v1.5H149.7z"/>
	<path fill="#1C5C85" d="M146.4,568.8c0-0.4,0-0.8,0.1-1l1.9,0.2c-0.1,0.3-0.1,0.6-0.1,0.9c0,0.8,0.3,1.5,0.8,2
		c0.5,0.5,1.2,0.8,2.1,0.8h5.1v2.1h-9.7v-1.6l1.7-0.3v-0.1c-0.6-0.3-1-0.7-1.4-1.3C146.5,569.9,146.4,569.4,146.4,568.8z"/>
	<path fill="#1C5C85" d="M156.4,561.7c0,1.5-0.4,2.7-1.3,3.5c-0.9,0.9-2.1,1.3-3.6,1.3c-1.6,0-2.8-0.4-3.7-1.2s-1.4-1.9-1.4-3.3
		c0-1.3,0.4-2.3,1.2-3s1.9-1.1,3.2-1.1h1.1v6.5c0.9,0,1.7-0.3,2.2-0.8s0.8-1.2,0.8-2c0-0.6-0.1-1.1-0.2-1.6c-0.1-0.5-0.3-1-0.5-1.6
		h1.7c0.2,0.5,0.4,1,0.5,1.5S156.4,561,156.4,561.7z M147.9,562.1c0,0.7,0.2,1.2,0.6,1.6c0.4,0.4,1,0.6,1.8,0.7V560
		c-0.8,0-1.4,0.2-1.8,0.6S147.9,561.4,147.9,562.1z"/>
	<path fill="#1C5C85" d="M153.5,549c0.9,0,1.7,0.3,2.2,1s0.8,1.7,0.8,3c0,1.3-0.2,2.3-0.6,3.1h-1.8c0.5-1.1,0.8-2.2,0.8-3.2
		c0-1.3-0.4-1.9-1.2-1.9c-0.2,0-0.5,0.1-0.6,0.2s-0.3,0.4-0.5,0.7s-0.4,0.8-0.6,1.3c-0.4,1.1-0.9,1.9-1.3,2.3
		c-0.4,0.4-1,0.6-1.7,0.6c-0.8,0-1.5-0.3-1.9-1c-0.5-0.7-0.7-1.6-0.7-2.7c0-1.1,0.2-2.2,0.7-3.2l1.6,0.7c-0.4,1-0.7,1.9-0.7,2.6
		c0,1.1,0.3,1.6,0.9,1.6c0.3,0,0.6-0.1,0.8-0.4c0.2-0.3,0.5-0.9,0.9-1.9c0.3-0.8,0.6-1.4,0.9-1.7s0.6-0.6,0.9-0.8S153,549,153.5,549
		z"/>
	<path fill="#1C5C85" d="M153.5,540.3c0.9,0,1.7,0.3,2.2,1s0.8,1.7,0.8,3c0,1.3-0.2,2.3-0.6,3.1h-1.8c0.5-1.1,0.8-2.2,0.8-3.2
		c0-1.3-0.4-1.9-1.2-1.9c-0.2,0-0.5,0.1-0.6,0.2s-0.3,0.4-0.5,0.7c-0.2,0.3-0.4,0.8-0.6,1.3c-0.4,1.1-0.9,1.9-1.3,2.3
		c-0.4,0.4-1,0.6-1.7,0.6c-0.8,0-1.5-0.3-1.9-1c-0.5-0.7-0.7-1.6-0.7-2.7c0-1.1,0.2-2.2,0.7-3.2l1.6,0.7c-0.4,1-0.7,1.9-0.7,2.6
		c0,1.1,0.3,1.6,0.9,1.6c0.3,0,0.6-0.1,0.8-0.4c0.2-0.3,0.5-0.9,0.9-1.9c0.3-0.8,0.6-1.4,0.9-1.7s0.6-0.6,0.9-0.8
		S153,540.3,153.5,540.3z"/>
	<path fill="#1C5C85" d="M156.3,531.2l-1.3,0.3v0.1c0.5,0.3,0.8,0.7,1.1,1.2c0.3,0.5,0.4,1.1,0.4,1.8c0,1.2-0.3,2.1-0.9,2.6
		s-1.5,0.9-2.7,0.9h-6.4v-2.1h6c0.7,0,1.3-0.2,1.7-0.5s0.6-0.8,0.6-1.4c0-0.9-0.3-1.5-0.8-1.9c-0.5-0.4-1.4-0.6-2.6-0.6h-4.8v-2.1
		h9.7V531.2z"/>
	<path fill="#1C5C85" d="M146.4,521.7c0-0.4,0-0.8,0.1-1l1.9,0.2c-0.1,0.3-0.1,0.6-0.1,0.9c0,0.8,0.3,1.5,0.8,2s1.2,0.8,2.1,0.8h5.1
		v2.1h-9.7V525l1.7-0.3v-0.1c-0.6-0.3-1-0.7-1.4-1.3C146.5,522.9,146.4,522.3,146.4,521.7z"/>
	<path fill="#1C5C85" d="M156.4,514.6c0,1.5-0.4,2.7-1.3,3.5c-0.9,0.9-2.1,1.3-3.6,1.3c-1.6,0-2.8-0.4-3.7-1.2s-1.4-1.9-1.4-3.3
		c0-1.3,0.4-2.3,1.2-3s1.9-1.1,3.2-1.1h1.1v6.5c0.9,0,1.7-0.3,2.2-0.8s0.8-1.2,0.8-2c0-0.6-0.1-1.1-0.2-1.6s-0.3-1-0.5-1.6h1.7
		c0.2,0.5,0.4,1,0.5,1.5S156.4,514,156.4,514.6z M147.9,515c0,0.7,0.2,1.2,0.6,1.6c0.4,0.4,1,0.6,1.8,0.7v-4.4
		c-0.8,0-1.4,0.2-1.8,0.6S147.9,514.3,147.9,515z"/>
	<path fill="#1C5C85" d="M149.7,493.1c2.1,0,3.7,0.6,4.9,1.8s1.7,2.9,1.7,5.1v3.6h-12.8v-4c0-2,0.6-3.6,1.7-4.8
		S147.7,493.1,149.7,493.1z M149.8,495.4c-3.1,0-4.6,1.4-4.6,4.3v1.8h9.3V500C154.5,496.9,152.9,495.4,149.8,495.4z"/>
	<path fill="#1C5C85" d="M146.4,485.7c0-0.4,0-0.8,0.1-1l1.9,0.2c-0.1,0.3-0.1,0.6-0.1,0.9c0,0.8,0.3,1.5,0.8,2s1.2,0.8,2.1,0.8h5.1
		v2.1h-9.7V489l1.7-0.3v-0.1c-0.6-0.3-1-0.7-1.4-1.3C146.5,486.8,146.4,486.3,146.4,485.7z"/>
	<path fill="#1C5C85" d="M151.4,474.2c1.6,0,2.8,0.4,3.7,1.2s1.3,1.9,1.3,3.4c0,0.9-0.2,1.7-0.6,2.4s-1,1.2-1.8,1.6
		s-1.7,0.6-2.7,0.6c-1.6,0-2.8-0.4-3.7-1.2s-1.3-1.9-1.3-3.4c0-1.4,0.5-2.5,1.4-3.3S149.9,474.2,151.4,474.2z M151.4,481.3
		c2.2,0,3.4-0.8,3.4-2.5c0-1.6-1.1-2.5-3.4-2.5c-2.2,0-3.3,0.8-3.3,2.5c0,0.9,0.3,1.5,0.9,1.9S150.3,481.3,151.4,481.3z"/>
	<path fill="#1C5C85" d="M156.4,466.9c0,1.2-0.4,2.2-1.3,2.9v0.1c0.8-0.1,1.3-0.1,1.5-0.1h4v2.1h-14v-1.7c0.2,0,0.6-0.1,1.3-0.3
		v-0.1c-1-0.6-1.5-1.6-1.5-2.9c0-1.2,0.4-2.2,1.3-2.8c0.9-0.7,2.1-1,3.7-1s2.8,0.3,3.7,1C156,464.8,156.4,465.7,156.4,466.9z
		 M148.1,467.4c0,0.8,0.2,1.4,0.7,1.8c0.5,0.4,1.2,0.6,2.3,0.6h0.3c1.2,0,2-0.2,2.6-0.6s0.8-1,0.8-1.8c0-0.7-0.3-1.3-0.9-1.7
		s-1.4-0.6-2.5-0.6c-1.1,0-1.9,0.2-2.5,0.6S148.1,466.7,148.1,467.4z"/>
	<path fill="#1C5C85" d="M151.3,456.7c-1.6,0-3-0.2-4.4-0.7c-1.4-0.5-2.5-1.1-3.6-2v-1.8c1.1,0.8,2.3,1.4,3.7,1.9s2.8,0.7,4.2,0.7
		s2.8-0.2,4.2-0.7s2.6-1.1,3.6-1.9v1.8c-1,0.9-2.2,1.5-3.5,2S152.9,456.7,151.3,456.7z"/>
	<path fill="#1C5C85" d="M146.4,445.3c0-1.2,0.4-2.2,1.3-2.8c0.9-0.7,2.1-1,3.7-1c1.6,0,2.8,0.3,3.7,1s1.3,1.6,1.3,2.9
		c0,1.2-0.4,2.2-1.3,2.9v0.1l1.2,0.4v1.5h-13.7v-2.1h3.3c0.2,0,0.6,0,1.1,0s0.8,0,0.9,0.1v-0.1C146.9,447.5,146.4,446.6,146.4,445.3
		z M148.1,445.8c0,0.8,0.2,1.4,0.7,1.8c0.5,0.4,1.3,0.6,2.5,0.6h0.1c1.2,0,2-0.2,2.6-0.6s0.8-1,0.8-1.8c0-0.7-0.3-1.3-0.9-1.7
		c-0.6-0.4-1.4-0.6-2.5-0.6C149.2,443.6,148.1,444.3,148.1,445.8z"/>
	<path fill="#1C5C85" d="M156.3,433l-1.4,0.4v0.1c0.6,0.5,1,0.9,1.2,1.4s0.3,1.1,0.3,1.8c0,1-0.3,1.7-0.8,2.2
		c-0.5,0.5-1.2,0.8-2.2,0.8c-1,0-1.8-0.4-2.3-1.1s-0.8-1.9-0.8-3.4l-0.1-1.7h-0.5c-0.6,0-1.1,0.1-1.4,0.4c-0.3,0.3-0.5,0.7-0.5,1.3
		c0,0.5,0.1,1,0.2,1.4s0.3,0.9,0.5,1.3l-1.5,0.7c-0.3-0.5-0.5-1.1-0.6-1.7s-0.2-1.2-0.2-1.8c0-1.2,0.3-2.2,0.8-2.8s1.4-0.9,2.5-0.9
		h6.5V433z M154.9,436c0-0.8-0.2-1.4-0.6-1.8c-0.4-0.5-1-0.7-1.8-0.7h-0.8l0.1,1.2c0,1,0.2,1.7,0.5,2.1c0.3,0.4,0.7,0.7,1.3,0.7
		c0.4,0,0.8-0.1,1-0.4S154.9,436.6,154.9,436z"/>
	<path fill="#1C5C85" d="M146.4,423.7c0-0.4,0-0.8,0.1-1l1.9,0.2c-0.1,0.3-0.1,0.6-0.1,0.9c0,0.8,0.3,1.5,0.8,2s1.2,0.8,2.1,0.8h5.1
		v2.1h-9.7V427l1.7-0.3v-0.1c-0.6-0.3-1-0.7-1.4-1.3C146.5,424.8,146.4,424.3,146.4,423.7z"/>
	<path fill="#1C5C85" d="M151.3,417.3c1.5,0,3,0.2,4.3,0.7c1.3,0.5,2.5,1.1,3.5,2v1.8c-1.1-0.8-2.3-1.4-3.6-1.9
		c-1.3-0.4-2.7-0.6-4.1-0.6c-1.4,0-2.8,0.2-4.2,0.7s-2.6,1.1-3.7,1.9V420c1-0.9,2.2-1.5,3.6-2S149.8,417.3,151.3,417.3z"/>
</g>
<g>
	<path fill="#595959" d="M113.2,652.5c0,2.2-0.4,3.9-1.1,5s-1.8,1.6-3.2,1.6c-1.4,0-2.4-0.6-3.2-1.7c-0.7-1.1-1.1-2.8-1.1-4.9
		c0-2.2,0.3-3.9,1-5s1.8-1.6,3.2-1.6c1.4,0,2.5,0.6,3.2,1.7S113.2,650.4,113.2,652.5z M106.2,652.5c0,1.9,0.2,3.2,0.7,4.1
		c0.4,0.9,1.1,1.3,2.1,1.3c1,0,1.7-0.4,2.1-1.3c0.4-0.9,0.7-2.2,0.7-4.1s-0.2-3.2-0.7-4.1c-0.4-0.9-1.1-1.3-2.1-1.3
		c-1,0-1.7,0.4-2.1,1.3C106.4,649.3,106.2,650.6,106.2,652.5z"/>
	<path fill="#595959" d="M115.4,658c0-0.4,0.1-0.7,0.3-0.9c0.2-0.2,0.4-0.3,0.8-0.3c0.3,0,0.6,0.1,0.8,0.3c0.2,0.2,0.3,0.5,0.3,0.9
		c0,0.4-0.1,0.7-0.3,0.9s-0.5,0.3-0.8,0.3c-0.3,0-0.5-0.1-0.7-0.3C115.5,658.7,115.4,658.4,115.4,658z"/>
	<path fill="#595959" d="M128.2,658.9h-8.4v-1.3l3.4-3.4c1-1,1.7-1.8,2-2.2s0.6-0.9,0.7-1.3s0.2-0.9,0.2-1.4c0-0.7-0.2-1.2-0.6-1.6
		c-0.4-0.4-1-0.6-1.7-0.6c-0.5,0-1,0.1-1.5,0.3s-1,0.5-1.6,1l-0.8-1c1.2-1,2.5-1.5,3.9-1.5c1.2,0,2.2,0.3,2.8,0.9
		c0.7,0.6,1,1.4,1,2.5c0,0.8-0.2,1.6-0.7,2.4s-1.3,1.8-2.6,3l-2.8,2.8v0.1h6.6V658.9z"/>
</g>
<g>
	<path fill="#595959" d="M113.2,728.2c0,2.2-0.4,3.9-1.1,5s-1.8,1.6-3.2,1.6c-1.4,0-2.4-0.6-3.2-1.7c-0.7-1.1-1.1-2.8-1.1-4.9
		c0-2.2,0.3-3.9,1-5s1.8-1.6,3.2-1.6c1.4,0,2.5,0.6,3.2,1.7S113.2,726.1,113.2,728.2z M106.2,728.2c0,1.9,0.2,3.2,0.7,4.1
		c0.4,0.9,1.1,1.3,2.1,1.3c1,0,1.7-0.4,2.1-1.3s0.7-2.2,0.7-4.1s-0.2-3.2-0.7-4.1s-1.1-1.3-2.1-1.3c-1,0-1.7,0.4-2.1,1.3
		S106.2,726.4,106.2,728.2z"/>
	<path fill="#595959" d="M115.4,733.7c0-0.4,0.1-0.7,0.3-0.9c0.2-0.2,0.4-0.3,0.8-0.3c0.3,0,0.6,0.1,0.8,0.3
		c0.2,0.2,0.3,0.5,0.3,0.9c0,0.4-0.1,0.7-0.3,0.9s-0.5,0.3-0.8,0.3c-0.3,0-0.5-0.1-0.7-0.3C115.5,734.5,115.4,734.2,115.4,733.7z"/>
	<path fill="#595959" d="M128.3,728.2c0,2.2-0.4,3.9-1.1,5s-1.8,1.6-3.2,1.6c-1.4,0-2.4-0.6-3.2-1.7c-0.7-1.1-1.1-2.8-1.1-4.9
		c0-2.2,0.3-3.9,1-5s1.8-1.6,3.2-1.6c1.4,0,2.5,0.6,3.2,1.7S128.3,726.1,128.3,728.2z M121.3,728.2c0,1.9,0.2,3.2,0.7,4.1
		c0.4,0.9,1.1,1.3,2.1,1.3c1,0,1.7-0.4,2.1-1.3s0.7-2.2,0.7-4.1s-0.2-3.2-0.7-4.1s-1.1-1.3-2.1-1.3c-1,0-1.7,0.4-2.1,1.3
		S121.3,726.4,121.3,728.2z"/>
</g>
<g>
	<path fill="#595959" d="M113.2,503.3c0,2.2-0.4,3.9-1.1,5s-1.8,1.6-3.2,1.6c-1.4,0-2.4-0.6-3.2-1.7c-0.7-1.1-1.1-2.8-1.1-4.9
		c0-2.2,0.3-3.9,1-5s1.8-1.6,3.2-1.6c1.4,0,2.5,0.6,3.2,1.7S113.2,501.1,113.2,503.3z M106.2,503.3c0,1.9,0.2,3.2,0.7,4.1
		c0.4,0.9,1.1,1.3,2.1,1.3c1,0,1.7-0.4,2.1-1.3s0.7-2.2,0.7-4.1s-0.2-3.2-0.7-4.1s-1.1-1.3-2.1-1.3c-1,0-1.7,0.4-2.1,1.3
		S106.2,501.4,106.2,503.3z"/>
	<path fill="#595959" d="M115.4,508.8c0-0.4,0.1-0.7,0.3-0.9c0.2-0.2,0.4-0.3,0.8-0.3c0.3,0,0.6,0.1,0.8,0.3
		c0.2,0.2,0.3,0.5,0.3,0.9c0,0.4-0.1,0.7-0.3,0.9s-0.5,0.3-0.8,0.3c-0.3,0-0.5-0.1-0.7-0.3C115.5,509.5,115.4,509.2,115.4,508.8z"/>
	<path fill="#595959" d="M119.9,504.2c0-2.5,0.5-4.4,1.5-5.7c1-1.2,2.4-1.9,4.4-1.9c0.7,0,1.2,0.1,1.6,0.2v1.3
		c-0.5-0.1-1-0.2-1.5-0.2c-1.4,0-2.4,0.4-3.2,1.3c-0.7,0.9-1.1,2.2-1.2,4h0.1c0.6-1,1.7-1.5,3.1-1.5c1.2,0,2.1,0.3,2.7,1
		s1,1.6,1,2.8c0,1.3-0.4,2.4-1.1,3.2c-0.7,0.8-1.7,1.1-3,1.1c-1.3,0-2.4-0.5-3.2-1.5S119.9,506,119.9,504.2z M124.2,508.7
		c0.8,0,1.5-0.3,1.9-0.8s0.7-1.3,0.7-2.3c0-0.8-0.2-1.5-0.6-2s-1.1-0.7-1.9-0.7c-0.5,0-1,0.1-1.4,0.3s-0.8,0.5-1.1,0.9
		s-0.4,0.8-0.4,1.2c0,0.6,0.1,1.2,0.4,1.7s0.6,0.9,1,1.2S123.7,508.7,124.2,508.7z"/>
</g>
<g>
	<path fill="#595959" d="M113.2,577.3c0,2.2-0.4,3.9-1.1,5s-1.8,1.6-3.2,1.6c-1.4,0-2.4-0.6-3.2-1.7c-0.7-1.1-1.1-2.8-1.1-4.9
		c0-2.2,0.3-3.9,1-5s1.8-1.6,3.2-1.6c1.4,0,2.5,0.6,3.2,1.7S113.2,575.1,113.2,577.3z M106.2,577.3c0,1.9,0.2,3.2,0.7,4.1
		c0.4,0.9,1.1,1.3,2.1,1.3c1,0,1.7-0.4,2.1-1.3c0.4-0.9,0.7-2.2,0.7-4.1s-0.2-3.2-0.7-4.1c-0.4-0.9-1.1-1.3-2.1-1.3
		c-1,0-1.7,0.4-2.1,1.3C106.4,574.1,106.2,575.4,106.2,577.3z"/>
	<path fill="#595959" d="M115.4,582.8c0-0.4,0.1-0.7,0.3-0.9c0.2-0.2,0.4-0.3,0.8-0.3c0.3,0,0.6,0.1,0.8,0.3
		c0.2,0.2,0.3,0.5,0.3,0.9c0,0.4-0.1,0.7-0.3,0.9s-0.5,0.3-0.8,0.3c-0.3,0-0.5-0.1-0.7-0.3C115.5,583.5,115.4,583.2,115.4,582.8z"/>
	<path fill="#595959" d="M128.8,580.8h-1.9v3h-1.4v-3h-6.2v-1.3l6.1-8.7h1.5v8.6h1.9V580.8z M125.5,579.4v-4.3c0-0.8,0-1.8,0.1-2.8
		h-0.1c-0.3,0.6-0.5,1-0.8,1.4l-4,5.7H125.5z"/>
</g>
<g>
	<path fill="#595959" d="M113.2,428.1c0,2.2-0.4,3.9-1.1,5s-1.8,1.6-3.2,1.6c-1.4,0-2.4-0.6-3.2-1.7c-0.7-1.1-1.1-2.8-1.1-4.9
		c0-2.2,0.3-3.9,1-5s1.8-1.6,3.2-1.6c1.4,0,2.5,0.6,3.2,1.7S113.2,425.9,113.2,428.1z M106.2,428.1c0,1.9,0.2,3.2,0.7,4.1
		c0.4,0.9,1.1,1.3,2.1,1.3c1,0,1.7-0.4,2.1-1.3s0.7-2.2,0.7-4.1s-0.2-3.2-0.7-4.1s-1.1-1.3-2.1-1.3c-1,0-1.7,0.4-2.1,1.3
		S106.2,426.2,106.2,428.1z"/>
	<path fill="#595959" d="M115.4,433.6c0-0.4,0.1-0.7,0.3-0.9c0.2-0.2,0.4-0.3,0.8-0.3c0.3,0,0.6,0.1,0.8,0.3
		c0.2,0.2,0.3,0.5,0.3,0.9c0,0.4-0.1,0.7-0.3,0.9s-0.5,0.3-0.8,0.3c-0.3,0-0.5-0.1-0.7-0.3C115.5,434.3,115.4,434,115.4,433.6z"/>
	<path fill="#595959" d="M124,421.5c1.2,0,2.1,0.3,2.8,0.8s1,1.3,1,2.3c0,0.6-0.2,1.2-0.6,1.7s-1,1-1.9,1.4c1,0.5,1.8,1,2.2,1.6
		c0.4,0.5,0.7,1.2,0.7,1.9c0,1.1-0.4,1.9-1.1,2.6s-1.8,1-3.1,1c-1.4,0-2.4-0.3-3.2-0.9s-1.1-1.5-1.1-2.6c0-1.5,0.9-2.6,2.7-3.4
		c-0.8-0.5-1.4-1-1.7-1.5s-0.5-1.1-0.5-1.8c0-0.9,0.3-1.7,1-2.2C121.9,421.8,122.9,421.5,124,421.5z M121.2,431.3
		c0,0.7,0.2,1.3,0.7,1.6s1.2,0.6,2.1,0.6c0.9,0,1.6-0.2,2-0.6s0.7-1,0.7-1.7c0-0.6-0.2-1.1-0.7-1.5c-0.5-0.4-1.3-0.9-2.4-1.3
		c-0.9,0.4-1.5,0.8-1.9,1.2S121.2,430.6,121.2,431.3z M124,422.7c-0.7,0-1.3,0.2-1.7,0.5s-0.6,0.8-0.6,1.4c0,0.5,0.2,1,0.5,1.4
		s1,0.8,1.9,1.2c0.8-0.4,1.4-0.7,1.8-1.1s0.5-0.9,0.5-1.4c0-0.6-0.2-1.1-0.6-1.4S124.7,422.7,124,422.7z"/>
</g>
<g>
	<path fill="#595959" d="M110.1,358.7h-1.4v-9.2c0-0.8,0-1.5,0.1-2.2c-0.1,0.1-0.3,0.3-0.4,0.4s-0.8,0.7-2.1,1.7l-0.8-1l3.4-2.6h1.2
		V358.7z"/>
	<path fill="#595959" d="M115.4,357.8c0-0.4,0.1-0.7,0.3-0.9c0.2-0.2,0.4-0.3,0.8-0.3c0.3,0,0.6,0.1,0.8,0.3
		c0.2,0.2,0.3,0.5,0.3,0.9c0,0.4-0.1,0.7-0.3,0.9s-0.5,0.3-0.8,0.3c-0.3,0-0.5-0.1-0.7-0.3C115.5,358.5,115.4,358.2,115.4,357.8z"/>
	<path fill="#595959" d="M128.3,352.3c0,2.2-0.4,3.9-1.1,5s-1.8,1.6-3.2,1.6c-1.4,0-2.4-0.6-3.2-1.7c-0.7-1.1-1.1-2.8-1.1-4.9
		c0-2.2,0.3-3.9,1-5s1.8-1.6,3.2-1.6c1.4,0,2.5,0.6,3.2,1.7S128.3,350.1,128.3,352.3z M121.3,352.3c0,1.9,0.2,3.2,0.7,4.1
		c0.4,0.9,1.1,1.3,2.1,1.3c1,0,1.7-0.4,2.1-1.3s0.7-2.2,0.7-4.1s-0.2-3.2-0.7-4.1s-1.1-1.3-2.1-1.3c-1,0-1.7,0.4-2.1,1.3
		S121.3,350.4,121.3,352.3z"/>
</g>
<g>
	<path fill="#595959" d="M110.1,282.3h-1.4v-9.2c0-0.8,0-1.5,0.1-2.2c-0.1,0.1-0.3,0.3-0.4,0.4s-0.8,0.7-2.1,1.7l-0.8-1l3.4-2.6h1.2
		V282.3z"/>
	<path fill="#595959" d="M115.4,281.4c0-0.4,0.1-0.7,0.3-0.9s0.4-0.3,0.8-0.3c0.3,0,0.6,0.1,0.8,0.3s0.3,0.5,0.3,0.9
		c0,0.4-0.1,0.7-0.3,0.9s-0.5,0.3-0.8,0.3c-0.3,0-0.5-0.1-0.7-0.3S115.4,281.8,115.4,281.4z"/>
	<path fill="#595959" d="M128.2,282.3h-8.4v-1.3l3.4-3.4c1-1,1.7-1.8,2-2.2s0.6-0.9,0.7-1.3s0.2-0.9,0.2-1.4c0-0.7-0.2-1.2-0.6-1.6
		s-1-0.6-1.7-0.6c-0.5,0-1,0.1-1.5,0.3s-1,0.5-1.6,1l-0.8-1c1.2-1,2.5-1.5,3.9-1.5c1.2,0,2.2,0.3,2.8,0.9s1,1.4,1,2.5
		c0,0.8-0.2,1.6-0.7,2.4s-1.3,1.8-2.6,3l-2.8,2.8v0.1h6.6V282.3z"/>
</g>
<line fill="none" stroke="#8C9293" stroke-miterlimit="10" x1="90.8" y1="583.4" x2="101.9" y2="583.4"/>
<line fill="none" stroke="#8C9293" stroke-miterlimit="10" x1="90.8" y1="508.1" x2="101.9" y2="508.1"/>
<line fill="none" stroke="#8C9293" stroke-miterlimit="10" x1="90.8" y1="282" x2="101.9" y2="282"/>
<line fill="none" stroke="#8C9293" stroke-miterlimit="10" x1="90.8" y1="734.1" x2="101.9" y2="734.1"/>
<line fill="none" stroke="#8C9293" stroke-miterlimit="10" x1="90.8" y1="658.8" x2="101.9" y2="658.8"/>
<line fill="none" stroke="#8C9293" stroke-miterlimit="10" x1="90.8" y1="357.3" x2="101.9" y2="357.3"/>
<line fill="none" stroke="#8C9293" stroke-miterlimit="10" x1="90.8" y1="432.7" x2="101.9" y2="432.7"/>
<line fill="none" stroke="#8C9293" stroke-miterlimit="10" x1="-399.8" y1="258.3" x2="-399.8" y2="268.1"/>
<line fill="none" stroke="#8C9293" stroke-miterlimit="10" x1="-222.7" y1="258.3" x2="-222.7" y2="268.1"/>
<line fill="none" stroke="#8C9293" stroke-miterlimit="10" x1="-574.7" y1="258.3" x2="-574.7" y2="268.1"/>
<line fill="none" stroke="#8C9293" stroke-miterlimit="10" x1="-47.6" y1="258.3" x2="-47.6" y2="268.1"/>
<g>
	<path fill="#595959" d="M-570.4,246.6c0,2.2-0.4,3.9-1.1,5s-1.8,1.6-3.2,1.6c-1.4,0-2.4-0.6-3.2-1.7c-0.7-1.1-1.1-2.8-1.1-4.9
		c0-2.2,0.3-3.9,1-5s1.8-1.6,3.2-1.6c1.4,0,2.5,0.6,3.2,1.7S-570.4,244.4-570.4,246.6z M-577.5,246.6c0,1.9,0.2,3.2,0.7,4.1
		c0.4,0.9,1.1,1.3,2.1,1.3c1,0,1.7-0.4,2.1-1.3s0.7-2.2,0.7-4.1s-0.2-3.2-0.7-4.1s-1.1-1.3-2.1-1.3c-1,0-1.7,0.4-2.1,1.3
		S-577.5,244.7-577.5,246.6z"/>
</g>
<g>
	<path fill="#595959" d="M-399.6,245.2c1.4,0,2.4,0.3,3.2,1s1.2,1.6,1.2,2.8c0,1.3-0.4,2.4-1.3,3.1s-2,1.1-3.5,1.1
		c-1.4,0-2.6-0.2-3.3-0.7v-1.4c0.4,0.3,0.9,0.5,1.5,0.6c0.6,0.1,1.2,0.2,1.8,0.2c1,0,1.8-0.2,2.4-0.7s0.9-1.2,0.9-2.1
		c0-1.8-1.1-2.7-3.3-2.7c-0.6,0-1.3,0.1-2.2,0.3l-0.8-0.5l0.5-6h6.4v1.3h-5.1l-0.3,3.9C-401,245.2-400.3,245.2-399.6,245.2z"/>
</g>
<g>
	<path fill="#595959" d="M-228.1,253h-1.4v-9.2c0-0.8,0-1.5,0.1-2.2c-0.1,0.1-0.3,0.3-0.4,0.4s-0.8,0.7-2.1,1.7l-0.8-1l3.4-2.6h1.2
		V253z"/>
	<path fill="#595959" d="M-214.7,246.6c0,2.2-0.4,3.9-1.1,5s-1.8,1.6-3.2,1.6c-1.4,0-2.4-0.6-3.2-1.7c-0.7-1.1-1.1-2.8-1.1-4.9
		c0-2.2,0.3-3.9,1-5s1.8-1.6,3.2-1.6c1.4,0,2.5,0.6,3.2,1.7S-214.7,244.4-214.7,246.6z M-221.7,246.6c0,1.9,0.2,3.2,0.7,4.1
		c0.4,0.9,1.1,1.3,2.1,1.3c1,0,1.7-0.4,2.1-1.3s0.7-2.2,0.7-4.1s-0.2-3.2-0.7-4.1s-1.1-1.3-2.1-1.3c-1,0-1.7,0.4-2.1,1.3
		S-221.7,244.7-221.7,246.6z"/>
</g>
<g>
	<path fill="#595959" d="M-52.8,253h-1.4v-9.2c0-0.8,0-1.5,0.1-2.2c-0.1,0.1-0.3,0.3-0.4,0.4s-0.8,0.7-2.1,1.7l-0.8-1l3.4-2.6h1.2
		V253z"/>
	<path fill="#595959" d="M-43.9,245.2c1.4,0,2.4,0.3,3.2,1c0.8,0.7,1.2,1.6,1.2,2.8c0,1.3-0.4,2.4-1.3,3.1c-0.8,0.8-2,1.1-3.5,1.1
		c-1.4,0-2.6-0.2-3.3-0.7v-1.4c0.4,0.3,0.9,0.5,1.5,0.6c0.6,0.1,1.2,0.2,1.8,0.2c1,0,1.8-0.2,2.4-0.7c0.6-0.5,0.9-1.2,0.9-2.1
		c0-1.8-1.1-2.7-3.3-2.7c-0.6,0-1.3,0.1-2.2,0.3l-0.8-0.5l0.5-6h6.4v1.3h-5.1l-0.3,3.9C-45.2,245.2-44.6,245.2-43.9,245.2z"/>
</g>
<g>
	<path fill="#1C5C85" d="M-319.4,216.2c-1.2,0-2.2,0.4-2.8,1.3s-1,2-1,3.5c0,1.6,0.3,2.8,1,3.6s1.6,1.2,2.9,1.2
		c0.5,0,1.1-0.1,1.6-0.2s1-0.2,1.6-0.4v1.8c-1,0.4-2.2,0.6-3.4,0.6c-1.9,0-3.3-0.6-4.3-1.7s-1.5-2.8-1.5-4.9c0-1.3,0.2-2.5,0.7-3.5
		s1.2-1.8,2.1-2.3s2-0.8,3.3-0.8c1.3,0,2.5,0.3,3.6,0.8l-0.8,1.7c-0.4-0.2-0.9-0.4-1.4-0.5C-318.4,216.3-318.9,216.2-319.4,216.2z"
		/>
	<path fill="#1C5C85" d="M-305.1,222.5c0,1.6-0.4,2.8-1.2,3.7s-1.9,1.3-3.4,1.3c-0.9,0-1.7-0.2-2.4-0.6s-1.2-1-1.6-1.8
		s-0.6-1.7-0.6-2.7c0-1.6,0.4-2.8,1.2-3.7s1.9-1.3,3.4-1.3c1.4,0,2.5,0.5,3.3,1.4C-305.5,219.8-305.1,221-305.1,222.5z
		 M-312.1,222.5c0,2.2,0.8,3.4,2.5,3.4c1.6,0,2.5-1.1,2.5-3.4c0-2.2-0.8-3.3-2.5-3.3c-0.9,0-1.5,0.3-1.9,0.9
		S-312.1,221.5-312.1,222.5z"/>
	<path fill="#1C5C85" d="M-294.1,222.5c0,1.6-0.4,2.8-1.2,3.7s-1.9,1.3-3.4,1.3c-0.9,0-1.7-0.2-2.4-0.6s-1.2-1-1.6-1.8
		s-0.6-1.7-0.6-2.7c0-1.6,0.4-2.8,1.2-3.7s1.9-1.3,3.4-1.3c1.4,0,2.5,0.5,3.3,1.4C-294.5,219.8-294.1,221-294.1,222.5z
		 M-301.1,222.5c0,2.2,0.8,3.4,2.5,3.4c1.6,0,2.5-1.1,2.5-3.4c0-2.2-0.8-3.3-2.5-3.3c-0.9,0-1.5,0.3-1.9,0.9
		S-301.1,221.5-301.1,222.5z"/>
	<path fill="#1C5C85" d="M-289.6,227.4h-2.1v-13.7h2.1V227.4z"/>
	<path fill="#1C5C85" d="M-280.6,227.4l-0.4-1.4h-0.1c-0.5,0.6-0.9,1-1.4,1.2c-0.5,0.2-1.1,0.3-1.8,0.3c-1,0-1.7-0.3-2.2-0.8
		s-0.8-1.2-0.8-2.2c0-1,0.4-1.8,1.1-2.3s1.9-0.8,3.4-0.8l1.7-0.1V221c0-0.6-0.1-1.1-0.4-1.4c-0.3-0.3-0.7-0.5-1.3-0.5
		c-0.5,0-1,0.1-1.4,0.2s-0.9,0.3-1.3,0.5l-0.7-1.5c0.5-0.3,1.1-0.5,1.7-0.6c0.6-0.1,1.2-0.2,1.8-0.2c1.2,0,2.2,0.3,2.8,0.8
		s0.9,1.4,0.9,2.5v6.5H-280.6z M-283.7,226c0.8,0,1.4-0.2,1.8-0.6c0.5-0.4,0.7-1,0.7-1.8v-0.8l-1.2,0.1c-1,0-1.7,0.2-2.1,0.5
		c-0.4,0.3-0.7,0.7-0.7,1.3c0,0.4,0.1,0.8,0.4,1C-284.6,225.9-284.2,226-283.7,226z"/>
	<path fill="#1C5C85" d="M-267.7,227.4h-2.1v-6c0-0.8-0.2-1.3-0.5-1.7s-0.8-0.6-1.4-0.6c-0.9,0-1.5,0.3-1.9,0.8s-0.6,1.4-0.6,2.6
		v4.8h-2.1v-9.7h1.6l0.3,1.3h0.1c0.3-0.5,0.7-0.8,1.2-1.1s1.1-0.4,1.8-0.4c2.3,0,3.5,1.2,3.5,3.6V227.4z"/>
	<path fill="#1C5C85" d="M-261.2,225.9c0.5,0,1-0.1,1.5-0.2v1.6c-0.2,0.1-0.5,0.2-0.9,0.2s-0.7,0.1-1.1,0.1c-2,0-2.9-1-2.9-3.1v-5.2
		h-1.3v-0.9l1.4-0.8l0.7-2.1h1.3v2.2h2.8v1.6h-2.8v5.2c0,0.5,0.1,0.9,0.4,1.1C-261.9,225.8-261.6,225.9-261.2,225.9z"/>
	<path fill="#1C5C85" d="M-250.8,227.4h-2.1v-12.8h7.3v1.8h-5.2v4h4.8v1.8h-4.8V227.4z"/>
	<path fill="#1C5C85" d="M-241.4,227.4h-2.1v-13.7h2.1V227.4z"/>
	<path fill="#1C5C85" d="M-229.8,222.5c0,1.6-0.4,2.8-1.2,3.7s-1.9,1.3-3.4,1.3c-0.9,0-1.7-0.2-2.4-0.6s-1.2-1-1.6-1.8
		s-0.6-1.7-0.6-2.7c0-1.6,0.4-2.8,1.2-3.7s1.9-1.3,3.4-1.3c1.4,0,2.5,0.5,3.3,1.4C-230.3,219.8-229.8,221-229.8,222.5z
		 M-236.9,222.5c0,2.2,0.8,3.4,2.5,3.4c1.6,0,2.5-1.1,2.5-3.4c0-2.2-0.8-3.3-2.5-3.3c-0.9,0-1.5,0.3-1.9,0.9
		S-236.9,221.5-236.9,222.5z"/>
	<path fill="#1C5C85" d="M-219.5,227.4l-1.3-4.5c-0.2-0.5-0.4-1.6-0.8-3.3h-0.1c-0.3,1.6-0.6,2.7-0.8,3.4l-1.3,4.5h-2.3l-2.7-9.7
		h2.1l1.2,4.8c0.3,1.2,0.5,2.2,0.6,3h0.1c0.1-0.4,0.1-0.9,0.3-1.5c0.1-0.6,0.2-1,0.3-1.2l1.5-5.1h2.3l1.4,5.1
		c0.1,0.3,0.2,0.7,0.3,1.3c0.1,0.6,0.2,1.1,0.2,1.4h0.1c0.1-0.7,0.3-1.7,0.6-3l1.3-4.8h2.1l-2.7,9.7H-219.5z"/>
	<path fill="#1C5C85" d="M-208.8,222.5c0-1.6,0.2-3,0.7-4.4c0.5-1.4,1.1-2.5,2-3.6h1.8c-0.8,1.1-1.4,2.3-1.9,3.7s-0.7,2.8-0.7,4.2
		s0.2,2.8,0.7,4.2s1.1,2.6,1.9,3.6h-1.8c-0.9-1-1.5-2.2-2-3.5S-208.8,224-208.8,222.5z"/>
	<path fill="#1C5C85" d="M-202.2,227.4v-12.8h2.1v11h5.4v1.8H-202.2z"/>
	<path fill="#1C5C85" d="M-183.9,218.5c0,1.3-0.4,2.4-1.3,3.1s-2.1,1.1-3.8,1.1h-1.3v4.8h-2.1v-12.8h3.7c1.6,0,2.8,0.3,3.6,1
		C-184.3,216.2-183.9,217.2-183.9,218.5z M-190.3,220.8h1.1c1.1,0,1.9-0.2,2.4-0.6s0.8-1,0.8-1.8c0-0.7-0.2-1.3-0.7-1.7
		s-1.2-0.5-2.1-0.5h-1.5V220.8z"/>
	<path fill="#1C5C85" d="M-175.8,227.4l-3.7-10.7h-0.1c0.1,1.6,0.1,3.1,0.1,4.5v6.2h-1.9v-12.8h3l3.6,10.2h0.1l3.7-10.2h3v12.8h-2
		v-6.4c0-0.6,0-1.5,0-2.5c0-1,0.1-1.6,0.1-1.9h-0.1l-3.9,10.7H-175.8z"/>
	<path fill="#1C5C85" d="M-161.4,222.5c0,1.5-0.2,3-0.7,4.3c-0.5,1.3-1.1,2.5-2,3.5h-1.8c0.8-1.1,1.4-2.3,1.9-3.6
		c0.4-1.3,0.6-2.7,0.6-4.1c0-1.4-0.2-2.8-0.7-4.2c-0.4-1.4-1.1-2.6-1.9-3.7h1.8c0.9,1,1.5,2.2,2,3.6
		C-161.7,219.5-161.4,220.9-161.4,222.5z"/>
</g>
<path fill="#D6BC3E" d="M-574.8,733.4c4.4-0.4,8.9-0.8,13.3-1.2c4.4-0.4,8.9-0.8,13.3-1.2c4.4-0.4,8.9-0.8,13.3-1.2
	c4.4-0.4,8.9-0.1,13.3-1.2c4.4-1.2,8.9-4.1,13.3-5.7c4.4-1.6,8.9-2.4,13.3-3.8c4.4-1.3,8.9-2.7,13.3-4.2c4.4-1.5,8.9-3,13.3-4.7
	c4.4-1.6,8.9-3.3,13.3-5.1c4.4-1.8,8.9-3.6,13.3-5.5c4.4-1.9,8.9-3.9,13.3-6c4.4-2.1,8.9-4.2,13.3-6.4c4.4-2.2,8.9-4.5,13.3-6.8
	c4.4-2.3,8.9-4.7,13.3-7.2c4.4-2.4,8.9-5,13.3-7.6c4.4-2.6,8.9-5.2,13.3-7.9c4.4-2.7,8.9-5.5,13.3-8.3c4.4-2.8,8.9-5.7,13.3-8.7
	c4.4-3,8.9-6,13.3-9.1c4.4-3.1,8.9-6.3,13.3-9.4v112.1h-265.9"/>
<path fill="#4F9B1E" d="M-574.8,733.4c4.4-0.6,8.9-1.2,13.3-1.8c4.4-0.6,8.9-1.2,13.3-1.8c4.4-0.6,8.9-1.2,13.3-1.8
	c4.4-0.6,8.9-1.2,13.3-1.8c4.4-0.6,8.9-1.2,13.3-1.8c4.4-0.6,8.9-1.2,13.3-1.8c4.4-0.6,8.9-1.2,13.3-1.8c4.4-0.6,8.9,0.4,13.3-1.8
	c4.4-2.2,8.9-8.7,13.3-11.5c4.4-2.7,8.9-3.2,13.3-4.9c4.4-1.7,8.9-3.4,13.3-5.2c4.4-1.8,8.9-3.6,13.3-5.5c4.4-1.9,8.9-3.9,13.3-5.9
	c4.4-2,8.9-4.1,13.3-6.2c4.4-2.1,8.9-4.3,13.3-6.5c4.4-2.2,8.9-4.5,13.3-6.9c4.4-2.3,8.9-4.7,13.3-7.2c4.4-2.4,8.9-4.9,13.3-7.5
	c4.4-2.5,8.9-5.1,13.3-7.8c4.4-2.6,6.8-4,13.3-8.1c6.6-4.2,17.7-11.2,26.6-17.1c8.9-5.9,17.7-12,26.6-18.2
	c8.9-6.3,17.7-12.7,26.6-19.4c8.9-6.7,17.7-13.5,26.6-20.5c8.9-7,17.7-14.2,26.6-21.6c8.9-7.4,17.7-15,26.6-22.7
	c8.9-7.8,17.7-15.7,26.6-23.8c8.9-8.1,17.7-16.4,26.6-24.9c8.9-8.5,17.7-17.1,26.6-25.9c8.9-8.8,17.7-18,26.6-27v319.1h-531.7"/>
<path fill="#8DC63F" d="M-574.8,733.4c4.4-0.4,8.9-0.7,13.3-1.1c4.4-0.4,8.9-0.7,13.3-1.1c4.4-0.4,8.9-0.7,13.3-1.1
	c4.4-0.4,8.9-0.7,13.3-1.1c4.4-0.4,8.9-0.7,13.3-1.1c4.4-0.4,8.9-0.7,13.3-1.1c4.4-0.4,8.9-0.7,13.3-1.1c4.4-0.4,8.9,0.3,13.3-1.1
	c4.4-1.3,8.9-5.3,13.3-7c4.4-1.7,8.9-1.9,13.3-3c4.4-1,8.9-2.1,13.3-3.2c4.4-1.1,8.9-2.2,13.3-3.4c4.4-1.2,8.9-2.4,13.3-3.6
	c4.4-1.2,8.9-2.5,13.3-3.8c4.4-1.3,8.9-2.6,13.3-4c4.4-1.4,8.9-2.8,13.3-4.2c4.4-1.4,8.9-2.9,13.3-4.4c4.4-1.5,8.9-3,13.3-4.6
	c4.4-1.6,8.9-3.1,13.3-4.8c4.4-1.6,6.7-2.4,13.3-5c6.6-2.6,17.7-6.8,26.6-10.4c8.9-3.6,17.7-7.3,26.6-11.2
	c8.9-3.8,17.7-7.8,26.6-11.8c8.9-4.1,17.7-8.3,26.6-12.6c8.9-4.3,17.7-8.7,26.6-13.2c8.9-4.5,17.7-9.2,26.6-13.9
	c8.9-4.7,17.7-9.6,26.6-14.6c8.9-5,17.7-10,26.6-15.2c8.9-5.2,17.7-10.5,26.6-15.9c8.9-5.4,17.7-11,26.6-16.5v195.5h-531.7"/>
<path fill="#86B8E0" d="M90,590.4c-22.2,8.1-44.3,16-66.5,23.5c-22.2,7.5-51,16.7-66.5,21.7c-13.2,4.2-19.1,5.9-26.6,8.1
	c-8.9,2.7-17.7,5.3-26.6,7.8c-8.9,2.6-17.7,5.1-26.6,7.5c-8.9,2.5-17.7,4.9-26.6,7.2c-8.9,2.4-17.7,4.7-26.6,6.9
	c-8.9,2.2-17.7,4.4-26.6,6.6c-8.9,2.1-17.7,4.2-26.6,6.3c-8.9,2-17.7,4-26.6,5.9c-8.9,1.9-17.7,3.8-26.6,5.6
	c-8.9,1.8-19.9,3.9-26.6,5.2c-6.6,1.3-8.9,1.7-13.3,2.5c-4.4,0.8-8.9,0.2-13.3,2.4c-4.4,2.2-8.9,8.7-13.3,10.6
	c-4.4,1.9-8.9,0.6-13.3,0.9c-4.4,0.3-8.9,0.6-13.3,0.9c-4.4,0.3-8.9,0.6-13.3,0.9c-4.4,0.3-8.9,0.6-13.3,0.9
	c-4.4,0.3-8.9,0.6-13.3,0.9c-4.4,0.3-8.9,0.6-13.3,0.9c-4.4,0.3-8.9,0.6-13.3,0.9c-4.4,0.3-8.9,0.6-13.3,0.9
	c-4.4,0.3-8.9,0.6-13.3,0.9c-4.4,0.3-8.9,0.6-13.3,0.9c-4.4,0.3-8.9,0.6-13.3,0.9c-4.4,0.3-8.9,0.6-13.3,0.9
	c-4.4,0.3-8.9,0.6-13.3,0.9c-4.4,0.3-8.9,0.6-13.3,0.9c-4.4,0.3-8.9,0.6-13.3,0.9c-4.4,0.3-8.9,0.6-13.3,0.9
	c-4.4,0.3-8.9,0.6-13.3,1.2l665.4-0.1L90,590.4z"/>
<g>
	<g>
		<path fill="#1C5C85" d="M-538.2,837.1l-1.5-11.7h-0.1c0,0.4-0.1,1-0.3,1.8c-0.1,0.8-0.2,1.4-0.3,1.8l-1.7,8.1h-1.5l2.8-13.1h2.2
			l1.3,10.8h0.1l5.9-10.8h2.4l-2.7,13.1h-1.6c0.8-3.5,1.3-6.3,1.7-8.1c0.4-1.9,0.7-3.1,0.8-3.5h-0.1l-6.4,11.7H-538.2z"/>
		<path fill="#1C5C85" d="M-523.1,827.1c1.1,0,2,0.3,2.7,1c0.7,0.7,1,1.6,1,2.8c0,1.1-0.2,2.2-0.6,3.2c-0.4,1-1,1.8-1.8,2.3
			c-0.7,0.5-1.6,0.8-2.5,0.8c-1.2,0-2.1-0.3-2.7-1s-1-1.6-1-2.8c0-1.1,0.2-2.2,0.7-3.2c0.4-1,1-1.8,1.8-2.3S-524,827.1-523.1,827.1z
			 M-521,830.7c0-0.7-0.2-1.2-0.6-1.7c-0.4-0.4-0.9-0.6-1.5-0.6c-0.7,0-1.2,0.2-1.8,0.7c-0.5,0.4-0.9,1.1-1.2,1.8
			c-0.3,0.8-0.4,1.7-0.4,2.6c0,0.8,0.2,1.4,0.6,1.8s0.9,0.6,1.6,0.6c0.6,0,1.2-0.2,1.7-0.7s0.9-1.1,1.2-1.9
			C-521.1,832.7-521,831.8-521,830.7z"/>
		<path fill="#1C5C85" d="M-512.8,827.1c1.2,0,2,0.6,2.5,1.7h0.1c0.1-0.9,0.2-1.8,0.4-2.5l0.7-3.2h1.5l-3,14h-1.2l0.2-1.9h-0.1
			c-0.6,0.8-1.2,1.3-1.7,1.6c-0.5,0.3-1.1,0.5-1.6,0.5c-0.8,0-1.5-0.3-2-0.9c-0.5-0.6-0.7-1.4-0.7-2.4c0-1.3,0.2-2.5,0.6-3.5
			s1-1.9,1.7-2.5C-514.6,827.4-513.7,827.1-512.8,827.1z M-514.5,836.1c0.6,0,1.1-0.3,1.7-0.8c0.6-0.6,1.1-1.3,1.4-2.1
			s0.5-1.8,0.5-2.7c0-0.7-0.2-1.2-0.5-1.5c-0.3-0.3-0.8-0.5-1.4-0.5c-0.6,0-1.2,0.2-1.7,0.7c-0.5,0.5-0.9,1.2-1.2,2.1
			c-0.3,0.9-0.5,1.8-0.5,2.8C-516.1,835.4-515.6,836.1-514.5,836.1z"/>
		<path fill="#1C5C85" d="M-503.5,837.3c-1.1,0-2-0.3-2.6-1c-0.6-0.7-0.9-1.6-0.9-2.7c0-1.1,0.2-2.2,0.7-3.2c0.4-1,1-1.8,1.8-2.4
			c0.7-0.6,1.5-0.9,2.4-0.9c0.9,0,1.6,0.2,2.1,0.6s0.7,1,0.7,1.7c0,1.1-0.5,1.9-1.5,2.5c-1,0.6-2.4,0.9-4.3,0.9h-0.3l0,0.7
			c0,0.8,0.2,1.4,0.6,1.8c0.4,0.4,0.9,0.7,1.7,0.7c0.4,0,0.8-0.1,1.2-0.2c0.4-0.1,0.9-0.3,1.5-0.6v1.3c-0.6,0.3-1.1,0.4-1.5,0.6
			S-503,837.3-503.5,837.3z M-502.3,828.4c-0.6,0-1.2,0.3-1.7,0.8s-1,1.3-1.2,2.3h0.1c1.4,0,2.4-0.2,3.1-0.5s1.1-0.9,1.1-1.6
			c0-0.3-0.1-0.6-0.3-0.8C-501.5,828.5-501.8,828.4-502.3,828.4z"/>
		<path fill="#1C5C85" d="M-496.8,837.1h-1.5l3-14h1.5L-496.8,837.1z"/>
		<path fill="#1C5C85" d="M-487.4,837.1l4.9-10.8h-6.5V824h9.4v1.7l-5,11.4H-487.4z"/>
		<path fill="#1C5C85" d="M-469,837.1h-9.2v-1.9l3.3-3.3c1-1,1.6-1.7,1.9-2.1c0.3-0.4,0.5-0.7,0.6-1.1c0.1-0.3,0.2-0.7,0.2-1
			c0-0.5-0.1-0.9-0.4-1.2c-0.3-0.3-0.7-0.4-1.2-0.4c-0.5,0-1,0.1-1.5,0.4c-0.5,0.2-1,0.6-1.5,1l-1.5-1.8c0.6-0.6,1.2-0.9,1.6-1.2
			c0.4-0.2,0.9-0.4,1.4-0.5c0.5-0.1,1.1-0.2,1.7-0.2c0.8,0,1.5,0.1,2.2,0.4c0.6,0.3,1.1,0.7,1.5,1.3c0.3,0.5,0.5,1.2,0.5,1.9
			c0,0.6-0.1,1.2-0.3,1.7c-0.2,0.5-0.5,1.1-1,1.6c-0.4,0.6-1.2,1.4-2.4,2.4l-1.7,1.6v0.1h5.7V837.1z"/>
		<path fill="#1C5C85" d="M-458.5,830.5c0,2.3-0.4,4-1.1,5.1c-0.8,1.1-1.9,1.7-3.5,1.7c-1.5,0-2.7-0.6-3.4-1.7
			c-0.8-1.1-1.2-2.8-1.2-5c0-2.3,0.4-4,1.1-5.1c0.7-1.1,1.9-1.7,3.5-1.7c1.5,0,2.7,0.6,3.4,1.7
			C-458.9,826.6-458.5,828.3-458.5,830.5z M-464.9,830.5c0,1.6,0.1,2.8,0.4,3.5c0.3,0.7,0.7,1,1.4,1c0.6,0,1.1-0.4,1.4-1.1
			c0.3-0.7,0.4-1.9,0.4-3.5c0-1.6-0.1-2.8-0.4-3.5c-0.3-0.7-0.8-1.1-1.4-1.1c-0.7,0-1.1,0.4-1.4,1.1
			C-464.8,827.8-464.9,828.9-464.9,830.5z"/>
	</g>
	<path fill="#D6BC3E" d="M-561.6,825.2h13.5l-4.3,12.1h-13.5L-561.6,825.2z"/>
</g>
<g>
	<g>
		<path fill="#1C5C85" d="M-539.4,866.5l-1.5-11.7h-0.1c0,0.4-0.1,1-0.3,1.8c-0.1,0.8-0.2,1.4-0.3,1.8l-1.7,8.1h-1.5l2.8-13.1h2.2
			l1.3,10.8h0.1l5.9-10.8h2.4l-2.7,13.1h-1.6c0.8-3.5,1.3-6.3,1.7-8.1c0.4-1.9,0.7-3.1,0.8-3.5h-0.1l-6.4,11.7H-539.4z"/>
		<path fill="#1C5C85" d="M-524.3,856.6c1.1,0,2,0.3,2.7,1c0.7,0.7,1,1.6,1,2.8c0,1.1-0.2,2.2-0.6,3.2c-0.4,1-1,1.8-1.8,2.3
			c-0.7,0.5-1.6,0.8-2.5,0.8c-1.2,0-2.1-0.3-2.7-1s-1-1.6-1-2.8c0-1.1,0.2-2.2,0.7-3.2c0.4-1,1-1.8,1.8-2.3
			S-525.2,856.6-524.3,856.6z M-522.1,860.1c0-0.7-0.2-1.2-0.6-1.7c-0.4-0.4-0.9-0.6-1.5-0.6c-0.7,0-1.2,0.2-1.8,0.7
			c-0.5,0.4-0.9,1.1-1.2,1.8c-0.3,0.8-0.4,1.7-0.4,2.6c0,0.8,0.2,1.4,0.6,1.8s0.9,0.6,1.6,0.6c0.6,0,1.2-0.2,1.7-0.7
			s0.9-1.1,1.2-1.9C-522.3,862.1-522.1,861.2-522.1,860.1z"/>
		<path fill="#1C5C85" d="M-514,856.5c1.2,0,2,0.6,2.5,1.7h0.1c0.1-0.9,0.2-1.8,0.4-2.5l0.7-3.2h1.5l-3,14h-1.2l0.2-1.9h-0.1
			c-0.6,0.8-1.2,1.3-1.7,1.6c-0.5,0.3-1.1,0.5-1.6,0.5c-0.8,0-1.5-0.3-2-0.9c-0.5-0.6-0.7-1.4-0.7-2.4c0-1.3,0.2-2.5,0.6-3.5
			s1-1.9,1.7-2.5C-515.7,856.8-514.9,856.5-514,856.5z M-515.7,865.5c0.6,0,1.1-0.3,1.7-0.8c0.6-0.6,1.1-1.3,1.4-2.1
			s0.5-1.8,0.5-2.7c0-0.7-0.2-1.2-0.5-1.5c-0.3-0.3-0.8-0.5-1.4-0.5c-0.6,0-1.2,0.2-1.7,0.7c-0.5,0.5-0.9,1.2-1.2,2.1
			c-0.3,0.9-0.5,1.8-0.5,2.8C-517.3,864.8-516.8,865.5-515.7,865.5z"/>
		<path fill="#1C5C85" d="M-504.7,866.7c-1.1,0-2-0.3-2.6-1c-0.6-0.7-0.9-1.6-0.9-2.7c0-1.1,0.2-2.2,0.7-3.2c0.4-1,1-1.8,1.8-2.4
			c0.7-0.6,1.5-0.9,2.4-0.9c0.9,0,1.6,0.2,2.1,0.6s0.7,1,0.7,1.7c0,1.1-0.5,1.9-1.5,2.5c-1,0.6-2.4,0.9-4.3,0.9h-0.3l0,0.7
			c0,0.8,0.2,1.4,0.6,1.8c0.4,0.4,0.9,0.7,1.7,0.7c0.4,0,0.8-0.1,1.2-0.2c0.4-0.1,0.9-0.3,1.5-0.6v1.3c-0.6,0.3-1.1,0.4-1.5,0.6
			S-504.1,866.7-504.7,866.7z M-503.4,857.8c-0.6,0-1.2,0.3-1.7,0.8s-1,1.3-1.2,2.3h0.1c1.4,0,2.4-0.2,3.1-0.5s1.1-0.9,1.1-1.6
			c0-0.3-0.1-0.6-0.3-0.8C-502.6,857.9-502.9,857.8-503.4,857.8z"/>
		<path fill="#1C5C85" d="M-498,866.5h-1.5l3-14h1.5L-498,866.5z"/>
		<path fill="#1C5C85" d="M-488.5,866.5l4.9-10.8h-6.5v-2.3h9.4v1.7l-5,11.4H-488.5z"/>
		<path fill="#1C5C85" d="M-470.1,866.5h-9.2v-1.9l3.3-3.3c1-1,1.6-1.7,1.9-2.1c0.3-0.4,0.5-0.7,0.6-1.1c0.1-0.3,0.2-0.7,0.2-1
			c0-0.5-0.1-0.9-0.4-1.2c-0.3-0.3-0.7-0.4-1.2-0.4c-0.5,0-1,0.1-1.5,0.4c-0.5,0.2-1,0.6-1.5,1l-1.5-1.8c0.6-0.6,1.2-0.9,1.6-1.2
			c0.4-0.2,0.9-0.4,1.4-0.5c0.5-0.1,1.1-0.2,1.7-0.2c0.8,0,1.5,0.1,2.2,0.4c0.6,0.3,1.1,0.7,1.5,1.3c0.3,0.5,0.5,1.2,0.5,1.9
			c0,0.6-0.1,1.2-0.3,1.7c-0.2,0.5-0.5,1.1-1,1.6c-0.4,0.6-1.2,1.4-2.4,2.4l-1.7,1.6v0.1h5.7V866.5z"/>
		<path fill="#1C5C85" d="M-461.9,866.5h-2.8v-7.6l0-1.2l0-1.4c-0.5,0.5-0.8,0.8-1,0.9l-1.5,1.2l-1.3-1.7l4.2-3.4h2.3V866.5z"/>
	</g>
	<path fill="#CD1D23" d="M-561.6,854.6h13.5l-4.3,12.1h-13.5L-561.6,854.6z"/>
</g>
<g>
	<g>
		<path fill="#1C5C85" d="M-359.2,837.1l-1.5-11.7h-0.1c0,0.4-0.1,1-0.3,1.8c-0.1,0.8-0.2,1.4-0.3,1.8l-1.7,8.1h-1.5l2.8-13.1h2.2
			l1.3,10.8h0.1l5.9-10.8h2.4l-2.7,13.1h-1.6c0.8-3.5,1.3-6.3,1.7-8.1c0.4-1.9,0.7-3.1,0.8-3.5h-0.1l-6.4,11.7H-359.2z"/>
		<path fill="#1C5C85" d="M-344.1,827.1c1.1,0,2,0.3,2.7,1c0.7,0.7,1,1.6,1,2.8c0,1.1-0.2,2.2-0.6,3.2c-0.4,1-1,1.8-1.8,2.3
			c-0.7,0.5-1.6,0.8-2.5,0.8c-1.2,0-2.1-0.3-2.7-1s-1-1.6-1-2.8c0-1.1,0.2-2.2,0.7-3.2c0.4-1,1-1.8,1.8-2.3S-345,827.1-344.1,827.1z
			 M-342,830.7c0-0.7-0.2-1.2-0.6-1.7c-0.4-0.4-0.9-0.6-1.5-0.6c-0.7,0-1.2,0.2-1.8,0.7c-0.5,0.4-0.9,1.1-1.2,1.8
			c-0.3,0.8-0.4,1.7-0.4,2.6c0,0.8,0.2,1.4,0.6,1.8s0.9,0.6,1.6,0.6c0.6,0,1.2-0.2,1.7-0.7s0.9-1.1,1.2-1.9
			C-342.1,832.7-342,831.8-342,830.7z"/>
		<path fill="#1C5C85" d="M-333.8,827.1c1.2,0,2,0.6,2.5,1.7h0.1c0.1-0.9,0.2-1.8,0.4-2.5l0.7-3.2h1.5l-3,14h-1.2l0.2-1.9h-0.1
			c-0.6,0.8-1.2,1.3-1.7,1.6c-0.5,0.3-1.1,0.5-1.6,0.5c-0.8,0-1.5-0.3-2-0.9c-0.5-0.6-0.7-1.4-0.7-2.4c0-1.3,0.2-2.5,0.6-3.5
			s1-1.9,1.7-2.5C-335.5,827.4-334.7,827.1-333.8,827.1z M-335.5,836.1c0.6,0,1.1-0.3,1.7-0.8c0.6-0.6,1.1-1.3,1.4-2.1
			s0.5-1.8,0.5-2.7c0-0.7-0.2-1.2-0.5-1.5c-0.3-0.3-0.8-0.5-1.4-0.5c-0.6,0-1.2,0.2-1.7,0.7c-0.5,0.5-0.9,1.2-1.2,2.1
			c-0.3,0.9-0.5,1.8-0.5,2.8C-337.1,835.4-336.6,836.1-335.5,836.1z"/>
		<path fill="#1C5C85" d="M-324.5,837.3c-1.1,0-2-0.3-2.6-1c-0.6-0.7-0.9-1.6-0.9-2.7c0-1.1,0.2-2.2,0.7-3.2c0.4-1,1-1.8,1.8-2.4
			c0.7-0.6,1.5-0.9,2.4-0.9c0.9,0,1.6,0.2,2.1,0.6s0.7,1,0.7,1.7c0,1.1-0.5,1.9-1.5,2.5c-1,0.6-2.4,0.9-4.3,0.9h-0.3l0,0.7
			c0,0.8,0.2,1.4,0.6,1.8c0.4,0.4,0.9,0.7,1.7,0.7c0.4,0,0.8-0.1,1.2-0.2c0.4-0.1,0.9-0.3,1.5-0.6v1.3c-0.6,0.3-1.1,0.4-1.5,0.6
			S-324,837.3-324.5,837.3z M-323.2,828.4c-0.6,0-1.2,0.3-1.7,0.8s-1,1.3-1.2,2.3h0.1c1.4,0,2.4-0.2,3.1-0.5s1.1-0.9,1.1-1.6
			c0-0.3-0.1-0.6-0.3-0.8C-322.4,828.5-322.8,828.4-323.2,828.4z"/>
		<path fill="#1C5C85" d="M-317.8,837.1h-1.5l3-14h1.5L-317.8,837.1z"/>
		<path fill="#1C5C85" d="M-308.3,837.1l4.9-10.8h-6.5V824h9.4v1.7l-5,11.4H-308.3z"/>
		<path fill="#1C5C85" d="M-289.9,837.1h-9.2v-1.9l3.3-3.3c1-1,1.6-1.7,1.9-2.1c0.3-0.4,0.5-0.7,0.6-1.1c0.1-0.3,0.2-0.7,0.2-1
			c0-0.5-0.1-0.9-0.4-1.2c-0.3-0.3-0.7-0.4-1.2-0.4c-0.5,0-1,0.1-1.5,0.4c-0.5,0.2-1,0.6-1.5,1l-1.5-1.8c0.6-0.6,1.2-0.9,1.6-1.2
			c0.4-0.2,0.9-0.4,1.4-0.5c0.5-0.1,1.1-0.2,1.7-0.2c0.8,0,1.5,0.1,2.2,0.4c0.6,0.3,1.1,0.7,1.5,1.3c0.3,0.5,0.5,1.2,0.5,1.9
			c0,0.6-0.1,1.2-0.3,1.7c-0.2,0.5-0.5,1.1-1,1.6c-0.4,0.6-1.2,1.4-2.4,2.4l-1.7,1.6v0.1h5.7V837.1z"/>
		<path fill="#1C5C85" d="M-279.4,837.1h-9.2v-1.9l3.3-3.3c1-1,1.6-1.7,1.9-2.1c0.3-0.4,0.5-0.7,0.6-1.1c0.1-0.3,0.2-0.7,0.2-1
			c0-0.5-0.1-0.9-0.4-1.2c-0.3-0.3-0.7-0.4-1.2-0.4c-0.5,0-1,0.1-1.5,0.4c-0.5,0.2-1,0.6-1.5,1l-1.5-1.8c0.6-0.6,1.2-0.9,1.6-1.2
			c0.4-0.2,0.9-0.4,1.4-0.5c0.5-0.1,1.1-0.2,1.7-0.2c0.8,0,1.5,0.1,2.2,0.4c0.6,0.3,1.1,0.7,1.5,1.3c0.3,0.5,0.5,1.2,0.5,1.9
			c0,0.6-0.1,1.2-0.3,1.7c-0.2,0.5-0.5,1.1-1,1.6c-0.4,0.6-1.2,1.4-2.4,2.4l-1.7,1.6v0.1h5.7V837.1z"/>
	</g>
	<path fill="#EA9E24" d="M-380.7,825.2h13.5l-4.3,12.1H-385L-380.7,825.2z"/>
</g>
<g>
	<g>
		<path fill="#1C5C85" d="M-359.7,866.5l-1.5-11.7h-0.1c0,0.4-0.1,1-0.3,1.8c-0.1,0.8-0.2,1.4-0.3,1.8l-1.7,8.1h-1.5l2.8-13.1h2.2
			l1.3,10.8h0.1l5.9-10.8h2.4l-2.7,13.1h-1.6c0.8-3.5,1.3-6.3,1.7-8.1c0.4-1.9,0.7-3.1,0.8-3.5h-0.1l-6.4,11.7H-359.7z"/>
		<path fill="#1C5C85" d="M-344.6,856.6c1.1,0,2,0.3,2.7,1c0.7,0.7,1,1.6,1,2.8c0,1.1-0.2,2.2-0.6,3.2c-0.4,1-1,1.8-1.8,2.3
			c-0.7,0.5-1.6,0.8-2.5,0.8c-1.2,0-2.1-0.3-2.7-1s-1-1.6-1-2.8c0-1.1,0.2-2.2,0.7-3.2c0.4-1,1-1.8,1.8-2.3
			S-345.5,856.6-344.6,856.6z M-342.5,860.1c0-0.7-0.2-1.2-0.6-1.7c-0.4-0.4-0.9-0.6-1.5-0.6c-0.7,0-1.2,0.2-1.8,0.7
			c-0.5,0.4-0.9,1.1-1.2,1.8c-0.3,0.8-0.4,1.7-0.4,2.6c0,0.8,0.2,1.4,0.6,1.8s0.9,0.6,1.6,0.6c0.6,0,1.2-0.2,1.7-0.7
			s0.9-1.1,1.2-1.9C-342.6,862.1-342.5,861.2-342.5,860.1z"/>
		<path fill="#1C5C85" d="M-334.3,856.5c1.2,0,2,0.6,2.5,1.7h0.1c0.1-0.9,0.2-1.8,0.4-2.5l0.7-3.2h1.5l-3,14h-1.2l0.2-1.9h-0.1
			c-0.6,0.8-1.2,1.3-1.7,1.6c-0.5,0.3-1.1,0.5-1.6,0.5c-0.8,0-1.5-0.3-2-0.9c-0.5-0.6-0.7-1.4-0.7-2.4c0-1.3,0.2-2.5,0.6-3.5
			s1-1.9,1.7-2.5C-336.1,856.8-335.2,856.5-334.3,856.5z M-336,865.5c0.6,0,1.1-0.3,1.7-0.8c0.6-0.6,1.1-1.3,1.4-2.1
			s0.5-1.8,0.5-2.7c0-0.7-0.2-1.2-0.5-1.5c-0.3-0.3-0.8-0.5-1.4-0.5c-0.6,0-1.2,0.2-1.7,0.7c-0.5,0.5-0.9,1.2-1.2,2.1
			c-0.3,0.9-0.5,1.8-0.5,2.8C-337.6,864.8-337.1,865.5-336,865.5z"/>
		<path fill="#1C5C85" d="M-325,866.7c-1.1,0-2-0.3-2.6-1c-0.6-0.7-0.9-1.6-0.9-2.7c0-1.1,0.2-2.2,0.7-3.2c0.4-1,1-1.8,1.8-2.4
			c0.7-0.6,1.5-0.9,2.4-0.9c0.9,0,1.6,0.2,2.1,0.6s0.7,1,0.7,1.7c0,1.1-0.5,1.9-1.5,2.5c-1,0.6-2.4,0.9-4.3,0.9h-0.3l0,0.7
			c0,0.8,0.2,1.4,0.6,1.8c0.4,0.4,0.9,0.7,1.7,0.7c0.4,0,0.8-0.1,1.2-0.2c0.4-0.1,0.9-0.3,1.5-0.6v1.3c-0.6,0.3-1.1,0.4-1.5,0.6
			S-324.5,866.7-325,866.7z M-323.8,857.8c-0.6,0-1.2,0.3-1.7,0.8s-1,1.3-1.2,2.3h0.1c1.4,0,2.4-0.2,3.1-0.5s1.1-0.9,1.1-1.6
			c0-0.3-0.1-0.6-0.3-0.8C-323,857.9-323.3,857.8-323.8,857.8z"/>
		<path fill="#1C5C85" d="M-318.3,866.5h-1.5l3-14h1.5L-318.3,866.5z"/>
		<path fill="#1C5C85" d="M-308.9,866.5l4.9-10.8h-6.5v-2.3h9.4v1.7l-5,11.4H-308.9z"/>
		<path fill="#1C5C85" d="M-290.5,866.5h-9.2v-1.9l3.3-3.3c1-1,1.6-1.7,1.9-2.1c0.3-0.4,0.5-0.7,0.6-1.1c0.1-0.3,0.2-0.7,0.2-1
			c0-0.5-0.1-0.9-0.4-1.2c-0.3-0.3-0.7-0.4-1.2-0.4c-0.5,0-1,0.1-1.5,0.4c-0.5,0.2-1,0.6-1.5,1l-1.5-1.8c0.6-0.6,1.2-0.9,1.6-1.2
			c0.4-0.2,0.9-0.4,1.4-0.5c0.5-0.1,1.1-0.2,1.7-0.2c0.8,0,1.5,0.1,2.2,0.4c0.6,0.3,1.1,0.7,1.5,1.3c0.3,0.5,0.5,1.2,0.5,1.9
			c0,0.6-0.1,1.2-0.3,1.7c-0.2,0.5-0.5,1.1-1,1.6c-0.4,0.6-1.2,1.4-2.4,2.4l-1.7,1.6v0.1h5.7V866.5z"/>
		<path fill="#1C5C85" d="M-280.5,856.3c0,0.8-0.2,1.5-0.7,2.1c-0.5,0.6-1.2,1-2.1,1.2v0.1c1.1,0.1,1.9,0.5,2.4,1s0.8,1.2,0.8,2.1
			c0,1.3-0.5,2.2-1.4,3c-0.9,0.7-2.2,1.1-3.9,1.1c-1.4,0-2.7-0.2-3.8-0.7v-2.4c0.5,0.3,1.1,0.5,1.7,0.6c0.6,0.2,1.2,0.2,1.8,0.2
			c0.9,0,1.6-0.2,2-0.5s0.7-0.8,0.7-1.5c0-0.6-0.3-1.1-0.8-1.3c-0.5-0.3-1.3-0.4-2.4-0.4h-1v-2.1h1c1,0,1.8-0.1,2.2-0.4
			c0.5-0.3,0.7-0.7,0.7-1.4c0-1-0.6-1.5-1.9-1.5c-0.4,0-0.9,0.1-1.3,0.2c-0.4,0.1-0.9,0.4-1.5,0.7l-1.3-1.9c1.2-0.9,2.6-1.3,4.3-1.3
			c1.4,0,2.4,0.3,3.2,0.8S-280.5,855.3-280.5,856.3z"/>
	</g>
	<path fill="#1C5C85" d="M-380.5,854.6h13.5l-4.3,12.1h-13.5L-380.5,854.6z"/>
</g>
<g>
	<g>
		<path fill="#1C5C85" d="M-179,837.1l-1.5-11.7h-0.1c0,0.4-0.1,1-0.3,1.8c-0.1,0.8-0.2,1.4-0.3,1.8l-1.7,8.1h-1.5l2.8-13.1h2.2
			l1.3,10.8h0.1l5.9-10.8h2.4l-2.7,13.1h-1.6c0.8-3.5,1.3-6.3,1.7-8.1s0.7-3.1,0.8-3.5h-0.1l-6.4,11.7H-179z"/>
		<path fill="#1C5C85" d="M-163.9,827.1c1.1,0,2,0.3,2.7,1c0.7,0.7,1,1.6,1,2.8c0,1.1-0.2,2.2-0.6,3.2c-0.4,1-1,1.8-1.8,2.3
			c-0.7,0.5-1.6,0.8-2.5,0.8c-1.2,0-2.1-0.3-2.7-1c-0.7-0.7-1-1.6-1-2.8c0-1.1,0.2-2.2,0.7-3.2c0.4-1,1-1.8,1.8-2.3
			C-165.6,827.4-164.8,827.1-163.9,827.1z M-161.8,830.7c0-0.7-0.2-1.2-0.6-1.7s-0.9-0.6-1.5-0.6c-0.7,0-1.2,0.2-1.8,0.7
			c-0.5,0.4-0.9,1.1-1.2,1.8c-0.3,0.8-0.4,1.7-0.4,2.6c0,0.8,0.2,1.4,0.6,1.8s0.9,0.6,1.6,0.6c0.6,0,1.2-0.2,1.7-0.7
			s0.9-1.1,1.2-1.9C-161.9,832.7-161.8,831.8-161.8,830.7z"/>
		<path fill="#1C5C85" d="M-153.6,827.1c1.2,0,2,0.6,2.5,1.7h0.1c0.1-0.9,0.2-1.8,0.4-2.5l0.7-3.2h1.5l-3,14h-1.2l0.2-1.9h-0.1
			c-0.6,0.8-1.2,1.3-1.7,1.6c-0.5,0.3-1.1,0.5-1.6,0.5c-0.8,0-1.5-0.3-2-0.9c-0.5-0.6-0.7-1.4-0.7-2.4c0-1.3,0.2-2.5,0.6-3.5
			s1-1.9,1.7-2.5C-155.3,827.4-154.5,827.1-153.6,827.1z M-155.3,836.1c0.6,0,1.1-0.3,1.7-0.8c0.6-0.6,1.1-1.3,1.4-2.1
			c0.4-0.9,0.5-1.8,0.5-2.7c0-0.7-0.2-1.2-0.5-1.5s-0.8-0.5-1.4-0.5c-0.6,0-1.2,0.2-1.7,0.7c-0.5,0.5-0.9,1.2-1.2,2.1
			c-0.3,0.9-0.5,1.8-0.5,2.8C-156.9,835.4-156.4,836.1-155.3,836.1z"/>
		<path fill="#1C5C85" d="M-144.3,837.3c-1.1,0-2-0.3-2.6-1c-0.6-0.7-0.9-1.6-0.9-2.7c0-1.1,0.2-2.2,0.7-3.2s1-1.8,1.8-2.4
			c0.7-0.6,1.6-0.9,2.4-0.9c0.9,0,1.6,0.2,2.1,0.6c0.5,0.4,0.7,1,0.7,1.7c0,1.1-0.5,1.9-1.5,2.5c-1,0.6-2.4,0.9-4.3,0.9h-0.3l0,0.7
			c0,0.8,0.2,1.4,0.6,1.8s0.9,0.7,1.7,0.7c0.4,0,0.8-0.1,1.2-0.2c0.4-0.1,0.9-0.3,1.5-0.6v1.3c-0.6,0.3-1.1,0.4-1.5,0.6
			S-143.7,837.3-144.3,837.3z M-143,828.4c-0.6,0-1.2,0.3-1.7,0.8s-1,1.3-1.2,2.3h0.1c1.4,0,2.4-0.2,3.1-0.5s1.1-0.9,1.1-1.6
			c0-0.3-0.1-0.6-0.3-0.8C-142.2,828.5-142.6,828.4-143,828.4z"/>
		<path fill="#1C5C85" d="M-137.6,837.1h-1.5l3-14h1.5L-137.6,837.1z"/>
		<path fill="#1C5C85" d="M-128.1,837.1l4.9-10.8h-6.5V824h9.4v1.7l-5,11.4H-128.1z"/>
		<path fill="#1C5C85" d="M-109.7,837.1h-9.2v-1.9l3.3-3.3c1-1,1.6-1.7,1.9-2.1c0.3-0.4,0.5-0.7,0.6-1.1s0.2-0.7,0.2-1
			c0-0.5-0.1-0.9-0.4-1.2s-0.7-0.4-1.2-0.4c-0.5,0-1,0.1-1.5,0.4c-0.5,0.2-1,0.6-1.5,1l-1.5-1.8c0.6-0.6,1.2-0.9,1.6-1.2
			c0.4-0.2,0.9-0.4,1.4-0.5c0.5-0.1,1.1-0.2,1.7-0.2c0.8,0,1.5,0.1,2.2,0.4c0.6,0.3,1.1,0.7,1.5,1.3c0.3,0.5,0.5,1.2,0.5,1.9
			c0,0.6-0.1,1.2-0.3,1.7c-0.2,0.5-0.5,1.1-1,1.6s-1.2,1.4-2.4,2.4l-1.7,1.6v0.1h5.7V837.1z"/>
		<path fill="#1C5C85" d="M-98.9,834.4h-1.6v2.7h-2.7v-2.7h-5.6v-1.9l5.8-8.5h2.6v8.3h1.6V834.4z M-103.2,832.2V830
			c0-0.4,0-0.9,0-1.6c0-0.7,0.1-1.1,0.1-1.2h-0.1c-0.2,0.5-0.5,1-0.8,1.4l-2.4,3.6H-103.2z"/>
	</g>
	<path fill="#8DC63F" d="M-200.9,825.2h13.5l-4.3,12.1h-13.5L-200.9,825.2z"/>
</g>
<g>
	<g>
		<path fill="#1C5C85" d="M-179.2,866.5l-1.5-11.7h-0.1c0,0.4-0.1,1-0.3,1.8c-0.1,0.8-0.2,1.4-0.3,1.8l-1.7,8.1h-1.5l2.8-13.1h2.2
			l1.3,10.8h0.1l5.9-10.8h2.4l-2.7,13.1h-1.6c0.8-3.5,1.3-6.3,1.7-8.1c0.4-1.9,0.7-3.1,0.8-3.5h-0.1l-6.4,11.7H-179.2z"/>
		<path fill="#1C5C85" d="M-164,856.6c1.1,0,2,0.3,2.7,1c0.7,0.7,1,1.6,1,2.8c0,1.1-0.2,2.2-0.6,3.2c-0.4,1-1,1.8-1.8,2.3
			c-0.7,0.5-1.6,0.8-2.5,0.8c-1.2,0-2.1-0.3-2.7-1c-0.7-0.7-1-1.6-1-2.8c0-1.1,0.2-2.2,0.7-3.2c0.4-1,1-1.8,1.8-2.3
			C-165.8,856.8-165,856.6-164,856.6z M-161.9,860.1c0-0.7-0.2-1.2-0.6-1.7c-0.4-0.4-0.9-0.6-1.5-0.6c-0.7,0-1.2,0.2-1.8,0.7
			c-0.5,0.4-0.9,1.1-1.2,1.8c-0.3,0.8-0.4,1.7-0.4,2.6c0,0.8,0.2,1.4,0.6,1.8s0.9,0.6,1.6,0.6c0.6,0,1.2-0.2,1.7-0.7
			s0.9-1.1,1.2-1.9S-161.9,861.2-161.9,860.1z"/>
		<path fill="#1C5C85" d="M-153.8,856.5c1.2,0,2,0.6,2.5,1.7h0.1c0.1-0.9,0.2-1.8,0.4-2.5l0.7-3.2h1.5l-3,14h-1.2l0.2-1.9h-0.1
			c-0.6,0.8-1.2,1.3-1.7,1.6s-1.1,0.5-1.6,0.5c-0.8,0-1.5-0.3-2-0.9c-0.5-0.6-0.7-1.4-0.7-2.4c0-1.3,0.2-2.5,0.6-3.5s1-1.9,1.8-2.5
			C-155.5,856.8-154.7,856.5-153.8,856.5z M-155.5,865.5c0.6,0,1.1-0.3,1.7-0.8s1.1-1.3,1.4-2.1c0.3-0.9,0.5-1.8,0.5-2.7
			c0-0.7-0.2-1.2-0.5-1.5c-0.3-0.3-0.8-0.5-1.4-0.5c-0.6,0-1.2,0.2-1.7,0.7c-0.5,0.5-0.9,1.2-1.2,2.1c-0.3,0.9-0.5,1.8-0.5,2.8
			C-157.1,864.8-156.5,865.5-155.5,865.5z"/>
		<path fill="#1C5C85" d="M-144.4,866.7c-1.1,0-2-0.3-2.6-1c-0.6-0.7-0.9-1.6-0.9-2.7c0-1.1,0.2-2.2,0.7-3.2c0.4-1,1-1.8,1.8-2.4
			c0.7-0.6,1.5-0.9,2.4-0.9c0.9,0,1.6,0.2,2.1,0.6c0.5,0.4,0.7,1,0.7,1.7c0,1.1-0.5,1.9-1.5,2.5s-2.4,0.9-4.3,0.9h-0.3l0,0.7
			c0,0.8,0.2,1.4,0.6,1.8c0.4,0.4,0.9,0.7,1.7,0.7c0.4,0,0.8-0.1,1.2-0.2c0.4-0.1,0.9-0.3,1.5-0.6v1.3c-0.6,0.3-1.1,0.4-1.5,0.6
			S-143.9,866.7-144.4,866.7z M-143.2,857.8c-0.6,0-1.2,0.3-1.7,0.8s-1,1.3-1.2,2.3h0.1c1.4,0,2.4-0.2,3.1-0.5s1.1-0.9,1.1-1.6
			c0-0.3-0.1-0.6-0.3-0.8S-142.7,857.8-143.2,857.8z"/>
		<path fill="#1C5C85" d="M-137.8,866.5h-1.5l3-14h1.5L-137.8,866.5z"/>
		<path fill="#1C5C85" d="M-128.3,866.5l4.9-10.8h-6.5v-2.3h9.4v1.7l-5,11.4H-128.3z"/>
		<path fill="#1C5C85" d="M-109.9,866.5h-9.2v-1.9l3.3-3.3c1-1,1.6-1.7,1.9-2.1c0.3-0.4,0.5-0.7,0.6-1.1c0.1-0.3,0.2-0.7,0.2-1
			c0-0.5-0.1-0.9-0.4-1.2c-0.3-0.3-0.7-0.4-1.2-0.4c-0.5,0-1,0.1-1.5,0.4c-0.5,0.2-1,0.6-1.5,1l-1.5-1.8c0.6-0.6,1.2-0.9,1.6-1.2
			c0.4-0.2,0.9-0.4,1.4-0.5c0.5-0.1,1.1-0.2,1.7-0.2c0.8,0,1.5,0.1,2.2,0.4s1.1,0.7,1.5,1.3c0.3,0.5,0.5,1.2,0.5,1.9
			c0,0.6-0.1,1.2-0.3,1.7c-0.2,0.5-0.5,1.1-1,1.6c-0.4,0.6-1.2,1.4-2.4,2.4l-1.7,1.6v0.1h5.7V866.5z"/>
		<path fill="#1C5C85" d="M-103.8,858.1c1.3,0,2.3,0.4,3,1.1c0.8,0.7,1.1,1.7,1.1,2.9c0,1.5-0.5,2.6-1.4,3.4
			c-0.9,0.8-2.2,1.2-3.9,1.2c-1.5,0-2.6-0.2-3.5-0.7v-2.4c0.5,0.3,1,0.5,1.7,0.6c0.6,0.2,1.2,0.2,1.8,0.2c1.7,0,2.5-0.7,2.5-2.1
			c0-1.3-0.9-2-2.6-2c-0.3,0-0.7,0-1.1,0.1c-0.4,0.1-0.7,0.1-0.9,0.2l-1.1-0.6l0.5-6.7h7.1v2.4h-4.7l-0.2,2.6l0.3-0.1
			C-104.8,858.2-104.3,858.1-103.8,858.1z"/>
	</g>
	<path fill="#4F9B1E" d="M-200.4,854.6h13.5l-4.4,12.1h-13.5L-200.4,854.6z"/>
</g>
<g>
	<g>
		<path fill="#1C5C85" d="M0.5,837.1L-1,825.5h-0.1c0,0.4-0.1,1-0.3,1.8c-0.1,0.8-0.2,1.4-0.3,1.8l-1.7,8.1h-1.5L-2,824h2.2
			l1.3,10.8h0.1L7.5,824h2.4l-2.7,13.1H5.6c0.8-3.5,1.3-6.3,1.7-8.1c0.4-1.9,0.7-3.1,0.8-3.5H8.1l-6.4,11.7H0.5z"/>
		<path fill="#1C5C85" d="M15.6,827.1c1.1,0,2,0.3,2.7,1c0.7,0.7,1,1.6,1,2.8c0,1.1-0.2,2.2-0.6,3.2c-0.4,1-1,1.8-1.8,2.3
			c-0.7,0.5-1.6,0.8-2.5,0.8c-1.2,0-2.1-0.3-2.7-1s-1-1.6-1-2.8c0-1.1,0.2-2.2,0.7-3.2c0.4-1,1-1.8,1.8-2.3S14.7,827.1,15.6,827.1z
			 M17.7,830.7c0-0.7-0.2-1.2-0.6-1.7c-0.4-0.4-0.9-0.6-1.5-0.6c-0.7,0-1.2,0.2-1.8,0.7c-0.5,0.4-0.9,1.1-1.2,1.8
			c-0.3,0.8-0.4,1.7-0.4,2.6c0,0.8,0.2,1.4,0.6,1.8s0.9,0.6,1.6,0.6c0.6,0,1.2-0.2,1.7-0.7s0.9-1.1,1.2-1.9
			C17.6,832.7,17.7,831.8,17.7,830.7z"/>
		<path fill="#1C5C85" d="M25.9,827.1c1.2,0,2,0.6,2.5,1.7h0.1c0.1-0.9,0.2-1.8,0.4-2.5l0.7-3.2h1.5l-3,14h-1.2l0.2-1.9H27
			c-0.6,0.8-1.2,1.3-1.7,1.6c-0.5,0.3-1.1,0.5-1.6,0.5c-0.8,0-1.5-0.3-2-0.9c-0.5-0.6-0.7-1.4-0.7-2.4c0-1.3,0.2-2.5,0.6-3.5
			s1-1.9,1.7-2.5C24.2,827.4,25,827.1,25.9,827.1z M24.2,836.1c0.6,0,1.1-0.3,1.7-0.8c0.6-0.6,1.1-1.3,1.4-2.1s0.5-1.8,0.5-2.7
			c0-0.7-0.2-1.2-0.5-1.5c-0.3-0.3-0.8-0.5-1.4-0.5c-0.6,0-1.2,0.2-1.7,0.7c-0.5,0.5-0.9,1.2-1.2,2.1c-0.3,0.9-0.5,1.8-0.5,2.8
			C22.6,835.4,23.1,836.1,24.2,836.1z"/>
		<path fill="#1C5C85" d="M35.2,837.3c-1.1,0-2-0.3-2.6-1c-0.6-0.7-0.9-1.6-0.9-2.7c0-1.1,0.2-2.2,0.7-3.2c0.4-1,1-1.8,1.8-2.4
			c0.7-0.6,1.5-0.9,2.4-0.9c0.9,0,1.6,0.2,2.1,0.6s0.7,1,0.7,1.7c0,1.1-0.5,1.9-1.5,2.5c-1,0.6-2.4,0.9-4.3,0.9h-0.3l0,0.7
			c0,0.8,0.2,1.4,0.6,1.8c0.4,0.4,0.9,0.7,1.7,0.7c0.4,0,0.8-0.1,1.2-0.2c0.4-0.1,0.9-0.3,1.5-0.6v1.3c-0.6,0.3-1.1,0.4-1.5,0.6
			S35.7,837.3,35.2,837.3z M36.5,828.4c-0.6,0-1.2,0.3-1.7,0.8s-1,1.3-1.2,2.3h0.1c1.4,0,2.4-0.2,3.1-0.5s1.1-0.9,1.1-1.6
			c0-0.3-0.1-0.6-0.3-0.8C37.3,828.5,36.9,828.4,36.5,828.4z"/>
		<path fill="#1C5C85" d="M41.9,837.1h-1.5l3-14h1.5L41.9,837.1z"/>
		<path fill="#1C5C85" d="M51.4,837.1l4.9-10.8h-6.5V824h9.4v1.7l-5,11.4H51.4z"/>
		<path fill="#1C5C85" d="M69.8,837.1h-9.2v-1.9l3.3-3.3c1-1,1.6-1.7,1.9-2.1c0.3-0.4,0.5-0.7,0.6-1.1c0.1-0.3,0.2-0.7,0.2-1
			c0-0.5-0.1-0.9-0.4-1.2c-0.3-0.3-0.7-0.4-1.2-0.4c-0.5,0-1,0.1-1.5,0.4c-0.5,0.2-1,0.6-1.5,1l-1.5-1.8c0.6-0.6,1.2-0.9,1.6-1.2
			c0.4-0.2,0.9-0.4,1.4-0.5c0.5-0.1,1.1-0.2,1.7-0.2c0.8,0,1.5,0.1,2.2,0.4c0.6,0.3,1.1,0.7,1.5,1.3c0.3,0.5,0.5,1.2,0.5,1.9
			c0,0.6-0.1,1.2-0.3,1.7c-0.2,0.5-0.5,1.1-1,1.6c-0.4,0.6-1.2,1.4-2.4,2.4l-1.7,1.6v0.1h5.7V837.1z"/>
		<path fill="#1C5C85" d="M71,831.5c0-2.6,0.5-4.5,1.7-5.8s2.7-1.9,4.9-1.9c0.8,0,1.3,0,1.8,0.1v2.2c-0.5-0.1-1.1-0.2-1.6-0.2
			c-1,0-1.7,0.1-2.3,0.4s-1.1,0.7-1.4,1.3s-0.5,1.4-0.5,2.4h0.1c0.6-1,1.5-1.5,2.9-1.5c1.2,0,2.1,0.4,2.8,1.1c0.7,0.7,1,1.8,1,3.1
			c0,1.4-0.4,2.5-1.2,3.3c-0.8,0.8-1.9,1.2-3.3,1.2c-1,0-1.8-0.2-2.5-0.7c-0.7-0.4-1.3-1.1-1.7-2S71,832.8,71,831.5z M75.8,835.1
			c0.6,0,1-0.2,1.4-0.6c0.3-0.4,0.5-1,0.5-1.7c0-0.6-0.1-1.1-0.4-1.5c-0.3-0.4-0.7-0.6-1.3-0.6c-0.6,0-1,0.2-1.4,0.5
			c-0.4,0.4-0.6,0.8-0.6,1.3c0,0.7,0.2,1.3,0.6,1.8C74.7,834.8,75.2,835.1,75.8,835.1z"/>
	</g>
	<path fill="#543D78" d="M-20.5,825.2H-7l-4.3,12.1h-13.5L-20.5,825.2z"/>
</g>
<g>
	<g>
		<path fill="#1C5C85" d="M1.6,866.5l-1.5-11.7H0c0,0.4-0.1,1-0.3,1.8c-0.1,0.8-0.2,1.4-0.3,1.8l-1.7,8.1h-1.5l2.8-13.1h2.2
			l1.3,10.8h0.1l5.9-10.8H11l-2.7,13.1H6.7c0.8-3.5,1.3-6.3,1.7-8.1c0.4-1.9,0.7-3.1,0.8-3.5H9.2l-6.4,11.7H1.6z"/>
		<path fill="#1C5C85" d="M16.7,856.6c1.1,0,2,0.3,2.7,1c0.7,0.7,1,1.6,1,2.8c0,1.1-0.2,2.2-0.6,3.2c-0.4,1-1,1.8-1.8,2.3
			c-0.7,0.5-1.6,0.8-2.5,0.8c-1.2,0-2.1-0.3-2.7-1s-1-1.6-1-2.8c0-1.1,0.2-2.2,0.7-3.2c0.4-1,1-1.8,1.8-2.3S15.8,856.6,16.7,856.6z
			 M18.8,860.1c0-0.7-0.2-1.2-0.6-1.7c-0.4-0.4-0.9-0.6-1.5-0.6c-0.7,0-1.2,0.2-1.8,0.7c-0.5,0.4-0.9,1.1-1.2,1.8
			c-0.3,0.8-0.4,1.7-0.4,2.6c0,0.8,0.2,1.4,0.6,1.8s0.9,0.6,1.6,0.6c0.6,0,1.2-0.2,1.7-0.7s0.9-1.1,1.2-1.9
			C18.7,862.1,18.8,861.2,18.8,860.1z"/>
		<path fill="#1C5C85" d="M27,856.5c1.2,0,2,0.6,2.5,1.7h0.1c0.1-0.9,0.2-1.8,0.4-2.5l0.7-3.2h1.5l-3,14H28l0.2-1.9h-0.1
			c-0.6,0.8-1.2,1.3-1.7,1.6c-0.5,0.3-1.1,0.5-1.6,0.5c-0.8,0-1.5-0.3-2-0.9c-0.5-0.6-0.7-1.4-0.7-2.4c0-1.3,0.2-2.5,0.6-3.5
			s1-1.9,1.7-2.5C25.3,856.8,26.1,856.5,27,856.5z M25.3,865.5c0.6,0,1.1-0.3,1.7-0.8c0.6-0.6,1.1-1.3,1.4-2.1s0.5-1.8,0.5-2.7
			c0-0.7-0.2-1.2-0.5-1.5c-0.3-0.3-0.8-0.5-1.4-0.5c-0.6,0-1.2,0.2-1.7,0.7c-0.5,0.5-0.9,1.2-1.2,2.1c-0.3,0.9-0.5,1.8-0.5,2.8
			C23.7,864.8,24.2,865.5,25.3,865.5z"/>
		<path fill="#1C5C85" d="M36.3,866.7c-1.1,0-2-0.3-2.6-1c-0.6-0.7-0.9-1.6-0.9-2.7c0-1.1,0.2-2.2,0.7-3.2c0.4-1,1-1.8,1.8-2.4
			c0.7-0.6,1.5-0.9,2.4-0.9c0.9,0,1.6,0.2,2.1,0.6s0.7,1,0.7,1.7c0,1.1-0.5,1.9-1.5,2.5c-1,0.6-2.4,0.9-4.3,0.9h-0.3l0,0.7
			c0,0.8,0.2,1.4,0.6,1.8c0.4,0.4,0.9,0.7,1.7,0.7c0.4,0,0.8-0.1,1.2-0.2c0.4-0.1,0.9-0.3,1.5-0.6v1.3c-0.6,0.3-1.1,0.4-1.5,0.6
			S36.8,866.7,36.3,866.7z M37.6,857.8c-0.6,0-1.2,0.3-1.7,0.8s-1,1.3-1.2,2.3h0.1c1.4,0,2.4-0.2,3.1-0.5s1.1-0.9,1.1-1.6
			c0-0.3-0.1-0.6-0.3-0.8C38.4,857.9,38,857.8,37.6,857.8z"/>
		<path fill="#1C5C85" d="M43,866.5h-1.5l3-14H46L43,866.5z"/>
		<path fill="#1C5C85" d="M52.5,866.5l4.9-10.8h-6.5v-2.3h9.4v1.7l-5,11.4H52.5z"/>
		<path fill="#1C5C85" d="M70.9,866.5h-9.2v-1.9l3.3-3.3c1-1,1.6-1.7,1.9-2.1c0.3-0.4,0.5-0.7,0.6-1.1c0.1-0.3,0.2-0.7,0.2-1
			c0-0.5-0.1-0.9-0.4-1.2c-0.3-0.3-0.7-0.4-1.2-0.4c-0.5,0-1,0.1-1.5,0.4c-0.5,0.2-1,0.6-1.5,1l-1.5-1.8c0.6-0.6,1.2-0.9,1.6-1.2
			c0.4-0.2,0.9-0.4,1.4-0.5c0.5-0.1,1.1-0.2,1.7-0.2c0.8,0,1.5,0.1,2.2,0.4c0.6,0.3,1.1,0.7,1.5,1.3c0.3,0.5,0.5,1.2,0.5,1.9
			c0,0.6-0.1,1.2-0.3,1.7c-0.2,0.5-0.5,1.1-1,1.6c-0.4,0.6-1.2,1.4-2.4,2.4l-1.7,1.6v0.1h5.7V866.5z"/>
		<path fill="#1C5C85" d="M73.5,866.5l4.9-10.8H72v-2.3h9.4v1.7l-5,11.4H73.5z"/>
	</g>
	<path fill="#86B8E0" d="M-20.5,854.6H-7l-4.3,12.1h-13.5L-20.5,854.6z"/>
</g>
<rect x="-574.7" y="268" fill="none" width="665.2" height="466.2"/>
<g>
	<path fill="#1C5C85" d="M-623.9,574.6c1.3,0,2.4,0.4,3.1,1.3s1.1,2.1,1.1,3.8v1.3h4.8v2.1h-12.8v-3.7c0-1.6,0.3-2.8,1-3.6
		C-626.2,575-625.2,574.6-623.9,574.6z M-621.6,581v-1.1c0-1.1-0.2-1.9-0.6-2.4s-1-0.8-1.8-0.8c-0.7,0-1.3,0.2-1.7,0.7
		s-0.5,1.2-0.5,2.1v1.5H-621.6z"/>
	<path fill="#1C5C85" d="M-624.9,567.3c0-0.4,0-0.8,0.1-1l1.9,0.2c-0.1,0.3-0.1,0.6-0.1,0.9c0,0.8,0.3,1.5,0.8,2
		c0.5,0.5,1.2,0.8,2.1,0.8h5.1v2.1h-9.7v-1.6l1.7-0.3v-0.1c-0.6-0.3-1-0.7-1.4-1.3C-624.7,568.5-624.9,567.9-624.9,567.3z"/>
	<path fill="#1C5C85" d="M-614.8,560.2c0,1.5-0.4,2.7-1.3,3.5c-0.9,0.9-2.1,1.3-3.6,1.3c-1.6,0-2.8-0.4-3.7-1.2s-1.4-1.9-1.4-3.3
		c0-1.3,0.4-2.3,1.2-3s1.9-1.1,3.2-1.1h1.1v6.5c0.9,0,1.7-0.3,2.2-0.8s0.8-1.2,0.8-2c0-0.6-0.1-1.1-0.2-1.6c-0.1-0.5-0.3-1-0.5-1.6
		h1.7c0.2,0.5,0.4,1,0.5,1.5S-614.8,559.6-614.8,560.2z M-623.3,560.6c0,0.7,0.2,1.2,0.6,1.6c0.4,0.4,1,0.6,1.8,0.7v-4.4
		c-0.8,0-1.4,0.2-1.8,0.6S-623.3,559.9-623.3,560.6z"/>
	<path fill="#1C5C85" d="M-617.7,547.6c0.9,0,1.7,0.3,2.2,1s0.8,1.7,0.8,3c0,1.3-0.2,2.3-0.6,3.1h-1.8c0.5-1.1,0.8-2.2,0.8-3.2
		c0-1.3-0.4-1.9-1.2-1.9c-0.2,0-0.5,0.1-0.6,0.2s-0.3,0.4-0.5,0.7s-0.4,0.8-0.6,1.3c-0.4,1.1-0.9,1.9-1.3,2.3
		c-0.4,0.4-1,0.6-1.7,0.6c-0.8,0-1.5-0.3-1.9-1c-0.5-0.7-0.7-1.6-0.7-2.7c0-1.1,0.2-2.2,0.7-3.2l1.6,0.7c-0.4,1-0.7,1.9-0.7,2.6
		c0,1.1,0.3,1.6,0.9,1.6c0.3,0,0.6-0.1,0.8-0.4c0.2-0.3,0.5-0.9,0.9-1.9c0.3-0.8,0.6-1.4,0.9-1.7s0.6-0.6,0.9-0.8
		S-618.2,547.6-617.7,547.6z"/>
	<path fill="#1C5C85" d="M-617.7,538.8c0.9,0,1.7,0.3,2.2,1s0.8,1.7,0.8,3c0,1.3-0.2,2.3-0.6,3.1h-1.8c0.5-1.1,0.8-2.2,0.8-3.2
		c0-1.3-0.4-1.9-1.2-1.9c-0.2,0-0.5,0.1-0.6,0.2s-0.3,0.4-0.5,0.7s-0.4,0.8-0.6,1.3c-0.4,1.1-0.9,1.9-1.3,2.3
		c-0.4,0.4-1,0.6-1.7,0.6c-0.8,0-1.5-0.3-1.9-1c-0.5-0.7-0.7-1.6-0.7-2.7c0-1.1,0.2-2.2,0.7-3.2l1.6,0.7c-0.4,1-0.7,1.9-0.7,2.6
		c0,1.1,0.3,1.6,0.9,1.6c0.3,0,0.6-0.1,0.8-0.4c0.2-0.3,0.5-0.9,0.9-1.9c0.3-0.8,0.6-1.4,0.9-1.7s0.6-0.6,0.9-0.8
		S-618.2,538.8-617.7,538.8z"/>
	<path fill="#1C5C85" d="M-615,529.7l-1.3,0.3v0.1c0.5,0.3,0.8,0.7,1.1,1.2c0.3,0.5,0.4,1.1,0.4,1.8c0,1.2-0.3,2.1-0.9,2.6
		s-1.5,0.9-2.7,0.9h-6.4v-2.1h6c0.7,0,1.3-0.2,1.7-0.5s0.6-0.8,0.6-1.4c0-0.9-0.3-1.5-0.8-1.9c-0.5-0.4-1.4-0.6-2.6-0.6h-4.8v-2.1
		h9.7V529.7z"/>
	<path fill="#1C5C85" d="M-624.9,520.2c0-0.4,0-0.8,0.1-1l1.9,0.2c-0.1,0.3-0.1,0.6-0.1,0.9c0,0.8,0.3,1.5,0.8,2s1.2,0.8,2.1,0.8
		h5.1v2.1h-9.7v-1.6l1.7-0.3v-0.1c-0.6-0.3-1-0.7-1.4-1.3C-624.7,521.4-624.9,520.8-624.9,520.2z"/>
	<path fill="#1C5C85" d="M-614.8,513.1c0,1.5-0.4,2.7-1.3,3.5c-0.9,0.9-2.1,1.3-3.6,1.3c-1.6,0-2.8-0.4-3.7-1.2s-1.4-1.9-1.4-3.3
		c0-1.3,0.4-2.3,1.2-3s1.9-1.1,3.2-1.1h1.1v6.5c0.9,0,1.7-0.3,2.2-0.8s0.8-1.2,0.8-2c0-0.6-0.1-1.1-0.2-1.6s-0.3-1-0.5-1.6h1.7
		c0.2,0.5,0.4,1,0.5,1.5S-614.8,512.5-614.8,513.1z M-623.3,513.5c0,0.7,0.2,1.2,0.6,1.6c0.4,0.4,1,0.6,1.8,0.7v-4.4
		c-0.8,0-1.4,0.2-1.8,0.6S-623.3,512.9-623.3,513.5z"/>
	<path fill="#1C5C85" d="M-621.5,491.7c2.1,0,3.7,0.6,4.9,1.8s1.7,2.9,1.7,5.1v3.6h-12.8v-4c0-2,0.6-3.6,1.7-4.8
		S-623.5,491.7-621.5,491.7z M-621.5,493.9c-3.1,0-4.6,1.4-4.6,4.3v1.8h9.3v-1.5C-616.7,495.4-618.3,493.9-621.5,493.9z"/>
	<path fill="#1C5C85" d="M-624.9,484.2c0-0.4,0-0.8,0.1-1l1.9,0.2c-0.1,0.3-0.1,0.6-0.1,0.9c0,0.8,0.3,1.5,0.8,2s1.2,0.8,2.1,0.8
		h5.1v2.1h-9.7v-1.6l1.7-0.3v-0.1c-0.6-0.3-1-0.7-1.4-1.3C-624.7,485.4-624.9,484.8-624.9,484.2z"/>
	<path fill="#1C5C85" d="M-619.9,472.7c1.6,0,2.8,0.4,3.7,1.2s1.3,1.9,1.3,3.4c0,0.9-0.2,1.7-0.6,2.4s-1,1.2-1.8,1.6
		s-1.7,0.6-2.7,0.6c-1.6,0-2.8-0.4-3.7-1.2s-1.3-1.9-1.3-3.4c0-1.4,0.5-2.5,1.4-3.3S-621.4,472.7-619.9,472.7z M-619.9,479.8
		c2.2,0,3.4-0.8,3.4-2.5c0-1.6-1.1-2.5-3.4-2.5c-2.2,0-3.3,0.8-3.3,2.5c0,0.9,0.3,1.5,0.9,1.9S-620.9,479.8-619.9,479.8z"/>
	<path fill="#1C5C85" d="M-614.8,465.4c0,1.2-0.4,2.2-1.3,2.9v0.1c0.8-0.1,1.3-0.1,1.5-0.1h4v2.1h-14v-1.7c0.2,0,0.6-0.1,1.3-0.3
		v-0.1c-1-0.6-1.5-1.6-1.5-2.9c0-1.2,0.4-2.2,1.3-2.8c0.9-0.7,2.1-1,3.7-1s2.8,0.3,3.7,1C-615.2,463.3-614.8,464.2-614.8,465.4z
		 M-623.2,465.9c0,0.8,0.2,1.4,0.7,1.8c0.5,0.4,1.2,0.6,2.3,0.6h0.3c1.2,0,2-0.2,2.6-0.6s0.8-1,0.8-1.8c0-0.7-0.3-1.3-0.9-1.7
		s-1.4-0.6-2.5-0.6c-1.1,0-1.9,0.2-2.5,0.6S-623.2,465.2-623.2,465.9z"/>
	<path fill="#1C5C85" d="M-619.9,455.2c-1.6,0-3-0.2-4.4-0.7c-1.4-0.5-2.5-1.1-3.6-2v-1.8c1.1,0.8,2.3,1.4,3.7,1.9s2.8,0.7,4.2,0.7
		s2.8-0.2,4.2-0.7s2.6-1.1,3.6-1.9v1.8c-1,0.9-2.2,1.5-3.5,2S-618.4,455.2-619.9,455.2z"/>
	<path fill="#1C5C85" d="M-623.9,440.1c1.3,0,2.4,0.4,3.1,1.3s1.1,2.1,1.1,3.8v1.3h4.8v2.1h-12.8v-3.7c0-1.6,0.3-2.8,1-3.6
		C-626.2,440.5-625.2,440.1-623.9,440.1z M-621.6,446.5v-1.1c0-1.1-0.2-1.9-0.6-2.4s-1-0.8-1.8-0.8c-0.7,0-1.3,0.2-1.7,0.7
		s-0.5,1.2-0.5,2.1v1.5H-621.6z"/>
	<path fill="#1C5C85" d="M-618.5,430.1c1.1,0,2,0.4,2.7,1.2s1,2,1,3.4s-0.2,2.6-0.7,3.6h-2c0.3-0.6,0.5-1.2,0.7-1.9
		c0.2-0.7,0.2-1.3,0.2-1.8c0-0.8-0.2-1.4-0.5-1.8c-0.3-0.4-0.7-0.6-1.3-0.6c-0.5,0-0.9,0.2-1.2,0.5s-0.7,1.1-1.2,2.2
		c-0.5,1.2-1,2-1.6,2.5s-1.3,0.7-2.2,0.7c-1.1,0-1.9-0.4-2.5-1.1s-0.9-1.8-0.9-3.1c0-1.2,0.3-2.5,0.8-3.7l1.7,0.7
		c-0.5,1.1-0.7,2.2-0.7,3.1c0,0.7,0.1,1.2,0.4,1.5s0.7,0.5,1.2,0.5c0.3,0,0.6-0.1,0.9-0.2s0.5-0.4,0.7-0.7s0.5-0.9,0.8-1.7
		c0.4-0.9,0.8-1.6,1.1-2.1s0.7-0.8,1.2-1S-619,430.1-618.5,430.1z"/>
	<path fill="#1C5C85" d="M-615,427.6h-12.8v-2.1h12.8V427.6z"/>
	<path fill="#1C5C85" d="M-619.9,418.8c1.5,0,3,0.2,4.3,0.7c1.3,0.5,2.5,1.1,3.5,2v1.8c-1.1-0.8-2.3-1.4-3.6-1.9
		c-1.3-0.4-2.7-0.6-4.1-0.6c-1.4,0-2.8,0.2-4.2,0.7s-2.6,1.1-3.7,1.9v-1.8c1-0.9,2.2-1.5,3.6-2S-621.5,418.8-619.9,418.8z"/>
</g>
<g>
	<path fill="#595959" d="M-585,730.9c0,2.2-0.4,3.9-1.1,5s-1.8,1.6-3.2,1.6c-1.4,0-2.4-0.6-3.2-1.7c-0.7-1.1-1.1-2.8-1.1-4.9
		c0-2.2,0.3-3.9,1-5s1.8-1.6,3.2-1.6c1.4,0,2.5,0.6,3.2,1.7S-585,728.7-585,730.9z M-592,730.9c0,1.9,0.2,3.2,0.7,4.1
		c0.4,0.9,1.1,1.3,2.1,1.3c1,0,1.7-0.4,2.1-1.3s0.7-2.2,0.7-4.1s-0.2-3.2-0.7-4.1s-1.1-1.3-2.1-1.3c-1,0-1.7,0.4-2.1,1.3
		S-592,729-592,730.9z"/>
</g>
<g>
	<path fill="#595959" d="M-585,685.8h-8.4v-1.3l3.4-3.4c1-1,1.7-1.8,2-2.2s0.6-0.9,0.7-1.3s0.2-0.9,0.2-1.4c0-0.7-0.2-1.2-0.6-1.6
		s-1-0.6-1.7-0.6c-0.5,0-1,0.1-1.5,0.3s-1,0.5-1.6,1l-0.8-1c1.2-1,2.5-1.5,3.9-1.5c1.2,0,2.2,0.3,2.8,0.9c0.7,0.6,1,1.4,1,2.5
		c0,0.8-0.2,1.6-0.7,2.4s-1.3,1.8-2.6,3l-2.8,2.8v0.1h6.6V685.8z"/>
</g>
<g>
	<path fill="#595959" d="M-584.4,631.4h-1.9v3h-1.4v-3h-6.2v-1.3l6.1-8.7h1.5v8.6h1.9V631.4z M-587.7,630v-4.3c0-0.8,0-1.8,0.1-2.8
		h-0.1c-0.3,0.6-0.5,1-0.8,1.4l-4,5.7H-587.7z"/>
</g>
<g>
	<path fill="#595959" d="M-593.3,577.3c0-2.5,0.5-4.4,1.5-5.7c1-1.2,2.4-1.9,4.4-1.9c0.7,0,1.2,0.1,1.6,0.2v1.3
		c-0.5-0.1-1-0.2-1.5-0.2c-1.4,0-2.4,0.4-3.2,1.3c-0.7,0.9-1.1,2.2-1.2,4h0.1c0.6-1,1.7-1.5,3.1-1.5c1.2,0,2.1,0.3,2.7,1
		s1,1.6,1,2.8c0,1.3-0.4,2.4-1.1,3.2c-0.7,0.8-1.7,1.1-3,1.1c-1.3,0-2.4-0.5-3.2-1.5S-593.3,579.1-593.3,577.3z M-589,581.8
		c0.8,0,1.5-0.3,1.9-0.8s0.7-1.3,0.7-2.3c0-0.8-0.2-1.5-0.6-2s-1.1-0.7-1.9-0.7c-0.5,0-1,0.1-1.5,0.3s-0.8,0.5-1.1,0.9
		s-0.4,0.8-0.4,1.2c0,0.6,0.1,1.2,0.4,1.7s0.6,0.9,1,1.2S-589.6,581.8-589,581.8z"/>
</g>
<g>
	<path fill="#595959" d="M-589.2,518.3c1.2,0,2.1,0.3,2.8,0.8s1,1.3,1,2.3c0,0.6-0.2,1.2-0.6,1.7s-1,1-1.9,1.4c1,0.5,1.8,1,2.2,1.6
		c0.4,0.5,0.7,1.2,0.7,1.9c0,1.1-0.4,1.9-1.1,2.6s-1.8,1-3.1,1c-1.4,0-2.4-0.3-3.2-0.9s-1.1-1.5-1.1-2.6c0-1.5,0.9-2.6,2.7-3.4
		c-0.8-0.5-1.4-1-1.7-1.5s-0.5-1.1-0.5-1.8c0-0.9,0.3-1.7,1-2.2C-591.3,518.6-590.4,518.3-589.2,518.3z M-592,528.1
		c0,0.7,0.2,1.3,0.7,1.6s1.2,0.6,2.1,0.6c0.9,0,1.6-0.2,2-0.6s0.7-1,0.7-1.7c0-0.6-0.2-1.1-0.7-1.5c-0.5-0.4-1.3-0.9-2.4-1.3
		c-0.9,0.4-1.5,0.8-1.9,1.2S-592,527.5-592,528.1z M-589.2,519.5c-0.7,0-1.3,0.2-1.7,0.5s-0.6,0.8-0.6,1.4c0,0.5,0.2,1,0.5,1.4
		s1,0.8,1.9,1.2c0.8-0.4,1.4-0.7,1.8-1.1s0.5-0.9,0.5-1.4c0-0.6-0.2-1.1-0.6-1.4S-588.5,519.5-589.2,519.5z"/>
</g>
<g>
	<path fill="#595959" d="M-598.4,479.9h-1.4v-9.2c0-0.8,0-1.5,0.1-2.2c-0.1,0.1-0.3,0.3-0.4,0.4s-0.8,0.7-2.1,1.7l-0.8-1l3.4-2.6
		h1.2V479.9z"/>
	<path fill="#595959" d="M-585,473.4c0,2.2-0.4,3.9-1.1,5s-1.8,1.6-3.2,1.6c-1.4,0-2.4-0.6-3.2-1.7c-0.7-1.1-1.1-2.8-1.1-4.9
		c0-2.2,0.3-3.9,1-5s1.8-1.6,3.2-1.6c1.4,0,2.5,0.6,3.2,1.7S-585,471.3-585,473.4z M-592,473.4c0,1.9,0.2,3.2,0.7,4.1
		c0.4,0.9,1.1,1.3,2.1,1.3c1,0,1.7-0.4,2.1-1.3s0.7-2.2,0.7-4.1s-0.2-3.2-0.7-4.1s-1.1-1.3-2.1-1.3c-1,0-1.7,0.4-2.1,1.3
		S-592,471.6-592,473.4z"/>
</g>
<g>
	<path fill="#595959" d="M-598.4,428.4h-1.4v-9.2c0-0.8,0-1.5,0.1-2.2c-0.1,0.1-0.3,0.3-0.4,0.4s-0.8,0.7-2.1,1.7l-0.8-1l3.4-2.6
		h1.2V428.4z"/>
	<path fill="#595959" d="M-585,428.4h-8.4v-1.3l3.4-3.4c1-1,1.7-1.8,2-2.2s0.6-0.9,0.7-1.3s0.2-0.9,0.2-1.4c0-0.7-0.2-1.2-0.6-1.6
		s-1-0.6-1.7-0.6c-0.5,0-1,0.1-1.5,0.3s-1,0.5-1.6,1l-0.8-1c1.2-1,2.5-1.5,3.9-1.5c1.2,0,2.2,0.3,2.8,0.9c0.7,0.6,1,1.4,1,2.5
		c0,0.8-0.2,1.6-0.7,2.4s-1.3,1.8-2.6,3l-2.8,2.8v0.1h6.6V428.4z"/>
</g>
<g>
	<path fill="#595959" d="M-598.4,376.9h-1.4v-9.2c0-0.8,0-1.5,0.1-2.2c-0.1,0.1-0.3,0.3-0.4,0.4s-0.8,0.7-2.1,1.7l-0.8-1l3.4-2.6
		h1.2V376.9z"/>
	<path fill="#595959" d="M-584.4,373.9h-1.9v3h-1.4v-3h-6.2v-1.3l6.1-8.7h1.5v8.6h1.9V373.9z M-587.7,372.6v-4.3
		c0-0.8,0-1.8,0.1-2.8h-0.1c-0.3,0.6-0.5,1-0.8,1.4l-4,5.7H-587.7z"/>
</g>
<g>
	<path fill="#595959" d="M-598.4,325.4h-1.4v-9.2c0-0.8,0-1.5,0.1-2.2c-0.1,0.1-0.3,0.3-0.4,0.4s-0.8,0.7-2.1,1.7l-0.8-1l3.4-2.6
		h1.2V325.4z"/>
	<path fill="#595959" d="M-593.3,319.9c0-2.5,0.5-4.4,1.5-5.7c1-1.2,2.4-1.9,4.4-1.9c0.7,0,1.2,0.1,1.6,0.2v1.3
		c-0.5-0.1-1-0.2-1.5-0.2c-1.4,0-2.4,0.4-3.2,1.3c-0.7,0.9-1.1,2.2-1.2,4h0.1c0.6-1,1.7-1.5,3.1-1.5c1.2,0,2.1,0.3,2.7,1
		s1,1.6,1,2.8c0,1.3-0.4,2.4-1.1,3.2c-0.7,0.8-1.7,1.1-3,1.1c-1.3,0-2.4-0.5-3.2-1.5S-593.3,321.7-593.3,319.9z M-589,324.3
		c0.8,0,1.5-0.3,1.9-0.8s0.7-1.3,0.7-2.3c0-0.8-0.2-1.5-0.6-2s-1.1-0.7-1.9-0.7c-0.5,0-1,0.1-1.5,0.3s-0.8,0.5-1.1,0.9
		s-0.4,0.8-0.4,1.2c0,0.6,0.1,1.2,0.4,1.7s0.6,0.9,1,1.2S-589.6,324.3-589,324.3z"/>
</g>
<g>
	<path fill="#595959" d="M-598.4,273.9h-1.4v-9.2c0-0.8,0-1.5,0.1-2.2c-0.1,0.1-0.3,0.3-0.4,0.4s-0.8,0.7-2.1,1.7l-0.8-1l3.4-2.6
		h1.2V273.9z"/>
	<path fill="#595959" d="M-589.2,260.9c1.2,0,2.1,0.3,2.8,0.8s1,1.3,1,2.3c0,0.6-0.2,1.2-0.6,1.7s-1,1-1.9,1.4c1,0.5,1.8,1,2.2,1.6
		s0.7,1.2,0.7,1.9c0,1.1-0.4,1.9-1.1,2.6s-1.8,1-3.1,1c-1.4,0-2.4-0.3-3.2-0.9s-1.1-1.5-1.1-2.6c0-1.5,0.9-2.6,2.7-3.4
		c-0.8-0.5-1.4-1-1.7-1.5s-0.5-1.1-0.5-1.8c0-0.9,0.3-1.7,1-2.2S-590.4,260.9-589.2,260.9z M-592,270.7c0,0.7,0.2,1.3,0.7,1.6
		s1.2,0.6,2.1,0.6c0.9,0,1.6-0.2,2-0.6s0.7-1,0.7-1.7c0-0.6-0.2-1.1-0.7-1.5s-1.3-0.9-2.4-1.3c-0.9,0.4-1.5,0.8-1.9,1.2
		S-592,270-592,270.7z M-589.2,262.1c-0.7,0-1.3,0.2-1.7,0.5s-0.6,0.8-0.6,1.4c0,0.5,0.2,1,0.5,1.4s1,0.8,1.9,1.2
		c0.8-0.4,1.4-0.7,1.8-1.1s0.5-0.9,0.5-1.4c0-0.6-0.2-1.1-0.6-1.4S-588.5,262.1-589.2,262.1z"/>
</g>
<rect x="-574.7" y="268" fill="none" stroke="#8C9293" stroke-miterlimit="10" width="665.2" height="466.2"/>
<line fill="none" stroke="#8C9293" stroke-miterlimit="10" x1="-574.7" y1="547.7" x2="90.1" y2="547.7"/>
<line fill="none" stroke="#8C9293" stroke-miterlimit="10" x1="-574.7" y1="501.1" x2="90.1" y2="501.1"/>
<line fill="none" stroke="#8C9293" stroke-miterlimit="10" x1="-574.7" y1="314.7" x2="90.1" y2="314.7"/>
<line fill="none" stroke="#8C9293" stroke-miterlimit="10" x1="-574.7" y1="268" x2="90.1" y2="268"/>
<line fill="none" stroke="#8C9293" stroke-miterlimit="10" x1="-574.7" y1="594.3" x2="90.1" y2="594.3"/>
<line fill="none" stroke="#8C9293" stroke-miterlimit="10" x1="-574.7" y1="687.6" x2="90.1" y2="687.6"/>
<line fill="none" stroke="#8C9293" stroke-miterlimit="10" x1="-574.7" y1="734.2" x2="90.1" y2="734.2"/>
<line fill="none" stroke="#8C9293" stroke-miterlimit="10" x1="-573.5" y1="641" x2="91.2" y2="641"/>
<line fill="none" stroke="#8C9293" stroke-miterlimit="10" x1="-574.7" y1="361.3" x2="90.1" y2="361.3"/>
<line fill="none" stroke="#8C9293" stroke-miterlimit="10" x1="-574.7" y1="407.9" x2="90.1" y2="407.9"/>
<line fill="none" stroke="#8C9293" stroke-miterlimit="10" x1="-574.7" y1="454.5" x2="90.1" y2="454.5"/>
<line fill="none" stroke="#8C9293" stroke-miterlimit="10" x1="90.3" y1="268" x2="90.3" y2="734.8"/>
<line fill="none" stroke="#8C9293" stroke-miterlimit="10" x1="-441.9" y1="268" x2="-441.9" y2="734.8"/>
<line fill="none" stroke="#8C9293" stroke-miterlimit="10" x1="-574.9" y1="268" x2="-574.9" y2="734.8"/>
<line fill="none" stroke="#8C9293" stroke-miterlimit="10" x1="-308.8" y1="268" x2="-308.8" y2="734.8"/>
<line fill="none" stroke="#8C9293" stroke-miterlimit="10" x1="-175.8" y1="268" x2="-175.8" y2="734.8"/>
<line fill="none" stroke="#8C9293" stroke-miterlimit="10" x1="-42.7" y1="268" x2="-42.7" y2="734.8"/>
<rect x="-566" y="271" fill="#F2F2F2" width="171.5" height="38.2"/>
<g>
	<path fill="#194880" d="M-553,288.3c2.1,0,3.8,0.6,5.1,1.8s1.9,2.9,1.9,5c0,1.9-0.4,3.5-1.2,5s-2,2.5-3.6,3.3s-3.5,1.2-5.7,1.2
		c-2.5,0-4.6-0.5-6.2-1.4v-3.8c2,1.2,4,1.8,6,1.8c2,0,3.6-0.5,4.7-1.5s1.7-2.3,1.7-4c0-1.2-0.4-2.2-1.1-3s-1.8-1.1-3.3-1.1
		c-1.1,0-2.4,0.2-4,0.6l-1.5-1.2l3.5-12.4h12.5l-0.8,3.7h-8.9l-1.9,6.4C-554.6,288.4-553.7,288.3-553,288.3z"/>
	<path fill="#194880" d="M-524.6,286.4c0,3.6-0.5,6.8-1.4,9.6s-2.2,4.9-3.8,6.4s-3.5,2.2-5.7,2.2c-2.3,0-4-0.7-5.1-2.2
		s-1.7-3.6-1.7-6.4c0-3.3,0.5-6.4,1.5-9.2s2.3-5,3.9-6.4s3.5-2.2,5.7-2.2c2.2,0,3.9,0.7,5,2.1S-524.6,283.7-524.6,286.4z
		 M-531.6,281.6c-1.1,0-2.2,0.7-3.2,2s-1.8,3.1-2.4,5.5s-0.9,4.7-0.9,6.9c0,1.7,0.2,3,0.7,3.8s1.2,1.3,2.3,1.3c1.2,0,2.2-0.7,3.2-2
		s1.7-3.2,2.3-5.6s0.9-4.8,0.9-7.3C-528.8,283.1-529.7,281.6-531.6,281.6z"/>
	<path fill="#194880" d="M-509.9,283.4c0,1.9-0.3,3.7-1,5.5s-1.5,3.1-2.6,4.1s-2.3,1.4-3.6,1.4c-1.5,0-2.6-0.5-3.3-1.4
		s-1.2-2.3-1.2-4c0-1.9,0.3-3.8,0.9-5.5s1.5-3,2.5-3.9s2.3-1.3,3.7-1.3c1.5,0,2.6,0.4,3.4,1.3S-509.9,281.7-509.9,283.4z
		 M-497.5,278.5l-19.1,25.7h-3.4l19.1-25.7H-497.5z M-514.8,281.1c-0.6,0-1.2,0.4-1.7,1.1s-0.9,1.7-1.2,3s-0.5,2.6-0.5,3.8
		c0,1.6,0.5,2.4,1.4,2.4c0.6,0,1.2-0.3,1.7-1s0.9-1.7,1.3-3.1s0.5-2.7,0.5-3.9C-513.3,281.9-513.8,281.1-514.8,281.1z M-495.8,293.6
		c0,1.9-0.3,3.7-1,5.5s-1.5,3.2-2.6,4.1s-2.3,1.4-3.6,1.4c-1.5,0-2.6-0.4-3.4-1.3s-1.2-2.2-1.2-3.9c0-2,0.3-3.9,0.9-5.6
		s1.5-3.1,2.5-3.9s2.3-1.3,3.6-1.3c1.5,0,2.6,0.4,3.4,1.3S-495.8,291.9-495.8,293.6z M-500.7,291.4c-0.6,0-1.2,0.3-1.7,1
		s-0.9,1.7-1.3,3s-0.5,2.6-0.5,3.9c0,1.6,0.5,2.4,1.4,2.4c0.6,0,1.2-0.3,1.7-1s0.9-1.7,1.3-3.1s0.5-2.6,0.5-3.9
		C-499.2,292.1-499.7,291.4-500.7,291.4z"/>
	<path fill="#194880" d="M-470.2,304.2h-13.6l5.4-25.7h13.6l-0.8,3.6h-9.5l-1.5,6.9h8.8l-0.7,3.6h-8.9l-1.7,8h9.5L-470.2,304.2z"/>
	<path fill="#194880" d="M-452.3,290.3h9l-2.8,12.9c-1.3,0.5-2.6,0.8-3.8,1s-2.6,0.3-4.2,0.3c-3.1,0-5.4-0.9-7.1-2.6
		s-2.5-4.1-2.5-7.3c0-3.1,0.6-5.9,1.8-8.5s2.9-4.6,5.1-6s4.7-2.1,7.5-2.1c1.3,0,2.5,0.1,3.7,0.4s2.4,0.6,3.6,1.2l-1.6,3.6
		c-2-1-4-1.5-5.9-1.5c-1.9,0-3.5,0.5-5,1.6s-2.7,2.6-3.6,4.5s-1.3,4.1-1.3,6.5c0,2.1,0.5,3.8,1.6,4.9s2.5,1.7,4.4,1.7
		c1.3,0,2.5-0.2,3.8-0.6l1.4-6.5h-4.9L-452.3,290.3z"/>
	<path fill="#194880" d="M-418.4,304.2h-4.5l-0.7-14.8l-0.1-3.3l0.1-1.9h-0.1c-0.6,1.7-1.2,3.4-2.1,5.1l-6.8,14.8h-4.5l-0.9-25.7h4
		l0.3,14.9c0,1.6-0.1,3.6-0.2,6.1h0.1c1-2.6,1.8-4.7,2.5-6.2l6.8-14.8h4l0.5,14.7l0.1,3l-0.1,3.3h0.1c0.3-1,0.7-2.2,1.2-3.5
		s0.8-2.2,1.1-2.7l6.3-14.9h4.3L-418.4,304.2z"/>
</g>
<g>
	<path fill="#1C5C85" d="M-319.9,773.8c-1.2,0-2.2,0.4-2.8,1.3s-1,2-1,3.5c0,1.6,0.3,2.8,1,3.6s1.6,1.2,2.9,1.2
		c0.5,0,1.1-0.1,1.6-0.2s1-0.2,1.6-0.4v1.8c-1,0.4-2.2,0.6-3.4,0.6c-1.9,0-3.3-0.6-4.3-1.7s-1.5-2.8-1.5-4.9c0-1.3,0.2-2.5,0.7-3.5
		s1.2-1.8,2.1-2.3s2-0.8,3.3-0.8c1.3,0,2.5,0.3,3.6,0.8l-0.8,1.7c-0.4-0.2-0.9-0.4-1.4-0.5C-318.8,773.8-319.3,773.8-319.9,773.8z"
		/>
	<path fill="#1C5C85" d="M-305.5,780.1c0,1.6-0.4,2.8-1.2,3.7s-1.9,1.3-3.4,1.3c-0.9,0-1.7-0.2-2.4-0.6s-1.2-1-1.6-1.8
		s-0.6-1.7-0.6-2.7c0-1.6,0.4-2.8,1.2-3.7s1.9-1.3,3.4-1.3c1.4,0,2.5,0.5,3.3,1.4C-305.9,777.4-305.5,778.6-305.5,780.1z
		 M-312.6,780.1c0,2.2,0.8,3.4,2.5,3.4c1.6,0,2.5-1.1,2.5-3.4c0-2.2-0.8-3.3-2.5-3.3c-0.9,0-1.5,0.3-1.9,0.9S-312.6,779-312.6,780.1
		z"/>
	<path fill="#1C5C85" d="M-294.5,780.1c0,1.6-0.4,2.8-1.2,3.7s-1.9,1.3-3.4,1.3c-0.9,0-1.7-0.2-2.4-0.6s-1.2-1-1.6-1.8
		s-0.6-1.7-0.6-2.7c0-1.6,0.4-2.8,1.2-3.7s1.9-1.3,3.4-1.3c1.4,0,2.5,0.5,3.3,1.4C-294.9,777.4-294.5,778.6-294.5,780.1z
		 M-301.6,780.1c0,2.2,0.8,3.4,2.5,3.4c1.6,0,2.5-1.1,2.5-3.4c0-2.2-0.8-3.3-2.5-3.3c-0.9,0-1.5,0.3-1.9,0.9S-301.6,779-301.6,780.1
		z"/>
	<path fill="#1C5C85" d="M-290.1,785h-2.1v-13.7h2.1V785z"/>
	<path fill="#1C5C85" d="M-281.1,785l-0.4-1.4h-0.1c-0.5,0.6-0.9,1-1.4,1.2c-0.5,0.2-1.1,0.3-1.8,0.3c-1,0-1.7-0.3-2.2-0.8
		s-0.8-1.2-0.8-2.2c0-1,0.4-1.8,1.1-2.3s1.9-0.8,3.4-0.8l1.7-0.1v-0.5c0-0.6-0.1-1.1-0.4-1.4c-0.3-0.3-0.7-0.5-1.3-0.5
		c-0.5,0-1,0.1-1.4,0.2s-0.9,0.3-1.3,0.5l-0.7-1.5c0.5-0.3,1.1-0.5,1.7-0.6c0.6-0.1,1.2-0.2,1.8-0.2c1.2,0,2.2,0.3,2.8,0.8
		s0.9,1.4,0.9,2.5v6.5H-281.1z M-284.1,783.6c0.8,0,1.4-0.2,1.8-0.6c0.5-0.4,0.7-1,0.7-1.8v-0.8l-1.2,0.1c-1,0-1.7,0.2-2.1,0.5
		c-0.4,0.3-0.7,0.7-0.7,1.3c0,0.4,0.1,0.8,0.4,1C-285,783.5-284.7,783.6-284.1,783.6z"/>
	<path fill="#1C5C85" d="M-268.1,785h-2.1v-6c0-0.8-0.2-1.3-0.5-1.7s-0.8-0.6-1.4-0.6c-0.9,0-1.5,0.3-1.9,0.8s-0.6,1.4-0.6,2.6v4.8
		h-2.1v-9.7h1.6l0.3,1.3h0.1c0.3-0.5,0.7-0.8,1.2-1.1s1.1-0.4,1.8-0.4c2.3,0,3.5,1.2,3.5,3.6V785z"/>
	<path fill="#1C5C85" d="M-261.7,783.5c0.5,0,1-0.1,1.5-0.2v1.6c-0.2,0.1-0.5,0.2-0.9,0.2s-0.7,0.1-1.1,0.1c-2,0-2.9-1-2.9-3.1v-5.2
		h-1.3v-0.9l1.4-0.8l0.7-2.1h1.3v2.2h2.8v1.6h-2.8v5.2c0,0.5,0.1,0.9,0.4,1.1C-262.4,783.4-262.1,783.5-261.7,783.5z"/>
	<path fill="#1C5C85" d="M-251.2,785h-2.1v-12.8h7.3v1.8h-5.2v4h4.8v1.8h-4.8V785z"/>
	<path fill="#1C5C85" d="M-241.9,785h-2.1v-13.7h2.1V785z"/>
	<path fill="#1C5C85" d="M-230.3,780.1c0,1.6-0.4,2.8-1.2,3.7s-1.9,1.3-3.4,1.3c-0.9,0-1.7-0.2-2.4-0.6s-1.2-1-1.6-1.8
		s-0.6-1.7-0.6-2.7c0-1.6,0.4-2.8,1.2-3.7s1.9-1.3,3.4-1.3c1.4,0,2.5,0.5,3.3,1.4C-230.7,777.4-230.3,778.6-230.3,780.1z
		 M-237.4,780.1c0,2.2,0.8,3.4,2.5,3.4c1.6,0,2.5-1.1,2.5-3.4c0-2.2-0.8-3.3-2.5-3.3c-0.9,0-1.5,0.3-1.9,0.9
		C-237.2,778.2-237.4,779-237.4,780.1z"/>
	<path fill="#1C5C85" d="M-220,785l-1.3-4.5c-0.2-0.5-0.4-1.6-0.8-3.3h-0.1c-0.3,1.6-0.6,2.7-0.8,3.4l-1.3,4.5h-2.3l-2.7-9.7h2.1
		l1.2,4.8c0.3,1.2,0.5,2.2,0.6,3h0.1c0.1-0.4,0.1-0.9,0.3-1.5c0.1-0.6,0.2-1,0.3-1.2l1.5-5.1h2.3l1.4,5.1c0.1,0.3,0.2,0.7,0.3,1.3
		c0.1,0.6,0.2,1.1,0.2,1.4h0.1c0.1-0.7,0.3-1.7,0.6-3l1.3-4.8h2.1l-2.7,9.7H-220z"/>
	<path fill="#1C5C85" d="M-209.3,780.1c0-1.6,0.2-3,0.7-4.4c0.5-1.4,1.1-2.5,2-3.6h1.8c-0.8,1.1-1.4,2.3-1.9,3.7s-0.7,2.8-0.7,4.2
		s0.2,2.8,0.7,4.2s1.1,2.6,1.9,3.6h-1.8c-0.9-1-1.5-2.2-2-3.5S-209.3,781.6-209.3,780.1z"/>
	<path fill="#1C5C85" d="M-197.4,778h4.7v6.5c-0.8,0.3-1.5,0.4-2.2,0.5c-0.7,0.1-1.5,0.2-2.3,0.2c-1.9,0-3.4-0.6-4.5-1.7
		c-1.1-1.2-1.6-2.8-1.6-4.9c0-2.1,0.6-3.7,1.8-4.9c1.2-1.2,2.8-1.8,4.9-1.8c1.3,0,2.6,0.3,3.8,0.8l-0.7,1.7c-1-0.5-2.1-0.7-3.1-0.7
		c-1.4,0-2.5,0.4-3.3,1.3s-1.2,2-1.2,3.5c0,1.6,0.4,2.8,1.1,3.6c0.7,0.8,1.8,1.2,3.1,1.2c0.7,0,1.4-0.1,2.2-0.3v-3.3h-2.7V778z"/>
	<path fill="#1C5C85" d="M-181,776c0,1.3-0.4,2.4-1.3,3.1s-2.1,1.1-3.8,1.1h-1.3v4.8h-2.1v-12.8h3.7c1.6,0,2.8,0.3,3.6,1
		C-181.4,773.8-181,774.8-181,776z M-187.5,778.4h1.1c1.1,0,1.9-0.2,2.4-0.6s0.8-1,0.8-1.8c0-0.7-0.2-1.3-0.7-1.7s-1.2-0.5-2.1-0.5
		h-1.5V778.4z"/>
	<path fill="#1C5C85" d="M-172.9,785l-3.7-10.7h-0.1c0.1,1.6,0.1,3.1,0.1,4.5v6.2h-1.9v-12.8h3l3.6,10.2h0.1l3.7-10.2h3V785h-2v-6.4
		c0-0.6,0-1.5,0-2.5c0-1,0.1-1.6,0.1-1.9h-0.1l-3.9,10.7H-172.9z"/>
	<path fill="#1C5C85" d="M-158.6,780.1c0,1.5-0.2,3-0.7,4.3c-0.5,1.3-1.1,2.5-2,3.5h-1.8c0.8-1.1,1.4-2.3,1.9-3.6
		c0.4-1.3,0.6-2.7,0.6-4.1c0-1.4-0.2-2.8-0.7-4.2c-0.4-1.4-1.1-2.6-1.9-3.7h1.8c0.9,1,1.5,2.2,2,3.6
		C-158.8,777.1-158.6,778.5-158.6,780.1z"/>
</g>
<g>
	<path fill="#595959" d="M-569.9,746.2c0,2.2-0.4,3.9-1.1,5s-1.8,1.6-3.2,1.6c-1.4,0-2.4-0.6-3.2-1.7c-0.7-1.1-1.1-2.8-1.1-4.9
		c0-2.2,0.3-3.9,1-5s1.8-1.6,3.2-1.6c1.4,0,2.5,0.6,3.2,1.7S-569.9,744-569.9,746.2z M-576.9,746.2c0,1.9,0.2,3.2,0.7,4.1
		c0.4,0.9,1.1,1.3,2.1,1.3c1,0,1.7-0.4,2.1-1.3s0.7-2.2,0.7-4.1s-0.2-3.2-0.7-4.1s-1.1-1.3-2.1-1.3c-1,0-1.7,0.4-2.1,1.3
		S-576.9,744.3-576.9,746.2z"/>
</g>
<g>
	<path fill="#595959" d="M-439.9,752.6h-1.4v-9.2c0-0.8,0-1.5,0.1-2.2c-0.1,0.1-0.3,0.3-0.4,0.4s-0.8,0.7-2.1,1.7l-0.8-1l3.4-2.6
		h1.2V752.6z"/>
</g>
<g>
	<path fill="#595959" d="M-303.8,752.6h-8.4v-1.3l3.4-3.4c1-1,1.7-1.8,2-2.2s0.6-0.9,0.7-1.3s0.2-0.9,0.2-1.4c0-0.7-0.2-1.2-0.6-1.6
		s-1-0.6-1.7-0.6c-0.5,0-1,0.1-1.5,0.3s-1,0.5-1.6,1l-0.8-1c1.2-1,2.5-1.5,3.9-1.5c1.2,0,2.2,0.3,2.8,0.9c0.7,0.6,1,1.4,1,2.5
		c0,0.8-0.2,1.6-0.7,2.4s-1.3,1.8-2.6,3l-2.8,2.8v0.1h6.6V752.6z"/>
</g>
<g>
	<path fill="#595959" d="M-171.2,742.8c0,0.8-0.2,1.5-0.7,2c-0.5,0.5-1.1,0.9-2,1v0.1c1,0.1,1.8,0.5,2.3,1s0.7,1.2,0.7,2.1
		c0,1.2-0.4,2.2-1.3,2.8c-0.8,0.7-2.1,1-3.6,1c-0.7,0-1.3-0.1-1.9-0.2c-0.6-0.1-1.1-0.3-1.6-0.5v-1.4c0.6,0.3,1.2,0.5,1.8,0.6
		c0.6,0.1,1.2,0.2,1.8,0.2c2.2,0,3.3-0.9,3.3-2.6c0-1.6-1.2-2.3-3.7-2.3h-1.3v-1.3h1.3c1,0,1.8-0.2,2.4-0.7s0.9-1.1,0.9-1.8
		c0-0.6-0.2-1.1-0.6-1.5c-0.4-0.4-1-0.5-1.8-0.5c-0.6,0-1.1,0.1-1.6,0.2s-1.1,0.4-1.7,0.8l-0.7-1c0.5-0.4,1.1-0.7,1.8-1
		c0.7-0.2,1.4-0.4,2.2-0.4c1.2,0,2.2,0.3,2.9,0.9C-171.6,741-171.2,741.8-171.2,742.8z"/>
</g>
<g>
	<path fill="#595959" d="M-37.1,749.6H-39v3h-1.4v-3h-6.2v-1.3l6.1-8.7h1.5v8.6h1.9V749.6z M-40.4,748.3V744c0-0.8,0-1.8,0.1-2.8
		h-0.1c-0.3,0.6-0.5,1-0.8,1.4l-4,5.7H-40.4z"/>
</g>
<g>
	<path fill="#595959" d="M91,744.8c1.4,0,2.4,0.3,3.2,1c0.8,0.7,1.2,1.6,1.2,2.8c0,1.3-0.4,2.4-1.3,3.1c-0.8,0.8-2,1.1-3.5,1.1
		c-1.4,0-2.6-0.2-3.3-0.7v-1.4c0.4,0.3,0.9,0.5,1.5,0.6c0.6,0.1,1.2,0.2,1.8,0.2c1,0,1.8-0.2,2.4-0.7c0.6-0.5,0.9-1.2,0.9-2.1
		c0-1.8-1.1-2.7-3.3-2.7c-0.6,0-1.3,0.1-2.2,0.3l-0.8-0.5l0.5-6h6.4v1.3h-5.1l-0.3,3.9C89.6,744.8,90.3,744.8,91,744.8z"/>
</g>
<rect x="-574.9" y="336.7" fill-rule="evenodd" clip-rule="evenodd" fill="none" width="666.1" height="397.5"/>
<rect x="-574.9" y="336.7" fill-rule="evenodd" clip-rule="evenodd" fill="none" width="666.1" height="397.5"/>
<rect x="-574.9" y="336.7" fill-rule="evenodd" clip-rule="evenodd" fill="none" width="666.1" height="397.5"/>
<rect x="-574.9" y="336.7" fill-rule="evenodd" clip-rule="evenodd" fill="none" width="666.1" height="397.5"/>
<rect x="-574.9" y="336.7" fill-rule="evenodd" clip-rule="evenodd" fill="none" width="666.1" height="397.5"/>
<rect x="-574.9" y="336.7" fill-rule="evenodd" clip-rule="evenodd" fill="none" width="666.1" height="397.5"/>
<rect x="-574.9" y="336.7" fill-rule="evenodd" clip-rule="evenodd" fill="none" width="666.1" height="397.5"/>
<rect x="-574.9" y="336.7" fill-rule="evenodd" clip-rule="evenodd" fill="none" width="666.1" height="397.5"/>
</svg>
