<?xml version="1.0" encoding="utf-8"?>
<!-- Generator: Adobe Illustrator 18.1.1, SVG Export Plug-In . SVG Version: 6.00 Build 0)  -->
<svg version="1.1" id="Layer_1" xmlns="http://www.w3.org/2000/svg" xmlns:xlink="http://www.w3.org/1999/xlink" x="0px" y="0px"
	 viewBox="-596.7 210 734.1 663" enable-background="new -596.7 210 734.1 663" xml:space="preserve">
<g>
	<path fill="#1C5C85" d="M-580.9,609.2v2.1h-11v3.8h-1.8v-9.7h1.8v3.8H-580.9z"/>
	<path fill="#1C5C85" d="M-580.9,595.1v2.1h-6c-0.8,0-1.3,0.2-1.7,0.5c-0.4,0.3-0.6,0.8-0.6,1.4c0,0.9,0.3,1.5,0.8,1.9
		s1.4,0.6,2.6,0.6h4.8v2.1h-13.7v-2.1h3.5c0.6,0,1.2,0,1.8,0.1v-0.1c-0.5-0.3-0.8-0.7-1.1-1.2c-0.3-0.5-0.4-1.1-0.4-1.8
		c0-2.4,1.2-3.5,3.6-3.5H-580.9z"/>
	<path fill="#1C5C85" d="M-580.8,588c0,1.5-0.4,2.7-1.3,3.5c-0.9,0.9-2.1,1.3-3.6,1.3c-1.6,0-2.8-0.4-3.7-1.2s-1.4-1.9-1.4-3.3
		c0-1.3,0.4-2.3,1.2-3s1.9-1.1,3.2-1.1h1.1v6.5c0.9,0,1.7-0.3,2.2-0.8s0.8-1.2,0.8-2c0-0.6-0.1-1.1-0.2-1.6s-0.3-1-0.5-1.6h1.7
		c0.2,0.5,0.4,1,0.5,1.5S-580.8,587.4-580.8,588z M-589.3,588.4c0,0.7,0.2,1.2,0.6,1.6c0.4,0.4,1,0.6,1.8,0.7v-4.4
		c-0.8,0-1.4,0.2-1.8,0.6S-589.3,587.7-589.3,588.4z"/>
	<path fill="#1C5C85" d="M-590.8,577c0-0.4,0-0.8,0.1-1l1.9,0.2c-0.1,0.3-0.1,0.6-0.1,0.9c0,0.8,0.3,1.5,0.8,2s1.2,0.8,2.1,0.8h5.1
		v2.1h-9.7v-1.6l1.7-0.3v-0.1c-0.6-0.3-1-0.7-1.4-1.3C-590.7,578.1-590.8,577.6-590.8,577z"/>
	<path fill="#1C5C85" d="M-580.9,565.9v2.1h-6c-0.7,0-1.3,0.1-1.7,0.4s-0.5,0.7-0.5,1.3c0,0.8,0.3,1.4,0.8,1.8s1.4,0.6,2.6,0.6h4.8
		v2.1h-9.7v-1.6l1.3-0.3v-0.1c-0.5-0.3-0.8-0.7-1.1-1.2s-0.4-1.1-0.4-1.7c0-1.5,0.5-2.5,1.5-3v-0.1c-0.5-0.3-0.9-0.7-1.1-1.2
		s-0.4-1.1-0.4-1.8c0-1.2,0.3-2,0.9-2.5c0.6-0.5,1.5-0.8,2.7-0.8h6.3v2.1h-6c-0.7,0-1.3,0.1-1.7,0.4s-0.5,0.7-0.5,1.3
		c0,0.8,0.3,1.4,0.8,1.8c0.5,0.4,1.3,0.6,2.3,0.6H-580.9z"/>
	<path fill="#1C5C85" d="M-580.9,550.8l-1.4,0.4v0.1c0.6,0.5,1,0.9,1.2,1.4s0.3,1.1,0.3,1.8c0,1-0.3,1.7-0.8,2.2
		c-0.5,0.5-1.2,0.8-2.2,0.8c-1,0-1.8-0.4-2.3-1.1s-0.8-1.9-0.8-3.4l-0.1-1.7h-0.5c-0.6,0-1.1,0.1-1.4,0.4c-0.3,0.3-0.5,0.7-0.5,1.3
		c0,0.5,0.1,1,0.2,1.4s0.3,0.9,0.5,1.3l-1.5,0.7c-0.3-0.5-0.5-1.1-0.6-1.7s-0.2-1.2-0.2-1.8c0-1.2,0.3-2.2,0.8-2.8s1.4-0.9,2.5-0.9
		h6.5V550.8z M-582.3,553.9c0-0.8-0.2-1.4-0.6-1.8c-0.4-0.5-1-0.7-1.8-0.7h-0.8l0.1,1.2c0,1,0.2,1.7,0.5,2.1
		c0.3,0.4,0.7,0.7,1.3,0.7c0.4,0,0.8-0.1,1-0.4S-582.3,554.4-582.3,553.9z"/>
	<path fill="#1C5C85" d="M-580.9,544.4v2.1h-13.7v-2.1H-580.9z"/>
	<path fill="#1C5C85" d="M-589.9,528.1c1.3,0,2.4,0.4,3.1,1.3s1.1,2.1,1.1,3.8v1.3h4.8v2.1h-12.8v-3.7c0-1.6,0.3-2.8,1-3.6
		C-592.2,528.5-591.2,528.1-589.9,528.1z M-587.5,534.5v-1.1c0-1.1-0.2-1.9-0.6-2.4s-1-0.8-1.8-0.8c-0.7,0-1.3,0.2-1.7,0.7
		s-0.5,1.2-0.5,2.1v1.5H-587.5z"/>
	<path fill="#1C5C85" d="M-580.8,521.5c0,1.5-0.4,2.7-1.3,3.5c-0.9,0.9-2.1,1.3-3.6,1.3c-1.6,0-2.8-0.4-3.7-1.2s-1.4-1.9-1.4-3.3
		c0-1.3,0.4-2.3,1.2-3s1.9-1.1,3.2-1.1h1.1v6.5c0.9,0,1.7-0.3,2.2-0.8s0.8-1.2,0.8-2c0-0.6-0.1-1.1-0.2-1.6s-0.3-1-0.5-1.6h1.7
		c0.2,0.5,0.4,1,0.5,1.5S-580.8,520.8-580.8,521.5z M-589.3,521.9c0,0.7,0.2,1.2,0.6,1.6c0.4,0.4,1,0.6,1.8,0.7v-4.4
		c-0.8,0-1.4,0.2-1.8,0.6S-589.3,521.2-589.3,521.9z"/>
	<path fill="#1C5C85" d="M-590.8,510.4c0-0.4,0-0.8,0.1-1l1.9,0.2c-0.1,0.3-0.1,0.6-0.1,0.9c0,0.8,0.3,1.5,0.8,2s1.2,0.8,2.1,0.8
		h5.1v2.1h-9.7v-1.6l1.7-0.3v-0.1c-0.6-0.3-1-0.7-1.4-1.3C-590.7,511.6-590.8,511-590.8,510.4z"/>
	<path fill="#1C5C85" d="M-589.1,502.7v2.4h8.2v2.1h-8.2v1.6h-1l-0.6-1.6h-0.6c-1.1,0-2-0.3-2.6-0.8s-0.8-1.4-0.8-2.5
		c0-0.7,0.1-1.4,0.4-2.1l1.6,0.5c-0.2,0.5-0.2,1-0.2,1.5c0,0.5,0.1,0.8,0.4,1c0.3,0.2,0.7,0.3,1.3,0.3h0.6v-2.4H-589.1z"/>
	<path fill="#1C5C85" d="M-585.8,492.4c1.6,0,2.8,0.4,3.7,1.2s1.3,1.9,1.3,3.4c0,0.9-0.2,1.7-0.6,2.4s-1,1.2-1.8,1.6
		s-1.7,0.6-2.7,0.6c-1.6,0-2.8-0.4-3.7-1.2s-1.3-1.9-1.3-3.4c0-1.4,0.5-2.5,1.4-3.3S-587.4,492.4-585.8,492.4z M-585.8,499.5
		c2.2,0,3.4-0.8,3.4-2.5c0-1.6-1.1-2.5-3.4-2.5c-2.2,0-3.3,0.8-3.3,2.5c0,0.9,0.3,1.5,0.9,1.9S-586.9,499.5-585.8,499.5z"/>
	<path fill="#1C5C85" d="M-590.8,485.1c0-0.4,0-0.8,0.1-1l1.9,0.2c-0.1,0.3-0.1,0.6-0.1,0.9c0,0.8,0.3,1.5,0.8,2s1.2,0.8,2.1,0.8
		h5.1v2.1h-9.7v-1.6l1.7-0.3v-0.1c-0.6-0.3-1-0.7-1.4-1.3C-590.7,486.3-590.8,485.7-590.8,485.1z"/>
	<path fill="#1C5C85" d="M-580.9,474.1v2.1h-6c-0.7,0-1.3,0.1-1.7,0.4s-0.5,0.7-0.5,1.3c0,0.8,0.3,1.4,0.8,1.8s1.4,0.6,2.6,0.6h4.8
		v2.1h-9.7v-1.6l1.3-0.3v-0.1c-0.5-0.3-0.8-0.7-1.1-1.2s-0.4-1.1-0.4-1.7c0-1.5,0.5-2.5,1.5-3v-0.1c-0.5-0.3-0.9-0.7-1.1-1.2
		s-0.4-1.1-0.4-1.8c0-1.2,0.3-2,0.9-2.5c0.6-0.5,1.5-0.8,2.7-0.8h6.3v2.1h-6c-0.7,0-1.3,0.1-1.7,0.4s-0.5,0.7-0.5,1.3
		c0,0.8,0.3,1.4,0.8,1.8c0.5,0.4,1.3,0.6,2.3,0.6H-580.9z"/>
	<path fill="#1C5C85" d="M-580.9,459l-1.4,0.4v0.1c0.6,0.5,1,0.9,1.2,1.4s0.3,1.1,0.3,1.8c0,1-0.3,1.7-0.8,2.2
		c-0.5,0.5-1.2,0.8-2.2,0.8c-1,0-1.8-0.4-2.3-1.1s-0.8-1.9-0.8-3.4l-0.1-1.7h-0.5c-0.6,0-1.1,0.1-1.4,0.4c-0.3,0.3-0.5,0.7-0.5,1.3
		c0,0.5,0.1,1,0.2,1.4s0.3,0.9,0.5,1.3l-1.5,0.7c-0.3-0.5-0.5-1.1-0.6-1.7s-0.2-1.2-0.2-1.8c0-1.2,0.3-2.2,0.8-2.8s1.4-0.9,2.5-0.9
		h6.5V459z M-582.3,462.1c0-0.8-0.2-1.4-0.6-1.8c-0.4-0.5-1-0.7-1.8-0.7h-0.8l0.1,1.2c0,1,0.2,1.7,0.5,2.1c0.3,0.4,0.7,0.7,1.3,0.7
		c0.4,0,0.8-0.1,1-0.4S-582.3,462.6-582.3,462.1z"/>
	<path fill="#1C5C85" d="M-580.9,446.1v2.1h-6c-0.8,0-1.3,0.2-1.7,0.5c-0.4,0.3-0.6,0.8-0.6,1.4c0,0.9,0.3,1.5,0.8,1.9
		s1.4,0.6,2.6,0.6h4.8v2.1h-9.7V453l1.3-0.3v-0.1c-0.5-0.3-0.8-0.7-1.1-1.2s-0.4-1.1-0.4-1.8c0-2.3,1.2-3.5,3.6-3.5H-580.9z"/>
	<path fill="#1C5C85" d="M-580.8,439.3c0,1.5-0.4,2.6-1.3,3.4c-0.9,0.8-2.1,1.1-3.7,1.1c-1.6,0-2.9-0.4-3.8-1.2
		c-0.9-0.8-1.3-2-1.3-3.5c0-1,0.2-1.9,0.6-2.8l1.7,0.6c-0.3,0.9-0.5,1.6-0.5,2.2c0,1.7,1.1,2.5,3.3,2.5c1.1,0,1.9-0.2,2.5-0.6
		c0.5-0.4,0.8-1,0.8-1.8c0-0.9-0.2-1.8-0.7-2.6h1.8c0.2,0.4,0.4,0.8,0.5,1.2C-580.8,438.2-580.8,438.7-580.8,439.3z"/>
	<path fill="#1C5C85" d="M-580.8,430.1c0,1.5-0.4,2.7-1.3,3.5c-0.9,0.9-2.1,1.3-3.6,1.3c-1.6,0-2.8-0.4-3.7-1.2s-1.4-1.9-1.4-3.3
		c0-1.3,0.4-2.3,1.2-3s1.9-1.1,3.2-1.1h1.1v6.5c0.9,0,1.7-0.3,2.2-0.8s0.8-1.2,0.8-2c0-0.6-0.1-1.1-0.2-1.6s-0.3-1-0.5-1.6h1.7
		c0.2,0.5,0.4,1,0.5,1.5S-580.8,429.4-580.8,430.1z M-589.3,430.4c0,0.7,0.2,1.2,0.6,1.6c0.4,0.4,1,0.6,1.8,0.7v-4.4
		c-0.8,0-1.4,0.2-1.8,0.6S-589.3,429.8-589.3,430.4z"/>
	<path fill="#1C5C85" d="M-585.9,420c-1.6,0-3-0.2-4.4-0.7c-1.4-0.5-2.5-1.1-3.6-2v-1.8c1.1,0.8,2.3,1.4,3.7,1.9s2.8,0.7,4.2,0.7
		s2.8-0.2,4.2-0.7s2.6-1.1,3.6-1.9v1.8c-1,0.9-2.2,1.5-3.5,2S-584.3,420-585.9,420z"/>
	<path fill="#1C5C85" d="M-580.9,401.5v2.3l-7.7,2.2c-0.3,0.1-0.8,0.2-1.4,0.4s-1.1,0.2-1.3,0.3c0.4,0.1,0.9,0.2,1.5,0.3
		c0.6,0.1,1,0.2,1.3,0.3l7.6,2.1v2.3l-6.4,1.7l-6.4,1.7v-2.1l7.5-1.8c1.2-0.3,2.3-0.5,3.2-0.6c-0.5-0.1-1.1-0.2-1.7-0.3
		s-1.1-0.2-1.5-0.4l-7.5-2.1v-2.1l7.5-2.1c0.7-0.2,1.7-0.4,3.1-0.7c-0.8-0.1-1.9-0.3-3.2-0.6l-7.5-1.8v-2.1L-580.9,401.5z"/>
	<path fill="#1C5C85" d="M-593.8,391.1l12.8,4.8v2l-12.8-4.8V391.1z"/>
	<path fill="#1C5C85" d="M-592.2,383.8c0,1.2,0.4,2.2,1.3,2.8s2,1,3.5,1c1.6,0,2.8-0.3,3.6-1s1.2-1.6,1.2-2.9c0-0.5-0.1-1.1-0.2-1.6
		s-0.2-1-0.4-1.6h1.8c0.4,1,0.6,2.2,0.6,3.4c0,1.9-0.6,3.3-1.7,4.3s-2.8,1.5-4.9,1.5c-1.3,0-2.5-0.2-3.5-0.7s-1.8-1.2-2.3-2.1
		s-0.8-2-0.8-3.3c0-1.3,0.3-2.5,0.8-3.6l1.7,0.8c-0.2,0.4-0.4,0.9-0.5,1.4C-592.1,382.8-592.2,383.3-592.2,383.8z"/>
	<path fill="#1C5C85" d="M-585.9,374.6c1.5,0,3,0.2,4.3,0.7c1.3,0.5,2.5,1.1,3.5,2v1.8c-1.1-0.8-2.3-1.4-3.6-1.9
		c-1.3-0.4-2.7-0.6-4.1-0.6c-1.4,0-2.8,0.2-4.2,0.7s-2.6,1.1-3.7,1.9v-1.8c1-0.9,2.2-1.5,3.6-2S-587.4,374.6-585.9,374.6z"/>
</g>
<g>
	<path fill="#595959" d="M-540.5,728c0,2.2-0.4,3.9-1.1,5s-1.8,1.6-3.2,1.6c-1.4,0-2.4-0.6-3.2-1.7c-0.7-1.1-1.1-2.8-1.1-4.9
		c0-2.2,0.3-3.9,1-5s1.8-1.6,3.2-1.6c1.4,0,2.5,0.6,3.2,1.7S-540.5,725.9-540.5,728z M-547.5,728c0,1.9,0.2,3.2,0.7,4.1
		c0.4,0.9,1.1,1.3,2.1,1.3c1,0,1.7-0.4,2.1-1.3s0.7-2.2,0.7-4.1s-0.2-3.2-0.7-4.1s-1.1-1.3-2.1-1.3c-1,0-1.7,0.4-2.1,1.3
		S-547.5,726.2-547.5,728z"/>
</g>
<g>
	<path fill="#595959" d="M-555.3,679.7c1.4,0,2.4,0.3,3.2,1s1.2,1.6,1.2,2.8c0,1.3-0.4,2.4-1.3,3.1s-2,1.1-3.5,1.1
		c-1.4,0-2.6-0.2-3.3-0.7v-1.4c0.4,0.3,0.9,0.5,1.5,0.6c0.6,0.1,1.2,0.2,1.8,0.2c1,0,1.8-0.2,2.4-0.7s0.9-1.2,0.9-2.1
		c0-1.8-1.1-2.7-3.3-2.7c-0.6,0-1.3,0.1-2.2,0.3l-0.8-0.5l0.5-6h6.4v1.3h-5.1l-0.3,3.9C-556.6,679.8-555.9,679.7-555.3,679.7z"/>
	<path fill="#595959" d="M-540.5,681.1c0,2.2-0.4,3.9-1.1,5s-1.8,1.6-3.2,1.6c-1.4,0-2.4-0.6-3.2-1.7c-0.7-1.1-1.1-2.8-1.1-4.9
		c0-2.2,0.3-3.9,1-5s1.8-1.6,3.2-1.6c1.4,0,2.5,0.6,3.2,1.7S-540.5,679-540.5,681.1z M-547.5,681.1c0,1.9,0.2,3.2,0.7,4.1
		c0.4,0.9,1.1,1.3,2.1,1.3c1,0,1.7-0.4,2.1-1.3s0.7-2.2,0.7-4.1s-0.2-3.2-0.7-4.1s-1.1-1.3-2.1-1.3c-1,0-1.7,0.4-2.1,1.3
		S-547.5,679.3-547.5,681.1z"/>
</g>
<g>
	<path fill="#595959" d="M-564.2,640.7h-1.4v-9.2c0-0.8,0-1.5,0.1-2.2c-0.1,0.1-0.3,0.3-0.4,0.4s-0.8,0.7-2.1,1.7l-0.8-1l3.4-2.6
		h1.2V640.7z"/>
	<path fill="#595959" d="M-550.8,634.2c0,2.2-0.4,3.9-1.1,5s-1.8,1.6-3.2,1.6c-1.4,0-2.4-0.6-3.2-1.7c-0.7-1.1-1.1-2.8-1.1-4.9
		c0-2.2,0.3-3.9,1-5s1.8-1.6,3.2-1.6c1.4,0,2.5,0.6,3.2,1.7S-550.8,632.1-550.8,634.2z M-557.8,634.2c0,1.9,0.2,3.2,0.7,4.1
		c0.4,0.9,1.1,1.3,2.1,1.3c1,0,1.7-0.4,2.1-1.3s0.7-2.2,0.7-4.1s-0.2-3.2-0.7-4.1s-1.1-1.3-2.1-1.3c-1,0-1.7,0.4-2.1,1.3
		S-557.8,632.4-557.8,634.2z"/>
	<path fill="#595959" d="M-540.5,634.2c0,2.2-0.4,3.9-1.1,5s-1.8,1.6-3.2,1.6c-1.4,0-2.4-0.6-3.2-1.7c-0.7-1.1-1.1-2.8-1.1-4.9
		c0-2.2,0.3-3.9,1-5s1.8-1.6,3.2-1.6c1.4,0,2.5,0.6,3.2,1.7S-540.5,632.1-540.5,634.2z M-547.5,634.2c0,1.9,0.2,3.2,0.7,4.1
		c0.4,0.9,1.1,1.3,2.1,1.3c1,0,1.7-0.4,2.1-1.3s0.7-2.2,0.7-4.1s-0.2-3.2-0.7-4.1s-1.1-1.3-2.1-1.3c-1,0-1.7,0.4-2.1,1.3
		S-547.5,632.4-547.5,634.2z"/>
</g>
<g>
	<path fill="#595959" d="M-564.2,593.8h-1.4v-9.2c0-0.8,0-1.5,0.1-2.2c-0.1,0.1-0.3,0.3-0.4,0.4s-0.8,0.7-2.1,1.7l-0.8-1l3.4-2.6
		h1.2V593.8z"/>
	<path fill="#595959" d="M-555.3,585.9c1.4,0,2.4,0.3,3.2,1s1.2,1.6,1.2,2.8c0,1.3-0.4,2.4-1.3,3.1s-2,1.1-3.5,1.1
		c-1.4,0-2.6-0.2-3.3-0.7v-1.4c0.4,0.3,0.9,0.5,1.5,0.6c0.6,0.1,1.2,0.2,1.8,0.2c1,0,1.8-0.2,2.4-0.7s0.9-1.2,0.9-2.1
		c0-1.8-1.1-2.7-3.3-2.7c-0.6,0-1.3,0.1-2.2,0.3l-0.8-0.5l0.5-6h6.4v1.3h-5.1l-0.3,3.9C-556.6,586-555.9,585.9-555.3,585.9z"/>
	<path fill="#595959" d="M-540.5,587.3c0,2.2-0.4,3.9-1.1,5s-1.8,1.6-3.2,1.6c-1.4,0-2.4-0.6-3.2-1.7c-0.7-1.1-1.1-2.8-1.1-4.9
		c0-2.2,0.3-3.9,1-5s1.8-1.6,3.2-1.6c1.4,0,2.5,0.6,3.2,1.7S-540.5,585.2-540.5,587.3z M-547.5,587.3c0,1.9,0.2,3.2,0.7,4.1
		c0.4,0.9,1.1,1.3,2.1,1.3c1,0,1.7-0.4,2.1-1.3s0.7-2.2,0.7-4.1s-0.2-3.2-0.7-4.1s-1.1-1.3-2.1-1.3c-1,0-1.7,0.4-2.1,1.3
		S-547.5,585.5-547.5,587.3z"/>
</g>
<g>
	<path fill="#595959" d="M-561.1,546.9h-8.4v-1.3l3.4-3.4c1-1,1.7-1.8,2-2.2s0.6-0.9,0.7-1.3s0.2-0.9,0.2-1.4c0-0.7-0.2-1.2-0.6-1.6
		s-1-0.6-1.7-0.6c-0.5,0-1,0.1-1.5,0.3s-1,0.5-1.6,1l-0.8-1c1.2-1,2.5-1.5,3.9-1.5c1.2,0,2.2,0.3,2.8,0.9c0.7,0.6,1,1.4,1,2.5
		c0,0.8-0.2,1.6-0.7,2.4s-1.3,1.8-2.6,3l-2.8,2.8v0.1h6.6V546.9z"/>
	<path fill="#595959" d="M-550.8,540.4c0,2.2-0.4,3.9-1.1,5s-1.8,1.6-3.2,1.6c-1.4,0-2.4-0.6-3.2-1.7c-0.7-1.1-1.1-2.8-1.1-4.9
		c0-2.2,0.3-3.9,1-5s1.8-1.6,3.2-1.6c1.4,0,2.5,0.6,3.2,1.7S-550.8,538.3-550.8,540.4z M-557.8,540.4c0,1.9,0.2,3.2,0.7,4.1
		c0.4,0.9,1.1,1.3,2.1,1.3c1,0,1.7-0.4,2.1-1.3s0.7-2.2,0.7-4.1s-0.2-3.2-0.7-4.1s-1.1-1.3-2.1-1.3c-1,0-1.7,0.4-2.1,1.3
		S-557.8,538.6-557.8,540.4z"/>
	<path fill="#595959" d="M-540.5,540.4c0,2.2-0.4,3.9-1.1,5s-1.8,1.6-3.2,1.6c-1.4,0-2.4-0.6-3.2-1.7c-0.7-1.1-1.1-2.8-1.1-4.9
		c0-2.2,0.3-3.9,1-5s1.8-1.6,3.2-1.6c1.4,0,2.5,0.6,3.2,1.7S-540.5,538.3-540.5,540.4z M-547.5,540.4c0,1.9,0.2,3.2,0.7,4.1
		c0.4,0.9,1.1,1.3,2.1,1.3c1,0,1.7-0.4,2.1-1.3s0.7-2.2,0.7-4.1s-0.2-3.2-0.7-4.1s-1.1-1.3-2.1-1.3c-1,0-1.7,0.4-2.1,1.3
		S-547.5,538.6-547.5,540.4z"/>
</g>
<g>
	<path fill="#595959" d="M-561.1,500h-8.4v-1.3l3.4-3.4c1-1,1.7-1.8,2-2.2s0.6-0.9,0.7-1.3s0.2-0.9,0.2-1.4c0-0.7-0.2-1.2-0.6-1.6
		s-1-0.6-1.7-0.6c-0.5,0-1,0.1-1.5,0.3s-1,0.5-1.6,1l-0.8-1c1.2-1,2.5-1.5,3.9-1.5c1.2,0,2.2,0.3,2.8,0.9c0.7,0.6,1,1.4,1,2.5
		c0,0.8-0.2,1.6-0.7,2.4s-1.3,1.8-2.6,3l-2.8,2.8v0.1h6.6V500z"/>
	<path fill="#595959" d="M-555.3,492.1c1.4,0,2.4,0.3,3.2,1s1.2,1.6,1.2,2.8c0,1.3-0.4,2.4-1.3,3.1s-2,1.1-3.5,1.1
		c-1.4,0-2.6-0.2-3.3-0.7v-1.4c0.4,0.3,0.9,0.5,1.5,0.6c0.6,0.1,1.2,0.2,1.8,0.2c1,0,1.8-0.2,2.4-0.7s0.9-1.2,0.9-2.1
		c0-1.8-1.1-2.7-3.3-2.7c-0.6,0-1.3,0.1-2.2,0.3l-0.8-0.5l0.5-6h6.4v1.3h-5.1l-0.3,3.9C-556.6,492.2-555.9,492.1-555.3,492.1z"/>
	<path fill="#595959" d="M-540.5,493.5c0,2.2-0.4,3.9-1.1,5s-1.8,1.6-3.2,1.6c-1.4,0-2.4-0.6-3.2-1.7c-0.7-1.1-1.1-2.8-1.1-4.9
		c0-2.2,0.3-3.9,1-5s1.8-1.6,3.2-1.6c1.4,0,2.5,0.6,3.2,1.7S-540.5,491.4-540.5,493.5z M-547.5,493.5c0,1.9,0.2,3.2,0.7,4.1
		c0.4,0.9,1.1,1.3,2.1,1.3c1,0,1.7-0.4,2.1-1.3s0.7-2.2,0.7-4.1s-0.2-3.2-0.7-4.1s-1.1-1.3-2.1-1.3c-1,0-1.7,0.4-2.1,1.3
		S-547.5,491.7-547.5,493.5z"/>
</g>
<g>
	<path fill="#595959" d="M-561.6,443.3c0,0.8-0.2,1.5-0.7,2s-1.1,0.9-2,1v0.1c1,0.1,1.8,0.5,2.3,1s0.7,1.2,0.7,2.1
		c0,1.2-0.4,2.2-1.3,2.8c-0.8,0.7-2.1,1-3.6,1c-0.7,0-1.3-0.1-1.9-0.2c-0.6-0.1-1.1-0.3-1.6-0.5v-1.4c0.6,0.3,1.1,0.5,1.8,0.6
		c0.6,0.1,1.2,0.2,1.8,0.2c2.2,0,3.3-0.9,3.3-2.6c0-1.6-1.2-2.3-3.7-2.3h-1.3v-1.3h1.3c1,0,1.8-0.2,2.4-0.7s0.9-1.1,0.9-1.8
		c0-0.6-0.2-1.1-0.6-1.5s-1-0.5-1.8-0.5c-0.6,0-1.1,0.1-1.6,0.2s-1.1,0.4-1.7,0.8l-0.7-1c0.5-0.4,1.1-0.7,1.8-1
		c0.7-0.2,1.4-0.4,2.2-0.4c1.2,0,2.2,0.3,2.9,0.9C-562,441.5-561.6,442.3-561.6,443.3z"/>
	<path fill="#595959" d="M-550.8,446.6c0,2.2-0.4,3.9-1.1,5s-1.8,1.6-3.2,1.6c-1.4,0-2.4-0.6-3.2-1.7c-0.7-1.1-1.1-2.8-1.1-4.9
		c0-2.2,0.3-3.9,1-5s1.8-1.6,3.2-1.6c1.4,0,2.5,0.6,3.2,1.7S-550.8,444.5-550.8,446.6z M-557.8,446.6c0,1.9,0.2,3.2,0.7,4.1
		c0.4,0.9,1.1,1.3,2.1,1.3c1,0,1.7-0.4,2.1-1.3s0.7-2.2,0.7-4.1s-0.2-3.2-0.7-4.1s-1.1-1.3-2.1-1.3c-1,0-1.7,0.4-2.1,1.3
		S-557.8,444.8-557.8,446.6z"/>
	<path fill="#595959" d="M-540.5,446.6c0,2.2-0.4,3.9-1.1,5s-1.8,1.6-3.2,1.6c-1.4,0-2.4-0.6-3.2-1.7c-0.7-1.1-1.1-2.8-1.1-4.9
		c0-2.2,0.3-3.9,1-5s1.8-1.6,3.2-1.6c1.4,0,2.5,0.6,3.2,1.7S-540.5,444.5-540.5,446.6z M-547.5,446.6c0,1.9,0.2,3.2,0.7,4.1
		c0.4,0.9,1.1,1.3,2.1,1.3c1,0,1.7-0.4,2.1-1.3s0.7-2.2,0.7-4.1s-0.2-3.2-0.7-4.1s-1.1-1.3-2.1-1.3c-1,0-1.7,0.4-2.1,1.3
		S-547.5,444.8-547.5,446.6z"/>
</g>
<g>
	<path fill="#595959" d="M-561.6,396.4c0,0.8-0.2,1.5-0.7,2s-1.1,0.9-2,1v0.1c1,0.1,1.8,0.5,2.3,1s0.7,1.2,0.7,2.1
		c0,1.2-0.4,2.2-1.3,2.8c-0.8,0.7-2.1,1-3.6,1c-0.7,0-1.3-0.1-1.9-0.2c-0.6-0.1-1.1-0.3-1.6-0.5v-1.4c0.6,0.3,1.1,0.5,1.8,0.6
		c0.6,0.1,1.2,0.2,1.8,0.2c2.2,0,3.3-0.9,3.3-2.6c0-1.6-1.2-2.3-3.7-2.3h-1.3v-1.3h1.3c1,0,1.8-0.2,2.4-0.7s0.9-1.1,0.9-1.8
		c0-0.6-0.2-1.1-0.6-1.5s-1-0.5-1.8-0.5c-0.6,0-1.1,0.1-1.6,0.2s-1.1,0.4-1.7,0.8l-0.7-1c0.5-0.4,1.1-0.7,1.8-1
		c0.7-0.2,1.4-0.4,2.2-0.4c1.2,0,2.2,0.3,2.9,0.9C-562,394.6-561.6,395.4-561.6,396.4z"/>
	<path fill="#595959" d="M-555.3,398.3c1.4,0,2.4,0.3,3.2,1s1.2,1.6,1.2,2.8c0,1.3-0.4,2.4-1.3,3.1s-2,1.1-3.5,1.1
		c-1.4,0-2.6-0.2-3.3-0.7v-1.4c0.4,0.3,0.9,0.5,1.5,0.6c0.6,0.1,1.2,0.2,1.8,0.2c1,0,1.8-0.2,2.4-0.7s0.9-1.2,0.9-2.1
		c0-1.8-1.1-2.7-3.3-2.7c-0.6,0-1.3,0.1-2.2,0.3l-0.8-0.5l0.5-6h6.4v1.3h-5.1l-0.3,3.9C-556.6,398.4-555.9,398.3-555.3,398.3z"/>
	<path fill="#595959" d="M-540.5,399.7c0,2.2-0.4,3.9-1.1,5s-1.8,1.6-3.2,1.6c-1.4,0-2.4-0.6-3.2-1.7c-0.7-1.1-1.1-2.8-1.1-4.9
		c0-2.2,0.3-3.9,1-5s1.8-1.6,3.2-1.6c1.4,0,2.5,0.6,3.2,1.7S-540.5,397.6-540.5,399.7z M-547.5,399.7c0,1.9,0.2,3.2,0.7,4.1
		c0.4,0.9,1.1,1.3,2.1,1.3c1,0,1.7-0.4,2.1-1.3s0.7-2.2,0.7-4.1s-0.2-3.2-0.7-4.1s-1.1-1.3-2.1-1.3c-1,0-1.7,0.4-2.1,1.3
		S-547.5,397.9-547.5,399.7z"/>
</g>
<g>
	<path fill="#595959" d="M-560.5,356.3h-1.9v3h-1.4v-3h-6.2v-1.3l6.1-8.7h1.5v8.6h1.9V356.3z M-563.8,355v-4.3c0-0.8,0-1.8,0.1-2.8
		h-0.1c-0.3,0.6-0.5,1-0.8,1.4l-4,5.7H-563.8z"/>
	<path fill="#595959" d="M-550.8,352.8c0,2.2-0.4,3.9-1.1,5s-1.8,1.6-3.2,1.6c-1.4,0-2.4-0.6-3.2-1.7c-0.7-1.1-1.1-2.8-1.1-4.9
		c0-2.2,0.3-3.9,1-5s1.8-1.6,3.2-1.6c1.4,0,2.5,0.6,3.2,1.7S-550.8,350.7-550.8,352.8z M-557.8,352.8c0,1.9,0.2,3.2,0.7,4.1
		c0.4,0.9,1.1,1.3,2.1,1.3c1,0,1.7-0.4,2.1-1.3s0.7-2.2,0.7-4.1s-0.2-3.2-0.7-4.1s-1.1-1.3-2.1-1.3c-1,0-1.7,0.4-2.1,1.3
		S-557.8,351-557.8,352.8z"/>
	<path fill="#595959" d="M-540.5,352.8c0,2.2-0.4,3.9-1.1,5s-1.8,1.6-3.2,1.6c-1.4,0-2.4-0.6-3.2-1.7c-0.7-1.1-1.1-2.8-1.1-4.9
		c0-2.2,0.3-3.9,1-5s1.8-1.6,3.2-1.6c1.4,0,2.5,0.6,3.2,1.7S-540.5,350.7-540.5,352.8z M-547.5,352.8c0,1.9,0.2,3.2,0.7,4.1
		c0.4,0.9,1.1,1.3,2.1,1.3c1,0,1.7-0.4,2.1-1.3s0.7-2.2,0.7-4.1s-0.2-3.2-0.7-4.1s-1.1-1.3-2.1-1.3c-1,0-1.7,0.4-2.1,1.3
		S-547.5,351-547.5,352.8z"/>
</g>
<g>
	<path fill="#595959" d="M-560.5,309.4h-1.9v3h-1.4v-3h-6.2v-1.3l6.1-8.7h1.5v8.6h1.9V309.4z M-563.8,308.1v-4.3
		c0-0.8,0-1.8,0.1-2.8h-0.1c-0.3,0.6-0.5,1-0.8,1.4l-4,5.7H-563.8z"/>
	<path fill="#595959" d="M-555.3,304.5c1.4,0,2.4,0.3,3.2,1s1.2,1.6,1.2,2.8c0,1.3-0.4,2.4-1.3,3.1s-2,1.1-3.5,1.1
		c-1.4,0-2.6-0.2-3.3-0.7v-1.4c0.4,0.3,0.9,0.5,1.5,0.6c0.6,0.1,1.2,0.2,1.8,0.2c1,0,1.8-0.2,2.4-0.7s0.9-1.2,0.9-2.1
		c0-1.8-1.1-2.7-3.3-2.7c-0.6,0-1.3,0.1-2.2,0.3l-0.8-0.5l0.5-6h6.4v1.3h-5.1l-0.3,3.9C-556.6,304.6-555.9,304.5-555.3,304.5z"/>
	<path fill="#595959" d="M-540.5,305.9c0,2.2-0.4,3.9-1.1,5s-1.8,1.6-3.2,1.6c-1.4,0-2.4-0.6-3.2-1.7c-0.7-1.1-1.1-2.8-1.1-4.9
		c0-2.2,0.3-3.9,1-5s1.8-1.6,3.2-1.6c1.4,0,2.5,0.6,3.2,1.7S-540.5,303.8-540.5,305.9z M-547.5,305.9c0,1.9,0.2,3.2,0.7,4.1
		c0.4,0.9,1.1,1.3,2.1,1.3c1,0,1.7-0.4,2.1-1.3s0.7-2.2,0.7-4.1s-0.2-3.2-0.7-4.1s-1.1-1.3-2.1-1.3c-1,0-1.7,0.4-2.1,1.3
		S-547.5,304.1-547.5,305.9z"/>
</g>
<g>
	<path fill="#595959" d="M-565.6,257.6c1.4,0,2.4,0.3,3.2,1s1.2,1.6,1.2,2.8c0,1.3-0.4,2.4-1.3,3.1s-2,1.1-3.5,1.1
		c-1.4,0-2.6-0.2-3.3-0.7v-1.4c0.4,0.3,0.9,0.5,1.5,0.6s1.2,0.2,1.8,0.2c1,0,1.8-0.2,2.4-0.7s0.9-1.2,0.9-2.1c0-1.8-1.1-2.7-3.3-2.7
		c-0.6,0-1.3,0.1-2.2,0.3l-0.8-0.5l0.5-6h6.4v1.3h-5.1l-0.3,3.9C-566.9,257.7-566.2,257.6-565.6,257.6z"/>
	<path fill="#595959" d="M-550.8,259c0,2.2-0.4,3.9-1.1,5s-1.8,1.6-3.2,1.6c-1.4,0-2.4-0.6-3.2-1.7s-1.1-2.8-1.1-4.9
		c0-2.2,0.3-3.9,1-5s1.8-1.6,3.2-1.6c1.4,0,2.5,0.6,3.2,1.7S-550.8,256.9-550.8,259z M-557.8,259c0,1.9,0.2,3.2,0.7,4.1
		s1.1,1.3,2.1,1.3c1,0,1.7-0.4,2.1-1.3s0.7-2.2,0.7-4.1s-0.2-3.2-0.7-4.1s-1.1-1.3-2.1-1.3c-1,0-1.7,0.4-2.1,1.3
		S-557.8,257.2-557.8,259z"/>
	<path fill="#595959" d="M-540.5,259c0,2.2-0.4,3.9-1.1,5s-1.8,1.6-3.2,1.6c-1.4,0-2.4-0.6-3.2-1.7s-1.1-2.8-1.1-4.9
		c0-2.2,0.3-3.9,1-5s1.8-1.6,3.2-1.6c1.4,0,2.5,0.6,3.2,1.7S-540.5,256.9-540.5,259z M-547.5,259c0,1.9,0.2,3.2,0.7,4.1
		s1.1,1.3,2.1,1.3c1,0,1.7-0.4,2.1-1.3s0.7-2.2,0.7-4.1s-0.2-3.2-0.7-4.1s-1.1-1.3-2.1-1.3c-1,0-1.7,0.4-2.1,1.3
		S-547.5,257.2-547.5,259z"/>
</g>
<g>
	<path fill="#595959" d="M-524.9,244c0,2.2-0.4,3.9-1.1,5s-1.8,1.6-3.2,1.6c-1.4,0-2.4-0.6-3.2-1.7c-0.7-1.1-1.1-2.8-1.1-4.9
		c0-2.2,0.3-3.9,1-5s1.8-1.6,3.2-1.6c1.4,0,2.5,0.6,3.2,1.7S-524.9,241.8-524.9,244z M-531.9,244c0,1.9,0.2,3.2,0.7,4.1
		c0.4,0.9,1.1,1.3,2.1,1.3c1,0,1.7-0.4,2.1-1.3s0.7-2.2,0.7-4.1s-0.2-3.2-0.7-4.1s-1.1-1.3-2.1-1.3c-1,0-1.7,0.4-2.1,1.3
		S-531.9,242.1-531.9,244z"/>
</g>
<g>
	<path fill="#595959" d="M-354.1,242.6c1.4,0,2.4,0.3,3.2,1s1.2,1.6,1.2,2.8c0,1.3-0.4,2.4-1.3,3.1s-2,1.1-3.5,1.1
		c-1.4,0-2.6-0.2-3.3-0.7v-1.4c0.4,0.3,0.9,0.5,1.5,0.6c0.6,0.1,1.2,0.2,1.8,0.2c1,0,1.8-0.2,2.4-0.7s0.9-1.2,0.9-2.1
		c0-1.8-1.1-2.7-3.3-2.7c-0.6,0-1.3,0.1-2.2,0.3l-0.8-0.5l0.5-6h6.4v1.3h-5.1l-0.3,3.9C-355.5,242.6-354.8,242.6-354.1,242.6z"/>
</g>
<g>
	<path fill="#595959" d="M-182.6,250.4h-1.4v-9.2c0-0.8,0-1.5,0.1-2.2c-0.1,0.1-0.3,0.3-0.4,0.4s-0.8,0.7-2.1,1.7l-0.8-1l3.4-2.6
		h1.2V250.4z"/>
	<path fill="#595959" d="M-169.2,244c0,2.2-0.4,3.9-1.1,5s-1.8,1.6-3.2,1.6c-1.4,0-2.4-0.6-3.2-1.7c-0.7-1.1-1.1-2.8-1.1-4.9
		c0-2.2,0.3-3.9,1-5s1.8-1.6,3.2-1.6c1.4,0,2.5,0.6,3.2,1.7S-169.2,241.8-169.2,244z M-176.2,244c0,1.9,0.2,3.2,0.7,4.1
		c0.4,0.9,1.1,1.3,2.1,1.3c1,0,1.7-0.4,2.1-1.3s0.7-2.2,0.7-4.1s-0.2-3.2-0.7-4.1s-1.1-1.3-2.1-1.3c-1,0-1.7,0.4-2.1,1.3
		S-176.2,242.1-176.2,244z"/>
</g>
<g>
	<path fill="#595959" d="M-7.3,250.4h-1.4v-9.2c0-0.8,0-1.5,0.1-2.2c-0.1,0.1-0.3,0.3-0.4,0.4s-0.8,0.7-2.1,1.7l-0.8-1l3.4-2.6h1.2
		V250.4z"/>
	<path fill="#595959" d="M1.6,242.6c1.4,0,2.4,0.3,3.2,1c0.8,0.7,1.2,1.6,1.2,2.8c0,1.3-0.4,2.4-1.3,3.1c-0.8,0.8-2,1.1-3.5,1.1
		c-1.4,0-2.6-0.2-3.3-0.7v-1.4c0.4,0.3,0.9,0.5,1.5,0.6c0.6,0.1,1.2,0.2,1.8,0.2c1,0,1.8-0.2,2.4-0.7c0.6-0.5,0.9-1.2,0.9-2.1
		c0-1.8-1.1-2.7-3.3-2.7c-0.6,0-1.3,0.1-2.2,0.3l-0.8-0.5l0.5-6h6.4v1.3h-5.1l-0.3,3.9C0.3,242.6,1,242.6,1.6,242.6z"/>
</g>
<g>
	<path fill="#595959" d="M-524.9,752.2c0,2.2-0.4,3.9-1.1,5s-1.8,1.6-3.2,1.6c-1.4,0-2.4-0.6-3.2-1.7c-0.7-1.1-1.1-2.8-1.1-4.9
		c0-2.2,0.3-3.9,1-5s1.8-1.6,3.2-1.6c1.4,0,2.5,0.6,3.2,1.7S-524.9,750-524.9,752.2z M-531.9,752.2c0,1.9,0.2,3.2,0.7,4.1
		c0.4,0.9,1.1,1.3,2.1,1.3c1,0,1.7-0.4,2.1-1.3s0.7-2.2,0.7-4.1s-0.2-3.2-0.7-4.1s-1.1-1.3-2.1-1.3c-1,0-1.7,0.4-2.1,1.3
		S-531.9,750.3-531.9,752.2z"/>
</g>
<g>
	<path fill="#595959" d="M-398.6,758.6h-1.4v-9.2c0-0.8,0-1.5,0.1-2.2c-0.1,0.1-0.3,0.3-0.4,0.4s-0.8,0.7-2.1,1.7l-0.8-1l3.4-2.6
		h1.2V758.6z"/>
</g>
<g>
	<path fill="#595959" d="M-262.5,758.6h-8.4v-1.3l3.4-3.4c1-1,1.7-1.8,2-2.2s0.6-0.9,0.7-1.3s0.2-0.9,0.2-1.4c0-0.7-0.2-1.2-0.6-1.6
		s-1-0.6-1.7-0.6c-0.5,0-1,0.1-1.5,0.3s-1,0.5-1.6,1l-0.8-1c1.2-1,2.5-1.5,3.9-1.5c1.2,0,2.2,0.3,2.8,0.9c0.7,0.6,1,1.4,1,2.5
		c0,0.8-0.2,1.6-0.7,2.4s-1.3,1.8-2.6,3l-2.8,2.8v0.1h6.6V758.6z"/>
</g>
<g>
	<path fill="#595959" d="M-129.9,748.8c0,0.8-0.2,1.5-0.7,2c-0.5,0.5-1.1,0.9-2,1v0.1c1,0.1,1.8,0.5,2.3,1s0.7,1.2,0.7,2.1
		c0,1.2-0.4,2.2-1.3,2.8c-0.8,0.7-2.1,1-3.6,1c-0.7,0-1.3-0.1-1.9-0.2c-0.6-0.1-1.1-0.3-1.6-0.5v-1.4c0.6,0.3,1.1,0.5,1.8,0.6
		c0.6,0.1,1.2,0.2,1.8,0.2c2.2,0,3.3-0.9,3.3-2.6c0-1.6-1.2-2.3-3.7-2.3h-1.3v-1.3h1.3c1,0,1.8-0.2,2.4-0.7s0.9-1.1,0.9-1.8
		c0-0.6-0.2-1.1-0.6-1.5c-0.4-0.4-1-0.5-1.8-0.5c-0.6,0-1.1,0.1-1.6,0.2s-1.1,0.4-1.7,0.8l-0.7-1c0.5-0.4,1.1-0.7,1.8-1
		c0.7-0.2,1.4-0.4,2.2-0.4c1.2,0,2.2,0.3,2.9,0.9C-130.2,747-129.9,747.8-129.9,748.8z"/>
</g>
<g>
	<path fill="#595959" d="M4.3,755.6H2.4v3H1v-3h-6.2v-1.3l6.1-8.7h1.5v8.6h1.9V755.6z M1,754.3V750c0-0.8,0-1.8,0.1-2.8H1
		c-0.3,0.6-0.5,1-0.8,1.4l-4,5.7H1z"/>
</g>
<g>
	<path fill="#595959" d="M132.3,750.7c1.4,0,2.4,0.3,3.2,1c0.8,0.7,1.2,1.6,1.2,2.8c0,1.3-0.4,2.4-1.3,3.1c-0.8,0.8-2,1.1-3.5,1.1
		c-1.4,0-2.6-0.2-3.3-0.7v-1.4c0.4,0.3,0.9,0.5,1.5,0.6c0.6,0.1,1.2,0.2,1.8,0.2c1,0,1.8-0.2,2.4-0.7c0.6-0.5,0.9-1.2,0.9-2.1
		c0-1.8-1.1-2.7-3.3-2.7c-0.6,0-1.3,0.1-2.2,0.3l-0.8-0.5l0.5-6h6.4v1.3h-5.1l-0.3,3.9C131,750.8,131.6,750.7,132.3,750.7z"/>
</g>
<rect x="-530.4" y="263.9" fill="#F2F2F2" width="665.2" height="467.2"/>
<g>
	<path fill="#86B8E0" d="M-530.7,732c4.7-7.9,9.1-16,13.5-23.7c4.4-7.7,8.9-15.6,13.3-22.7c4.4-7.1,8.9-13.9,13.3-20
		c4.4-6.2,8.9-11.8,13.3-17c4.4-5.2,8.9-10,13.3-14.4c4.4-4.4,8.9-6.9,13.3-12.3c4.4-5.3,8.9-14.3,13.3-19.7
		c4.4-5.4,8.9-8.8,13.3-12.8c4.4-4,8.9-7.8,13.3-11.3c4.4-3.6,8.9-6.9,13.3-10.1c4.4-3.2,8.9-6.2,13.3-9c4.4-2.9,8.9-5.6,13.3-8.1
		c4.4-2.6,8.9-5,13.3-7.4c4.4-2.3,8.9-4.5,13.3-6.7c4.4-2.1,8.9-4.1,13.3-6.1c4.4-1.9,8.9-3.8,13.3-5.6c4.4-1.8,8.9-3.5,13.3-5.1
		c4.4-1.6,8.9-3.2,13.3-4.7c4.4-1.5,8.9-2.9,13.3-4.3c4.4-1.4,6.7-2.1,13.3-4c6.6-1.9,17.7-5,26.6-7.2c8.9-2.2,17.7-4.3,26.6-6.3
		c8.9-2,17.7-3.8,26.6-5.5c8.9-1.7,17.7-3.3,26.6-4.9c8.9-1.5,17.7-3,26.6-4.3c8.9-1.4,17.7-2.7,26.6-3.9c8.9-1.2,17.7-2.4,26.6-3.5
		c8.9-1.1,17.7-2.2,26.6-3.2c8.9-1,17.7-2,26.6-2.9c7.7-0.8,13.1-1.4,26.6-2.6c15.5-1.4,44.3-4,66.5-5.7c22.2-1.7,44.3-3.3,66.5-4.7
		v279L-530.7,732z"/>
	<path fill="#543D78" d="M-530.7,732c4.7-7.9,9.1-16.1,13.5-23.6c4.4-7.6,8.9-15.1,13.3-21.9c4.4-6.7,8.9-11.7,13.3-18.4
		c4.4-6.7,8.9-15.2,13.3-21.7c4.4-6.5,8.9-11.7,13.3-17.1c4.4-5.4,8.9-10.3,13.3-15.1c4.4-4.7,8.9-9.1,13.3-13.3
		c4.4-4.2,8.9-8,13.3-11.7c4.4-3.7,8.9-7.1,13.3-10.4c4.4-3.3,8.9-6.3,13.3-9.2c4.4-2.9,8.9-5.6,13.3-8.3c4.4-2.6,8.9-5.1,13.3-7.4
		c4.4-2.4,8.9-4.6,13.3-6.7c4.4-2.1,8.9-4.1,13.3-6.1c4.4-1.9,8.9-3.8,13.3-5.5c4.4-1.8,8.9-3.4,13.3-5c4.4-1.6,8.9-3.1,13.3-4.6
		c4.4-1.5,8.9-2.9,13.3-4.3c4.4-1.4,8.9-2.7,13.3-3.9c4.4-1.3,6.7-1.9,13.3-3.6c6.6-1.7,17.7-4.5,26.6-6.5c8.9-2,17.7-3.9,26.6-5.7
		c8.9-1.8,17.7-3.4,26.6-5c8.9-1.6,17.7-3,26.6-4.4c8.9-1.4,17.7-2.7,26.6-3.9c8.9-1.2,17.7-2.4,26.6-3.5c8.9-1.1,17.7-2.2,26.6-3.2
		c8.9-1,17.7-2,26.6-2.9c8.9-0.9,17.7-1.8,26.6-2.6c8.9-0.8,17.7-1.6,26.6-2.4v257.7L-530.7,732z"/>
	<path fill="#4F9B1E" d="M-530.7,732c4.7-7.7,9.1-16.3,13.5-23.2c4.4-7,8.9-13.2,13.3-18.6c4.4-5.3,8.9-8.4,13.3-13.4
		c4.4-5,8.9-11.8,13.3-16.3c4.4-4.5,8.9-7.6,13.3-10.8c4.4-3.3,8.9-6.1,13.3-8.7c4.4-2.6,8.9-4.9,13.3-7.1c4.4-2.2,8.9-4.1,13.3-5.9
		c4.4-1.8,8.9-3.4,13.3-5c4.4-1.5,8.9-2.9,13.3-4.2c4.4-1.3,8.9-2.5,13.3-3.7c4.4-1.1,8.9-2.2,13.3-3.2c4.4-1,8.9-1.9,13.3-2.8
		c4.4-0.9,8.9-1.7,13.3-2.5c4.4-0.8,8.9-1.5,13.3-2.2c4.4-0.7,8.9-1.4,13.3-2c4.4-0.6,8.9-1.2,13.3-1.8c4.4-0.6,8.9-1.1,13.3-1.6
		c4.4-0.5,8.9-1,13.3-1.5c4.4-0.5,6.7-0.7,13.3-1.3c6.6-0.6,17.7-1.6,26.6-2.4c8.9-0.7,17.7-1.4,26.6-2c8.9-0.6,17.7-1.2,26.6-1.8
		c8.9-0.5,17.7-1,26.6-1.5c8.9-0.5,17.7-0.9,26.6-1.3c8.9-0.4,17.7-0.8,26.6-1.2c8.9-0.4,17.7-0.7,26.6-1.1c8.9-0.3,17.7-0.7,26.6-1
		c8.9-0.3,17.7-0.6,26.6-0.9c8.9-0.3,17.7-0.5,26.6-0.8v149.5L-530.7,732z"/>
	<path fill="#8DC63F" d="M-530.7,732c4.7-7.5,9.1-15.7,13.5-22.5c4.4-6.8,8.9-13,13.3-18.5c4.4-5.4,8.9-10,13.3-14.1
		c4.4-4.1,8.9-7.4,13.3-10.4c4.4-3,8.9-5.6,13.3-7.9c4.4-2.3,8.9-4.3,13.3-6.2c4.4-1.8,8.9-3.4,13.3-4.9c4.4-1.5,8.9-2.8,13.3-4
		c4.4-1.2,8.9-2.3,13.3-3.3c4.4-1,8.9-1.9,13.3-2.8c4.4-0.9,8.9-1.7,13.3-2.4c4.4-0.7,8.9-1.4,13.3-2.1c4.4-0.6,8.9-1.2,13.3-1.8
		c4.4-0.6,8.9-1.1,13.3-1.6c4.4-0.5,8.9-1,13.3-1.4c4.4-0.4,8.9-0.9,13.3-1.3c4.4-0.4,8.9-0.8,13.3-1.1c4.4-0.4,8.9-0.7,13.3-1
		c4.4-0.3,8.9-0.6,13.3-0.9c4.4-0.3,8.9-0.6,13.3-0.8v109.4L-530.7,732z"/>
	<path fill="#1C5C85" d="M-530.7,732c4.7-7,9.1-15.5,13.5-20.9c4.4-5.4,8.9-8.6,13.3-11.7c4.4-3.1,8.9-4.4,13.3-6.9
		c4.4-2.5,8.9-6.1,13.3-8.3c4.4-2.2,8.9-3.7,13.3-5.2c4.4-1.5,8.9-2.7,13.3-3.8c4.4-1.1,8.9-2.1,13.3-3c4.4-0.9,8.9-1.6,13.3-2.4
		c4.4-0.7,8.9-1.3,13.3-1.9c4.4-0.6,8.9-1.1,13.3-1.6c4.4-0.5,8.9-0.9,13.3-1.4c4.4-0.4,8.9-0.8,13.3-1.2c4.4-0.4,8.9-0.7,13.3-1
		c4.4-0.3,8.9-0.6,13.3-0.9c4.4-0.3,8.9-0.5,13.3-0.8c4.4-0.2,8.9-0.5,13.3-0.7c4.4-0.2,8.9-0.4,13.3-0.6c4.4-0.2,8.9-0.4,13.3-0.6
		c4.4-0.2,8.9-0.3,13.3-0.5c4.4-0.2,6.7-0.2,13.3-0.5c6.6-0.2,17.7-0.6,26.6-0.8c8.9-0.2,17.7-0.5,26.6-0.7
		c8.9-0.2,17.7-0.4,26.6-0.6c8.9-0.2,17.7-0.3,26.6-0.5c8.9-0.2,17.7-0.3,26.6-0.4c8.9-0.1,17.7-0.3,26.6-0.4
		c8.9-0.1,17.7-0.2,26.6-0.3c8.9-0.1,17.7-0.2,26.6-0.3c8.9-0.1,17.7-0.2,26.6-0.3c8.9-0.1,17.7-0.2,26.6-0.3v78.1L-530.7,732z"/>
	<path fill="#EA9E24" d="M-530.7,732c4.7-6.4,9.1-14.1,13.5-19.1c4.4-5,8.9-7.9,13.3-10.9c4.4-3.1,8.9-5.3,13.3-7.4
		c4.4-2,8.9-3.4,13.3-4.7c4.4-1.3,8.9-2.3,13.3-3.3c4.4-1,8.9-1.7,13.3-2.4c4.4-0.7,8.9-1.3,13.3-1.9c4.4-0.6,8.9-1,13.3-1.5
		c4.4-0.4,8.9-0.8,13.3-1.2c4.4-0.4,8.9-0.7,13.3-1c4.4-0.3,8.9-0.6,13.3-0.8c4.4-0.3,8.9-0.5,13.3-0.7c4.4-0.2,8.9-0.4,13.3-0.6
		c4.4-0.2,8.9-0.4,13.3-0.5c4.4-0.2,8.9-0.3,13.3-0.5c4.4-0.2,8.9-0.3,13.3-0.4c4.4-0.1,8.9-0.3,13.3-0.4c4.4-0.1,8.9-0.2,13.3-0.3
		c4.4-0.1,8.9-0.2,13.3-0.3c4.4-0.1,8.9-0.2,13.3-0.3v57.1L-530.7,732z"/>
	<path fill="#CD1D23" d="M-530.7,732c4.7-5.3,9.1-11.9,13.5-15.8c4.4-3.9,8.9-5.5,13.3-7.6c4.4-2,8.9-3.4,13.3-4.7
		c4.4-1.2,8.9-2,13.3-2.8c4.4-0.8,8.9-1.3,13.3-1.9c4.4-0.5,8.9-1,13.3-1.4c4.4-0.4,8.9-0.7,13.3-1c4.4-0.3,8.9-0.6,13.3-0.8
		c4.4-0.2,8.9-0.4,13.3-0.6c4.4-0.2,8.9-0.4,13.3-0.5c4.4-0.2,8.9-0.3,13.3-0.4c4.4-0.1,8.9-0.3,13.3-0.4c4.4-0.1,8.9-0.2,13.3-0.3
		c4.4-0.1,8.9-0.2,13.3-0.3c4.4-0.1,8.9-0.2,13.3-0.2c4.4-0.1,8.9-0.2,13.3-0.2c4.4-0.1,8.9-0.1,13.3-0.2c4.4-0.1,8.9-0.1,13.3-0.2
		c4.4-0.1,8.9-0.1,13.3-0.2c4.4,0,8.9-0.1,13.3-0.1v38.4L-530.7,732z"/>
	<path fill="#D6BC3E" d="M-530.7,732c4.7-3.6,9.1-8.5,13.5-10.9c3.7-2,9.6-2.5,13.3-3.2c4.4-0.9,8.9-1.6,13.3-2.2
		c4.4-0.6,8.9-0.9,13.3-1.2c4.4-0.3,8.9-0.5,13.3-0.8c4.4-0.2,8.9-0.4,13.3-0.5c4.4-0.2,8.9-0.3,13.3-0.4c4.4-0.1,8.9-0.2,13.3-0.3
		c4.4-0.1,8.9-0.2,13.3-0.2c4.4-0.1,8.9-0.1,13.3-0.2c4.4-0.1,8.9-0.1,13.3-0.2c4.4-0.1,8.9-0.1,13.3-0.1c4.4,0,8.9-0.1,13.3-0.1
		c4.4,0,8.9-0.1,13.3-0.1c4.4,0,8.9-0.1,13.3-0.1c4.4,0,8.9-0.1,13.3-0.1c4.4,0,8.9,0,13.3-0.1c4.4,0,8.9,0,13.3-0.1
		c4.4,0,8.9,0,13.3-0.1c4.4,0,8.9,0,13.3-0.1v20.2L-530.7,732z"/>
</g>
<path fill="#86B8E0" d="M134.5,730.8"/>
<g>
	<path fill="#1C5C85" d="M-273.9,213.6c-1.2,0-2.2,0.4-2.8,1.3s-1,2-1,3.5c0,1.6,0.3,2.8,1,3.6s1.6,1.2,2.9,1.2
		c0.5,0,1.1-0.1,1.6-0.2s1-0.2,1.6-0.4v1.8c-1,0.4-2.2,0.6-3.4,0.6c-1.9,0-3.3-0.6-4.3-1.7s-1.5-2.8-1.5-4.9c0-1.3,0.2-2.5,0.7-3.5
		s1.2-1.8,2.1-2.3s2-0.8,3.3-0.8c1.3,0,2.5,0.3,3.6,0.8l-0.8,1.7c-0.4-0.2-0.9-0.4-1.4-0.5C-272.9,213.7-273.4,213.6-273.9,213.6z"
		/>
	<path fill="#1C5C85" d="M-259.6,219.9c0,1.6-0.4,2.8-1.2,3.7s-1.9,1.3-3.4,1.3c-0.9,0-1.7-0.2-2.4-0.6s-1.2-1-1.6-1.8
		s-0.6-1.7-0.6-2.7c0-1.6,0.4-2.8,1.2-3.7s1.9-1.3,3.4-1.3c1.4,0,2.5,0.5,3.3,1.4C-260,217.2-259.6,218.4-259.6,219.9z
		 M-266.6,219.9c0,2.2,0.8,3.4,2.5,3.4c1.6,0,2.5-1.1,2.5-3.4c0-2.2-0.8-3.3-2.5-3.3c-0.9,0-1.5,0.3-1.9,0.9
		S-266.6,218.9-266.6,219.9z"/>
	<path fill="#1C5C85" d="M-248.6,219.9c0,1.6-0.4,2.8-1.2,3.7s-1.9,1.3-3.4,1.3c-0.9,0-1.7-0.2-2.4-0.6s-1.2-1-1.6-1.8
		s-0.6-1.7-0.6-2.7c0-1.6,0.4-2.8,1.2-3.7s1.9-1.3,3.4-1.3c1.4,0,2.5,0.5,3.3,1.4C-249,217.2-248.6,218.4-248.6,219.9z
		 M-255.6,219.9c0,2.2,0.8,3.4,2.5,3.4c1.6,0,2.5-1.1,2.5-3.4c0-2.2-0.8-3.3-2.5-3.3c-0.9,0-1.5,0.3-1.9,0.9
		S-255.6,218.9-255.6,219.9z"/>
	<path fill="#1C5C85" d="M-244.1,224.8h-2.1v-13.7h2.1V224.8z"/>
	<path fill="#1C5C85" d="M-235.1,224.8l-0.4-1.4h-0.1c-0.5,0.6-0.9,1-1.4,1.2c-0.5,0.2-1.1,0.3-1.8,0.3c-1,0-1.7-0.3-2.2-0.8
		s-0.8-1.2-0.8-2.2c0-1,0.4-1.8,1.1-2.3s1.9-0.8,3.4-0.8l1.7-0.1v-0.5c0-0.6-0.1-1.1-0.4-1.4c-0.3-0.3-0.7-0.5-1.3-0.5
		c-0.5,0-1,0.1-1.4,0.2s-0.9,0.3-1.3,0.5l-0.7-1.5c0.5-0.3,1.1-0.5,1.7-0.6c0.6-0.1,1.2-0.2,1.8-0.2c1.2,0,2.2,0.3,2.8,0.8
		s0.9,1.4,0.9,2.5v6.5H-235.1z M-238.2,223.4c0.8,0,1.4-0.2,1.8-0.6c0.5-0.4,0.7-1,0.7-1.8v-0.8l-1.2,0.1c-1,0-1.7,0.2-2.1,0.5
		c-0.4,0.3-0.7,0.7-0.7,1.3c0,0.4,0.1,0.8,0.4,1C-239.1,223.3-238.7,223.4-238.2,223.4z"/>
	<path fill="#1C5C85" d="M-222.2,224.8h-2.1v-6c0-0.8-0.2-1.3-0.5-1.7s-0.8-0.6-1.4-0.6c-0.9,0-1.5,0.3-1.9,0.8s-0.6,1.4-0.6,2.6
		v4.8h-2.1v-9.7h1.6l0.3,1.3h0.1c0.3-0.5,0.7-0.8,1.2-1.1s1.1-0.4,1.8-0.4c2.3,0,3.5,1.2,3.5,3.6V224.8z"/>
	<path fill="#1C5C85" d="M-215.7,223.3c0.5,0,1-0.1,1.5-0.2v1.6c-0.2,0.1-0.5,0.2-0.9,0.2s-0.7,0.1-1.1,0.1c-2,0-2.9-1-2.9-3.1v-5.2
		h-1.3v-0.9l1.4-0.8l0.7-2.1h1.3v2.2h2.8v1.6h-2.8v5.2c0,0.5,0.1,0.9,0.4,1.1C-216.4,223.2-216.1,223.3-215.7,223.3z"/>
	<path fill="#1C5C85" d="M-205.2,224.8h-2.1V212h7.2v1.8h-5.2v4h4.8v1.8h-4.8V224.8z"/>
	<path fill="#1C5C85" d="M-195.9,224.8h-2.1v-13.7h2.1V224.8z"/>
	<path fill="#1C5C85" d="M-184.3,219.9c0,1.6-0.4,2.8-1.2,3.7s-1.9,1.3-3.4,1.3c-0.9,0-1.7-0.2-2.4-0.6s-1.2-1-1.6-1.8
		s-0.6-1.7-0.6-2.7c0-1.6,0.4-2.8,1.2-3.7s1.9-1.3,3.4-1.3c1.4,0,2.5,0.5,3.3,1.4C-184.7,217.2-184.3,218.4-184.3,219.9z
		 M-191.4,219.9c0,2.2,0.8,3.4,2.5,3.4c1.6,0,2.5-1.1,2.5-3.4c0-2.2-0.8-3.3-2.5-3.3c-0.9,0-1.5,0.3-1.9,0.9
		C-191.2,218-191.4,218.9-191.4,219.9z"/>
	<path fill="#1C5C85" d="M-174,224.8l-1.3-4.5c-0.2-0.5-0.4-1.6-0.8-3.3h-0.1c-0.3,1.6-0.6,2.7-0.8,3.4l-1.3,4.5h-2.3l-2.7-9.7h2.1
		l1.2,4.8c0.3,1.2,0.5,2.2,0.6,3h0.1c0.1-0.4,0.1-0.9,0.3-1.5c0.1-0.6,0.2-1,0.3-1.2l1.5-5.1h2.3l1.4,5.1c0.1,0.3,0.2,0.7,0.3,1.3
		c0.1,0.6,0.2,1.1,0.2,1.4h0.1c0.1-0.7,0.3-1.7,0.6-3l1.3-4.8h2.1l-2.7,9.7H-174z"/>
	<path fill="#1C5C85" d="M-163.3,219.9c0-1.6,0.2-3,0.7-4.4c0.5-1.4,1.1-2.5,2-3.6h1.8c-0.8,1.1-1.4,2.3-1.9,3.7s-0.7,2.8-0.7,4.2
		s0.2,2.8,0.7,4.2s1.1,2.6,1.9,3.6h-1.8c-0.9-1-1.5-2.2-2-3.5S-163.3,221.4-163.3,219.9z"/>
	<path fill="#1C5C85" d="M-156.7,224.8V212h2.1v11h5.4v1.8H-156.7z"/>
	<path fill="#1C5C85" d="M-138.4,215.8c0,1.3-0.4,2.4-1.3,3.1s-2.1,1.1-3.8,1.1h-1.3v4.8h-2.1V212h3.7c1.6,0,2.8,0.3,3.6,1
		C-138.8,213.6-138.4,214.6-138.4,215.8z M-144.8,218.2h1.1c1.1,0,1.9-0.2,2.4-0.6s0.8-1,0.8-1.8c0-0.7-0.2-1.3-0.7-1.7
		s-1.2-0.5-2.1-0.5h-1.5V218.2z"/>
	<path fill="#1C5C85" d="M-130.3,224.8l-3.7-10.7h-0.1c0.1,1.6,0.1,3.1,0.1,4.5v6.2h-1.9V212h3l3.6,10.2h0.1l3.7-10.2h3v12.8h-2
		v-6.4c0-0.6,0-1.5,0-2.5c0-1,0.1-1.6,0.1-1.9h-0.1l-3.9,10.7H-130.3z"/>
	<path fill="#1C5C85" d="M-115.9,219.9c0,1.5-0.2,3-0.7,4.3c-0.5,1.3-1.1,2.5-2,3.5h-1.8c0.8-1.1,1.4-2.3,1.9-3.6
		c0.4-1.3,0.6-2.7,0.6-4.1c0-1.4-0.2-2.8-0.7-4.2c-0.4-1.4-1.1-2.6-1.9-3.7h1.8c0.9,1,1.5,2.2,2,3.6
		C-116.2,216.9-115.9,218.3-115.9,219.9z"/>
</g>
<g>
	<path fill="#1C5C85" d="M-275.6,774.3c-1.2,0-2.2,0.4-2.8,1.3s-1,2-1,3.5c0,1.6,0.3,2.8,1,3.6s1.6,1.2,2.9,1.2
		c0.5,0,1.1-0.1,1.6-0.2s1-0.2,1.6-0.4v1.8c-1,0.4-2.2,0.6-3.4,0.6c-1.9,0-3.3-0.6-4.3-1.7s-1.5-2.8-1.5-4.9c0-1.3,0.2-2.5,0.7-3.5
		s1.2-1.8,2.1-2.3s2-0.8,3.3-0.8c1.3,0,2.5,0.3,3.6,0.8l-0.8,1.7c-0.4-0.2-0.9-0.4-1.4-0.5C-274.5,774.3-275,774.3-275.6,774.3z"/>
	<path fill="#1C5C85" d="M-261.2,780.6c0,1.6-0.4,2.8-1.2,3.7s-1.9,1.3-3.4,1.3c-0.9,0-1.7-0.2-2.4-0.6s-1.2-1-1.6-1.8
		s-0.6-1.7-0.6-2.7c0-1.6,0.4-2.8,1.2-3.7s1.9-1.3,3.4-1.3c1.4,0,2.5,0.5,3.3,1.4C-261.6,777.9-261.2,779.1-261.2,780.6z
		 M-268.3,780.6c0,2.2,0.8,3.4,2.5,3.4c1.6,0,2.5-1.1,2.5-3.4c0-2.2-0.8-3.3-2.5-3.3c-0.9,0-1.5,0.3-1.9,0.9
		S-268.3,779.5-268.3,780.6z"/>
	<path fill="#1C5C85" d="M-250.2,780.6c0,1.6-0.4,2.8-1.2,3.7s-1.9,1.3-3.4,1.3c-0.9,0-1.7-0.2-2.4-0.6s-1.2-1-1.6-1.8
		s-0.6-1.7-0.6-2.7c0-1.6,0.4-2.8,1.2-3.7s1.9-1.3,3.4-1.3c1.4,0,2.5,0.5,3.3,1.4C-250.6,777.9-250.2,779.1-250.2,780.6z
		 M-257.3,780.6c0,2.2,0.8,3.4,2.5,3.4c1.6,0,2.5-1.1,2.5-3.4c0-2.2-0.8-3.3-2.5-3.3c-0.9,0-1.5,0.3-1.9,0.9
		S-257.3,779.5-257.3,780.6z"/>
	<path fill="#1C5C85" d="M-245.8,785.5h-2.1v-13.7h2.1V785.5z"/>
	<path fill="#1C5C85" d="M-236.7,785.5l-0.4-1.4h-0.1c-0.5,0.6-0.9,1-1.4,1.2c-0.5,0.2-1.1,0.3-1.8,0.3c-1,0-1.7-0.3-2.2-0.8
		s-0.8-1.2-0.8-2.2c0-1,0.4-1.8,1.1-2.3s1.9-0.8,3.4-0.8l1.7-0.1V779c0-0.6-0.1-1.1-0.4-1.4c-0.3-0.3-0.7-0.5-1.3-0.5
		c-0.5,0-1,0.1-1.4,0.2s-0.9,0.3-1.3,0.5l-0.7-1.5c0.5-0.3,1.1-0.5,1.7-0.6c0.6-0.1,1.2-0.2,1.8-0.2c1.2,0,2.2,0.3,2.8,0.8
		s0.9,1.4,0.9,2.5v6.5H-236.7z M-239.8,784.1c0.8,0,1.4-0.2,1.8-0.6c0.5-0.4,0.7-1,0.7-1.8v-0.8l-1.2,0.1c-1,0-1.7,0.2-2.1,0.5
		c-0.4,0.3-0.7,0.7-0.7,1.3c0,0.4,0.1,0.8,0.4,1C-240.7,784-240.3,784.1-239.8,784.1z"/>
	<path fill="#1C5C85" d="M-223.8,785.5h-2.1v-6c0-0.8-0.2-1.3-0.5-1.7s-0.8-0.6-1.4-0.6c-0.9,0-1.5,0.3-1.9,0.8s-0.6,1.4-0.6,2.6
		v4.8h-2.1v-9.7h1.6l0.3,1.3h0.1c0.3-0.5,0.7-0.8,1.2-1.1s1.1-0.4,1.8-0.4c2.3,0,3.5,1.2,3.5,3.6V785.5z"/>
	<path fill="#1C5C85" d="M-217.3,784c0.5,0,1-0.1,1.5-0.2v1.6c-0.2,0.1-0.5,0.2-0.9,0.2c-0.4,0.1-0.7,0.1-1.1,0.1
		c-2,0-2.9-1-2.9-3.1v-5.2h-1.3v-0.9l1.4-0.8l0.7-2.1h1.3v2.2h2.8v1.6h-2.8v5.2c0,0.5,0.1,0.9,0.4,1.1
		C-218.1,783.9-217.7,784-217.3,784z"/>
	<path fill="#1C5C85" d="M-206.9,785.5h-2.1v-12.8h7.3v1.8h-5.2v4h4.8v1.8h-4.8V785.5z"/>
	<path fill="#1C5C85" d="M-197.6,785.5h-2.1v-13.7h2.1V785.5z"/>
	<path fill="#1C5C85" d="M-186,780.6c0,1.6-0.4,2.8-1.2,3.7s-1.9,1.3-3.4,1.3c-0.9,0-1.7-0.2-2.4-0.6s-1.2-1-1.6-1.8
		s-0.6-1.7-0.6-2.7c0-1.6,0.4-2.8,1.2-3.7s1.9-1.3,3.4-1.3c1.4,0,2.5,0.5,3.3,1.4C-186.4,777.9-186,779.1-186,780.6z M-193.1,780.6
		c0,2.2,0.8,3.4,2.5,3.4c1.6,0,2.5-1.1,2.5-3.4c0-2.2-0.8-3.3-2.5-3.3c-0.9,0-1.5,0.3-1.9,0.9C-192.9,778.7-193.1,779.5-193.1,780.6
		z"/>
	<path fill="#1C5C85" d="M-175.6,785.5l-1.3-4.5c-0.2-0.5-0.4-1.6-0.8-3.3h-0.1c-0.3,1.6-0.6,2.7-0.8,3.4l-1.3,4.5h-2.3l-2.7-9.7
		h2.1l1.2,4.8c0.3,1.2,0.5,2.2,0.6,3h0.1c0.1-0.4,0.1-0.9,0.3-1.5c0.1-0.6,0.2-1,0.3-1.2l1.5-5.1h2.3l1.4,5.1
		c0.1,0.3,0.2,0.7,0.3,1.3c0.1,0.6,0.2,1.1,0.2,1.4h0.1c0.1-0.7,0.3-1.7,0.6-3l1.3-4.8h2.1l-2.7,9.7H-175.6z"/>
	<path fill="#1C5C85" d="M-165,780.6c0-1.6,0.2-3,0.7-4.4c0.5-1.4,1.1-2.5,2-3.6h1.8c-0.8,1.1-1.4,2.3-1.9,3.7s-0.7,2.8-0.7,4.2
		s0.2,2.8,0.7,4.2s1.1,2.6,1.9,3.6h-1.8c-0.9-1-1.5-2.2-2-3.5S-165,782.1-165,780.6z"/>
	<path fill="#1C5C85" d="M-153.1,778.5h4.7v6.5c-0.8,0.3-1.5,0.4-2.2,0.5c-0.7,0.1-1.5,0.2-2.3,0.2c-1.9,0-3.4-0.6-4.5-1.7
		c-1.1-1.2-1.6-2.8-1.6-4.9c0-2.1,0.6-3.7,1.8-4.9c1.2-1.2,2.8-1.8,4.9-1.8c1.3,0,2.6,0.3,3.8,0.8l-0.7,1.7c-1-0.5-2.1-0.7-3.1-0.7
		c-1.4,0-2.5,0.4-3.3,1.3s-1.2,2-1.2,3.5c0,1.6,0.4,2.8,1.1,3.6c0.7,0.8,1.8,1.2,3.1,1.2c0.7,0,1.4-0.1,2.2-0.3v-3.3h-2.7V778.5z"/>
	<path fill="#1C5C85" d="M-136.7,776.5c0,1.3-0.4,2.4-1.3,3.1s-2.1,1.1-3.8,1.1h-1.3v4.8h-2.1v-12.8h3.7c1.6,0,2.8,0.3,3.6,1
		C-137.1,774.3-136.7,775.2-136.7,776.5z M-143.1,778.9h1.1c1.1,0,1.9-0.2,2.4-0.6s0.8-1,0.8-1.8c0-0.7-0.2-1.3-0.7-1.7
		s-1.2-0.5-2.1-0.5h-1.5V778.9z"/>
	<path fill="#1C5C85" d="M-128.6,785.5l-3.7-10.7h-0.1c0.1,1.6,0.2,3.1,0.2,4.5v6.2h-1.9v-12.8h3l3.6,10.2h0.1l3.7-10.2h3v12.8h-2
		v-6.4c0-0.6,0-1.5,0-2.5c0-1,0.1-1.6,0.1-1.9h-0.1l-3.9,10.7H-128.6z"/>
	<path fill="#1C5C85" d="M-114.3,780.6c0,1.5-0.2,3-0.7,4.3c-0.5,1.3-1.1,2.5-2,3.5h-1.8c0.8-1.1,1.4-2.3,1.9-3.6
		c0.4-1.3,0.6-2.7,0.6-4.1c0-1.4-0.2-2.8-0.7-4.2c-0.4-1.4-1.1-2.6-1.9-3.7h1.8c0.9,1,1.5,2.2,2,3.6
		C-114.5,777.6-114.3,779-114.3,780.6z"/>
</g>
<g>
	<g>
		<path fill="#1C5C85" d="M-493.9,837.5l-1.5-11.7h-0.1c0,0.4-0.1,1-0.3,1.8c-0.1,0.8-0.2,1.4-0.3,1.8l-1.7,8.1h-1.5l2.8-13.1h2.2
			l1.3,10.8h0.1l5.9-10.8h2.4l-2.7,13.1h-1.6c0.8-3.5,1.3-6.3,1.7-8.1c0.4-1.9,0.7-3.1,0.8-3.5h-0.1l-6.4,11.7H-493.9z"/>
		<path fill="#1C5C85" d="M-478.8,827.6c1.1,0,2,0.3,2.7,1c0.7,0.7,1,1.6,1,2.8c0,1.1-0.2,2.2-0.6,3.2c-0.4,1-1,1.8-1.8,2.3
			c-0.7,0.5-1.6,0.8-2.5,0.8c-1.2,0-2.1-0.3-2.7-1s-1-1.6-1-2.8c0-1.1,0.2-2.2,0.7-3.2c0.4-1,1-1.8,1.8-2.3
			S-479.7,827.6-478.8,827.6z M-476.7,831.1c0-0.7-0.2-1.2-0.6-1.7c-0.4-0.4-0.9-0.6-1.5-0.6c-0.7,0-1.2,0.2-1.8,0.7
			c-0.5,0.4-0.9,1.1-1.2,1.8c-0.3,0.8-0.4,1.7-0.4,2.6c0,0.8,0.2,1.4,0.6,1.8s0.9,0.6,1.6,0.6c0.6,0,1.2-0.2,1.7-0.7
			s0.9-1.1,1.2-1.9C-476.8,833.1-476.7,832.2-476.7,831.1z"/>
		<path fill="#1C5C85" d="M-468.5,827.5c1.2,0,2,0.6,2.5,1.7h0.1c0.1-0.9,0.2-1.8,0.4-2.5l0.7-3.2h1.5l-3,14h-1.2l0.2-1.9h-0.1
			c-0.6,0.8-1.2,1.3-1.7,1.6c-0.5,0.3-1.1,0.5-1.6,0.5c-0.8,0-1.5-0.3-2-0.9c-0.5-0.6-0.7-1.4-0.7-2.4c0-1.3,0.2-2.5,0.6-3.5
			s1-1.9,1.7-2.5C-470.2,827.8-469.4,827.5-468.5,827.5z M-470.2,836.5c0.6,0,1.1-0.3,1.7-0.8c0.6-0.6,1.1-1.3,1.4-2.1
			s0.5-1.8,0.5-2.7c0-0.7-0.2-1.2-0.5-1.5c-0.3-0.3-0.8-0.5-1.4-0.5c-0.6,0-1.2,0.2-1.7,0.7c-0.5,0.5-0.9,1.2-1.2,2.1
			c-0.3,0.9-0.5,1.8-0.5,2.8C-471.8,835.8-471.3,836.5-470.2,836.5z"/>
		<path fill="#1C5C85" d="M-459.2,837.7c-1.1,0-2-0.3-2.6-1c-0.6-0.7-0.9-1.6-0.9-2.7c0-1.1,0.2-2.2,0.7-3.2c0.4-1,1-1.8,1.8-2.4
			c0.7-0.6,1.5-0.9,2.4-0.9c0.9,0,1.6,0.2,2.1,0.6s0.7,1,0.7,1.7c0,1.1-0.5,1.9-1.5,2.5c-1,0.6-2.4,0.9-4.3,0.9h-0.3l0,0.7
			c0,0.8,0.2,1.4,0.6,1.8c0.4,0.4,0.9,0.7,1.7,0.7c0.4,0,0.8-0.1,1.2-0.2c0.4-0.1,0.9-0.3,1.5-0.6v1.3c-0.6,0.3-1.1,0.4-1.5,0.6
			S-458.7,837.7-459.2,837.7z M-458,828.8c-0.6,0-1.2,0.3-1.7,0.8s-1,1.3-1.2,2.3h0.1c1.4,0,2.4-0.2,3.1-0.5s1.1-0.9,1.1-1.6
			c0-0.3-0.1-0.6-0.3-0.8C-457.1,828.9-457.5,828.8-458,828.8z"/>
		<path fill="#1C5C85" d="M-452.5,837.5h-1.5l3-14h1.5L-452.5,837.5z"/>
		<path fill="#1C5C85" d="M-443,837.5l4.9-10.8h-6.5v-2.3h9.4v1.7l-5,11.4H-443z"/>
		<path fill="#1C5C85" d="M-424.6,837.5h-9.2v-1.9l3.3-3.3c1-1,1.6-1.7,1.9-2.1c0.3-0.4,0.5-0.7,0.6-1.1c0.1-0.3,0.2-0.7,0.2-1
			c0-0.5-0.1-0.9-0.4-1.2c-0.3-0.3-0.7-0.4-1.2-0.4c-0.5,0-1,0.1-1.5,0.4c-0.5,0.2-1,0.6-1.5,1l-1.5-1.8c0.6-0.6,1.2-0.9,1.6-1.2
			c0.4-0.2,0.9-0.4,1.4-0.5c0.5-0.1,1.1-0.2,1.7-0.2c0.8,0,1.5,0.1,2.2,0.4c0.6,0.3,1.1,0.7,1.5,1.3c0.3,0.5,0.5,1.2,0.5,1.9
			c0,0.6-0.1,1.2-0.3,1.7c-0.2,0.5-0.5,1.1-1,1.6c-0.4,0.6-1.2,1.4-2.4,2.4l-1.7,1.6v0.1h5.7V837.5z"/>
		<path fill="#1C5C85" d="M-414.2,831c0,2.3-0.4,4-1.1,5.1c-0.8,1.1-1.9,1.7-3.5,1.7c-1.5,0-2.7-0.6-3.4-1.7c-0.8-1.1-1.2-2.8-1.2-5
			c0-2.3,0.4-4,1.1-5.1c0.7-1.1,1.9-1.7,3.5-1.7c1.5,0,2.7,0.6,3.4,1.7C-414.6,827.1-414.2,828.7-414.2,831z M-420.6,831
			c0,1.6,0.1,2.8,0.4,3.5c0.3,0.7,0.7,1,1.4,1c0.6,0,1.1-0.4,1.4-1.1c0.3-0.7,0.4-1.9,0.4-3.5c0-1.6-0.1-2.8-0.4-3.5
			c-0.3-0.7-0.8-1.1-1.4-1.1c-0.7,0-1.1,0.4-1.4,1.1C-420.5,828.2-420.6,829.3-420.6,831z"/>
	</g>
	<path fill="#D6BC3E" d="M-517.2,825.6h13.5l-4.3,12.1h-13.5L-517.2,825.6z"/>
</g>
<g>
	<g>
		<path fill="#1C5C85" d="M-495.1,866.9l-1.5-11.7h-0.1c0,0.4-0.1,1-0.3,1.8c-0.1,0.8-0.2,1.4-0.3,1.8l-1.7,8.1h-1.5l2.8-13.1h2.2
			l1.3,10.8h0.1l5.9-10.8h2.4l-2.7,13.1h-1.6c0.8-3.5,1.3-6.3,1.7-8.1c0.4-1.9,0.7-3.1,0.8-3.5h-0.1l-6.4,11.7H-495.1z"/>
		<path fill="#1C5C85" d="M-480,857c1.1,0,2,0.3,2.7,1c0.7,0.7,1,1.6,1,2.8c0,1.1-0.2,2.2-0.6,3.2c-0.4,1-1,1.8-1.8,2.3
			c-0.7,0.5-1.6,0.8-2.5,0.8c-1.2,0-2.1-0.3-2.7-1s-1-1.6-1-2.8c0-1.1,0.2-2.2,0.7-3.2c0.4-1,1-1.8,1.8-2.3S-480.9,857-480,857z
			 M-477.8,860.6c0-0.7-0.2-1.2-0.6-1.7c-0.4-0.4-0.9-0.6-1.5-0.6c-0.7,0-1.2,0.2-1.8,0.7c-0.5,0.4-0.9,1.1-1.2,1.8
			c-0.3,0.8-0.4,1.7-0.4,2.6c0,0.8,0.2,1.4,0.6,1.8s0.9,0.6,1.6,0.6c0.6,0,1.2-0.2,1.7-0.7s0.9-1.1,1.2-1.9
			C-478,862.5-477.8,861.6-477.8,860.6z"/>
		<path fill="#1C5C85" d="M-469.7,856.9c1.2,0,2,0.6,2.5,1.7h0.1c0.1-0.9,0.2-1.8,0.4-2.5l0.7-3.2h1.5l-3,14h-1.2l0.2-1.9h-0.1
			c-0.6,0.8-1.2,1.3-1.7,1.6c-0.5,0.3-1.1,0.5-1.6,0.5c-0.8,0-1.5-0.3-2-0.9c-0.5-0.6-0.7-1.4-0.7-2.4c0-1.3,0.2-2.5,0.6-3.5
			s1-1.9,1.7-2.5C-471.4,857.2-470.6,856.9-469.7,856.9z M-471.4,865.9c0.6,0,1.1-0.3,1.7-0.8c0.6-0.6,1.1-1.3,1.4-2.1
			s0.5-1.8,0.5-2.7c0-0.7-0.2-1.2-0.5-1.5c-0.3-0.3-0.8-0.5-1.4-0.5c-0.6,0-1.2,0.2-1.7,0.7c-0.5,0.5-0.9,1.2-1.2,2.1
			c-0.3,0.9-0.5,1.8-0.5,2.8C-473,865.2-472.4,865.9-471.4,865.9z"/>
		<path fill="#1C5C85" d="M-460.3,867.1c-1.1,0-2-0.3-2.6-1c-0.6-0.7-0.9-1.6-0.9-2.7c0-1.1,0.2-2.2,0.7-3.2c0.4-1,1-1.8,1.8-2.4
			c0.7-0.6,1.5-0.9,2.4-0.9c0.9,0,1.6,0.2,2.1,0.6s0.7,1,0.7,1.7c0,1.1-0.5,1.9-1.5,2.5c-1,0.6-2.4,0.9-4.3,0.9h-0.3l0,0.7
			c0,0.8,0.2,1.4,0.6,1.8c0.4,0.4,0.9,0.7,1.7,0.7c0.4,0,0.8-0.1,1.2-0.2c0.4-0.1,0.9-0.3,1.5-0.6v1.3c-0.6,0.3-1.1,0.4-1.5,0.6
			S-459.8,867.1-460.3,867.1z M-459.1,858.2c-0.6,0-1.2,0.3-1.7,0.8s-1,1.3-1.2,2.3h0.1c1.4,0,2.4-0.2,3.1-0.5s1.1-0.9,1.1-1.6
			c0-0.3-0.1-0.6-0.3-0.8C-458.3,858.3-458.6,858.2-459.1,858.2z"/>
		<path fill="#1C5C85" d="M-453.7,866.9h-1.5l3-14h1.5L-453.7,866.9z"/>
		<path fill="#1C5C85" d="M-444.2,866.9l4.9-10.8h-6.5v-2.3h9.4v1.7l-5,11.4H-444.2z"/>
		<path fill="#1C5C85" d="M-425.8,866.9h-9.2V865l3.3-3.3c1-1,1.6-1.7,1.9-2.1c0.3-0.4,0.5-0.7,0.6-1.1c0.1-0.3,0.2-0.7,0.2-1
			c0-0.5-0.1-0.9-0.4-1.2c-0.3-0.3-0.7-0.4-1.2-0.4c-0.5,0-1,0.1-1.5,0.4c-0.5,0.2-1,0.6-1.5,1l-1.5-1.8c0.6-0.6,1.2-0.9,1.6-1.2
			c0.4-0.2,0.9-0.4,1.4-0.5c0.5-0.1,1.1-0.2,1.7-0.2c0.8,0,1.5,0.1,2.2,0.4c0.6,0.3,1.1,0.7,1.5,1.3c0.3,0.5,0.5,1.2,0.5,1.9
			c0,0.6-0.1,1.2-0.3,1.7c-0.2,0.5-0.5,1.1-1,1.6c-0.4,0.6-1.2,1.4-2.4,2.4l-1.7,1.6v0.1h5.7V866.9z"/>
		<path fill="#1C5C85" d="M-417.6,866.9h-2.8v-7.6l0-1.2l0-1.4c-0.5,0.5-0.8,0.8-1,0.9l-1.5,1.2l-1.3-1.7l4.2-3.4h2.3V866.9z"/>
	</g>
	<path fill="#CD1D23" d="M-517.2,855h13.5l-4.3,12.1h-13.5L-517.2,855z"/>
</g>
<g>
	<g>
		<path fill="#1C5C85" d="M-314.9,837.5l-1.5-11.7h-0.1c0,0.4-0.1,1-0.3,1.8c-0.1,0.8-0.2,1.4-0.3,1.8l-1.7,8.1h-1.5l2.8-13.1h2.2
			l1.3,10.8h0.1l5.9-10.8h2.4l-2.7,13.1h-1.6c0.8-3.5,1.3-6.3,1.7-8.1c0.4-1.9,0.7-3.1,0.8-3.5h-0.1l-6.4,11.7H-314.9z"/>
		<path fill="#1C5C85" d="M-299.8,827.6c1.1,0,2,0.3,2.7,1c0.7,0.7,1,1.6,1,2.8c0,1.1-0.2,2.2-0.6,3.2c-0.4,1-1,1.8-1.8,2.3
			c-0.7,0.5-1.6,0.8-2.5,0.8c-1.2,0-2.1-0.3-2.7-1s-1-1.6-1-2.8c0-1.1,0.2-2.2,0.7-3.2c0.4-1,1-1.8,1.8-2.3
			S-300.7,827.6-299.8,827.6z M-297.6,831.1c0-0.7-0.2-1.2-0.6-1.7c-0.4-0.4-0.9-0.6-1.5-0.6c-0.7,0-1.2,0.2-1.8,0.7
			c-0.5,0.4-0.9,1.1-1.2,1.8c-0.3,0.8-0.4,1.7-0.4,2.6c0,0.8,0.2,1.4,0.6,1.8s0.9,0.6,1.6,0.6c0.6,0,1.2-0.2,1.7-0.7
			s0.9-1.1,1.2-1.9C-297.8,833.1-297.6,832.2-297.6,831.1z"/>
		<path fill="#1C5C85" d="M-289.5,827.5c1.2,0,2,0.6,2.5,1.7h0.1c0.1-0.9,0.2-1.8,0.4-2.5l0.7-3.2h1.5l-3,14h-1.2l0.2-1.9h-0.1
			c-0.6,0.8-1.2,1.3-1.7,1.6c-0.5,0.3-1.1,0.5-1.6,0.5c-0.8,0-1.5-0.3-2-0.9c-0.5-0.6-0.7-1.4-0.7-2.4c0-1.3,0.2-2.5,0.6-3.5
			s1-1.9,1.7-2.5C-291.2,827.8-290.4,827.5-289.5,827.5z M-291.2,836.5c0.6,0,1.1-0.3,1.7-0.8c0.6-0.6,1.1-1.3,1.4-2.1
			s0.5-1.8,0.5-2.7c0-0.7-0.2-1.2-0.5-1.5c-0.3-0.3-0.8-0.5-1.4-0.5c-0.6,0-1.2,0.2-1.7,0.7c-0.5,0.5-0.9,1.2-1.2,2.1
			c-0.3,0.9-0.5,1.8-0.5,2.8C-292.8,835.8-292.2,836.5-291.2,836.5z"/>
		<path fill="#1C5C85" d="M-280.2,837.7c-1.1,0-2-0.3-2.6-1c-0.6-0.7-0.9-1.6-0.9-2.7c0-1.1,0.2-2.2,0.7-3.2c0.4-1,1-1.8,1.8-2.4
			c0.7-0.6,1.5-0.9,2.4-0.9c0.9,0,1.6,0.2,2.1,0.6s0.7,1,0.7,1.7c0,1.1-0.5,1.9-1.5,2.5c-1,0.6-2.4,0.9-4.3,0.9h-0.3l0,0.7
			c0,0.8,0.2,1.4,0.6,1.8c0.4,0.4,0.9,0.7,1.7,0.7c0.4,0,0.8-0.1,1.2-0.2c0.4-0.1,0.9-0.3,1.5-0.6v1.3c-0.6,0.3-1.1,0.4-1.5,0.6
			S-279.6,837.7-280.2,837.7z M-278.9,828.8c-0.6,0-1.2,0.3-1.7,0.8s-1,1.3-1.2,2.3h0.1c1.4,0,2.4-0.2,3.1-0.5s1.1-0.9,1.1-1.6
			c0-0.3-0.1-0.6-0.3-0.8C-278.1,828.9-278.4,828.8-278.9,828.8z"/>
		<path fill="#1C5C85" d="M-273.5,837.5h-1.5l3-14h1.5L-273.5,837.5z"/>
		<path fill="#1C5C85" d="M-264,837.5l4.9-10.8h-6.5v-2.3h9.4v1.7l-5,11.4H-264z"/>
		<path fill="#1C5C85" d="M-245.6,837.5h-9.2v-1.9l3.3-3.3c1-1,1.6-1.7,1.9-2.1c0.3-0.4,0.5-0.7,0.6-1.1c0.1-0.3,0.2-0.7,0.2-1
			c0-0.5-0.1-0.9-0.4-1.2c-0.3-0.3-0.7-0.4-1.2-0.4c-0.5,0-1,0.1-1.5,0.4c-0.5,0.2-1,0.6-1.5,1l-1.5-1.8c0.6-0.6,1.2-0.9,1.6-1.2
			c0.4-0.2,0.9-0.4,1.4-0.5c0.5-0.1,1.1-0.2,1.7-0.2c0.8,0,1.5,0.1,2.2,0.4c0.6,0.3,1.1,0.7,1.5,1.3c0.3,0.5,0.5,1.2,0.5,1.9
			c0,0.6-0.1,1.2-0.3,1.7c-0.2,0.5-0.5,1.1-1,1.6c-0.4,0.6-1.2,1.4-2.4,2.4l-1.7,1.6v0.1h5.7V837.5z"/>
		<path fill="#1C5C85" d="M-235.1,837.5h-9.2v-1.9l3.3-3.3c1-1,1.6-1.7,1.9-2.1c0.3-0.4,0.5-0.7,0.6-1.1c0.1-0.3,0.2-0.7,0.2-1
			c0-0.5-0.1-0.9-0.4-1.2c-0.3-0.3-0.7-0.4-1.2-0.4c-0.5,0-1,0.1-1.5,0.4c-0.5,0.2-1,0.6-1.5,1l-1.5-1.8c0.6-0.6,1.2-0.9,1.6-1.2
			c0.4-0.2,0.9-0.4,1.4-0.5c0.5-0.1,1.1-0.2,1.7-0.2c0.8,0,1.5,0.1,2.2,0.4c0.6,0.3,1.1,0.7,1.5,1.3c0.3,0.5,0.5,1.2,0.5,1.9
			c0,0.6-0.1,1.2-0.3,1.7c-0.2,0.5-0.5,1.1-1,1.6c-0.4,0.6-1.2,1.4-2.4,2.4l-1.7,1.6v0.1h5.7V837.5z"/>
	</g>
	<path fill="#EA9E24" d="M-336.3,825.6h13.5l-4.3,12.1h-13.5L-336.3,825.6z"/>
</g>
<g>
	<g>
		<path fill="#1C5C85" d="M-315.4,866.9l-1.5-11.7h-0.1c0,0.4-0.1,1-0.3,1.8c-0.1,0.8-0.2,1.4-0.3,1.8l-1.7,8.1h-1.5l2.8-13.1h2.2
			l1.3,10.8h0.1l5.9-10.8h2.4l-2.7,13.1h-1.6c0.8-3.5,1.3-6.3,1.7-8.1c0.4-1.9,0.7-3.1,0.8-3.5h-0.1l-6.4,11.7H-315.4z"/>
		<path fill="#1C5C85" d="M-300.3,857c1.1,0,2,0.3,2.7,1c0.7,0.7,1,1.6,1,2.8c0,1.1-0.2,2.2-0.6,3.2c-0.4,1-1,1.8-1.8,2.3
			c-0.7,0.5-1.6,0.8-2.5,0.8c-1.2,0-2.1-0.3-2.7-1s-1-1.6-1-2.8c0-1.1,0.2-2.2,0.7-3.2c0.4-1,1-1.8,1.8-2.3S-301.2,857-300.3,857z
			 M-298.2,860.6c0-0.7-0.2-1.2-0.6-1.7c-0.4-0.4-0.9-0.6-1.5-0.6c-0.7,0-1.2,0.2-1.8,0.7c-0.5,0.4-0.9,1.1-1.2,1.8
			c-0.3,0.8-0.4,1.7-0.4,2.6c0,0.8,0.2,1.4,0.6,1.8s0.9,0.6,1.6,0.6c0.6,0,1.2-0.2,1.7-0.7s0.9-1.1,1.2-1.9
			C-298.3,862.5-298.2,861.6-298.2,860.6z"/>
		<path fill="#1C5C85" d="M-290,856.9c1.2,0,2,0.6,2.5,1.7h0.1c0.1-0.9,0.2-1.8,0.4-2.5l0.7-3.2h1.5l-3,14h-1.2l0.2-1.9h-0.1
			c-0.6,0.8-1.2,1.3-1.7,1.6c-0.5,0.3-1.1,0.5-1.6,0.5c-0.8,0-1.5-0.3-2-0.9c-0.5-0.6-0.7-1.4-0.7-2.4c0-1.3,0.2-2.5,0.6-3.5
			s1-1.9,1.7-2.5C-291.7,857.2-290.9,856.9-290,856.9z M-291.7,865.9c0.6,0,1.1-0.3,1.7-0.8c0.6-0.6,1.1-1.3,1.4-2.1
			s0.5-1.8,0.5-2.7c0-0.7-0.2-1.2-0.5-1.5c-0.3-0.3-0.8-0.5-1.4-0.5c-0.6,0-1.2,0.2-1.7,0.7c-0.5,0.5-0.9,1.2-1.2,2.1
			c-0.3,0.9-0.5,1.8-0.5,2.8C-293.3,865.2-292.8,865.9-291.7,865.9z"/>
		<path fill="#1C5C85" d="M-280.7,867.1c-1.1,0-2-0.3-2.6-1c-0.6-0.7-0.9-1.6-0.9-2.7c0-1.1,0.2-2.2,0.7-3.2c0.4-1,1-1.8,1.8-2.4
			c0.7-0.6,1.5-0.9,2.4-0.9c0.9,0,1.6,0.2,2.1,0.6s0.7,1,0.7,1.7c0,1.1-0.5,1.9-1.5,2.5c-1,0.6-2.4,0.9-4.3,0.9h-0.3l0,0.7
			c0,0.8,0.2,1.4,0.6,1.8c0.4,0.4,0.9,0.7,1.7,0.7c0.4,0,0.8-0.1,1.2-0.2c0.4-0.1,0.9-0.3,1.5-0.6v1.3c-0.6,0.3-1.1,0.4-1.5,0.6
			S-280.2,867.1-280.7,867.1z M-279.5,858.2c-0.6,0-1.2,0.3-1.7,0.8s-1,1.3-1.2,2.3h0.1c1.4,0,2.4-0.2,3.1-0.5s1.1-0.9,1.1-1.6
			c0-0.3-0.1-0.6-0.3-0.8C-278.6,858.3-279,858.2-279.5,858.2z"/>
		<path fill="#1C5C85" d="M-274,866.9h-1.5l3-14h1.5L-274,866.9z"/>
		<path fill="#1C5C85" d="M-264.5,866.9l4.9-10.8h-6.5v-2.3h9.4v1.7l-5,11.4H-264.5z"/>
		<path fill="#1C5C85" d="M-246.1,866.9h-9.2V865l3.3-3.3c1-1,1.6-1.7,1.9-2.1c0.3-0.4,0.5-0.7,0.6-1.1c0.1-0.3,0.2-0.7,0.2-1
			c0-0.5-0.1-0.9-0.4-1.2c-0.3-0.3-0.7-0.4-1.2-0.4c-0.5,0-1,0.1-1.5,0.4c-0.5,0.2-1,0.6-1.5,1l-1.5-1.8c0.6-0.6,1.2-0.9,1.6-1.2
			c0.4-0.2,0.9-0.4,1.4-0.5c0.5-0.1,1.1-0.2,1.7-0.2c0.8,0,1.5,0.1,2.2,0.4c0.6,0.3,1.1,0.7,1.5,1.3c0.3,0.5,0.5,1.2,0.5,1.9
			c0,0.6-0.1,1.2-0.3,1.7c-0.2,0.5-0.5,1.1-1,1.6c-0.4,0.6-1.2,1.4-2.4,2.4l-1.7,1.6v0.1h5.7V866.9z"/>
		<path fill="#1C5C85" d="M-236.1,856.7c0,0.8-0.2,1.5-0.7,2.1c-0.5,0.6-1.2,1-2.1,1.2v0.1c1.1,0.1,1.9,0.5,2.4,1s0.8,1.2,0.8,2.1
			c0,1.3-0.5,2.2-1.4,3c-0.9,0.7-2.2,1.1-3.9,1.1c-1.4,0-2.7-0.2-3.8-0.7v-2.4c0.5,0.3,1.1,0.5,1.7,0.6c0.6,0.2,1.2,0.2,1.8,0.2
			c0.9,0,1.6-0.2,2-0.5s0.7-0.8,0.7-1.5c0-0.6-0.3-1.1-0.8-1.3c-0.5-0.3-1.3-0.4-2.4-0.4h-1v-2.1h1c1,0,1.8-0.1,2.2-0.4
			c0.5-0.3,0.7-0.7,0.7-1.4c0-1-0.6-1.5-1.9-1.5c-0.4,0-0.9,0.1-1.3,0.2c-0.4,0.1-0.9,0.4-1.5,0.7l-1.3-1.9c1.2-0.9,2.6-1.3,4.3-1.3
			c1.4,0,2.4,0.3,3.2,0.8S-236.1,855.8-236.1,856.7z"/>
	</g>
	<path fill="#8DC63F" d="M-336.2,855h13.5l-4.3,12.1h-13.5L-336.2,855z"/>
</g>
<g>
	<g>
		<path fill="#1C5C85" d="M-134.7,837.5l-1.5-11.7h-0.1c0,0.4-0.1,1-0.3,1.8c-0.1,0.8-0.2,1.4-0.3,1.8l-1.7,8.1h-1.5l2.8-13.1h2.2
			l1.3,10.8h0.1l5.9-10.8h2.4l-2.7,13.1h-1.6c0.8-3.5,1.3-6.3,1.7-8.1c0.4-1.9,0.7-3.1,0.8-3.5h-0.1l-6.4,11.7H-134.7z"/>
		<path fill="#1C5C85" d="M-119.6,827.6c1.1,0,2,0.3,2.7,1c0.7,0.7,1,1.6,1,2.8c0,1.1-0.2,2.2-0.6,3.2c-0.4,1-1,1.8-1.8,2.3
			c-0.7,0.5-1.6,0.8-2.5,0.8c-1.2,0-2.1-0.3-2.7-1c-0.7-0.7-1-1.6-1-2.8c0-1.1,0.2-2.2,0.7-3.2c0.4-1,1-1.8,1.8-2.3
			C-121.3,827.8-120.5,827.6-119.6,827.6z M-117.4,831.1c0-0.7-0.2-1.2-0.6-1.7c-0.4-0.4-0.9-0.6-1.5-0.6c-0.7,0-1.2,0.2-1.8,0.7
			c-0.5,0.4-0.9,1.1-1.2,1.8c-0.3,0.8-0.4,1.7-0.4,2.6c0,0.8,0.2,1.4,0.6,1.8s0.9,0.6,1.6,0.6c0.6,0,1.2-0.2,1.7-0.7
			s0.9-1.1,1.2-1.9S-117.4,832.2-117.4,831.1z"/>
		<path fill="#1C5C85" d="M-109.3,827.5c1.2,0,2,0.6,2.5,1.7h0.1c0.1-0.9,0.2-1.8,0.4-2.5l0.7-3.2h1.5l-3,14h-1.2l0.2-1.9h-0.1
			c-0.6,0.8-1.2,1.3-1.7,1.6s-1.1,0.5-1.6,0.5c-0.8,0-1.5-0.3-2-0.9c-0.5-0.6-0.7-1.4-0.7-2.4c0-1.3,0.2-2.5,0.6-3.5s1-1.9,1.8-2.5
			C-111,827.8-110.2,827.5-109.3,827.5z M-111,836.5c0.6,0,1.1-0.3,1.7-0.8s1.1-1.3,1.4-2.1c0.3-0.9,0.5-1.8,0.5-2.7
			c0-0.7-0.2-1.2-0.5-1.5c-0.3-0.3-0.8-0.5-1.4-0.5c-0.6,0-1.2,0.2-1.7,0.7c-0.5,0.5-0.9,1.2-1.2,2.1c-0.3,0.9-0.5,1.8-0.5,2.8
			C-112.6,835.8-112,836.5-111,836.5z"/>
		<path fill="#1C5C85" d="M-100,837.7c-1.1,0-2-0.3-2.6-1c-0.6-0.7-0.9-1.6-0.9-2.7c0-1.1,0.2-2.2,0.7-3.2c0.4-1,1-1.8,1.8-2.4
			c0.7-0.6,1.5-0.9,2.4-0.9c0.9,0,1.6,0.2,2.1,0.6c0.5,0.4,0.7,1,0.7,1.7c0,1.1-0.5,1.9-1.5,2.5s-2.4,0.9-4.3,0.9h-0.3l0,0.7
			c0,0.8,0.2,1.4,0.6,1.8c0.4,0.4,0.9,0.7,1.7,0.7c0.4,0,0.8-0.1,1.2-0.2c0.4-0.1,0.9-0.3,1.5-0.6v1.3c-0.6,0.3-1.1,0.4-1.5,0.6
			S-99.4,837.7-100,837.7z M-98.7,828.8c-0.6,0-1.2,0.3-1.7,0.8s-1,1.3-1.2,2.3h0.1c1.4,0,2.4-0.2,3.1-0.5s1.1-0.9,1.1-1.6
			c0-0.3-0.1-0.6-0.3-0.8S-98.2,828.8-98.7,828.8z"/>
		<path fill="#1C5C85" d="M-93.3,837.5h-1.5l3-14h1.5L-93.3,837.5z"/>
		<path fill="#1C5C85" d="M-83.8,837.5l4.9-10.8h-6.5v-2.3h9.4v1.7l-5,11.4H-83.8z"/>
		<path fill="#1C5C85" d="M-65.4,837.5h-9.2v-1.9l3.3-3.3c1-1,1.6-1.7,1.9-2.1c0.3-0.4,0.5-0.7,0.6-1.1c0.1-0.3,0.2-0.7,0.2-1
			c0-0.5-0.1-0.9-0.4-1.2c-0.3-0.3-0.7-0.4-1.2-0.4c-0.5,0-1,0.1-1.5,0.4c-0.5,0.2-1,0.6-1.5,1l-1.5-1.8c0.6-0.6,1.2-0.9,1.6-1.2
			c0.4-0.2,0.9-0.4,1.4-0.5c0.5-0.1,1.1-0.2,1.7-0.2c0.8,0,1.5,0.1,2.2,0.4s1.1,0.7,1.5,1.3c0.3,0.5,0.5,1.2,0.5,1.9
			c0,0.6-0.1,1.2-0.3,1.7c-0.2,0.5-0.5,1.1-1,1.6c-0.4,0.6-1.2,1.4-2.4,2.4l-1.7,1.6v0.1h5.7V837.5z"/>
		<path fill="#1C5C85" d="M-54.6,834.8h-1.6v2.7h-2.7v-2.7h-5.6v-1.9l5.8-8.5h2.6v8.3h1.6V834.8z M-58.9,832.7v-2.2
			c0-0.4,0-0.9,0-1.6c0-0.7,0.1-1.1,0.1-1.2h-0.1c-0.2,0.5-0.5,1-0.8,1.4l-2.4,3.6H-58.9z"/>
	</g>
	<path fill="#1C5C85" d="M-156.6,825.6h13.5l-4.3,12.1h-13.5L-156.6,825.6z"/>
</g>
<g>
	<g>
		<path fill="#1C5C85" d="M-134.9,866.9l-1.5-11.7h-0.1c0,0.4-0.1,1-0.3,1.8c-0.1,0.8-0.2,1.4-0.3,1.8l-1.7,8.1h-1.5l2.8-13.1h2.2
			l1.3,10.8h0.1l5.9-10.8h2.4l-2.7,13.1h-1.6c0.8-3.5,1.3-6.3,1.7-8.1s0.7-3.1,0.8-3.5h-0.1l-6.4,11.7H-134.9z"/>
		<path fill="#1C5C85" d="M-119.7,857c1.1,0,2,0.3,2.7,1c0.7,0.7,1,1.6,1,2.8c0,1.1-0.2,2.2-0.6,3.2c-0.4,1-1,1.8-1.8,2.3
			c-0.7,0.5-1.6,0.8-2.5,0.8c-1.2,0-2.1-0.3-2.7-1c-0.7-0.7-1-1.6-1-2.8c0-1.1,0.2-2.2,0.7-3.2c0.4-1,1-1.8,1.8-2.3
			C-121.5,857.2-120.6,857-119.7,857z M-117.6,860.6c0-0.7-0.2-1.2-0.6-1.7s-0.9-0.6-1.5-0.6c-0.7,0-1.2,0.2-1.8,0.7
			c-0.5,0.4-0.9,1.1-1.2,1.8c-0.3,0.8-0.4,1.7-0.4,2.6c0,0.8,0.2,1.4,0.6,1.8s0.9,0.6,1.6,0.6c0.6,0,1.2-0.2,1.7-0.7
			s0.9-1.1,1.2-1.9C-117.8,862.5-117.6,861.6-117.6,860.6z"/>
		<path fill="#1C5C85" d="M-109.4,856.9c1.2,0,2,0.6,2.5,1.7h0.1c0.1-0.9,0.2-1.8,0.4-2.5l0.7-3.2h1.5l-3,14h-1.2l0.2-1.9h-0.1
			c-0.6,0.8-1.2,1.3-1.7,1.6c-0.5,0.3-1.1,0.5-1.6,0.5c-0.8,0-1.5-0.3-2-0.9c-0.5-0.6-0.7-1.4-0.7-2.4c0-1.3,0.2-2.5,0.6-3.5
			s1-1.9,1.7-2.5C-111.2,857.2-110.3,856.9-109.4,856.9z M-111.1,865.9c0.6,0,1.1-0.3,1.7-0.8c0.6-0.6,1.1-1.3,1.4-2.1
			c0.4-0.9,0.5-1.8,0.5-2.7c0-0.7-0.2-1.2-0.5-1.5s-0.8-0.5-1.4-0.5c-0.6,0-1.2,0.2-1.7,0.7c-0.5,0.5-0.9,1.2-1.2,2.1
			c-0.3,0.9-0.5,1.8-0.5,2.8C-112.8,865.2-112.2,865.9-111.1,865.9z"/>
		<path fill="#1C5C85" d="M-100.1,867.1c-1.1,0-2-0.3-2.6-1c-0.6-0.7-0.9-1.6-0.9-2.7c0-1.1,0.2-2.2,0.7-3.2s1-1.8,1.8-2.4
			c0.7-0.6,1.6-0.9,2.4-0.9c0.9,0,1.6,0.2,2.1,0.6c0.5,0.4,0.7,1,0.7,1.7c0,1.1-0.5,1.9-1.5,2.5c-1,0.6-2.4,0.9-4.3,0.9h-0.3l0,0.7
			c0,0.8,0.2,1.4,0.6,1.8s0.9,0.7,1.7,0.7c0.4,0,0.8-0.1,1.2-0.2c0.4-0.1,0.9-0.3,1.5-0.6v1.3c-0.6,0.3-1.1,0.4-1.5,0.6
			S-99.6,867.1-100.1,867.1z M-98.9,858.2c-0.6,0-1.2,0.3-1.7,0.8s-1,1.3-1.2,2.3h0.1c1.4,0,2.4-0.2,3.1-0.5s1.1-0.9,1.1-1.6
			c0-0.3-0.1-0.6-0.3-0.8C-98.1,858.3-98.4,858.2-98.9,858.2z"/>
		<path fill="#1C5C85" d="M-93.4,866.9H-95l3-14h1.5L-93.4,866.9z"/>
		<path fill="#1C5C85" d="M-84,866.9l4.9-10.8h-6.5v-2.3h9.4v1.7l-5,11.4H-84z"/>
		<path fill="#1C5C85" d="M-65.6,866.9h-9.2V865l3.3-3.3c1-1,1.6-1.7,1.9-2.1c0.3-0.4,0.5-0.7,0.6-1.1s0.2-0.7,0.2-1
			c0-0.5-0.1-0.9-0.4-1.2s-0.7-0.4-1.2-0.4c-0.5,0-1,0.1-1.5,0.4c-0.5,0.2-1,0.6-1.5,1l-1.5-1.8c0.6-0.6,1.2-0.9,1.6-1.2
			c0.4-0.2,0.9-0.4,1.4-0.5c0.5-0.1,1.1-0.2,1.7-0.2c0.8,0,1.5,0.1,2.2,0.4c0.6,0.3,1.1,0.7,1.5,1.3c0.3,0.5,0.5,1.2,0.5,1.9
			c0,0.6-0.1,1.2-0.3,1.7c-0.2,0.5-0.5,1.1-1,1.6s-1.2,1.4-2.4,2.4l-1.7,1.6v0.1h5.7V866.9z"/>
		<path fill="#1C5C85" d="M-59.5,858.5c1.3,0,2.3,0.4,3,1.1c0.8,0.7,1.1,1.7,1.1,2.9c0,1.5-0.5,2.6-1.4,3.4
			c-0.9,0.8-2.2,1.2-3.9,1.2c-1.5,0-2.6-0.2-3.5-0.7V864c0.5,0.3,1,0.5,1.7,0.6c0.6,0.2,1.2,0.2,1.8,0.2c1.7,0,2.5-0.7,2.5-2.1
			c0-1.3-0.9-2-2.6-2c-0.3,0-0.7,0-1.1,0.1c-0.4,0.1-0.7,0.1-0.9,0.2l-1.1-0.6l0.5-6.7h7.1v2.4h-4.7l-0.2,2.6l0.3-0.1
			C-60.5,858.6-60,858.5-59.5,858.5z"/>
	</g>
	<path fill="#4F9B1E" d="M-156.1,855h13.5l-4.3,12.1h-13.5L-156.1,855z"/>
</g>
<g>
	<g>
		<path fill="#1C5C85" d="M44.8,837.5l-1.5-11.7h-0.1c0,0.4-0.1,1-0.3,1.8c-0.1,0.8-0.2,1.4-0.3,1.8l-1.7,8.1h-1.5l2.8-13.1h2.2
			l1.3,10.8h0.1l5.9-10.8h2.4l-2.7,13.1h-1.6c0.8-3.5,1.3-6.3,1.7-8.1c0.4-1.9,0.7-3.1,0.8-3.5h-0.1L46,837.5H44.8z"/>
		<path fill="#1C5C85" d="M59.9,827.6c1.1,0,2,0.3,2.7,1c0.7,0.7,1,1.6,1,2.8c0,1.1-0.2,2.2-0.6,3.2c-0.4,1-1,1.8-1.8,2.3
			c-0.7,0.5-1.6,0.8-2.5,0.8c-1.2,0-2.1-0.3-2.7-1s-1-1.6-1-2.8c0-1.1,0.2-2.2,0.7-3.2c0.4-1,1-1.8,1.8-2.3S59,827.6,59.9,827.6z
			 M62.1,831.1c0-0.7-0.2-1.2-0.6-1.7c-0.4-0.4-0.9-0.6-1.5-0.6c-0.7,0-1.2,0.2-1.8,0.7c-0.5,0.4-0.9,1.1-1.2,1.8
			c-0.3,0.8-0.4,1.7-0.4,2.6c0,0.8,0.2,1.4,0.6,1.8s0.9,0.6,1.6,0.6c0.6,0,1.2-0.2,1.7-0.7s0.9-1.1,1.2-1.9
			C61.9,833.1,62.1,832.2,62.1,831.1z"/>
		<path fill="#1C5C85" d="M70.2,827.5c1.2,0,2,0.6,2.5,1.7h0.1c0.1-0.9,0.2-1.8,0.4-2.5l0.7-3.2h1.5l-3,14h-1.2l0.2-1.9h-0.1
			c-0.6,0.8-1.2,1.3-1.7,1.6c-0.5,0.3-1.1,0.5-1.6,0.5c-0.8,0-1.5-0.3-2-0.9c-0.5-0.6-0.7-1.4-0.7-2.4c0-1.3,0.2-2.5,0.6-3.5
			s1-1.9,1.7-2.5C68.5,827.8,69.3,827.5,70.2,827.5z M68.5,836.5c0.6,0,1.1-0.3,1.7-0.8c0.6-0.6,1.1-1.3,1.4-2.1s0.5-1.8,0.5-2.7
			c0-0.7-0.2-1.2-0.5-1.5c-0.3-0.3-0.8-0.5-1.4-0.5c-0.6,0-1.2,0.2-1.7,0.7c-0.5,0.5-0.9,1.2-1.2,2.1c-0.3,0.9-0.5,1.8-0.5,2.8
			C66.9,835.8,67.5,836.5,68.5,836.5z"/>
		<path fill="#1C5C85" d="M79.5,837.7c-1.1,0-2-0.3-2.6-1c-0.6-0.7-0.9-1.6-0.9-2.7c0-1.1,0.2-2.2,0.7-3.2c0.4-1,1-1.8,1.8-2.4
			c0.7-0.6,1.5-0.9,2.4-0.9c0.9,0,1.6,0.2,2.1,0.6s0.7,1,0.7,1.7c0,1.1-0.5,1.9-1.5,2.5c-1,0.6-2.4,0.9-4.3,0.9h-0.3l0,0.7
			c0,0.8,0.2,1.4,0.6,1.8c0.4,0.4,0.9,0.7,1.7,0.7c0.4,0,0.8-0.1,1.2-0.2c0.4-0.1,0.9-0.3,1.5-0.6v1.3c-0.6,0.3-1.1,0.4-1.5,0.6
			S80.1,837.7,79.5,837.7z M80.8,828.8c-0.6,0-1.2,0.3-1.7,0.8s-1,1.3-1.2,2.3h0.1c1.4,0,2.4-0.2,3.1-0.5s1.1-0.9,1.1-1.6
			c0-0.3-0.1-0.6-0.3-0.8C81.6,828.9,81.3,828.8,80.8,828.8z"/>
		<path fill="#1C5C85" d="M86.2,837.5h-1.5l3-14h1.5L86.2,837.5z"/>
		<path fill="#1C5C85" d="M95.7,837.5l4.9-10.8h-6.5v-2.3h9.4v1.7l-5,11.4H95.7z"/>
		<path fill="#1C5C85" d="M114.1,837.5h-9.2v-1.9l3.3-3.3c1-1,1.6-1.7,1.9-2.1c0.3-0.4,0.5-0.7,0.6-1.1c0.1-0.3,0.2-0.7,0.2-1
			c0-0.5-0.1-0.9-0.4-1.2c-0.3-0.3-0.7-0.4-1.2-0.4c-0.5,0-1,0.1-1.5,0.4c-0.5,0.2-1,0.6-1.5,1l-1.5-1.8c0.6-0.6,1.2-0.9,1.6-1.2
			c0.4-0.2,0.9-0.4,1.4-0.5c0.5-0.1,1.1-0.2,1.7-0.2c0.8,0,1.5,0.1,2.2,0.4c0.6,0.3,1.1,0.7,1.5,1.3c0.3,0.5,0.5,1.2,0.5,1.9
			c0,0.6-0.1,1.2-0.3,1.7c-0.2,0.5-0.5,1.1-1,1.6c-0.4,0.6-1.2,1.4-2.4,2.4l-1.7,1.6v0.1h5.7V837.5z"/>
		<path fill="#1C5C85" d="M115.3,832c0-2.6,0.5-4.5,1.7-5.8s2.7-1.9,4.9-1.9c0.8,0,1.3,0,1.8,0.1v2.2c-0.5-0.1-1.1-0.2-1.6-0.2
			c-1,0-1.7,0.1-2.3,0.4s-1.1,0.7-1.4,1.3s-0.5,1.4-0.5,2.4h0.1c0.6-1,1.5-1.5,2.9-1.5c1.2,0,2.1,0.4,2.8,1.1c0.7,0.7,1,1.8,1,3.1
			c0,1.4-0.4,2.5-1.2,3.3c-0.8,0.8-1.9,1.2-3.3,1.2c-1,0-1.8-0.2-2.5-0.7c-0.7-0.4-1.3-1.1-1.7-2S115.3,833.2,115.3,832z
			 M120.1,835.5c0.6,0,1-0.2,1.4-0.6c0.3-0.4,0.5-1,0.5-1.7c0-0.6-0.1-1.1-0.4-1.5c-0.3-0.4-0.7-0.6-1.3-0.6c-0.6,0-1,0.2-1.4,0.5
			c-0.4,0.4-0.6,0.8-0.6,1.3c0,0.7,0.2,1.3,0.6,1.8C119,835.2,119.5,835.5,120.1,835.5z"/>
	</g>
	<path fill="#543D78" d="M23.9,825.6h13.5L33,837.7H19.5L23.9,825.6z"/>
</g>
<g>
	<g>
		<path fill="#1C5C85" d="M45.9,867l-1.5-11.7h-0.1c0,0.4-0.1,1-0.3,1.8c-0.1,0.8-0.2,1.4-0.3,1.8L42,867h-1.5l2.8-13.1h2.2
			l1.3,10.8H47l5.9-10.8h2.4L52.6,867H51c0.8-3.5,1.3-6.3,1.7-8.1c0.4-1.9,0.7-3.1,0.8-3.5h-0.1L47.1,867H45.9z"/>
		<path fill="#1C5C85" d="M61,857c1.1,0,2,0.3,2.7,1c0.7,0.7,1,1.6,1,2.8c0,1.1-0.2,2.2-0.6,3.2c-0.4,1-1,1.8-1.8,2.3
			c-0.7,0.5-1.6,0.8-2.5,0.8c-1.2,0-2.1-0.3-2.7-1s-1-1.6-1-2.8c0-1.1,0.2-2.2,0.7-3.2c0.4-1,1-1.8,1.8-2.3S60.1,857,61,857z
			 M63.2,860.6c0-0.7-0.2-1.2-0.6-1.7c-0.4-0.4-0.9-0.6-1.5-0.6c-0.7,0-1.2,0.2-1.8,0.7c-0.5,0.4-0.9,1.1-1.2,1.8
			c-0.3,0.8-0.4,1.7-0.4,2.6c0,0.8,0.2,1.4,0.6,1.8s0.9,0.6,1.6,0.6c0.6,0,1.2-0.2,1.7-0.7s0.9-1.1,1.2-1.9
			C63,862.5,63.2,861.6,63.2,860.6z"/>
		<path fill="#1C5C85" d="M71.3,856.9c1.2,0,2,0.6,2.5,1.7h0.1c0.1-0.9,0.2-1.8,0.4-2.5L75,853h1.5l-3,14h-1.2l0.2-1.9h-0.1
			c-0.6,0.8-1.2,1.3-1.7,1.6c-0.5,0.3-1.1,0.5-1.6,0.5c-0.8,0-1.5-0.3-2-0.9c-0.5-0.6-0.7-1.4-0.7-2.4c0-1.3,0.2-2.5,0.6-3.5
			s1-1.9,1.7-2.5C69.6,857.2,70.4,856.9,71.3,856.9z M69.6,865.9c0.6,0,1.1-0.3,1.7-0.8c0.6-0.6,1.1-1.3,1.4-2.1s0.5-1.8,0.5-2.7
			c0-0.7-0.2-1.2-0.5-1.5c-0.3-0.3-0.8-0.5-1.4-0.5c-0.6,0-1.2,0.2-1.7,0.7c-0.5,0.5-0.9,1.2-1.2,2.1c-0.3,0.9-0.5,1.8-0.5,2.8
			C68,865.2,68.5,865.9,69.6,865.9z"/>
		<path fill="#1C5C85" d="M80.6,867.1c-1.1,0-2-0.3-2.6-1c-0.6-0.7-0.9-1.6-0.9-2.7c0-1.1,0.2-2.2,0.7-3.2c0.4-1,1-1.8,1.8-2.4
			c0.7-0.6,1.5-0.9,2.4-0.9c0.9,0,1.6,0.2,2.1,0.6s0.7,1,0.7,1.7c0,1.1-0.5,1.9-1.5,2.5c-1,0.6-2.4,0.9-4.3,0.9h-0.3l0,0.7
			c0,0.8,0.2,1.4,0.6,1.8c0.4,0.4,0.9,0.7,1.7,0.7c0.4,0,0.8-0.1,1.2-0.2c0.4-0.1,0.9-0.3,1.5-0.6v1.3c-0.6,0.3-1.1,0.4-1.5,0.6
			S81.2,867.1,80.6,867.1z M81.9,858.2c-0.6,0-1.2,0.3-1.7,0.8s-1,1.3-1.2,2.3H79c1.4,0,2.4-0.2,3.1-0.5s1.1-0.9,1.1-1.6
			c0-0.3-0.1-0.6-0.3-0.8C82.7,858.3,82.4,858.2,81.9,858.2z"/>
		<path fill="#1C5C85" d="M87.3,867h-1.5l3-14h1.5L87.3,867z"/>
		<path fill="#1C5C85" d="M96.8,867l4.9-10.8h-6.5v-2.3h9.4v1.7l-5,11.4H96.8z"/>
		<path fill="#1C5C85" d="M115.2,867H106V865l3.3-3.3c1-1,1.6-1.7,1.9-2.1c0.3-0.4,0.5-0.7,0.6-1.1c0.1-0.3,0.2-0.7,0.2-1
			c0-0.5-0.1-0.9-0.4-1.2c-0.3-0.3-0.7-0.4-1.2-0.4c-0.5,0-1,0.1-1.5,0.4c-0.5,0.2-1,0.6-1.5,1l-1.5-1.8c0.6-0.6,1.2-0.9,1.6-1.2
			c0.4-0.2,0.9-0.4,1.4-0.5c0.5-0.1,1.1-0.2,1.7-0.2c0.8,0,1.5,0.1,2.2,0.4c0.6,0.3,1.1,0.7,1.5,1.3c0.3,0.5,0.5,1.2,0.5,1.9
			c0,0.6-0.1,1.2-0.3,1.7c-0.2,0.5-0.5,1.1-1,1.6c-0.4,0.6-1.2,1.4-2.4,2.4l-1.7,1.6v0.1h5.7V867z"/>
		<path fill="#1C5C85" d="M117.8,867l4.9-10.8h-6.5v-2.3h9.4v1.7l-5,11.4H117.8z"/>
	</g>
	<path fill="#86B8E0" d="M23.9,855h13.5L33,867.1H19.5L23.9,855z"/>
</g>
<rect x="-530.4" y="263.9" fill="none" stroke="#8C9293" stroke-width="1.074" stroke-miterlimit="10" width="665.2" height="467.2"/>
<line fill="none" stroke="#8C9293" stroke-miterlimit="10" x1="-530.4" y1="732" x2="134.4" y2="732"/>
<line fill="none" stroke="#8C9293" stroke-miterlimit="10" x1="134.7" y1="326.5" x2="134.7" y2="731.8"/>
<line fill="none" stroke="#8C9293" stroke-width="1.0743" stroke-miterlimit="10" x1="-397.6" y1="264.1" x2="-397.6" y2="731.8"/>
<line fill="none" stroke="#8C9293" stroke-width="1.0743" stroke-miterlimit="10" x1="-264.5" y1="264.1" x2="-264.5" y2="731.8"/>
<line fill="none" stroke="#8C9293" stroke-width="1.0743" stroke-miterlimit="10" x1="-131.5" y1="264.1" x2="-131.5" y2="731.8"/>
<line fill="none" stroke="#8C9293" stroke-width="1.0743" stroke-miterlimit="10" x1="1.6" y1="264.1" x2="1.6" y2="731.8"/>
<line fill="none" stroke="#8C9293" stroke-miterlimit="10" x1="-354.6" y1="255.6" x2="-354.6" y2="263.6"/>
<line fill="none" stroke="#8C9293" stroke-miterlimit="10" x1="-177.8" y1="255.6" x2="-177.8" y2="263.6"/>
<line fill="none" stroke="#8C9293" stroke-miterlimit="10" x1="-529.5" y1="255.6" x2="-529.5" y2="263.6"/>
<line fill="none" stroke="#8C9293" stroke-miterlimit="10" x1="-2.5" y1="255.6" x2="-2.5" y2="263.6"/>
<line fill="none" stroke="#8C9293" stroke-miterlimit="10" x1="-530.9" y1="544.8" x2="133.9" y2="544.8"/>
<line fill="none" stroke="#8C9293" stroke-miterlimit="10" x1="-530.9" y1="498.2" x2="133.9" y2="498.2"/>
<line fill="none" stroke="#8C9293" stroke-miterlimit="10" x1="-530.9" y1="311.6" x2="133.9" y2="311.6"/>
<line fill="none" stroke="#8C9293" stroke-miterlimit="10" x1="-530.9" y1="591.4" x2="133.9" y2="591.4"/>
<line fill="none" stroke="#8C9293" stroke-miterlimit="10" x1="-530.9" y1="684.7" x2="133.9" y2="684.7"/>
<line fill="none" stroke="#8C9293" stroke-miterlimit="10" x1="-529.8" y1="638.1" x2="135" y2="638.1"/>
<line fill="none" stroke="#8C9293" stroke-miterlimit="10" x1="-530.9" y1="358.3" x2="133.9" y2="358.3"/>
<line fill="none" stroke="#8C9293" stroke-miterlimit="10" x1="-530.9" y1="404.9" x2="133.9" y2="404.9"/>
<line fill="none" stroke="#8C9293" stroke-miterlimit="10" x1="-530.9" y1="451.5" x2="133.9" y2="451.5"/>
<rect x="-523.2" y="269.2" fill="#F2F2F2" width="301" height="38.2"/>
<g>
	<path fill="#194880" d="M-504,293.7c0,2.5-0.8,4.4-2.5,5.8s-4,2.1-7,2.1c-2.5,0-4.5-0.4-6.1-1.3v-3.9c2,1.1,4.1,1.7,6.2,1.7
		c1.6,0,2.9-0.3,3.8-1s1.4-1.6,1.4-2.9c0-0.8-0.2-1.5-0.7-2.2s-1.5-1.4-3-2.4c-1.2-0.8-2.1-1.5-2.7-2.1s-1-1.4-1.3-2.1
		s-0.5-1.6-0.5-2.5c0-1.5,0.4-2.8,1.1-4s1.7-2.1,3.1-2.7s2.8-0.9,4.5-0.9c2.4,0,4.6,0.5,6.7,1.6l-1.5,3.4c-1.9-0.9-3.6-1.4-5.2-1.4
		c-1.3,0-2.3,0.3-3.1,1s-1.2,1.6-1.2,2.7c0,0.6,0.1,1,0.3,1.5s0.4,0.8,0.8,1.2s1.2,0.9,2.4,1.7c1.8,1.1,3.1,2.2,3.8,3.3
		S-504,292.3-504,293.7z"/>
	<path fill="#194880" d="M-492.5,301.2h-4.2l4.6-22.1h-6.7l0.8-3.6h17.5l-0.8,3.6h-6.7L-492.5,301.2z"/>
	<path fill="#194880" d="M-468.8,294.1h-8.5l-3.7,7.1h-4.5l13.8-25.7h4.8l2.9,25.7h-4.1L-468.8,294.1z M-469,290.4
		c-0.5-4.9-0.7-7.8-0.8-8.9s-0.1-1.8-0.1-2.5c-0.6,1.6-1.5,3.4-2.5,5.4l-3,5.9H-469z"/>
	<path fill="#194880" d="M-441.1,301.2h-4.6l-7.2-20.4h-0.1l-0.2,1.2c-0.3,1.7-0.5,3-0.6,3.7s-1.2,5.9-3.2,15.5h-3.8l5.4-25.7h4.7
		l7,20.2h0.1c0.1-0.6,0.3-1.8,0.5-3.4s0.5-2.8,0.7-3.6l2.8-13.2h3.8L-441.1,301.2z"/>
	<path fill="#194880" d="M-412.8,285.5c0,3.2-0.6,5.9-1.8,8.3s-2.9,4.2-5.1,5.5s-4.9,1.9-7.9,1.9h-7l5.4-25.7h6.5
		c3.2,0,5.6,0.8,7.3,2.5S-412.8,282.2-412.8,285.5z M-427.3,297.7c2.1,0,3.9-0.5,5.4-1.5s2.7-2.4,3.6-4.3s1.2-3.9,1.2-6.3
		c0-2.2-0.5-3.8-1.5-4.9s-2.5-1.7-4.5-1.7h-2.6l-4,18.7H-427.3z"/>
	<path fill="#194880" d="M-397.1,294.1h-8.5l-3.7,7.1h-4.5l13.8-25.7h4.8l2.9,25.7h-4.1L-397.1,294.1z M-397.4,290.4
		c-0.5-4.9-0.7-7.8-0.8-8.9s-0.1-1.8-0.1-2.5c-0.6,1.6-1.5,3.4-2.5,5.4l-3,5.9H-397.4z"/>
	<path fill="#194880" d="M-382.8,290.9l-2.2,10.3h-4.2l5.4-25.7h5.9c2.6,0,4.6,0.6,6,1.7s2.1,2.8,2.1,5.1c0,1.9-0.5,3.6-1.5,4.9
		s-2.5,2.3-4.5,2.9l4.4,11.1h-4.6l-3.6-10.3H-382.8z M-382.1,287.5h2.2c2,0,3.5-0.4,4.5-1.3s1.5-2.1,1.5-3.6c0-1.2-0.3-2.1-1-2.7
		s-1.8-0.8-3.2-0.8h-2.1L-382.1,287.5z"/>
	<path fill="#194880" d="M-346.1,285.5c0,3.2-0.6,5.9-1.8,8.3s-2.9,4.2-5.1,5.5s-4.9,1.9-7.9,1.9h-7l5.4-25.7h6.5
		c3.2,0,5.6,0.8,7.3,2.5S-346.1,282.2-346.1,285.5z M-360.7,297.7c2.1,0,3.9-0.5,5.4-1.5s2.7-2.4,3.6-4.3s1.2-3.9,1.2-6.3
		c0-2.2-0.5-3.8-1.5-4.9s-2.5-1.7-4.5-1.7h-2.6l-4,18.7H-360.7z"/>
	<path fill="#194880" d="M-330.3,301.2h-4.2l5.4-25.7h13.6l-0.8,3.6h-9.4l-1.7,8h8.8l-0.8,3.6h-8.8L-330.3,301.2z"/>
	<path fill="#194880" d="M-303.1,294.1h-8.5l-3.7,7.1h-4.5l13.8-25.7h4.8l2.9,25.7h-4.1L-303.1,294.1z M-303.4,290.4
		c-0.5-4.9-0.7-7.8-0.8-8.9s-0.1-1.8-0.1-2.5c-0.6,1.6-1.5,3.4-2.5,5.4l-3,5.9H-303.4z"/>
	<path fill="#194880" d="M-275.4,301.2h-4.6l-7.2-20.4h-0.1l-0.2,1.2c-0.3,1.7-0.5,3-0.6,3.7s-1.2,5.9-3.2,15.5h-3.8l5.4-25.7h4.7
		l7,20.2h0.1c0.1-0.6,0.3-1.8,0.5-3.4s0.5-2.8,0.7-3.6l2.8-13.2h3.8L-275.4,301.2z"/>
	<path fill="#194880" d="M-253.8,293.7c0,2.5-0.8,4.4-2.5,5.8s-4,2.1-7,2.1c-2.5,0-4.5-0.4-6.1-1.3v-3.9c2,1.1,4.1,1.7,6.2,1.7
		c1.6,0,2.9-0.3,3.8-1s1.4-1.6,1.4-2.9c0-0.8-0.2-1.5-0.7-2.2s-1.5-1.4-3-2.4c-1.2-0.8-2.1-1.5-2.7-2.1s-1-1.4-1.3-2.1
		s-0.5-1.6-0.5-2.5c0-1.5,0.4-2.8,1.1-4s1.7-2.1,3.1-2.7s2.8-0.9,4.5-0.9c2.4,0,4.6,0.5,6.7,1.6l-1.5,3.4c-1.9-0.9-3.6-1.4-5.2-1.4
		c-1.3,0-2.3,0.3-3.1,1s-1.2,1.6-1.2,2.7c0,0.6,0.1,1,0.3,1.5s0.4,0.8,0.8,1.2s1.2,0.9,2.4,1.7c1.8,1.1,3.1,2.2,3.8,3.3
		S-253.8,292.3-253.8,293.7z"/>
</g>
</svg>
