<?xml version="1.0" encoding="utf-8"?>
<!-- Generator: Adobe Illustrator 18.1.1, SVG Export Plug-In . SVG Version: 6.00 Build 0)  -->
<svg version="1.1" id="Layer_1" xmlns="http://www.w3.org/2000/svg" xmlns:xlink="http://www.w3.org/1999/xlink" x="0px" y="0px"
	 viewBox="3139.1 135 735.6 662.8" enable-background="new 3139.1 135 735.6 662.8" xml:space="preserve">
<rect x="3205.3" y="190.4" fill="#F2F2F2" width="665.2" height="466.5"/>
<path fill="#86B8E0" d="M3869.6,657l-662.9-0.6c4.4-7.9,8.8-16,13.3-23.8c4.4-7.9,8.8-15.9,13.3-23.4c4.4-7.6,8.8-15,13.3-22
	c4.4-7,8.8-13.6,13.3-19.9c4.4-6.3,8.8-12.2,13.3-17.8c4.4-5.6,8.9-9.1,13.3-15.9c4.4-6.7,8.8-17.5,13.3-24.5
	c4.4-7,8.8-12,13.3-17.6c4.4-5.7,8.8-11.1,13.3-16.4c4.4-5.3,8.8-10.4,13.3-15.3c4.4-4.9,8.8-9.7,13.3-14.2c4.4-4.6,8.8-9,13.3-13.3
	c4.4-4.3,8.9-8.4,13.3-12.4c4.4-4,8.8-7.8,13.3-11.6c4.4-3.7,8.8-7.3,13.3-10.8c4.4-3.5,8.8-6.9,13.3-10.1c4.4-3.3,8.8-6.4,13.3-9.5
	c4.4-3.1,8.8-6,13.3-8.9c4.4-2.9,8.8-5.7,13.3-8.4c4.4-2.7,6.7-4.2,13.3-7.9c6.7-3.8,17.7-10,26.6-14.6c8.8-4.6,17.7-8.9,26.6-13
	c8.8-4.1,17.7-8,26.5-11.7c8.9-3.7,17.7-7.2,26.6-10.6c8.8-3.4,17.7-6.6,26.6-9.6c8.8-3.1,17.7-6,26.6-8.8c8.8-2.8,17.7-5.5,26.5-8
	c8.9-2.6,17.7-5,26.6-7.4c8.8-2.4,17.7-4.6,26.6-6.8c7.8-1.9,12.9-3.3,26.5-6.3c15.5-3.4,44.3-9.6,66.4-13.9
	c22.1-4.3,44.3-8.1,66.4-11.7"/>
<path fill="#543D78" d="M3206.7,656.4c4.4-7.9,8.8-16,13.3-23.8c4.4-7.8,8.8-15.6,13.3-22.8c4.4-7.2,8.8-13.1,13.3-20.4
	c4.4-7.4,8.8-16.5,13.3-23.9c4.4-7.4,8.8-14,13.3-20.6c4.4-6.6,8.9-13.1,13.3-19.2c4.4-6.2,8.8-12.1,13.3-17.9
	c4.4-5.7,8.8-11.2,13.3-16.6c4.4-5.3,8.8-10.4,13.3-15.3c4.4-4.9,8.8-9.6,13.3-14.2c4.4-4.5,8.8-8.9,13.3-13.1
	c4.4-4.2,8.8-8.2,13.3-12.1c4.4-3.9,8.9-7.6,13.3-11.3c4.4-3.6,8.8-7.1,13.3-10.5c4.4-3.4,8.8-6.6,13.3-9.7
	c4.4-3.1,8.8-6.2,13.3-9.1c4.4-2.9,8.8-5.7,13.3-8.5c4.4-2.7,8.8-5.4,13.3-7.9c4.4-2.6,8.8-5,13.3-7.4c4.4-2.4,6.7-3.7,13.3-7
	c6.7-3.3,17.7-8.8,26.6-12.8c8.8-4,17.7-7.8,26.6-11.4c8.8-3.6,17.7-7,26.5-10.2c8.9-3.2,17.7-6.3,26.6-9.2
	c8.8-2.9,17.7-5.7,26.6-8.3c8.8-2.7,17.7-5.2,26.6-7.6c8.8-2.4,17.7-4.7,26.5-6.9c8.9-2.2,17.7-4.3,26.6-6.3c8.8-2,17.7-4,26.6-5.8
	c8.8-1.9,17.7-3.6,26.5-5.4V658l-531.4-0.9"/>
<path fill="#4F9B1E" d="M3206.7,656.4c4.4-7.9,8.8-16.2,13.3-23.6c4.4-7.4,8.8-14.6,13.3-20.9c4.4-6.3,8.8-10.5,13.3-16.8
	c4.4-6.3,8.8-14.9,13.3-21.1c4.4-6.2,8.8-10.9,13.3-15.9c4.4-4.9,8.9-9.5,13.3-13.8c4.4-4.3,8.8-8.2,13.3-12
	c4.4-3.8,8.8-7.2,13.3-10.5c4.4-3.3,8.8-6.3,13.3-9.3c4.4-2.9,8.8-5.6,13.3-8.2c4.4-2.6,8.8-5,13.3-7.3c4.4-2.3,8.8-4.5,13.3-6.5
	c4.4-2.1,8.9-4,13.3-5.9c4.4-1.9,8.8-3.6,13.3-5.3c4.4-1.7,8.8-3.3,13.3-4.8c4.4-1.5,8.8-3,13.3-4.4c4.4-1.4,8.8-2.7,13.3-4
	c4.4-1.3,8.8-2.5,13.3-3.7c4.4-1.2,8.8-2.3,13.3-3.4c4.4-1.1,6.7-1.7,13.3-3.2c6.7-1.5,17.7-3.9,26.6-5.7c8.8-1.8,17.7-3.4,26.6-4.9
	c8.8-1.5,17.7-3,26.5-4.3c8.9-1.4,17.7-2.6,26.6-3.8c8.8-1.2,17.7-2.3,26.6-3.4c8.8-1.1,17.7-2.1,26.6-3c8.8-1,17.7-1.9,26.5-2.8
	c8.9-0.9,17.7-1.7,26.6-2.5c8.8-0.8,17.7-1.5,26.6-2.3c8.8-0.7,17.7-1.4,26.5-2.1v236.2l-531.4-0.2"/>
<path fill="#8DC63F" d="M3206.7,656.4c4.4-7.7,8.8-15.8,13.3-23.2c4.4-7.4,8.8-14.6,13.3-21.2c4.4-6.6,8.8-12.8,13.3-18.4
	c4.4-5.6,8.8-10.6,13.3-15.3c4.4-4.7,8.8-8.8,13.3-12.7c4.4-3.9,8.9-7.3,13.3-10.6c4.4-3.2,8.8-6.1,13.3-8.9
	c4.4-2.7,8.8-5.2,13.3-7.6c4.4-2.3,8.8-4.5,13.3-6.5c4.4-2,8.8-3.9,13.3-5.7c4.4-1.8,8.8-3.4,13.3-5c4.4-1.5,8.8-3,13.3-4.4
	c4.4-1.4,8.9-2.7,13.3-3.9c4.4-1.2,8.8-2.4,13.3-3.5c4.4-1.1,8.8-2.1,13.3-3.1c4.4-1,8.8-1.9,13.3-2.8c4.4-0.9,8.8-1.8,13.3-2.6
	c4.4-0.8,8.8-1.6,13.3-2.3c4.4-0.7,8.8-1.5,13.3-2.1c4.4-0.7,8.9-1.3,12.1-2v161h-264.7"/>
<path fill="#1C5C85" d="M3206.7,656.4c4.4-7.4,8.8-16.1,13.3-22.3c4.4-6.2,8.8-11,13.3-15.2c4.4-4.2,8.8-6.3,13.3-10.1
	c4.4-3.9,8.8-9.3,13.3-13c4.4-3.7,8.8-6.3,13.3-9c4.4-2.7,8.9-5,13.3-7.2c4.4-2.2,8.8-4.1,13.3-5.9c4.4-1.8,8.8-3.4,13.3-4.9
	c4.4-1.5,8.8-2.8,13.3-4.1c4.4-1.3,8.8-2.4,13.3-3.5c4.4-1.1,8.8-2.1,13.3-3.1c4.4-1,8.8-1.8,13.3-2.7c4.4-0.8,8.9-1.6,13.3-2.4
	c4.4-0.7,8.8-1.4,13.3-2.1c4.4-0.7,8.8-1.3,13.3-1.9c4.4-0.6,8.8-1.1,13.3-1.7c4.4-0.5,8.8-1,13.3-1.5c4.4-0.5,8.8-0.9,13.3-1.4
	c4.4-0.4,8.8-0.9,13.3-1.3c4.4-0.4,6.7-0.6,13.3-1.2c6.7-0.5,17.7-1.4,26.6-2.1c8.8-0.6,17.7-1.2,26.6-1.8
	c8.8-0.5,17.7-1.1,26.5-1.5c8.9-0.5,17.7-0.9,26.6-1.3c8.8-0.4,17.7-0.8,26.6-1.2c8.8-0.4,17.7-0.7,26.6-1.1
	c8.8-0.3,17.7-0.6,26.5-0.9c8.9-0.3,17.7-0.6,26.6-0.9c8.8-0.3,17.7-0.5,26.6-0.8c8.8-0.2,17.7-0.5,26.5-0.7v127.1l-531.4-0.2"/>
<path fill="#EA9E24" d="M3206.7,656.4c4.4-7,8.8-14.9,13.3-20.9c4.4-5.9,8.8-10.4,13.3-14.7c4.4-4.4,8.8-8.2,13.3-11.4
	c4.4-3.3,8.8-5.8,13.3-8.2c4.4-2.4,8.8-4.4,13.3-6.2c4.4-1.8,8.9-3.4,13.3-4.8c4.4-1.4,8.8-2.7,13.3-3.8c4.4-1.2,8.8-2.2,13.3-3.1
	c4.4-1,8.8-1.8,13.3-2.6c4.4-0.8,8.8-1.5,13.3-2.2c4.4-0.7,8.8-1.3,13.3-1.9c4.4-0.6,8.8-1.1,13.3-1.6c4.4-0.5,8.9-1,13.3-1.4
	c4.4-0.5,8.8-0.9,13.3-1.3c4.4-0.4,8.8-0.8,13.3-1.1c4.4-0.4,8.8-0.7,13.3-1c4.4-0.3,8.8-0.6,13.3-0.9c4.4-0.3,8.8-0.6,13.3-0.8
	c4.4-0.3,8.8-0.5,13.3-0.8c4.4-0.2,8.9-0.5,12.1-0.7v88.9l-264.7,1.4"/>
<path fill="#CD1D23" d="M3206.7,656.4c4.4-6.2,8.8-13.5,13.3-18.6c4.4-5.2,8.8-8.8,13.3-12.4c4.4-3.6,8.8-6.8,13.3-9.5
	c4.4-2.7,8.8-4.7,13.3-6.6c4.4-1.9,8.8-3.5,13.3-4.9c4.4-1.4,8.9-2.6,13.3-3.8c4.4-1.1,8.8-2.1,13.3-3c4.4-0.9,8.8-1.7,13.3-2.4
	c4.4-0.7,8.8-1.4,13.3-2c4.4-0.6,8.8-1.2,13.3-1.7c4.4-0.5,8.8-1,13.3-1.5c4.4-0.5,8.8-0.9,13.3-1.3c4.4-0.4,8.9-0.8,13.3-1.1
	c4.4-0.4,8.8-0.7,13.3-1c4.4-0.3,8.8-0.6,13.3-0.9c4.4-0.3,8.8-0.5,13.3-0.8c4.4-0.2,8.8-0.5,13.3-0.7c4.4-0.2,8.8-0.4,13.3-0.6
	c4.4-0.2,8.8-0.4,13.3-0.6c4.4-0.2,8.9-0.4,12.1-0.5v73.2h-264.7"/>
<path fill="#D6BC3E" d="M3206.7,656.4c4.4-4.7,8.8-10.7,13.3-14.1c4.4-3.4,8.8-4.4,13.3-6.3c4.4-1.9,8.8-3.7,13.3-5
	c4.4-1.4,8.8-2.3,13.3-3.2c4.4-0.9,8.8-1.6,13.3-2.2c4.4-0.6,8.9-1.2,13.3-1.7c4.4-0.5,8.8-0.9,13.3-1.3c4.4-0.4,8.8-0.7,13.3-1
	c4.4-0.3,8.8-0.6,13.3-0.8c4.4-0.3,8.8-0.5,13.3-0.7c4.4-0.2,8.8-0.4,13.3-0.6c4.4-0.2,8.8-0.3,13.3-0.5c4.4-0.2,8.9-0.3,13.3-0.4
	c4.4-0.1,8.8-0.3,13.3-0.4c4.4-0.1,8.8-0.2,13.3-0.3c4.4-0.1,8.8-0.2,13.3-0.3c4.4-0.1,8.8-0.2,13.3-0.3c4.4-0.1,8.8-0.2,13.3-0.3
	c4.4-0.1,8.8-0.2,13.3-0.2c4.4-0.1,8.9-0.1,12.1-0.2v39.1h-264.7"/>
<g>
	<path fill="#1C5C85" d="M3154.6,530.3v2.1h-11v3.8h-1.8v-9.7h1.8v3.8H3154.6z"/>
	<path fill="#1C5C85" d="M3154.6,516.3v2.1h-6c-0.8,0-1.3,0.2-1.7,0.5c-0.4,0.3-0.6,0.8-0.6,1.4c0,0.9,0.3,1.5,0.8,1.9
		c0.5,0.4,1.4,0.6,2.6,0.6h4.8v2.1h-13.7v-2.1h3.5c0.6,0,1.2,0,1.8,0.1v-0.1c-0.5-0.3-0.8-0.7-1.1-1.2c-0.3-0.5-0.4-1.1-0.4-1.8
		c0-2.4,1.2-3.5,3.6-3.5H3154.6z"/>
	<path fill="#1C5C85" d="M3154.7,509.1c0,1.5-0.4,2.7-1.3,3.5c-0.9,0.9-2.1,1.3-3.6,1.3c-1.6,0-2.8-0.4-3.7-1.2s-1.4-1.9-1.4-3.3
		c0-1.3,0.4-2.3,1.2-3s1.9-1.1,3.2-1.1h1.1v6.5c0.9,0,1.7-0.3,2.2-0.8c0.5-0.5,0.8-1.2,0.8-2c0-0.6-0.1-1.1-0.2-1.6
		c-0.1-0.5-0.3-1-0.5-1.6h1.7c0.2,0.5,0.4,1,0.5,1.5S3154.7,508.5,3154.7,509.1z M3146.2,509.5c0,0.7,0.2,1.2,0.6,1.6
		c0.4,0.4,1,0.6,1.8,0.7v-4.4c-0.8,0-1.4,0.2-1.8,0.6C3146.4,508.4,3146.2,508.9,3146.2,509.5z"/>
	<path fill="#1C5C85" d="M3144.7,498.1c0-0.4,0-0.8,0.1-1l1.9,0.2c-0.1,0.3-0.1,0.6-0.1,0.9c0,0.8,0.3,1.5,0.8,2s1.2,0.8,2.1,0.8
		h5.1v2.1h-9.7v-1.6l1.7-0.3V501c-0.6-0.3-1-0.7-1.4-1.3C3144.8,499.2,3144.7,498.7,3144.7,498.1z"/>
	<path fill="#1C5C85" d="M3154.6,487.1v2.1h-6c-0.7,0-1.3,0.1-1.7,0.4c-0.4,0.3-0.5,0.7-0.5,1.3c0,0.8,0.3,1.4,0.8,1.8
		c0.5,0.4,1.4,0.6,2.6,0.6h4.8v2.1h-9.7v-1.6l1.3-0.3v-0.1c-0.5-0.3-0.8-0.7-1.1-1.2s-0.4-1.1-0.4-1.7c0-1.5,0.5-2.5,1.5-3v-0.1
		c-0.5-0.3-0.9-0.7-1.1-1.2s-0.4-1.1-0.4-1.8c0-1.2,0.3-2,0.9-2.5c0.6-0.5,1.5-0.8,2.7-0.8h6.3v2.1h-6c-0.7,0-1.3,0.1-1.7,0.4
		c-0.4,0.3-0.5,0.7-0.5,1.3c0,0.8,0.3,1.4,0.8,1.8c0.5,0.4,1.3,0.6,2.3,0.6H3154.6z"/>
	<path fill="#1C5C85" d="M3154.6,472l-1.4,0.4v0.1c0.6,0.5,1,0.9,1.2,1.4c0.2,0.5,0.3,1.1,0.3,1.8c0,1-0.3,1.7-0.8,2.2
		c-0.5,0.5-1.2,0.8-2.2,0.8c-1,0-1.8-0.4-2.3-1.1s-0.8-1.9-0.8-3.4l-0.1-1.7h-0.5c-0.6,0-1.1,0.1-1.4,0.4c-0.3,0.3-0.5,0.7-0.5,1.3
		c0,0.5,0.1,1,0.2,1.4s0.3,0.9,0.5,1.3l-1.5,0.7c-0.3-0.5-0.5-1.1-0.6-1.7c-0.1-0.6-0.2-1.2-0.2-1.8c0-1.2,0.3-2.2,0.8-2.8
		s1.4-0.9,2.5-0.9h6.5V472z M3153.1,475c0-0.8-0.2-1.4-0.6-1.8c-0.4-0.5-1-0.7-1.8-0.7h-0.8l0.1,1.2c0,1,0.2,1.7,0.5,2.1
		c0.3,0.4,0.7,0.7,1.3,0.7c0.4,0,0.8-0.1,1-0.4C3153,475.9,3153.1,475.6,3153.1,475z"/>
	<path fill="#1C5C85" d="M3154.6,465.5v2.1h-13.7v-2.1H3154.6z"/>
	<path fill="#1C5C85" d="M3145.6,449.2c1.3,0,2.4,0.4,3.1,1.3s1.1,2.1,1.1,3.8v1.3h4.8v2.1h-12.8V454c0-1.6,0.3-2.8,1-3.6
		C3143.3,449.6,3144.3,449.2,3145.6,449.2z M3148,455.6v-1.1c0-1.1-0.2-1.9-0.6-2.4s-1-0.8-1.8-0.8c-0.7,0-1.3,0.2-1.7,0.7
		s-0.5,1.2-0.5,2.1v1.5H3148z"/>
	<path fill="#1C5C85" d="M3154.7,442.6c0,1.5-0.4,2.7-1.3,3.5c-0.9,0.9-2.1,1.3-3.6,1.3c-1.6,0-2.8-0.4-3.7-1.2s-1.4-1.9-1.4-3.3
		c0-1.3,0.4-2.3,1.2-3s1.9-1.1,3.2-1.1h1.1v6.5c0.9,0,1.7-0.3,2.2-0.8c0.5-0.5,0.8-1.2,0.8-2c0-0.6-0.1-1.1-0.2-1.6
		c-0.1-0.5-0.3-1-0.5-1.6h1.7c0.2,0.5,0.4,1,0.5,1.5S3154.7,441.9,3154.7,442.6z M3146.2,443c0,0.7,0.2,1.2,0.6,1.6
		c0.4,0.4,1,0.6,1.8,0.7v-4.4c-0.8,0-1.4,0.2-1.8,0.6C3146.4,441.8,3146.2,442.3,3146.2,443z"/>
	<path fill="#1C5C85" d="M3144.7,431.5c0-0.4,0-0.8,0.1-1l1.9,0.2c-0.1,0.3-0.1,0.6-0.1,0.9c0,0.8,0.3,1.5,0.8,2s1.2,0.8,2.1,0.8
		h5.1v2.1h-9.7v-1.6l1.7-0.3v-0.1c-0.6-0.3-1-0.7-1.4-1.3C3144.8,432.7,3144.7,432.1,3144.7,431.5z"/>
	<path fill="#1C5C85" d="M3146.4,423.8v2.4h8.2v2.1h-8.2v1.6h-1l-0.6-1.6h-0.6c-1.1,0-2-0.3-2.6-0.8c-0.6-0.5-0.8-1.4-0.8-2.5
		c0-0.7,0.1-1.4,0.4-2.1l1.6,0.5c-0.2,0.5-0.2,1-0.2,1.5c0,0.5,0.1,0.8,0.4,1c0.3,0.2,0.7,0.3,1.3,0.3h0.6v-2.4H3146.4z"/>
	<path fill="#1C5C85" d="M3149.7,413.6c1.6,0,2.8,0.4,3.7,1.2s1.3,1.9,1.3,3.4c0,0.9-0.2,1.7-0.6,2.4s-1,1.2-1.8,1.6
		s-1.7,0.6-2.7,0.6c-1.6,0-2.8-0.4-3.7-1.2s-1.3-1.9-1.3-3.4c0-1.4,0.5-2.5,1.4-3.3C3146.9,414,3148.1,413.6,3149.7,413.6z
		 M3149.7,420.6c2.2,0,3.4-0.8,3.4-2.5c0-1.6-1.1-2.5-3.4-2.5c-2.2,0-3.3,0.8-3.3,2.5c0,0.9,0.3,1.5,0.9,1.9
		S3148.6,420.6,3149.7,420.6z"/>
	<path fill="#1C5C85" d="M3144.7,406.3c0-0.4,0-0.8,0.1-1l1.9,0.2c-0.1,0.3-0.1,0.6-0.1,0.9c0,0.8,0.3,1.5,0.8,2s1.2,0.8,2.1,0.8
		h5.1v2.1h-9.7v-1.6l1.7-0.3v-0.1c-0.6-0.3-1-0.7-1.4-1.3C3144.8,407.4,3144.7,406.9,3144.7,406.3z"/>
	<path fill="#1C5C85" d="M3154.6,395.2v2.1h-6c-0.7,0-1.3,0.1-1.7,0.4c-0.4,0.3-0.5,0.7-0.5,1.3c0,0.8,0.3,1.4,0.8,1.8
		c0.5,0.4,1.4,0.6,2.6,0.6h4.8v2.1h-9.7v-1.6l1.3-0.3v-0.1c-0.5-0.3-0.8-0.7-1.1-1.2s-0.4-1.1-0.4-1.7c0-1.5,0.5-2.5,1.5-3v-0.1
		c-0.5-0.3-0.9-0.7-1.1-1.2s-0.4-1.1-0.4-1.8c0-1.2,0.3-2,0.9-2.5c0.6-0.5,1.5-0.8,2.7-0.8h6.3v2.1h-6c-0.7,0-1.3,0.1-1.7,0.4
		c-0.4,0.3-0.5,0.7-0.5,1.3c0,0.8,0.3,1.4,0.8,1.8c0.5,0.4,1.3,0.6,2.3,0.6H3154.6z"/>
	<path fill="#1C5C85" d="M3154.6,380.1l-1.4,0.4v0.1c0.6,0.5,1,0.9,1.2,1.4c0.2,0.5,0.3,1.1,0.3,1.8c0,1-0.3,1.7-0.8,2.2
		c-0.5,0.5-1.2,0.8-2.2,0.8c-1,0-1.8-0.4-2.3-1.1s-0.8-1.9-0.8-3.4l-0.1-1.7h-0.5c-0.6,0-1.1,0.1-1.4,0.4c-0.3,0.3-0.5,0.7-0.5,1.3
		c0,0.5,0.1,1,0.2,1.4s0.3,0.9,0.5,1.3l-1.5,0.7c-0.3-0.5-0.5-1.1-0.6-1.7c-0.1-0.6-0.2-1.2-0.2-1.8c0-1.2,0.3-2.2,0.8-2.8
		s1.4-0.9,2.5-0.9h6.5V380.1z M3153.1,383.2c0-0.8-0.2-1.4-0.6-1.8c-0.4-0.5-1-0.7-1.8-0.7h-0.8l0.1,1.2c0,1,0.2,1.7,0.5,2.1
		c0.3,0.4,0.7,0.7,1.3,0.7c0.4,0,0.8-0.1,1-0.4C3153,384.1,3153.1,383.7,3153.1,383.2z"/>
	<path fill="#1C5C85" d="M3154.6,367.2v2.1h-6c-0.8,0-1.3,0.2-1.7,0.5c-0.4,0.3-0.6,0.8-0.6,1.4c0,0.9,0.3,1.5,0.8,1.9
		s1.4,0.6,2.6,0.6h4.8v2.1h-9.7v-1.6l1.3-0.3v-0.1c-0.5-0.3-0.8-0.7-1.1-1.2s-0.4-1.1-0.4-1.8c0-2.3,1.2-3.5,3.6-3.5H3154.6z"/>
	<path fill="#1C5C85" d="M3154.7,360.4c0,1.5-0.4,2.6-1.3,3.4c-0.9,0.8-2.1,1.1-3.7,1.1c-1.6,0-2.9-0.4-3.8-1.2
		c-0.9-0.8-1.3-2-1.3-3.5c0-1,0.2-1.9,0.6-2.8l1.7,0.6c-0.3,0.9-0.5,1.6-0.5,2.2c0,1.7,1.1,2.5,3.3,2.5c1.1,0,1.9-0.2,2.5-0.6
		c0.5-0.4,0.8-1,0.8-1.8c0-0.9-0.2-1.8-0.7-2.6h1.8c0.2,0.4,0.4,0.8,0.5,1.2C3154.7,359.3,3154.7,359.8,3154.7,360.4z"/>
	<path fill="#1C5C85" d="M3154.7,351.2c0,1.5-0.4,2.7-1.3,3.5c-0.9,0.9-2.1,1.3-3.6,1.3c-1.6,0-2.8-0.4-3.7-1.2s-1.4-1.9-1.4-3.3
		c0-1.3,0.4-2.3,1.2-3s1.9-1.1,3.2-1.1h1.1v6.5c0.9,0,1.7-0.3,2.2-0.8c0.5-0.5,0.8-1.2,0.8-2c0-0.6-0.1-1.1-0.2-1.6
		c-0.1-0.5-0.3-1-0.5-1.6h1.7c0.2,0.5,0.4,1,0.5,1.5S3154.7,350.5,3154.7,351.2z M3146.2,351.6c0,0.7,0.2,1.2,0.6,1.6
		c0.4,0.4,1,0.6,1.8,0.7v-4.4c-0.8,0-1.4,0.2-1.8,0.6C3146.4,350.4,3146.2,350.9,3146.2,351.6z"/>
	<path fill="#1C5C85" d="M3149.6,341.1c-1.6,0-3-0.2-4.4-0.7c-1.4-0.5-2.5-1.1-3.6-2v-1.8c1.1,0.8,2.3,1.4,3.7,1.9
		c1.4,0.4,2.8,0.7,4.2,0.7s2.8-0.2,4.2-0.7s2.6-1.1,3.6-1.9v1.8c-1,0.9-2.2,1.5-3.5,2S3151.2,341.1,3149.6,341.1z"/>
	<path fill="#1C5C85" d="M3154.6,322.6v2.3l-7.7,2.2c-0.3,0.1-0.8,0.2-1.4,0.4c-0.6,0.1-1.1,0.2-1.3,0.3c0.4,0.1,0.9,0.2,1.5,0.3
		c0.6,0.1,1,0.2,1.3,0.3l7.6,2.1v2.3l-6.4,1.7l-6.4,1.7v-2.1l7.5-1.8c1.2-0.3,2.3-0.5,3.2-0.6c-0.5-0.1-1.1-0.2-1.7-0.3
		s-1.1-0.2-1.5-0.4l-7.5-2.1v-2.1l7.5-2.1c0.7-0.2,1.7-0.4,3.1-0.7c-0.8-0.1-1.9-0.3-3.2-0.6l-7.5-1.8v-2.1L3154.6,322.6z"/>
	<path fill="#1C5C85" d="M3141.7,312.3l12.8,4.8v2l-12.8-4.8V312.3z"/>
	<path fill="#1C5C85" d="M3143.3,305c0,1.2,0.4,2.2,1.3,2.8s2,1,3.5,1c1.6,0,2.8-0.3,3.6-1s1.2-1.6,1.2-2.9c0-0.5-0.1-1.1-0.2-1.6
		c-0.1-0.5-0.2-1-0.4-1.6h1.8c0.4,1,0.6,2.2,0.6,3.4c0,1.9-0.6,3.3-1.7,4.3c-1.1,1-2.8,1.5-4.9,1.5c-1.3,0-2.5-0.2-3.5-0.7
		s-1.8-1.2-2.3-2.1s-0.8-2-0.8-3.3c0-1.3,0.3-2.5,0.8-3.6l1.7,0.8c-0.2,0.4-0.4,0.9-0.5,1.4C3143.4,303.9,3143.3,304.4,3143.3,305z"
		/>
	<path fill="#1C5C85" d="M3149.6,295.7c1.5,0,3,0.2,4.3,0.7c1.3,0.5,2.5,1.1,3.5,2v1.8c-1.1-0.8-2.3-1.4-3.6-1.9
		c-1.3-0.4-2.7-0.6-4.1-0.6c-1.4,0-2.8,0.2-4.2,0.7c-1.4,0.4-2.6,1.1-3.7,1.9v-1.8c1-0.9,2.2-1.5,3.6-2
		C3146.6,295.9,3148.1,295.7,3149.6,295.7z"/>
</g>
<g>
	<path fill="#595959" d="M3195,653.5c0,2.2-0.4,3.9-1.1,5s-1.8,1.6-3.2,1.6c-1.4,0-2.4-0.6-3.2-1.7c-0.7-1.1-1.1-2.8-1.1-4.9
		c0-2.2,0.3-3.9,1-5s1.8-1.6,3.2-1.6c1.4,0,2.5,0.6,3.2,1.7S3195,651.3,3195,653.5z M3188,653.5c0,1.9,0.2,3.2,0.7,4.1
		c0.4,0.9,1.1,1.3,2.1,1.3c1,0,1.7-0.4,2.1-1.3s0.7-2.2,0.7-4.1s-0.2-3.2-0.7-4.1s-1.1-1.3-2.1-1.3c-1,0-1.7,0.4-2.1,1.3
		S3188,651.6,3188,653.5z"/>
</g>
<g>
	<path fill="#595959" d="M3180.2,605.2c1.4,0,2.4,0.3,3.2,1s1.2,1.6,1.2,2.8c0,1.3-0.4,2.4-1.3,3.1s-2,1.1-3.5,1.1
		c-1.4,0-2.6-0.2-3.3-0.7v-1.4c0.4,0.3,0.9,0.5,1.5,0.6c0.6,0.1,1.2,0.2,1.8,0.2c1,0,1.8-0.2,2.4-0.7s0.9-1.2,0.9-2.1
		c0-1.8-1.1-2.7-3.3-2.7c-0.6,0-1.3,0.1-2.2,0.3l-0.8-0.5l0.5-6h6.4v1.3h-5.1l-0.3,3.9C3178.9,605.2,3179.6,605.2,3180.2,605.2z"/>
	<path fill="#595959" d="M3195,606.6c0,2.2-0.4,3.9-1.1,5s-1.8,1.6-3.2,1.6c-1.4,0-2.4-0.6-3.2-1.7c-0.7-1.1-1.1-2.8-1.1-4.9
		c0-2.2,0.3-3.9,1-5s1.8-1.6,3.2-1.6c1.4,0,2.5,0.6,3.2,1.7S3195,604.4,3195,606.6z M3188,606.6c0,1.9,0.2,3.2,0.7,4.1
		c0.4,0.9,1.1,1.3,2.1,1.3c1,0,1.7-0.4,2.1-1.3s0.7-2.2,0.7-4.1s-0.2-3.2-0.7-4.1s-1.1-1.3-2.1-1.3c-1,0-1.7,0.4-2.1,1.3
		S3188,604.7,3188,606.6z"/>
</g>
<g>
	<path fill="#595959" d="M3171.3,566.1h-1.4V557c0-0.8,0-1.5,0.1-2.2c-0.1,0.1-0.3,0.3-0.4,0.4s-0.8,0.7-2.1,1.7l-0.8-1l3.4-2.6h1.2
		V566.1z"/>
	<path fill="#595959" d="M3184.7,559.7c0,2.2-0.3,3.9-1,5s-1.8,1.6-3.2,1.6c-1.4,0-2.4-0.6-3.2-1.7c-0.7-1.1-1.1-2.8-1.1-4.9
		c0-2.2,0.3-3.9,1-5s1.8-1.6,3.2-1.6c1.4,0,2.5,0.6,3.2,1.7S3184.7,557.5,3184.7,559.7z M3177.7,559.7c0,1.9,0.2,3.2,0.7,4.1
		c0.4,0.9,1.1,1.3,2.1,1.3c1,0,1.7-0.4,2.1-1.3s0.7-2.2,0.7-4.1s-0.2-3.2-0.7-4.1s-1.1-1.3-2.1-1.3c-1,0-1.7,0.4-2.1,1.3
		S3177.7,557.8,3177.7,559.7z"/>
	<path fill="#595959" d="M3195,559.7c0,2.2-0.4,3.9-1.1,5s-1.8,1.6-3.2,1.6c-1.4,0-2.4-0.6-3.2-1.7c-0.7-1.1-1.1-2.8-1.1-4.9
		c0-2.2,0.3-3.9,1-5s1.8-1.6,3.2-1.6c1.4,0,2.5,0.6,3.2,1.7S3195,557.5,3195,559.7z M3188,559.7c0,1.9,0.2,3.2,0.7,4.1
		c0.4,0.9,1.1,1.3,2.1,1.3c1,0,1.7-0.4,2.1-1.3s0.7-2.2,0.7-4.1s-0.2-3.2-0.7-4.1s-1.1-1.3-2.1-1.3c-1,0-1.7,0.4-2.1,1.3
		S3188,557.8,3188,559.7z"/>
</g>
<g>
	<path fill="#595959" d="M3171.3,519.2h-1.4v-9.2c0-0.8,0-1.5,0.1-2.2c-0.1,0.1-0.3,0.3-0.4,0.4s-0.8,0.7-2.1,1.7l-0.8-1l3.4-2.6
		h1.2V519.2z"/>
	<path fill="#595959" d="M3180.2,511.4c1.4,0,2.4,0.3,3.2,1s1.2,1.6,1.2,2.8c0,1.3-0.4,2.4-1.3,3.1s-2,1.1-3.5,1.1
		c-1.4,0-2.6-0.2-3.3-0.7v-1.4c0.4,0.3,0.9,0.5,1.5,0.6c0.6,0.1,1.2,0.2,1.8,0.2c1,0,1.8-0.2,2.4-0.7s0.9-1.2,0.9-2.1
		c0-1.8-1.1-2.7-3.3-2.7c-0.6,0-1.3,0.1-2.2,0.3l-0.8-0.5l0.5-6h6.4v1.3h-5.1l-0.3,3.9C3178.9,511.4,3179.6,511.4,3180.2,511.4z"/>
	<path fill="#595959" d="M3195,512.8c0,2.2-0.4,3.9-1.1,5s-1.8,1.6-3.2,1.6c-1.4,0-2.4-0.6-3.2-1.7c-0.7-1.1-1.1-2.8-1.1-4.9
		c0-2.2,0.3-3.9,1-5s1.8-1.6,3.2-1.6c1.4,0,2.5,0.6,3.2,1.7S3195,510.6,3195,512.8z M3188,512.8c0,1.9,0.2,3.2,0.7,4.1
		c0.4,0.9,1.1,1.3,2.1,1.3c1,0,1.7-0.4,2.1-1.3s0.7-2.2,0.7-4.1s-0.2-3.2-0.7-4.1s-1.1-1.3-2.1-1.3c-1,0-1.7,0.4-2.1,1.3
		S3188,510.9,3188,512.8z"/>
</g>
<g>
	<path fill="#595959" d="M3174.4,472.3h-8.4v-1.3l3.4-3.4c1-1,1.7-1.8,2-2.2s0.6-0.9,0.7-1.3s0.2-0.9,0.2-1.4c0-0.7-0.2-1.2-0.6-1.6
		s-1-0.6-1.7-0.6c-0.5,0-1,0.1-1.5,0.3s-1,0.5-1.6,1l-0.8-1c1.2-1,2.5-1.5,3.9-1.5c1.2,0,2.2,0.3,2.8,0.9c0.7,0.6,1,1.4,1,2.5
		c0,0.8-0.2,1.6-0.7,2.4s-1.3,1.8-2.6,3l-2.8,2.8v0.1h6.6V472.3z"/>
	<path fill="#595959" d="M3184.7,465.9c0,2.2-0.3,3.9-1,5s-1.8,1.6-3.2,1.6c-1.4,0-2.4-0.6-3.2-1.7c-0.7-1.1-1.1-2.8-1.1-4.9
		c0-2.2,0.3-3.9,1-5s1.8-1.6,3.2-1.6c1.4,0,2.5,0.6,3.2,1.7S3184.7,463.7,3184.7,465.9z M3177.7,465.9c0,1.9,0.2,3.2,0.7,4.1
		c0.4,0.9,1.1,1.3,2.1,1.3c1,0,1.7-0.4,2.1-1.3s0.7-2.2,0.7-4.1s-0.2-3.2-0.7-4.1s-1.1-1.3-2.1-1.3c-1,0-1.7,0.4-2.1,1.3
		S3177.7,464,3177.7,465.9z"/>
	<path fill="#595959" d="M3195,465.9c0,2.2-0.4,3.9-1.1,5s-1.8,1.6-3.2,1.6c-1.4,0-2.4-0.6-3.2-1.7c-0.7-1.1-1.1-2.8-1.1-4.9
		c0-2.2,0.3-3.9,1-5s1.8-1.6,3.2-1.6c1.4,0,2.5,0.6,3.2,1.7S3195,463.7,3195,465.9z M3188,465.9c0,1.9,0.2,3.2,0.7,4.1
		c0.4,0.9,1.1,1.3,2.1,1.3c1,0,1.7-0.4,2.1-1.3s0.7-2.2,0.7-4.1s-0.2-3.2-0.7-4.1s-1.1-1.3-2.1-1.3c-1,0-1.7,0.4-2.1,1.3
		S3188,464,3188,465.9z"/>
</g>
<g>
	<path fill="#595959" d="M3174.4,425.4h-8.4v-1.3l3.4-3.4c1-1,1.7-1.8,2-2.2s0.6-0.9,0.7-1.3s0.2-0.9,0.2-1.4c0-0.7-0.2-1.2-0.6-1.6
		s-1-0.6-1.7-0.6c-0.5,0-1,0.1-1.5,0.3s-1,0.5-1.6,1l-0.8-1c1.2-1,2.5-1.5,3.9-1.5c1.2,0,2.2,0.3,2.8,0.9c0.7,0.6,1,1.4,1,2.5
		c0,0.8-0.2,1.6-0.7,2.4s-1.3,1.8-2.6,3l-2.8,2.8v0.1h6.6V425.4z"/>
	<path fill="#595959" d="M3180.2,417.6c1.4,0,2.4,0.3,3.2,1s1.2,1.6,1.2,2.8c0,1.3-0.4,2.4-1.3,3.1s-2,1.1-3.5,1.1
		c-1.4,0-2.6-0.2-3.3-0.7v-1.4c0.4,0.3,0.9,0.5,1.5,0.6c0.6,0.1,1.2,0.2,1.8,0.2c1,0,1.8-0.2,2.4-0.7s0.9-1.2,0.9-2.1
		c0-1.8-1.1-2.7-3.3-2.7c-0.6,0-1.3,0.1-2.2,0.3l-0.8-0.5l0.5-6h6.4v1.3h-5.1l-0.3,3.9C3178.9,417.6,3179.6,417.6,3180.2,417.6z"/>
	<path fill="#595959" d="M3195,419c0,2.2-0.4,3.9-1.1,5s-1.8,1.6-3.2,1.6c-1.4,0-2.4-0.6-3.2-1.7c-0.7-1.1-1.1-2.8-1.1-4.9
		c0-2.2,0.3-3.9,1-5s1.8-1.6,3.2-1.6c1.4,0,2.5,0.6,3.2,1.7S3195,416.8,3195,419z M3188,419c0,1.9,0.2,3.2,0.7,4.1
		c0.4,0.9,1.1,1.3,2.1,1.3c1,0,1.7-0.4,2.1-1.3s0.7-2.2,0.7-4.1s-0.2-3.2-0.7-4.1s-1.1-1.3-2.1-1.3c-1,0-1.7,0.4-2.1,1.3
		S3188,417.1,3188,419z"/>
</g>
<g>
	<path fill="#595959" d="M3173.9,368.7c0,0.8-0.2,1.5-0.7,2s-1.1,0.9-2,1v0.1c1,0.1,1.8,0.5,2.3,1s0.7,1.2,0.7,2.1
		c0,1.2-0.4,2.2-1.3,2.8c-0.8,0.7-2.1,1-3.6,1c-0.7,0-1.3-0.1-1.9-0.2c-0.6-0.1-1.1-0.3-1.6-0.5v-1.4c0.6,0.3,1.2,0.5,1.8,0.6
		c0.6,0.1,1.2,0.2,1.8,0.2c2.2,0,3.3-0.9,3.3-2.6c0-1.6-1.2-2.3-3.7-2.3h-1.3v-1.3h1.3c1,0,1.8-0.2,2.4-0.7s0.9-1.1,0.9-1.8
		c0-0.6-0.2-1.1-0.6-1.5s-1-0.5-1.8-0.5c-0.6,0-1.1,0.1-1.6,0.2s-1.1,0.4-1.7,0.8l-0.7-1c0.5-0.4,1.1-0.7,1.8-1
		c0.7-0.2,1.4-0.4,2.2-0.4c1.2,0,2.2,0.3,2.9,0.9C3173.5,366.9,3173.9,367.7,3173.9,368.7z"/>
	<path fill="#595959" d="M3184.7,372.1c0,2.2-0.3,3.9-1,5s-1.8,1.6-3.2,1.6c-1.4,0-2.4-0.6-3.2-1.7c-0.7-1.1-1.1-2.8-1.1-4.9
		c0-2.2,0.3-3.9,1-5s1.8-1.6,3.2-1.6c1.4,0,2.5,0.6,3.2,1.7S3184.7,369.9,3184.7,372.1z M3177.7,372.1c0,1.9,0.2,3.2,0.7,4.1
		c0.4,0.9,1.1,1.3,2.1,1.3c1,0,1.7-0.4,2.1-1.3s0.7-2.2,0.7-4.1s-0.2-3.2-0.7-4.1s-1.1-1.3-2.1-1.3c-1,0-1.7,0.4-2.1,1.3
		S3177.7,370.2,3177.7,372.1z"/>
	<path fill="#595959" d="M3195,372.1c0,2.2-0.4,3.9-1.1,5s-1.8,1.6-3.2,1.6c-1.4,0-2.4-0.6-3.2-1.7c-0.7-1.1-1.1-2.8-1.1-4.9
		c0-2.2,0.3-3.9,1-5s1.8-1.6,3.2-1.6c1.4,0,2.5,0.6,3.2,1.7S3195,369.9,3195,372.1z M3188,372.1c0,1.9,0.2,3.2,0.7,4.1
		c0.4,0.9,1.1,1.3,2.1,1.3c1,0,1.7-0.4,2.1-1.3s0.7-2.2,0.7-4.1s-0.2-3.2-0.7-4.1s-1.1-1.3-2.1-1.3c-1,0-1.7,0.4-2.1,1.3
		S3188,370.2,3188,372.1z"/>
</g>
<g>
	<path fill="#595959" d="M3173.9,321.8c0,0.8-0.2,1.5-0.7,2s-1.1,0.9-2,1v0.1c1,0.1,1.8,0.5,2.3,1s0.7,1.2,0.7,2.1
		c0,1.2-0.4,2.2-1.3,2.8c-0.8,0.7-2.1,1-3.6,1c-0.7,0-1.3-0.1-1.9-0.2c-0.6-0.1-1.1-0.3-1.6-0.5v-1.4c0.6,0.3,1.2,0.5,1.8,0.6
		c0.6,0.1,1.2,0.2,1.8,0.2c2.2,0,3.3-0.9,3.3-2.6c0-1.6-1.2-2.3-3.7-2.3h-1.3v-1.3h1.3c1,0,1.8-0.2,2.4-0.7s0.9-1.1,0.9-1.8
		c0-0.6-0.2-1.1-0.6-1.5s-1-0.5-1.8-0.5c-0.6,0-1.1,0.1-1.6,0.2s-1.1,0.4-1.7,0.8l-0.7-1c0.5-0.4,1.1-0.7,1.8-1
		c0.7-0.2,1.4-0.4,2.2-0.4c1.2,0,2.2,0.3,2.9,0.9C3173.5,320,3173.9,320.8,3173.9,321.8z"/>
	<path fill="#595959" d="M3180.2,323.8c1.4,0,2.4,0.3,3.2,1s1.2,1.6,1.2,2.8c0,1.3-0.4,2.4-1.3,3.1s-2,1.1-3.5,1.1
		c-1.4,0-2.6-0.2-3.3-0.7v-1.4c0.4,0.3,0.9,0.5,1.5,0.6c0.6,0.1,1.2,0.2,1.8,0.2c1,0,1.8-0.2,2.4-0.7s0.9-1.2,0.9-2.1
		c0-1.8-1.1-2.7-3.3-2.7c-0.6,0-1.3,0.1-2.2,0.3l-0.8-0.5l0.5-6h6.4v1.3h-5.1l-0.3,3.9C3178.9,323.9,3179.6,323.8,3180.2,323.8z"/>
	<path fill="#595959" d="M3195,325.2c0,2.2-0.4,3.9-1.1,5s-1.8,1.6-3.2,1.6c-1.4,0-2.4-0.6-3.2-1.7c-0.7-1.1-1.1-2.8-1.1-4.9
		c0-2.2,0.3-3.9,1-5s1.8-1.6,3.2-1.6c1.4,0,2.5,0.6,3.2,1.7S3195,323,3195,325.2z M3188,325.2c0,1.9,0.2,3.2,0.7,4.1
		c0.4,0.9,1.1,1.3,2.1,1.3c1,0,1.7-0.4,2.1-1.3s0.7-2.2,0.7-4.1s-0.2-3.2-0.7-4.1s-1.1-1.3-2.1-1.3c-1,0-1.7,0.4-2.1,1.3
		S3188,323.3,3188,325.2z"/>
</g>
<g>
	<path fill="#595959" d="M3175,281.8h-1.9v3h-1.4v-3h-6.2v-1.3l6.1-8.7h1.5v8.6h1.9V281.8z M3171.7,280.5v-4.3c0-0.8,0-1.8,0.1-2.8
		h-0.1c-0.3,0.6-0.5,1-0.8,1.4l-4,5.7H3171.7z"/>
	<path fill="#595959" d="M3184.7,278.3c0,2.2-0.3,3.9-1,5s-1.8,1.6-3.2,1.6c-1.4,0-2.4-0.6-3.2-1.7c-0.7-1.1-1.1-2.8-1.1-4.9
		c0-2.2,0.3-3.9,1-5s1.8-1.6,3.2-1.6c1.4,0,2.5,0.6,3.2,1.7S3184.7,276.1,3184.7,278.3z M3177.7,278.3c0,1.9,0.2,3.2,0.7,4.1
		c0.4,0.9,1.1,1.3,2.1,1.3c1,0,1.7-0.4,2.1-1.3s0.7-2.2,0.7-4.1s-0.2-3.2-0.7-4.1s-1.1-1.3-2.1-1.3c-1,0-1.7,0.4-2.1,1.3
		S3177.7,276.4,3177.7,278.3z"/>
	<path fill="#595959" d="M3195,278.3c0,2.2-0.4,3.9-1.1,5s-1.8,1.6-3.2,1.6c-1.4,0-2.4-0.6-3.2-1.7c-0.7-1.1-1.1-2.8-1.1-4.9
		c0-2.2,0.3-3.9,1-5s1.8-1.6,3.2-1.6c1.4,0,2.5,0.6,3.2,1.7S3195,276.1,3195,278.3z M3188,278.3c0,1.9,0.2,3.2,0.7,4.1
		c0.4,0.9,1.1,1.3,2.1,1.3c1,0,1.7-0.4,2.1-1.3s0.7-2.2,0.7-4.1s-0.2-3.2-0.7-4.1s-1.1-1.3-2.1-1.3c-1,0-1.7,0.4-2.1,1.3
		S3188,276.4,3188,278.3z"/>
</g>
<g>
	<path fill="#595959" d="M3175,234.9h-1.9v3h-1.4v-3h-6.2v-1.3l6.1-8.7h1.5v8.6h1.9V234.9z M3171.7,233.6v-4.3c0-0.8,0-1.8,0.1-2.8
		h-0.1c-0.3,0.6-0.5,1-0.8,1.4l-4,5.7H3171.7z"/>
	<path fill="#595959" d="M3180.2,230c1.4,0,2.4,0.3,3.2,1s1.2,1.6,1.2,2.8c0,1.3-0.4,2.4-1.3,3.1s-2,1.1-3.5,1.1
		c-1.4,0-2.6-0.2-3.3-0.7v-1.4c0.4,0.3,0.9,0.5,1.5,0.6c0.6,0.1,1.2,0.2,1.8,0.2c1,0,1.8-0.2,2.4-0.7s0.9-1.2,0.9-2.1
		c0-1.8-1.1-2.7-3.3-2.7c-0.6,0-1.3,0.1-2.2,0.3l-0.8-0.5l0.5-6h6.4v1.3h-5.1l-0.3,3.9C3178.9,230.1,3179.6,230,3180.2,230z"/>
	<path fill="#595959" d="M3195,231.4c0,2.2-0.4,3.9-1.1,5s-1.8,1.6-3.2,1.6c-1.4,0-2.4-0.6-3.2-1.7c-0.7-1.1-1.1-2.8-1.1-4.9
		c0-2.2,0.3-3.9,1-5s1.8-1.6,3.2-1.6c1.4,0,2.5,0.6,3.2,1.7S3195,229.2,3195,231.4z M3188,231.4c0,1.9,0.2,3.2,0.7,4.1
		c0.4,0.9,1.1,1.3,2.1,1.3c1,0,1.7-0.4,2.1-1.3s0.7-2.2,0.7-4.1s-0.2-3.2-0.7-4.1s-1.1-1.3-2.1-1.3c-1,0-1.7,0.4-2.1,1.3
		S3188,229.5,3188,231.4z"/>
</g>
<g>
	<path fill="#595959" d="M3169.9,183.1c1.4,0,2.4,0.3,3.2,1s1.2,1.6,1.2,2.8c0,1.3-0.4,2.4-1.3,3.1s-2,1.1-3.5,1.1
		c-1.4,0-2.6-0.2-3.3-0.7V189c0.4,0.3,0.9,0.5,1.5,0.6s1.2,0.2,1.8,0.2c1,0,1.8-0.2,2.4-0.7s0.9-1.2,0.9-2.1c0-1.8-1.1-2.7-3.3-2.7
		c-0.6,0-1.3,0.1-2.2,0.3l-0.8-0.5l0.5-6h6.4v1.3h-5.1l-0.3,3.9C3168.6,183.2,3169.3,183.1,3169.9,183.1z"/>
	<path fill="#595959" d="M3184.7,184.5c0,2.2-0.3,3.9-1,5s-1.8,1.6-3.2,1.6c-1.4,0-2.4-0.6-3.2-1.7s-1.1-2.8-1.1-4.9
		c0-2.2,0.3-3.9,1-5s1.8-1.6,3.2-1.6c1.4,0,2.5,0.6,3.2,1.7S3184.7,182.4,3184.7,184.5z M3177.7,184.5c0,1.9,0.2,3.2,0.7,4.1
		s1.1,1.3,2.1,1.3c1,0,1.7-0.4,2.1-1.3s0.7-2.2,0.7-4.1s-0.2-3.2-0.7-4.1s-1.1-1.3-2.1-1.3c-1,0-1.7,0.4-2.1,1.3
		S3177.7,182.6,3177.7,184.5z"/>
	<path fill="#595959" d="M3195,184.5c0,2.2-0.4,3.9-1.1,5s-1.8,1.6-3.2,1.6c-1.4,0-2.4-0.6-3.2-1.7s-1.1-2.8-1.1-4.9
		c0-2.2,0.3-3.9,1-5s1.8-1.6,3.2-1.6c1.4,0,2.5,0.6,3.2,1.7S3195,182.4,3195,184.5z M3188,184.5c0,1.9,0.2,3.2,0.7,4.1
		s1.1,1.3,2.1,1.3c1,0,1.7-0.4,2.1-1.3s0.7-2.2,0.7-4.1s-0.2-3.2-0.7-4.1s-1.1-1.3-2.1-1.3c-1,0-1.7,0.4-2.1,1.3
		S3188,182.6,3188,184.5z"/>
</g>
<g>
	<g>
		<path fill="#1C5C85" d="M3241.8,762.9l-1.5-11.7h-0.1c0,0.4-0.1,1-0.3,1.8c-0.1,0.8-0.2,1.4-0.3,1.8l-1.7,8.1h-1.5l2.8-13.1h2.2
			l1.3,10.8h0.1l5.9-10.8h2.4l-2.7,13.1h-1.6c0.8-3.5,1.3-6.3,1.7-8.1c0.4-1.9,0.7-3.1,0.8-3.5h-0.1l-6.4,11.7H3241.8z"/>
		<path fill="#1C5C85" d="M3256.9,752.9c1.1,0,2,0.3,2.7,1c0.7,0.7,1,1.6,1,2.8c0,1.1-0.2,2.2-0.6,3.2c-0.4,1-1,1.8-1.8,2.3
			c-0.7,0.5-1.6,0.8-2.5,0.8c-1.2,0-2.1-0.3-2.7-1s-1-1.6-1-2.8c0-1.1,0.2-2.2,0.7-3.2c0.4-1,1-1.8,1.8-2.3S3256,752.9,3256.9,752.9
			z M3259,756.5c0-0.7-0.2-1.2-0.6-1.7c-0.4-0.4-0.9-0.6-1.5-0.6c-0.7,0-1.2,0.2-1.8,0.7c-0.5,0.4-0.9,1.1-1.2,1.8
			c-0.3,0.8-0.4,1.7-0.4,2.6c0,0.8,0.2,1.4,0.6,1.8s0.9,0.6,1.6,0.6c0.6,0,1.2-0.2,1.7-0.7s0.9-1.1,1.2-1.9
			C3258.9,758.5,3259,757.6,3259,756.5z"/>
		<path fill="#1C5C85" d="M3267.2,752.9c1.2,0,2,0.6,2.5,1.7h0.1c0.1-0.9,0.2-1.8,0.4-2.5l0.7-3.2h1.5l-3,14h-1.2l0.2-1.9h-0.1
			c-0.6,0.8-1.2,1.3-1.7,1.6c-0.5,0.3-1.1,0.5-1.6,0.5c-0.8,0-1.5-0.3-2-0.9c-0.5-0.6-0.7-1.4-0.7-2.4c0-1.3,0.2-2.5,0.6-3.5
			s1-1.9,1.7-2.5C3265.4,753.2,3266.3,752.9,3267.2,752.9z M3265.5,761.9c0.6,0,1.1-0.3,1.7-0.8c0.6-0.6,1.1-1.3,1.4-2.1
			s0.5-1.8,0.5-2.7c0-0.7-0.2-1.2-0.5-1.5c-0.3-0.3-0.8-0.5-1.4-0.5c-0.6,0-1.2,0.2-1.7,0.7c-0.5,0.5-0.9,1.2-1.2,2.1
			c-0.3,0.9-0.5,1.8-0.5,2.8C3263.9,761.2,3264.4,761.9,3265.5,761.9z"/>
		<path fill="#1C5C85" d="M3276.5,763.1c-1.1,0-2-0.3-2.6-1c-0.6-0.7-0.9-1.6-0.9-2.7c0-1.1,0.2-2.2,0.7-3.2c0.4-1,1-1.8,1.8-2.4
			c0.7-0.6,1.5-0.9,2.4-0.9c0.9,0,1.6,0.2,2.1,0.6s0.7,1,0.7,1.7c0,1.1-0.5,1.9-1.5,2.5c-1,0.6-2.4,0.9-4.3,0.9h-0.3l0,0.7
			c0,0.8,0.2,1.4,0.6,1.8c0.4,0.4,0.9,0.7,1.7,0.7c0.4,0,0.8-0.1,1.2-0.2c0.4-0.1,0.9-0.3,1.5-0.6v1.3c-0.6,0.3-1.1,0.4-1.5,0.6
			S3277,763.1,3276.5,763.1z M3277.7,754.2c-0.6,0-1.2,0.3-1.7,0.8s-1,1.3-1.2,2.3h0.1c1.4,0,2.4-0.2,3.1-0.5s1.1-0.9,1.1-1.6
			c0-0.3-0.1-0.6-0.3-0.8C3278.5,754.3,3278.2,754.2,3277.7,754.2z"/>
		<path fill="#1C5C85" d="M3283.2,762.9h-1.5l3-14h1.5L3283.2,762.9z"/>
		<path fill="#1C5C85" d="M3292.6,762.9l4.9-10.8h-6.5v-2.3h9.4v1.7l-5,11.4H3292.6z"/>
		<path fill="#1C5C85" d="M3311,762.9h-9.2V761l3.3-3.3c1-1,1.6-1.7,1.9-2.1c0.3-0.4,0.5-0.7,0.6-1.1c0.1-0.3,0.2-0.7,0.2-1
			c0-0.5-0.1-0.9-0.4-1.2c-0.3-0.3-0.7-0.4-1.2-0.4c-0.5,0-1,0.1-1.5,0.4c-0.5,0.2-1,0.6-1.5,1l-1.5-1.8c0.6-0.6,1.2-0.9,1.6-1.2
			c0.4-0.2,0.9-0.4,1.4-0.5c0.5-0.1,1.1-0.2,1.7-0.2c0.8,0,1.5,0.1,2.2,0.4c0.6,0.3,1.1,0.7,1.5,1.3c0.3,0.5,0.5,1.2,0.5,1.9
			c0,0.6-0.1,1.2-0.3,1.7c-0.2,0.5-0.5,1.1-1,1.6c-0.4,0.6-1.2,1.4-2.4,2.4l-1.7,1.6v0.1h5.7V762.9z"/>
		<path fill="#1C5C85" d="M3321.5,756.4c0,2.3-0.4,4-1.1,5.1c-0.8,1.1-1.9,1.7-3.5,1.7c-1.5,0-2.7-0.6-3.4-1.7
			c-0.8-1.1-1.2-2.8-1.2-5c0-2.3,0.4-4,1.1-5.1c0.7-1.1,1.9-1.7,3.5-1.7c1.5,0,2.7,0.6,3.4,1.7
			C3321.1,752.5,3321.5,754.1,3321.5,756.4z M3315.1,756.4c0,1.6,0.1,2.8,0.4,3.5c0.3,0.7,0.7,1,1.4,1c0.6,0,1.1-0.4,1.4-1.1
			c0.3-0.7,0.4-1.9,0.4-3.5c0-1.6-0.1-2.8-0.4-3.5c-0.3-0.7-0.8-1.1-1.4-1.1c-0.7,0-1.1,0.4-1.4,1.1
			C3315.2,753.6,3315.1,754.7,3315.1,756.4z"/>
	</g>
	<path fill="#D6BC3E" d="M3218.4,751h13.5l-4.3,12.1h-13.5L3218.4,751z"/>
</g>
<g>
	<g>
		<path fill="#1C5C85" d="M3240.6,792.3l-1.5-11.7h-0.1c0,0.4-0.1,1-0.3,1.8c-0.1,0.8-0.2,1.4-0.3,1.8l-1.7,8.1h-1.5l2.8-13.1h2.2
			l1.3,10.8h0.1l5.9-10.8h2.4l-2.7,13.1h-1.6c0.8-3.5,1.3-6.3,1.7-8.1c0.4-1.9,0.7-3.1,0.8-3.5h-0.1l-6.4,11.7H3240.6z"/>
		<path fill="#1C5C85" d="M3255.7,782.4c1.1,0,2,0.3,2.7,1c0.7,0.7,1,1.6,1,2.8c0,1.1-0.2,2.2-0.6,3.2c-0.4,1-1,1.8-1.8,2.3
			c-0.7,0.5-1.6,0.8-2.5,0.8c-1.2,0-2.1-0.3-2.7-1s-1-1.6-1-2.8c0-1.1,0.2-2.2,0.7-3.2c0.4-1,1-1.8,1.8-2.3
			S3254.8,782.4,3255.7,782.4z M3257.9,785.9c0-0.7-0.2-1.2-0.6-1.7c-0.4-0.4-0.9-0.6-1.5-0.6c-0.7,0-1.2,0.2-1.8,0.7
			c-0.5,0.4-0.9,1.1-1.2,1.8c-0.3,0.8-0.4,1.7-0.4,2.6c0,0.8,0.2,1.4,0.6,1.8s0.9,0.6,1.6,0.6c0.6,0,1.2-0.2,1.7-0.7
			s0.9-1.1,1.2-1.9C3257.7,787.9,3257.9,787,3257.9,785.9z"/>
		<path fill="#1C5C85" d="M3266,782.3c1.2,0,2,0.6,2.5,1.7h0.1c0.1-0.9,0.2-1.8,0.4-2.5l0.7-3.2h1.5l-3,14h-1.2l0.2-1.9h-0.1
			c-0.6,0.8-1.2,1.3-1.7,1.6c-0.5,0.3-1.1,0.5-1.6,0.5c-0.8,0-1.5-0.3-2-0.9c-0.5-0.6-0.7-1.4-0.7-2.4c0-1.3,0.2-2.5,0.6-3.5
			s1-1.9,1.7-2.5C3264.3,782.6,3265.1,782.3,3266,782.3z M3264.3,791.3c0.6,0,1.1-0.3,1.7-0.8c0.6-0.6,1.1-1.3,1.4-2.1
			s0.5-1.8,0.5-2.7c0-0.7-0.2-1.2-0.5-1.5c-0.3-0.3-0.8-0.5-1.4-0.5c-0.6,0-1.2,0.2-1.7,0.7c-0.5,0.5-0.9,1.2-1.2,2.1
			c-0.3,0.9-0.5,1.8-0.5,2.8C3262.7,790.6,3263.2,791.3,3264.3,791.3z"/>
		<path fill="#1C5C85" d="M3275.3,792.5c-1.1,0-2-0.3-2.6-1c-0.6-0.7-0.9-1.6-0.9-2.7c0-1.1,0.2-2.2,0.7-3.2c0.4-1,1-1.8,1.8-2.4
			c0.7-0.6,1.5-0.9,2.4-0.9c0.9,0,1.6,0.2,2.1,0.6s0.7,1,0.7,1.7c0,1.1-0.5,1.9-1.5,2.5c-1,0.6-2.4,0.9-4.3,0.9h-0.3l0,0.7
			c0,0.8,0.2,1.4,0.6,1.8c0.4,0.4,0.9,0.7,1.7,0.7c0.4,0,0.8-0.1,1.2-0.2c0.4-0.1,0.9-0.3,1.5-0.6v1.3c-0.6,0.3-1.1,0.4-1.5,0.6
			S3275.9,792.5,3275.3,792.5z M3276.6,783.6c-0.6,0-1.2,0.3-1.7,0.8s-1,1.3-1.2,2.3h0.1c1.4,0,2.4-0.2,3.1-0.5s1.1-0.9,1.1-1.6
			c0-0.3-0.1-0.6-0.3-0.8C3277.4,783.7,3277.1,783.6,3276.6,783.6z"/>
		<path fill="#1C5C85" d="M3282,792.3h-1.5l3-14h1.5L3282,792.3z"/>
		<path fill="#1C5C85" d="M3291.5,792.3l4.9-10.8h-6.5v-2.3h9.4v1.7l-5,11.4H3291.5z"/>
		<path fill="#1C5C85" d="M3309.9,792.3h-9.2v-1.9l3.3-3.3c1-1,1.6-1.7,1.9-2.1c0.3-0.4,0.5-0.7,0.6-1.1c0.1-0.3,0.2-0.7,0.2-1
			c0-0.5-0.1-0.9-0.4-1.2c-0.3-0.3-0.7-0.4-1.2-0.4c-0.5,0-1,0.1-1.5,0.4c-0.5,0.2-1,0.6-1.5,1l-1.5-1.8c0.6-0.6,1.2-0.9,1.6-1.2
			c0.4-0.2,0.9-0.4,1.4-0.5c0.5-0.1,1.1-0.2,1.7-0.2c0.8,0,1.5,0.1,2.2,0.4c0.6,0.3,1.1,0.7,1.5,1.3c0.3,0.5,0.5,1.2,0.5,1.9
			c0,0.6-0.1,1.2-0.3,1.7c-0.2,0.5-0.5,1.1-1,1.6c-0.4,0.6-1.2,1.4-2.4,2.4l-1.7,1.6v0.1h5.7V792.3z"/>
		<path fill="#1C5C85" d="M3318.1,792.3h-2.8v-7.6l0-1.2l0-1.4c-0.5,0.5-0.8,0.8-1,0.9l-1.5,1.2l-1.3-1.7l4.2-3.4h2.3V792.3z"/>
	</g>
	<path fill="#CD1D23" d="M3218.4,780.4h13.5l-4.3,12.1h-13.5L3218.4,780.4z"/>
</g>
<g>
	<g>
		<path fill="#1C5C85" d="M3420.8,762.9l-1.5-11.7h-0.1c0,0.4-0.1,1-0.3,1.8c-0.1,0.8-0.2,1.4-0.3,1.8l-1.7,8.1h-1.5l2.8-13.1h2.2
			l1.3,10.8h0.1l5.9-10.8h2.4l-2.7,13.1h-1.6c0.8-3.5,1.3-6.3,1.7-8.1c0.4-1.9,0.7-3.1,0.8-3.5h-0.1l-6.4,11.7H3420.8z"/>
		<path fill="#1C5C85" d="M3435.9,752.9c1.1,0,2,0.3,2.7,1c0.7,0.7,1,1.6,1,2.8c0,1.1-0.2,2.2-0.6,3.2c-0.4,1-1,1.8-1.8,2.3
			c-0.7,0.5-1.6,0.8-2.5,0.8c-1.2,0-2.1-0.3-2.7-1s-1-1.6-1-2.8c0-1.1,0.2-2.2,0.7-3.2c0.4-1,1-1.8,1.8-2.3S3435,752.9,3435.9,752.9
			z M3438,756.5c0-0.7-0.2-1.2-0.6-1.7c-0.4-0.4-0.9-0.6-1.5-0.6c-0.7,0-1.2,0.2-1.8,0.7c-0.5,0.4-0.9,1.1-1.2,1.8
			c-0.3,0.8-0.4,1.7-0.4,2.6c0,0.8,0.2,1.4,0.6,1.8s0.9,0.6,1.6,0.6c0.6,0,1.2-0.2,1.7-0.7s0.9-1.1,1.2-1.9
			C3437.9,758.5,3438,757.6,3438,756.5z"/>
		<path fill="#1C5C85" d="M3446.2,752.9c1.2,0,2,0.6,2.5,1.7h0.1c0.1-0.9,0.2-1.8,0.4-2.5l0.7-3.2h1.5l-3,14h-1.2l0.2-1.9h-0.1
			c-0.6,0.8-1.2,1.3-1.7,1.6c-0.5,0.3-1.1,0.5-1.6,0.5c-0.8,0-1.5-0.3-2-0.9c-0.5-0.6-0.7-1.4-0.7-2.4c0-1.3,0.2-2.5,0.6-3.5
			s1-1.9,1.7-2.5C3444.5,753.2,3445.3,752.9,3446.2,752.9z M3444.5,761.9c0.6,0,1.1-0.3,1.7-0.8c0.6-0.6,1.1-1.3,1.4-2.1
			s0.5-1.8,0.5-2.7c0-0.7-0.2-1.2-0.5-1.5c-0.3-0.3-0.8-0.5-1.4-0.5c-0.6,0-1.2,0.2-1.7,0.7c-0.5,0.5-0.9,1.2-1.2,2.1
			c-0.3,0.9-0.5,1.8-0.5,2.8C3442.9,761.2,3443.4,761.9,3444.5,761.9z"/>
		<path fill="#1C5C85" d="M3455.5,763.1c-1.1,0-2-0.3-2.6-1c-0.6-0.7-0.9-1.6-0.9-2.7c0-1.1,0.2-2.2,0.7-3.2c0.4-1,1-1.8,1.8-2.4
			c0.7-0.6,1.5-0.9,2.4-0.9c0.9,0,1.6,0.2,2.1,0.6s0.7,1,0.7,1.7c0,1.1-0.5,1.9-1.5,2.5c-1,0.6-2.4,0.9-4.3,0.9h-0.3l0,0.7
			c0,0.8,0.2,1.4,0.6,1.8c0.4,0.4,0.9,0.7,1.7,0.7c0.4,0,0.8-0.1,1.2-0.2c0.4-0.1,0.9-0.3,1.5-0.6v1.3c-0.6,0.3-1.1,0.4-1.5,0.6
			S3456,763.1,3455.5,763.1z M3456.8,754.2c-0.6,0-1.2,0.3-1.7,0.8s-1,1.3-1.2,2.3h0.1c1.4,0,2.4-0.2,3.1-0.5s1.1-0.9,1.1-1.6
			c0-0.3-0.1-0.6-0.3-0.8C3457.6,754.3,3457.2,754.2,3456.8,754.2z"/>
		<path fill="#1C5C85" d="M3462.2,762.9h-1.5l3-14h1.5L3462.2,762.9z"/>
		<path fill="#1C5C85" d="M3471.7,762.9l4.9-10.8h-6.5v-2.3h9.4v1.7l-5,11.4H3471.7z"/>
		<path fill="#1C5C85" d="M3490.1,762.9h-9.2V761l3.3-3.3c1-1,1.6-1.7,1.9-2.1c0.3-0.4,0.5-0.7,0.6-1.1c0.1-0.3,0.2-0.7,0.2-1
			c0-0.5-0.1-0.9-0.4-1.2c-0.3-0.3-0.7-0.4-1.2-0.4c-0.5,0-1,0.1-1.5,0.4c-0.5,0.2-1,0.6-1.5,1l-1.5-1.8c0.6-0.6,1.2-0.9,1.6-1.2
			c0.4-0.2,0.9-0.4,1.4-0.5c0.5-0.1,1.1-0.2,1.7-0.2c0.8,0,1.5,0.1,2.2,0.4c0.6,0.3,1.1,0.7,1.5,1.3c0.3,0.5,0.5,1.2,0.5,1.9
			c0,0.6-0.1,1.2-0.3,1.7c-0.2,0.5-0.5,1.1-1,1.6c-0.4,0.6-1.2,1.4-2.4,2.4l-1.7,1.6v0.1h5.7V762.9z"/>
		<path fill="#1C5C85" d="M3500.6,762.9h-9.2V761l3.3-3.3c1-1,1.6-1.7,1.9-2.1c0.3-0.4,0.5-0.7,0.6-1.1c0.1-0.3,0.2-0.7,0.2-1
			c0-0.5-0.1-0.9-0.4-1.2c-0.3-0.3-0.7-0.4-1.2-0.4c-0.5,0-1,0.1-1.5,0.4c-0.5,0.2-1,0.6-1.5,1l-1.5-1.8c0.6-0.6,1.2-0.9,1.6-1.2
			c0.4-0.2,0.9-0.4,1.4-0.5c0.5-0.1,1.1-0.2,1.7-0.2c0.8,0,1.5,0.1,2.2,0.4c0.6,0.3,1.1,0.7,1.5,1.3c0.3,0.5,0.5,1.2,0.5,1.9
			c0,0.6-0.1,1.2-0.3,1.7c-0.2,0.5-0.5,1.1-1,1.6c-0.4,0.6-1.2,1.4-2.4,2.4l-1.7,1.6v0.1h5.7V762.9z"/>
	</g>
	<path fill="#EA9E24" d="M3399.3,751h13.5l-4.3,12.1H3395L3399.3,751z"/>
</g>
<g>
	<g>
		<path fill="#1C5C85" d="M3420.3,792.3l-1.5-11.7h-0.1c0,0.4-0.1,1-0.3,1.8c-0.1,0.8-0.2,1.4-0.3,1.8l-1.7,8.1h-1.5l2.8-13.1h2.2
			l1.3,10.8h0.1l5.9-10.8h2.4l-2.7,13.1h-1.6c0.8-3.5,1.3-6.3,1.7-8.1c0.4-1.9,0.7-3.1,0.8-3.5h-0.1l-6.4,11.7H3420.3z"/>
		<path fill="#1C5C85" d="M3435.4,782.4c1.1,0,2,0.3,2.7,1c0.7,0.7,1,1.6,1,2.8c0,1.1-0.2,2.2-0.6,3.2c-0.4,1-1,1.8-1.8,2.3
			c-0.7,0.5-1.6,0.8-2.5,0.8c-1.2,0-2.1-0.3-2.7-1s-1-1.6-1-2.8c0-1.1,0.2-2.2,0.7-3.2c0.4-1,1-1.8,1.8-2.3
			S3434.5,782.4,3435.4,782.4z M3437.5,785.9c0-0.7-0.2-1.2-0.6-1.7c-0.4-0.4-0.9-0.6-1.5-0.6c-0.7,0-1.2,0.2-1.8,0.7
			c-0.5,0.4-0.9,1.1-1.2,1.8c-0.3,0.8-0.4,1.7-0.4,2.6c0,0.8,0.2,1.4,0.6,1.8s0.9,0.6,1.6,0.6c0.6,0,1.2-0.2,1.7-0.7
			s0.9-1.1,1.2-1.9C3437.4,787.9,3437.5,787,3437.5,785.9z"/>
		<path fill="#1C5C85" d="M3445.7,782.3c1.2,0,2,0.6,2.5,1.7h0.1c0.1-0.9,0.2-1.8,0.4-2.5l0.7-3.2h1.5l-3,14h-1.2l0.2-1.9h-0.1
			c-0.6,0.8-1.2,1.3-1.7,1.6c-0.5,0.3-1.1,0.5-1.6,0.5c-0.8,0-1.5-0.3-2-0.9c-0.5-0.6-0.7-1.4-0.7-2.4c0-1.3,0.2-2.5,0.6-3.5
			s1-1.9,1.7-2.5C3443.9,782.6,3444.8,782.3,3445.7,782.3z M3444,791.3c0.6,0,1.1-0.3,1.7-0.8c0.6-0.6,1.1-1.3,1.4-2.1
			s0.5-1.8,0.5-2.7c0-0.7-0.2-1.2-0.5-1.5c-0.3-0.3-0.8-0.5-1.4-0.5c-0.6,0-1.2,0.2-1.7,0.7c-0.5,0.5-0.9,1.2-1.2,2.1
			c-0.3,0.9-0.5,1.8-0.5,2.8C3442.4,790.6,3442.9,791.3,3444,791.3z"/>
		<path fill="#1C5C85" d="M3455,792.5c-1.1,0-2-0.3-2.6-1c-0.6-0.7-0.9-1.6-0.9-2.7c0-1.1,0.2-2.2,0.7-3.2c0.4-1,1-1.8,1.8-2.4
			c0.7-0.6,1.5-0.9,2.4-0.9c0.9,0,1.6,0.2,2.1,0.6s0.7,1,0.7,1.7c0,1.1-0.5,1.9-1.5,2.5c-1,0.6-2.4,0.9-4.3,0.9h-0.3l0,0.7
			c0,0.8,0.2,1.4,0.6,1.8c0.4,0.4,0.9,0.7,1.7,0.7c0.4,0,0.8-0.1,1.2-0.2c0.4-0.1,0.9-0.3,1.5-0.6v1.3c-0.6,0.3-1.1,0.4-1.5,0.6
			S3455.5,792.5,3455,792.5z M3456.2,783.6c-0.6,0-1.2,0.3-1.7,0.8s-1,1.3-1.2,2.3h0.1c1.4,0,2.4-0.2,3.1-0.5s1.1-0.9,1.1-1.6
			c0-0.3-0.1-0.6-0.3-0.8C3457,783.7,3456.7,783.6,3456.2,783.6z"/>
		<path fill="#1C5C85" d="M3461.7,792.3h-1.5l3-14h1.5L3461.7,792.3z"/>
		<path fill="#1C5C85" d="M3471.1,792.3l4.9-10.8h-6.5v-2.3h9.4v1.7l-5,11.4H3471.1z"/>
		<path fill="#1C5C85" d="M3489.5,792.3h-9.2v-1.9l3.3-3.3c1-1,1.6-1.7,1.9-2.1c0.3-0.4,0.5-0.7,0.6-1.1c0.1-0.3,0.2-0.7,0.2-1
			c0-0.5-0.1-0.9-0.4-1.2c-0.3-0.3-0.7-0.4-1.2-0.4c-0.5,0-1,0.1-1.5,0.4c-0.5,0.2-1,0.6-1.5,1l-1.5-1.8c0.6-0.6,1.2-0.9,1.6-1.2
			c0.4-0.2,0.9-0.4,1.4-0.5c0.5-0.1,1.1-0.2,1.7-0.2c0.8,0,1.5,0.1,2.2,0.4c0.6,0.3,1.1,0.7,1.5,1.3c0.3,0.5,0.5,1.2,0.5,1.9
			c0,0.6-0.1,1.2-0.3,1.7c-0.2,0.5-0.5,1.1-1,1.6c-0.4,0.6-1.2,1.4-2.4,2.4l-1.7,1.6v0.1h5.7V792.3z"/>
		<path fill="#1C5C85" d="M3499.5,782.1c0,0.8-0.2,1.5-0.7,2.1c-0.5,0.6-1.2,1-2.1,1.2v0.1c1.1,0.1,1.9,0.5,2.4,1s0.8,1.2,0.8,2.1
			c0,1.3-0.5,2.2-1.4,3c-0.9,0.7-2.2,1.1-3.9,1.1c-1.4,0-2.7-0.2-3.8-0.7v-2.4c0.5,0.3,1.1,0.5,1.7,0.6c0.6,0.2,1.2,0.2,1.8,0.2
			c0.9,0,1.6-0.2,2-0.5s0.7-0.8,0.7-1.5c0-0.6-0.3-1.1-0.8-1.3c-0.5-0.3-1.3-0.4-2.4-0.4h-1v-2.1h1c1,0,1.8-0.1,2.2-0.4
			c0.5-0.3,0.7-0.7,0.7-1.4c0-1-0.6-1.5-1.9-1.5c-0.4,0-0.9,0.1-1.3,0.2c-0.4,0.1-0.9,0.4-1.5,0.7l-1.3-1.9c1.2-0.9,2.6-1.3,4.3-1.3
			c1.4,0,2.4,0.3,3.2,0.8S3499.5,781.2,3499.5,782.1z"/>
	</g>
	<path fill="#8DC63F" d="M3399.5,780.4h13.5l-4.3,12.1h-13.5L3399.5,780.4z"/>
</g>
<g>
	<g>
		<g>
			<path fill="#1C5C85" d="M3601,762.9l-1.5-11.7h-0.1c0,0.4-0.1,1-0.3,1.8c-0.1,0.8-0.2,1.4-0.3,1.8l-1.7,8.1h-1.5l2.8-13.1h2.2
				l1.3,10.8h0.1l5.9-10.8h2.4l-2.7,13.1h-1.6c0.8-3.5,1.3-6.3,1.7-8.1s0.7-3.1,0.8-3.5h-0.1l-6.4,11.7H3601z"/>
			<path fill="#1C5C85" d="M3616.1,752.9c1.1,0,2,0.3,2.7,1c0.7,0.7,1,1.6,1,2.8c0,1.1-0.2,2.2-0.6,3.2c-0.4,1-1,1.8-1.8,2.3
				c-0.7,0.5-1.6,0.8-2.5,0.8c-1.2,0-2.1-0.3-2.7-1c-0.7-0.7-1-1.6-1-2.8c0-1.1,0.2-2.2,0.7-3.2c0.4-1,1-1.8,1.8-2.3
				C3614.4,753.2,3615.2,752.9,3616.1,752.9z M3618.2,756.5c0-0.7-0.2-1.2-0.6-1.7s-0.9-0.6-1.5-0.6c-0.7,0-1.2,0.2-1.8,0.7
				c-0.5,0.4-0.9,1.1-1.2,1.8c-0.3,0.8-0.4,1.7-0.4,2.6c0,0.8,0.2,1.4,0.6,1.8s0.9,0.6,1.6,0.6c0.6,0,1.2-0.2,1.7-0.7
				s0.9-1.1,1.2-1.9C3618.1,758.5,3618.2,757.6,3618.2,756.5z"/>
			<path fill="#1C5C85" d="M3626.4,752.9c1.2,0,2,0.6,2.5,1.7h0.1c0.1-0.9,0.2-1.8,0.4-2.5l0.7-3.2h1.5l-3,14h-1.2l0.2-1.9h-0.1
				c-0.6,0.8-1.2,1.3-1.7,1.6c-0.5,0.3-1.1,0.5-1.6,0.5c-0.8,0-1.5-0.3-2-0.9c-0.5-0.6-0.7-1.4-0.7-2.4c0-1.3,0.2-2.5,0.6-3.5
				s1-1.9,1.7-2.5C3624.7,753.2,3625.5,752.9,3626.4,752.9z M3624.7,761.9c0.6,0,1.1-0.3,1.7-0.8c0.6-0.6,1.1-1.3,1.4-2.1
				c0.4-0.9,0.5-1.8,0.5-2.7c0-0.7-0.2-1.2-0.5-1.5s-0.8-0.5-1.4-0.5c-0.6,0-1.2,0.2-1.7,0.7c-0.5,0.5-0.9,1.2-1.2,2.1
				c-0.3,0.9-0.5,1.8-0.5,2.8C3623.1,761.2,3623.6,761.9,3624.7,761.9z"/>
			<path fill="#1C5C85" d="M3635.7,763.1c-1.1,0-2-0.3-2.6-1c-0.6-0.7-0.9-1.6-0.9-2.7c0-1.1,0.2-2.2,0.7-3.2s1-1.8,1.8-2.4
				c0.7-0.6,1.6-0.9,2.4-0.9c0.9,0,1.6,0.2,2.1,0.6c0.5,0.4,0.7,1,0.7,1.7c0,1.1-0.5,1.9-1.5,2.5c-1,0.6-2.4,0.9-4.3,0.9h-0.3l0,0.7
				c0,0.8,0.2,1.4,0.6,1.8s0.9,0.7,1.7,0.7c0.4,0,0.8-0.1,1.2-0.2c0.4-0.1,0.9-0.3,1.5-0.6v1.3c-0.6,0.3-1.1,0.4-1.5,0.6
				S3636.3,763.1,3635.7,763.1z M3637,754.2c-0.6,0-1.2,0.3-1.7,0.8s-1,1.3-1.2,2.3h0.1c1.4,0,2.4-0.2,3.1-0.5s1.1-0.9,1.1-1.6
				c0-0.3-0.1-0.6-0.3-0.8C3637.8,754.3,3637.4,754.2,3637,754.2z"/>
			<path fill="#1C5C85" d="M3642.4,762.9h-1.5l3-14h1.5L3642.4,762.9z"/>
			<path fill="#1C5C85" d="M3651.9,762.9l4.9-10.8h-6.5v-2.3h9.4v1.7l-5,11.4H3651.9z"/>
			<path fill="#1C5C85" d="M3670.3,762.9h-9.2V761l3.3-3.3c1-1,1.6-1.7,1.9-2.1c0.3-0.4,0.5-0.7,0.6-1.1s0.2-0.7,0.2-1
				c0-0.5-0.1-0.9-0.4-1.2s-0.7-0.4-1.2-0.4c-0.5,0-1,0.1-1.5,0.4c-0.5,0.2-1,0.6-1.5,1l-1.5-1.8c0.6-0.6,1.2-0.9,1.6-1.2
				c0.4-0.2,0.9-0.4,1.4-0.5c0.5-0.1,1.1-0.2,1.7-0.2c0.8,0,1.5,0.1,2.2,0.4c0.6,0.3,1.1,0.7,1.5,1.3c0.3,0.5,0.5,1.2,0.5,1.9
				c0,0.6-0.1,1.2-0.3,1.7c-0.2,0.5-0.5,1.1-1,1.6s-1.2,1.4-2.4,2.4l-1.7,1.6v0.1h5.7V762.9z"/>
			<path fill="#1C5C85" d="M3681.1,760.2h-1.6v2.7h-2.7v-2.7h-5.6v-1.9l5.8-8.5h2.6v8.3h1.6V760.2z M3676.8,758v-2.2
				c0-0.4,0-0.9,0-1.6c0-0.7,0.1-1.1,0.1-1.2h-0.1c-0.2,0.5-0.5,1-0.8,1.4l-2.4,3.6H3676.8z"/>
		</g>
		<path fill="#1C5C85" d="M3579.1,751h13.5l-4.3,12.1h-13.5L3579.1,751z"/>
	</g>
	<g>
		<g>
			<path fill="#1C5C85" d="M3601,762.9l-1.5-11.7h-0.1c0,0.4-0.1,1-0.3,1.8c-0.1,0.8-0.2,1.4-0.3,1.8l-1.7,8.1h-1.5l2.8-13.1h2.2
				l1.3,10.8h0.1l5.9-10.8h2.4l-2.7,13.1h-1.6c0.8-3.5,1.3-6.3,1.7-8.1s0.7-3.1,0.8-3.5h-0.1l-6.4,11.7H3601z"/>
			<path fill="#1C5C85" d="M3616.1,752.9c1.1,0,2,0.3,2.7,1c0.7,0.7,1,1.6,1,2.8c0,1.1-0.2,2.2-0.6,3.2c-0.4,1-1,1.8-1.8,2.3
				c-0.7,0.5-1.6,0.8-2.5,0.8c-1.2,0-2.1-0.3-2.7-1c-0.7-0.7-1-1.6-1-2.8c0-1.1,0.2-2.2,0.7-3.2c0.4-1,1-1.8,1.8-2.3
				C3614.4,753.2,3615.2,752.9,3616.1,752.9z M3618.2,756.5c0-0.7-0.2-1.2-0.6-1.7s-0.9-0.6-1.5-0.6c-0.7,0-1.2,0.2-1.8,0.7
				c-0.5,0.4-0.9,1.1-1.2,1.8c-0.3,0.8-0.4,1.7-0.4,2.6c0,0.8,0.2,1.4,0.6,1.8s0.9,0.6,1.6,0.6c0.6,0,1.2-0.2,1.7-0.7
				s0.9-1.1,1.2-1.9C3618.1,758.5,3618.2,757.6,3618.2,756.5z"/>
			<path fill="#1C5C85" d="M3626.4,752.9c1.2,0,2,0.6,2.5,1.7h0.1c0.1-0.9,0.2-1.8,0.4-2.5l0.7-3.2h1.5l-3,14h-1.2l0.2-1.9h-0.1
				c-0.6,0.8-1.2,1.3-1.7,1.6c-0.5,0.3-1.1,0.5-1.6,0.5c-0.8,0-1.5-0.3-2-0.9c-0.5-0.6-0.7-1.4-0.7-2.4c0-1.3,0.2-2.5,0.6-3.5
				s1-1.9,1.7-2.5C3624.7,753.2,3625.5,752.9,3626.4,752.9z M3624.7,761.9c0.6,0,1.1-0.3,1.7-0.8c0.6-0.6,1.1-1.3,1.4-2.1
				c0.4-0.9,0.5-1.8,0.5-2.7c0-0.7-0.2-1.2-0.5-1.5s-0.8-0.5-1.4-0.5c-0.6,0-1.2,0.2-1.7,0.7c-0.5,0.5-0.9,1.2-1.2,2.1
				c-0.3,0.9-0.5,1.8-0.5,2.8C3623.1,761.2,3623.6,761.9,3624.7,761.9z"/>
			<path fill="#1C5C85" d="M3635.7,763.1c-1.1,0-2-0.3-2.6-1c-0.6-0.7-0.9-1.6-0.9-2.7c0-1.1,0.2-2.2,0.7-3.2s1-1.8,1.8-2.4
				c0.7-0.6,1.6-0.9,2.4-0.9c0.9,0,1.6,0.2,2.1,0.6c0.5,0.4,0.7,1,0.7,1.7c0,1.1-0.5,1.9-1.5,2.5c-1,0.6-2.4,0.9-4.3,0.9h-0.3l0,0.7
				c0,0.8,0.2,1.4,0.6,1.8s0.9,0.7,1.7,0.7c0.4,0,0.8-0.1,1.2-0.2c0.4-0.1,0.9-0.3,1.5-0.6v1.3c-0.6,0.3-1.1,0.4-1.5,0.6
				S3636.3,763.1,3635.7,763.1z M3637,754.2c-0.6,0-1.2,0.3-1.7,0.8s-1,1.3-1.2,2.3h0.1c1.4,0,2.4-0.2,3.1-0.5s1.1-0.9,1.1-1.6
				c0-0.3-0.1-0.6-0.3-0.8C3637.8,754.3,3637.4,754.2,3637,754.2z"/>
			<path fill="#1C5C85" d="M3642.4,762.9h-1.5l3-14h1.5L3642.4,762.9z"/>
			<path fill="#1C5C85" d="M3651.9,762.9l4.9-10.8h-6.5v-2.3h9.4v1.7l-5,11.4H3651.9z"/>
			<path fill="#1C5C85" d="M3670.3,762.9h-9.2V761l3.3-3.3c1-1,1.6-1.7,1.9-2.1c0.3-0.4,0.5-0.7,0.6-1.1s0.2-0.7,0.2-1
				c0-0.5-0.1-0.9-0.4-1.2s-0.7-0.4-1.2-0.4c-0.5,0-1,0.1-1.5,0.4c-0.5,0.2-1,0.6-1.5,1l-1.5-1.8c0.6-0.6,1.2-0.9,1.6-1.2
				c0.4-0.2,0.9-0.4,1.4-0.5c0.5-0.1,1.1-0.2,1.7-0.2c0.8,0,1.5,0.1,2.2,0.4c0.6,0.3,1.1,0.7,1.5,1.3c0.3,0.5,0.5,1.2,0.5,1.9
				c0,0.6-0.1,1.2-0.3,1.7c-0.2,0.5-0.5,1.1-1,1.6s-1.2,1.4-2.4,2.4l-1.7,1.6v0.1h5.7V762.9z"/>
			<path fill="#1C5C85" d="M3681.1,760.2h-1.6v2.7h-2.7v-2.7h-5.6v-1.9l5.8-8.5h2.6v8.3h1.6V760.2z M3676.8,758v-2.2
				c0-0.4,0-0.9,0-1.6c0-0.7,0.1-1.1,0.1-1.2h-0.1c-0.2,0.5-0.5,1-0.8,1.4l-2.4,3.6H3676.8z"/>
		</g>
		<path fill="#1C5C85" d="M3579.1,751h13.5l-4.3,12.1h-13.5L3579.1,751z"/>
	</g>
</g>
<g>
	<g>
		<path fill="#1C5C85" d="M3600.8,792.3l-1.5-11.7h-0.1c0,0.4-0.1,1-0.3,1.8c-0.1,0.8-0.2,1.4-0.3,1.8l-1.7,8.1h-1.5l2.8-13.1h2.2
			l1.3,10.8h0.1l5.9-10.8h2.4l-2.7,13.1h-1.6c0.8-3.5,1.3-6.3,1.7-8.1c0.4-1.9,0.7-3.1,0.8-3.5h-0.1l-6.4,11.7H3600.8z"/>
		<path fill="#1C5C85" d="M3616,782.4c1.1,0,2,0.3,2.7,1c0.7,0.7,1,1.6,1,2.8c0,1.1-0.2,2.2-0.6,3.2c-0.4,1-1,1.8-1.8,2.3
			c-0.7,0.5-1.6,0.8-2.5,0.8c-1.2,0-2.1-0.3-2.7-1s-1-1.6-1-2.8c0-1.1,0.2-2.2,0.7-3.2c0.4-1,1-1.8,1.8-2.3S3615,782.4,3616,782.4z
			 M3618.1,785.9c0-0.7-0.2-1.2-0.6-1.7c-0.4-0.4-0.9-0.6-1.5-0.6c-0.7,0-1.2,0.2-1.8,0.7c-0.5,0.4-0.9,1.1-1.2,1.8
			c-0.3,0.8-0.4,1.7-0.4,2.6c0,0.8,0.2,1.4,0.6,1.8s0.9,0.6,1.6,0.6c0.6,0,1.2-0.2,1.7-0.7s0.9-1.1,1.2-1.9
			C3617.9,787.9,3618.1,787,3618.1,785.9z"/>
		<path fill="#1C5C85" d="M3626.2,782.3c1.2,0,2,0.6,2.5,1.7h0.1c0.1-0.9,0.2-1.8,0.4-2.5l0.7-3.2h1.5l-3,14h-1.2l0.2-1.9h-0.1
			c-0.6,0.8-1.2,1.3-1.7,1.6c-0.5,0.3-1.1,0.5-1.6,0.5c-0.8,0-1.5-0.3-2-0.9c-0.5-0.6-0.7-1.4-0.7-2.4c0-1.3,0.2-2.5,0.6-3.5
			s1-1.9,1.7-2.5C3624.5,782.6,3625.3,782.3,3626.2,782.3z M3624.5,791.3c0.6,0,1.1-0.3,1.7-0.8c0.6-0.6,1.1-1.3,1.4-2.1
			s0.5-1.8,0.5-2.7c0-0.7-0.2-1.2-0.5-1.5c-0.3-0.3-0.8-0.5-1.4-0.5c-0.6,0-1.2,0.2-1.7,0.7c-0.5,0.5-0.9,1.2-1.2,2.1
			c-0.3,0.9-0.5,1.8-0.5,2.8C3622.9,790.6,3623.5,791.3,3624.5,791.3z"/>
		<path fill="#1C5C85" d="M3635.6,792.5c-1.1,0-2-0.3-2.6-1c-0.6-0.7-0.9-1.6-0.9-2.7c0-1.1,0.2-2.2,0.7-3.2c0.4-1,1-1.8,1.8-2.4
			c0.7-0.6,1.5-0.9,2.4-0.9c0.9,0,1.6,0.2,2.1,0.6s0.7,1,0.7,1.7c0,1.1-0.5,1.9-1.5,2.5c-1,0.6-2.4,0.9-4.3,0.9h-0.3l0,0.7
			c0,0.8,0.2,1.4,0.6,1.8c0.4,0.4,0.9,0.7,1.7,0.7c0.4,0,0.8-0.1,1.2-0.2c0.4-0.1,0.9-0.3,1.5-0.6v1.3c-0.6,0.3-1.1,0.4-1.5,0.6
			S3636.1,792.5,3635.6,792.5z M3636.8,783.6c-0.6,0-1.2,0.3-1.7,0.8s-1,1.3-1.2,2.3h0.1c1.4,0,2.4-0.2,3.1-0.5s1.1-0.9,1.1-1.6
			c0-0.3-0.1-0.6-0.3-0.8C3637.6,783.7,3637.3,783.6,3636.8,783.6z"/>
		<path fill="#1C5C85" d="M3642.2,792.3h-1.5l3-14h1.5L3642.2,792.3z"/>
		<path fill="#1C5C85" d="M3651.7,792.3l4.9-10.8h-6.5v-2.3h9.4v1.7l-5,11.4H3651.7z"/>
		<path fill="#1C5C85" d="M3670.1,792.3h-9.2v-1.9l3.3-3.3c1-1,1.6-1.7,1.9-2.1c0.3-0.4,0.5-0.7,0.6-1.1c0.1-0.3,0.2-0.7,0.2-1
			c0-0.5-0.1-0.9-0.4-1.2c-0.3-0.3-0.7-0.4-1.2-0.4c-0.5,0-1,0.1-1.5,0.4c-0.5,0.2-1,0.6-1.5,1l-1.5-1.8c0.6-0.6,1.2-0.9,1.6-1.2
			c0.4-0.2,0.9-0.4,1.4-0.5c0.5-0.1,1.1-0.2,1.7-0.2c0.8,0,1.5,0.1,2.2,0.4c0.6,0.3,1.1,0.7,1.5,1.3c0.3,0.5,0.5,1.2,0.5,1.9
			c0,0.6-0.1,1.2-0.3,1.7c-0.2,0.5-0.5,1.1-1,1.6c-0.4,0.6-1.2,1.4-2.4,2.4l-1.7,1.6v0.1h5.7V792.3z"/>
		<path fill="#1C5C85" d="M3676.2,783.9c1.3,0,2.3,0.4,3,1.1c0.8,0.7,1.1,1.7,1.1,2.9c0,1.5-0.5,2.6-1.4,3.4
			c-0.9,0.8-2.2,1.2-3.9,1.2c-1.5,0-2.6-0.2-3.5-0.7v-2.4c0.5,0.3,1,0.5,1.7,0.6c0.6,0.2,1.2,0.2,1.8,0.2c1.7,0,2.5-0.7,2.5-2.1
			c0-1.3-0.9-2-2.6-2c-0.3,0-0.7,0-1.1,0.1c-0.4,0.1-0.7,0.1-0.9,0.2l-1.1-0.6l0.5-6.7h7.1v2.4h-4.7l-0.2,2.6l0.3-0.1
			C3675.2,784,3675.7,783.9,3676.2,783.9z"/>
	</g>
	<path fill="#4F9B1E" d="M3579.6,780.4h13.5l-4.4,12.1h-13.5L3579.6,780.4z"/>
</g>
<g>
	<g>
		<path fill="#1C5C85" d="M3780.5,762.9l-1.5-11.7h-0.1c0,0.4-0.1,1-0.3,1.8c-0.1,0.8-0.2,1.4-0.3,1.8l-1.7,8.1h-1.5l2.8-13.1h2.2
			l1.3,10.8h0.1l5.9-10.8h2.4l-2.7,13.1h-1.6c0.8-3.5,1.3-6.3,1.7-8.1c0.4-1.9,0.7-3.1,0.8-3.5h-0.1l-6.4,11.7H3780.5z"/>
		<path fill="#1C5C85" d="M3795.6,752.9c1.1,0,2,0.3,2.7,1c0.7,0.7,1,1.6,1,2.8c0,1.1-0.2,2.2-0.6,3.2c-0.4,1-1,1.8-1.8,2.3
			c-0.7,0.5-1.6,0.8-2.5,0.8c-1.2,0-2.1-0.3-2.7-1s-1-1.6-1-2.8c0-1.1,0.2-2.2,0.7-3.2c0.4-1,1-1.8,1.8-2.3
			S3794.7,752.9,3795.6,752.9z M3797.7,756.5c0-0.7-0.2-1.2-0.6-1.7c-0.4-0.4-0.9-0.6-1.5-0.6c-0.7,0-1.2,0.2-1.8,0.7
			c-0.5,0.4-0.9,1.1-1.2,1.8c-0.3,0.8-0.4,1.7-0.4,2.6c0,0.8,0.2,1.4,0.6,1.8s0.9,0.6,1.6,0.6c0.6,0,1.2-0.2,1.7-0.7
			s0.9-1.1,1.2-1.9C3797.6,758.5,3797.7,757.6,3797.7,756.5z"/>
		<path fill="#1C5C85" d="M3805.9,752.9c1.2,0,2,0.6,2.5,1.7h0.1c0.1-0.9,0.2-1.8,0.4-2.5l0.7-3.2h1.5l-3,14h-1.2l0.2-1.9h-0.1
			c-0.6,0.8-1.2,1.3-1.7,1.6c-0.5,0.3-1.1,0.5-1.6,0.5c-0.8,0-1.5-0.3-2-0.9c-0.5-0.6-0.7-1.4-0.7-2.4c0-1.3,0.2-2.5,0.6-3.5
			s1-1.9,1.7-2.5C3804.2,753.2,3805,752.9,3805.9,752.9z M3804.2,761.9c0.6,0,1.1-0.3,1.7-0.8c0.6-0.6,1.1-1.3,1.4-2.1
			s0.5-1.8,0.5-2.7c0-0.7-0.2-1.2-0.5-1.5c-0.3-0.3-0.8-0.5-1.4-0.5c-0.6,0-1.2,0.2-1.7,0.7c-0.5,0.5-0.9,1.2-1.2,2.1
			c-0.3,0.9-0.5,1.8-0.5,2.8C3802.6,761.2,3803.1,761.9,3804.2,761.9z"/>
		<path fill="#1C5C85" d="M3815.2,763.1c-1.1,0-2-0.3-2.6-1c-0.6-0.7-0.9-1.6-0.9-2.7c0-1.1,0.2-2.2,0.7-3.2c0.4-1,1-1.8,1.8-2.4
			c0.7-0.6,1.5-0.9,2.4-0.9c0.9,0,1.6,0.2,2.1,0.6s0.7,1,0.7,1.7c0,1.1-0.5,1.9-1.5,2.5c-1,0.6-2.4,0.9-4.3,0.9h-0.3l0,0.7
			c0,0.8,0.2,1.4,0.6,1.8c0.4,0.4,0.9,0.7,1.7,0.7c0.4,0,0.8-0.1,1.2-0.2c0.4-0.1,0.9-0.3,1.5-0.6v1.3c-0.6,0.3-1.1,0.4-1.5,0.6
			S3815.7,763.1,3815.2,763.1z M3816.5,754.2c-0.6,0-1.2,0.3-1.7,0.8s-1,1.3-1.2,2.3h0.1c1.4,0,2.4-0.2,3.1-0.5s1.1-0.9,1.1-1.6
			c0-0.3-0.1-0.6-0.3-0.8C3817.3,754.3,3816.9,754.2,3816.5,754.2z"/>
		<path fill="#1C5C85" d="M3821.9,762.9h-1.5l3-14h1.5L3821.9,762.9z"/>
		<path fill="#1C5C85" d="M3831.4,762.9l4.9-10.8h-6.5v-2.3h9.4v1.7l-5,11.4H3831.4z"/>
		<path fill="#1C5C85" d="M3849.8,762.9h-9.2V761l3.3-3.3c1-1,1.6-1.7,1.9-2.1c0.3-0.4,0.5-0.7,0.6-1.1c0.1-0.3,0.2-0.7,0.2-1
			c0-0.5-0.1-0.9-0.4-1.2c-0.3-0.3-0.7-0.4-1.2-0.4c-0.5,0-1,0.1-1.5,0.4c-0.5,0.2-1,0.6-1.5,1l-1.5-1.8c0.6-0.6,1.2-0.9,1.6-1.2
			c0.4-0.2,0.9-0.4,1.4-0.5c0.5-0.1,1.1-0.2,1.7-0.2c0.8,0,1.5,0.1,2.2,0.4c0.6,0.3,1.1,0.7,1.5,1.3c0.3,0.5,0.5,1.2,0.5,1.9
			c0,0.6-0.1,1.2-0.3,1.7c-0.2,0.5-0.5,1.1-1,1.6c-0.4,0.6-1.2,1.4-2.4,2.4l-1.7,1.6v0.1h5.7V762.9z"/>
		<path fill="#1C5C85" d="M3851,757.3c0-2.6,0.5-4.5,1.7-5.8s2.7-1.9,4.9-1.9c0.8,0,1.3,0,1.8,0.1v2.2c-0.5-0.1-1.1-0.2-1.6-0.2
			c-1,0-1.7,0.1-2.3,0.4s-1.1,0.7-1.4,1.3s-0.5,1.4-0.5,2.4h0.1c0.6-1,1.5-1.5,2.9-1.5c1.2,0,2.1,0.4,2.8,1.1c0.7,0.7,1,1.8,1,3.1
			c0,1.4-0.4,2.5-1.2,3.3c-0.8,0.8-1.9,1.2-3.3,1.2c-1,0-1.8-0.2-2.5-0.7c-0.7-0.4-1.3-1.1-1.7-2S3851,758.6,3851,757.3z
			 M3855.8,760.9c0.6,0,1-0.2,1.4-0.6c0.3-0.4,0.5-1,0.5-1.7c0-0.6-0.1-1.1-0.4-1.5c-0.3-0.4-0.7-0.6-1.3-0.6c-0.6,0-1,0.2-1.4,0.5
			c-0.4,0.4-0.6,0.8-0.6,1.3c0,0.7,0.2,1.3,0.6,1.8C3854.7,760.6,3855.2,760.9,3855.8,760.9z"/>
	</g>
	<path fill="#543D78" d="M3759.5,751h13.5l-4.3,12.1h-13.5L3759.5,751z"/>
</g>
<g>
	<g>
		<path fill="#1C5C85" d="M3781.6,792.3l-1.5-11.7h-0.1c0,0.4-0.1,1-0.3,1.8c-0.1,0.8-0.2,1.4-0.3,1.8l-1.7,8.1h-1.5l2.8-13.1h2.2
			l1.3,10.8h0.1l5.9-10.8h2.4l-2.7,13.1h-1.6c0.8-3.5,1.3-6.3,1.7-8.1c0.4-1.9,0.7-3.1,0.8-3.5h-0.1l-6.4,11.7H3781.6z"/>
		<path fill="#1C5C85" d="M3796.7,782.4c1.1,0,2,0.3,2.7,1c0.7,0.7,1,1.6,1,2.8c0,1.1-0.2,2.2-0.6,3.2c-0.4,1-1,1.8-1.8,2.3
			c-0.7,0.5-1.6,0.8-2.5,0.8c-1.2,0-2.1-0.3-2.7-1s-1-1.6-1-2.8c0-1.1,0.2-2.2,0.7-3.2c0.4-1,1-1.8,1.8-2.3
			S3795.8,782.4,3796.7,782.4z M3798.8,785.9c0-0.7-0.2-1.2-0.6-1.7c-0.4-0.4-0.9-0.6-1.5-0.6c-0.7,0-1.2,0.2-1.8,0.7
			c-0.5,0.4-0.9,1.1-1.2,1.8c-0.3,0.8-0.4,1.7-0.4,2.6c0,0.8,0.2,1.4,0.6,1.8s0.9,0.6,1.6,0.6c0.6,0,1.2-0.2,1.7-0.7
			s0.9-1.1,1.2-1.9C3798.7,787.9,3798.8,787,3798.8,785.9z"/>
		<path fill="#1C5C85" d="M3807,782.3c1.2,0,2,0.6,2.5,1.7h0.1c0.1-0.9,0.2-1.8,0.4-2.5l0.7-3.2h1.5l-3,14h-1.2l0.2-1.9h-0.1
			c-0.6,0.8-1.2,1.3-1.7,1.6c-0.5,0.3-1.1,0.5-1.6,0.5c-0.8,0-1.5-0.3-2-0.9c-0.5-0.6-0.7-1.4-0.7-2.4c0-1.3,0.2-2.5,0.6-3.5
			s1-1.9,1.7-2.5C3805.3,782.6,3806.1,782.3,3807,782.3z M3805.3,791.3c0.6,0,1.1-0.3,1.7-0.8c0.6-0.6,1.1-1.3,1.4-2.1
			s0.5-1.8,0.5-2.7c0-0.7-0.2-1.2-0.5-1.5c-0.3-0.3-0.8-0.5-1.4-0.5c-0.6,0-1.2,0.2-1.7,0.7c-0.5,0.5-0.9,1.2-1.2,2.1
			c-0.3,0.9-0.5,1.8-0.5,2.8C3803.7,790.6,3804.2,791.3,3805.3,791.3z"/>
		<path fill="#1C5C85" d="M3816.3,792.5c-1.1,0-2-0.3-2.6-1c-0.6-0.7-0.9-1.6-0.9-2.7c0-1.1,0.2-2.2,0.7-3.2c0.4-1,1-1.8,1.8-2.4
			c0.7-0.6,1.5-0.9,2.4-0.9c0.9,0,1.6,0.2,2.1,0.6s0.7,1,0.7,1.7c0,1.1-0.5,1.9-1.5,2.5c-1,0.6-2.4,0.9-4.3,0.9h-0.3l0,0.7
			c0,0.8,0.2,1.4,0.6,1.8c0.4,0.4,0.9,0.7,1.7,0.7c0.4,0,0.8-0.1,1.2-0.2c0.4-0.1,0.9-0.3,1.5-0.6v1.3c-0.6,0.3-1.1,0.4-1.5,0.6
			S3816.8,792.5,3816.3,792.5z M3817.6,783.6c-0.6,0-1.2,0.3-1.7,0.8s-1,1.3-1.2,2.3h0.1c1.4,0,2.4-0.2,3.1-0.5s1.1-0.9,1.1-1.6
			c0-0.3-0.1-0.6-0.3-0.8C3818.4,783.7,3818,783.6,3817.6,783.6z"/>
		<path fill="#1C5C85" d="M3823,792.3h-1.5l3-14h1.5L3823,792.3z"/>
		<path fill="#1C5C85" d="M3832.5,792.3l4.9-10.8h-6.5v-2.3h9.4v1.7l-5,11.4H3832.5z"/>
		<path fill="#1C5C85" d="M3850.9,792.3h-9.2v-1.9l3.3-3.3c1-1,1.6-1.7,1.9-2.1c0.3-0.4,0.5-0.7,0.6-1.1c0.1-0.3,0.2-0.7,0.2-1
			c0-0.5-0.1-0.9-0.4-1.2c-0.3-0.3-0.7-0.4-1.2-0.4c-0.5,0-1,0.1-1.5,0.4c-0.5,0.2-1,0.6-1.5,1l-1.5-1.8c0.6-0.6,1.2-0.9,1.6-1.2
			c0.4-0.2,0.9-0.4,1.4-0.5c0.5-0.1,1.1-0.2,1.7-0.2c0.8,0,1.5,0.1,2.2,0.4c0.6,0.3,1.1,0.7,1.5,1.3c0.3,0.5,0.5,1.2,0.5,1.9
			c0,0.6-0.1,1.2-0.3,1.7c-0.2,0.5-0.5,1.1-1,1.6c-0.4,0.6-1.2,1.4-2.4,2.4l-1.7,1.6v0.1h5.7V792.3z"/>
		<path fill="#1C5C85" d="M3853.5,792.3l4.9-10.8h-6.5v-2.3h9.4v1.7l-5,11.4H3853.5z"/>
	</g>
	<path fill="#86B8E0" d="M3759.5,780.4h13.5l-4.3,12.1h-13.5L3759.5,780.4z"/>
</g>
<rect x="3205.3" y="190.4" fill="none" stroke="#8C9293" stroke-width="1.0733" stroke-miterlimit="10" width="665.2" height="466.5"/>
<line fill="none" stroke="#8C9293" stroke-miterlimit="10" x1="3205.3" y1="470.3" x2="3870.1" y2="470.3"/>
<line fill="none" stroke="#8C9293" stroke-miterlimit="10" x1="3205.3" y1="423.6" x2="3870.1" y2="423.6"/>
<line fill="none" stroke="#8C9293" stroke-miterlimit="10" x1="3205.3" y1="237.1" x2="3870.1" y2="237.1"/>
<line fill="none" stroke="#8C9293" stroke-miterlimit="10" x1="3205.3" y1="190.4" x2="3870.1" y2="190.4"/>
<line fill="none" stroke="#8C9293" stroke-miterlimit="10" x1="3205.3" y1="516.9" x2="3870.1" y2="516.9"/>
<line fill="none" stroke="#8C9293" stroke-miterlimit="10" x1="3205.3" y1="610.2" x2="3870.1" y2="610.2"/>
<line fill="none" stroke="#8C9293" stroke-miterlimit="10" x1="3205.3" y1="656.8" x2="3870.1" y2="656.8"/>
<line fill="none" stroke="#8C9293" stroke-miterlimit="10" x1="3206.5" y1="563.5" x2="3871.2" y2="563.5"/>
<line fill="none" stroke="#8C9293" stroke-miterlimit="10" x1="3205.3" y1="283.7" x2="3870.1" y2="283.7"/>
<line fill="none" stroke="#8C9293" stroke-miterlimit="10" x1="3205.3" y1="330.3" x2="3870.1" y2="330.3"/>
<line fill="none" stroke="#8C9293" stroke-miterlimit="10" x1="3205.3" y1="377" x2="3870.1" y2="377"/>
<line fill="none" stroke="#8C9293" stroke-miterlimit="10" x1="3870.3" y1="252.3" x2="3870.3" y2="657.5"/>
<line fill="none" stroke="#8C9293" stroke-miterlimit="10" x1="3338.1" y1="191.4" x2="3338.1" y2="657.5"/>
<line fill="none" stroke="#8C9293" stroke-miterlimit="10" x1="3471.2" y1="191.4" x2="3471.2" y2="657.5"/>
<line fill="none" stroke="#8C9293" stroke-miterlimit="10" x1="3604.2" y1="191.4" x2="3604.2" y2="657.5"/>
<line fill="none" stroke="#8C9293" stroke-miterlimit="10" x1="3737.3" y1="191.4" x2="3737.3" y2="657.5"/>
<rect x="3214.3" y="195.2" fill="#F2F2F2" width="337.4" height="38.2"/>
<g>
	<path fill="#194880" d="M3238.5,227.9h-4.2l2.5-11.6h-9.9l-2.4,11.6h-4.2l5.4-25.7h4.2l-2.2,10.5h9.9l2.2-10.5h4.2L3238.5,227.9z"
		/>
	<path fill="#194880" d="M3245,227.9l5.5-25.7h4.1l-5.5,25.7H3245z"/>
	<path fill="#194880" d="M3268.3,214h9l-2.8,12.9c-1.3,0.5-2.6,0.8-3.8,1s-2.6,0.3-4.2,0.3c-3.1,0-5.4-0.9-7.1-2.6s-2.5-4.1-2.5-7.3
		c0-3.1,0.6-5.9,1.8-8.5s2.9-4.6,5.1-6s4.7-2.1,7.5-2.1c1.3,0,2.5,0.1,3.7,0.4s2.4,0.6,3.6,1.2l-1.6,3.6c-2-1-4-1.5-5.9-1.5
		c-1.9,0-3.5,0.5-5,1.6s-2.7,2.6-3.6,4.5s-1.3,4.1-1.3,6.5c0,2.1,0.5,3.8,1.6,4.9s2.5,1.7,4.4,1.7c1.3,0,2.5-0.2,3.8-0.6l1.4-6.5
		h-4.9L3268.3,214z"/>
	<path fill="#194880" d="M3298.6,227.9h-4.2l2.5-11.6h-9.9l-2.4,11.6h-4.2l5.4-25.7h4.2l-2.2,10.5h9.9l2.2-10.5h4.2L3298.6,227.9z"
		/>
	<path fill="#194880" d="M3333.8,209.3c0,2.9-1,5.1-3,6.7s-4.8,2.3-8.3,2.3h-1.9l-2,9.6h-4.2l5.4-25.7h5.9c2.7,0,4.7,0.6,6.1,1.8
		S3333.8,206.9,3333.8,209.3z M3321.4,214.8h1.7c2.1,0,3.7-0.5,4.8-1.4s1.7-2.3,1.7-4c0-1.3-0.3-2.2-1-2.8s-1.7-0.9-3.2-0.9h-2.1
		L3321.4,214.8z"/>
	<path fill="#194880" d="M3358.8,211.7c0,3.3-0.6,6.2-1.7,8.7s-2.6,4.5-4.6,5.8s-4.2,2-6.8,2c-3,0-5.4-0.9-7-2.6s-2.5-4.2-2.5-7.3
		c0-3.1,0.6-6,1.7-8.6s2.7-4.6,4.7-5.9s4.3-2.1,6.8-2.1c2.9,0,5.2,0.9,6.9,2.6S3358.8,208.6,3358.8,211.7z M3349.2,205.4
		c-1.6,0-3.1,0.6-4.4,1.7s-2.3,2.7-3.1,4.7s-1.1,4.2-1.1,6.5c0,2,0.5,3.6,1.4,4.7s2.3,1.7,4,1.7c1.6,0,3.1-0.6,4.4-1.7
		s2.3-2.7,3-4.7s1.1-4.2,1.1-6.6c0-2-0.5-3.5-1.4-4.7S3350.9,205.4,3349.2,205.4z"/>
	<path fill="#194880" d="M3383.1,227.9h-4.5l-0.7-14.8l-0.1-3.3l0.1-1.9h-0.1c-0.6,1.7-1.2,3.4-2.1,5.1l-6.8,14.8h-4.5l-0.9-25.7h4
		l0.3,14.9c0,1.6-0.1,3.6-0.2,6.1h0.1c1-2.6,1.8-4.7,2.5-6.2l6.8-14.8h4l0.5,14.7l0.1,3l-0.1,3.3h0.1c0.3-1,0.7-2.2,1.2-3.5
		s0.8-2.2,1.1-2.7l6.3-14.9h4.3L3383.1,227.9z"/>
	<path fill="#194880" d="M3406.3,227.9h-13.6l5.4-25.7h13.6l-0.8,3.6h-9.5l-1.5,6.9h8.8l-0.7,3.6h-8.9l-1.7,8h9.5L3406.3,227.9z"/>
	<path fill="#194880" d="M3417.9,217.6l-2.2,10.3h-4.2l5.4-25.7h5.9c2.6,0,4.6,0.6,6,1.7s2.1,2.8,2.1,5.1c0,1.9-0.5,3.6-1.5,4.9
		s-2.5,2.3-4.5,2.9l4.4,11.1h-4.6l-3.6-10.3H3417.9z M3418.6,214.2h2.2c2,0,3.5-0.4,4.5-1.3s1.5-2.1,1.5-3.6c0-1.2-0.3-2.1-1-2.7
		s-1.8-0.8-3.2-0.8h-2.1L3418.6,214.2z"/>
	<path fill="#194880" d="M3446.3,227.9h-4.2l5.4-25.7h13.6l-0.8,3.6h-9.4l-1.7,8h8.8l-0.8,3.6h-8.8L3446.3,227.9z"/>
	<path fill="#194880" d="M3473.4,220.8h-8.5l-3.7,7.1h-4.5l13.8-25.7h4.8l2.9,25.7h-4.1L3473.4,220.8z M3473.2,217.1
		c-0.5-4.9-0.7-7.8-0.8-8.9s-0.1-1.8-0.1-2.5c-0.6,1.6-1.5,3.4-2.5,5.4l-3,5.9H3473.2z"/>
	<path fill="#194880" d="M3501.1,227.9h-4.6l-7.2-20.4h-0.1l-0.2,1.2c-0.3,1.7-0.5,3-0.6,3.7s-1.2,5.9-3.2,15.5h-3.8l5.4-25.7h4.7
		l7,20.2h0.1c0.1-0.6,0.3-1.8,0.5-3.4s0.5-2.8,0.7-3.6l2.8-13.2h3.8L3501.1,227.9z"/>
	<path fill="#194880" d="M3522.7,220.4c0,2.5-0.8,4.4-2.5,5.8s-4,2.1-7,2.1c-2.5,0-4.5-0.4-6.1-1.3V223c2,1.1,4.1,1.7,6.2,1.7
		c1.6,0,2.9-0.3,3.8-1s1.4-1.6,1.4-2.9c0-0.8-0.2-1.5-0.7-2.2s-1.5-1.4-3-2.4c-1.2-0.8-2.1-1.5-2.7-2.1s-1-1.4-1.3-2.1
		s-0.5-1.6-0.5-2.5c0-1.5,0.4-2.8,1.1-4s1.7-2.1,3.1-2.7s2.8-0.9,4.5-0.9c2.4,0,4.6,0.5,6.7,1.6l-1.5,3.4c-1.9-0.9-3.6-1.4-5.2-1.4
		c-1.3,0-2.3,0.3-3.1,1s-1.2,1.6-1.2,2.7c0,0.6,0.1,1,0.3,1.5s0.4,0.8,0.8,1.2s1.2,0.9,2.4,1.7c1.8,1.1,3.1,2.2,3.8,3.3
		S3522.7,219,3522.7,220.4z"/>
</g>
<g>
	<path fill="#595959" d="M3209.8,169.6c0,2.2-0.4,3.9-1.1,5s-1.8,1.6-3.2,1.6c-1.4,0-2.4-0.6-3.2-1.7c-0.7-1.1-1.1-2.8-1.1-4.9
		c0-2.2,0.3-3.9,1-5s1.8-1.6,3.2-1.6c1.4,0,2.5,0.6,3.2,1.7S3209.8,167.4,3209.8,169.6z M3202.7,169.6c0,1.9,0.2,3.2,0.7,4.1
		c0.4,0.9,1.1,1.3,2.1,1.3c1,0,1.7-0.4,2.1-1.3s0.7-2.2,0.7-4.1s-0.2-3.2-0.7-4.1s-1.1-1.3-2.1-1.3c-1,0-1.7,0.4-2.1,1.3
		S3202.7,167.7,3202.7,169.6z"/>
</g>
<g>
	<path fill="#595959" d="M3380.6,168.2c1.4,0,2.4,0.3,3.2,1c0.8,0.7,1.2,1.6,1.2,2.8c0,1.3-0.4,2.4-1.3,3.1c-0.8,0.8-2,1.1-3.5,1.1
		c-1.4,0-2.6-0.2-3.3-0.7v-1.4c0.4,0.3,0.9,0.5,1.5,0.6c0.6,0.1,1.2,0.2,1.8,0.2c1,0,1.8-0.2,2.4-0.7c0.6-0.5,0.9-1.2,0.9-2.1
		c0-1.8-1.1-2.7-3.3-2.7c-0.6,0-1.3,0.1-2.2,0.3l-0.8-0.5l0.5-6h6.4v1.3h-5.1l-0.3,3.9C3379.2,168.2,3379.9,168.2,3380.6,168.2z"/>
</g>
<g>
	<path fill="#595959" d="M3552.1,176h-1.4v-9.2c0-0.8,0-1.5,0.1-2.2c-0.1,0.1-0.3,0.3-0.4,0.4s-0.8,0.7-2.1,1.7l-0.8-1l3.4-2.6h1.2
		V176z"/>
	<path fill="#595959" d="M3565.5,169.6c0,2.2-0.4,3.9-1.1,5s-1.8,1.6-3.2,1.6c-1.4,0-2.4-0.6-3.2-1.7c-0.7-1.1-1.1-2.8-1.1-4.9
		c0-2.2,0.3-3.9,1-5s1.8-1.6,3.2-1.6c1.4,0,2.5,0.6,3.2,1.7S3565.5,167.4,3565.5,169.6z M3558.5,169.6c0,1.9,0.2,3.2,0.7,4.1
		c0.4,0.9,1.1,1.3,2.1,1.3c1,0,1.7-0.4,2.1-1.3s0.7-2.2,0.7-4.1s-0.2-3.2-0.7-4.1s-1.1-1.3-2.1-1.3c-1,0-1.7,0.4-2.1,1.3
		S3558.5,167.7,3558.5,169.6z"/>
</g>
<g>
	<path fill="#595959" d="M3727.4,176h-1.4v-9.2c0-0.8,0-1.5,0.1-2.2c-0.1,0.1-0.3,0.3-0.4,0.4s-0.8,0.7-2.1,1.7l-0.8-1l3.4-2.6h1.2
		V176z"/>
	<path fill="#595959" d="M3736.3,168.2c1.4,0,2.4,0.3,3.2,1c0.8,0.7,1.2,1.6,1.2,2.8c0,1.3-0.4,2.4-1.3,3.1c-0.8,0.8-2,1.1-3.5,1.1
		c-1.4,0-2.6-0.2-3.3-0.7v-1.4c0.4,0.3,0.9,0.5,1.5,0.6c0.6,0.1,1.2,0.2,1.8,0.2c1,0,1.8-0.2,2.4-0.7c0.6-0.5,0.9-1.2,0.9-2.1
		c0-1.8-1.1-2.7-3.3-2.7c-0.6,0-1.3,0.1-2.2,0.3l-0.8-0.5l0.5-6h6.4v1.3h-5.1l-0.3,3.9C3735,168.2,3735.6,168.2,3736.3,168.2z"/>
</g>
<g>
	<path fill="#1C5C85" d="M3460.8,139.2c-1.2,0-2.2,0.4-2.8,1.3s-1,2-1,3.5c0,1.6,0.3,2.8,1,3.6s1.6,1.2,2.9,1.2
		c0.5,0,1.1-0.1,1.6-0.2s1-0.2,1.6-0.4v1.8c-1,0.4-2.2,0.6-3.4,0.6c-1.9,0-3.3-0.6-4.3-1.7s-1.5-2.8-1.5-4.9c0-1.3,0.2-2.5,0.7-3.5
		s1.2-1.8,2.1-2.3s2-0.8,3.3-0.8c1.3,0,2.5,0.3,3.6,0.8l-0.8,1.7c-0.4-0.2-0.9-0.4-1.4-0.5C3461.8,139.2,3461.3,139.2,3460.8,139.2z
		"/>
	<path fill="#1C5C85" d="M3475.1,145.5c0,1.6-0.4,2.8-1.2,3.7s-1.9,1.3-3.4,1.3c-0.9,0-1.7-0.2-2.4-0.6s-1.2-1-1.6-1.8
		s-0.6-1.7-0.6-2.7c0-1.6,0.4-2.8,1.2-3.7s1.9-1.3,3.4-1.3c1.4,0,2.5,0.5,3.3,1.4C3474.7,142.8,3475.1,144,3475.1,145.5z
		 M3468.1,145.5c0,2.2,0.8,3.4,2.5,3.4c1.6,0,2.5-1.1,2.5-3.4c0-2.2-0.8-3.3-2.5-3.3c-0.9,0-1.5,0.3-1.9,0.9
		S3468.1,144.4,3468.1,145.5z"/>
	<path fill="#1C5C85" d="M3486.1,145.5c0,1.6-0.4,2.8-1.2,3.7s-1.9,1.3-3.4,1.3c-0.9,0-1.7-0.2-2.4-0.6s-1.2-1-1.6-1.8
		s-0.6-1.7-0.6-2.7c0-1.6,0.4-2.8,1.2-3.7s1.9-1.3,3.4-1.3c1.4,0,2.5,0.5,3.3,1.4C3485.7,142.8,3486.1,144,3486.1,145.5z
		 M3479,145.5c0,2.2,0.8,3.4,2.5,3.4c1.6,0,2.5-1.1,2.5-3.4c0-2.2-0.8-3.3-2.5-3.3c-0.9,0-1.5,0.3-1.9,0.9S3479,144.4,3479,145.5z"
		/>
	<path fill="#1C5C85" d="M3490.6,150.4h-2.1v-13.7h2.1V150.4z"/>
	<path fill="#1C5C85" d="M3499.6,150.4l-0.4-1.4h-0.1c-0.5,0.6-0.9,1-1.4,1.2c-0.5,0.2-1.1,0.3-1.8,0.3c-1,0-1.7-0.3-2.2-0.8
		s-0.8-1.2-0.8-2.2c0-1,0.4-1.8,1.1-2.3s1.9-0.8,3.4-0.8l1.7-0.1v-0.5c0-0.6-0.1-1.1-0.4-1.4c-0.3-0.3-0.7-0.5-1.3-0.5
		c-0.5,0-1,0.1-1.4,0.2s-0.9,0.3-1.3,0.5l-0.7-1.5c0.5-0.3,1.1-0.5,1.7-0.6c0.6-0.1,1.2-0.2,1.8-0.2c1.2,0,2.2,0.3,2.8,0.8
		s0.9,1.4,0.9,2.5v6.5H3499.6z M3496.5,149c0.8,0,1.4-0.2,1.8-0.6c0.5-0.4,0.7-1,0.7-1.8v-0.8l-1.2,0.1c-1,0-1.7,0.2-2.1,0.5
		c-0.4,0.3-0.7,0.7-0.7,1.3c0,0.4,0.1,0.8,0.4,1C3495.6,148.9,3496,149,3496.5,149z"/>
	<path fill="#1C5C85" d="M3512.5,150.4h-2.1v-6c0-0.8-0.2-1.3-0.5-1.7s-0.8-0.6-1.4-0.6c-0.9,0-1.5,0.3-1.9,0.8s-0.6,1.4-0.6,2.6
		v4.8h-2.1v-9.7h1.6l0.3,1.3h0.1c0.3-0.5,0.7-0.8,1.2-1.1s1.1-0.4,1.8-0.4c2.3,0,3.5,1.2,3.5,3.6V150.4z"/>
	<path fill="#1C5C85" d="M3519,148.9c0.5,0,1-0.1,1.5-0.2v1.6c-0.2,0.1-0.5,0.2-0.9,0.2s-0.7,0.1-1.1,0.1c-2,0-2.9-1-2.9-3.1v-5.2
		h-1.3v-0.9l1.4-0.8l0.7-2.1h1.3v2.2h2.8v1.6h-2.8v5.2c0,0.5,0.1,0.9,0.4,1.1C3518.3,148.8,3518.6,148.9,3519,148.9z"/>
	<path fill="#1C5C85" d="M3529.4,150.4h-2.1v-12.8h7.2v1.8h-5.2v4h4.8v1.8h-4.8V150.4z"/>
	<path fill="#1C5C85" d="M3538.8,150.4h-2.1v-13.7h2.1V150.4z"/>
	<path fill="#1C5C85" d="M3550.4,145.5c0,1.6-0.4,2.8-1.2,3.7s-1.9,1.3-3.4,1.3c-0.9,0-1.7-0.2-2.4-0.6s-1.2-1-1.6-1.8
		s-0.6-1.7-0.6-2.7c0-1.6,0.4-2.8,1.2-3.7s1.9-1.3,3.4-1.3c1.4,0,2.5,0.5,3.3,1.4C3549.9,142.8,3550.4,144,3550.4,145.5z
		 M3543.3,145.5c0,2.2,0.8,3.4,2.5,3.4c1.6,0,2.5-1.1,2.5-3.4c0-2.2-0.8-3.3-2.5-3.3c-0.9,0-1.5,0.3-1.9,0.9
		C3543.5,143.6,3543.3,144.4,3543.3,145.5z"/>
	<path fill="#1C5C85" d="M3560.7,150.4l-1.3-4.5c-0.2-0.5-0.4-1.6-0.8-3.3h-0.1c-0.3,1.6-0.6,2.7-0.8,3.4l-1.3,4.5h-2.3l-2.7-9.7
		h2.1l1.2,4.8c0.3,1.2,0.5,2.2,0.6,3h0.1c0.1-0.4,0.1-0.9,0.3-1.5c0.1-0.6,0.2-1,0.3-1.2l1.5-5.1h2.3l1.4,5.1
		c0.1,0.3,0.2,0.7,0.3,1.3c0.1,0.6,0.2,1.1,0.2,1.4h0.1c0.1-0.7,0.3-1.7,0.6-3l1.3-4.8h2.1l-2.7,9.7H3560.7z"/>
	<path fill="#1C5C85" d="M3571.4,145.5c0-1.6,0.2-3,0.7-4.4c0.5-1.4,1.1-2.5,2-3.6h1.8c-0.8,1.1-1.4,2.3-1.9,3.7s-0.7,2.8-0.7,4.2
		s0.2,2.8,0.7,4.2s1.1,2.6,1.9,3.6h-1.8c-0.9-1-1.5-2.2-2-3.5S3571.4,147,3571.4,145.5z"/>
	<path fill="#1C5C85" d="M3578,150.4v-12.8h2.1v11h5.4v1.8H3578z"/>
	<path fill="#1C5C85" d="M3596.3,141.4c0,1.3-0.4,2.4-1.3,3.1s-2.1,1.1-3.8,1.1h-1.3v4.8h-2.1v-12.8h3.7c1.6,0,2.8,0.3,3.6,1
		C3595.9,139.2,3596.3,140.2,3596.3,141.4z M3589.9,143.8h1.1c1.1,0,1.9-0.2,2.4-0.6s0.8-1,0.8-1.8c0-0.7-0.2-1.3-0.7-1.7
		s-1.2-0.5-2.1-0.5h-1.5V143.8z"/>
	<path fill="#1C5C85" d="M3604.4,150.4l-3.7-10.7h-0.1c0.1,1.6,0.1,3.1,0.1,4.5v6.2h-1.9v-12.8h3l3.6,10.2h0.1l3.7-10.2h3v12.8h-2
		V144c0-0.6,0-1.5,0-2.5c0-1,0.1-1.6,0.1-1.9h-0.1l-3.9,10.7H3604.4z"/>
	<path fill="#1C5C85" d="M3618.8,145.5c0,1.5-0.2,3-0.7,4.3c-0.5,1.3-1.1,2.5-2,3.5h-1.8c0.8-1.1,1.4-2.3,1.9-3.6
		c0.4-1.3,0.6-2.7,0.6-4.1c0-1.4-0.2-2.8-0.7-4.2c-0.4-1.4-1.1-2.6-1.9-3.7h1.8c0.9,1,1.5,2.2,2,3.6
		C3618.5,142.5,3618.8,143.9,3618.8,145.5z"/>
</g>
<g>
	<path fill="#595959" d="M3212.1,677.7c0,2.2-0.4,3.9-1,5c-0.7,1.1-1.8,1.6-3.2,1.6c-1.4,0-2.4-0.6-3.2-1.7
		c-0.7-1.1-1.1-2.8-1.1-4.9c0-2.2,0.3-3.9,1-5s1.8-1.6,3.2-1.6c1.4,0,2.5,0.6,3.2,1.7C3211.8,674,3212.1,675.6,3212.1,677.7z
		 M3205.1,677.7c0,1.9,0.2,3.2,0.7,4.1c0.4,0.9,1.1,1.3,2.1,1.3c1,0,1.7-0.4,2.1-1.3c0.4-0.9,0.7-2.2,0.7-4.1s-0.2-3.2-0.7-4.1
		c-0.4-0.9-1.1-1.3-2.1-1.3c-1,0-1.7,0.4-2.1,1.3S3205.1,675.9,3205.1,677.7z"/>
</g>
<g>
	<path fill="#595959" d="M3338.5,684.2h-1.4V675c0-0.8,0-1.5,0.1-2.2c-0.1,0.1-0.3,0.3-0.4,0.4s-0.8,0.7-2.1,1.7l-0.8-1l3.4-2.6h1.2
		V684.2z"/>
</g>
<g>
	<path fill="#595959" d="M3474.6,684.2h-8.4v-1.3l3.4-3.4c1-1,1.7-1.8,2-2.2s0.6-0.9,0.7-1.3s0.2-0.9,0.2-1.4c0-0.7-0.2-1.2-0.6-1.6
		s-1-0.6-1.7-0.6c-0.5,0-1,0.1-1.5,0.3c-0.5,0.2-1,0.5-1.6,1l-0.8-1c1.2-1,2.5-1.5,3.9-1.5c1.2,0,2.2,0.3,2.8,0.9
		c0.7,0.6,1,1.4,1,2.5c0,0.8-0.2,1.6-0.7,2.4s-1.3,1.8-2.6,3l-2.8,2.8v0.1h6.6V684.2z"/>
</g>
<g>
	<path fill="#595959" d="M3607.2,674.4c0,0.8-0.2,1.5-0.7,2s-1.1,0.9-2,1v0.1c1,0.1,1.8,0.5,2.3,1s0.7,1.2,0.7,2.1
		c0,1.2-0.4,2.2-1.3,2.8c-0.8,0.7-2.1,1-3.6,1c-0.7,0-1.3-0.1-1.9-0.2c-0.6-0.1-1.1-0.3-1.6-0.5v-1.4c0.6,0.3,1.2,0.5,1.8,0.6
		c0.6,0.1,1.2,0.2,1.8,0.2c2.2,0,3.3-0.9,3.3-2.6c0-1.6-1.2-2.3-3.7-2.3h-1.3v-1.3h1.3c1,0,1.8-0.2,2.4-0.7s0.9-1.1,0.9-1.8
		c0-0.6-0.2-1.1-0.6-1.5s-1-0.5-1.8-0.5c-0.6,0-1.1,0.1-1.6,0.2s-1.1,0.4-1.7,0.8l-0.7-1c0.5-0.4,1.1-0.7,1.8-1
		c0.7-0.2,1.4-0.4,2.2-0.4c1.2,0,2.2,0.3,2.9,0.9C3606.8,672.6,3607.2,673.4,3607.2,674.4z"/>
</g>
<g>
	<path fill="#595959" d="M3741.3,681.2h-1.9v3h-1.4v-3h-6.2V680l6.1-8.7h1.5v8.6h1.9V681.2z M3738,679.9v-4.3c0-0.8,0-1.8,0.1-2.8
		h-0.1c-0.3,0.6-0.5,1-0.8,1.4l-4,5.7H3738z"/>
</g>
<g>
	<path fill="#595959" d="M3869.4,676.3c1.4,0,2.4,0.3,3.2,1c0.8,0.7,1.2,1.6,1.2,2.8c0,1.3-0.4,2.4-1.3,3.1c-0.8,0.8-2,1.1-3.5,1.1
		c-1.4,0-2.6-0.2-3.3-0.7v-1.4c0.4,0.3,0.9,0.5,1.5,0.6c0.6,0.1,1.2,0.2,1.8,0.2c1,0,1.8-0.2,2.4-0.7s0.9-1.2,0.9-2.1
		c0-1.8-1.1-2.7-3.3-2.7c-0.6,0-1.3,0.1-2.2,0.3l-0.8-0.5l0.5-6h6.4v1.3h-5.1l-0.3,3.9C3868,676.4,3868.7,676.3,3869.4,676.3z"/>
</g>
<g>
	<path fill="#1C5C85" d="M3461.5,699.8c-1.2,0-2.2,0.4-2.8,1.3s-1,2-1,3.5c0,1.6,0.3,2.8,1,3.6s1.6,1.2,2.9,1.2
		c0.5,0,1.1-0.1,1.6-0.2s1-0.2,1.6-0.4v1.8c-1,0.4-2.2,0.6-3.4,0.6c-1.9,0-3.3-0.6-4.3-1.7s-1.5-2.8-1.5-4.9c0-1.3,0.2-2.5,0.7-3.5
		s1.2-1.8,2.1-2.3s2-0.8,3.3-0.8c1.3,0,2.5,0.3,3.6,0.8l-0.8,1.7c-0.4-0.2-0.9-0.4-1.4-0.5C3462.5,699.9,3462,699.8,3461.5,699.8z"
		/>
	<path fill="#1C5C85" d="M3475.8,706.2c0,1.6-0.4,2.8-1.2,3.7s-1.9,1.3-3.4,1.3c-0.9,0-1.7-0.2-2.4-0.6s-1.2-1-1.6-1.8
		s-0.6-1.7-0.6-2.7c0-1.6,0.4-2.8,1.2-3.7s1.9-1.3,3.4-1.3c1.4,0,2.5,0.5,3.3,1.4C3475.4,703.4,3475.8,704.7,3475.8,706.2z
		 M3468.8,706.2c0,2.2,0.8,3.4,2.5,3.4c1.6,0,2.5-1.1,2.5-3.4c0-2.2-0.8-3.3-2.5-3.3c-0.9,0-1.5,0.3-1.9,0.9
		S3468.8,705.1,3468.8,706.2z"/>
	<path fill="#1C5C85" d="M3486.8,706.2c0,1.6-0.4,2.8-1.2,3.7s-1.9,1.3-3.4,1.3c-0.9,0-1.7-0.2-2.4-0.6s-1.2-1-1.6-1.8
		s-0.6-1.7-0.6-2.7c0-1.6,0.4-2.8,1.2-3.7s1.9-1.3,3.4-1.3c1.4,0,2.5,0.5,3.3,1.4C3486.4,703.4,3486.8,704.7,3486.8,706.2z
		 M3479.8,706.2c0,2.2,0.8,3.4,2.5,3.4c1.6,0,2.5-1.1,2.5-3.4c0-2.2-0.8-3.3-2.5-3.3c-0.9,0-1.5,0.3-1.9,0.9
		S3479.8,705.1,3479.8,706.2z"/>
	<path fill="#1C5C85" d="M3491.3,711.1h-2.1v-13.7h2.1V711.1z"/>
	<path fill="#1C5C85" d="M3500.3,711.1l-0.4-1.4h-0.1c-0.5,0.6-0.9,1-1.4,1.2c-0.5,0.2-1.1,0.3-1.8,0.3c-1,0-1.7-0.3-2.2-0.8
		s-0.8-1.2-0.8-2.2c0-1,0.4-1.8,1.1-2.3s1.9-0.8,3.4-0.8l1.7-0.1v-0.5c0-0.6-0.1-1.1-0.4-1.4c-0.3-0.3-0.7-0.5-1.3-0.5
		c-0.5,0-1,0.1-1.4,0.2s-0.9,0.3-1.3,0.5l-0.7-1.5c0.5-0.3,1.1-0.5,1.7-0.6c0.6-0.1,1.2-0.2,1.8-0.2c1.2,0,2.2,0.3,2.8,0.8
		s0.9,1.4,0.9,2.5v6.5H3500.3z M3497.2,709.7c0.8,0,1.4-0.2,1.8-0.6c0.5-0.4,0.7-1,0.7-1.8v-0.8l-1.2,0.1c-1,0-1.7,0.2-2.1,0.5
		c-0.4,0.3-0.7,0.7-0.7,1.3c0,0.4,0.1,0.8,0.4,1C3496.3,709.5,3496.7,709.7,3497.2,709.7z"/>
	<path fill="#1C5C85" d="M3513.2,711.1h-2.1v-6c0-0.8-0.2-1.3-0.5-1.7s-0.8-0.6-1.4-0.6c-0.9,0-1.5,0.3-1.9,0.8s-0.6,1.4-0.6,2.6
		v4.8h-2.1v-9.7h1.6l0.3,1.3h0.1c0.3-0.5,0.7-0.8,1.2-1.1s1.1-0.4,1.8-0.4c2.3,0,3.5,1.2,3.5,3.6V711.1z"/>
	<path fill="#1C5C85" d="M3519.7,709.6c0.5,0,1-0.1,1.5-0.2v1.6c-0.2,0.1-0.5,0.2-0.9,0.2s-0.7,0.1-1.1,0.1c-2,0-2.9-1-2.9-3.1v-5.2
		h-1.3V702l1.4-0.8l0.7-2.1h1.3v2.2h2.8v1.6h-2.8v5.2c0,0.5,0.1,0.9,0.4,1.1C3519,709.5,3519.3,709.6,3519.7,709.6z"/>
	<path fill="#1C5C85" d="M3530.1,711.1h-2.1v-12.8h7.3v1.8h-5.2v4h4.8v1.8h-4.8V711.1z"/>
	<path fill="#1C5C85" d="M3539.5,711.1h-2.1v-13.7h2.1V711.1z"/>
	<path fill="#1C5C85" d="M3551.1,706.2c0,1.6-0.4,2.8-1.2,3.7s-1.9,1.3-3.4,1.3c-0.9,0-1.7-0.2-2.4-0.6s-1.2-1-1.6-1.8
		s-0.6-1.7-0.6-2.7c0-1.6,0.4-2.8,1.2-3.7s1.9-1.3,3.4-1.3c1.4,0,2.5,0.5,3.3,1.4C3550.7,703.4,3551.1,704.7,3551.1,706.2z
		 M3544,706.2c0,2.2,0.8,3.4,2.5,3.4c1.6,0,2.5-1.1,2.5-3.4c0-2.2-0.8-3.3-2.5-3.3c-0.9,0-1.5,0.3-1.9,0.9
		C3544.2,704.3,3544,705.1,3544,706.2z"/>
	<path fill="#1C5C85" d="M3561.4,711.1l-1.3-4.5c-0.2-0.5-0.4-1.6-0.8-3.3h-0.1c-0.3,1.6-0.6,2.7-0.8,3.4l-1.3,4.5h-2.3l-2.7-9.7
		h2.1l1.2,4.8c0.3,1.2,0.5,2.2,0.6,3h0.1c0.1-0.4,0.1-0.9,0.3-1.5c0.1-0.6,0.2-1,0.3-1.2l1.5-5.1h2.3l1.4,5.1
		c0.1,0.3,0.2,0.7,0.3,1.3c0.1,0.6,0.2,1.1,0.2,1.4h0.1c0.1-0.7,0.3-1.7,0.6-3l1.3-4.8h2.1l-2.7,9.7H3561.4z"/>
	<path fill="#1C5C85" d="M3572.1,706.1c0-1.6,0.2-3,0.7-4.4c0.5-1.4,1.1-2.5,2-3.6h1.8c-0.8,1.1-1.4,2.3-1.9,3.7s-0.7,2.8-0.7,4.2
		s0.2,2.8,0.7,4.2s1.1,2.6,1.9,3.6h-1.8c-0.9-1-1.5-2.2-2-3.5S3572.1,707.7,3572.1,706.1z"/>
	<path fill="#1C5C85" d="M3584,704.1h4.7v6.5c-0.8,0.3-1.5,0.4-2.2,0.5c-0.7,0.1-1.5,0.2-2.3,0.2c-1.9,0-3.4-0.6-4.5-1.7
		c-1.1-1.2-1.6-2.8-1.6-4.9c0-2.1,0.6-3.7,1.8-4.9c1.2-1.2,2.8-1.8,4.9-1.8c1.3,0,2.6,0.3,3.8,0.8l-0.7,1.7c-1-0.5-2.1-0.7-3.1-0.7
		c-1.4,0-2.5,0.4-3.3,1.3s-1.2,2-1.2,3.5c0,1.6,0.4,2.8,1.1,3.6c0.7,0.8,1.8,1.2,3.1,1.2c0.7,0,1.4-0.1,2.2-0.3v-3.3h-2.7V704.1z"/>
	<path fill="#1C5C85" d="M3600.3,702.1c0,1.3-0.4,2.4-1.3,3.1s-2.1,1.1-3.8,1.1h-1.3v4.8h-2.1v-12.8h3.7c1.6,0,2.8,0.3,3.6,1
		C3599.9,699.9,3600.3,700.8,3600.3,702.1z M3593.9,704.5h1.1c1.1,0,1.9-0.2,2.4-0.6s0.8-1,0.8-1.8c0-0.7-0.2-1.3-0.7-1.7
		s-1.2-0.5-2.1-0.5h-1.5V704.5z"/>
	<path fill="#1C5C85" d="M3608.4,711.1l-3.7-10.7h-0.1c0.1,1.6,0.1,3.1,0.1,4.5v6.2h-1.9v-12.8h3l3.6,10.2h0.1l3.7-10.2h3v12.8h-2
		v-6.4c0-0.6,0-1.5,0-2.5c0-1,0.1-1.6,0.1-1.9h-0.1l-3.9,10.7H3608.4z"/>
	<path fill="#1C5C85" d="M3622.8,706.1c0,1.5-0.2,3-0.7,4.3c-0.5,1.3-1.1,2.5-2,3.5h-1.8c0.8-1.1,1.4-2.3,1.9-3.6
		c0.4-1.3,0.6-2.7,0.6-4.1c0-1.4-0.2-2.8-0.7-4.2c-0.4-1.4-1.1-2.6-1.9-3.7h1.8c0.9,1,1.5,2.2,2,3.6
		C3622.6,703.2,3622.8,704.6,3622.8,706.1z"/>
</g>
<line fill="none" stroke="#8C9293" stroke-miterlimit="10" x1="3380.3" y1="182.2" x2="3380.3" y2="190.2"/>
<line fill="none" stroke="#8C9293" stroke-miterlimit="10" x1="3557.1" y1="182.2" x2="3557.1" y2="190.2"/>
<line fill="none" stroke="#8C9293" stroke-miterlimit="10" x1="3205.4" y1="182.2" x2="3205.4" y2="190.2"/>
<line fill="none" stroke="#8C9293" stroke-miterlimit="10" x1="3732.4" y1="182.2" x2="3732.4" y2="190.2"/>
</svg>
