<?xml version="1.0" encoding="utf-8"?>
<!-- Generator: Adobe Illustrator 18.1.1, SVG Export Plug-In . SVG Version: 6.00 Build 0)  -->
<svg version="1.1" baseProfile="tiny" id="Layer_1" xmlns="http://www.w3.org/2000/svg" xmlns:xlink="http://www.w3.org/1999/xlink"
	 x="0px" y="0px" viewBox="0 0 647.3 43.6" xml:space="preserve">
<g>
	<g>
		<path fill="#1C5C85" d="M27.7,14L26.2,2.3h-0.1c0,0.4-0.1,1-0.3,1.8c-0.1,0.8-0.2,1.4-0.3,1.8L23.8,14h-1.5l2.8-13.1h2.2l1.3,10.8
			h0.1l5.9-10.8H37L34.3,14h-1.6c0.8-3.5,1.3-6.3,1.7-8.1c0.4-1.9,0.7-3.1,0.8-3.5h-0.1L28.8,14H27.7z"/>
		<path fill="#1C5C85" d="M42.8,4c1.1,0,2,0.3,2.7,1c0.7,0.7,1,1.6,1,2.8c0,1.1-0.2,2.2-0.6,3.2c-0.4,1-1,1.8-1.8,2.3
			c-0.7,0.5-1.6,0.8-2.5,0.8c-1.2,0-2.1-0.3-2.7-1s-1-1.6-1-2.8c0-1.1,0.2-2.2,0.7-3.2c0.4-1,1-1.8,1.8-2.3S41.9,4,42.8,4z
			 M44.9,7.6c0-0.7-0.2-1.2-0.6-1.7c-0.4-0.4-0.9-0.6-1.5-0.6c-0.7,0-1.2,0.2-1.8,0.7c-0.5,0.4-0.9,1.1-1.2,1.8
			c-0.3,0.8-0.4,1.7-0.4,2.6c0,0.8,0.2,1.4,0.6,1.8s0.9,0.6,1.6,0.6c0.6,0,1.2-0.2,1.7-0.7s0.9-1.1,1.2-1.9
			C44.8,9.6,44.9,8.6,44.9,7.6z"/>
		<path fill="#1C5C85" d="M53.1,4c1.2,0,2,0.6,2.5,1.7h0.1c0.1-0.9,0.2-1.8,0.4-2.5L56.8,0h1.5l-3,14h-1.2l0.2-1.9h-0.1
			c-0.6,0.8-1.2,1.3-1.7,1.6c-0.5,0.3-1.1,0.5-1.6,0.5c-0.8,0-1.5-0.3-2-0.9c-0.5-0.6-0.7-1.4-0.7-2.4c0-1.3,0.2-2.5,0.6-3.5
			s1-1.9,1.7-2.5C51.3,4.3,52.2,4,53.1,4z M51.4,12.9c0.6,0,1.1-0.3,1.7-0.8c0.6-0.6,1.1-1.3,1.4-2.1s0.5-1.8,0.5-2.7
			c0-0.7-0.2-1.2-0.5-1.5c-0.3-0.3-0.8-0.5-1.4-0.5c-0.6,0-1.2,0.2-1.7,0.7c-0.5,0.5-0.9,1.2-1.2,2.1c-0.3,0.9-0.5,1.8-0.5,2.8
			C49.8,12.2,50.3,12.9,51.4,12.9z"/>
		<path fill="#1C5C85" d="M62.4,14.2c-1.1,0-2-0.3-2.6-1c-0.6-0.7-0.9-1.6-0.9-2.7c0-1.1,0.2-2.2,0.7-3.2c0.4-1,1-1.8,1.8-2.4
			C62,4.2,62.8,4,63.7,4c0.9,0,1.6,0.2,2.1,0.6s0.7,1,0.7,1.7c0,1.1-0.5,1.9-1.5,2.5c-1,0.6-2.4,0.9-4.3,0.9h-0.3l0,0.7
			c0,0.8,0.2,1.4,0.6,1.8c0.4,0.4,0.9,0.7,1.7,0.7c0.4,0,0.8-0.1,1.2-0.2c0.4-0.1,0.9-0.3,1.5-0.6v1.3c-0.6,0.3-1.1,0.4-1.5,0.6
			S62.9,14.2,62.4,14.2z M63.6,5.2c-0.6,0-1.2,0.3-1.7,0.8s-1,1.3-1.2,2.3h0.1c1.4,0,2.4-0.2,3.1-0.5S65,7,65,6.3
			c0-0.3-0.1-0.6-0.3-0.8C64.4,5.3,64.1,5.2,63.6,5.2z"/>
		<path fill="#1C5C85" d="M69.1,14h-1.5l3-14h1.5L69.1,14z"/>
		<path fill="#1C5C85" d="M78.5,14l4.9-10.8H77V0.9h9.4v1.7l-5,11.4H78.5z"/>
		<path fill="#1C5C85" d="M96.9,14h-9.2v-1.9l3.3-3.3c1-1,1.6-1.7,1.9-2.1c0.3-0.4,0.5-0.7,0.6-1.1c0.1-0.3,0.2-0.7,0.2-1
			c0-0.5-0.1-0.9-0.4-1.2C93.1,3.1,92.7,3,92.2,3c-0.5,0-1,0.1-1.5,0.4c-0.5,0.2-1,0.6-1.5,1l-1.5-1.8c0.6-0.6,1.2-0.9,1.6-1.2
			c0.4-0.2,0.9-0.4,1.4-0.5c0.5-0.1,1.1-0.2,1.7-0.2c0.8,0,1.5,0.1,2.2,0.4c0.6,0.3,1.1,0.7,1.5,1.3c0.3,0.5,0.5,1.2,0.5,1.9
			c0,0.6-0.1,1.2-0.3,1.7c-0.2,0.5-0.5,1.1-1,1.6c-0.4,0.6-1.2,1.4-2.4,2.4l-1.7,1.6v0.1h5.7V14z"/>
		<path fill="#1C5C85" d="M107.4,7.4c0,2.3-0.4,4-1.1,5.1c-0.8,1.1-1.9,1.7-3.5,1.7c-1.5,0-2.7-0.6-3.4-1.7c-0.8-1.1-1.2-2.8-1.2-5
			c0-2.3,0.4-4,1.1-5.1c0.7-1.1,1.9-1.7,3.5-1.7c1.5,0,2.7,0.6,3.4,1.7C107,3.5,107.4,5.2,107.4,7.4z M101,7.4
			c0,1.6,0.1,2.8,0.4,3.5c0.3,0.7,0.7,1,1.4,1c0.6,0,1.1-0.4,1.4-1.1c0.3-0.7,0.4-1.9,0.4-3.5c0-1.6-0.1-2.8-0.4-3.5
			c-0.3-0.7-0.8-1.1-1.4-1.1c-0.7,0-1.1,0.4-1.4,1.1C101.1,4.6,101,5.8,101,7.4z"/>
	</g>
	<path fill="#D6BC3E" d="M4.3,2.1h13.5l-4.3,12.1H0L4.3,2.1z"/>
</g>
<g>
	<g>
		<path fill="#1C5C85" d="M26.5,43.4L25,31.8h-0.1c0,0.4-0.1,1-0.3,1.8c-0.1,0.8-0.2,1.4-0.3,1.8l-1.7,8.1h-1.5L24,30.3h2.2
			l1.3,10.8h0.1l5.9-10.8h2.4l-2.7,13.1h-1.6c0.8-3.5,1.3-6.3,1.7-8.1c0.4-1.9,0.7-3.1,0.8-3.5h-0.1l-6.4,11.7H26.5z"/>
		<path fill="#1C5C85" d="M41.6,33.4c1.1,0,2,0.3,2.7,1c0.7,0.7,1,1.6,1,2.8c0,1.1-0.2,2.2-0.6,3.2c-0.4,1-1,1.8-1.8,2.3
			c-0.7,0.5-1.6,0.8-2.5,0.8c-1.2,0-2.1-0.3-2.7-1s-1-1.6-1-2.8c0-1.1,0.2-2.2,0.7-3.2c0.4-1,1-1.8,1.8-2.3S40.7,33.4,41.6,33.4z
			 M43.8,37c0-0.7-0.2-1.2-0.6-1.7c-0.4-0.4-0.9-0.6-1.5-0.6c-0.7,0-1.2,0.2-1.8,0.7c-0.5,0.4-0.9,1.1-1.2,1.8
			c-0.3,0.8-0.4,1.7-0.4,2.6c0,0.8,0.2,1.4,0.6,1.8s0.9,0.6,1.6,0.6c0.6,0,1.2-0.2,1.7-0.7s0.9-1.1,1.2-1.9
			C43.6,39,43.8,38.1,43.8,37z"/>
		<path fill="#1C5C85" d="M51.9,33.4c1.2,0,2,0.6,2.5,1.7h0.1c0.1-0.9,0.2-1.8,0.4-2.5l0.7-3.2h1.5l-3,14h-1.2l0.2-1.9h-0.1
			c-0.6,0.8-1.2,1.3-1.7,1.6c-0.5,0.3-1.1,0.5-1.6,0.5c-0.8,0-1.5-0.3-2-0.9c-0.5-0.6-0.7-1.4-0.7-2.4c0-1.3,0.2-2.5,0.6-3.5
			s1-1.9,1.7-2.5C50.2,33.7,51,33.4,51.9,33.4z M50.2,42.3c0.6,0,1.1-0.3,1.7-0.8c0.6-0.6,1.1-1.3,1.4-2.1s0.5-1.8,0.5-2.7
			c0-0.7-0.2-1.2-0.5-1.5c-0.3-0.3-0.8-0.5-1.4-0.5c-0.6,0-1.2,0.2-1.7,0.7c-0.5,0.5-0.9,1.2-1.2,2.1c-0.3,0.9-0.5,1.8-0.5,2.8
			C48.6,41.7,49.1,42.3,50.2,42.3z"/>
		<path fill="#1C5C85" d="M61.2,43.6c-1.1,0-2-0.3-2.6-1C58,42,57.7,41,57.7,39.9c0-1.1,0.2-2.2,0.7-3.2c0.4-1,1-1.8,1.8-2.4
			c0.7-0.6,1.5-0.9,2.4-0.9c0.9,0,1.6,0.2,2.1,0.6s0.7,1,0.7,1.7c0,1.1-0.5,1.9-1.5,2.5c-1,0.6-2.4,0.9-4.3,0.9h-0.3l0,0.7
			c0,0.8,0.2,1.4,0.6,1.8c0.4,0.4,0.9,0.7,1.7,0.7c0.4,0,0.8-0.1,1.2-0.2c0.4-0.1,0.9-0.3,1.5-0.6v1.3c-0.6,0.3-1.1,0.4-1.5,0.6
			S61.8,43.6,61.2,43.6z M62.5,34.7c-0.6,0-1.2,0.3-1.7,0.8s-1,1.3-1.2,2.3h0.1c1.4,0,2.4-0.2,3.1-0.5s1.1-0.9,1.1-1.6
			c0-0.3-0.1-0.6-0.3-0.8C63.3,34.8,63,34.7,62.5,34.7z"/>
		<path fill="#1C5C85" d="M67.9,43.4h-1.5l3-14h1.5L67.9,43.4z"/>
		<path fill="#1C5C85" d="M77.4,43.4l4.9-10.8h-6.5v-2.3h9.4V32l-5,11.4H77.4z"/>
		<path fill="#1C5C85" d="M95.8,43.4h-9.2v-1.9l3.3-3.3c1-1,1.6-1.7,1.9-2.1c0.3-0.4,0.5-0.7,0.6-1.1c0.1-0.3,0.2-0.7,0.2-1
			c0-0.5-0.1-0.9-0.4-1.2c-0.3-0.3-0.7-0.4-1.2-0.4c-0.5,0-1,0.1-1.5,0.4c-0.5,0.2-1,0.6-1.5,1L86.6,32c0.6-0.6,1.2-0.9,1.6-1.2
			c0.4-0.2,0.9-0.4,1.4-0.5c0.5-0.1,1.1-0.2,1.7-0.2c0.8,0,1.5,0.1,2.2,0.4c0.6,0.3,1.1,0.7,1.5,1.3c0.3,0.5,0.5,1.2,0.5,1.9
			c0,0.6-0.1,1.2-0.3,1.7c-0.2,0.5-0.5,1.1-1,1.6c-0.4,0.6-1.2,1.4-2.4,2.4l-1.7,1.6v0.1h5.7V43.4z"/>
		<path fill="#1C5C85" d="M104,43.4h-2.8v-7.6l0-1.2l0-1.4c-0.5,0.5-0.8,0.8-1,0.9l-1.5,1.2l-1.3-1.7l4.2-3.4h2.3V43.4z"/>
	</g>
	<path fill="#CD1D23" d="M4.3,31.5h13.5l-4.3,12.1H0L4.3,31.5z"/>
</g>
<g>
	<g>
		<path fill="#1C5C85" d="M206.7,14l-1.5-11.7h-0.1c0,0.4-0.1,1-0.3,1.8c-0.1,0.8-0.2,1.4-0.3,1.8l-1.7,8.1h-1.5l2.8-13.1h2.2
			l1.3,10.8h0.1l5.9-10.8h2.4L213.4,14h-1.6c0.8-3.5,1.3-6.3,1.7-8.1c0.4-1.9,0.7-3.1,0.8-3.5h-0.1L207.9,14H206.7z"/>
		<path fill="#1C5C85" d="M221.8,4c1.1,0,2,0.3,2.7,1c0.7,0.7,1,1.6,1,2.8c0,1.1-0.2,2.2-0.6,3.2c-0.4,1-1,1.8-1.8,2.3
			c-0.7,0.5-1.6,0.8-2.5,0.8c-1.2,0-2.1-0.3-2.7-1s-1-1.6-1-2.8c0-1.1,0.2-2.2,0.7-3.2c0.4-1,1-1.8,1.8-2.3S220.9,4,221.8,4z
			 M223.9,7.6c0-0.7-0.2-1.2-0.6-1.7c-0.4-0.4-0.9-0.6-1.5-0.6c-0.7,0-1.2,0.2-1.8,0.7c-0.5,0.4-0.9,1.1-1.2,1.8
			c-0.3,0.8-0.4,1.7-0.4,2.6c0,0.8,0.2,1.4,0.6,1.8s0.9,0.6,1.6,0.6c0.6,0,1.2-0.2,1.7-0.7s0.9-1.1,1.2-1.9
			C223.8,9.6,223.9,8.6,223.9,7.6z"/>
		<path fill="#1C5C85" d="M232.1,4c1.2,0,2,0.6,2.5,1.7h0.1c0.1-0.9,0.2-1.8,0.4-2.5l0.7-3.2h1.5l-3,14h-1.2l0.2-1.9h-0.1
			c-0.6,0.8-1.2,1.3-1.7,1.6c-0.5,0.3-1.1,0.5-1.6,0.5c-0.8,0-1.5-0.3-2-0.9c-0.5-0.6-0.7-1.4-0.7-2.4c0-1.3,0.2-2.5,0.6-3.5
			s1-1.9,1.7-2.5C230.4,4.3,231.2,4,232.1,4z M230.4,12.9c0.6,0,1.1-0.3,1.7-0.8c0.6-0.6,1.1-1.3,1.4-2.1s0.5-1.8,0.5-2.7
			c0-0.7-0.2-1.2-0.5-1.5c-0.3-0.3-0.8-0.5-1.4-0.5c-0.6,0-1.2,0.2-1.7,0.7c-0.5,0.5-0.9,1.2-1.2,2.1c-0.3,0.9-0.5,1.8-0.5,2.8
			C228.8,12.2,229.3,12.9,230.4,12.9z"/>
		<path fill="#1C5C85" d="M241.4,14.2c-1.1,0-2-0.3-2.6-1c-0.6-0.7-0.9-1.6-0.9-2.7c0-1.1,0.2-2.2,0.7-3.2c0.4-1,1-1.8,1.8-2.4
			c0.7-0.6,1.5-0.9,2.4-0.9c0.9,0,1.6,0.2,2.1,0.6s0.7,1,0.7,1.7c0,1.1-0.5,1.9-1.5,2.5c-1,0.6-2.4,0.9-4.3,0.9h-0.3l0,0.7
			c0,0.8,0.2,1.4,0.6,1.8c0.4,0.4,0.9,0.7,1.7,0.7c0.4,0,0.8-0.1,1.2-0.2c0.4-0.1,0.9-0.3,1.5-0.6v1.3c-0.6,0.3-1.1,0.4-1.5,0.6
			S242,14.2,241.4,14.2z M242.7,5.2c-0.6,0-1.2,0.3-1.7,0.8s-1,1.3-1.2,2.3h0.1c1.4,0,2.4-0.2,3.1-0.5S244,7,244,6.3
			c0-0.3-0.1-0.6-0.3-0.8C243.5,5.3,243.1,5.2,242.7,5.2z"/>
		<path fill="#1C5C85" d="M248.1,14h-1.5l3-14h1.5L248.1,14z"/>
		<path fill="#1C5C85" d="M257.6,14l4.9-10.8H256V0.9h9.4v1.7l-5,11.4H257.6z"/>
		<path fill="#1C5C85" d="M276,14h-9.2v-1.9l3.3-3.3c1-1,1.6-1.7,1.9-2.1c0.3-0.4,0.5-0.7,0.6-1.1c0.1-0.3,0.2-0.7,0.2-1
			c0-0.5-0.1-0.9-0.4-1.2c-0.3-0.3-0.7-0.4-1.2-0.4c-0.5,0-1,0.1-1.5,0.4c-0.5,0.2-1,0.6-1.5,1l-1.5-1.8c0.6-0.6,1.2-0.9,1.6-1.2
			c0.4-0.2,0.9-0.4,1.4-0.5c0.5-0.1,1.1-0.2,1.7-0.2c0.8,0,1.5,0.1,2.2,0.4c0.6,0.3,1.1,0.7,1.5,1.3c0.3,0.5,0.5,1.2,0.5,1.9
			c0,0.6-0.1,1.2-0.3,1.7c-0.2,0.5-0.5,1.1-1,1.6c-0.4,0.6-1.2,1.4-2.4,2.4l-1.7,1.6v0.1h5.7V14z"/>
		<path fill="#1C5C85" d="M286.5,14h-9.2v-1.9l3.3-3.3c1-1,1.6-1.7,1.9-2.1c0.3-0.4,0.5-0.7,0.6-1.1c0.1-0.3,0.2-0.7,0.2-1
			c0-0.5-0.1-0.9-0.4-1.2c-0.3-0.3-0.7-0.4-1.2-0.4c-0.5,0-1,0.1-1.5,0.4c-0.5,0.2-1,0.6-1.5,1l-1.5-1.8c0.6-0.6,1.2-0.9,1.6-1.2
			c0.4-0.2,0.9-0.4,1.4-0.5c0.5-0.1,1.1-0.2,1.7-0.2c0.8,0,1.5,0.1,2.2,0.4c0.6,0.3,1.1,0.7,1.5,1.3c0.3,0.5,0.5,1.2,0.5,1.9
			c0,0.6-0.1,1.2-0.3,1.7c-0.2,0.5-0.5,1.1-1,1.6c-0.4,0.6-1.2,1.4-2.4,2.4l-1.7,1.6v0.1h5.7V14z"/>
	</g>
	<path fill="#EA9E24" d="M185.2,2.1h13.5l-4.3,12.1h-13.5L185.2,2.1z"/>
</g>
<g>
	<g>
		<path fill="#1C5C85" d="M206.2,43.4l-1.5-11.7h-0.1c0,0.4-0.1,1-0.3,1.8c-0.1,0.8-0.2,1.4-0.3,1.8l-1.7,8.1h-1.5l2.8-13.1h2.2
			l1.3,10.8h0.1l5.9-10.8h2.4l-2.7,13.1h-1.6c0.8-3.5,1.3-6.3,1.7-8.1c0.4-1.9,0.7-3.1,0.8-3.5h-0.1l-6.4,11.7H206.2z"/>
		<path fill="#1C5C85" d="M221.3,33.4c1.1,0,2,0.3,2.7,1c0.7,0.7,1,1.6,1,2.8c0,1.1-0.2,2.2-0.6,3.2c-0.4,1-1,1.8-1.8,2.3
			c-0.7,0.5-1.6,0.8-2.5,0.8c-1.2,0-2.1-0.3-2.7-1s-1-1.6-1-2.8c0-1.1,0.2-2.2,0.7-3.2c0.4-1,1-1.8,1.8-2.3S220.4,33.4,221.3,33.4z
			 M223.4,37c0-0.7-0.2-1.2-0.6-1.7c-0.4-0.4-0.9-0.6-1.5-0.6c-0.7,0-1.2,0.2-1.8,0.7c-0.5,0.4-0.9,1.1-1.2,1.8
			c-0.3,0.8-0.4,1.7-0.4,2.6c0,0.8,0.2,1.4,0.6,1.8s0.9,0.6,1.6,0.6c0.6,0,1.2-0.2,1.7-0.7s0.9-1.1,1.2-1.9
			C223.3,39,223.4,38.1,223.4,37z"/>
		<path fill="#1C5C85" d="M231.6,33.4c1.2,0,2,0.6,2.5,1.7h0.1c0.1-0.9,0.2-1.8,0.4-2.5l0.7-3.2h1.5l-3,14h-1.2l0.2-1.9h-0.1
			c-0.6,0.8-1.2,1.3-1.7,1.6c-0.5,0.3-1.1,0.5-1.6,0.5c-0.8,0-1.5-0.3-2-0.9c-0.5-0.6-0.7-1.4-0.7-2.4c0-1.3,0.2-2.5,0.6-3.5
			s1-1.9,1.7-2.5C229.8,33.7,230.7,33.4,231.6,33.4z M229.9,42.3c0.6,0,1.1-0.3,1.7-0.8c0.6-0.6,1.1-1.3,1.4-2.1s0.5-1.8,0.5-2.7
			c0-0.7-0.2-1.2-0.5-1.5c-0.3-0.3-0.8-0.5-1.4-0.5c-0.6,0-1.2,0.2-1.7,0.7c-0.5,0.5-0.9,1.2-1.2,2.1c-0.3,0.9-0.5,1.8-0.5,2.8
			C228.3,41.7,228.8,42.3,229.9,42.3z"/>
		<path fill="#1C5C85" d="M240.9,43.6c-1.1,0-2-0.3-2.6-1c-0.6-0.7-0.9-1.6-0.9-2.7c0-1.1,0.2-2.2,0.7-3.2c0.4-1,1-1.8,1.8-2.4
			c0.7-0.6,1.5-0.9,2.4-0.9c0.9,0,1.6,0.2,2.1,0.6s0.7,1,0.7,1.7c0,1.1-0.5,1.9-1.5,2.5c-1,0.6-2.4,0.9-4.3,0.9h-0.3l0,0.7
			c0,0.8,0.2,1.4,0.6,1.8c0.4,0.4,0.9,0.7,1.7,0.7c0.4,0,0.8-0.1,1.2-0.2c0.4-0.1,0.9-0.3,1.5-0.6v1.3c-0.6,0.3-1.1,0.4-1.5,0.6
			S241.4,43.6,240.9,43.6z M242.1,34.7c-0.6,0-1.2,0.3-1.7,0.8s-1,1.3-1.2,2.3h0.1c1.4,0,2.4-0.2,3.1-0.5s1.1-0.9,1.1-1.6
			c0-0.3-0.1-0.6-0.3-0.8C242.9,34.8,242.6,34.7,242.1,34.7z"/>
		<path fill="#1C5C85" d="M247.6,43.4h-1.5l3-14h1.5L247.6,43.4z"/>
		<path fill="#1C5C85" d="M257,43.4l4.9-10.8h-6.5v-2.3h9.4V32l-5,11.4H257z"/>
		<path fill="#1C5C85" d="M275.4,43.4h-9.2v-1.9l3.3-3.3c1-1,1.6-1.7,1.9-2.1c0.3-0.4,0.5-0.7,0.6-1.1c0.1-0.3,0.2-0.7,0.2-1
			c0-0.5-0.1-0.9-0.4-1.2c-0.3-0.3-0.7-0.4-1.2-0.4c-0.5,0-1,0.1-1.5,0.4c-0.5,0.2-1,0.6-1.5,1l-1.5-1.8c0.6-0.6,1.2-0.9,1.6-1.2
			c0.4-0.2,0.9-0.4,1.4-0.5c0.5-0.1,1.1-0.2,1.7-0.2c0.8,0,1.5,0.1,2.2,0.4c0.6,0.3,1.1,0.7,1.5,1.3c0.3,0.5,0.5,1.2,0.5,1.9
			c0,0.6-0.1,1.2-0.3,1.7c-0.2,0.5-0.5,1.1-1,1.6c-0.4,0.6-1.2,1.4-2.4,2.4l-1.7,1.6v0.1h5.7V43.4z"/>
		<path fill="#1C5C85" d="M285.4,33.2c0,0.8-0.2,1.5-0.7,2.1c-0.5,0.6-1.2,1-2.1,1.2v0.1c1.1,0.1,1.9,0.5,2.4,1s0.8,1.2,0.8,2.1
			c0,1.3-0.5,2.2-1.4,3c-0.9,0.7-2.2,1.1-3.9,1.1c-1.4,0-2.7-0.2-3.8-0.7v-2.4c0.5,0.3,1.1,0.5,1.7,0.6c0.6,0.2,1.2,0.2,1.8,0.2
			c0.9,0,1.6-0.2,2-0.5s0.7-0.8,0.7-1.5c0-0.6-0.3-1.1-0.8-1.3c-0.5-0.3-1.3-0.4-2.4-0.4h-1v-2.1h1c1,0,1.8-0.1,2.2-0.4
			c0.5-0.3,0.7-0.7,0.7-1.4c0-1-0.6-1.5-1.9-1.5c-0.4,0-0.9,0.1-1.3,0.2c-0.4,0.1-0.9,0.4-1.5,0.7l-1.3-1.9c1.2-0.9,2.6-1.3,4.3-1.3
			c1.4,0,2.4,0.3,3.2,0.8S285.4,32.2,285.4,33.2z"/>
	</g>
	<path fill="#1C5C85" d="M185.4,31.5h13.5l-4.3,12.1H181L185.4,31.5z"/>
</g>
<g>
	<g>
		<path fill="#1C5C85" d="M386.9,14l-1.5-11.7h-0.1c0,0.4-0.1,1-0.3,1.8c-0.1,0.8-0.2,1.4-0.3,1.8L383,14h-1.5l2.8-13.1h2.2
			l1.3,10.8h0.1l5.9-10.8h2.4L393.6,14H392c0.8-3.5,1.3-6.3,1.7-8.1s0.7-3.1,0.8-3.5h-0.1L388.1,14H386.9z"/>
		<path fill="#1C5C85" d="M402,4c1.1,0,2,0.3,2.7,1c0.7,0.7,1,1.6,1,2.8c0,1.1-0.2,2.2-0.6,3.2c-0.4,1-1,1.8-1.8,2.3
			c-0.7,0.5-1.6,0.8-2.5,0.8c-1.2,0-2.1-0.3-2.7-1c-0.7-0.7-1-1.6-1-2.8c0-1.1,0.2-2.2,0.7-3.2c0.4-1,1-1.8,1.8-2.3
			C400.3,4.3,401.1,4,402,4z M404.2,7.6c0-0.7-0.2-1.2-0.6-1.7s-0.9-0.6-1.5-0.6c-0.7,0-1.2,0.2-1.8,0.7c-0.5,0.4-0.9,1.1-1.2,1.8
			c-0.3,0.8-0.4,1.7-0.4,2.6c0,0.8,0.2,1.4,0.6,1.8s0.9,0.6,1.6,0.6c0.6,0,1.2-0.2,1.7-0.7s0.9-1.1,1.2-1.9
			C404,9.6,404.2,8.6,404.2,7.6z"/>
		<path fill="#1C5C85" d="M412.3,4c1.2,0,2,0.6,2.5,1.7h0.1c0.1-0.9,0.2-1.8,0.4-2.5L416,0h1.5l-3,14h-1.2l0.2-1.9h-0.1
			c-0.6,0.8-1.2,1.3-1.7,1.6c-0.5,0.3-1.1,0.5-1.6,0.5c-0.8,0-1.5-0.3-2-0.9c-0.5-0.6-0.7-1.4-0.7-2.4c0-1.3,0.2-2.5,0.6-3.5
			s1-1.9,1.7-2.5C410.6,4.3,411.4,4,412.3,4z M410.6,12.9c0.6,0,1.1-0.3,1.7-0.8c0.6-0.6,1.1-1.3,1.4-2.1c0.4-0.9,0.5-1.8,0.5-2.7
			c0-0.7-0.2-1.2-0.5-1.5s-0.8-0.5-1.4-0.5c-0.6,0-1.2,0.2-1.7,0.7c-0.5,0.5-0.9,1.2-1.2,2.1c-0.3,0.9-0.5,1.8-0.5,2.8
			C409,12.2,409.5,12.9,410.6,12.9z"/>
		<path fill="#1C5C85" d="M421.6,14.2c-1.1,0-2-0.3-2.6-1c-0.6-0.7-0.9-1.6-0.9-2.7c0-1.1,0.2-2.2,0.7-3.2s1-1.8,1.8-2.4
			c0.7-0.6,1.6-0.9,2.4-0.9c0.9,0,1.6,0.2,2.1,0.6c0.5,0.4,0.7,1,0.7,1.7c0,1.1-0.5,1.9-1.5,2.5c-1,0.6-2.4,0.9-4.3,0.9h-0.3l0,0.7
			c0,0.8,0.2,1.4,0.6,1.8s0.9,0.7,1.7,0.7c0.4,0,0.8-0.1,1.2-0.2c0.4-0.1,0.9-0.3,1.5-0.6v1.3c-0.6,0.3-1.1,0.4-1.5,0.6
			S422.2,14.2,421.6,14.2z M422.9,5.2c-0.6,0-1.2,0.3-1.7,0.8s-1,1.3-1.2,2.3h0.1c1.4,0,2.4-0.2,3.1-0.5s1.1-0.9,1.1-1.6
			c0-0.3-0.1-0.6-0.3-0.8C423.7,5.3,423.4,5.2,422.9,5.2z"/>
		<path fill="#1C5C85" d="M428.3,14h-1.5l3-14h1.5L428.3,14z"/>
		<path fill="#1C5C85" d="M437.8,14l4.9-10.8h-6.5V0.9h9.4v1.7l-5,11.4H437.8z"/>
		<path fill="#1C5C85" d="M456.2,14H447v-1.9l3.3-3.3c1-1,1.6-1.7,1.9-2.1c0.3-0.4,0.5-0.7,0.6-1.1s0.2-0.7,0.2-1
			c0-0.5-0.1-0.9-0.4-1.2S451.9,3,451.5,3c-0.5,0-1,0.1-1.5,0.4c-0.5,0.2-1,0.6-1.5,1L447,2.5c0.6-0.6,1.2-0.9,1.6-1.2
			c0.4-0.2,0.9-0.4,1.4-0.5c0.5-0.1,1.1-0.2,1.7-0.2c0.8,0,1.5,0.1,2.2,0.4c0.6,0.3,1.1,0.7,1.5,1.3c0.3,0.5,0.5,1.2,0.5,1.9
			c0,0.6-0.1,1.2-0.3,1.7c-0.2,0.5-0.5,1.1-1,1.6s-1.2,1.4-2.4,2.4l-1.7,1.6v0.1h5.7V14z"/>
		<path fill="#1C5C85" d="M467,11.3h-1.6V14h-2.7v-2.7h-5.6V9.3l5.8-8.5h2.6v8.3h1.6V11.3z M462.7,9.1V6.9c0-0.4,0-0.9,0-1.6
			c0-0.7,0.1-1.1,0.1-1.2h-0.1c-0.2,0.5-0.5,1-0.8,1.4l-2.4,3.6H462.7z"/>
	</g>
	<path fill="#8DC63F" d="M365,2.1h13.5l-4.3,12.1h-13.5L365,2.1z"/>
</g>
<g>
	<g>
		<path fill="#1C5C85" d="M386.7,43.4l-1.5-11.7h-0.1c0,0.4-0.1,1-0.3,1.8c-0.1,0.8-0.2,1.4-0.3,1.8l-1.7,8.1h-1.5l2.8-13.1h2.2
			l1.3,10.8h0.1l5.9-10.8h2.4l-2.7,13.1h-1.6c0.8-3.5,1.3-6.3,1.7-8.1c0.4-1.9,0.7-3.1,0.8-3.5h-0.1l-6.4,11.7H386.7z"/>
		<path fill="#1C5C85" d="M401.9,33.4c1.1,0,2,0.3,2.7,1c0.7,0.7,1,1.6,1,2.8c0,1.1-0.2,2.2-0.6,3.2c-0.4,1-1,1.8-1.8,2.3
			c-0.7,0.5-1.6,0.8-2.5,0.8c-1.2,0-2.1-0.3-2.7-1s-1-1.6-1-2.8c0-1.1,0.2-2.2,0.7-3.2c0.4-1,1-1.8,1.8-2.3S400.9,33.4,401.9,33.4z
			 M404,37c0-0.7-0.2-1.2-0.6-1.7c-0.4-0.4-0.9-0.6-1.5-0.6c-0.7,0-1.2,0.2-1.8,0.7c-0.5,0.4-0.9,1.1-1.2,1.8
			c-0.3,0.8-0.4,1.7-0.4,2.6c0,0.8,0.2,1.4,0.6,1.8s0.9,0.6,1.6,0.6c0.6,0,1.2-0.2,1.7-0.7s0.9-1.1,1.2-1.9
			C403.8,39,404,38.1,404,37z"/>
		<path fill="#1C5C85" d="M412.1,33.4c1.2,0,2,0.6,2.5,1.7h0.1c0.1-0.9,0.2-1.8,0.4-2.5l0.7-3.2h1.5l-3,14h-1.2l0.2-1.9h-0.1
			c-0.6,0.8-1.2,1.3-1.7,1.6c-0.5,0.3-1.1,0.5-1.6,0.5c-0.8,0-1.5-0.3-2-0.9c-0.5-0.6-0.7-1.4-0.7-2.4c0-1.3,0.2-2.5,0.6-3.5
			s1-1.9,1.7-2.5C410.4,33.7,411.2,33.4,412.1,33.4z M410.4,42.3c0.6,0,1.1-0.3,1.7-0.8c0.6-0.6,1.1-1.3,1.4-2.1s0.5-1.8,0.5-2.7
			c0-0.7-0.2-1.2-0.5-1.5c-0.3-0.3-0.8-0.5-1.4-0.5c-0.6,0-1.2,0.2-1.7,0.7c-0.5,0.5-0.9,1.2-1.2,2.1c-0.3,0.9-0.5,1.8-0.5,2.8
			C408.8,41.7,409.4,42.3,410.4,42.3z"/>
		<path fill="#1C5C85" d="M421.5,43.6c-1.1,0-2-0.3-2.6-1c-0.6-0.7-0.9-1.6-0.9-2.7c0-1.1,0.2-2.2,0.7-3.2c0.4-1,1-1.8,1.8-2.4
			c0.7-0.6,1.5-0.9,2.4-0.9c0.9,0,1.6,0.2,2.1,0.6s0.7,1,0.7,1.7c0,1.1-0.5,1.9-1.5,2.5c-1,0.6-2.4,0.9-4.3,0.9h-0.3l0,0.7
			c0,0.8,0.2,1.4,0.6,1.8c0.4,0.4,0.9,0.7,1.7,0.7c0.4,0,0.8-0.1,1.2-0.2c0.4-0.1,0.9-0.3,1.5-0.6v1.3c-0.6,0.3-1.1,0.4-1.5,0.6
			S422,43.6,421.5,43.6z M422.7,34.7c-0.6,0-1.2,0.3-1.7,0.8s-1,1.3-1.2,2.3h0.1c1.4,0,2.4-0.2,3.1-0.5s1.1-0.9,1.1-1.6
			c0-0.3-0.1-0.6-0.3-0.8C423.5,34.8,423.2,34.7,422.7,34.7z"/>
		<path fill="#1C5C85" d="M428.1,43.4h-1.5l3-14h1.5L428.1,43.4z"/>
		<path fill="#1C5C85" d="M437.6,43.4l4.9-10.8h-6.5v-2.3h9.4V32l-5,11.4H437.6z"/>
		<path fill="#1C5C85" d="M456,43.4h-9.2v-1.9l3.3-3.3c1-1,1.6-1.7,1.9-2.1c0.3-0.4,0.5-0.7,0.6-1.1c0.1-0.3,0.2-0.7,0.2-1
			c0-0.5-0.1-0.9-0.4-1.2c-0.3-0.3-0.7-0.4-1.2-0.4c-0.5,0-1,0.1-1.5,0.4c-0.5,0.2-1,0.6-1.5,1l-1.5-1.8c0.6-0.6,1.2-0.9,1.6-1.2
			c0.4-0.2,0.9-0.4,1.4-0.5c0.5-0.1,1.1-0.2,1.7-0.2c0.8,0,1.5,0.1,2.2,0.4c0.6,0.3,1.1,0.7,1.5,1.3c0.3,0.5,0.5,1.2,0.5,1.9
			c0,0.6-0.1,1.2-0.3,1.7c-0.2,0.5-0.5,1.1-1,1.6c-0.4,0.6-1.2,1.4-2.4,2.4l-1.7,1.6v0.1h5.7V43.4z"/>
		<path fill="#1C5C85" d="M462.1,35c1.3,0,2.3,0.4,3,1.1c0.8,0.7,1.1,1.7,1.1,2.9c0,1.5-0.5,2.6-1.4,3.4c-0.9,0.8-2.2,1.2-3.9,1.2
			c-1.5,0-2.6-0.2-3.5-0.7v-2.4c0.5,0.3,1,0.5,1.7,0.6c0.6,0.2,1.2,0.2,1.8,0.2c1.7,0,2.5-0.7,2.5-2.1c0-1.3-0.9-2-2.6-2
			c-0.3,0-0.7,0-1.1,0.1c-0.4,0.1-0.7,0.1-0.9,0.2l-1.1-0.6l0.5-6.7h7.1v2.4h-4.7l-0.2,2.6l0.3-0.1C461.1,35.1,461.6,35,462.1,35z"
			/>
	</g>
	<path fill="#4F9B1E" d="M365.5,31.5H379l-4.4,12.1h-13.5L365.5,31.5z"/>
</g>
<g>
	<g>
		<path fill="#1C5C85" d="M566.4,14l-1.5-11.7h-0.1c0,0.4-0.1,1-0.3,1.8c-0.1,0.8-0.2,1.4-0.3,1.8l-1.7,8.1h-1.5l2.8-13.1h2.2
			l1.3,10.8h0.1l5.9-10.8h2.4L573.1,14h-1.6c0.8-3.5,1.3-6.3,1.7-8.1c0.4-1.9,0.7-3.1,0.8-3.5H574L567.6,14H566.4z"/>
		<path fill="#1C5C85" d="M581.5,4c1.1,0,2,0.3,2.7,1c0.7,0.7,1,1.6,1,2.8c0,1.1-0.2,2.2-0.6,3.2c-0.4,1-1,1.8-1.8,2.3
			c-0.7,0.5-1.6,0.8-2.5,0.8c-1.2,0-2.1-0.3-2.7-1s-1-1.6-1-2.8c0-1.1,0.2-2.2,0.7-3.2c0.4-1,1-1.8,1.8-2.3S580.6,4,581.5,4z
			 M583.6,7.6c0-0.7-0.2-1.2-0.6-1.7c-0.4-0.4-0.9-0.6-1.5-0.6c-0.7,0-1.2,0.2-1.8,0.7c-0.5,0.4-0.9,1.1-1.2,1.8
			c-0.3,0.8-0.4,1.7-0.4,2.6c0,0.8,0.2,1.4,0.6,1.8s0.9,0.6,1.6,0.6c0.6,0,1.2-0.2,1.7-0.7s0.9-1.1,1.2-1.9
			C583.5,9.6,583.6,8.6,583.6,7.6z"/>
		<path fill="#1C5C85" d="M591.8,4c1.2,0,2,0.6,2.5,1.7h0.1c0.1-0.9,0.2-1.8,0.4-2.5l0.7-3.2h1.5l-3,14h-1.2l0.2-1.9h-0.1
			c-0.6,0.8-1.2,1.3-1.7,1.6c-0.5,0.3-1.1,0.5-1.6,0.5c-0.8,0-1.5-0.3-2-0.9c-0.5-0.6-0.7-1.4-0.7-2.4c0-1.3,0.2-2.5,0.6-3.5
			s1-1.9,1.7-2.5C590.1,4.3,590.9,4,591.8,4z M590.1,12.9c0.6,0,1.1-0.3,1.7-0.8c0.6-0.6,1.1-1.3,1.4-2.1s0.5-1.8,0.5-2.7
			c0-0.7-0.2-1.2-0.5-1.5c-0.3-0.3-0.8-0.5-1.4-0.5c-0.6,0-1.2,0.2-1.7,0.7c-0.5,0.5-0.9,1.2-1.2,2.1c-0.3,0.9-0.5,1.8-0.5,2.8
			C588.5,12.2,589,12.9,590.1,12.9z"/>
		<path fill="#1C5C85" d="M601.1,14.2c-1.1,0-2-0.3-2.6-1c-0.6-0.7-0.9-1.6-0.9-2.7c0-1.1,0.2-2.2,0.7-3.2c0.4-1,1-1.8,1.8-2.4
			c0.7-0.6,1.5-0.9,2.4-0.9c0.9,0,1.6,0.2,2.1,0.6s0.7,1,0.7,1.7c0,1.1-0.5,1.9-1.5,2.5c-1,0.6-2.4,0.9-4.3,0.9h-0.3l0,0.7
			c0,0.8,0.2,1.4,0.6,1.8c0.4,0.4,0.9,0.7,1.7,0.7c0.4,0,0.8-0.1,1.2-0.2c0.4-0.1,0.9-0.3,1.5-0.6v1.3c-0.6,0.3-1.1,0.4-1.5,0.6
			S601.6,14.2,601.1,14.2z M602.4,5.2c-0.6,0-1.2,0.3-1.7,0.8s-1,1.3-1.2,2.3h0.1c1.4,0,2.4-0.2,3.1-0.5s1.1-0.9,1.1-1.6
			c0-0.3-0.1-0.6-0.3-0.8C603.2,5.3,602.8,5.2,602.4,5.2z"/>
		<path fill="#1C5C85" d="M607.8,14h-1.5l3-14h1.5L607.8,14z"/>
		<path fill="#1C5C85" d="M617.3,14l4.9-10.8h-6.5V0.9h9.4v1.7l-5,11.4H617.3z"/>
		<path fill="#1C5C85" d="M635.7,14h-9.2v-1.9l3.3-3.3c1-1,1.6-1.7,1.9-2.1c0.3-0.4,0.5-0.7,0.6-1.1c0.1-0.3,0.2-0.7,0.2-1
			c0-0.5-0.1-0.9-0.4-1.2C631.8,3.1,631.4,3,631,3c-0.5,0-1,0.1-1.5,0.4c-0.5,0.2-1,0.6-1.5,1l-1.5-1.8c0.6-0.6,1.2-0.9,1.6-1.2
			c0.4-0.2,0.9-0.4,1.4-0.5c0.5-0.1,1.1-0.2,1.7-0.2c0.8,0,1.5,0.1,2.2,0.4c0.6,0.3,1.1,0.7,1.5,1.3c0.3,0.5,0.5,1.2,0.5,1.9
			c0,0.6-0.1,1.2-0.3,1.7c-0.2,0.5-0.5,1.1-1,1.6c-0.4,0.6-1.2,1.4-2.4,2.4l-1.7,1.6v0.1h5.7V14z"/>
		<path fill="#1C5C85" d="M636.9,8.4c0-2.6,0.5-4.5,1.7-5.8s2.7-1.9,4.9-1.9c0.8,0,1.3,0,1.8,0.1V3c-0.5-0.1-1.1-0.2-1.6-0.2
			c-1,0-1.7,0.1-2.3,0.4S640.3,4,640,4.6s-0.5,1.4-0.5,2.4h0.1c0.6-1,1.5-1.5,2.9-1.5c1.2,0,2.1,0.4,2.8,1.1c0.7,0.7,1,1.8,1,3.1
			c0,1.4-0.4,2.5-1.2,3.3c-0.8,0.8-1.9,1.2-3.3,1.2c-1,0-1.8-0.2-2.5-0.7c-0.7-0.4-1.3-1.1-1.7-2S636.9,9.6,636.9,8.4z M641.7,12
			c0.6,0,1-0.2,1.4-0.6c0.3-0.4,0.5-1,0.5-1.7c0-0.6-0.1-1.1-0.4-1.5c-0.3-0.4-0.7-0.6-1.3-0.6c-0.6,0-1,0.2-1.4,0.5
			c-0.4,0.4-0.6,0.8-0.6,1.3c0,0.7,0.2,1.3,0.6,1.8C640.6,11.7,641.1,12,641.7,12z"/>
	</g>
	<path fill="#543D78" d="M545.4,2.1h13.5l-4.3,12.1h-13.5L545.4,2.1z"/>
</g>
<g>
	<g>
		<path fill="#1C5C85" d="M567.5,43.4L566,31.8h-0.1c0,0.4-0.1,1-0.3,1.8c-0.1,0.8-0.2,1.4-0.3,1.8l-1.7,8.1h-1.5l2.8-13.1h2.2
			l1.3,10.8h0.1l5.9-10.8h2.4l-2.7,13.1h-1.6c0.8-3.5,1.3-6.3,1.7-8.1c0.4-1.9,0.7-3.1,0.8-3.5h-0.1l-6.4,11.7H567.5z"/>
		<path fill="#1C5C85" d="M582.6,33.4c1.1,0,2,0.3,2.7,1c0.7,0.7,1,1.6,1,2.8c0,1.1-0.2,2.2-0.6,3.2c-0.4,1-1,1.8-1.8,2.3
			c-0.7,0.5-1.6,0.8-2.5,0.8c-1.2,0-2.1-0.3-2.7-1s-1-1.6-1-2.8c0-1.1,0.2-2.2,0.7-3.2c0.4-1,1-1.8,1.8-2.3S581.7,33.4,582.6,33.4z
			 M584.7,37c0-0.7-0.2-1.2-0.6-1.7c-0.4-0.4-0.9-0.6-1.5-0.6c-0.7,0-1.2,0.2-1.8,0.7c-0.5,0.4-0.9,1.1-1.2,1.8
			c-0.3,0.8-0.4,1.7-0.4,2.6c0,0.8,0.2,1.4,0.6,1.8s0.9,0.6,1.6,0.6c0.6,0,1.2-0.2,1.7-0.7s0.9-1.1,1.2-1.9
			C584.6,39,584.7,38.1,584.7,37z"/>
		<path fill="#1C5C85" d="M592.9,33.4c1.2,0,2,0.6,2.5,1.7h0.1c0.1-0.9,0.2-1.8,0.4-2.5l0.7-3.2h1.5l-3,14h-1.2l0.2-1.9H594
			c-0.6,0.8-1.2,1.3-1.7,1.6c-0.5,0.3-1.1,0.5-1.6,0.5c-0.8,0-1.5-0.3-2-0.9c-0.5-0.6-0.7-1.4-0.7-2.4c0-1.3,0.2-2.5,0.6-3.5
			s1-1.9,1.7-2.5C591.2,33.7,592,33.4,592.9,33.4z M591.2,42.3c0.6,0,1.1-0.3,1.7-0.8c0.6-0.6,1.1-1.3,1.4-2.1s0.5-1.8,0.5-2.7
			c0-0.7-0.2-1.2-0.5-1.5c-0.3-0.3-0.8-0.5-1.4-0.5c-0.6,0-1.2,0.2-1.7,0.7c-0.5,0.5-0.9,1.2-1.2,2.1c-0.3,0.9-0.5,1.8-0.5,2.8
			C589.6,41.7,590.1,42.3,591.2,42.3z"/>
		<path fill="#1C5C85" d="M602.2,43.6c-1.1,0-2-0.3-2.6-1c-0.6-0.7-0.9-1.6-0.9-2.7c0-1.1,0.2-2.2,0.7-3.2c0.4-1,1-1.8,1.8-2.4
			c0.7-0.6,1.5-0.9,2.4-0.9c0.9,0,1.6,0.2,2.1,0.6s0.7,1,0.7,1.7c0,1.1-0.5,1.9-1.5,2.5c-1,0.6-2.4,0.9-4.3,0.9h-0.3l0,0.7
			c0,0.8,0.2,1.4,0.6,1.8c0.4,0.4,0.9,0.7,1.7,0.7c0.4,0,0.8-0.1,1.2-0.2c0.4-0.1,0.9-0.3,1.5-0.6v1.3c-0.6,0.3-1.1,0.4-1.5,0.6
			S602.7,43.6,602.2,43.6z M603.5,34.7c-0.6,0-1.2,0.3-1.7,0.8s-1,1.3-1.2,2.3h0.1c1.4,0,2.4-0.2,3.1-0.5s1.1-0.9,1.1-1.6
			c0-0.3-0.1-0.6-0.3-0.8C604.3,34.8,603.9,34.7,603.5,34.7z"/>
		<path fill="#1C5C85" d="M608.9,43.4h-1.5l3-14h1.5L608.9,43.4z"/>
		<path fill="#1C5C85" d="M618.4,43.4l4.9-10.8h-6.5v-2.3h9.4V32l-5,11.4H618.4z"/>
		<path fill="#1C5C85" d="M636.8,43.4h-9.2v-1.9l3.3-3.3c1-1,1.6-1.7,1.9-2.1c0.3-0.4,0.5-0.7,0.6-1.1c0.1-0.3,0.2-0.7,0.2-1
			c0-0.5-0.1-0.9-0.4-1.2c-0.3-0.3-0.7-0.4-1.2-0.4c-0.5,0-1,0.1-1.5,0.4c-0.5,0.2-1,0.6-1.5,1l-1.5-1.8c0.6-0.6,1.2-0.9,1.6-1.2
			c0.4-0.2,0.9-0.4,1.4-0.5c0.5-0.1,1.1-0.2,1.7-0.2c0.8,0,1.5,0.1,2.2,0.4c0.6,0.3,1.1,0.7,1.5,1.3c0.3,0.5,0.5,1.2,0.5,1.9
			c0,0.6-0.1,1.2-0.3,1.7c-0.2,0.5-0.5,1.1-1,1.6c-0.4,0.6-1.2,1.4-2.4,2.4l-1.7,1.6v0.1h5.7V43.4z"/>
		<path fill="#1C5C85" d="M639.4,43.4l4.9-10.8h-6.5v-2.3h9.4V32l-5,11.4H639.4z"/>
	</g>
	<path fill="#86B8E0" d="M545.4,31.5h13.5l-4.3,12.1h-13.5L545.4,31.5z"/>
</g>
</svg>
