<?xml version="1.0" encoding="utf-8"?>
<!-- Generator: Adobe Illustrator 18.1.1, SVG Export Plug-In . SVG Version: 6.00 Build 0)  -->
<svg version="1.1" id="Layer_1" xmlns="http://www.w3.org/2000/svg" xmlns:xlink="http://www.w3.org/1999/xlink" x="0px" y="0px"
	 viewBox="-843 518.7 429.7 41.7" enable-background="new -843 518.7 429.7 41.7" xml:space="preserve">
<polygon fill="#FFFFFF" points="-841.8,519 -842.3,521.4 -838.1,521.4 -840.6,533.3 -837.7,533.3 -835.2,521.4 -831,521.4 
	-830.6,519 "/>
<polygon fill="#FFFFFF" points="-820.2,519 -821.3,524.5 -826.9,524.5 -825.7,519 -828.6,519 -831.6,533.3 -828.7,533.3 
	-827.4,526.9 -821.8,526.9 -823.2,533.3 -820.2,533.3 -817.2,519 "/>
<polygon fill="#FFFFFF" points="-814.3,519 -817.3,533.3 -806.1,533.3 -805.6,530.9 -813.9,530.9 -813,527 -805.6,527 -805.1,524.6 
	-812.5,524.6 -811.8,521.4 -804.1,521.4 -803.6,519 "/>
<g>
	<defs>
		<rect id="SVGID_1_" x="-843" y="518.7" width="429.7" height="41.7"/>
	</defs>
	<clipPath id="SVGID_2_">
		<use xlink:href="#SVGID_1_"  overflow="visible"/>
	</clipPath>
	<path clip-path="url(#SVGID_2_)" fill="#FFFFFF" d="M-799.2,525.2h1.6c1.6,0,2.6-0.1,3.1-0.3c0.5-0.2,0.9-0.5,1.2-0.9
		c0.3-0.4,0.4-0.8,0.4-1.3c0-0.5-0.2-0.9-0.6-1.2c-0.3-0.2-0.8-0.2-1.7-0.2h-3.2L-799.2,525.2z M-800.9,533.3h-2.9l3-14.3h6.4
		c1.1,0,1.9,0.1,2.6,0.3c0.6,0.2,1.1,0.6,1.5,1.2c0.4,0.6,0.6,1.3,0.6,2.2c0,1.2-0.4,2.2-1.1,3s-1.8,1.3-3.3,1.5
		c0.4,0.3,0.7,0.8,1.1,1.3c0.7,1.1,1.4,2.7,2.2,4.7h-3.2c-0.3-0.8-0.8-2.1-1.5-3.8c-0.4-0.9-0.8-1.5-1.3-1.9
		c-0.3-0.2-0.8-0.3-1.5-0.3h-1.2L-800.9,533.3z"/>
</g>
<polygon fill="#FFFFFF" points="-777,519 -781.8,529 -782.3,519 -786.5,519 -789.5,533.3 -786.8,533.3 -784.5,521.3 -784,533.3 
	-781.2,533.3 -775.6,521.4 -778.4,533.3 -775.7,533.3 -772.7,519 "/>
<path fill="#FFFFFF" d="M-764.6,522l0.8,5.8h-4.3L-764.6,522z M-765.8,519l-8.1,14.3h3l1.7-3.2h5.7l0.5,3.2h2.8l-2.3-14.3H-765.8z"
	/>
<polygon fill="#FFFFFF" points="-756.3,519 -756.8,521.4 -752.6,521.4 -755.1,533.3 -752.1,533.3 -749.6,521.4 -745.5,521.4 
	-745,519 "/>
<g>
	<defs>
		<rect id="SVGID_3_" x="-843" y="518.7" width="429.7" height="41.7"/>
	</defs>
	<clipPath id="SVGID_4_">
		<use xlink:href="#SVGID_3_"  overflow="visible"/>
	</clipPath>
	<path clip-path="url(#SVGID_4_)" fill="#FFFFFF" d="M-741.4,525.2h1.6c1.6,0,2.6-0.1,3.1-0.3c0.5-0.2,0.9-0.5,1.2-0.9
		c0.3-0.4,0.4-0.8,0.4-1.3c0-0.5-0.2-0.9-0.6-1.2c-0.3-0.2-0.8-0.2-1.7-0.2h-3.2L-741.4,525.2z M-743.1,533.3h-2.9l3-14.3h6.4
		c1.1,0,1.9,0.1,2.6,0.3c0.6,0.2,1.1,0.6,1.5,1.2c0.4,0.6,0.6,1.3,0.6,2.2c0,1.2-0.4,2.2-1.1,3s-1.8,1.3-3.3,1.5
		c0.4,0.3,0.7,0.8,1.1,1.3c0.7,1.1,1.4,2.7,2.2,4.7h-3.2c-0.3-0.8-0.8-2.1-1.5-3.8c-0.4-0.9-0.8-1.5-1.3-1.9
		c-0.3-0.2-0.8-0.3-1.5-0.3h-1.2L-743.1,533.3z"/>
	<path clip-path="url(#SVGID_4_)" fill="#FFFFFF" d="M-727.9,527.6c0,1,0.3,1.8,0.9,2.5c0.6,0.7,1.4,1,2.4,1c0.8,0,1.6-0.3,2.3-0.8
		c0.7-0.5,1.3-1.3,1.8-2.4c0.5-1.1,0.7-2.1,0.7-3.1c0-1.1-0.3-2-0.9-2.7c-0.6-0.6-1.4-1-2.3-1c-1.4,0-2.6,0.7-3.5,2
		C-727.4,524.5-727.9,526-727.9,527.6 M-730.8,527.7c0-0.8,0.1-1.7,0.4-2.7c0.3-1.3,0.8-2.3,1.5-3.3c0.7-0.9,1.5-1.7,2.6-2.2
		c1-0.5,2.2-0.8,3.5-0.8c1.8,0,3.2,0.5,4.3,1.6c1.1,1.1,1.6,2.6,1.6,4.4c0,1.5-0.4,3-1.1,4.4c-0.7,1.4-1.7,2.5-2.9,3.3
		c-1.2,0.8-2.6,1.1-4.1,1.1c-1.3,0-2.5-0.3-3.4-0.9c-0.9-0.6-1.5-1.4-1.9-2.3C-730.6,529.5-730.8,528.6-730.8,527.7"/>
</g>
<polygon fill="#FFFFFF" points="-704.4,519 -706.4,528.6 -710.3,519 -713.1,519 -716.1,533.3 -713.3,533.3 -711.3,523.7 
	-707.4,533.3 -704.7,533.3 -701.7,519 "/>
<polygon fill="#FFFFFF" points="-693.2,519 -696.1,533.3 -685,533.3 -684.5,530.9 -692.8,530.9 -691.9,527 -684.5,527 -684,524.6 
	-691.4,524.6 -690.7,521.4 -683,521.4 -682.5,519 "/>
<polygon fill="#FFFFFF" points="-671.1,519 -673.1,528.6 -677,519 -679.7,519 -682.7,533.3 -680,533.3 -678,523.7 -674.1,533.3 
	-671.4,533.3 -668.4,519 "/>
<g>
	<defs>
		<rect id="SVGID_5_" x="-843" y="518.7" width="429.7" height="41.7"/>
	</defs>
	<clipPath id="SVGID_6_">
		<use xlink:href="#SVGID_5_"  overflow="visible"/>
	</clipPath>
	<path clip-path="url(#SVGID_6_)" fill="#FFFFFF" d="M-660.4,525.6h6.4l-1.3,6.1c-0.8,0.5-1.7,0.9-2.8,1.2s-2.2,0.5-3.4,0.5
		c-1.8,0-3.1-0.4-4.1-1.2c-1.3-1.1-1.9-2.7-1.9-4.8c0-1.4,0.3-2.7,0.8-4c0.7-1.5,1.6-2.7,2.8-3.6c1.2-0.8,2.7-1.3,4.3-1.3
		c1.7,0,3,0.4,4,1.2c1,0.8,1.7,1.9,2,3.4l-2.7,0.3c-0.2-0.8-0.6-1.4-1.2-1.8c-0.5-0.4-1.2-0.6-2-0.6c-1,0-1.8,0.2-2.6,0.7
		c-0.8,0.5-1.4,1.3-1.9,2.3c-0.4,1-0.7,2.2-0.7,3.4c0,1.2,0.3,2.1,0.8,2.7c0.5,0.6,1.3,0.9,2.4,0.9c0.6,0,1.3-0.1,1.9-0.3
		c0.7-0.2,1.2-0.4,1.7-0.6l0.4-2.1h-3.7L-660.4,525.6z"/>
</g>
<polygon fill="#FFFFFF" points="-649.9,519 -652.9,533.3 -650,533.3 -647,519 "/>
<polygon fill="#FFFFFF" points="-635.6,519 -637.6,528.6 -641.4,519 -644.2,519 -647.2,533.3 -644.4,533.3 -642.4,523.7 
	-638.5,533.3 -635.8,533.3 -632.8,519 "/>
<polygon fill="#FFFFFF" points="-629.8,519 -632.8,533.3 -621.6,533.3 -621.1,530.9 -629.4,530.9 -628.5,527 -621.1,527 
	-620.6,524.6 -628.1,524.6 -627.4,521.4 -619.7,521.4 -619.2,519 "/>
<polygon fill="#FFFFFF" points="-616.5,519 -619.5,533.3 -608.3,533.3 -607.8,530.9 -616.1,530.9 -615.2,527 -607.8,527 
	-607.3,524.6 -614.7,524.6 -614,521.4 -606.4,521.4 -605.9,519 "/>
<g>
	<defs>
		<rect id="SVGID_7_" x="-843" y="518.7" width="429.7" height="41.7"/>
	</defs>
	<clipPath id="SVGID_8_">
		<use xlink:href="#SVGID_7_"  overflow="visible"/>
	</clipPath>
	<path clip-path="url(#SVGID_8_)" fill="#FFFFFF" d="M-601.4,525.2h1.6c1.6,0,2.6-0.1,3.1-0.3c0.5-0.2,0.9-0.5,1.2-0.9
		c0.3-0.4,0.4-0.8,0.4-1.3c0-0.5-0.2-0.9-0.6-1.2c-0.3-0.2-0.8-0.2-1.7-0.2h-3.2L-601.4,525.2z M-603.1,533.3h-2.9l3-14.3h6.4
		c1.1,0,1.9,0.1,2.6,0.3c0.6,0.2,1.1,0.6,1.5,1.2c0.4,0.6,0.6,1.3,0.6,2.2c0,1.2-0.4,2.2-1.1,3c-0.7,0.8-1.8,1.3-3.3,1.5
		c0.4,0.3,0.7,0.8,1.1,1.3c0.7,1.1,1.4,2.7,2.2,4.7h-3.2c-0.3-0.8-0.8-2.1-1.5-3.8c-0.4-0.9-0.8-1.5-1.3-1.9
		c-0.3-0.2-0.8-0.3-1.5-0.3h-1.2L-603.1,533.3z"/>
</g>
<polygon fill="#FFFFFF" points="-588.8,519 -591.8,533.3 -588.9,533.3 -585.9,519 "/>
<polygon fill="#FFFFFF" points="-574.4,519 -576.4,528.6 -580.3,519 -583.1,519 -586,533.3 -583.3,533.3 -581.3,523.7 -577.4,533.3 
	-574.7,533.3 -571.7,519 "/>
<g>
	<defs>
		<rect id="SVGID_9_" x="-843" y="518.7" width="429.7" height="41.7"/>
	</defs>
	<clipPath id="SVGID_10_">
		<use xlink:href="#SVGID_9_"  overflow="visible"/>
	</clipPath>
	<path clip-path="url(#SVGID_10_)" fill="#FFFFFF" d="M-563.7,525.6h6.4l-1.3,6.1c-0.8,0.5-1.7,0.9-2.8,1.2
		c-1.1,0.3-2.2,0.5-3.4,0.5c-1.8,0-3.1-0.4-4.1-1.2c-1.3-1.1-1.9-2.7-1.9-4.8c0-1.4,0.3-2.7,0.8-4c0.7-1.5,1.6-2.7,2.8-3.6
		c1.2-0.8,2.7-1.3,4.3-1.3c1.7,0,3,0.4,4,1.2c1,0.8,1.7,1.9,2,3.4l-2.7,0.3c-0.2-0.8-0.6-1.4-1.2-1.8c-0.5-0.4-1.2-0.6-2-0.6
		c-1,0-1.8,0.2-2.6,0.7s-1.4,1.3-1.9,2.3c-0.4,1-0.7,2.2-0.7,3.4c0,1.2,0.3,2.1,0.8,2.7c0.5,0.6,1.3,0.9,2.4,0.9
		c0.6,0,1.3-0.1,1.9-0.3c0.7-0.2,1.2-0.4,1.7-0.6l0.4-2.1h-3.7L-563.7,525.6z"/>
	<path clip-path="url(#SVGID_10_)" fill="#FFFFFF" d="M-555.5,530.6h2.8l-0.5,2.2c-0.3,1.3-0.7,2.2-1.3,2.7
		c-0.6,0.5-1.4,0.8-2.3,0.8l0.3-1.3c0.5-0.1,0.8-0.3,1.1-0.6c0.3-0.3,0.4-0.7,0.6-1.2h-1.3L-555.5,530.6z"/>
</g>
<polygon fill="#FFFFFF" points="-542.1,519 -545.1,533.3 -542.2,533.3 -539.2,519 "/>
<polygon fill="#FFFFFF" points="-527.8,519 -529.8,528.6 -533.6,519 -536.4,519 -539.4,533.3 -536.6,533.3 -534.6,523.7 
	-530.8,533.3 -528,533.3 -525,519 "/>
<g>
	<defs>
		<rect id="SVGID_11_" x="-843" y="518.7" width="429.7" height="41.7"/>
	</defs>
	<clipPath id="SVGID_12_">
		<use xlink:href="#SVGID_11_"  overflow="visible"/>
	</clipPath>
	<path clip-path="url(#SVGID_12_)" fill="#FFFFFF" d="M-514.6,528.1l3,0.4c-0.6,1.6-1.4,2.8-2.6,3.7c-1.2,0.8-2.5,1.3-4.1,1.3
		c-1.8,0-3.1-0.5-4.1-1.6c-1-1.1-1.5-2.6-1.5-4.6c0-1.6,0.3-3.1,1-4.5c0.7-1.4,1.6-2.4,2.7-3.1c1.2-0.7,2.4-1.1,3.8-1.1
		c1.5,0,2.8,0.4,3.8,1.2c1,0.8,1.5,2,1.7,3.4l-2.8,0.3c-0.2-0.8-0.5-1.4-0.9-1.8c-0.4-0.4-1-0.6-1.8-0.6c-0.8,0-1.6,0.2-2.3,0.7
		s-1.3,1.3-1.7,2.3c-0.4,1.1-0.6,2.1-0.6,3.2c0,1.1,0.3,2,0.8,2.7c0.6,0.6,1.2,0.9,2.1,0.9c0.8,0,1.5-0.2,2.1-0.7
		S-515,529.1-514.6,528.1"/>
</g>
<polygon fill="#FFFFFF" points="-509.9,530.6 -507.2,530.6 -507.7,533.3 -510.5,533.3 "/>
<g>
	<defs>
		<rect id="SVGID_13_" x="-843" y="518.7" width="429.7" height="41.7"/>
	</defs>
	<clipPath id="SVGID_14_">
		<use xlink:href="#SVGID_13_"  overflow="visible"/>
	</clipPath>
</g>
<polygon fill="#FFFFFF" points="-679,551.7 -679.3,553.1 -676.8,553.1 -678.3,560.3 -676.5,560.3 -675,553.1 -672.5,553.1 
	-672.2,551.7 "/>
<polygon fill="#FFFFFF" points="-666,551.7 -666.7,555 -670,555 -669.3,551.7 -671.1,551.7 -672.9,560.3 -671.1,560.3 -670.3,556.4 
	-667,556.4 -667.8,560.3 -666,560.3 -664.2,551.7 "/>
<polygon fill="#FFFFFF" points="-662.4,551.7 -664.2,560.3 -657.5,560.3 -657.2,558.9 -662.2,558.9 -661.7,556.5 -657.2,556.5 
	-656.9,555.1 -661.4,555.1 -661,553.1 -656.4,553.1 -656.1,551.7 "/>
<g>
	<defs>
		<rect id="SVGID_15_" x="-843" y="518.7" width="429.7" height="41.7"/>
	</defs>
	<clipPath id="SVGID_16_">
		<use xlink:href="#SVGID_15_"  overflow="visible"/>
	</clipPath>
	<path clip-path="url(#SVGID_16_)" fill="#FFFFFF" d="M-653.4,555.4h0.9c0.9,0,1.6-0.1,1.9-0.2c0.3-0.1,0.6-0.3,0.7-0.5
		c0.2-0.2,0.3-0.5,0.3-0.8c0-0.3-0.1-0.5-0.4-0.7c-0.2-0.1-0.5-0.1-1-0.1h-1.9L-653.4,555.4z M-654.4,560.3h-1.8l1.8-8.6h3.8
		c0.7,0,1.2,0.1,1.5,0.2c0.4,0.1,0.7,0.4,0.9,0.7c0.2,0.4,0.3,0.8,0.3,1.3c0,0.7-0.2,1.3-0.7,1.8c-0.4,0.5-1.1,0.8-2,0.9
		c0.2,0.2,0.4,0.5,0.6,0.8c0.4,0.7,0.8,1.6,1.3,2.8h-1.9c-0.2-0.5-0.5-1.2-0.9-2.3c-0.2-0.6-0.5-0.9-0.8-1.1
		c-0.2-0.1-0.5-0.2-0.9-0.2h-0.7L-654.4,560.3z"/>
</g>
<polygon fill="#FFFFFF" points="-640.1,551.7 -643,557.7 -643.3,551.7 -645.8,551.7 -647.6,560.3 -646,560.3 -644.6,553.1 
	-644.3,560.3 -642.6,560.3 -639.2,553.2 -640.9,560.3 -639.3,560.3 -637.5,551.7 "/>
<path fill="#FFFFFF" d="M-632.7,553.5l0.5,3.5h-2.6L-632.7,553.5z M-633.3,551.7l-4.9,8.6h1.8l1-1.9h3.4l0.3,1.9h1.7l-1.4-8.6
	H-633.3z"/>
<polygon fill="#FFFFFF" points="-627.1,551.7 -628.9,560.3 -622.7,560.3 -622.4,558.9 -626.8,558.9 -625.3,551.7 "/>
<polygon fill="#FFFFFF" points="-610.7,551.7 -613.7,557.7 -613.9,551.7 -616.5,551.7 -618.2,560.3 -616.7,560.3 -615.3,553.1 
	-615,560.3 -613.3,560.3 -609.9,553.2 -611.6,560.3 -610,560.3 -608.2,551.7 "/>
<path fill="#FFFFFF" d="M-603.3,553.5l0.5,3.5h-2.6L-603.3,553.5z M-604,551.7l-4.9,8.6h1.8l1-1.9h3.4l0.3,1.9h1.7l-1.4-8.6H-604z"
	/>
<polygon fill="#FFFFFF" points="-592.6,551.7 -593.8,557.4 -596.1,551.7 -597.7,551.7 -599.5,560.3 -597.9,560.3 -596.7,554.5 
	-594.4,560.3 -592.7,560.3 -590.9,551.7 "/>
<path fill="#FFFFFF" d="M-586,553.5l0.5,3.5h-2.6L-586,553.5z M-586.7,551.7l-4.9,8.6h1.8l1-1.9h3.4l0.3,1.9h1.7l-1.4-8.6H-586.7z"
	/>
<g>
	<defs>
		<rect id="SVGID_17_" x="-843" y="518.7" width="429.7" height="41.7"/>
	</defs>
	<clipPath id="SVGID_18_">
		<use xlink:href="#SVGID_17_"  overflow="visible"/>
	</clipPath>
	<path clip-path="url(#SVGID_18_)" fill="#FFFFFF" d="M-577.5,555.7h3.8l-0.8,3.7c-0.5,0.3-1,0.5-1.7,0.7s-1.3,0.3-2,0.3
		c-1.1,0-1.9-0.2-2.4-0.7c-0.8-0.7-1.2-1.6-1.2-2.9c0-0.8,0.2-1.6,0.5-2.4c0.4-0.9,1-1.6,1.7-2.1c0.7-0.5,1.6-0.8,2.6-0.8
		c1,0,1.8,0.2,2.4,0.7c0.6,0.5,1,1.1,1.2,2l-1.6,0.2c-0.1-0.5-0.4-0.8-0.7-1.1c-0.3-0.2-0.7-0.4-1.2-0.4c-0.6,0-1.1,0.1-1.6,0.4
		c-0.5,0.3-0.8,0.8-1.1,1.4c-0.3,0.6-0.4,1.3-0.4,2c0,0.7,0.2,1.3,0.5,1.6c0.3,0.3,0.8,0.5,1.4,0.5c0.4,0,0.8-0.1,1.2-0.2
		c0.4-0.1,0.7-0.2,1-0.4l0.3-1.3h-2.2L-577.5,555.7z"/>
</g>
<polygon fill="#FFFFFF" points="-571.1,551.7 -572.9,560.3 -566.2,560.3 -565.9,558.9 -570.9,558.9 -570.4,556.5 -565.9,556.5 
	-565.6,555.1 -570.1,555.1 -569.6,553.1 -565.1,553.1 -564.8,551.7 "/>
<polygon fill="#FFFFFF" points="-557.4,551.7 -560.3,557.7 -560.6,551.7 -563.1,551.7 -564.9,560.3 -563.3,560.3 -562,553.1 
	-561.6,560.3 -560,560.3 -556.6,553.2 -558.3,560.3 -556.7,560.3 -554.9,551.7 "/>
<polygon fill="#FFFFFF" points="-553.1,551.7 -554.9,560.3 -548.2,560.3 -547.9,558.9 -552.9,558.9 -552.4,556.5 -547.9,556.5 
	-547.6,555.1 -552.1,555.1 -551.6,553.1 -547.1,553.1 -546.8,551.7 "/>
<polygon fill="#FFFFFF" points="-539.9,551.7 -541.1,557.4 -543.4,551.7 -545.1,551.7 -546.9,560.3 -545.2,560.3 -544,554.5 
	-541.7,560.3 -540,560.3 -538.2,551.7 "/>
<polygon fill="#FFFFFF" points="-537,551.7 -537.3,553.1 -534.8,553.1 -536.3,560.3 -534.5,560.3 -533,553.1 -530.5,553.1 
	-530.2,551.7 "/>
<polygon fill="#FFFFFF" points="-525.8,551.7 -527.6,560.3 -525.8,560.3 -525.1,556.6 -520.9,556.6 -520.6,555.2 -524.8,555.2 
	-524.3,553.1 -520.1,553.1 -519.8,551.7 "/>
<g>
	<defs>
		<rect id="SVGID_19_" x="-843" y="518.7" width="429.7" height="41.7"/>
	</defs>
	<clipPath id="SVGID_20_">
		<use xlink:href="#SVGID_19_"  overflow="visible"/>
	</clipPath>
	<path clip-path="url(#SVGID_20_)" fill="#FFFFFF" d="M-517.9,556.9c0,0.6,0.2,1.1,0.5,1.5c0.4,0.4,0.8,0.6,1.4,0.6
		c0.5,0,0.9-0.2,1.4-0.5c0.4-0.3,0.8-0.8,1.1-1.4c0.3-0.6,0.4-1.3,0.4-1.9c0-0.7-0.2-1.2-0.5-1.6c-0.4-0.4-0.8-0.6-1.4-0.6
		c-0.9,0-1.6,0.4-2.1,1.2C-517.7,555-517.9,555.9-517.9,556.9 M-519.7,556.9c0-0.5,0.1-1,0.2-1.6c0.2-0.8,0.5-1.4,0.9-2
		c0.4-0.6,0.9-1,1.5-1.3s1.3-0.5,2.1-0.5c1.1,0,1.9,0.3,2.6,1c0.7,0.7,1,1.5,1,2.6c0,0.9-0.2,1.8-0.6,2.6c-0.4,0.8-1,1.5-1.7,2
		c-0.7,0.5-1.6,0.7-2.5,0.7c-0.8,0-1.5-0.2-2-0.5c-0.5-0.4-0.9-0.8-1.2-1.4C-519.6,558-519.7,557.5-519.7,556.9"/>
	<path clip-path="url(#SVGID_20_)" fill="#FFFFFF" d="M-508.1,555.4h0.9c0.9,0,1.6-0.1,1.9-0.2c0.3-0.1,0.6-0.3,0.7-0.5
		c0.2-0.2,0.3-0.5,0.3-0.8c0-0.3-0.1-0.5-0.4-0.7c-0.2-0.1-0.5-0.1-1-0.1h-1.9L-508.1,555.4z M-509.1,560.3h-1.8l1.8-8.6h3.8
		c0.7,0,1.2,0.1,1.5,0.2c0.4,0.1,0.7,0.4,0.9,0.7c0.2,0.4,0.3,0.8,0.3,1.3c0,0.7-0.2,1.3-0.7,1.8c-0.4,0.5-1.1,0.8-2,0.9
		c0.2,0.2,0.4,0.5,0.6,0.8c0.4,0.7,0.8,1.6,1.3,2.8h-1.9c-0.2-0.5-0.5-1.2-0.9-2.3c-0.2-0.6-0.5-0.9-0.8-1.1
		c-0.2-0.1-0.5-0.2-0.9-0.2h-0.7L-509.1,560.3z"/>
</g>
<polygon fill="#FFFFFF" points="-497.1,551.7 -498.9,560.3 -492.2,560.3 -491.9,558.9 -496.9,558.9 -496.4,556.5 -491.9,556.5 
	-491.6,555.1 -496.1,555.1 -495.7,553.1 -491.1,553.1 -490.8,551.7 "/>
<polygon fill="#FFFFFF" points="-489.1,551.7 -490.9,560.3 -484.7,560.3 -484.4,558.9 -488.8,558.9 -487.3,551.7 "/>
<polygon fill="#FFFFFF" points="-481.8,551.7 -483.6,560.3 -476.9,560.3 -476.6,558.9 -481.6,558.9 -481,556.5 -476.6,556.5 
	-476.3,555.1 -480.7,555.1 -480.3,553.1 -475.7,553.1 -475.4,551.7 "/>
<g>
	<defs>
		<rect id="SVGID_21_" x="-843" y="518.7" width="429.7" height="41.7"/>
	</defs>
	<clipPath id="SVGID_22_">
		<use xlink:href="#SVGID_21_"  overflow="visible"/>
	</clipPath>
	<path clip-path="url(#SVGID_22_)" fill="#FFFFFF" d="M-469.4,557.2l1.8,0.3c-0.3,1-0.9,1.7-1.6,2.2c-0.7,0.5-1.5,0.8-2.4,0.8
		c-1,0-1.9-0.3-2.5-0.9c-0.6-0.6-0.9-1.6-0.9-2.8c0-1,0.2-1.9,0.6-2.7c0.4-0.8,0.9-1.4,1.6-1.9s1.5-0.6,2.3-0.6
		c0.9,0,1.7,0.2,2.3,0.7c0.6,0.5,0.9,1.2,1,2l-1.7,0.2c-0.1-0.5-0.3-0.9-0.5-1.1c-0.3-0.2-0.6-0.3-1.1-0.3c-0.5,0-0.9,0.1-1.4,0.4
		c-0.4,0.3-0.8,0.8-1,1.4c-0.3,0.6-0.4,1.3-0.4,1.9c0,0.7,0.2,1.2,0.5,1.6c0.3,0.4,0.7,0.6,1.2,0.6c0.5,0,0.9-0.1,1.3-0.4
		C-469.8,558.2-469.5,557.8-469.4,557.2"/>
</g>
<polygon fill="#FFFFFF" points="-465.7,551.7 -466,553.1 -463.4,553.1 -464.9,560.3 -463.2,560.3 -461.7,553.1 -459.2,553.1 
	-458.9,551.7 "/>
<g>
	<defs>
		<rect id="SVGID_23_" x="-843" y="518.7" width="429.7" height="41.7"/>
	</defs>
	<clipPath id="SVGID_24_">
		<use xlink:href="#SVGID_23_"  overflow="visible"/>
	</clipPath>
	<path clip-path="url(#SVGID_24_)" fill="#FFFFFF" d="M-456.8,555.4h0.9c0.9,0,1.6-0.1,1.9-0.2c0.3-0.1,0.6-0.3,0.7-0.5
		c0.2-0.2,0.3-0.5,0.3-0.8c0-0.3-0.1-0.5-0.4-0.7c-0.2-0.1-0.5-0.1-1-0.1h-1.9L-456.8,555.4z M-457.8,560.3h-1.8l1.8-8.6h3.8
		c0.7,0,1.2,0.1,1.5,0.2c0.4,0.1,0.7,0.4,0.9,0.7c0.2,0.4,0.3,0.8,0.3,1.3c0,0.7-0.2,1.3-0.7,1.8c-0.4,0.5-1.1,0.8-2,0.9
		c0.2,0.2,0.4,0.5,0.6,0.8c0.4,0.7,0.8,1.6,1.3,2.8h-1.9c-0.2-0.5-0.5-1.2-0.9-2.3c-0.2-0.6-0.5-0.9-0.8-1.1
		c-0.2-0.1-0.5-0.2-0.9-0.2h-0.7L-457.8,560.3z"/>
	<path clip-path="url(#SVGID_24_)" fill="#FFFFFF" d="M-448.6,556.9c0,0.6,0.2,1.1,0.5,1.5c0.4,0.4,0.8,0.6,1.4,0.6
		c0.5,0,0.9-0.2,1.4-0.5c0.4-0.3,0.8-0.8,1.1-1.4c0.3-0.6,0.4-1.3,0.4-1.9c0-0.7-0.2-1.2-0.5-1.6c-0.4-0.4-0.8-0.6-1.4-0.6
		c-0.9,0-1.6,0.4-2.1,1.2C-448.3,555-448.6,555.9-448.6,556.9 M-450.4,556.9c0-0.5,0.1-1,0.2-1.6c0.2-0.8,0.5-1.4,0.9-2
		c0.4-0.6,0.9-1,1.5-1.3s1.3-0.5,2.1-0.5c1.1,0,1.9,0.3,2.6,1c0.7,0.7,1,1.5,1,2.6c0,0.9-0.2,1.8-0.6,2.6c-0.4,0.8-1,1.5-1.7,2
		c-0.7,0.5-1.6,0.7-2.5,0.7c-0.8,0-1.5-0.2-2-0.5c-0.5-0.4-0.9-0.8-1.2-1.4C-450.2,558-450.4,557.5-450.4,556.9"/>
</g>
<polygon fill="#FFFFFF" points="-434.6,551.7 -435.8,557.4 -438.1,551.7 -439.7,551.7 -441.5,560.3 -439.9,560.3 -438.7,554.5 
	-436.4,560.3 -434.7,560.3 -432.9,551.7 "/>
<polygon fill="#FFFFFF" points="-431.2,551.7 -433,560.3 -431.2,560.3 -429.4,551.7 "/>
<g>
	<defs>
		<rect id="SVGID_25_" x="-843" y="518.7" width="429.7" height="41.7"/>
	</defs>
	<clipPath id="SVGID_26_">
		<use xlink:href="#SVGID_25_"  overflow="visible"/>
	</clipPath>
	<path clip-path="url(#SVGID_26_)" fill="#FFFFFF" d="M-423.4,557.2l1.8,0.3c-0.3,1-0.9,1.7-1.6,2.2c-0.7,0.5-1.5,0.8-2.4,0.8
		c-1,0-1.9-0.3-2.5-0.9c-0.6-0.6-0.9-1.6-0.9-2.8c0-1,0.2-1.9,0.6-2.7c0.4-0.8,0.9-1.4,1.6-1.9s1.5-0.6,2.3-0.6
		c0.9,0,1.7,0.2,2.3,0.7c0.6,0.5,0.9,1.2,1,2l-1.7,0.2c-0.1-0.5-0.3-0.9-0.5-1.1c-0.3-0.2-0.6-0.3-1.1-0.3c-0.5,0-0.9,0.1-1.4,0.4
		c-0.4,0.3-0.8,0.8-1,1.4c-0.3,0.6-0.4,1.3-0.4,1.9c0,0.7,0.2,1.2,0.5,1.6c0.3,0.4,0.7,0.6,1.2,0.6c0.5,0,0.9-0.1,1.3-0.4
		C-423.8,558.2-423.5,557.8-423.4,557.2"/>
	<path clip-path="url(#SVGID_26_)" fill="#FFFFFF" d="M-420.6,557.5l1.7-0.1c0,0.5,0.1,0.9,0.3,1.1c0.3,0.3,0.7,0.5,1.4,0.5
		c0.6,0,1-0.1,1.3-0.3c0.3-0.2,0.4-0.5,0.4-0.8c0-0.3-0.1-0.5-0.3-0.6c-0.1-0.1-0.6-0.3-1.2-0.6c-0.7-0.3-1.2-0.5-1.5-0.7
		c-0.3-0.2-0.5-0.4-0.7-0.8c-0.2-0.3-0.3-0.7-0.3-1.1c0-0.7,0.3-1.3,0.8-1.8c0.5-0.5,1.3-0.7,2.3-0.7c1,0,1.8,0.2,2.3,0.7
		c0.6,0.5,0.9,1.1,0.9,1.9l-1.7,0.1c0-0.4-0.2-0.7-0.4-0.9c-0.3-0.2-0.6-0.3-1.1-0.3c-0.5,0-0.8,0.1-1,0.3c-0.2,0.2-0.3,0.4-0.3,0.6
		c0,0.2,0.1,0.5,0.3,0.6c0.2,0.2,0.6,0.4,1.3,0.7c1,0.4,1.6,0.8,1.9,1c0.4,0.4,0.6,0.9,0.6,1.5c0,0.8-0.3,1.4-0.9,1.9
		c-0.6,0.5-1.4,0.8-2.5,0.8c-0.7,0-1.4-0.1-1.9-0.4c-0.5-0.2-0.9-0.6-1.1-1C-420.6,558.6-420.7,558.1-420.6,557.5"/>
</g>
<polygon fill="#FFFFFF" points="-757.2,541.8 -760.2,550.8 -758.2,550.8 -755.2,541.8 "/>
<polygon fill="none" stroke="#FFFFFF" stroke-miterlimit="10" points="-757.2,541.8 -760.2,550.8 -758.2,550.8 -755.2,541.8 "/>
<polygon fill="#FFFFFF" points="-757.2,541.8 -760.2,550.8 -758.2,550.8 -755.2,541.8 "/>
<polygon fill="none" stroke="#FFFFFF" stroke-linecap="round" stroke-linejoin="round" stroke-miterlimit="8" points="-757.2,541.8 
	-760.2,550.8 -758.2,550.8 -755.2,541.8 "/>
<polygon fill="#FFFFFF" points="-808.2,541.8 -811.2,550.8 -808.2,550.8 -805.2,541.8 "/>
<polygon fill="none" stroke="#FFFFFF" stroke-miterlimit="10" points="-808.2,541.8 -811.2,550.8 -808.2,550.8 -805.2,541.8 "/>
<polygon fill="#FFFFFF" points="-808.2,541.8 -811.2,550.8 -808.2,550.8 -805.2,541.8 "/>
<polygon fill="none" stroke="#FFFFFF" stroke-linecap="round" stroke-linejoin="round" stroke-miterlimit="8" points="-808.2,541.8 
	-811.2,550.8 -808.2,550.8 -805.2,541.8 "/>
<polygon fill="#FFFFFF" points="-767.2,541.8 -770.2,550.8 -768.2,550.8 -765.2,541.8 "/>
<polygon fill="none" stroke="#FFFFFF" stroke-miterlimit="10" points="-767.2,541.8 -770.2,550.8 -768.2,550.8 -765.2,541.8 "/>
<polygon fill="#FFFFFF" points="-767.2,541.8 -770.2,550.8 -768.2,550.8 -765.2,541.8 "/>
<polygon fill="none" stroke="#FFFFFF" stroke-linecap="round" stroke-linejoin="round" stroke-miterlimit="8" points="-767.2,541.8 
	-770.2,550.8 -768.2,550.8 -765.2,541.8 "/>
<polygon fill="#FFFFFF" points="-777.2,541.8 -780.2,550.8 -778.2,550.8 -775.2,541.8 "/>
<polygon fill="none" stroke="#FFFFFF" stroke-miterlimit="10" points="-777.2,541.8 -780.2,550.8 -778.2,550.8 -775.2,541.8 "/>
<polygon fill="#FFFFFF" points="-777.2,541.8 -780.2,550.8 -778.2,550.8 -775.2,541.8 "/>
<polygon fill="none" stroke="#FFFFFF" stroke-linecap="round" stroke-linejoin="round" stroke-miterlimit="8" points="-777.2,541.8 
	-780.2,550.8 -778.2,550.8 -775.2,541.8 "/>
<polygon fill="#FFFFFF" points="-787.2,541.8 -791.2,550.8 -788.2,550.8 -785.2,541.8 "/>
<polygon fill="none" stroke="#FFFFFF" stroke-miterlimit="10" points="-787.2,541.8 -791.2,550.8 -788.2,550.8 -785.2,541.8 "/>
<polygon fill="#FFFFFF" points="-787.2,541.8 -791.2,550.8 -788.2,550.8 -785.2,541.8 "/>
<polygon fill="none" stroke="#FFFFFF" stroke-linecap="round" stroke-linejoin="round" stroke-miterlimit="8" points="-787.2,541.8 
	-791.2,550.8 -788.2,550.8 -785.2,541.8 "/>
<polygon fill="#FFFFFF" points="-798.2,541.8 -801.2,550.8 -798.2,550.8 -795.2,541.8 "/>
<polygon fill="none" stroke="#FFFFFF" stroke-miterlimit="10" points="-798.2,541.8 -801.2,550.8 -798.2,550.8 -795.2,541.8 "/>
<polygon fill="#FFFFFF" points="-798.2,541.8 -801.2,550.8 -798.2,550.8 -795.2,541.8 "/>
<polygon fill="none" stroke="#FFFFFF" stroke-linecap="round" stroke-linejoin="round" stroke-miterlimit="8" points="-798.2,541.8 
	-801.2,550.8 -798.2,550.8 -795.2,541.8 "/>
<polygon fill="#FFFFFF" points="-838.2,541.8 -842.2,550.8 -838.2,550.8 -835.2,541.8 "/>
<g>
	<defs>
		<rect id="SVGID_27_" x="-843" y="518.7" width="429.7" height="41.7"/>
	</defs>
	<clipPath id="SVGID_28_">
		<use xlink:href="#SVGID_27_"  overflow="visible"/>
	</clipPath>
	<polygon clip-path="url(#SVGID_28_)" fill="none" stroke="#FFFFFF" stroke-miterlimit="10" points="-838.2,541.8 -842.2,550.8 
		-838.2,550.8 -835.2,541.8 	"/>
</g>
<polygon fill="#FFFFFF" points="-838.2,541.8 -842.2,550.8 -838.2,550.8 -835.2,541.8 "/>
<g>
	<defs>
		<rect id="SVGID_29_" x="-843" y="518.7" width="429.7" height="41.7"/>
	</defs>
	<clipPath id="SVGID_30_">
		<use xlink:href="#SVGID_29_"  overflow="visible"/>
	</clipPath>
	
		<polygon clip-path="url(#SVGID_30_)" fill="none" stroke="#FFFFFF" stroke-linecap="round" stroke-linejoin="round" stroke-miterlimit="8" points="
		-838.2,541.8 -842.2,550.8 -838.2,550.8 -835.2,541.8 	"/>
</g>
<polygon fill="#FFFFFF" points="-829.2,541.8 -824.2,541.8 -827.2,550.8 -832.2,550.8 "/>
<polygon fill="none" stroke="#FFFFFF" stroke-miterlimit="10" points="-829.2,541.8 -824.2,541.8 -827.2,550.8 -832.2,550.8 "/>
<polygon fill="#FFFFFF" points="-829.2,541.8 -824.2,541.8 -827.2,550.8 -832.2,550.8 "/>
<polygon fill="none" stroke="#FFFFFF" stroke-linecap="round" stroke-linejoin="round" stroke-miterlimit="8" points="-829.2,541.8 
	-824.2,541.8 -827.2,550.8 -832.2,550.8 "/>
<polygon fill="#FFFFFF" points="-818.2,541.8 -821.2,550.8 -818.2,550.8 -815.2,541.8 "/>
<polygon fill="none" stroke="#FFFFFF" stroke-miterlimit="10" points="-818.2,541.8 -821.2,550.8 -818.2,550.8 -815.2,541.8 "/>
<polygon fill="#FFFFFF" points="-818.2,541.8 -821.2,550.8 -818.2,550.8 -815.2,541.8 "/>
<polygon fill="none" stroke="#FFFFFF" stroke-linecap="round" stroke-linejoin="round" stroke-miterlimit="8" points="-818.2,541.8 
	-821.2,550.8 -818.2,550.8 -815.2,541.8 "/>
<polygon fill="#FFFFFF" points="-726.2,541.8 -728.2,550.8 -727.2,550.8 -724.2,541.8 "/>
<polygon fill="none" stroke="#FFFFFF" stroke-miterlimit="10" points="-726.2,541.8 -728.2,550.8 -727.2,550.8 -724.2,541.8 "/>
<polygon fill="#FFFFFF" points="-726.2,541.8 -728.2,550.8 -727.2,550.8 -724.2,541.8 "/>
<polygon fill="none" stroke="#FFFFFF" stroke-linecap="round" stroke-linejoin="round" stroke-miterlimit="8" points="-726.2,541.8 
	-728.2,550.8 -727.2,550.8 -724.2,541.8 "/>
<path fill="#FFFFFF" d="M-687.2,541.8l-2,9L-687.2,541.8z"/>
<path fill="none" stroke="#FFFFFF" stroke-miterlimit="10" d="M-687.2,541.8l-2,9L-687.2,541.8z"/>
<path fill="#FFFFFF" d="M-687.2,541.8l-2,9L-687.2,541.8z"/>
<path fill="none" stroke="#FFFFFF" stroke-linecap="round" stroke-linejoin="round" stroke-miterlimit="8" d="M-687.2,541.8l-2,9
	L-687.2,541.8z"/>
<polygon fill="#FFFFFF" points="-697.2,541.8 -698.2,550.8 -696.2,541.8 "/>
<polygon fill="none" stroke="#FFFFFF" stroke-miterlimit="10" points="-697.2,541.8 -698.2,550.8 -696.2,541.8 "/>
<polygon fill="#FFFFFF" points="-697.2,541.8 -698.2,550.8 -696.2,541.8 "/>
<polygon fill="none" stroke="#FFFFFF" stroke-linecap="round" stroke-linejoin="round" stroke-miterlimit="8" points="-697.2,541.8 
	-698.2,550.8 -696.2,541.8 "/>
<polygon fill="#FFFFFF" points="-706.2,541.8 -708.2,550.8 -707.2,550.8 -705.2,541.8 "/>
<polygon fill="none" stroke="#FFFFFF" stroke-miterlimit="10" points="-706.2,541.8 -708.2,550.8 -707.2,550.8 -705.2,541.8 "/>
<polygon fill="#FFFFFF" points="-706.2,541.8 -708.2,550.8 -707.2,550.8 -705.2,541.8 "/>
<polygon fill="none" stroke="#FFFFFF" stroke-linecap="round" stroke-linejoin="round" stroke-miterlimit="8" points="-706.2,541.8 
	-708.2,550.8 -707.2,550.8 -705.2,541.8 "/>
<polygon fill="#FFFFFF" points="-716.2,541.8 -718.2,550.8 -717.2,550.8 -715.2,541.8 "/>
<polygon fill="none" stroke="#FFFFFF" stroke-miterlimit="10" points="-716.2,541.8 -718.2,550.8 -717.2,550.8 -715.2,541.8 "/>
<polygon fill="#FFFFFF" points="-716.2,541.8 -718.2,550.8 -717.2,550.8 -715.2,541.8 "/>
<polygon fill="none" stroke="#FFFFFF" stroke-linecap="round" stroke-linejoin="round" stroke-miterlimit="8" points="-716.2,541.8 
	-718.2,550.8 -717.2,550.8 -715.2,541.8 "/>
<polygon fill="#FFFFFF" points="-737.2,541.8 -739.2,550.8 -738.2,550.8 -735.2,541.8 "/>
<polygon fill="none" stroke="#FFFFFF" stroke-miterlimit="10" points="-737.2,541.8 -739.2,550.8 -738.2,550.8 -735.2,541.8 "/>
<polygon fill="#FFFFFF" points="-737.2,541.8 -739.2,550.8 -738.2,550.8 -735.2,541.8 "/>
<polygon fill="none" stroke="#FFFFFF" stroke-linecap="round" stroke-linejoin="round" stroke-miterlimit="8" points="-737.2,541.8 
	-739.2,550.8 -738.2,550.8 -735.2,541.8 "/>
<polygon fill="#FFFFFF" points="-747.2,541.8 -749.2,550.8 -747.2,550.8 -745.2,541.8 "/>
<polygon fill="none" stroke="#FFFFFF" stroke-miterlimit="10" points="-747.2,541.8 -749.2,550.8 -747.2,550.8 -745.2,541.8 "/>
<polygon fill="#FFFFFF" points="-747.2,541.8 -749.2,550.8 -747.2,550.8 -745.2,541.8 "/>
<polygon fill="none" stroke="#FFFFFF" stroke-linecap="round" stroke-linejoin="round" stroke-miterlimit="8" points="-747.2,541.8 
	-749.2,550.8 -747.2,550.8 -745.2,541.8 "/>
</svg>
